  0
SECTION
  2
HEADER
  9
$ACADVER
  1
AC1027
  9
$ACADMAINTVER
 70
     8
  9
$DWGCODEPAGE
  3
ANSI_1252
  9
$REQUIREDVERSIONS
160
                 0
  9
$INSBASE
 10
0.0
 20
0.0
 30
0.0
  9
$EXTMIN
 10
1.000000000000000E+20
 20
1.000000000000000E+20
 30
1.000000000000000E+20
  9
$EXTMAX
 10
-1.000000000000000E+20
 20
-1.000000000000000E+20
 30
-1.000000000000000E+20
  9
$LIMMIN
 10
0.0
 20
0.0
  9
$LIMMAX
 10
12.0
 20
9.0
  9
$ORTHOMODE
 70
     0
  9
$REGENMODE
 70
     1
  9
$FILLMODE
 70
     1
  9
$QTEXTMODE
 70
     0
  9
$MIRRTEXT
 70
     1
  9
$LTSCALE
 40
1.0
  9
$ATTMODE
 70
     1
  9
$TEXTSIZE
 40
0.2
  9
$TRACEWID
 40
0.05
  9
$TEXTSTYLE
  7
Standard
  9
$CLAYER
  8
0
  9
$CELTYPE
  6
ByLayer
  9
$CECOLOR
 62
   256
  9
$CELTSCALE
 40
1.0
  9
$DISPSILH
 70
     0
  9
$DIMSCALE
 40
1.0
  9
$DIMASZ
 40
0.18
  9
$DIMEXO
 40
0.0625
  9
$DIMDLI
 40
0.38
  9
$DIMRND
 40
0.0
  9
$DIMDLE
 40
0.0
  9
$DIMEXE
 40
0.18
  9
$DIMTP
 40
0.0
  9
$DIMTM
 40
0.0
  9
$DIMTXT
 40
0.18
  9
$DIMCEN
 40
0.09
  9
$DIMTSZ
 40
0.0
  9
$DIMTOL
 70
     0
  9
$DIMLIM
 70
     0
  9
$DIMTIH
 70
     1
  9
$DIMTOH
 70
     1
  9
$DIMSE1
 70
     0
  9
$DIMSE2
 70
     0
  9
$DIMTAD
 70
     0
  9
$DIMZIN
 70
     0
  9
$DIMBLK
  1

  9
$DIMASO
 70
     1
  9
$DIMSHO
 70
     1
  9
$DIMPOST
  1

  9
$DIMAPOST
  1

  9
$DIMALT
 70
     0
  9
$DIMALTD
 70
     2
  9
$DIMALTF
 40
25.4
  9
$DIMLFAC
 40
1.0
  9
$DIMTOFL
 70
     0
  9
$DIMTVP
 40
0.0
  9
$DIMTIX
 70
     0
  9
$DIMSOXD
 70
     0
  9
$DIMSAH
 70
     0
  9
$DIMBLK1
  1

  9
$DIMBLK2
  1

  9
$DIMSTYLE
  2
Standard
  9
$DIMCLRD
 70
     0
  9
$DIMCLRE
 70
     0
  9
$DIMCLRT
 70
     0
  9
$DIMTFAC
 40
1.0
  9
$DIMGAP
 40
0.09
  9
$DIMJUST
 70
     0
  9
$DIMSD1
 70
     0
  9
$DIMSD2
 70
     0
  9
$DIMTOLJ
 70
     1
  9
$DIMTZIN
 70
     0
  9
$DIMALTZ
 70
     0
  9
$DIMALTTZ
 70
     0
  9
$DIMUPT
 70
     0
  9
$DIMDEC
 70
     4
  9
$DIMTDEC
 70
     4
  9
$DIMALTU
 70
     2
  9
$DIMALTTD
 70
     2
  9
$DIMTXSTY
  7
Standard
  9
$DIMAUNIT
 70
     0
  9
$DIMADEC
 70
     0
  9
$DIMALTRND
 40
0.0
  9
$DIMAZIN
 70
     0
  9
$DIMDSEP
 70
    46
  9
$DIMATFIT
 70
     3
  9
$DIMFRAC
 70
     0
  9
$DIMLDRBLK
  1

  9
$DIMLUNIT
 70
     2
  9
$DIMLWD
 70
    -2
  9
$DIMLWE
 70
    -2
  9
$DIMTMOVE
 70
     0
  9
$DIMFXL
 40
1.0
  9
$DIMFXLON
 70
     0
  9
$DIMJOGANG
 40
0.7853981633974483
  9
$DIMTFILL
 70
     0
  9
$DIMTFILLCLR
 70
     0
  9
$DIMARCSYM
 70
     0
  9
$DIMLTYPE
  6

  9
$DIMLTEX1
  6

  9
$DIMLTEX2
  6

  9
$DIMTXTDIRECTION
 70
     0
  9
$LUNITS
 70
     2
  9
$LUPREC
 70
     4
  9
$SKETCHINC
 40
0.1
  9
$FILLETRAD
 40
0.5
  9
$AUNITS
 70
     0
  9
$AUPREC
 70
     0
  9
$MENU
  1
.
  9
$ELEVATION
 40
0.0
  9
$PELEVATION
 40
0.0
  9
$THICKNESS
 40
0.0
  9
$LIMCHECK
 70
     0
  9
$CHAMFERA
 40
0.0
  9
$CHAMFERB
 40
0.0
  9
$CHAMFERC
 40
0.0
  9
$CHAMFERD
 40
0.0
  9
$SKPOLY
 70
     0
  9
$TDCREATE
 40
2457856.604710475
  9
$TDUCREATE
 40
2457856.521377141
  9
$TDUPDATE
 40
2457856.604710718
  9
$TDUUPDATE
 40
2457856.521377384
  9
$TDINDWG
 40
0.0000000116
  9
$TDUSRTIMER
 40
0.0000000116
  9
$USRTIMER
 70
     1
  9
$ANGBASE
 50
0.0
  9
$ANGDIR
 70
     0
  9
$PDMODE
 70
     0
  9
$PDSIZE
 40
0.0
  9
$PLINEWID
 40
0.0
  9
$SPLFRAME
 70
     0
  9
$SPLINETYPE
 70
     6
  9
$SPLINESEGS
 70
     8
  9
$HANDSEED
  5
292
  9
$SURFTAB1
 70
     6
  9
$SURFTAB2
 70
     6
  9
$SURFTYPE
 70
     6
  9
$SURFU
 70
     6
  9
$SURFV
 70
     6
  9
$UCSBASE
  2

  9
$UCSNAME
  2

  9
$UCSORG
 10
0.0
 20
0.0
 30
0.0
  9
$UCSXDIR
 10
1.0
 20
0.0
 30
0.0
  9
$UCSYDIR
 10
0.0
 20
1.0
 30
0.0
  9
$UCSORTHOREF
  2

  9
$UCSORTHOVIEW
 70
     0
  9
$UCSORGTOP
 10
0.0
 20
0.0
 30
0.0
  9
$UCSORGBOTTOM
 10
0.0
 20
0.0
 30
0.0
  9
$UCSORGLEFT
 10
0.0
 20
0.0
 30
0.0
  9
$UCSORGRIGHT
 10
0.0
 20
0.0
 30
0.0
  9
$UCSORGFRONT
 10
0.0
 20
0.0
 30
0.0
  9
$UCSORGBACK
 10
0.0
 20
0.0
 30
0.0
  9
$PUCSBASE
  2

  9
$PUCSNAME
  2

  9
$PUCSORG
 10
0.0
 20
0.0
 30
0.0
  9
$PUCSXDIR
 10
1.0
 20
0.0
 30
0.0
  9
$PUCSYDIR
 10
0.0
 20
1.0
 30
0.0
  9
$PUCSORTHOREF
  2

  9
$PUCSORTHOVIEW
 70
     0
  9
$PUCSORGTOP
 10
0.0
 20
0.0
 30
0.0
  9
$PUCSORGBOTTOM
 10
0.0
 20
0.0
 30
0.0
  9
$PUCSORGLEFT
 10
0.0
 20
0.0
 30
0.0
  9
$PUCSORGRIGHT
 10
0.0
 20
0.0
 30
0.0
  9
$PUCSORGFRONT
 10
0.0
 20
0.0
 30
0.0
  9
$PUCSORGBACK
 10
0.0
 20
0.0
 30
0.0
  9
$USERI1
 70
     0
  9
$USERI2
 70
     0
  9
$USERI3
 70
     0
  9
$USERI4
 70
     0
  9
$USERI5
 70
     0
  9
$USERR1
 40
0.0
  9
$USERR2
 40
0.0
  9
$USERR3
 40
0.0
  9
$USERR4
 40
0.0
  9
$USERR5
 40
0.0
  9
$WORLDVIEW
 70
     1
  9
$SHADEDGE
 70
     3
  9
$SHADEDIF
 70
    70
  9
$TILEMODE
 70
     1
  9
$MAXACTVP
 70
    64
  9
$PINSBASE
 10
0.0
 20
0.0
 30
0.0
  9
$PLIMCHECK
 70
     0
  9
$PEXTMIN
 10
1.000000000000000E+20
 20
1.000000000000000E+20
 30
1.000000000000000E+20
  9
$PEXTMAX
 10
-1.000000000000000E+20
 20
-1.000000000000000E+20
 30
-1.000000000000000E+20
  9
$PLIMMIN
 10
0.0
 20
0.0
  9
$PLIMMAX
 10
12.0
 20
9.0
  9
$UNITMODE
 70
     0
  9
$VISRETAIN
 70
     1
  9
$PLINEGEN
 70
     0
  9
$PSLTSCALE
 70
     1
  9
$TREEDEPTH
 70
  3020
  9
$CMLSTYLE
  2
Standard
  9
$CMLJUST
 70
     0
  9
$CMLSCALE
 40
1.0
  9
$PROXYGRAPHICS
 70
     1
  9
$MEASUREMENT
 70
     1
  9
$CELWEIGHT
370
    -1
  9
$ENDCAPS
280
     0
  9
$JOINSTYLE
280
     0
  9
$LWDISPLAY
290
     0
  9
$INSUNITS
 70
     4
  9
$HYPERLINKBASE
  1

  9
$STYLESHEET
  1

  9
$XEDIT
290
     1
  9
$CEPSNTYPE
380
     0
  9
$PSTYLEMODE
290
     1
  9
$FINGERPRINTGUID
  2
{81F2CA49-CBC6-4DBF-8FBD-D601E4331683}
  9
$VERSIONGUID
  2
{FAEB1C32-E019-11D5-929B-00C0DF256EC4}
  9
$EXTNAMES
290
     1
  9
$PSVPSCALE
 40
0.0
  9
$OLESTARTUP
290
     0
  9
$SORTENTS
280
   127
  9
$INDEXCTL
280
     0
  9
$HIDETEXT
280
     1
  9
$XCLIPFRAME
280
     2
  9
$HALOGAP
280
     0
  9
$OBSCOLOR
 70
   257
  9
$OBSLTYPE
280
     0
  9
$INTERSECTIONDISPLAY
280
     0
  9
$INTERSECTIONCOLOR
 70
   257
  9
$DIMASSOC
280
     2
  9
$PROJECTNAME
  1

  9
$CAMERADISPLAY
290
     0
  9
$LENSLENGTH
 40
50.0
  9
$CAMERAHEIGHT
 40
0.0
  9
$STEPSPERSEC
 40
2.0
  9
$STEPSIZE
 40
6.0
  9
$3DDWFPREC
 40
2.0
  9
$PSOLWIDTH
 40
0.25
  9
$PSOLHEIGHT
 40
4.0
  9
$LOFTANG1
 40
1.570796326794897
  9
$LOFTANG2
 40
1.570796326794897
  9
$LOFTMAG1
 40
0.0
  9
$LOFTMAG2
 40
0.0
  9
$LOFTPARAM
 70
     7
  9
$LOFTNORMALS
280
     1
  9
$LATITUDE
 40
37.795
  9
$LONGITUDE
 40
-122.394
  9
$NORTHDIRECTION
 40
0.0
  9
$TIMEZONE
 70
 -8000
  9
$LIGHTGLYPHDISPLAY
280
     1
  9
$TILEMODELIGHTSYNCH
280
     1
  9
$CMATERIAL
347
44
  9
$SOLIDHIST
280
     1
  9
$SHOWHIST
280
     1
  9
$DWFFRAME
280
     2
  9
$DGNFRAME
280
     2
  9
$REALWORLDSCALE
290
     1
  9
$INTERFERECOLOR
 62
   256
  9
$CSHADOW
280
     0
  9
$SHADOWPLANELOCATION
 40
0.0
  0
ENDSEC
  0
SECTION
  2
CLASSES
  0
CLASS
  1
ACDBDICTIONARYWDFLT
  2
AcDbDictionaryWithDefault
  3
ObjectDBX Classes
 90
        0
 91
        4
280
     0
281
     0
  0
CLASS
  1
VISUALSTYLE
  2
AcDbVisualStyle
  3
ObjectDBX Classes
 90
     4095
 91
        4
280
     0
281
     0
  0
CLASS
  1
MATERIAL
  2
AcDbMaterial
  3
ObjectDBX Classes
 90
     1153
 91
        4
280
     0
281
     0
  0
CLASS
  1
SCALE
  2
AcDbScale
  3
ObjectDBX Classes
 90
     1153
 91
        4
280
     0
281
     0
  0
CLASS
  1
SUN
  2
AcDbSun
  3
SCENEOE
 90
     1153
 91
        4
280
     0
281
     0
  0
CLASS
  1
DICTIONARYVAR
  2
AcDbDictionaryVar
  3
ObjectDBX Classes
 90
        0
 91
        4
280
     0
281
     0
  0
ENDSEC
  0
SECTION
  2
TABLES
  0
TABLE
  2
VPORT
  5
8
330
0
100
AcDbSymbolTable
 70
     1
  0
VPORT
  5
29
330
8
100
AcDbSymbolTableRecord
100
AcDbViewportTableRecord
  2
*Active
 70
     0
 10
0.0
 20
0.0
 11
1.0
 21
1.0
 12
0.0
 22
0.0
 13
0.0
 23
0.0
 14
0.5
 24
0.5
 15
0.5
 25
0.5
 16
0.0
 26
0.0
 36
1.0
 17
0.0
 27
0.0
 37
-1000.0
 40
522.4210526347135
 41
1.170414201183432
 42
50.0
 43
734.1785528253101
 44
925.2693423574674
 50
0.0
 51
0.0
 71
     0
 72
   100
 73
     1
 74
     3
 75
     0
 76
     0
 77
     0
 78
     0
281
     0
 65
     1
110
0.0
120
0.0
130
0.0
111
1.0
121
0.0
131
0.0
112
0.0
122
1.0
132
0.0
 79
     0
146
0.0
 60
     3
 61
     5
292
     1
282
     1
141
0.0
142
0.0
 63
   250
361
69
  0
ENDTAB
  0
TABLE
  2
LTYPE
  5
5
330
0
100
AcDbSymbolTable
 70
     1
  0
LTYPE
  5
14
330
5
100
AcDbSymbolTableRecord
100
AcDbLinetypeTableRecord
  2
ByBlock
 70
     0
  3

 72
    65
 73
     0
 40
0.0
  0
LTYPE
  5
15
330
5
100
AcDbSymbolTableRecord
100
AcDbLinetypeTableRecord
  2
ByLayer
 70
     0
  3

 72
    65
 73
     0
 40
0.0
  0
LTYPE
  5
16
330
5
100
AcDbSymbolTableRecord
100
AcDbLinetypeTableRecord
  2
Continuous
 70
     0
  3
Solid line
 72
    65
 73
     0
 40
0.0
  0
ENDTAB
  0
TABLE
  2
LAYER
  5
2
330
0
100
AcDbSymbolTable
 70
     3
  0
LAYER
  5
10
330
2
100
AcDbSymbolTableRecord
100
AcDbLayerTableRecord
  2
0
 70
     0
 62
     7
  6
Continuous
370
    -3
390
F
347
46
348
0
  0
LAYER
  5
6A
330
2
100
AcDbSymbolTableRecord
100
AcDbLayerTableRecord
  2
ProfileEdges
 70
     0
 62
     7
  6
Continuous
370
    -3
390
F
347
46
348
0
  0
LAYER
  5
6B
330
2
100
AcDbSymbolTableRecord
100
AcDbLayerTableRecord
  2
SectionCutEdges
 70
     0
 62
     7
  6
Continuous
370
    -3
390
F
347
46
348
0
  0
ENDTAB
  0
TABLE
  2
STYLE
  5
3
330
0
100
AcDbSymbolTable
 70
     1
  0
STYLE
  5
11
330
3
100
AcDbSymbolTableRecord
100
AcDbTextStyleTableRecord
  2
Standard
 70
     0
 40
0.0
 41
1.0
 50
0.0
 71
     0
 42
0.2
  3
txt
  4

  0
ENDTAB
  0
TABLE
  2
VIEW
  5
6
330
0
100
AcDbSymbolTable
 70
     0
  0
ENDTAB
  0
TABLE
  2
UCS
  5
7
330
0
100
AcDbSymbolTable
 70
     0
  0
ENDTAB
  0
TABLE
  2
APPID
  5
9
330
0
100
AcDbSymbolTable
 70
     1
  0
APPID
  5
12
330
9
100
AcDbSymbolTableRecord
100
AcDbRegAppTableRecord
  2
ACAD
 70
     0
  0
ENDTAB
  0
TABLE
  2
DIMSTYLE
  5
A
330
0
100
AcDbSymbolTable
 70
     1
100
AcDbDimStyleTable
  0
DIMSTYLE
105
27
330
A
100
AcDbSymbolTableRecord
100
AcDbDimStyleTableRecord
  2
Standard
 70
     0
178
     0
340
11
  0
ENDTAB
  0
TABLE
  2
BLOCK_RECORD
  5
1
330
0
100
AcDbSymbolTable
 70
     1
  0
BLOCK_RECORD
  5
1F
330
1
100
AcDbSymbolTableRecord
100
AcDbBlockTableRecord
  2
*Model_Space
340
22
 70
     0
280
     1
281
     0
  0
BLOCK_RECORD
  5
1B
330
1
100
AcDbSymbolTableRecord
100
AcDbBlockTableRecord
  2
*Paper_Space
340
1E
 70
     0
280
     1
281
     0
  0
BLOCK_RECORD
  5
23
330
1
100
AcDbSymbolTableRecord
100
AcDbBlockTableRecord
  2
*Paper_Space0
340
26
 70
     0
280
     1
281
     0
  0
ENDTAB
  0
ENDSEC
  0
SECTION
  2
BLOCKS
  0
BLOCK
  5
20
330
1F
100
AcDbEntity
  8
0
100
AcDbBlockBegin
  2
*Model_Space
 70
     0
 10
0.0
 20
0.0
 30
0.0
  3
*Model_Space
  1
*Model_Space
  0
ENDBLK
  5
21
330
1F
100
AcDbEntity
  8
0
100
AcDbBlockEnd
  0
BLOCK
  5
1C
330
1B
100
AcDbEntity
 67
     1
  8
0
100
AcDbBlockBegin
  2
*Paper_Space
 70
     0
 10
0.0
 20
0.0
 30
0.0
  3
*Paper_Space
  1
*Paper_Space
  0
ENDBLK
  5
1D
330
1B
100
AcDbEntity
 67
     1
  8
0
100
AcDbBlockEnd
  0
BLOCK
  5
24
330
23
100
AcDbEntity
  8
0
100
AcDbBlockBegin
  2
*Paper_Space0
 70
     0
 10
0.0
 20
0.0
 30
0.0
  3
*Paper_Space0
  1
*Paper_Space0
  0
ENDBLK
  5
25
330
23
100
AcDbEntity
  8
0
100
AcDbBlockEnd
  0
ENDSEC
  0
SECTION
  2
ENTITIES
  0
LWPOLYLINE
  5
6C
330
1F
100
AcDbEntity
  8
ProfileEdges
100
AcDbPolyline
 90
        2
 70
     0
 43
1.236499532863227
 10
184.0000141368643
 20
34.05000000051189
 10
184.0000141368643
 20
44.05000000051115
  0
LWPOLYLINE
  5
6D
330
1F
100
AcDbEntity
  8
ProfileEdges
100
AcDbPolyline
 90
        2
 70
     0
 43
1.236499532863227
 10
139.6948860469699
 20
-239.3999999998366
 10
139.545035413213
 20
-239.7617714321829
  0
LWPOLYLINE
  5
6E
330
1F
100
AcDbEntity
  8
ProfileEdges
100
AcDbPolyline
 90
        2
 70
     0
 43
1.236499532863227
 10
184.0000141368734
 20
94.05000000042922
 10
190.000014136874
 20
94.05000000042922
  0
LWPOLYLINE
  5
6F
330
1F
100
AcDbEntity
  8
ProfileEdges
100
AcDbPolyline
 90
        2
 70
     0
 43
1.236499532863227
 10
170.9939241526307
 20
243.1500000002286
 10
160.9939241525626
 20
243.1500000002787
  0
LWPOLYLINE
  5
70
330
1F
100
AcDbEntity
  8
ProfileEdges
100
AcDbPolyline
 90
        2
 70
     0
 43
1.236499532863227
 10
-113.3882323228339
 20
190.7011112609995
 10
-113.0000037551801
 20
190.6500000004332
  0
LWPOLYLINE
  5
71
330
1F
100
AcDbEntity
  8
ProfileEdges
100
AcDbPolyline
 90
        2
 70
     0
 43
1.236499532863227
 10
140.2439241526466
 20
-238.85096189416
 10
140.6056955849928
 20
-238.7011112604031
  0
LWPOLYLINE
  5
72
330
1F
100
AcDbEntity
  8
ProfileEdges
100
AcDbPolyline
 90
        2
 70
     0
 43
1.236499532863227
 10
142.0545843243392
 20
241.2106601720541
 10
141.7439241525594
 20
241.4490381059509
  0
LWPOLYLINE
  5
73
330
1F
100
AcDbEntity
  8
ProfileEdges
100
AcDbPolyline
 90
        2
 70
     0
 43
1.236499532863227
 10
185.7009760311929
 20
192.9000000004309
 10
185.9393539650898
 20
193.2106601722107
  0
LWPOLYLINE
  5
74
330
1F
100
AcDbEntity
  8
ProfileEdges
100
AcDbPolyline
 90
        2
 70
     0
 43
1.236499532863227
 10
27.99435541041525
 20
237.1500000001857
 10
27.99435541041579
 20
243.1500000001855
  0
LWPOLYLINE
  5
75
330
1F
100
AcDbEntity
  8
ProfileEdges
100
AcDbPolyline
 90
        2
 70
     0
 43
1.236499532863227
 10
186.6117855692157
 20
-193.5988887392459
 10
186.2500141368696
 20
-193.449038105489
  0
LWPOLYLINE
  5
76
330
1F
100
AcDbEntity
  8
ProfileEdges
100
AcDbPolyline
 90
        2
 70
     0
 43
1.236499532863227
 10
184.0000141368734
 20
-162.1499999998941
 10
190.000014136874
 20
-162.1499999998941
  0
LWPOLYLINE
  5
77
330
1F
100
AcDbEntity
  8
ProfileEdges
100
AcDbPolyline
 90
        2
 70
     0
 43
1.236499532863227
 10
187.7500141368696
 20
-65.34903810533059
 10
188.0606743086494
 20
-65.11066017143362
  0
LWPOLYLINE
  5
78
330
1F
100
AcDbEntity
  8
ProfileEdges
100
AcDbPolyline
 90
        2
 70
     0
 43
1.236499532863227
 10
-3.304682695264261
 20
240.9000000001821
 10
-3.454533329021191
 20
240.538228567836
  0
LWPOLYLINE
  5
79
330
1F
100
AcDbEntity
  8
ProfileEdges
100
AcDbPolyline
 90
        2
 70
     0
 43
1.236499532863227
 10
-143.9393374936637
 20
-239.0893398280532
 10
-144.2499976654435
 20
-238.8509618941565
  0
LWPOLYLINE
  5
7A
330
1F
100
AcDbEntity
  8
ProfileEdges
100
AcDbPolyline
 90
        2
 70
     0
 43
1.236499532863227
 10
188.2990522425462
 20
192.9000000004309
 10
188.0606743086494
 20
193.2106601722107
  0
LWPOLYLINE
  5
7B
330
1F
100
AcDbEntity
  8
ProfileEdges
100
AcDbPolyline
 90
        2
 70
     0
 43
1.236499532863227
 10
194.7953403172936
 20
243.7029036628271
 10
194.9997896252094
 20
242.1499844017906
  0
LWPOLYLINE
  5
7C
330
1F
100
AcDbEntity
  8
ProfileEdges
100
AcDbPolyline
 90
        2
 70
     0
 43
1.236499532863227
 10
-144.9999976654435
 20
-241.6499999998331
 10
-144.6117690977897
 20
-241.5988887392667
  0
LWPOLYLINE
  5
7D
330
1F
100
AcDbEntity
  8
ProfileEdges
100
AcDbPolyline
 90
        2
 70
     0
 43
1.236499532863227
 10
185.7009760311929
 20
192.9000000004309
 10
185.5511253974359
 20
192.5382285680846
  0
LWPOLYLINE
  5
7E
330
1F
100
AcDbEntity
  8
ProfileEdges
100
AcDbPolyline
 90
        2
 70
     0
 43
1.236499532863227
 10
135.2475487194718
 20
134.2335498019515
 10
134.4083883969487
 20
135.3148066553617
  0
LWPOLYLINE
  5
7F
330
1F
100
AcDbEntity
  8
ProfileEdges
100
AcDbPolyline
 90
        2
 70
     0
 43
1.236499532863227
 10
127.3014605415297
 20
139.066944223793
 10
125.9352950435261
 20
139.1500000002796
  0
LWPOLYLINE
  5
80
330
1F
100
AcDbEntity
  8
ProfileEdges
100
AcDbPolyline
 90
        2
 70
     0
 43
1.236499532863227
 10
-145.7499976654435
 20
-241.4490381055098
 10
-145.3882262330973
 20
-241.5988887392667
  0
LWPOLYLINE
  5
81
330
1F
100
AcDbEntity
  8
ProfileEdges
100
AcDbPolyline
 90
        2
 70
     0
 43
1.236499532863227
 10
-145.3882262330973
 20
-241.5988887392667
 10
-144.9999976654435
 20
-241.6499999998331
  0
LWPOLYLINE
  5
82
330
1F
100
AcDbEntity
  8
ProfileEdges
100
AcDbPolyline
 90
        2
 70
     0
 43
1.236499532863227
 10
187.0000141368696
 20
-190.6499999998122
 10
187.3882427045233
 20
-190.7011112603787
  0
LWPOLYLINE
  5
83
330
1F
100
AcDbEntity
  8
ProfileEdges
100
AcDbPolyline
 90
        2
 70
     0
 43
1.236499532863227
 10
-3.454533328934156
 20
-239.7617714321782
 10
-3.505644589500573
 20
-240.1499999998319
  0
LWPOLYLINE
  5
84
330
1F
100
AcDbEntity
  8
ProfileEdges
100
AcDbPolyline
 90
        2
 70
     0
 43
1.236499532863227
 10
185.5511253974359
 20
-192.5382285674661
 10
185.5000141368696
 20
-192.1499999998122
  0
LWPOLYLINE
  5
85
330
1F
100
AcDbEntity
  8
ProfileEdges
100
AcDbPolyline
 90
        2
 70
     0
 43
1.236499532863227
 10
190.0000141368659
 20
-222.1499999998115
 10
184.0000141368643
 20
-222.1499999998115
  0
LWPOLYLINE
  5
86
330
1F
100
AcDbEntity
  8
ProfileEdges
100
AcDbPolyline
 90
        2
 70
     0
 43
1.236499532863227
 10
184.0000141368643
 20
-222.1499999998115
 10
184.0000141368643
 20
-212.1499999998122
  0
LWPOLYLINE
  5
87
330
1F
100
AcDbEntity
  8
ProfileEdges
100
AcDbPolyline
 90
        2
 70
     0
 43
1.236499532863227
 10
188.0606743086494
 20
-193.210660171592
 10
188.2990522425462
 20
-192.8999999998123
  0
LWPOLYLINE
  5
88
330
1F
100
AcDbEntity
  8
ProfileEdges
100
AcDbPolyline
 90
        2
 70
     0
 43
1.236499532863227
 10
-145.0000037553523
 20
238.6500000002012
 10
-144.6117751876986
 20
238.7011112607677
  0
LWPOLYLINE
  5
89
330
1F
100
AcDbEntity
  8
ProfileEdges
100
AcDbPolyline
 90
        2
 70
     0
 43
1.236499532863227
 10
188.5000141368697
 20
-64.04999999965382
 10
188.4489028763031
 20
-64.43822856730772
  0
LWPOLYLINE
  5
8A
330
1F
100
AcDbEntity
  8
ProfileEdges
100
AcDbPolyline
 90
        2
 70
     0
 43
1.236499532863227
 10
-110.0058554812692
 20
-212.149999999648
 10
-116.0058554812681
 20
-212.1499999996485
  0
LWPOLYLINE
  5
8B
330
1F
100
AcDbEntity
  8
ProfileEdges
100
AcDbPolyline
 90
        2
 70
     0
 43
1.236499532863227
 10
-102.9334573404259
 20
135.2376142903662
 10
-103.6601779753579
 20
134.150000000279
  0
LWPOLYLINE
  5
8C
330
1F
100
AcDbEntity
  8
ProfileEdges
100
AcDbPolyline
 90
        2
 70
     0
 43
1.236499532863227
 10
154.7486311906808
 20
-113.6398442410513
 10
153.7754765360253
 20
-85.48260111987166
  0
LWPOLYLINE
  5
8D
330
1F
100
AcDbEntity
  8
ProfileEdges
100
AcDbPolyline
 90
        2
 70
     0
 43
1.236499532863227
 10
189.0010851756825
 20
-248.1499999998409
 10
-189.0000037551688
 20
-248.1499999998125
  0
LWPOLYLINE
  5
8E
330
1F
100
AcDbEntity
  8
ProfileEdges
100
AcDbPolyline
 90
        2
 70
     0
 43
1.236499532863227
 10
142.442812891993
 20
240.538228567928
 10
142.2929622582361
 20
240.9000000002743
  0
LWPOLYLINE
  5
8F
330
1F
100
AcDbEntity
  8
ProfileEdges
100
AcDbPolyline
 90
        2
 70
     0
 43
1.236499532863227
 10
-111.9451953094773
 20
62.98933982873366
 10
-112.2558554812572
 20
62.75096189483688
  0
LWPOLYLINE
  5
90
330
1F
100
AcDbEntity
  8
ProfileEdges
100
AcDbPolyline
 90
        2
 70
     0
 43
1.236499532863227
 10
141.7439241526466
 20
-241.4490381055133
 10
142.0545843244264
 20
-241.2106601716164
  0
LWPOLYLINE
  5
91
330
1F
100
AcDbEntity
  8
ProfileEdges
100
AcDbPolyline
 90
        2
 70
     0
 43
1.236499532863227
 10
-111.9451953094894
 20
-62.98933982795423
 10
-112.2558554812692
 20
-62.75096189405735
  0
LWPOLYLINE
  5
92
330
1F
100
AcDbEntity
  8
ProfileEdges
100
AcDbPolyline
 90
        2
 70
     0
 43
1.236499532863227
 10
136.9028475596498
 20
130.4979652739993
 10
136.504032047101
 20
131.807259976079
  0
LWPOLYLINE
  5
93
330
1F
100
AcDbEntity
  8
ProfileEdges
100
AcDbPolyline
 90
        2
 70
     0
 43
1.236499532863227
 10
-110.0058554812771
 20
-44.04999999973064
 10
-110.0058554812781
 20
-34.04999999973061
  0
LWPOLYLINE
  5
94
330
1F
100
AcDbEntity
  8
ProfileEdges
100
AcDbPolyline
 90
        2
 70
     0
 43
1.236499532863227
 10
-194.9994138150624
 20
242.1500000001636
 10
-194.7949669699917
 20
243.7029147309938
  0
LWPOLYLINE
  5
95
330
1F
100
AcDbEntity
  8
ProfileEdges
100
AcDbPolyline
 90
        2
 70
     0
 43
1.236499532863227
 10
190.5526788460926
 20
247.9455545619788
 10
191.9997700343883
 20
247.3461508219483
  0
LWPOLYLINE
  5
96
330
1F
100
AcDbEntity
  8
ProfileEdges
100
AcDbPolyline
 90
        2
 70
     0
 43
1.236499532863227
 10
110.9939241526439
 20
237.1500000002833
 10
120.9939241525631
 20
237.1500000002824
  0
LWPOLYLINE
  5
97
330
1F
100
AcDbEntity
  8
ProfileEdges
100
AcDbPolyline
 90
        2
 70
     0
 43
1.236499532863227
 10
186.2500141368696
 20
-190.8509618941357
 10
185.9393539650898
 20
-191.0893398280324
  0
LWPOLYLINE
  5
98
330
1F
100
AcDbEntity
  8
ProfileEdges
100
AcDbPolyline
 90
        2
 70
     0
 43
1.236499532863227
 10
-116.0000037551805
 20
172.1500000004368
 10
-116.0000037551796
 20
162.150000000517
  0
LWPOLYLINE
  5
99
330
1F
100
AcDbEntity
  8
ProfileEdges
100
AcDbPolyline
 90
        2
 70
     0
 43
1.236499532863227
 10
141.7439241525594
 20
241.4490381059509
 10
141.3821527202132
 20
241.5988887397078
  0
LWPOLYLINE
  5
9A
330
1F
100
AcDbEntity
  8
ProfileEdges
100
AcDbPolyline
 90
        2
 70
     0
 43
1.236499532863227
 10
187.7500141368696
 20
190.8509618947541
 10
188.0606743086494
 20
191.0893398286511
  0
LWPOLYLINE
  5
9B
330
1F
100
AcDbEntity
  8
ProfileEdges
100
AcDbPolyline
 90
        2
 70
     0
 43
1.236499532863227
 10
188.4489028763031
 20
64.43822856816483
 10
188.5000141368697
 20
64.05000000051112
  0
LWPOLYLINE
  5
9C
330
1F
100
AcDbEntity
  8
ProfileEdges
100
AcDbPolyline
 90
        2
 70
     0
 43
1.236499532863227
 10
188.2990522425462
 20
64.80000000051113
 10
188.0606743086494
 20
65.11066017229092
  0
LWPOLYLINE
  5
9D
330
1F
100
AcDbEntity
  8
ProfileEdges
100
AcDbPolyline
 90
        2
 70
     0
 43
1.236499532863227
 10
154.6602311726353
 20
-213.1499999998082
 10
153.9335105377019
 20
-214.2376142898975
  0
LWPOLYLINE
  5
9E
330
1F
100
AcDbEntity
  8
ProfileEdges
100
AcDbPolyline
 90
        2
 70
     0
 43
1.236499532863227
 10
150.999977134784
 20
-216.8102540376596
 10
149.8268114584326
 20
-217.3887953249291
  0
LWPOLYLINE
  5
9F
330
1F
100
AcDbEntity
  8
ProfileEdges
100
AcDbPolyline
 90
        2
 70
     0
 43
1.236499532863227
 10
-174.9999976654432
 20
-237.149999999815
 10
-164.9999976654429
 20
-237.149999999815
  0
LWPOLYLINE
  5
A0
330
1F
100
AcDbEntity
  8
ProfileEdges
100
AcDbPolyline
 90
        2
 70
     0
 43
1.236499532863227
 10
-174.9999976654432
 20
-243.1499999998164
 10
-174.9999976654432
 20
-237.149999999815
  0
LWPOLYLINE
  5
A1
330
1F
100
AcDbEntity
  8
ProfileEdges
100
AcDbPolyline
 90
        2
 70
     0
 43
1.236499532863227
 10
185.5000141368696
 20
64.05000000051112
 10
185.5511253974359
 20
64.43822856816483
  0
LWPOLYLINE
  5
A2
330
1F
100
AcDbEntity
  8
ProfileEdges
100
AcDbPolyline
 90
        2
 70
     0
 43
1.236499532863227
 10
-114.4547442206908
 20
64.43822856816732
 10
-114.3048935869339
 20
64.80000000051348
  0
LWPOLYLINE
  5
A3
330
1F
100
AcDbEntity
  8
ProfileEdges
100
AcDbPolyline
 90
        2
 70
     0
 43
1.236499532863227
 10
-104.2387192626264
 20
132.9768343239298
 10
-104.6591822004042
 20
131.7381904513042
  0
LWPOLYLINE
  5
A4
330
1F
100
AcDbEntity
  8
ProfileEdges
100
AcDbPolyline
 90
        2
 70
     0
 43
1.236499532863227
 10
-111.5000037551801
 20
192.1500000004332
 10
-111.5511150157465
 20
192.5382285680869
  0
LWPOLYLINE
  5
A5
330
1F
100
AcDbEntity
  8
ProfileEdges
100
AcDbPolyline
 90
        2
 70
     0
 43
1.236499532863227
 10
188.0606743086494
 20
191.0893398286511
 10
188.2990522425462
 20
191.4000000004309
  0
LWPOLYLINE
  5
A6
330
1F
100
AcDbEntity
  8
ProfileEdges
100
AcDbPolyline
 90
        2
 70
     0
 43
1.236499532863227
 10
-1.255644589500543
 20
-241.4490381055086
 10
-0.9449844177207518
 20
-241.2106601716117
  0
LWPOLYLINE
  5
A7
330
1F
100
AcDbEntity
  8
ProfileEdges
100
AcDbPolyline
 90
        2
 70
     0
 43
1.236499532863227
 10
185.5000141368696
 20
192.1500000004309
 10
185.5511253974359
 20
192.5382285680846
  0
LWPOLYLINE
  5
A8
330
1F
100
AcDbEntity
  8
ProfileEdges
100
AcDbPolyline
 90
        2
 70
     0
 43
1.236499532863227
 10
-98.82675826116414
 20
-217.3887953250129
 10
-99.99992393751322
 20
-216.8102540377448
  0
LWPOLYLINE
  5
A9
330
1F
100
AcDbEntity
  8
ProfileEdges
100
AcDbPolyline
 90
        2
 70
     0
 43
1.236499532863227
 10
-0.7066064839109157
 20
239.4000000001821
 10
-0.5567558501539862
 20
239.7617714325284
  0
LWPOLYLINE
  5
AA
330
1F
100
AcDbEntity
  8
ProfileEdges
100
AcDbPolyline
 90
        2
 70
     0
 43
1.236499532863227
 10
-112.2558554812692
 20
-62.75096189405735
 10
-112.6176269136154
 20
-62.60111126030043
  0
LWPOLYLINE
  5
AB
330
1F
100
AcDbEntity
  8
ProfileEdges
100
AcDbPolyline
 90
        2
 70
     0
 43
1.236499532863227
 10
187.7500141368696
 20
-193.449038105489
 10
188.0606743086494
 20
-193.210660171592
  0
LWPOLYLINE
  5
AC
330
1F
100
AcDbEntity
  8
ProfileEdges
100
AcDbPolyline
 90
        2
 70
     0
 43
1.236499532863227
 10
152.0875914248732
 20
-216.0835334027261
 10
150.999977134784
 20
-216.8102540376596
  0
LWPOLYLINE
  5
AD
330
1F
100
AcDbEntity
  8
ProfileEdges
100
AcDbPolyline
 90
        2
 70
     0
 43
1.236499532863227
 10
128.6475029728517
 20
138.8190002724163
 10
127.3014605415297
 20
139.066944223793
  0
LWPOLYLINE
  5
AE
330
1F
100
AcDbEntity
  8
ProfileEdges
100
AcDbPolyline
 90
        2
 70
     0
 43
1.236499532863227
 10
-94.99992393751354
 20
-218.1499999998986
 10
-96.30518585971389
 20
-218.0644486136373
  0
LWPOLYLINE
  5
AF
330
1F
100
AcDbEntity
  8
ProfileEdges
100
AcDbPolyline
 90
        2
 70
     0
 43
1.236499532863227
 10
188.4489028763031
 20
-192.5382285674661
 10
188.2990522425462
 20
-192.8999999998123
  0
LWPOLYLINE
  5
B0
330
1F
100
AcDbEntity
  8
ProfileEdges
100
AcDbPolyline
 90
        2
 70
     0
 43
1.236499532863227
 10
187.0000141368696
 20
-62.54999999965381
 10
187.3882427045233
 20
-62.60111126022031
  0
LWPOLYLINE
  5
B1
330
1F
100
AcDbEntity
  8
ProfileEdges
100
AcDbPolyline
 90
        2
 70
     0
 43
1.236499532863227
 10
185.5511253974359
 20
-191.7617714321585
 10
185.7009760311929
 20
-191.3999999998122
  0
LWPOLYLINE
  5
B2
330
1F
100
AcDbEntity
  8
ProfileEdges
100
AcDbPolyline
 90
        2
 70
     0
 43
1.236499532863227
 10
-112.2500037551801
 20
193.4490381061098
 10
-112.6117751875263
 20
193.5988887398667
  0
LWPOLYLINE
  5
B3
330
1F
100
AcDbEntity
  8
ProfileEdges
100
AcDbPolyline
 90
        2
 70
     0
 43
1.236499532863227
 10
142.0545843243392
 20
239.0893398284945
 10
142.2929622582361
 20
239.4000000002743
  0
LWPOLYLINE
  5
B4
330
1F
100
AcDbEntity
  8
ProfileEdges
100
AcDbPolyline
 90
        2
 70
     0
 43
1.236499532863227
 10
-116.0058554812608
 20
44.05000000051729
 10
-110.0058554812619
 20
44.05000000051783
  0
LWPOLYLINE
  5
B5
330
1F
100
AcDbEntity
  8
ProfileEdges
100
AcDbPolyline
 90
        2
 70
     0
 43
1.236499532863227
 10
188.2990522425462
 20
64.80000000051113
 10
188.4489028763031
 20
64.43822856816483
  0
LWPOLYLINE
  5
B6
330
1F
100
AcDbEntity
  8
ProfileEdges
100
AcDbPolyline
 90
        2
 70
     0
 43
1.236499532863227
 10
187.0000141368696
 20
190.6500000004309
 10
186.6117855692157
 20
190.7011112609972
  0
LWPOLYLINE
  5
B7
330
1F
100
AcDbEntity
  8
ProfileEdges
100
AcDbPolyline
 90
        2
 70
     0
 43
1.236499532863227
 10
190.000014136874
 20
-44.04999999965371
 10
184.0000141368734
 20
-44.04999999965371
  0
LWPOLYLINE
  5
B8
330
1F
100
AcDbEntity
  8
ProfileEdges
100
AcDbPolyline
 90
        2
 70
     0
 43
1.236499532863227
 10
110.9939241526469
 20
-243.1499999998199
 10
110.9939241526469
 20
-237.1499999998186
  0
LWPOLYLINE
  5
B9
330
1F
100
AcDbEntity
  8
ProfileEdges
100
AcDbPolyline
 90
        2
 70
     0
 43
1.236499532863227
 10
-101.0875382276007
 20
137.0835334031913
 10
-102.070991749379
 20
136.2210678121445
  0
LWPOLYLINE
  5
BA
330
1F
100
AcDbEntity
  8
ProfileEdges
100
AcDbPolyline
 90
        2
 70
     0
 43
1.236499532863227
 10
-111.5511150157465
 20
192.5382285680869
 10
-111.7009656495035
 20
192.9000000004332
  0
LWPOLYLINE
  5
BB
330
1F
100
AcDbEntity
  8
ProfileEdges
100
AcDbPolyline
 90
        2
 70
     0
 43
1.236499532863227
 10
185.7009760311929
 20
-192.8999999998123
 10
185.5511253974359
 20
-192.5382285674661
  0
LWPOLYLINE
  5
BC
330
1F
100
AcDbEntity
  8
ProfileEdges
100
AcDbPolyline
 90
        2
 70
     0
 43
1.236499532863227
 10
-114.4547442206908
 20
63.66177143285971
 10
-114.5058554812572
 20
64.05000000051342
  0
LWPOLYLINE
  5
BD
330
1F
100
AcDbEntity
  8
ProfileEdges
100
AcDbPolyline
 90
        2
 70
     0
 43
1.236499532863227
 10
17.99435541041499
 20
237.1500000001866
 10
27.99435541041525
 20
237.1500000001857
  0
LWPOLYLINE
  5
BE
330
1F
100
AcDbEntity
  8
ProfileEdges
100
AcDbPolyline
 90
        2
 70
     0
 43
1.236499532863227
 10
-175.0000037552673
 20
243.1500000002092
 10
-175.0000037552678
 20
237.1500000002104
  0
LWPOLYLINE
  5
BF
330
1F
100
AcDbEntity
  8
ProfileEdges
100
AcDbPolyline
 90
        2
 70
     0
 43
1.236499532863227
 10
187.0000141368696
 20
-65.54999999965385
 10
186.6117855692157
 20
-65.49888873908752
  0
LWPOLYLINE
  5
C0
330
1F
100
AcDbEntity
  8
ProfileEdges
100
AcDbPolyline
 90
        2
 70
     0
 43
1.236499532863227
 10
160.9939241526461
 20
-243.1499999998062
 10
160.9939241526462
 20
-237.1499999998187
  0
LWPOLYLINE
  5
C1
330
1F
100
AcDbEntity
  8
ProfileEdges
100
AcDbPolyline
 90
        2
 70
     0
 43
1.236499532863227
 10
-146.2990357711202
 20
-240.8999999998331
 10
-146.0606578372233
 20
-241.2106601716129
  0
LWPOLYLINE
  5
C2
330
1F
100
AcDbEntity
  8
ProfileEdges
100
AcDbPolyline
 90
        2
 70
     0
 43
1.236499532863227
 10
-146.0606578372233
 20
-241.2106601716129
 10
-145.7499976654435
 20
-241.4490381055098
  0
LWPOLYLINE
  5
C3
330
1F
100
AcDbEntity
  8
ProfileEdges
100
AcDbPolyline
 90
        2
 70
     0
 43
1.236499532863227
 10
110.9939241526444
 20
243.1500000002823
 10
120.9939241525636
 20
243.1500000002814
  0
LWPOLYLINE
  5
C4
330
1F
100
AcDbEntity
  8
ProfileEdges
100
AcDbPolyline
 90
        2
 70
     0
 43
1.236499532863227
 10
-114.3048935869459
 20
-63.29999999973402
 10
-114.4547442207028
 20
-63.66177143208023
  0
LWPOLYLINE
  5
C5
330
1F
100
AcDbEntity
  8
ProfileEdges
100
AcDbPolyline
 90
        2
 70
     0
 43
1.236499532863227
 10
17.99435541041553
 20
243.1500000001865
 10
27.99435541041579
 20
243.1500000001855
  0
LWPOLYLINE
  5
C6
330
1F
100
AcDbEntity
  8
ProfileEdges
100
AcDbPolyline
 90
        2
 70
     0
 43
1.236499532863227
 10
187.3882427045233
 20
190.7011112609972
 10
187.0000141368696
 20
190.6500000004309
  0
LWPOLYLINE
  5
C7
330
1F
100
AcDbEntity
  8
ProfileEdges
100
AcDbPolyline
 90
        2
 70
     0
 43
1.236499532863227
 10
187.3882427045233
 20
62.60111126107743
 10
187.0000141368696
 20
62.5500000005111
  0
LWPOLYLINE
  5
C8
330
1F
100
AcDbEntity
  8
ProfileEdges
100
AcDbPolyline
 90
        2
 70
     0
 43
1.236499532863227
 10
139.5450354131258
 20
239.7617714326204
 10
139.6948860468827
 20
239.4000000002743
  0
LWPOLYLINE
  5
C9
330
1F
100
AcDbEntity
  8
ProfileEdges
100
AcDbPolyline
 90
        2
 70
     0
 43
1.236499532863227
 10
152.5244381106457
 20
-57.33633541684595
 10
150.9956378066278
 20
-29.2037894993942
  0
LWPOLYLINE
  5
CA
330
1F
100
AcDbEntity
  8
ProfileEdges
100
AcDbPolyline
 90
        2
 70
     0
 43
1.236499532863227
 10
-22.00564458949995
 20
-243.1499999998152
 10
-22.00564458949995
 20
-237.1499999998139
  0
LWPOLYLINE
  5
CB
330
1F
100
AcDbEntity
  8
ProfileEdges
100
AcDbPolyline
 90
        2
 70
     0
 43
1.236499532863227
 10
27.99435541041809
 20
-243.1499999998022
 10
17.99435541049896
 20
-243.1499999998015
  0
LWPOLYLINE
  5
CC
330
1F
100
AcDbEntity
  8
ProfileEdges
100
AcDbPolyline
 90
        2
 70
     0
 43
1.236499532863227
 10
-112.6176269136033
 20
62.60111126107991
 10
-113.0058554812571
 20
62.55000000051353
  0
LWPOLYLINE
  5
CD
330
1F
100
AcDbEntity
  8
ProfileEdges
100
AcDbPolyline
 90
        2
 70
     0
 43
1.236499532863227
 10
187.7500141368696
 20
62.75096189483435
 10
187.3882427045233
 20
62.60111126107743
  0
LWPOLYLINE
  5
CE
330
1F
100
AcDbEntity
  8
ProfileEdges
100
AcDbPolyline
 90
        2
 70
     0
 43
1.236499532863227
 10
-143.4999976654435
 20
-240.1499999998331
 10
-143.5511089260099
 20
-239.7617714321793
  0
LWPOLYLINE
  5
CF
330
1F
100
AcDbEntity
  8
ProfileEdges
100
AcDbPolyline
 90
        2
 70
     0
 43
1.236499532863227
 10
-110.0058554812684
 20
94.05000000051658
 10
-110.0058554812675
 20
84.0500000005174
  0
LWPOLYLINE
  5
D0
330
1F
100
AcDbEntity
  8
ProfileEdges
100
AcDbPolyline
 90
        2
 70
     0
 43
1.236499532863227
 10
185.7009760311929
 20
-64.79999999965383
 10
185.5511253974359
 20
-64.43822856730772
  0
LWPOLYLINE
  5
D1
330
1F
100
AcDbEntity
  8
ProfileEdges
100
AcDbPolyline
 90
        2
 70
     0
 43
1.236499532863227
 10
187.3882427045233
 20
-190.7011112603787
 10
187.7500141368696
 20
-190.8509618941357
  0
LWPOLYLINE
  5
D2
330
1F
100
AcDbEntity
  8
ProfileEdges
100
AcDbPolyline
 90
        2
 70
     0
 43
1.236499532863227
 10
-111.9451953094847
 20
-191.0893398278724
 10
-112.2558554812645
 20
-190.8509618939757
  0
LWPOLYLINE
  5
D3
330
1F
100
AcDbEntity
  8
ProfileEdges
100
AcDbPolyline
 90
        2
 70
     0
 43
1.236499532863227
 10
-116.0058554812681
 20
-212.1499999996485
 10
-116.0058554812673
 20
-222.1499999995678
  0
LWPOLYLINE
  5
D4
330
1F
100
AcDbEntity
  8
ProfileEdges
100
AcDbPolyline
 90
        2
 70
     0
 43
1.236499532863227
 10
-114.4547442207028
 20
-64.43822856738782
 10
-114.3048935869459
 20
-64.79999999973404
  0
LWPOLYLINE
  5
D5
330
1F
100
AcDbEntity
  8
ProfileEdges
100
AcDbPolyline
 90
        2
 70
     0
 43
1.236499532863227
 10
-144.2500037553523
 20
238.8509618945246
 10
-143.9393435835725
 20
239.0893398284214
  0
LWPOLYLINE
  5
D6
330
1F
100
AcDbEntity
  8
ProfileEdges
100
AcDbPolyline
 90
        2
 70
     0
 43
1.236499532863227
 10
142.2929622582361
 20
239.4000000002743
 10
142.442812891993
 20
239.7617714326204
  0
LWPOLYLINE
  5
D7
330
1F
100
AcDbEntity
  8
ProfileEdges
100
AcDbPolyline
 90
        2
 70
     0
 43
1.236499532863227
 10
-190.5523215736028
 20
247.9455550233133
 10
-188.999406596816
 20
248.1500000001653
  0
LWPOLYLINE
  5
D8
330
1F
100
AcDbEntity
  8
ProfileEdges
100
AcDbPolyline
 90
        2
 70
     0
 43
1.236499532863227
 10
-188.999406596816
 20
248.1500000001653
 10
188.9997590756045
 20
248.150000000257
  0
LWPOLYLINE
  5
D9
330
1F
100
AcDbEntity
  8
ProfileEdges
100
AcDbPolyline
 90
        2
 70
     0
 43
1.236499532863227
 10
188.9997590756045
 20
248.150000000257
 10
190.5526788460926
 20
247.9455545619788
  0
LWPOLYLINE
  5
DA
330
1F
100
AcDbEntity
  8
ProfileEdges
100
AcDbPolyline
 90
        2
 70
     0
 43
1.236499532863227
 10
191.9997700343883
 20
247.3461508219483
 10
193.2424160785347
 20
246.3926370256281
  0
LWPOLYLINE
  5
DB
330
1F
100
AcDbEntity
  8
ProfileEdges
100
AcDbPolyline
 90
        2
 70
     0
 43
1.236499532863227
 10
193.2424160785347
 20
246.3926370256281
 10
194.1959329713355
 20
245.149993357496
  0
LWPOLYLINE
  5
DC
330
1F
100
AcDbEntity
  8
ProfileEdges
100
AcDbPolyline
 90
        2
 70
     0
 43
1.236499532863227
 10
194.1959329713355
 20
245.149993357496
 10
194.7953403172936
 20
243.7029036628271
  0
LWPOLYLINE
  5
DD
330
1F
100
AcDbEntity
  8
ProfileEdges
100
AcDbPolyline
 90
        2
 70
     0
 43
1.236499532863227
 10
194.9997896252094
 20
242.1499844017906
 10
194.9999964475044
 20
-242.1510887280189
  0
LWPOLYLINE
  5
DE
330
1F
100
AcDbEntity
  8
ProfileEdges
100
AcDbPolyline
 90
        2
 70
     0
 43
1.236499532863227
 10
194.7955885027519
 20
-243.7037212150466
 10
194.9999964475044
 20
-242.1510887280189
  0
LWPOLYLINE
  5
DF
330
1F
100
AcDbEntity
  8
ProfileEdges
100
AcDbPolyline
 90
        2
 70
     0
 43
1.236499532863227
 10
194.1962947321291
 20
-245.1505443639299
 10
194.7955885027519
 20
-243.7037212150466
  0
LWPOLYLINE
  5
E0
330
1F
100
AcDbEntity
  8
ProfileEdges
100
AcDbPolyline
 90
        2
 70
     0
 43
1.236499532863227
 10
193.2429560157242
 20
-246.3929595680607
 10
194.1962947321291
 20
-245.1505443639299
  0
LWPOLYLINE
  5
E1
330
1F
100
AcDbEntity
  8
ProfileEdges
100
AcDbPolyline
 90
        2
 70
     0
 43
1.236499532863227
 10
192.0005408115934
 20
-247.3462982844655
 10
193.2429560157242
 20
-246.3929595680607
  0
LWPOLYLINE
  5
E2
330
1F
100
AcDbEntity
  8
ProfileEdges
100
AcDbPolyline
 90
        2
 70
     0
 43
1.236499532863227
 10
190.5537176627102
 20
-247.9455920550884
 10
192.0005408115934
 20
-247.3462982844655
  0
LWPOLYLINE
  5
E3
330
1F
100
AcDbEntity
  8
ProfileEdges
100
AcDbPolyline
 90
        2
 70
     0
 43
1.236499532863227
 10
189.0010851756825
 20
-248.1499999998409
 10
190.5537176627102
 20
-247.9455920550884
  0
LWPOLYLINE
  5
E4
330
1F
100
AcDbEntity
  8
ProfileEdges
100
AcDbPolyline
 90
        2
 70
     0
 43
1.236499532863227
 10
-190.5529173108651
 20
-247.9455548913223
 10
-189.0000037551688
 20
-248.1499999998125
  0
LWPOLYLINE
  5
E5
330
1F
100
AcDbEntity
  8
ProfileEdges
100
AcDbPolyline
 90
        2
 70
     0
 43
1.236499532863227
 10
-192.000002210878
 20
-247.3461521836161
 10
-190.5529173108651
 20
-247.9455548913223
  0
LWPOLYLINE
  5
E6
330
1F
100
AcDbEntity
  8
ProfileEdges
100
AcDbPolyline
 90
        2
 70
     0
 43
1.236499532863227
 10
-193.2426418586387
 20
-246.392640243647
 10
-192.000002210878
 20
-247.3461521836161
  0
LWPOLYLINE
  5
E7
330
1F
100
AcDbEntity
  8
ProfileEdges
100
AcDbPolyline
 90
        2
 70
     0
 43
1.236499532863227
 10
-194.1961522851403
 20
-245.1499994345619
 10
-193.2426418586387
 20
-246.392640243647
  0
LWPOLYLINE
  5
E8
330
1F
100
AcDbEntity
  8
ProfileEdges
100
AcDbPolyline
 90
        2
 70
     0
 43
1.236499532863227
 10
-194.7955532303761
 20
-243.7029138045105
 10
-194.1961522851403
 20
-245.1499994345619
  0
LWPOLYLINE
  5
E9
330
1F
100
AcDbEntity
  8
ProfileEdges
100
AcDbPolyline
 90
        2
 70
     0
 43
1.236499532863227
 10
-194.9999964475026
 20
-242.1499999998125
 10
-194.7955532303761
 20
-243.7029138045105
  0
LWPOLYLINE
  5
EA
330
1F
100
AcDbEntity
  8
ProfileEdges
100
AcDbPolyline
 90
        2
 70
     0
 43
1.236499532863227
 10
-194.9999964475026
 20
-242.1499999998125
 10
-194.9994138150624
 20
242.1500000001636
  0
LWPOLYLINE
  5
EB
330
1F
100
AcDbEntity
  8
ProfileEdges
100
AcDbPolyline
 90
        2
 70
     0
 43
1.236499532863227
 10
-194.7949669699917
 20
243.7029147309938
 10
-194.195562864626
 20
245.1500005584966
  0
LWPOLYLINE
  5
EC
330
1F
100
AcDbEntity
  8
ProfileEdges
100
AcDbPolyline
 90
        2
 70
     0
 43
1.236499532863227
 10
-194.195562864626
 20
245.1500005584966
 10
-193.2420498359717
 20
246.392641125143
  0
LWPOLYLINE
  5
ED
330
1F
100
AcDbEntity
  8
ProfileEdges
100
AcDbPolyline
 90
        2
 70
     0
 43
1.236499532863227
 10
-193.2420498359717
 20
246.392641125143
 10
-191.9994081222117
 20
247.3461526588502
  0
LWPOLYLINE
  5
EE
330
1F
100
AcDbEntity
  8
ProfileEdges
100
AcDbPolyline
 90
        2
 70
     0
 43
1.236499532863227
 10
-191.9994081222117
 20
247.3461526588502
 10
-190.5523215736028
 20
247.9455550233133
  0
LWPOLYLINE
  5
EF
330
1F
100
AcDbEntity
  8
ProfileEdges
100
AcDbPolyline
 90
        2
 70
     0
 43
1.236499532863227
 10
27.99435541041809
 20
-243.1499999998022
 10
27.99435541041818
 20
-237.1499999998148
  0
LWPOLYLINE
  5
F0
330
1F
100
AcDbEntity
  8
ProfileEdges
100
AcDbPolyline
 90
        2
 70
     0
 43
1.236499532863227
 10
17.99435541049905
 20
-237.149999999814
 10
27.99435541041818
 20
-237.1499999998148
  0
LWPOLYLINE
  5
F1
330
1F
100
AcDbEntity
  8
ProfileEdges
100
AcDbPolyline
 90
        2
 70
     0
 43
1.236499532863227
 10
17.99435541049896
 20
-243.1499999998015
 10
17.99435541049905
 20
-237.149999999814
  0
LWPOLYLINE
  5
F2
330
1F
100
AcDbEntity
  8
ProfileEdges
100
AcDbPolyline
 90
        2
 70
     0
 43
1.236499532863227
 10
-1.617416021933788
 20
241.5988887396158
 10
-2.005644589587589
 20
241.6500000001821
  0
LWPOLYLINE
  5
F3
330
1F
100
AcDbEntity
  8
ProfileEdges
100
AcDbPolyline
 90
        2
 70
     0
 43
1.236499532863227
 10
-2.005644589587589
 20
241.6500000001821
 10
-2.39387315724139
 20
241.5988887396158
  0
LWPOLYLINE
  5
F4
330
1F
100
AcDbEntity
  8
ProfileEdges
100
AcDbPolyline
 90
        2
 70
     0
 43
1.236499532863227
 10
-2.39387315724139
 20
241.5988887396158
 10
-2.755644589587599
 20
241.4490381058588
  0
LWPOLYLINE
  5
F5
330
1F
100
AcDbEntity
  8
ProfileEdges
100
AcDbPolyline
 90
        2
 70
     0
 43
1.236499532863227
 10
-2.755644589587599
 20
241.4490381058588
 10
-3.06630476136748
 20
241.2106601719619
  0
LWPOLYLINE
  5
F6
330
1F
100
AcDbEntity
  8
ProfileEdges
100
AcDbPolyline
 90
        2
 70
     0
 43
1.236499532863227
 10
-3.06630476136748
 20
241.2106601719619
 10
-3.304682695264261
 20
240.9000000001821
  0
LWPOLYLINE
  5
F7
330
1F
100
AcDbEntity
  8
ProfileEdges
100
AcDbPolyline
 90
        2
 70
     0
 43
1.236499532863227
 10
-3.454533329021191
 20
240.538228567836
 10
-3.505644589587608
 20
240.1500000001821
  0
LWPOLYLINE
  5
F8
330
1F
100
AcDbEntity
  8
ProfileEdges
100
AcDbPolyline
 90
        2
 70
     0
 43
1.236499532863227
 10
-3.505644589587608
 20
240.1500000001821
 10
-3.454533329021191
 20
239.7617714325284
  0
LWPOLYLINE
  5
F9
330
1F
100
AcDbEntity
  8
ProfileEdges
100
AcDbPolyline
 90
        2
 70
     0
 43
1.236499532863227
 10
-3.454533329021191
 20
239.7617714325284
 10
-3.304682695264261
 20
239.4000000001821
  0
LWPOLYLINE
  5
FA
330
1F
100
AcDbEntity
  8
ProfileEdges
100
AcDbPolyline
 90
        2
 70
     0
 43
1.236499532863227
 10
-3.304682695264261
 20
239.4000000001821
 10
-3.06630476136748
 20
239.0893398284023
  0
LWPOLYLINE
  5
FB
330
1F
100
AcDbEntity
  8
ProfileEdges
100
AcDbPolyline
 90
        2
 70
     0
 43
1.236499532863227
 10
-3.06630476136748
 20
239.0893398284023
 10
-2.755644589587599
 20
238.8509618945055
  0
LWPOLYLINE
  5
FC
330
1F
100
AcDbEntity
  8
ProfileEdges
100
AcDbPolyline
 90
        2
 70
     0
 43
1.236499532863227
 10
-2.755644589587599
 20
238.8509618945055
 10
-2.39387315724139
 20
238.7011112607486
  0
LWPOLYLINE
  5
FD
330
1F
100
AcDbEntity
  8
ProfileEdges
100
AcDbPolyline
 90
        2
 70
     0
 43
1.236499532863227
 10
-2.39387315724139
 20
238.7011112607486
 10
-2.005644589587589
 20
238.650000000182
  0
LWPOLYLINE
  5
FE
330
1F
100
AcDbEntity
  8
ProfileEdges
100
AcDbPolyline
 90
        2
 70
     0
 43
1.236499532863227
 10
-2.005644589587589
 20
238.650000000182
 10
-1.617416021933788
 20
238.7011112607486
  0
LWPOLYLINE
  5
FF
330
1F
100
AcDbEntity
  8
ProfileEdges
100
AcDbPolyline
 90
        2
 70
     0
 43
1.236499532863227
 10
-1.617416021933788
 20
238.7011112607486
 10
-1.255644589587579
 20
238.8509618945055
  0
LWPOLYLINE
  5
100
330
1F
100
AcDbEntity
  8
ProfileEdges
100
AcDbPolyline
 90
        2
 70
     0
 43
1.236499532863227
 10
-1.255644589587579
 20
238.8509618945055
 10
-0.9449844178077873
 20
239.0893398284023
  0
LWPOLYLINE
  5
101
330
1F
100
AcDbEntity
  8
ProfileEdges
100
AcDbPolyline
 90
        2
 70
     0
 43
1.236499532863227
 10
-0.9449844178077873
 20
239.0893398284023
 10
-0.7066064839109157
 20
239.4000000001821
  0
LWPOLYLINE
  5
102
330
1F
100
AcDbEntity
  8
ProfileEdges
100
AcDbPolyline
 90
        2
 70
     0
 43
1.236499532863227
 10
-0.5567558501539862
 20
239.7617714325284
 10
-0.5056445895875689
 20
240.1500000001821
  0
LWPOLYLINE
  5
103
330
1F
100
AcDbEntity
  8
ProfileEdges
100
AcDbPolyline
 90
        2
 70
     0
 43
1.236499532863227
 10
-0.5056445895875689
 20
240.1500000001821
 10
-0.5567558501539862
 20
240.538228567836
  0
LWPOLYLINE
  5
104
330
1F
100
AcDbEntity
  8
ProfileEdges
100
AcDbPolyline
 90
        2
 70
     0
 43
1.236499532863227
 10
-0.5567558501539862
 20
240.538228567836
 10
-0.7066064839109157
 20
240.9000000001821
  0
LWPOLYLINE
  5
105
330
1F
100
AcDbEntity
  8
ProfileEdges
100
AcDbPolyline
 90
        2
 70
     0
 43
1.236499532863227
 10
-0.7066064839109157
 20
240.9000000001821
 10
-0.9449844178077873
 20
241.2106601719619
  0
LWPOLYLINE
  5
106
330
1F
100
AcDbEntity
  8
ProfileEdges
100
AcDbPolyline
 90
        2
 70
     0
 43
1.236499532863227
 10
-0.9449844178077873
 20
241.2106601719619
 10
-1.255644589587579
 20
241.4490381058588
  0
LWPOLYLINE
  5
107
330
1F
100
AcDbEntity
  8
ProfileEdges
100
AcDbPolyline
 90
        2
 70
     0
 43
1.236499532863227
 10
-1.255644589587579
 20
241.4490381058588
 10
-1.617416021933788
 20
241.5988887396158
  0
LWPOLYLINE
  5
108
330
1F
100
AcDbEntity
  8
ProfileEdges
100
AcDbPolyline
 90
        2
 70
     0
 43
1.236499532863227
 10
176.0602330438443
 20
180.789557612765
 10
176.0602330438443
 20
208.789557612765
  0
LWPOLYLINE
  5
109
330
1F
100
AcDbEntity
  8
ProfileEdges
100
AcDbPolyline
 90
        2
 70
     0
 43
1.236499532863227
 10
176.0602330438443
 20
208.789557612765
 10
172.0602330438443
 20
208.7699040994425
  0
LWPOLYLINE
  5
10A
330
1F
100
AcDbEntity
  8
ProfileEdges
100
AcDbPolyline
 90
        2
 70
     0
 43
1.236499532863227
 10
172.0602330438443
 20
208.7699040994425
 10
172.0602330438443
 20
180.7699040994424
  0
LWPOLYLINE
  5
10B
330
1F
100
AcDbEntity
  8
ProfileEdges
100
AcDbPolyline
 90
        2
 70
     0
 43
1.236499532863227
 10
172.0602330438443
 20
180.7699040994424
 10
176.0602330438443
 20
180.789557612765
  0
LWPOLYLINE
  5
10C
330
1F
100
AcDbEntity
  8
ProfileEdges
100
AcDbPolyline
 90
        2
 70
     0
 43
1.236499532863227
 10
-146.448892494786
 20
240.5382285678551
 10
-146.5000037553524
 20
240.1500000002012
  0
LWPOLYLINE
  5
10D
330
1F
100
AcDbEntity
  8
ProfileEdges
100
AcDbPolyline
 90
        2
 70
     0
 43
1.236499532863227
 10
-146.5000037553524
 20
240.1500000002012
 10
-146.448892494786
 20
239.7617714325475
  0
LWPOLYLINE
  5
10E
330
1F
100
AcDbEntity
  8
ProfileEdges
100
AcDbPolyline
 90
        2
 70
     0
 43
1.236499532863227
 10
-146.448892494786
 20
239.7617714325475
 10
-146.299041861029
 20
239.4000000002012
  0
LWPOLYLINE
  5
10F
330
1F
100
AcDbEntity
  8
ProfileEdges
100
AcDbPolyline
 90
        2
 70
     0
 43
1.236499532863227
 10
-146.299041861029
 20
239.4000000002012
 10
-146.0606639271322
 20
239.0893398284214
  0
LWPOLYLINE
  5
110
330
1F
100
AcDbEntity
  8
ProfileEdges
100
AcDbPolyline
 90
        2
 70
     0
 43
1.236499532863227
 10
-146.0606639271322
 20
239.0893398284214
 10
-145.7500037553524
 20
238.8509618945246
  0
LWPOLYLINE
  5
111
330
1F
100
AcDbEntity
  8
ProfileEdges
100
AcDbPolyline
 90
        2
 70
     0
 43
1.236499532863227
 10
-145.7500037553524
 20
238.8509618945246
 10
-145.3882323230062
 20
238.7011112607677
  0
LWPOLYLINE
  5
112
330
1F
100
AcDbEntity
  8
ProfileEdges
100
AcDbPolyline
 90
        2
 70
     0
 43
1.236499532863227
 10
-145.3882323230062
 20
238.7011112607677
 10
-145.0000037553523
 20
238.6500000002012
  0
LWPOLYLINE
  5
113
330
1F
100
AcDbEntity
  8
ProfileEdges
100
AcDbPolyline
 90
        2
 70
     0
 43
1.236499532863227
 10
-144.6117751876986
 20
238.7011112607677
 10
-144.2500037553523
 20
238.8509618945246
  0
LWPOLYLINE
  5
114
330
1F
100
AcDbEntity
  8
ProfileEdges
100
AcDbPolyline
 90
        2
 70
     0
 43
1.236499532863227
 10
-143.9393435835725
 20
239.0893398284214
 10
-143.7009656496757
 20
239.4000000002012
  0
LWPOLYLINE
  5
115
330
1F
100
AcDbEntity
  8
ProfileEdges
100
AcDbPolyline
 90
        2
 70
     0
 43
1.236499532863227
 10
-143.7009656496757
 20
239.4000000002012
 10
-143.5511150159188
 20
239.7617714325475
  0
LWPOLYLINE
  5
116
330
1F
100
AcDbEntity
  8
ProfileEdges
100
AcDbPolyline
 90
        2
 70
     0
 43
1.236499532863227
 10
-143.5511150159188
 20
239.7617714325475
 10
-143.5000037553523
 20
240.1500000002012
  0
LWPOLYLINE
  5
117
330
1F
100
AcDbEntity
  8
ProfileEdges
100
AcDbPolyline
 90
        2
 70
     0
 43
1.236499532863227
 10
-143.5000037553523
 20
240.1500000002012
 10
-143.5511150159188
 20
240.5382285678551
  0
LWPOLYLINE
  5
118
330
1F
100
AcDbEntity
  8
ProfileEdges
100
AcDbPolyline
 90
        2
 70
     0
 43
1.236499532863227
 10
-143.5511150159188
 20
240.5382285678551
 10
-143.7009656496757
 20
240.9000000002012
  0
LWPOLYLINE
  5
119
330
1F
100
AcDbEntity
  8
ProfileEdges
100
AcDbPolyline
 90
        2
 70
     0
 43
1.236499532863227
 10
-143.7009656496757
 20
240.9000000002012
 10
-143.9393435835725
 20
241.210660171981
  0
LWPOLYLINE
  5
11A
330
1F
100
AcDbEntity
  8
ProfileEdges
100
AcDbPolyline
 90
        2
 70
     0
 43
1.236499532863227
 10
-143.9393435835725
 20
241.210660171981
 10
-144.2500037553523
 20
241.449038105878
  0
LWPOLYLINE
  5
11B
330
1F
100
AcDbEntity
  8
ProfileEdges
100
AcDbPolyline
 90
        2
 70
     0
 43
1.236499532863227
 10
-144.2500037553523
 20
241.449038105878
 10
-144.6117751876986
 20
241.5988887396349
  0
LWPOLYLINE
  5
11C
330
1F
100
AcDbEntity
  8
ProfileEdges
100
AcDbPolyline
 90
        2
 70
     0
 43
1.236499532863227
 10
-144.6117751876986
 20
241.5988887396349
 10
-145.0000037553523
 20
241.6500000002012
  0
LWPOLYLINE
  5
11D
330
1F
100
AcDbEntity
  8
ProfileEdges
100
AcDbPolyline
 90
        2
 70
     0
 43
1.236499532863227
 10
-145.0000037553523
 20
241.6500000002012
 10
-145.3882323230062
 20
241.5988887396349
  0
LWPOLYLINE
  5
11E
330
1F
100
AcDbEntity
  8
ProfileEdges
100
AcDbPolyline
 90
        2
 70
     0
 43
1.236499532863227
 10
-145.3882323230062
 20
241.5988887396349
 10
-145.7500037553524
 20
241.449038105878
  0
LWPOLYLINE
  5
11F
330
1F
100
AcDbEntity
  8
ProfileEdges
100
AcDbPolyline
 90
        2
 70
     0
 43
1.236499532863227
 10
-145.7500037553524
 20
241.449038105878
 10
-146.0606639271322
 20
241.210660171981
  0
LWPOLYLINE
  5
120
330
1F
100
AcDbEntity
  8
ProfileEdges
100
AcDbPolyline
 90
        2
 70
     0
 43
1.236499532863227
 10
-146.0606639271322
 20
241.210660171981
 10
-146.299041861029
 20
240.9000000002012
  0
LWPOLYLINE
  5
121
330
1F
100
AcDbEntity
  8
ProfileEdges
100
AcDbPolyline
 90
        2
 70
     0
 43
1.236499532863227
 10
-146.299041861029
 20
240.9000000002012
 10
-146.448892494786
 20
240.5382285678551
  0
LWPOLYLINE
  5
122
330
1F
100
AcDbEntity
  8
ProfileEdges
100
AcDbPolyline
 90
        2
 70
     0
 43
1.236499532863227
 10
-111.7068173755925
 20
-64.79999999973404
 10
-111.5569667418356
 20
-64.43822856738782
  0
LWPOLYLINE
  5
123
330
1F
100
AcDbEntity
  8
ProfileEdges
100
AcDbPolyline
 90
        2
 70
     0
 43
1.236499532863227
 10
-111.5569667418356
 20
-64.43822856738782
 10
-111.5058554812692
 20
-64.04999999973403
  0
LWPOLYLINE
  5
124
330
1F
100
AcDbEntity
  8
ProfileEdges
100
AcDbPolyline
 90
        2
 70
     0
 43
1.236499532863227
 10
-111.5058554812692
 20
-64.04999999973403
 10
-111.5569667418356
 20
-63.66177143208023
  0
LWPOLYLINE
  5
125
330
1F
100
AcDbEntity
  8
ProfileEdges
100
AcDbPolyline
 90
        2
 70
     0
 43
1.236499532863227
 10
-111.5569667418356
 20
-63.66177143208023
 10
-111.7068173755925
 20
-63.29999999973402
  0
LWPOLYLINE
  5
126
330
1F
100
AcDbEntity
  8
ProfileEdges
100
AcDbPolyline
 90
        2
 70
     0
 43
1.236499532863227
 10
-111.7068173755925
 20
-63.29999999973402
 10
-111.9451953094894
 20
-62.98933982795423
  0
LWPOLYLINE
  5
127
330
1F
100
AcDbEntity
  8
ProfileEdges
100
AcDbPolyline
 90
        2
 70
     0
 43
1.236499532863227
 10
-112.6176269136154
 20
-62.60111126030043
 10
-113.0058554812692
 20
-62.54999999973401
  0
LWPOLYLINE
  5
128
330
1F
100
AcDbEntity
  8
ProfileEdges
100
AcDbPolyline
 90
        2
 70
     0
 43
1.236499532863227
 10
-113.0058554812692
 20
-62.54999999973401
 10
-113.394084048923
 20
-62.60111126030043
  0
LWPOLYLINE
  5
129
330
1F
100
AcDbEntity
  8
ProfileEdges
100
AcDbPolyline
 90
        2
 70
     0
 43
1.236499532863227
 10
-113.394084048923
 20
-62.60111126030043
 10
-113.7558554812692
 20
-62.75096189405735
  0
LWPOLYLINE
  5
12A
330
1F
100
AcDbEntity
  8
ProfileEdges
100
AcDbPolyline
 90
        2
 70
     0
 43
1.236499532863227
 10
-113.7558554812692
 20
-62.75096189405735
 10
-114.066515653049
 20
-62.98933982795423
  0
LWPOLYLINE
  5
12B
330
1F
100
AcDbEntity
  8
ProfileEdges
100
AcDbPolyline
 90
        2
 70
     0
 43
1.236499532863227
 10
-114.066515653049
 20
-62.98933982795423
 10
-114.3048935869459
 20
-63.29999999973402
  0
LWPOLYLINE
  5
12C
330
1F
100
AcDbEntity
  8
ProfileEdges
100
AcDbPolyline
 90
        2
 70
     0
 43
1.236499532863227
 10
-114.4547442207028
 20
-63.66177143208023
 10
-114.5058554812692
 20
-64.04999999973403
  0
LWPOLYLINE
  5
12D
330
1F
100
AcDbEntity
  8
ProfileEdges
100
AcDbPolyline
 90
        2
 70
     0
 43
1.236499532863227
 10
-114.5058554812692
 20
-64.04999999973403
 10
-114.4547442207028
 20
-64.43822856738782
  0
LWPOLYLINE
  5
12E
330
1F
100
AcDbEntity
  8
ProfileEdges
100
AcDbPolyline
 90
        2
 70
     0
 43
1.236499532863227
 10
-114.3048935869459
 20
-64.79999999973404
 10
-114.066515653049
 20
-65.11066017151383
  0
LWPOLYLINE
  5
12F
330
1F
100
AcDbEntity
  8
ProfileEdges
100
AcDbPolyline
 90
        2
 70
     0
 43
1.236499532863227
 10
-114.066515653049
 20
-65.11066017151383
 10
-113.7558554812692
 20
-65.3490381054107
  0
LWPOLYLINE
  5
130
330
1F
100
AcDbEntity
  8
ProfileEdges
100
AcDbPolyline
 90
        2
 70
     0
 43
1.236499532863227
 10
-113.7558554812692
 20
-65.3490381054107
 10
-113.394084048923
 20
-65.49888873916763
  0
LWPOLYLINE
  5
131
330
1F
100
AcDbEntity
  8
ProfileEdges
100
AcDbPolyline
 90
        2
 70
     0
 43
1.236499532863227
 10
-113.394084048923
 20
-65.49888873916763
 10
-113.0058554812692
 20
-65.54999999973404
  0
LWPOLYLINE
  5
132
330
1F
100
AcDbEntity
  8
ProfileEdges
100
AcDbPolyline
 90
        2
 70
     0
 43
1.236499532863227
 10
-113.0058554812692
 20
-65.54999999973404
 10
-112.6176269136154
 20
-65.49888873916763
  0
LWPOLYLINE
  5
133
330
1F
100
AcDbEntity
  8
ProfileEdges
100
AcDbPolyline
 90
        2
 70
     0
 43
1.236499532863227
 10
-112.6176269136154
 20
-65.49888873916763
 10
-112.2558554812692
 20
-65.3490381054107
  0
LWPOLYLINE
  5
134
330
1F
100
AcDbEntity
  8
ProfileEdges
100
AcDbPolyline
 90
        2
 70
     0
 43
1.236499532863227
 10
-112.2558554812692
 20
-65.3490381054107
 10
-111.9451953094894
 20
-65.11066017151383
  0
LWPOLYLINE
  5
135
330
1F
100
AcDbEntity
  8
ProfileEdges
100
AcDbPolyline
 90
        2
 70
     0
 43
1.236499532863227
 10
-111.9451953094894
 20
-65.11066017151383
 10
-111.7068173755925
 20
-64.79999999973404
  0
LWPOLYLINE
  5
136
330
1F
100
AcDbEntity
  8
ProfileEdges
100
AcDbPolyline
 90
        2
 70
     0
 43
1.236499532863227
 10
17.99435541041553
 20
243.1500000001865
 10
17.99435541041499
 20
237.1500000001866
  0
LWPOLYLINE
  5
137
330
1F
100
AcDbEntity
  8
ProfileEdges
100
AcDbPolyline
 90
        2
 70
     0
 43
1.236499532863227
 10
-116.0058554812675
 20
84.05000000051595
 10
-116.0058554812684
 20
94.05000000051658
  0
LWPOLYLINE
  5
138
330
1F
100
AcDbEntity
  8
ProfileEdges
100
AcDbPolyline
 90
        2
 70
     0
 43
1.236499532863227
 10
-110.0058554812675
 20
84.0500000005174
 10
-116.0058554812675
 20
84.05000000051595
  0
LWPOLYLINE
  5
139
330
1F
100
AcDbEntity
  8
ProfileEdges
100
AcDbPolyline
 90
        2
 70
     0
 43
1.236499532863227
 10
-116.0058554812684
 20
94.05000000051658
 10
-110.0058554812684
 20
94.05000000051658
  0
LWPOLYLINE
  5
13A
330
1F
100
AcDbEntity
  8
ProfileEdges
100
AcDbPolyline
 90
        2
 70
     0
 43
1.236499532863227
 10
-110.0000037551816
 20
172.1500000004368
 10
-116.0000037551805
 20
172.1500000004368
  0
LWPOLYLINE
  5
13B
330
1F
100
AcDbEntity
  8
ProfileEdges
100
AcDbPolyline
 90
        2
 70
     0
 43
1.236499532863227
 10
-116.0000037551796
 20
162.150000000517
 10
-110.0000037551807
 20
162.150000000517
  0
LWPOLYLINE
  5
13C
330
1F
100
AcDbEntity
  8
ProfileEdges
100
AcDbPolyline
 90
        2
 70
     0
 43
1.236499532863227
 10
-110.0000037551807
 20
162.150000000517
 10
-110.0000037551816
 20
172.1500000004368
  0
LWPOLYLINE
  5
13D
330
1F
100
AcDbEntity
  8
ProfileEdges
100
AcDbPolyline
 90
        2
 70
     0
 43
1.236499532863227
 10
-22.00564458949995
 20
-243.1499999998152
 10
-32.00564458950021
 20
-243.1499999998152
  0
LWPOLYLINE
  5
13E
330
1F
100
AcDbEntity
  8
ProfileEdges
100
AcDbPolyline
 90
        2
 70
     0
 43
1.236499532863227
 10
-32.00564458950021
 20
-237.1499999998139
 10
-22.00564458949995
 20
-237.1499999998139
  0
LWPOLYLINE
  5
13F
330
1F
100
AcDbEntity
  8
ProfileEdges
100
AcDbPolyline
 90
        2
 70
     0
 43
1.236499532863227
 10
-32.00564458950021
 20
-243.1499999998152
 10
-32.00564458950021
 20
-237.1499999998139
  0
LWPOLYLINE
  5
140
330
1F
100
AcDbEntity
  8
ProfileEdges
100
AcDbPolyline
 90
        2
 70
     0
 43
1.236499532863227
 10
190.000014136874
 20
212.150000000431
 10
184.0000141368734
 20
212.150000000431
  0
LWPOLYLINE
  5
141
330
1F
100
AcDbEntity
  8
ProfileEdges
100
AcDbPolyline
 90
        2
 70
     0
 43
1.236499532863227
 10
190.000014136874
 20
222.150000000349
 10
190.000014136874
 20
212.150000000431
  0
LWPOLYLINE
  5
142
330
1F
100
AcDbEntity
  8
ProfileEdges
100
AcDbPolyline
 90
        2
 70
     0
 43
1.236499532863227
 10
184.0000141368734
 20
222.150000000349
 10
190.000014136874
 20
222.150000000349
  0
LWPOLYLINE
  5
143
330
1F
100
AcDbEntity
  8
ProfileEdges
100
AcDbPolyline
 90
        2
 70
     0
 43
1.236499532863227
 10
184.0000141368734
 20
212.150000000431
 10
184.0000141368734
 20
222.150000000349
  0
LWPOLYLINE
  5
144
330
1F
100
AcDbEntity
  8
ProfileEdges
100
AcDbPolyline
 90
        2
 70
     0
 43
1.236499532863227
 10
184.0000141368643
 20
44.05000000051115
 10
190.0000141368659
 20
44.05000000051115
  0
LWPOLYLINE
  5
145
330
1F
100
AcDbEntity
  8
ProfileEdges
100
AcDbPolyline
 90
        2
 70
     0
 43
1.236499532863227
 10
190.0000141368659
 20
34.05000000051189
 10
184.0000141368643
 20
34.05000000051189
  0
LWPOLYLINE
  5
146
330
1F
100
AcDbEntity
  8
ProfileEdges
100
AcDbPolyline
 90
        2
 70
     0
 43
1.236499532863227
 10
190.0000141368659
 20
44.05000000051115
 10
190.0000141368659
 20
34.05000000051189
  0
LWPOLYLINE
  5
147
330
1F
100
AcDbEntity
  8
ProfileEdges
100
AcDbPolyline
 90
        2
 70
     0
 43
1.236499532863227
 10
-125.0000037553492
 20
243.1500000002056
 10
-125.0000037553498
 20
237.1500000002057
  0
LWPOLYLINE
  5
148
330
1F
100
AcDbEntity
  8
ProfileEdges
100
AcDbPolyline
 90
        2
 70
     0
 43
1.236499532863227
 10
-125.0000037553498
 20
237.1500000002057
 10
-115.0000037553495
 20
237.1500000002048
  0
LWPOLYLINE
  5
149
330
1F
100
AcDbEntity
  8
ProfileEdges
100
AcDbPolyline
 90
        2
 70
     0
 43
1.236499532863227
 10
-115.0000037553495
 20
237.1500000002048
 10
-115.000003755349
 20
243.1500000002047
  0
LWPOLYLINE
  5
14A
330
1F
100
AcDbEntity
  8
ProfileEdges
100
AcDbPolyline
 90
        2
 70
     0
 43
1.236499532863227
 10
-125.0000037553492
 20
243.1500000002056
 10
-115.000003755349
 20
243.1500000002047
  0
LWPOLYLINE
  5
14B
330
1F
100
AcDbEntity
  8
ProfileEdges
100
AcDbPolyline
 90
        2
 70
     0
 43
1.236499532863227
 10
-143.5511089260099
 20
-240.5382285674869
 10
-143.4999976654435
 20
-240.1499999998331
  0
LWPOLYLINE
  5
14C
330
1F
100
AcDbEntity
  8
ProfileEdges
100
AcDbPolyline
 90
        2
 70
     0
 43
1.236499532863227
 10
-143.5511089260099
 20
-239.7617714321793
 10
-143.7009595597668
 20
-239.3999999998331
  0
LWPOLYLINE
  5
14D
330
1F
100
AcDbEntity
  8
ProfileEdges
100
AcDbPolyline
 90
        2
 70
     0
 43
1.236499532863227
 10
-143.7009595597668
 20
-239.3999999998331
 10
-143.9393374936637
 20
-239.0893398280532
  0
LWPOLYLINE
  5
14E
330
1F
100
AcDbEntity
  8
ProfileEdges
100
AcDbPolyline
 90
        2
 70
     0
 43
1.236499532863227
 10
-144.2499976654435
 20
-238.8509618941565
 10
-144.6117690977897
 20
-238.7011112603995
  0
LWPOLYLINE
  5
14F
330
1F
100
AcDbEntity
  8
ProfileEdges
100
AcDbPolyline
 90
        2
 70
     0
 43
1.236499532863227
 10
-144.6117690977897
 20
-238.7011112603995
 10
-144.9999976654435
 20
-238.6499999998331
  0
LWPOLYLINE
  5
150
330
1F
100
AcDbEntity
  8
ProfileEdges
100
AcDbPolyline
 90
        2
 70
     0
 43
1.236499532863227
 10
-144.9999976654435
 20
-238.6499999998331
 10
-145.3882262330973
 20
-238.7011112603995
  0
LWPOLYLINE
  5
151
330
1F
100
AcDbEntity
  8
ProfileEdges
100
AcDbPolyline
 90
        2
 70
     0
 43
1.236499532863227
 10
-145.3882262330973
 20
-238.7011112603995
 10
-145.7499976654435
 20
-238.8509618941565
  0
LWPOLYLINE
  5
152
330
1F
100
AcDbEntity
  8
ProfileEdges
100
AcDbPolyline
 90
        2
 70
     0
 43
1.236499532863227
 10
-145.7499976654435
 20
-238.8509618941565
 10
-146.0606578372233
 20
-239.0893398280532
  0
LWPOLYLINE
  5
153
330
1F
100
AcDbEntity
  8
ProfileEdges
100
AcDbPolyline
 90
        2
 70
     0
 43
1.236499532863227
 10
-146.0606578372233
 20
-239.0893398280532
 10
-146.2990357711202
 20
-239.3999999998331
  0
LWPOLYLINE
  5
154
330
1F
100
AcDbEntity
  8
ProfileEdges
100
AcDbPolyline
 90
        2
 70
     0
 43
1.236499532863227
 10
-146.2990357711202
 20
-239.3999999998331
 10
-146.4488864048771
 20
-239.7617714321793
  0
LWPOLYLINE
  5
155
330
1F
100
AcDbEntity
  8
ProfileEdges
100
AcDbPolyline
 90
        2
 70
     0
 43
1.236499532863227
 10
-146.4488864048771
 20
-239.7617714321793
 10
-146.4999976654435
 20
-240.1499999998331
  0
LWPOLYLINE
  5
156
330
1F
100
AcDbEntity
  8
ProfileEdges
100
AcDbPolyline
 90
        2
 70
     0
 43
1.236499532863227
 10
-146.4999976654435
 20
-240.1499999998331
 10
-146.4488864048771
 20
-240.5382285674868
  0
LWPOLYLINE
  5
157
330
1F
100
AcDbEntity
  8
ProfileEdges
100
AcDbPolyline
 90
        2
 70
     0
 43
1.236499532863227
 10
-146.4488864048771
 20
-240.5382285674868
 10
-146.2990357711202
 20
-240.8999999998331
  0
LWPOLYLINE
  5
158
330
1F
100
AcDbEntity
  8
ProfileEdges
100
AcDbPolyline
 90
        2
 70
     0
 43
1.236499532863227
 10
-144.6117690977897
 20
-241.5988887392667
 10
-144.2499976654435
 20
-241.4490381055098
  0
LWPOLYLINE
  5
159
330
1F
100
AcDbEntity
  8
ProfileEdges
100
AcDbPolyline
 90
        2
 70
     0
 43
1.236499532863227
 10
-144.2499976654435
 20
-241.4490381055098
 10
-143.9393374936637
 20
-241.2106601716129
  0
LWPOLYLINE
  5
15A
330
1F
100
AcDbEntity
  8
ProfileEdges
100
AcDbPolyline
 90
        2
 70
     0
 43
1.236499532863227
 10
-143.9393374936637
 20
-241.2106601716129
 10
-143.7009595597668
 20
-240.8999999998331
  0
LWPOLYLINE
  5
15B
330
1F
100
AcDbEntity
  8
ProfileEdges
100
AcDbPolyline
 90
        2
 70
     0
 43
1.236499532863227
 10
-143.7009595597668
 20
-240.8999999998331
 10
-143.5511089260099
 20
-240.5382285674869
  0
LWPOLYLINE
  5
15C
330
1F
100
AcDbEntity
  8
ProfileEdges
100
AcDbPolyline
 90
        2
 70
     0
 43
1.236499532863227
 10
-116.0058554812599
 20
34.05000000059808
 10
-116.0058554812608
 20
44.05000000051729
  0
LWPOLYLINE
  5
15D
330
1F
100
AcDbEntity
  8
ProfileEdges
100
AcDbPolyline
 90
        2
 70
     0
 43
1.236499532863227
 10
-110.005855481261
 20
34.05000000059862
 10
-116.0058554812599
 20
34.05000000059808
  0
LWPOLYLINE
  5
15E
330
1F
100
AcDbEntity
  8
ProfileEdges
100
AcDbPolyline
 90
        2
 70
     0
 43
1.236499532863227
 10
-110.0058554812619
 20
44.05000000051783
 10
-110.005855481261
 20
34.05000000059862
  0
LWPOLYLINE
  5
15F
330
1F
100
AcDbEntity
  8
ProfileEdges
100
AcDbPolyline
 90
        2
 70
     0
 43
1.236499532863227
 10
110.9939241526469
 20
-237.1499999998186
 10
120.9939241526472
 20
-237.1499999998186
  0
LWPOLYLINE
  5
160
330
1F
100
AcDbEntity
  8
ProfileEdges
100
AcDbPolyline
 90
        2
 70
     0
 43
1.236499532863227
 10
120.9939241526472
 20
-243.1499999998199
 10
110.9939241526469
 20
-243.1499999998199
  0
LWPOLYLINE
  5
161
330
1F
100
AcDbEntity
  8
ProfileEdges
100
AcDbPolyline
 90
        2
 70
     0
 43
1.236499532863227
 10
120.9939241526472
 20
-237.1499999998186
 10
120.9939241526472
 20
-243.1499999998199
  0
LWPOLYLINE
  5
162
330
1F
100
AcDbEntity
  8
ProfileEdges
100
AcDbPolyline
 90
        2
 70
     0
 43
1.236499532863227
 10
-175.0000037552678
 20
237.1500000002104
 10
-165.0000037553486
 20
237.1500000002095
  0
LWPOLYLINE
  5
163
330
1F
100
AcDbEntity
  8
ProfileEdges
100
AcDbPolyline
 90
        2
 70
     0
 43
1.236499532863227
 10
-165.0000037553486
 20
237.1500000002095
 10
-165.0000037553481
 20
243.1500000002083
  0
LWPOLYLINE
  5
164
330
1F
100
AcDbEntity
  8
ProfileEdges
100
AcDbPolyline
 90
        2
 70
     0
 43
1.236499532863227
 10
-175.0000037552673
 20
243.1500000002092
 10
-165.0000037553481
 20
243.1500000002083
  0
LWPOLYLINE
  5
165
330
1F
100
AcDbEntity
  8
ProfileEdges
100
AcDbPolyline
 90
        2
 70
     0
 43
1.236499532863227
 10
-22.00564458958387
 20
237.1500000001903
 10
-22.00564458958333
 20
243.1500000001892
  0
LWPOLYLINE
  5
166
330
1F
100
AcDbEntity
  8
ProfileEdges
100
AcDbPolyline
 90
        2
 70
     0
 43
1.236499532863227
 10
-32.00564458950264
 20
243.1500000001901
 10
-22.00564458958333
 20
243.1500000001892
  0
LWPOLYLINE
  5
167
330
1F
100
AcDbEntity
  8
ProfileEdges
100
AcDbPolyline
 90
        2
 70
     0
 43
1.236499532863227
 10
-32.00564458950264
 20
243.1500000001901
 10
-32.00564458950318
 20
237.1500000001913
  0
LWPOLYLINE
  5
168
330
1F
100
AcDbEntity
  8
ProfileEdges
100
AcDbPolyline
 90
        2
 70
     0
 43
1.236499532863227
 10
-32.00564458950318
 20
237.1500000001913
 10
-22.00564458958387
 20
237.1500000001903
  0
LWPOLYLINE
  5
169
330
1F
100
AcDbEntity
  8
ProfileEdges
100
AcDbPolyline
 90
        2
 70
     0
 43
1.236499532863227
 10
170.9939241525652
 20
-243.1499999998069
 10
160.9939241526461
 20
-243.1499999998062
  0
LWPOLYLINE
  5
16A
330
1F
100
AcDbEntity
  8
ProfileEdges
100
AcDbPolyline
 90
        2
 70
     0
 43
1.236499532863227
 10
170.9939241525652
 20
-243.1499999998069
 10
170.9939241525653
 20
-237.1499999998195
  0
LWPOLYLINE
  5
16B
330
1F
100
AcDbEntity
  8
ProfileEdges
100
AcDbPolyline
 90
        2
 70
     0
 43
1.236499532863227
 10
160.9939241526462
 20
-237.1499999998187
 10
170.9939241525653
 20
-237.1499999998195
  0
LWPOLYLINE
  5
16C
330
1F
100
AcDbEntity
  8
ProfileEdges
100
AcDbPolyline
 90
        2
 70
     0
 43
1.236499532863227
 10
140.2439241526466
 20
-241.4490381055133
 10
139.9332639808668
 20
-241.2106601716164
  0
LWPOLYLINE
  5
16D
330
1F
100
AcDbEntity
  8
ProfileEdges
100
AcDbPolyline
 90
        2
 70
     0
 43
1.236499532863227
 10
140.6056955849928
 20
-241.5988887392703
 10
140.2439241526466
 20
-241.4490381055133
  0
LWPOLYLINE
  5
16E
330
1F
100
AcDbEntity
  8
ProfileEdges
100
AcDbPolyline
 90
        2
 70
     0
 43
1.236499532863227
 10
140.6056955849928
 20
-241.5988887392703
 10
140.9939241526466
 20
-241.6499999998366
  0
LWPOLYLINE
  5
16F
330
1F
100
AcDbEntity
  8
ProfileEdges
100
AcDbPolyline
 90
        2
 70
     0
 43
1.236499532863227
 10
140.9939241526466
 20
-241.6499999998366
 10
141.3821527203004
 20
-241.5988887392703
  0
LWPOLYLINE
  5
170
330
1F
100
AcDbEntity
  8
ProfileEdges
100
AcDbPolyline
 90
        2
 70
     0
 43
1.236499532863227
 10
141.3821527203004
 20
-241.5988887392703
 10
141.7439241526466
 20
-241.4490381055133
  0
LWPOLYLINE
  5
171
330
1F
100
AcDbEntity
  8
ProfileEdges
100
AcDbPolyline
 90
        2
 70
     0
 43
1.236499532863227
 10
142.0545843244264
 20
-241.2106601716164
 10
142.2929622583233
 20
-240.8999999998367
  0
LWPOLYLINE
  5
172
330
1F
100
AcDbEntity
  8
ProfileEdges
100
AcDbPolyline
 90
        2
 70
     0
 43
1.236499532863227
 10
142.4428128920802
 20
-240.5382285674904
 10
142.2929622583233
 20
-240.8999999998367
  0
LWPOLYLINE
  5
173
330
1F
100
AcDbEntity
  8
ProfileEdges
100
AcDbPolyline
 90
        2
 70
     0
 43
1.236499532863227
 10
142.4428128920802
 20
-240.5382285674904
 10
142.4939241526466
 20
-240.1499999998366
  0
LWPOLYLINE
  5
174
330
1F
100
AcDbEntity
  8
ProfileEdges
100
AcDbPolyline
 90
        2
 70
     0
 43
1.236499532863227
 10
142.4428128920802
 20
-239.7617714321829
 10
142.4939241526466
 20
-240.1499999998366
  0
LWPOLYLINE
  5
175
330
1F
100
AcDbEntity
  8
ProfileEdges
100
AcDbPolyline
 90
        2
 70
     0
 43
1.236499532863227
 10
142.2929622583233
 20
-239.3999999998366
 10
142.4428128920802
 20
-239.7617714321829
  0
LWPOLYLINE
  5
176
330
1F
100
AcDbEntity
  8
ProfileEdges
100
AcDbPolyline
 90
        2
 70
     0
 43
1.236499532863227
 10
142.2929622583233
 20
-239.3999999998366
 10
142.0545843244264
 20
-239.0893398280568
  0
LWPOLYLINE
  5
177
330
1F
100
AcDbEntity
  8
ProfileEdges
100
AcDbPolyline
 90
        2
 70
     0
 43
1.236499532863227
 10
142.0545843244264
 20
-239.0893398280568
 10
141.7439241526466
 20
-238.85096189416
  0
LWPOLYLINE
  5
178
330
1F
100
AcDbEntity
  8
ProfileEdges
100
AcDbPolyline
 90
        2
 70
     0
 43
1.236499532863227
 10
141.3821527203004
 20
-238.7011112604031
 10
141.7439241526466
 20
-238.85096189416
  0
LWPOLYLINE
  5
179
330
1F
100
AcDbEntity
  8
ProfileEdges
100
AcDbPolyline
 90
        2
 70
     0
 43
1.236499532863227
 10
140.9939241526466
 20
-238.6499999998366
 10
141.3821527203004
 20
-238.7011112604031
  0
LWPOLYLINE
  5
17A
330
1F
100
AcDbEntity
  8
ProfileEdges
100
AcDbPolyline
 90
        2
 70
     0
 43
1.236499532863227
 10
140.9939241526466
 20
-238.6499999998366
 10
140.6056955849928
 20
-238.7011112604031
  0
LWPOLYLINE
  5
17B
330
1F
100
AcDbEntity
  8
ProfileEdges
100
AcDbPolyline
 90
        2
 70
     0
 43
1.236499532863227
 10
140.2439241526466
 20
-238.85096189416
 10
139.9332639808668
 20
-239.0893398280568
  0
LWPOLYLINE
  5
17C
330
1F
100
AcDbEntity
  8
ProfileEdges
100
AcDbPolyline
 90
        2
 70
     0
 43
1.236499532863227
 10
139.6948860469699
 20
-239.3999999998366
 10
139.9332639808668
 20
-239.0893398280568
  0
LWPOLYLINE
  5
17D
330
1F
100
AcDbEntity
  8
ProfileEdges
100
AcDbPolyline
 90
        2
 70
     0
 43
1.236499532863227
 10
139.4939241526466
 20
-240.1499999998366
 10
139.545035413213
 20
-239.7617714321829
  0
LWPOLYLINE
  5
17E
330
1F
100
AcDbEntity
  8
ProfileEdges
100
AcDbPolyline
 90
        2
 70
     0
 43
1.236499532863227
 10
139.545035413213
 20
-240.5382285674904
 10
139.4939241526466
 20
-240.1499999998366
  0
LWPOLYLINE
  5
17F
330
1F
100
AcDbEntity
  8
ProfileEdges
100
AcDbPolyline
 90
        2
 70
     0
 43
1.236499532863227
 10
139.545035413213
 20
-240.5382285674904
 10
139.6948860469699
 20
-240.8999999998367
  0
LWPOLYLINE
  5
180
330
1F
100
AcDbEntity
  8
ProfileEdges
100
AcDbPolyline
 90
        2
 70
     0
 43
1.236499532863227
 10
139.9332639808668
 20
-241.2106601716164
 10
139.6948860469699
 20
-240.8999999998367
  0
LWPOLYLINE
  5
181
330
1F
100
AcDbEntity
  8
ProfileEdges
100
AcDbPolyline
 90
        2
 70
     0
 43
1.236499532863227
 10
-113.7558554812645
 20
-190.8509618939757
 10
-114.0665156530443
 20
-191.0893398278724
  0
LWPOLYLINE
  5
182
330
1F
100
AcDbEntity
  8
ProfileEdges
100
AcDbPolyline
 90
        2
 70
     0
 43
1.236499532863227
 10
-114.0665156530443
 20
-191.0893398278724
 10
-114.3048935869412
 20
-191.3999999996523
  0
LWPOLYLINE
  5
183
330
1F
100
AcDbEntity
  8
ProfileEdges
100
AcDbPolyline
 90
        2
 70
     0
 43
1.236499532863227
 10
-114.3048935869412
 20
-191.3999999996523
 10
-114.4547442206981
 20
-191.7617714319985
  0
LWPOLYLINE
  5
184
330
1F
100
AcDbEntity
  8
ProfileEdges
100
AcDbPolyline
 90
        2
 70
     0
 43
1.236499532863227
 10
-114.4547442206981
 20
-191.7617714319985
 10
-114.5058554812645
 20
-192.1499999996523
  0
LWPOLYLINE
  5
185
330
1F
100
AcDbEntity
  8
ProfileEdges
100
AcDbPolyline
 90
        2
 70
     0
 43
1.236499532863227
 10
-114.5058554812645
 20
-192.1499999996523
 10
-114.4547442206981
 20
-192.538228567306
  0
LWPOLYLINE
  5
186
330
1F
100
AcDbEntity
  8
ProfileEdges
100
AcDbPolyline
 90
        2
 70
     0
 43
1.236499532863227
 10
-114.4547442206981
 20
-192.538228567306
 10
-114.3048935869412
 20
-192.8999999996523
  0
LWPOLYLINE
  5
187
330
1F
100
AcDbEntity
  8
ProfileEdges
100
AcDbPolyline
 90
        2
 70
     0
 43
1.236499532863227
 10
-114.3048935869412
 20
-192.8999999996523
 10
-114.0665156530443
 20
-193.2106601714321
  0
LWPOLYLINE
  5
188
330
1F
100
AcDbEntity
  8
ProfileEdges
100
AcDbPolyline
 90
        2
 70
     0
 43
1.236499532863227
 10
-114.0665156530443
 20
-193.2106601714321
 10
-113.7558554812645
 20
-193.449038105329
  0
LWPOLYLINE
  5
189
330
1F
100
AcDbEntity
  8
ProfileEdges
100
AcDbPolyline
 90
        2
 70
     0
 43
1.236499532863227
 10
-113.7558554812645
 20
-193.449038105329
 10
-113.3940840489183
 20
-193.5988887390859
  0
LWPOLYLINE
  5
18A
330
1F
100
AcDbEntity
  8
ProfileEdges
100
AcDbPolyline
 90
        2
 70
     0
 43
1.236499532863227
 10
-113.3940840489183
 20
-193.5988887390859
 10
-113.0058554812645
 20
-193.6499999996523
  0
LWPOLYLINE
  5
18B
330
1F
100
AcDbEntity
  8
ProfileEdges
100
AcDbPolyline
 90
        2
 70
     0
 43
1.236499532863227
 10
-113.0058554812645
 20
-193.6499999996523
 10
-112.6176269136107
 20
-193.5988887390859
  0
LWPOLYLINE
  5
18C
330
1F
100
AcDbEntity
  8
ProfileEdges
100
AcDbPolyline
 90
        2
 70
     0
 43
1.236499532863227
 10
-112.6176269136107
 20
-193.5988887390859
 10
-112.2558554812645
 20
-193.449038105329
  0
LWPOLYLINE
  5
18D
330
1F
100
AcDbEntity
  8
ProfileEdges
100
AcDbPolyline
 90
        2
 70
     0
 43
1.236499532863227
 10
-112.2558554812645
 20
-193.449038105329
 10
-111.9451953094847
 20
-193.2106601714321
  0
LWPOLYLINE
  5
18E
330
1F
100
AcDbEntity
  8
ProfileEdges
100
AcDbPolyline
 90
        2
 70
     0
 43
1.236499532863227
 10
-111.9451953094847
 20
-193.2106601714321
 10
-111.7068173755879
 20
-192.8999999996523
  0
LWPOLYLINE
  5
18F
330
1F
100
AcDbEntity
  8
ProfileEdges
100
AcDbPolyline
 90
        2
 70
     0
 43
1.236499532863227
 10
-111.7068173755879
 20
-192.8999999996523
 10
-111.5569667418309
 20
-192.5382285673061
  0
LWPOLYLINE
  5
190
330
1F
100
AcDbEntity
  8
ProfileEdges
100
AcDbPolyline
 90
        2
 70
     0
 43
1.236499532863227
 10
-111.5569667418309
 20
-192.5382285673061
 10
-111.5058554812645
 20
-192.1499999996523
  0
LWPOLYLINE
  5
191
330
1F
100
AcDbEntity
  8
ProfileEdges
100
AcDbPolyline
 90
        2
 70
     0
 43
1.236499532863227
 10
-111.5058554812645
 20
-192.1499999996523
 10
-111.5569667418309
 20
-191.7617714319985
  0
LWPOLYLINE
  5
192
330
1F
100
AcDbEntity
  8
ProfileEdges
100
AcDbPolyline
 90
        2
 70
     0
 43
1.236499532863227
 10
-111.5569667418309
 20
-191.7617714319985
 10
-111.7068173755879
 20
-191.3999999996523
  0
LWPOLYLINE
  5
193
330
1F
100
AcDbEntity
  8
ProfileEdges
100
AcDbPolyline
 90
        2
 70
     0
 43
1.236499532863227
 10
-111.7068173755879
 20
-191.3999999996523
 10
-111.9451953094847
 20
-191.0893398278724
  0
LWPOLYLINE
  5
194
330
1F
100
AcDbEntity
  8
ProfileEdges
100
AcDbPolyline
 90
        2
 70
     0
 43
1.236499532863227
 10
-112.2558554812645
 20
-190.8509618939757
 10
-112.6176269136107
 20
-190.7011112602187
  0
LWPOLYLINE
  5
195
330
1F
100
AcDbEntity
  8
ProfileEdges
100
AcDbPolyline
 90
        2
 70
     0
 43
1.236499532863227
 10
-112.6176269136107
 20
-190.7011112602187
 10
-113.0058554812645
 20
-190.6499999996523
  0
LWPOLYLINE
  5
196
330
1F
100
AcDbEntity
  8
ProfileEdges
100
AcDbPolyline
 90
        2
 70
     0
 43
1.236499532863227
 10
-113.0058554812645
 20
-190.6499999996523
 10
-113.3940840489183
 20
-190.7011112602187
  0
LWPOLYLINE
  5
197
330
1F
100
AcDbEntity
  8
ProfileEdges
100
AcDbPolyline
 90
        2
 70
     0
 43
1.236499532863227
 10
-113.3940840489183
 20
-190.7011112602187
 10
-113.7558554812645
 20
-190.8509618939757
  0
LWPOLYLINE
  5
198
330
1F
100
AcDbEntity
  8
ProfileEdges
100
AcDbPolyline
 90
        2
 70
     0
 43
1.236499532863227
 10
-164.9999976654429
 20
-243.1499999998164
 10
-174.9999976654432
 20
-243.1499999998164
  0
LWPOLYLINE
  5
199
330
1F
100
AcDbEntity
  8
ProfileEdges
100
AcDbPolyline
 90
        2
 70
     0
 43
1.236499532863227
 10
-164.9999976654429
 20
-243.1499999998164
 10
-164.9999976654429
 20
-237.149999999815
  0
LWPOLYLINE
  5
19A
330
1F
100
AcDbEntity
  8
ProfileEdges
100
AcDbPolyline
 90
        2
 70
     0
 43
1.236499532863227
 10
-116.005855481272
 20
-94.04999999964951
 10
-110.0058554812731
 20
-94.04999999964896
  0
LWPOLYLINE
  5
19B
330
1F
100
AcDbEntity
  8
ProfileEdges
100
AcDbPolyline
 90
        2
 70
     0
 43
1.236499532863227
 10
-110.0058554812731
 20
-94.04999999964896
 10
-110.0058554812739
 20
-84.04999999972975
  0
LWPOLYLINE
  5
19C
330
1F
100
AcDbEntity
  8
ProfileEdges
100
AcDbPolyline
 90
        2
 70
     0
 43
1.236499532863227
 10
-110.0058554812739
 20
-84.04999999972975
 10
-116.0058554812728
 20
-84.04999999973029
  0
LWPOLYLINE
  5
19D
330
1F
100
AcDbEntity
  8
ProfileEdges
100
AcDbPolyline
 90
        2
 70
     0
 43
1.236499532863227
 10
-116.0058554812728
 20
-84.04999999973029
 10
-116.005855481272
 20
-94.04999999964951
  0
LWPOLYLINE
  5
19E
330
1F
100
AcDbEntity
  8
ProfileEdges
100
AcDbPolyline
 90
        2
 70
     0
 43
1.236499532863227
 10
-116.0058554812734
 20
-162.1499999996494
 10
-116.0058554812724
 20
-172.1499999996497
  0
LWPOLYLINE
  5
19F
330
1F
100
AcDbEntity
  8
ProfileEdges
100
AcDbPolyline
 90
        2
 70
     0
 43
1.236499532863227
 10
-116.0058554812724
 20
-172.1499999996497
 10
-110.0058554812725
 20
-172.1499999996491
  0
LWPOLYLINE
  5
1A0
330
1F
100
AcDbEntity
  8
ProfileEdges
100
AcDbPolyline
 90
        2
 70
     0
 43
1.236499532863227
 10
-110.0058554812725
 20
-172.1499999996491
 10
-110.0058554812733
 20
-162.1499999996489
  0
LWPOLYLINE
  5
1A1
330
1F
100
AcDbEntity
  8
ProfileEdges
100
AcDbPolyline
 90
        2
 70
     0
 43
1.236499532863227
 10
-110.0058554812733
 20
-162.1499999996489
 10
-116.0058554812734
 20
-162.1499999996494
  0
LWPOLYLINE
  5
1A2
330
1F
100
AcDbEntity
  8
ProfileEdges
100
AcDbPolyline
 90
        2
 70
     0
 43
1.236499532863227
 10
184.0000141368643
 20
-84.04999999965379
 10
190.0000141368659
 20
-84.04999999965379
  0
LWPOLYLINE
  5
1A3
330
1F
100
AcDbEntity
  8
ProfileEdges
100
AcDbPolyline
 90
        2
 70
     0
 43
1.236499532863227
 10
184.0000141368643
 20
-94.04999999965305
 10
184.0000141368643
 20
-84.04999999965379
  0
LWPOLYLINE
  5
1A4
330
1F
100
AcDbEntity
  8
ProfileEdges
100
AcDbPolyline
 90
        2
 70
     0
 43
1.236499532863227
 10
190.0000141368659
 20
-94.04999999965305
 10
184.0000141368643
 20
-94.04999999965305
  0
LWPOLYLINE
  5
1A5
330
1F
100
AcDbEntity
  8
ProfileEdges
100
AcDbPolyline
 90
        2
 70
     0
 43
1.236499532863227
 10
190.0000141368659
 20
-84.04999999965379
 10
190.0000141368659
 20
-94.04999999965305
  0
LWPOLYLINE
  5
1A6
330
1F
100
AcDbEntity
  8
ProfileEdges
100
AcDbPolyline
 90
        2
 70
     0
 43
1.236499532863227
 10
-116.000003755189
 20
222.150000000436
 10
-116.0000037551881
 20
212.1500000004357
  0
LWPOLYLINE
  5
1A7
330
1F
100
AcDbEntity
  8
ProfileEdges
100
AcDbPolyline
 90
        2
 70
     0
 43
1.236499532863227
 10
-116.0000037551881
 20
212.1500000004357
 10
-110.0000037551881
 20
212.1500000004363
  0
LWPOLYLINE
  5
1A8
330
1F
100
AcDbEntity
  8
ProfileEdges
100
AcDbPolyline
 90
        2
 70
     0
 43
1.236499532863227
 10
-110.0000037551881
 20
212.1500000004363
 10
-110.000003755189
 20
222.1500000004365
  0
LWPOLYLINE
  5
1A9
330
1F
100
AcDbEntity
  8
ProfileEdges
100
AcDbPolyline
 90
        2
 70
     0
 43
1.236499532863227
 10
-110.000003755189
 20
222.1500000004365
 10
-116.000003755189
 20
222.150000000436
  0
LWPOLYLINE
  5
1AA
330
1F
100
AcDbEntity
  8
ProfileEdges
100
AcDbPolyline
 90
        2
 70
     0
 43
1.236499532863227
 10
-124.999997665444
 20
-243.1499999998027
 10
-124.9999976654439
 20
-237.1499999998152
  0
LWPOLYLINE
  5
1AB
330
1F
100
AcDbEntity
  8
ProfileEdges
100
AcDbPolyline
 90
        2
 70
     0
 43
1.236499532863227
 10
-114.9999976655249
 20
-243.1499999998034
 10
-124.999997665444
 20
-243.1499999998027
  0
LWPOLYLINE
  5
1AC
330
1F
100
AcDbEntity
  8
ProfileEdges
100
AcDbPolyline
 90
        2
 70
     0
 43
1.236499532863227
 10
-114.9999976655249
 20
-243.1499999998034
 10
-114.9999976655248
 20
-237.1499999998159
  0
LWPOLYLINE
  5
1AD
330
1F
100
AcDbEntity
  8
ProfileEdges
100
AcDbPolyline
 90
        2
 70
     0
 43
1.236499532863227
 10
-124.9999976654439
 20
-237.1499999998152
 10
-114.9999976655248
 20
-237.1499999998159
  0
LWPOLYLINE
  5
1AE
330
1F
100
AcDbEntity
  8
ProfileEdges
100
AcDbPolyline
 90
        2
 70
     0
 43
1.236499532863227
 10
184.0000141368643
 20
-212.1499999998122
 10
190.0000141368659
 20
-212.1499999998122
  0
LWPOLYLINE
  5
1AF
330
1F
100
AcDbEntity
  8
ProfileEdges
100
AcDbPolyline
 90
        2
 70
     0
 43
1.236499532863227
 10
190.0000141368659
 20
-212.1499999998122
 10
190.0000141368659
 20
-222.1499999998115
  0
LWPOLYLINE
  5
1B0
330
1F
100
AcDbEntity
  8
ProfileEdges
100
AcDbPolyline
 90
        2
 70
     0
 43
1.236499532863227
 10
140.2439241525594
 20
238.8509618945975
 10
140.6056955849056
 20
238.7011112608406
  0
LWPOLYLINE
  5
1B1
330
1F
100
AcDbEntity
  8
ProfileEdges
100
AcDbPolyline
 90
        2
 70
     0
 43
1.236499532863227
 10
140.6056955849056
 20
238.7011112608406
 10
140.9939241525594
 20
238.6500000002743
  0
LWPOLYLINE
  5
1B2
330
1F
100
AcDbEntity
  8
ProfileEdges
100
AcDbPolyline
 90
        2
 70
     0
 43
1.236499532863227
 10
140.9939241525594
 20
238.6500000002743
 10
141.3821527202132
 20
238.7011112608406
  0
LWPOLYLINE
  5
1B3
330
1F
100
AcDbEntity
  8
ProfileEdges
100
AcDbPolyline
 90
        2
 70
     0
 43
1.236499532863227
 10
141.3821527202132
 20
238.7011112608406
 10
141.7439241525594
 20
238.8509618945975
  0
LWPOLYLINE
  5
1B4
330
1F
100
AcDbEntity
  8
ProfileEdges
100
AcDbPolyline
 90
        2
 70
     0
 43
1.236499532863227
 10
141.7439241525594
 20
238.8509618945975
 10
142.0545843243392
 20
239.0893398284945
  0
LWPOLYLINE
  5
1B5
330
1F
100
AcDbEntity
  8
ProfileEdges
100
AcDbPolyline
 90
        2
 70
     0
 43
1.236499532863227
 10
142.442812891993
 20
239.7617714326204
 10
142.4939241525594
 20
240.1500000002743
  0
LWPOLYLINE
  5
1B6
330
1F
100
AcDbEntity
  8
ProfileEdges
100
AcDbPolyline
 90
        2
 70
     0
 43
1.236499532863227
 10
142.4939241525594
 20
240.1500000002743
 10
142.442812891993
 20
240.538228567928
  0
LWPOLYLINE
  5
1B7
330
1F
100
AcDbEntity
  8
ProfileEdges
100
AcDbPolyline
 90
        2
 70
     0
 43
1.236499532863227
 10
142.2929622582361
 20
240.9000000002743
 10
142.0545843243392
 20
241.2106601720541
  0
LWPOLYLINE
  5
1B8
330
1F
100
AcDbEntity
  8
ProfileEdges
100
AcDbPolyline
 90
        2
 70
     0
 43
1.236499532863227
 10
141.3821527202132
 20
241.5988887397078
 10
140.9939241525594
 20
241.6500000002743
  0
LWPOLYLINE
  5
1B9
330
1F
100
AcDbEntity
  8
ProfileEdges
100
AcDbPolyline
 90
        2
 70
     0
 43
1.236499532863227
 10
140.9939241525594
 20
241.6500000002743
 10
140.6056955849056
 20
241.5988887397078
  0
LWPOLYLINE
  5
1BA
330
1F
100
AcDbEntity
  8
ProfileEdges
100
AcDbPolyline
 90
        2
 70
     0
 43
1.236499532863227
 10
140.6056955849056
 20
241.5988887397078
 10
140.2439241525594
 20
241.4490381059509
  0
LWPOLYLINE
  5
1BB
330
1F
100
AcDbEntity
  8
ProfileEdges
100
AcDbPolyline
 90
        2
 70
     0
 43
1.236499532863227
 10
140.2439241525594
 20
241.4490381059509
 10
139.9332639807796
 20
241.2106601720541
  0
LWPOLYLINE
  5
1BC
330
1F
100
AcDbEntity
  8
ProfileEdges
100
AcDbPolyline
 90
        2
 70
     0
 43
1.236499532863227
 10
139.9332639807796
 20
241.2106601720541
 10
139.6948860468827
 20
240.9000000002743
  0
LWPOLYLINE
  5
1BD
330
1F
100
AcDbEntity
  8
ProfileEdges
100
AcDbPolyline
 90
        2
 70
     0
 43
1.236499532863227
 10
139.6948860468827
 20
240.9000000002743
 10
139.5450354131258
 20
240.538228567928
  0
LWPOLYLINE
  5
1BE
330
1F
100
AcDbEntity
  8
ProfileEdges
100
AcDbPolyline
 90
        2
 70
     0
 43
1.236499532863227
 10
139.5450354131258
 20
240.538228567928
 10
139.4939241525594
 20
240.1500000002743
  0
LWPOLYLINE
  5
1BF
330
1F
100
AcDbEntity
  8
ProfileEdges
100
AcDbPolyline
 90
        2
 70
     0
 43
1.236499532863227
 10
139.4939241525594
 20
240.1500000002743
 10
139.5450354131258
 20
239.7617714326204
  0
LWPOLYLINE
  5
1C0
330
1F
100
AcDbEntity
  8
ProfileEdges
100
AcDbPolyline
 90
        2
 70
     0
 43
1.236499532863227
 10
139.6948860468827
 20
239.4000000002743
 10
139.9332639807796
 20
239.0893398284945
  0
LWPOLYLINE
  5
1C1
330
1F
100
AcDbEntity
  8
ProfileEdges
100
AcDbPolyline
 90
        2
 70
     0
 43
1.236499532863227
 10
139.9332639807796
 20
239.0893398284945
 10
140.2439241525594
 20
238.8509618945975
  0
LWPOLYLINE
  5
1C2
330
1F
100
AcDbEntity
  8
ProfileEdges
100
AcDbPolyline
 90
        2
 70
     0
 43
1.236499532863227
 10
-116.0058554812673
 20
-222.1499999995678
 10
-110.0058554812684
 20
-222.1499999995672
  0
LWPOLYLINE
  5
1C3
330
1F
100
AcDbEntity
  8
ProfileEdges
100
AcDbPolyline
 90
        2
 70
     0
 43
1.236499532863227
 10
-110.0058554812684
 20
-222.1499999995672
 10
-110.0058554812692
 20
-212.149999999648
  0
LWPOLYLINE
  5
1C4
330
1F
100
AcDbEntity
  8
ProfileEdges
100
AcDbPolyline
 90
        2
 70
     0
 43
1.236499532863227
 10
-114.2990418608568
 20
191.4000000004332
 10
-114.06066392696
 20
191.0893398286534
  0
LWPOLYLINE
  5
1C5
330
1F
100
AcDbEntity
  8
ProfileEdges
100
AcDbPolyline
 90
        2
 70
     0
 43
1.236499532863227
 10
-114.06066392696
 20
191.0893398286534
 10
-113.7500037551801
 20
190.8509618947564
  0
LWPOLYLINE
  5
1C6
330
1F
100
AcDbEntity
  8
ProfileEdges
100
AcDbPolyline
 90
        2
 70
     0
 43
1.236499532863227
 10
-113.7500037551801
 20
190.8509618947564
 10
-113.3882323228339
 20
190.7011112609995
  0
LWPOLYLINE
  5
1C7
330
1F
100
AcDbEntity
  8
ProfileEdges
100
AcDbPolyline
 90
        2
 70
     0
 43
1.236499532863227
 10
-113.0000037551801
 20
190.6500000004332
 10
-112.6117751875263
 20
190.7011112609995
  0
LWPOLYLINE
  5
1C8
330
1F
100
AcDbEntity
  8
ProfileEdges
100
AcDbPolyline
 90
        2
 70
     0
 43
1.236499532863227
 10
-112.6117751875263
 20
190.7011112609995
 10
-112.2500037551801
 20
190.8509618947564
  0
LWPOLYLINE
  5
1C9
330
1F
100
AcDbEntity
  8
ProfileEdges
100
AcDbPolyline
 90
        2
 70
     0
 43
1.236499532863227
 10
-112.2500037551801
 20
190.8509618947564
 10
-111.9393435834003
 20
191.0893398286534
  0
LWPOLYLINE
  5
1CA
330
1F
100
AcDbEntity
  8
ProfileEdges
100
AcDbPolyline
 90
        2
 70
     0
 43
1.236499532863227
 10
-111.9393435834003
 20
191.0893398286534
 10
-111.7009656495035
 20
191.4000000004332
  0
LWPOLYLINE
  5
1CB
330
1F
100
AcDbEntity
  8
ProfileEdges
100
AcDbPolyline
 90
        2
 70
     0
 43
1.236499532863227
 10
-111.7009656495035
 20
191.4000000004332
 10
-111.5511150157465
 20
191.7617714327793
  0
LWPOLYLINE
  5
1CC
330
1F
100
AcDbEntity
  8
ProfileEdges
100
AcDbPolyline
 90
        2
 70
     0
 43
1.236499532863227
 10
-111.5511150157465
 20
191.7617714327793
 10
-111.5000037551801
 20
192.1500000004332
  0
LWPOLYLINE
  5
1CD
330
1F
100
AcDbEntity
  8
ProfileEdges
100
AcDbPolyline
 90
        2
 70
     0
 43
1.236499532863227
 10
-111.7009656495035
 20
192.9000000004332
 10
-111.9393435834003
 20
193.210660172213
  0
LWPOLYLINE
  5
1CE
330
1F
100
AcDbEntity
  8
ProfileEdges
100
AcDbPolyline
 90
        2
 70
     0
 43
1.236499532863227
 10
-111.9393435834003
 20
193.210660172213
 10
-112.2500037551801
 20
193.4490381061098
  0
LWPOLYLINE
  5
1CF
330
1F
100
AcDbEntity
  8
ProfileEdges
100
AcDbPolyline
 90
        2
 70
     0
 43
1.236499532863227
 10
-112.6117751875263
 20
193.5988887398667
 10
-113.0000037551801
 20
193.6500000004332
  0
LWPOLYLINE
  5
1D0
330
1F
100
AcDbEntity
  8
ProfileEdges
100
AcDbPolyline
 90
        2
 70
     0
 43
1.236499532863227
 10
-113.0000037551801
 20
193.6500000004332
 10
-113.3882323228339
 20
193.5988887398667
  0
LWPOLYLINE
  5
1D1
330
1F
100
AcDbEntity
  8
ProfileEdges
100
AcDbPolyline
 90
        2
 70
     0
 43
1.236499532863227
 10
-113.3882323228339
 20
193.5988887398667
 10
-113.7500037551801
 20
193.4490381061098
  0
LWPOLYLINE
  5
1D2
330
1F
100
AcDbEntity
  8
ProfileEdges
100
AcDbPolyline
 90
        2
 70
     0
 43
1.236499532863227
 10
-113.7500037551801
 20
193.4490381061098
 10
-114.06066392696
 20
193.210660172213
  0
LWPOLYLINE
  5
1D3
330
1F
100
AcDbEntity
  8
ProfileEdges
100
AcDbPolyline
 90
        2
 70
     0
 43
1.236499532863227
 10
-114.06066392696
 20
193.210660172213
 10
-114.2990418608568
 20
192.9000000004332
  0
LWPOLYLINE
  5
1D4
330
1F
100
AcDbEntity
  8
ProfileEdges
100
AcDbPolyline
 90
        2
 70
     0
 43
1.236499532863227
 10
-114.2990418608568
 20
192.9000000004332
 10
-114.4488924946137
 20
192.5382285680869
  0
LWPOLYLINE
  5
1D5
330
1F
100
AcDbEntity
  8
ProfileEdges
100
AcDbPolyline
 90
        2
 70
     0
 43
1.236499532863227
 10
-114.4488924946137
 20
192.5382285680869
 10
-114.5000037551802
 20
192.1500000004332
  0
LWPOLYLINE
  5
1D6
330
1F
100
AcDbEntity
  8
ProfileEdges
100
AcDbPolyline
 90
        2
 70
     0
 43
1.236499532863227
 10
-114.5000037551802
 20
192.1500000004332
 10
-114.4488924946137
 20
191.7617714327793
  0
LWPOLYLINE
  5
1D7
330
1F
100
AcDbEntity
  8
ProfileEdges
100
AcDbPolyline
 90
        2
 70
     0
 43
1.236499532863227
 10
-114.4488924946137
 20
191.7617714327793
 10
-114.2990418608568
 20
191.4000000004332
  0
LWPOLYLINE
  5
1D8
330
1F
100
AcDbEntity
  8
ProfileEdges
100
AcDbPolyline
 90
        2
 70
     0
 43
1.236499532863227
 10
-3.454533328934156
 20
-239.7617714321782
 10
-3.304682695177226
 20
-239.3999999998319
  0
LWPOLYLINE
  5
1D9
330
1F
100
AcDbEntity
  8
ProfileEdges
100
AcDbPolyline
 90
        2
 70
     0
 43
1.236499532863227
 10
-3.505644589500573
 20
-240.1499999998319
 10
-3.454533328934156
 20
-240.5382285674857
  0
LWPOLYLINE
  5
1DA
330
1F
100
AcDbEntity
  8
ProfileEdges
100
AcDbPolyline
 90
        2
 70
     0
 43
1.236499532863227
 10
-3.454533328934156
 20
-240.5382285674857
 10
-3.304682695177226
 20
-240.899999999832
  0
LWPOLYLINE
  5
1DB
330
1F
100
AcDbEntity
  8
ProfileEdges
100
AcDbPolyline
 90
        2
 70
     0
 43
1.236499532863227
 10
-3.066304761280354
 20
-241.2106601716117
 10
-3.304682695177226
 20
-240.899999999832
  0
LWPOLYLINE
  5
1DC
330
1F
100
AcDbEntity
  8
ProfileEdges
100
AcDbPolyline
 90
        2
 70
     0
 43
1.236499532863227
 10
-3.066304761280354
 20
-241.2106601716117
 10
-2.755644589500563
 20
-241.4490381055086
  0
LWPOLYLINE
  5
1DD
330
1F
100
AcDbEntity
  8
ProfileEdges
100
AcDbPolyline
 90
        2
 70
     0
 43
1.236499532863227
 10
-2.393873157154354
 20
-241.5988887392656
 10
-2.755644589500563
 20
-241.4490381055086
  0
LWPOLYLINE
  5
1DE
330
1F
100
AcDbEntity
  8
ProfileEdges
100
AcDbPolyline
 90
        2
 70
     0
 43
1.236499532863227
 10
-2.005644589500553
 20
-241.6499999998319
 10
-2.393873157154354
 20
-241.5988887392656
  0
LWPOLYLINE
  5
1DF
330
1F
100
AcDbEntity
  8
ProfileEdges
100
AcDbPolyline
 90
        2
 70
     0
 43
1.236499532863227
 10
-2.005644589500553
 20
-241.6499999998319
 10
-1.617416021846752
 20
-241.5988887392656
  0
LWPOLYLINE
  5
1E0
330
1F
100
AcDbEntity
  8
ProfileEdges
100
AcDbPolyline
 90
        2
 70
     0
 43
1.236499532863227
 10
-1.617416021846752
 20
-241.5988887392656
 10
-1.255644589500543
 20
-241.4490381055086
  0
LWPOLYLINE
  5
1E1
330
1F
100
AcDbEntity
  8
ProfileEdges
100
AcDbPolyline
 90
        2
 70
     0
 43
1.236499532863227
 10
-0.7066064838238804
 20
-240.899999999832
 10
-0.9449844177207518
 20
-241.2106601716117
  0
LWPOLYLINE
  5
1E2
330
1F
100
AcDbEntity
  8
ProfileEdges
100
AcDbPolyline
 90
        2
 70
     0
 43
1.236499532863227
 10
-0.5567558500669507
 20
-240.5382285674858
 10
-0.7066064838238804
 20
-240.899999999832
  0
LWPOLYLINE
  5
1E3
330
1F
100
AcDbEntity
  8
ProfileEdges
100
AcDbPolyline
 90
        2
 70
     0
 43
1.236499532863227
 10
-0.5567558500669507
 20
-240.5382285674858
 10
-0.5056445895005334
 20
-240.1499999998319
  0
LWPOLYLINE
  5
1E4
330
1F
100
AcDbEntity
  8
ProfileEdges
100
AcDbPolyline
 90
        2
 70
     0
 43
1.236499532863227
 10
-0.5567558500669507
 20
-239.7617714321782
 10
-0.5056445895005334
 20
-240.1499999998319
  0
LWPOLYLINE
  5
1E5
330
1F
100
AcDbEntity
  8
ProfileEdges
100
AcDbPolyline
 90
        2
 70
     0
 43
1.236499532863227
 10
-0.7066064838238804
 20
-239.3999999998319
 10
-0.5567558500669507
 20
-239.7617714321782
  0
LWPOLYLINE
  5
1E6
330
1F
100
AcDbEntity
  8
ProfileEdges
100
AcDbPolyline
 90
        2
 70
     0
 43
1.236499532863227
 10
-0.9449844177207518
 20
-239.0893398280521
 10
-0.7066064838238804
 20
-239.3999999998319
  0
LWPOLYLINE
  5
1E7
330
1F
100
AcDbEntity
  8
ProfileEdges
100
AcDbPolyline
 90
        2
 70
     0
 43
1.236499532863227
 10
-1.255644589500543
 20
-238.8509618941553
 10
-0.9449844177207518
 20
-239.0893398280521
  0
LWPOLYLINE
  5
1E8
330
1F
100
AcDbEntity
  8
ProfileEdges
100
AcDbPolyline
 90
        2
 70
     0
 43
1.236499532863227
 10
-1.255644589500543
 20
-238.8509618941553
 10
-1.617416021846752
 20
-238.7011112603984
  0
LWPOLYLINE
  5
1E9
330
1F
100
AcDbEntity
  8
ProfileEdges
100
AcDbPolyline
 90
        2
 70
     0
 43
1.236499532863227
 10
-2.005644589500553
 20
-238.6499999998319
 10
-1.617416021846752
 20
-238.7011112603984
  0
LWPOLYLINE
  5
1EA
330
1F
100
AcDbEntity
  8
ProfileEdges
100
AcDbPolyline
 90
        2
 70
     0
 43
1.236499532863227
 10
-2.005644589500553
 20
-238.6499999998319
 10
-2.393873157154354
 20
-238.7011112603984
  0
LWPOLYLINE
  5
1EB
330
1F
100
AcDbEntity
  8
ProfileEdges
100
AcDbPolyline
 90
        2
 70
     0
 43
1.236499532863227
 10
-2.393873157154354
 20
-238.7011112603984
 10
-2.755644589500563
 20
-238.8509618941553
  0
LWPOLYLINE
  5
1EC
330
1F
100
AcDbEntity
  8
ProfileEdges
100
AcDbPolyline
 90
        2
 70
     0
 43
1.236499532863227
 10
-2.755644589500563
 20
-238.8509618941553
 10
-3.066304761280354
 20
-239.0893398280521
  0
LWPOLYLINE
  5
1ED
330
1F
100
AcDbEntity
  8
ProfileEdges
100
AcDbPolyline
 90
        2
 70
     0
 43
1.236499532863227
 10
-3.066304761280354
 20
-239.0893398280521
 10
-3.304682695177226
 20
-239.3999999998319
  0
LWPOLYLINE
  5
1EE
330
1F
100
AcDbEntity
  8
ProfileEdges
100
AcDbPolyline
 90
        2
 70
     0
 43
1.236499532863227
 10
170.9939241525623
 20
237.1500000002777
 10
170.9939241526307
 20
243.1500000002286
  0
LWPOLYLINE
  5
1EF
330
1F
100
AcDbEntity
  8
ProfileEdges
100
AcDbPolyline
 90
        2
 70
     0
 43
1.236499532863227
 10
160.9939241525626
 20
243.1500000002787
 10
160.993924152562
 20
237.1500000002786
  0
LWPOLYLINE
  5
1F0
330
1F
100
AcDbEntity
  8
ProfileEdges
100
AcDbPolyline
 90
        2
 70
     0
 43
1.236499532863227
 10
160.993924152562
 20
237.1500000002786
 10
170.9939241525623
 20
237.1500000002777
  0
LWPOLYLINE
  5
1F1
330
1F
100
AcDbEntity
  8
ProfileEdges
100
AcDbPolyline
 90
        2
 70
     0
 43
1.236499532863227
 10
-116.0058554812771
 20
-44.04999999973118
 10
-110.0058554812771
 20
-44.04999999973064
  0
LWPOLYLINE
  5
1F2
330
1F
100
AcDbEntity
  8
ProfileEdges
100
AcDbPolyline
 90
        2
 70
     0
 43
1.236499532863227
 10
-110.0058554812781
 20
-34.04999999973061
 10
-116.0058554812781
 20
-34.04999999973115
  0
LWPOLYLINE
  5
1F3
330
1F
100
AcDbEntity
  8
ProfileEdges
100
AcDbPolyline
 90
        2
 70
     0
 43
1.236499532863227
 10
-116.0058554812781
 20
-34.04999999973115
 10
-116.0058554812771
 20
-44.04999999973118
  0
LWPOLYLINE
  5
1F4
330
1F
100
AcDbEntity
  8
ProfileEdges
100
AcDbPolyline
 90
        2
 70
     0
 43
1.236499532863227
 10
120.9939241525631
 20
237.1500000002824
 10
120.9939241525636
 20
243.1500000002814
  0
LWPOLYLINE
  5
1F5
330
1F
100
AcDbEntity
  8
ProfileEdges
100
AcDbPolyline
 90
        2
 70
     0
 43
1.236499532863227
 10
110.9939241526444
 20
243.1500000002823
 10
110.9939241526439
 20
237.1500000002833
  0
LWPOLYLINE
  5
1F6
330
1F
100
AcDbEntity
  8
ProfileEdges
100
AcDbPolyline
 90
        2
 70
     0
 43
1.236499532863227
 10
-113.0058554812571
 20
62.55000000051353
 10
-113.3940840489109
 20
62.60111126107982
  0
LWPOLYLINE
  5
1F7
330
1F
100
AcDbEntity
  8
ProfileEdges
100
AcDbPolyline
 90
        2
 70
     0
 43
1.236499532863227
 10
-112.2558554812572
 20
62.75096189483688
 10
-112.6176269136033
 20
62.60111126107991
  0
LWPOLYLINE
  5
1F8
330
1F
100
AcDbEntity
  8
ProfileEdges
100
AcDbPolyline
 90
        2
 70
     0
 43
1.236499532863227
 10
-111.7068173755805
 20
63.3000000005135
 10
-111.9451953094773
 20
62.98933982873366
  0
LWPOLYLINE
  5
1F9
330
1F
100
AcDbEntity
  8
ProfileEdges
100
AcDbPolyline
 90
        2
 70
     0
 43
1.236499532863227
 10
-111.5569667418236
 20
63.6617714328598
 10
-111.7068173755805
 20
63.3000000005135
  0
LWPOLYLINE
  5
1FA
330
1F
100
AcDbEntity
  8
ProfileEdges
100
AcDbPolyline
 90
        2
 70
     0
 43
1.236499532863227
 10
-111.5058554812572
 20
64.0500000005135
 10
-111.5569667418236
 20
63.6617714328598
  0
LWPOLYLINE
  5
1FB
330
1F
100
AcDbEntity
  8
ProfileEdges
100
AcDbPolyline
 90
        2
 70
     0
 43
1.236499532863227
 10
-111.5569667418236
 20
64.4382285681674
 10
-111.5058554812572
 20
64.0500000005135
  0
LWPOLYLINE
  5
1FC
330
1F
100
AcDbEntity
  8
ProfileEdges
100
AcDbPolyline
 90
        2
 70
     0
 43
1.236499532863227
 10
-111.7068173755805
 20
64.80000000051352
 10
-111.5569667418236
 20
64.4382285681674
  0
LWPOLYLINE
  5
1FD
330
1F
100
AcDbEntity
  8
ProfileEdges
100
AcDbPolyline
 90
        2
 70
     0
 43
1.236499532863227
 10
-111.9451953094774
 20
65.11066017229345
 10
-111.7068173755805
 20
64.80000000051352
  0
LWPOLYLINE
  5
1FE
330
1F
100
AcDbEntity
  8
ProfileEdges
100
AcDbPolyline
 90
        2
 70
     0
 43
1.236499532863227
 10
-112.2558554812572
 20
65.34903810619024
 10
-111.9451953094774
 20
65.11066017229345
  0
LWPOLYLINE
  5
1FF
330
1F
100
AcDbEntity
  8
ProfileEdges
100
AcDbPolyline
 90
        2
 70
     0
 43
1.236499532863227
 10
-112.6176269136034
 20
65.49888873994712
 10
-112.2558554812572
 20
65.34903810619024
  0
LWPOLYLINE
  5
200
330
1F
100
AcDbEntity
  8
ProfileEdges
100
AcDbPolyline
 90
        2
 70
     0
 43
1.236499532863227
 10
-113.0058554812572
 20
65.55000000051358
 10
-112.6176269136034
 20
65.49888873994712
  0
LWPOLYLINE
  5
201
330
1F
100
AcDbEntity
  8
ProfileEdges
100
AcDbPolyline
 90
        2
 70
     0
 43
1.236499532863227
 10
-113.394084048911
 20
65.49888873994702
 10
-113.0058554812572
 20
65.55000000051358
  0
LWPOLYLINE
  5
202
330
1F
100
AcDbEntity
  8
ProfileEdges
100
AcDbPolyline
 90
        2
 70
     0
 43
1.236499532863227
 10
-113.7558554812572
 20
65.34903810619028
 10
-113.394084048911
 20
65.49888873994702
  0
LWPOLYLINE
  5
203
330
1F
100
AcDbEntity
  8
ProfileEdges
100
AcDbPolyline
 90
        2
 70
     0
 43
1.236499532863227
 10
-114.066515653037
 20
65.11066017229327
 10
-113.7558554812572
 20
65.34903810619028
  0
LWPOLYLINE
  5
204
330
1F
100
AcDbEntity
  8
ProfileEdges
100
AcDbPolyline
 90
        2
 70
     0
 43
1.236499532863227
 10
-114.3048935869339
 20
64.80000000051348
 10
-114.066515653037
 20
65.11066017229327
  0
LWPOLYLINE
  5
205
330
1F
100
AcDbEntity
  8
ProfileEdges
100
AcDbPolyline
 90
        2
 70
     0
 43
1.236499532863227
 10
-114.5058554812572
 20
64.05000000051342
 10
-114.4547442206908
 20
64.43822856816732
  0
LWPOLYLINE
  5
206
330
1F
100
AcDbEntity
  8
ProfileEdges
100
AcDbPolyline
 90
        2
 70
     0
 43
1.236499532863227
 10
-114.3048935869339
 20
63.30000000051346
 10
-114.4547442206908
 20
63.66177143285971
  0
LWPOLYLINE
  5
207
330
1F
100
AcDbEntity
  8
ProfileEdges
100
AcDbPolyline
 90
        2
 70
     0
 43
1.236499532863227
 10
-114.066515653037
 20
62.98933982873366
 10
-114.3048935869339
 20
63.30000000051346
  0
LWPOLYLINE
  5
208
330
1F
100
AcDbEntity
  8
ProfileEdges
100
AcDbPolyline
 90
        2
 70
     0
 43
1.236499532863227
 10
-113.7558554812572
 20
62.75096189483675
 10
-114.066515653037
 20
62.98933982873366
  0
LWPOLYLINE
  5
209
330
1F
100
AcDbEntity
  8
ProfileEdges
100
AcDbPolyline
 90
        2
 70
     0
 43
1.236499532863227
 10
-113.3940840489109
 20
62.60111126107982
 10
-113.7558554812572
 20
62.75096189483675
  0
LWPOLYLINE
  5
20A
330
1F
100
AcDbEntity
  8
ProfileEdges
100
AcDbPolyline
 90
        2
 70
     0
 43
1.236499532863227
 10
147.3052390569774
 20
-218.0644486135556
 10
145.9999771347744
 20
-218.1499999998177
  0
LWPOLYLINE
  5
20B
330
1F
100
AcDbEntity
  8
ProfileEdges
100
AcDbPolyline
 90
        2
 70
     0
 43
1.236499532863227
 10
148.5881675858046
 20
-217.8092582627077
 10
147.3052390569774
 20
-218.0644486135556
  0
LWPOLYLINE
  5
20C
330
1F
100
AcDbEntity
  8
ProfileEdges
100
AcDbPolyline
 90
        2
 70
     0
 43
1.236499532863227
 10
149.8268114584326
 20
-217.3887953249291
 10
148.5881675858046
 20
-217.8092582627077
  0
LWPOLYLINE
  5
20D
330
1F
100
AcDbEntity
  8
ProfileEdges
100
AcDbPolyline
 90
        2
 70
     0
 43
1.236499532863227
 10
153.0710449466534
 20
-215.2210678116776
 10
152.0875914248732
 20
-216.0835334027261
  0
LWPOLYLINE
  5
20E
330
1F
100
AcDbEntity
  8
ProfileEdges
100
AcDbPolyline
 90
        2
 70
     0
 43
1.236499532863227
 10
153.9335105377019
 20
-214.2376142898975
 10
153.0710449466534
 20
-215.2210678116776
  0
LWPOLYLINE
  5
20F
330
1F
100
AcDbEntity
  8
ProfileEdges
100
AcDbPolyline
 90
        2
 70
     0
 43
1.236499532863227
 10
155.2387724599049
 20
-211.9768343234568
 10
154.6602311726353
 20
-213.1499999998082
  0
LWPOLYLINE
  5
210
330
1F
100
AcDbEntity
  8
ProfileEdges
100
AcDbPolyline
 90
        2
 70
     0
 43
1.236499532863227
 10
155.6592353976835
 20
-210.7381904508288
 10
155.2387724599049
 20
-211.9768343234568
  0
LWPOLYLINE
  5
211
330
1F
100
AcDbEntity
  8
ProfileEdges
100
AcDbPolyline
 90
        2
 70
     0
 43
1.236499532863227
 10
155.9144257485314
 20
-209.4552619220017
 10
155.6592353976835
 20
-210.7381904508288
  0
LWPOLYLINE
  5
212
330
1F
100
AcDbEntity
  8
ProfileEdges
100
AcDbPolyline
 90
        2
 70
     0
 43
1.236499532863227
 10
155.9999771347935
 20
-208.1499999997987
 10
155.9144257485314
 20
-209.4552619220017
  0
LWPOLYLINE
  5
213
330
1F
100
AcDbEntity
  8
ProfileEdges
100
AcDbPolyline
 90
        2
 70
     0
 43
1.236499532863227
 10
155.9999797868444
 20
-198.1499999997987
 10
155.9999771347935
 20
-208.1499999997987
  0
LWPOLYLINE
  5
214
330
1F
100
AcDbEntity
  8
ProfileEdges
100
AcDbPolyline
 90
        2
 70
     0
 43
1.236499532863227
 10
155.9999797868444
 20
-198.1499999997987
 10
155.8609370035845
 20
-169.9762881876941
  0
LWPOLYLINE
  5
215
330
1F
100
AcDbEntity
  8
ProfileEdges
100
AcDbPolyline
 90
        2
 70
     0
 43
1.236499532863227
 10
155.8609370035845
 20
-169.9762881876941
 10
155.4438072575007
 20
-141.8053213434051
  0
LWPOLYLINE
  5
216
330
1F
100
AcDbEntity
  8
ProfileEdges
100
AcDbPolyline
 90
        2
 70
     0
 43
1.236499532863227
 10
155.4438072575007
 20
-141.8053213434051
 10
154.7486311906808
 20
-113.6398442410513
  0
LWPOLYLINE
  5
217
330
1F
100
AcDbEntity
  8
ProfileEdges
100
AcDbPolyline
 90
        2
 70
     0
 43
1.236499532863227
 10
153.7754765360253
 20
-85.48260111987166
 10
152.5244381106457
 20
-57.33633541684595
  0
LWPOLYLINE
  5
218
330
1F
100
AcDbEntity
  8
ProfileEdges
100
AcDbPolyline
 90
        2
 70
     0
 43
1.236499532863227
 10
150.9956378066278
 20
-29.2037894993942
 10
149.1892245791533
 20
-1.087704398180348
  0
LWPOLYLINE
  5
219
330
1F
100
AcDbEntity
  8
ProfileEdges
100
AcDbPolyline
 90
        2
 70
     0
 43
1.236499532863227
 10
149.1892245791533
 20
-1.087704398180348
 10
147.105374431989
 20
27.00918045995411
  0
LWPOLYLINE
  5
21A
330
1F
100
AcDbEntity
  8
ProfileEdges
100
AcDbPolyline
 90
        2
 70
     0
 43
1.236499532863227
 10
147.105374431989
 20
27.00918045995411
 10
144.7442904003388
 20
55.08412751889935
  0
LWPOLYLINE
  5
21B
330
1F
100
AcDbEntity
  8
ProfileEdges
100
AcDbPolyline
 90
        2
 70
     0
 43
1.236499532863227
 10
144.7442904003388
 20
55.08412751889935
 10
142.1062025310561
 20
83.13440136000546
  0
LWPOLYLINE
  5
21C
330
1F
100
AcDbEntity
  8
ProfileEdges
100
AcDbPolyline
 90
        2
 70
     0
 43
1.236499532863227
 10
142.1062025310561
 20
83.13440136000546
 10
139.1913678602368
 20
111.1572689686013
  0
LWPOLYLINE
  5
21D
330
1F
100
AcDbEntity
  8
ProfileEdges
100
AcDbPolyline
 90
        2
 70
     0
 43
1.236499532863227
 10
139.1913678602368
 20
111.1572689686013
 10
137.1401154478886
 20
129.1500000002796
  0
LWPOLYLINE
  5
21E
330
1F
100
AcDbEntity
  8
ProfileEdges
100
AcDbPolyline
 90
        2
 70
     0
 43
1.236499532863227
 10
137.1401154478886
 20
129.1500000002796
 10
136.9028475596498
 20
130.4979652739993
  0
LWPOLYLINE
  5
21F
330
1F
100
AcDbEntity
  8
ProfileEdges
100
AcDbPolyline
 90
        2
 70
     0
 43
1.236499532863227
 10
136.504032047101
 20
131.807259976079
 10
135.9495433018618
 20
133.0585987237195
  0
LWPOLYLINE
  5
220
330
1F
100
AcDbEntity
  8
ProfileEdges
100
AcDbPolyline
 90
        2
 70
     0
 43
1.236499532863227
 10
135.9495433018618
 20
133.0585987237195
 10
135.2475487194718
 20
134.2335498019515
  0
LWPOLYLINE
  5
221
330
1F
100
AcDbEntity
  8
ProfileEdges
100
AcDbPolyline
 90
        2
 70
     0
 43
1.236499532863227
 10
134.4083883969487
 20
135.3148066553617
 10
133.4444228273306
 20
136.2864428066725
  0
LWPOLYLINE
  5
222
330
1F
100
AcDbEntity
  8
ProfileEdges
100
AcDbPolyline
 90
        2
 70
     0
 43
1.236499532863227
 10
133.4444228273306
 20
136.2864428066725
 10
132.3698508345992
 20
137.1341464473282
  0
LWPOLYLINE
  5
223
330
1F
100
AcDbEntity
  8
ProfileEdges
100
AcDbPolyline
 90
        2
 70
     0
 43
1.236499532863227
 10
132.3698508345992
 20
137.1341464473282
 10
131.2005004307309
 20
137.8454312446608
  0
LWPOLYLINE
  5
224
330
1F
100
AcDbEntity
  8
ProfileEdges
100
AcDbPolyline
 90
        2
 70
     0
 43
1.236499532863227
 10
131.2005004307309
 20
137.8454312446608
 10
129.953595675465
 20
138.4098202605343
  0
LWPOLYLINE
  5
225
330
1F
100
AcDbEntity
  8
ProfileEdges
100
AcDbPolyline
 90
        2
 70
     0
 43
1.236499532863227
 10
129.953595675465
 20
138.4098202605343
 10
128.6475029728517
 20
138.8190002724163
  0
LWPOLYLINE
  5
226
330
1F
100
AcDbEntity
  8
ProfileEdges
100
AcDbPolyline
 90
        2
 70
     0
 43
1.236499532863227
 10
125.9352950435261
 20
139.1500000002796
 10
-94.99992393751354
 20
139.150000000279
  0
LWPOLYLINE
  5
227
330
1F
100
AcDbEntity
  8
ProfileEdges
100
AcDbPolyline
 90
        2
 70
     0
 43
1.236499532863227
 10
-94.99992393751354
 20
139.150000000279
 10
-96.30518585971407
 20
139.0644486140171
  0
LWPOLYLINE
  5
228
330
1F
100
AcDbEntity
  8
ProfileEdges
100
AcDbPolyline
 90
        2
 70
     0
 43
1.236499532863227
 10
-96.30518585971407
 20
139.0644486140171
 10
-97.58811438853874
 20
138.8092582631696
  0
LWPOLYLINE
  5
229
330
1F
100
AcDbEntity
  8
ProfileEdges
100
AcDbPolyline
 90
        2
 70
     0
 43
1.236499532863227
 10
-97.58811438853874
 20
138.8092582631696
 10
-98.82675826116446
 20
138.3887953253918
  0
LWPOLYLINE
  5
22A
330
1F
100
AcDbEntity
  8
ProfileEdges
100
AcDbPolyline
 90
        2
 70
     0
 43
1.236499532863227
 10
-98.82675826116446
 20
138.3887953253918
 10
-99.99992393751353
 20
137.8102540381234
  0
LWPOLYLINE
  5
22B
330
1F
100
AcDbEntity
  8
ProfileEdges
100
AcDbPolyline
 90
        2
 70
     0
 43
1.236499532863227
 10
-99.99992393751353
 20
137.8102540381234
 10
-101.0875382276007
 20
137.0835334031913
  0
LWPOLYLINE
  5
22C
330
1F
100
AcDbEntity
  8
ProfileEdges
100
AcDbPolyline
 90
        2
 70
     0
 43
1.236499532863227
 10
-102.070991749379
 20
136.2210678121445
 10
-102.9334573404259
 20
135.2376142903662
  0
LWPOLYLINE
  5
22D
330
1F
100
AcDbEntity
  8
ProfileEdges
100
AcDbPolyline
 90
        2
 70
     0
 43
1.236499532863227
 10
-103.6601779753579
 20
134.150000000279
 10
-104.2387192626264
 20
132.9768343239298
  0
LWPOLYLINE
  5
22E
330
1F
100
AcDbEntity
  8
ProfileEdges
100
AcDbPolyline
 90
        2
 70
     0
 43
1.236499532863227
 10
-104.6591822004042
 20
131.7381904513042
 10
-104.9143725512516
 20
130.4552619224795
  0
LWPOLYLINE
  5
22F
330
1F
100
AcDbEntity
  8
ProfileEdges
100
AcDbPolyline
 90
        2
 70
     0
 43
1.236499532863227
 10
-104.9143725512516
 20
130.4552619224795
 10
-104.9999239375135
 20
129.150000000279
  0
LWPOLYLINE
  5
230
330
1F
100
AcDbEntity
  8
ProfileEdges
100
AcDbPolyline
 90
        2
 70
     0
 43
1.236499532863227
 10
-104.9999239375135
 20
129.150000000279
 10
-104.9999239375135
 20
-208.1499999999025
  0
LWPOLYLINE
  5
231
330
1F
100
AcDbEntity
  8
ProfileEdges
100
AcDbPolyline
 90
        2
 70
     0
 43
1.236499532863227
 10
-104.9143725512516
 20
-209.4552619221029
 10
-104.9999239375135
 20
-208.1499999999025
  0
LWPOLYLINE
  5
232
330
1F
100
AcDbEntity
  8
ProfileEdges
100
AcDbPolyline
 90
        2
 70
     0
 43
1.236499532863227
 10
-104.6591822004042
 20
-210.7381904509274
 10
-104.9143725512516
 20
-209.4552619221029
  0
LWPOLYLINE
  5
233
330
1F
100
AcDbEntity
  8
ProfileEdges
100
AcDbPolyline
 90
        2
 70
     0
 43
1.236499532863227
 10
-104.2387192626263
 20
-211.9768343235529
 10
-104.6591822004042
 20
-210.7381904509274
  0
LWPOLYLINE
  5
234
330
1F
100
AcDbEntity
  8
ProfileEdges
100
AcDbPolyline
 90
        2
 70
     0
 43
1.236499532863227
 10
-103.6601779753578
 20
-213.1499999999017
 10
-104.2387192626263
 20
-211.9768343235529
  0
LWPOLYLINE
  5
235
330
1F
100
AcDbEntity
  8
ProfileEdges
100
AcDbPolyline
 90
        2
 70
     0
 43
1.236499532863227
 10
-102.9334573404257
 20
-214.2376142899886
 10
-103.6601779753578
 20
-213.1499999999017
  0
LWPOLYLINE
  5
236
330
1F
100
AcDbEntity
  8
ProfileEdges
100
AcDbPolyline
 90
        2
 70
     0
 43
1.236499532863227
 10
-102.0709917493788
 20
-215.2210678117666
 10
-102.9334573404257
 20
-214.2376142899886
  0
LWPOLYLINE
  5
237
330
1F
100
AcDbEntity
  8
ProfileEdges
100
AcDbPolyline
 90
        2
 70
     0
 43
1.236499532863227
 10
-101.0875382276005
 20
-216.0835334028132
 10
-102.0709917493788
 20
-215.2210678117666
  0
LWPOLYLINE
  5
238
330
1F
100
AcDbEntity
  8
ProfileEdges
100
AcDbPolyline
 90
        2
 70
     0
 43
1.236499532863227
 10
-99.99992393751322
 20
-216.8102540377448
 10
-101.0875382276005
 20
-216.0835334028132
  0
LWPOLYLINE
  5
239
330
1F
100
AcDbEntity
  8
ProfileEdges
100
AcDbPolyline
 90
        2
 70
     0
 43
1.236499532863227
 10
-97.58811438853847
 20
-217.8092582627903
 10
-98.82675826116414
 20
-217.3887953250129
  0
LWPOLYLINE
  5
23A
330
1F
100
AcDbEntity
  8
ProfileEdges
100
AcDbPolyline
 90
        2
 70
     0
 43
1.236499532863227
 10
-96.30518585971389
 20
-218.0644486136373
 10
-97.58811438853847
 20
-217.8092582627903
  0
LWPOLYLINE
  5
23B
330
1F
100
AcDbEntity
  8
ProfileEdges
100
AcDbPolyline
 90
        2
 70
     0
 43
1.236499532863227
 10
188.5000141368697
 20
192.1500000004309
 10
188.4489028763031
 20
191.761771432777
  0
LWPOLYLINE
  5
23C
330
1F
100
AcDbEntity
  8
ProfileEdges
100
AcDbPolyline
 90
        2
 70
     0
 43
1.236499532863227
 10
188.5000141368697
 20
192.1500000004309
 10
188.4489028763031
 20
192.5382285680846
  0
LWPOLYLINE
  5
23D
330
1F
100
AcDbEntity
  8
ProfileEdges
100
AcDbPolyline
 90
        2
 70
     0
 43
1.236499532863227
 10
188.4489028763031
 20
192.5382285680846
 10
188.2990522425462
 20
192.9000000004309
  0
LWPOLYLINE
  5
23E
330
1F
100
AcDbEntity
  8
ProfileEdges
100
AcDbPolyline
 90
        2
 70
     0
 43
1.236499532863227
 10
188.0606743086494
 20
193.2106601722107
 10
187.7500141368696
 20
193.4490381061075
  0
LWPOLYLINE
  5
23F
330
1F
100
AcDbEntity
  8
ProfileEdges
100
AcDbPolyline
 90
        2
 70
     0
 43
1.236499532863227
 10
187.3882427045233
 20
193.5988887398644
 10
187.7500141368696
 20
193.4490381061075
  0
LWPOLYLINE
  5
240
330
1F
100
AcDbEntity
  8
ProfileEdges
100
AcDbPolyline
 90
        2
 70
     0
 43
1.236499532863227
 10
187.0000141368696
 20
193.6500000004309
 10
187.3882427045233
 20
193.5988887398644
  0
LWPOLYLINE
  5
241
330
1F
100
AcDbEntity
  8
ProfileEdges
100
AcDbPolyline
 90
        2
 70
     0
 43
1.236499532863227
 10
187.0000141368696
 20
193.6500000004309
 10
186.6117855692157
 20
193.5988887398644
  0
LWPOLYLINE
  5
242
330
1F
100
AcDbEntity
  8
ProfileEdges
100
AcDbPolyline
 90
        2
 70
     0
 43
1.236499532863227
 10
186.2500141368696
 20
193.4490381061075
 10
186.6117855692157
 20
193.5988887398644
  0
LWPOLYLINE
  5
243
330
1F
100
AcDbEntity
  8
ProfileEdges
100
AcDbPolyline
 90
        2
 70
     0
 43
1.236499532863227
 10
186.2500141368696
 20
193.4490381061075
 10
185.9393539650898
 20
193.2106601722107
  0
LWPOLYLINE
  5
244
330
1F
100
AcDbEntity
  8
ProfileEdges
100
AcDbPolyline
 90
        2
 70
     0
 43
1.236499532863227
 10
185.5511253974359
 20
191.761771432777
 10
185.5000141368696
 20
192.1500000004309
  0
LWPOLYLINE
  5
245
330
1F
100
AcDbEntity
  8
ProfileEdges
100
AcDbPolyline
 90
        2
 70
     0
 43
1.236499532863227
 10
185.7009760311929
 20
191.4000000004309
 10
185.5511253974359
 20
191.761771432777
  0
LWPOLYLINE
  5
246
330
1F
100
AcDbEntity
  8
ProfileEdges
100
AcDbPolyline
 90
        2
 70
     0
 43
1.236499532863227
 10
185.7009760311929
 20
191.4000000004309
 10
185.9393539650898
 20
191.0893398286511
  0
LWPOLYLINE
  5
247
330
1F
100
AcDbEntity
  8
ProfileEdges
100
AcDbPolyline
 90
        2
 70
     0
 43
1.236499532863227
 10
186.2500141368696
 20
190.8509618947541
 10
185.9393539650898
 20
191.0893398286511
  0
LWPOLYLINE
  5
248
330
1F
100
AcDbEntity
  8
ProfileEdges
100
AcDbPolyline
 90
        2
 70
     0
 43
1.236499532863227
 10
186.6117855692157
 20
190.7011112609972
 10
186.2500141368696
 20
190.8509618947541
  0
LWPOLYLINE
  5
249
330
1F
100
AcDbEntity
  8
ProfileEdges
100
AcDbPolyline
 90
        2
 70
     0
 43
1.236499532863227
 10
187.3882427045233
 20
190.7011112609972
 10
187.7500141368696
 20
190.8509618947541
  0
LWPOLYLINE
  5
24A
330
1F
100
AcDbEntity
  8
ProfileEdges
100
AcDbPolyline
 90
        2
 70
     0
 43
1.236499532863227
 10
188.2990522425462
 20
191.4000000004309
 10
188.4489028763031
 20
191.761771432777
  0
LWPOLYLINE
  5
24B
330
1F
100
AcDbEntity
  8
ProfileEdges
100
AcDbPolyline
 90
        2
 70
     0
 43
1.236499532863227
 10
190.0000141368659
 20
172.1500000004309
 10
190.0000141368659
 20
162.1500000004316
  0
LWPOLYLINE
  5
24C
330
1F
100
AcDbEntity
  8
ProfileEdges
100
AcDbPolyline
 90
        2
 70
     0
 43
1.236499532863227
 10
184.0000141368643
 20
172.1500000004309
 10
190.0000141368659
 20
172.1500000004309
  0
LWPOLYLINE
  5
24D
330
1F
100
AcDbEntity
  8
ProfileEdges
100
AcDbPolyline
 90
        2
 70
     0
 43
1.236499532863227
 10
184.0000141368643
 20
162.1500000004316
 10
184.0000141368643
 20
172.1500000004309
  0
LWPOLYLINE
  5
24E
330
1F
100
AcDbEntity
  8
ProfileEdges
100
AcDbPolyline
 90
        2
 70
     0
 43
1.236499532863227
 10
190.0000141368659
 20
162.1500000004316
 10
184.0000141368643
 20
162.1500000004316
  0
LWPOLYLINE
  5
24F
330
1F
100
AcDbEntity
  8
ProfileEdges
100
AcDbPolyline
 90
        2
 70
     0
 43
1.236499532863227
 10
190.000014136874
 20
94.05000000042922
 10
190.000014136874
 20
84.05000000051126
  0
LWPOLYLINE
  5
250
330
1F
100
AcDbEntity
  8
ProfileEdges
100
AcDbPolyline
 90
        2
 70
     0
 43
1.236499532863227
 10
184.0000141368734
 20
84.05000000051126
 10
184.0000141368734
 20
94.05000000042922
  0
LWPOLYLINE
  5
251
330
1F
100
AcDbEntity
  8
ProfileEdges
100
AcDbPolyline
 90
        2
 70
     0
 43
1.236499532863227
 10
190.000014136874
 20
84.05000000051126
 10
184.0000141368734
 20
84.05000000051126
  0
LWPOLYLINE
  5
252
330
1F
100
AcDbEntity
  8
ProfileEdges
100
AcDbPolyline
 90
        2
 70
     0
 43
1.236499532863227
 10
185.5000141368696
 20
-192.1499999998122
 10
185.5511253974359
 20
-191.7617714321585
  0
LWPOLYLINE
  5
253
330
1F
100
AcDbEntity
  8
ProfileEdges
100
AcDbPolyline
 90
        2
 70
     0
 43
1.236499532863227
 10
185.9393539650898
 20
-193.210660171592
 10
185.7009760311929
 20
-192.8999999998123
  0
LWPOLYLINE
  5
254
330
1F
100
AcDbEntity
  8
ProfileEdges
100
AcDbPolyline
 90
        2
 70
     0
 43
1.236499532863227
 10
186.2500141368696
 20
-193.449038105489
 10
185.9393539650898
 20
-193.210660171592
  0
LWPOLYLINE
  5
255
330
1F
100
AcDbEntity
  8
ProfileEdges
100
AcDbPolyline
 90
        2
 70
     0
 43
1.236499532863227
 10
187.0000141368696
 20
-193.6499999998123
 10
186.6117855692157
 20
-193.5988887392459
  0
LWPOLYLINE
  5
256
330
1F
100
AcDbEntity
  8
ProfileEdges
100
AcDbPolyline
 90
        2
 70
     0
 43
1.236499532863227
 10
187.3882427045233
 20
-193.5988887392459
 10
187.0000141368696
 20
-193.6499999998123
  0
LWPOLYLINE
  5
257
330
1F
100
AcDbEntity
  8
ProfileEdges
100
AcDbPolyline
 90
        2
 70
     0
 43
1.236499532863227
 10
187.7500141368696
 20
-193.449038105489
 10
187.3882427045233
 20
-193.5988887392459
  0
LWPOLYLINE
  5
258
330
1F
100
AcDbEntity
  8
ProfileEdges
100
AcDbPolyline
 90
        2
 70
     0
 43
1.236499532863227
 10
188.5000141368697
 20
-192.1499999998122
 10
188.4489028763031
 20
-192.5382285674661
  0
LWPOLYLINE
  5
259
330
1F
100
AcDbEntity
  8
ProfileEdges
100
AcDbPolyline
 90
        2
 70
     0
 43
1.236499532863227
 10
188.5000141368697
 20
-192.1499999998122
 10
188.4489028763031
 20
-191.7617714321585
  0
LWPOLYLINE
  5
25A
330
1F
100
AcDbEntity
  8
ProfileEdges
100
AcDbPolyline
 90
        2
 70
     0
 43
1.236499532863227
 10
188.4489028763031
 20
-191.7617714321585
 10
188.2990522425462
 20
-191.3999999998122
  0
LWPOLYLINE
  5
25B
330
1F
100
AcDbEntity
  8
ProfileEdges
100
AcDbPolyline
 90
        2
 70
     0
 43
1.236499532863227
 10
188.2990522425462
 20
-191.3999999998122
 10
188.0606743086494
 20
-191.0893398280324
  0
LWPOLYLINE
  5
25C
330
1F
100
AcDbEntity
  8
ProfileEdges
100
AcDbPolyline
 90
        2
 70
     0
 43
1.236499532863227
 10
188.0606743086494
 20
-191.0893398280324
 10
187.7500141368696
 20
-190.8509618941357
  0
LWPOLYLINE
  5
25D
330
1F
100
AcDbEntity
  8
ProfileEdges
100
AcDbPolyline
 90
        2
 70
     0
 43
1.236499532863227
 10
187.0000141368696
 20
-190.6499999998122
 10
186.6117855692157
 20
-190.7011112603787
  0
LWPOLYLINE
  5
25E
330
1F
100
AcDbEntity
  8
ProfileEdges
100
AcDbPolyline
 90
        2
 70
     0
 43
1.236499532863227
 10
186.2500141368696
 20
-190.8509618941357
 10
186.6117855692157
 20
-190.7011112603787
  0
LWPOLYLINE
  5
25F
330
1F
100
AcDbEntity
  8
ProfileEdges
100
AcDbPolyline
 90
        2
 70
     0
 43
1.236499532863227
 10
185.7009760311929
 20
-191.3999999998122
 10
185.9393539650898
 20
-191.0893398280324
  0
LWPOLYLINE
  5
260
330
1F
100
AcDbEntity
  8
ProfileEdges
100
AcDbPolyline
 90
        2
 70
     0
 43
1.236499532863227
 10
184.0000141368734
 20
-172.1499999998121
 10
184.0000141368734
 20
-162.1499999998941
  0
LWPOLYLINE
  5
261
330
1F
100
AcDbEntity
  8
ProfileEdges
100
AcDbPolyline
 90
        2
 70
     0
 43
1.236499532863227
 10
190.000014136874
 20
-172.1499999998121
 10
184.0000141368734
 20
-172.1499999998121
  0
LWPOLYLINE
  5
262
330
1F
100
AcDbEntity
  8
ProfileEdges
100
AcDbPolyline
 90
        2
 70
     0
 43
1.236499532863227
 10
190.000014136874
 20
-162.1499999998941
 10
190.000014136874
 20
-172.1499999998121
  0
LWPOLYLINE
  5
263
330
1F
100
AcDbEntity
  8
ProfileEdges
100
AcDbPolyline
 90
        2
 70
     0
 43
1.236499532863227
 10
185.5000141368696
 20
-64.04999999965382
 10
185.5511253974359
 20
-63.66177143200012
  0
LWPOLYLINE
  5
264
330
1F
100
AcDbEntity
  8
ProfileEdges
100
AcDbPolyline
 90
        2
 70
     0
 43
1.236499532863227
 10
185.5511253974359
 20
-64.43822856730772
 10
185.5000141368696
 20
-64.04999999965382
  0
LWPOLYLINE
  5
265
330
1F
100
AcDbEntity
  8
ProfileEdges
100
AcDbPolyline
 90
        2
 70
     0
 43
1.236499532863227
 10
185.9393539650898
 20
-65.11066017143362
 10
185.7009760311929
 20
-64.79999999965383
  0
LWPOLYLINE
  5
266
330
1F
100
AcDbEntity
  8
ProfileEdges
100
AcDbPolyline
 90
        2
 70
     0
 43
1.236499532863227
 10
186.2500141368696
 20
-65.34903810533059
 10
185.9393539650898
 20
-65.11066017143362
  0
LWPOLYLINE
  5
267
330
1F
100
AcDbEntity
  8
ProfileEdges
100
AcDbPolyline
 90
        2
 70
     0
 43
1.236499532863227
 10
186.6117855692157
 20
-65.49888873908752
 10
186.2500141368696
 20
-65.34903810533059
  0
LWPOLYLINE
  5
268
330
1F
100
AcDbEntity
  8
ProfileEdges
100
AcDbPolyline
 90
        2
 70
     0
 43
1.236499532863227
 10
187.3882427045233
 20
-65.49888873908752
 10
187.0000141368696
 20
-65.54999999965385
  0
LWPOLYLINE
  5
269
330
1F
100
AcDbEntity
  8
ProfileEdges
100
AcDbPolyline
 90
        2
 70
     0
 43
1.236499532863227
 10
187.3882427045233
 20
-65.49888873908752
 10
187.7500141368696
 20
-65.34903810533059
  0
LWPOLYLINE
  5
26A
330
1F
100
AcDbEntity
  8
ProfileEdges
100
AcDbPolyline
 90
        2
 70
     0
 43
1.236499532863227
 10
188.0606743086494
 20
-65.11066017143362
 10
188.2990522425462
 20
-64.79999999965383
  0
LWPOLYLINE
  5
26B
330
1F
100
AcDbEntity
  8
ProfileEdges
100
AcDbPolyline
 90
        2
 70
     0
 43
1.236499532863227
 10
188.2990522425462
 20
-64.79999999965383
 10
188.4489028763031
 20
-64.43822856730772
  0
LWPOLYLINE
  5
26C
330
1F
100
AcDbEntity
  8
ProfileEdges
100
AcDbPolyline
 90
        2
 70
     0
 43
1.236499532863227
 10
188.5000141368697
 20
-64.04999999965382
 10
188.4489028763031
 20
-63.66177143200012
  0
LWPOLYLINE
  5
26D
330
1F
100
AcDbEntity
  8
ProfileEdges
100
AcDbPolyline
 90
        2
 70
     0
 43
1.236499532863227
 10
188.4489028763031
 20
-63.66177143200012
 10
188.2990522425462
 20
-63.29999999965382
  0
LWPOLYLINE
  5
26E
330
1F
100
AcDbEntity
  8
ProfileEdges
100
AcDbPolyline
 90
        2
 70
     0
 43
1.236499532863227
 10
188.2990522425462
 20
-63.29999999965382
 10
188.0606743086494
 20
-62.98933982787403
  0
LWPOLYLINE
  5
26F
330
1F
100
AcDbEntity
  8
ProfileEdges
100
AcDbPolyline
 90
        2
 70
     0
 43
1.236499532863227
 10
188.0606743086494
 20
-62.98933982787403
 10
187.7500141368696
 20
-62.75096189397725
  0
LWPOLYLINE
  5
270
330
1F
100
AcDbEntity
  8
ProfileEdges
100
AcDbPolyline
 90
        2
 70
     0
 43
1.236499532863227
 10
187.3882427045233
 20
-62.60111126022031
 10
187.7500141368696
 20
-62.75096189397725
  0
LWPOLYLINE
  5
271
330
1F
100
AcDbEntity
  8
ProfileEdges
100
AcDbPolyline
 90
        2
 70
     0
 43
1.236499532863227
 10
187.0000141368696
 20
-62.54999999965381
 10
186.6117855692157
 20
-62.60111126022031
  0
LWPOLYLINE
  5
272
330
1F
100
AcDbEntity
  8
ProfileEdges
100
AcDbPolyline
 90
        2
 70
     0
 43
1.236499532863227
 10
186.2500141368696
 20
-62.75096189397725
 10
186.6117855692157
 20
-62.60111126022031
  0
LWPOLYLINE
  5
273
330
1F
100
AcDbEntity
  8
ProfileEdges
100
AcDbPolyline
 90
        2
 70
     0
 43
1.236499532863227
 10
186.2500141368696
 20
-62.75096189397725
 10
185.9393539650898
 20
-62.98933982787403
  0
LWPOLYLINE
  5
274
330
1F
100
AcDbEntity
  8
ProfileEdges
100
AcDbPolyline
 90
        2
 70
     0
 43
1.236499532863227
 10
185.7009760311929
 20
-63.29999999965382
 10
185.9393539650898
 20
-62.98933982787403
  0
LWPOLYLINE
  5
275
330
1F
100
AcDbEntity
  8
ProfileEdges
100
AcDbPolyline
 90
        2
 70
     0
 43
1.236499532863227
 10
185.5511253974359
 20
-63.66177143200012
 10
185.7009760311929
 20
-63.29999999965382
  0
LWPOLYLINE
  5
276
330
1F
100
AcDbEntity
  8
ProfileEdges
100
AcDbPolyline
 90
        2
 70
     0
 43
1.236499532863227
 10
184.0000141368734
 20
-34.0499999997357
 10
190.000014136874
 20
-34.0499999997357
  0
LWPOLYLINE
  5
277
330
1F
100
AcDbEntity
  8
ProfileEdges
100
AcDbPolyline
 90
        2
 70
     0
 43
1.236499532863227
 10
184.0000141368734
 20
-44.04999999965371
 10
184.0000141368734
 20
-34.0499999997357
  0
LWPOLYLINE
  5
278
330
1F
100
AcDbEntity
  8
ProfileEdges
100
AcDbPolyline
 90
        2
 70
     0
 43
1.236499532863227
 10
190.000014136874
 20
-34.0499999997357
 10
190.000014136874
 20
-44.04999999965371
  0
LWPOLYLINE
  5
279
330
1F
100
AcDbEntity
  8
ProfileEdges
100
AcDbPolyline
 90
        2
 70
     0
 43
1.236499532863227
 10
186.6117855692157
 20
62.60111126107743
 10
186.2500141368696
 20
62.75096189483435
  0
LWPOLYLINE
  5
27A
330
1F
100
AcDbEntity
  8
ProfileEdges
100
AcDbPolyline
 90
        2
 70
     0
 43
1.236499532863227
 10
187.0000141368696
 20
62.5500000005111
 10
186.6117855692157
 20
62.60111126107743
  0
LWPOLYLINE
  5
27B
330
1F
100
AcDbEntity
  8
ProfileEdges
100
AcDbPolyline
 90
        2
 70
     0
 43
1.236499532863227
 10
187.7500141368696
 20
62.75096189483435
 10
188.0606743086494
 20
62.98933982873132
  0
LWPOLYLINE
  5
27C
330
1F
100
AcDbEntity
  8
ProfileEdges
100
AcDbPolyline
 90
        2
 70
     0
 43
1.236499532863227
 10
188.0606743086494
 20
62.98933982873132
 10
188.2990522425462
 20
63.30000000051111
  0
LWPOLYLINE
  5
27D
330
1F
100
AcDbEntity
  8
ProfileEdges
100
AcDbPolyline
 90
        2
 70
     0
 43
1.236499532863227
 10
188.2990522425462
 20
63.30000000051111
 10
188.4489028763031
 20
63.66177143285723
  0
LWPOLYLINE
  5
27E
330
1F
100
AcDbEntity
  8
ProfileEdges
100
AcDbPolyline
 90
        2
 70
     0
 43
1.236499532863227
 10
188.5000141368697
 20
64.05000000051112
 10
188.4489028763031
 20
63.66177143285723
  0
LWPOLYLINE
  5
27F
330
1F
100
AcDbEntity
  8
ProfileEdges
100
AcDbPolyline
 90
        2
 70
     0
 43
1.236499532863227
 10
188.0606743086494
 20
65.11066017229092
 10
187.7500141368696
 20
65.3490381061877
  0
LWPOLYLINE
  5
280
330
1F
100
AcDbEntity
  8
ProfileEdges
100
AcDbPolyline
 90
        2
 70
     0
 43
1.236499532863227
 10
187.3882427045233
 20
65.49888873994463
 10
187.7500141368696
 20
65.3490381061877
  0
LWPOLYLINE
  5
281
330
1F
100
AcDbEntity
  8
ProfileEdges
100
AcDbPolyline
 90
        2
 70
     0
 43
1.236499532863227
 10
187.0000141368696
 20
65.55000000051113
 10
187.3882427045233
 20
65.49888873994463
  0
LWPOLYLINE
  5
282
330
1F
100
AcDbEntity
  8
ProfileEdges
100
AcDbPolyline
 90
        2
 70
     0
 43
1.236499532863227
 10
186.6117855692157
 20
65.49888873994463
 10
187.0000141368696
 20
65.55000000051113
  0
LWPOLYLINE
  5
283
330
1F
100
AcDbEntity
  8
ProfileEdges
100
AcDbPolyline
 90
        2
 70
     0
 43
1.236499532863227
 10
186.2500141368696
 20
65.3490381061877
 10
186.6117855692157
 20
65.49888873994463
  0
LWPOLYLINE
  5
284
330
1F
100
AcDbEntity
  8
ProfileEdges
100
AcDbPolyline
 90
        2
 70
     0
 43
1.236499532863227
 10
186.2500141368696
 20
65.3490381061877
 10
185.9393539650898
 20
65.11066017229092
  0
LWPOLYLINE
  5
285
330
1F
100
AcDbEntity
  8
ProfileEdges
100
AcDbPolyline
 90
        2
 70
     0
 43
1.236499532863227
 10
185.7009760311929
 20
64.80000000051113
 10
185.9393539650898
 20
65.11066017229092
  0
LWPOLYLINE
  5
286
330
1F
100
AcDbEntity
  8
ProfileEdges
100
AcDbPolyline
 90
        2
 70
     0
 43
1.236499532863227
 10
185.7009760311929
 20
64.80000000051113
 10
185.5511253974359
 20
64.43822856816483
  0
LWPOLYLINE
  5
287
330
1F
100
AcDbEntity
  8
ProfileEdges
100
AcDbPolyline
 90
        2
 70
     0
 43
1.236499532863227
 10
185.5511253974359
 20
63.66177143285723
 10
185.5000141368696
 20
64.05000000051112
  0
LWPOLYLINE
  5
288
330
1F
100
AcDbEntity
  8
ProfileEdges
100
AcDbPolyline
 90
        2
 70
     0
 43
1.236499532863227
 10
185.7009760311929
 20
63.30000000051111
 10
185.5511253974359
 20
63.66177143285723
  0
LWPOLYLINE
  5
289
330
1F
100
AcDbEntity
  8
ProfileEdges
100
AcDbPolyline
 90
        2
 70
     0
 43
1.236499532863227
 10
185.7009760311929
 20
63.30000000051111
 10
185.9393539650898
 20
62.98933982873132
  0
LWPOLYLINE
  5
28A
330
1F
100
AcDbEntity
  8
ProfileEdges
100
AcDbPolyline
 90
        2
 70
     0
 43
1.236499532863227
 10
186.2500141368696
 20
62.75096189483435
 10
185.9393539650898
 20
62.98933982873132
  0
LWPOLYLINE
  5
28B
330
1F
100
AcDbEntity
  8
ProfileEdges
100
AcDbPolyline
 90
        2
 70
     0
 43
1.236499532863227
 10
-94.99992393751354
 20
-218.1499999998986
 10
145.9999771347744
 20
-218.1499999998177
  0
ENDSEC
  0
SECTION
  2
OBJECTS
  0
DICTIONARY
  5
C
330
0
100
AcDbDictionary
281
     1
  3
ACAD_DETAILVIEWSTYLE
350
290
  3
ACAD_GROUP
350
D
  3
ACAD_LAYOUT
350
1A
  3
ACAD_MATERIAL
350
43
  3
ACAD_MLEADERSTYLE
350
28F
  3
ACAD_MLINESTYLE
350
17
  3
ACAD_PLOTSETTINGS
350
19
  3
ACAD_PLOTSTYLENAME
350
E
  3
ACAD_SCALELIST
350
47
  3
ACAD_SECTIONVIEWSTYLE
350
291
  3
ACAD_TABLESTYLE
350
28E
  3
ACAD_VISUALSTYLE
350
2A
  3
AcDbVariableDictionary
350
28C
  0
SUN
  5
69
330
29
100
AcDbSun
 90
        1
290
     0
 63
     7
421
 16777215
 40
1.0
291
     1
 91
  2455826
 92
 54000000
292
     0
 70
     2
 71
   256
280
     1
  0
DICTIONARY
  5
290
102
{ACAD_REACTORS
330
C
102
}
330
C
100
AcDbDictionary
281
     1
  0
DICTIONARY
  5
D
102
{ACAD_REACTORS
330
C
102
}
330
C
100
AcDbDictionary
281
     1
  0
DICTIONARY
  5
1A
102
{ACAD_REACTORS
330
C
102
}
330
C
100
AcDbDictionary
281
     1
  3
Layout1
350
1E
  3
Layout2
350
26
  3
Model
350
22
  0
DICTIONARY
  5
43
102
{ACAD_REACTORS
330
C
102
}
330
C
100
AcDbDictionary
281
     1
  3
ByBlock
350
45
  3
ByLayer
350
44
  3
Global
350
46
  0
DICTIONARY
  5
28F
102
{ACAD_REACTORS
330
C
102
}
330
C
100
AcDbDictionary
281
     1
  0
DICTIONARY
  5
17
102
{ACAD_REACTORS
330
C
102
}
330
C
100
AcDbDictionary
281
     1
  3
Standard
350
18
  0
DICTIONARY
  5
19
102
{ACAD_REACTORS
330
C
102
}
330
C
100
AcDbDictionary
281
     1
  0
ACDBDICTIONARYWDFLT
  5
E
102
{ACAD_REACTORS
330
C
102
}
330
C
100
AcDbDictionary
281
     1
  3
Normal
350
F
100
AcDbDictionaryWithDefault
340
F
  0
DICTIONARY
  5
47
102
{ACAD_REACTORS
330
C
102
}
330
C
100
AcDbDictionary
281
     1
  3
A0
350
48
  3
A1
350
49
  3
A2
350
4A
  3
A3
350
4B
  3
A4
350
4C
  3
A5
350
4D
  3
A6
350
4E
  3
A7
350
4F
  3
A8
350
50
  3
A9
350
51
  3
B0
350
52
  3
B1
350
53
  3
B2
350
54
  3
B3
350
55
  3
B4
350
56
  3
B5
350
57
  3
B6
350
58
  3
B7
350
59
  3
B8
350
5A
  3
B9
350
5B
  3
C0
350
5C
  3
C1
350
5D
  3
C2
350
5E
  3
C3
350
5F
  3
C4
350
60
  3
C5
350
61
  3
C6
350
62
  3
C7
350
63
  3
C8
350
64
  3
C9
350
65
  3
D0
350
66
  3
D1
350
67
  3
D2
350
68
  0
DICTIONARY
  5
291
102
{ACAD_REACTORS
330
C
102
}
330
C
100
AcDbDictionary
281
     1
  0
DICTIONARY
  5
28E
102
{ACAD_REACTORS
330
C
102
}
330
C
100
AcDbDictionary
281
     1
  0
DICTIONARY
  5
2A
102
{ACAD_REACTORS
330
C
102
}
330
C
100
AcDbDictionary
281
     1
  3
2dWireframe
350
2F
  3
Basic
350
32
  3
Brighten
350
36
  3
ColorChange
350
3A
  3
Conceptual
350
34
  3
Dim
350
35
  3
EdgeColorOff
350
3D
  3
Facepattern
350
39
  3
Flat
350
2B
  3
FlatWithEdges
350
2C
  3
Gouraud
350
2D
  3
GouraudWithEdges
350
2E
  3
Hidden
350
31
  3
JitterOff
350
3B
  3
Linepattern
350
38
  3
OverhangOff
350
3C
  3
Realistic
350
33
  3
Shaded
350
42
  3
Shaded with edges
350
41
  3
Shades of Gray
350
3E
  3
Sketchy
350
3F
  3
Thicken
350
37
  3
Wireframe
350
30
  3
X-Ray
350
40
  0
DICTIONARY
  5
28C
102
{ACAD_REACTORS
330
C
102
}
330
C
100
AcDbDictionary
281
     1
  3
CANNOSCALE
350
28D
  0
LAYOUT
  5
1E
102
{ACAD_REACTORS
330
1A
102
}
330
1A
100
AcDbPlotSettings
  1

  2
none_device
  4

  6

 40
0.0
 41
0.0
 42
0.0
 43
0.0
 44
0.0
 45
0.0
 46
0.0
 47
0.0
 48
0.0
 49
0.0
140
0.0
141
0.0
142
1.0
143
1.0
 70
   688
 72
     0
 73
     0
 74
     5
  7

 75
    16
 76
     0
 77
     2
 78
   300
147
1.0
148
0.0
149
0.0
100
AcDbLayout
  1
Layout1
 70
     1
 71
     1
 10
0.0
 20
0.0
 11
12.0
 21
9.0
 12
0.0
 22
0.0
 32
0.0
 14
1.000000000000000E+20
 24
1.000000000000000E+20
 34
1.000000000000000E+20
 15
-1.000000000000000E+20
 25
-1.000000000000000E+20
 35
-1.000000000000000E+20
146
0.0
 13
0.0
 23
0.0
 33
0.0
 16
1.0
 26
0.0
 36
0.0
 17
0.0
 27
1.0
 37
0.0
 76
     0
330
1B
  0
LAYOUT
  5
26
102
{ACAD_REACTORS
330
1A
102
}
330
1A
100
AcDbPlotSettings
  1

  2
none_device
  4

  6

 40
0.0
 41
0.0
 42
0.0
 43
0.0
 44
0.0
 45
0.0
 46
0.0
 47
0.0
 48
0.0
 49
0.0
140
0.0
141
0.0
142
1.0
143
1.0
 70
   688
 72
     0
 73
     0
 74
     5
  7

 75
    16
 76
     0
 77
     2
 78
   300
147
1.0
148
0.0
149
0.0
100
AcDbLayout
  1
Layout2
 70
     1
 71
     2
 10
0.0
 20
0.0
 11
0.0
 21
0.0
 12
0.0
 22
0.0
 32
0.0
 14
0.0
 24
0.0
 34
0.0
 15
0.0
 25
0.0
 35
0.0
146
0.0
 13
0.0
 23
0.0
 33
0.0
 16
1.0
 26
0.0
 36
0.0
 17
0.0
 27
1.0
 37
0.0
 76
     0
330
23
  0
LAYOUT
  5
22
102
{ACAD_REACTORS
330
1A
102
}
330
1A
100
AcDbPlotSettings
  1

  2
none_device
  4
Letter_(8.50_x_11.00_Inches)
  6

 40
6.35
 41
6.35
 42
6.35000508
 43
6.35000508
 44
215.9
 45
279.4
 46
0.0
 47
0.0
 48
0.0
 49
0.0
140
0.0
141
0.0
142
1.0
143
1.0
 70
  1712
 72
     0
 73
     0
 74
     0
  7

 75
     0
 76
     0
 77
     2
 78
   300
147
1.0
148
0.0
149
0.0
100
AcDbLayout
  1
Model
 70
     1
 71
     0
 10
0.0
 20
0.0
 11
12.0
 21
9.0
 12
0.0
 22
0.0
 32
0.0
 14
1.000000000000000E+20
 24
1.000000000000000E+20
 34
1.000000000000000E+20
 15
-1.000000000000000E+20
 25
-1.000000000000000E+20
 35
-1.000000000000000E+20
146
0.0
 13
0.0
 23
0.0
 33
0.0
 16
1.0
 26
0.0
 36
0.0
 17
0.0
 27
1.0
 37
0.0
 76
     0
330
1F
331
29
  0
MATERIAL
  5
45
102
{ACAD_REACTORS
330
43
102
}
330
43
100
AcDbMaterial
  1
ByBlock
 72
     1
 94
      127
  0
MATERIAL
  5
44
102
{ACAD_REACTORS
330
43
102
}
330
43
100
AcDbMaterial
  1
ByLayer
 72
     1
 94
      127
  0
MATERIAL
  5
46
102
{ACAD_REACTORS
330
43
102
}
330
43
100
AcDbMaterial
  1
Global
 72
     1
 94
      127
  0
MLINESTYLE
  5
18
102
{ACAD_REACTORS
330
17
102
}
330
17
100
AcDbMlineStyle
  2
Standard
 70
     0
  3

 62
   256
 51
90.0
 52
90.0
 71
     2
 49
0.5
 62
   256
  6
BYLAYER
 49
-0.5
 62
   256
  6
BYLAYER
  0
ACDBPLACEHOLDER
  5
F
102
{ACAD_REACTORS
330
E
102
}
330
E
  0
SCALE
  5
48
102
{ACAD_REACTORS
330
47
102
}
330
47
100
AcDbScale
 70
     0
300
1:1
140
1.0
141
1.0
290
     1
  0
SCALE
  5
49
102
{ACAD_REACTORS
330
47
102
}
330
47
100
AcDbScale
 70
     0
300
1:2
140
1.0
141
2.0
290
     0
  0
SCALE
  5
4A
102
{ACAD_REACTORS
330
47
102
}
330
47
100
AcDbScale
 70
     0
300
1:4
140
1.0
141
4.0
290
     0
  0
SCALE
  5
4B
102
{ACAD_REACTORS
330
47
102
}
330
47
100
AcDbScale
 70
     0
300
1:5
140
1.0
141
5.0
290
     0
  0
SCALE
  5
4C
102
{ACAD_REACTORS
330
47
102
}
330
47
100
AcDbScale
 70
     0
300
1:8
140
1.0
141
8.0
290
     0
  0
SCALE
  5
4D
102
{ACAD_REACTORS
330
47
102
}
330
47
100
AcDbScale
 70
     0
300
1:10
140
1.0
141
10.0
290
     0
  0
SCALE
  5
4E
102
{ACAD_REACTORS
330
47
102
}
330
47
100
AcDbScale
 70
     0
300
1:16
140
1.0
141
16.0
290
     0
  0
SCALE
  5
4F
102
{ACAD_REACTORS
330
47
102
}
330
47
100
AcDbScale
 70
     0
300
1:20
140
1.0
141
20.0
290
     0
  0
SCALE
  5
50
102
{ACAD_REACTORS
330
47
102
}
330
47
100
AcDbScale
 70
     0
300
1:30
140
1.0
141
30.0
290
     0
  0
SCALE
  5
51
102
{ACAD_REACTORS
330
47
102
}
330
47
100
AcDbScale
 70
     0
300
1:40
140
1.0
141
40.0
290
     0
  0
SCALE
  5
52
102
{ACAD_REACTORS
330
47
102
}
330
47
100
AcDbScale
 70
     0
300
1:50
140
1.0
141
50.0
290
     0
  0
SCALE
  5
53
102
{ACAD_REACTORS
330
47
102
}
330
47
100
AcDbScale
 70
     0
300
1:100
140
1.0
141
100.0
290
     0
  0
SCALE
  5
54
102
{ACAD_REACTORS
330
47
102
}
330
47
100
AcDbScale
 70
     0
300
2:1
140
2.0
141
1.0
290
     0
  0
SCALE
  5
55
102
{ACAD_REACTORS
330
47
102
}
330
47
100
AcDbScale
 70
     0
300
4:1
140
4.0
141
1.0
290
     0
  0
SCALE
  5
56
102
{ACAD_REACTORS
330
47
102
}
330
47
100
AcDbScale
 70
     0
300
8:1
140
8.0
141
1.0
290
     0
  0
SCALE
  5
57
102
{ACAD_REACTORS
330
47
102
}
330
47
100
AcDbScale
 70
     0
300
10:1
140
10.0
141
1.0
290
     0
  0
SCALE
  5
58
102
{ACAD_REACTORS
330
47
102
}
330
47
100
AcDbScale
 70
     0
300
100:1
140
100.0
141
1.0
290
     0
  0
SCALE
  5
59
102
{ACAD_REACTORS
330
47
102
}
330
47
100
AcDbScale
 70
     0
300
1/128" = 1'-0"
140
0.0078125
141
12.0
290
     0
  0
SCALE
  5
5A
102
{ACAD_REACTORS
330
47
102
}
330
47
100
AcDbScale
 70
     0
300
1/64" = 1'-0"
140
0.015625
141
12.0
290
     0
  0
SCALE
  5
5B
102
{ACAD_REACTORS
330
47
102
}
330
47
100
AcDbScale
 70
     0
300
1/32" = 1'-0"
140
0.03125
141
12.0
290
     0
  0
SCALE
  5
5C
102
{ACAD_REACTORS
330
47
102
}
330
47
100
AcDbScale
 70
     0
300
1/16" = 1'-0"
140
0.0625
141
12.0
290
     0
  0
SCALE
  5
5D
102
{ACAD_REACTORS
330
47
102
}
330
47
100
AcDbScale
 70
     0
300
3/32" = 1'-0"
140
0.09375
141
12.0
290
     0
  0
SCALE
  5
5E
102
{ACAD_REACTORS
330
47
102
}
330
47
100
AcDbScale
 70
     0
300
1/8" = 1'-0"
140
0.125
141
12.0
290
     0
  0
SCALE
  5
5F
102
{ACAD_REACTORS
330
47
102
}
330
47
100
AcDbScale
 70
     0
300
3/16" = 1'-0"
140
0.1875
141
12.0
290
     0
  0
SCALE
  5
60
102
{ACAD_REACTORS
330
47
102
}
330
47
100
AcDbScale
 70
     0
300
1/4" = 1'-0"
140
0.25
141
12.0
290
     0
  0
SCALE
  5
61
102
{ACAD_REACTORS
330
47
102
}
330
47
100
AcDbScale
 70
     0
300
3/8" = 1'-0"
140
0.375
141
12.0
290
     0
  0
SCALE
  5
62
102
{ACAD_REACTORS
330
47
102
}
330
47
100
AcDbScale
 70
     0
300
1/2" = 1'-0"
140
0.5
141
12.0
290
     0
  0
SCALE
  5
63
102
{ACAD_REACTORS
330
47
102
}
330
47
100
AcDbScale
 70
     0
300
3/4" = 1'-0"
140
0.75
141
12.0
290
     0
  0
SCALE
  5
64
102
{ACAD_REACTORS
330
47
102
}
330
47
100
AcDbScale
 70
     0
300
1" = 1'-0"
140
1.0
141
12.0
290
     0
  0
SCALE
  5
65
102
{ACAD_REACTORS
330
47
102
}
330
47
100
AcDbScale
 70
     0
300
1-1/2" = 1'-0"
140
1.5
141
12.0
290
     0
  0
SCALE
  5
66
102
{ACAD_REACTORS
330
47
102
}
330
47
100
AcDbScale
 70
     0
300
3" = 1'-0"
140
3.0
141
12.0
290
     0
  0
SCALE
  5
67
102
{ACAD_REACTORS
330
47
102
}
330
47
100
AcDbScale
 70
     0
300
6" = 1'-0"
140
6.0
141
12.0
290
     0
  0
SCALE
  5
68
102
{ACAD_REACTORS
330
47
102
}
330
47
100
AcDbScale
 70
     0
300
1'-0" = 1'-0"
140
12.0
141
12.0
290
     0
  0
VISUALSTYLE
  5
2F
102
{ACAD_REACTORS
330
2A
102
}
330
2A
100
AcDbVisualStyle
  2
2dWireframe
 70
     4
177
     3
291
     0
 70
    58
 90
        0
176
     1
 90
        2
176
     1
 90
        0
176
     1
 90
        0
176
     1
 40
0.6
176
     1
 40
30.0
176
     1
 62
     7
420
 16777215
176
     1
 90
        1
176
     1
 90
        4
176
     1
 62
     7
176
     1
 62
   257
176
     1
 90
        1
176
     1
 90
        1
176
     1
 40
1.0
176
     1
 90
        0
176
     1
 62
   257
176
     1
 40
1.0
176
     1
 90
        1
176
     1
 90
        6
176
     1
 90
        2
176
     1
 62
     7
176
     1
 90
        5
176
     1
 90
        0
176
     1
 90
        0
176
     1
290
     0
176
     1
 90
        1
176
     1
 40
0.0
176
     1
 90
        0
176
     1
290
     1
176
     1
290
     1
176
     1
290
     0
176
     1
290
     0
176
     1
290
     0
176
     1
290
     0
176
     1
290
     0
176
     1
290
     0
176
     1
290
     0
176
     1
 90
       50
176
     1
 40
0.0
176
     1
 40
1.0
176
     1
 90
        0
176
     1
 62
    18
420
        0
176
     1
 90
       50
176
     1
 90
        3
176
     1
 62
     5
420
      255
176
     1
290
     0
176
     1
 90
       50
176
     1
 90
       50
176
     1
 90
       50
176
     1
290
     0
176
     1
 90
       50
176
     1
 62
   256
176
     0
 40
1.0
176
     0
 90
        2
176
     1
  1
strokes_ogs.tif
176
     1
290
     0
176
     1
 40
1.0
176
     1
 40
1.0
176
     1
  0
VISUALSTYLE
  5
32
102
{ACAD_REACTORS
330
2A
102
}
330
2A
100
AcDbVisualStyle
  2
Basic
 70
     7
177
     3
291
     1
 70
    58
 90
        1
176
     1
 90
        0
176
     1
 90
        1
176
     1
 90
        0
176
     1
 40
0.6
176
     1
 40
30.0
176
     1
 62
     7
420
 16777215
176
     1
 90
        0
176
     1
 90
        4
176
     1
 62
     7
176
     1
 62
   257
176
     1
 90
        1
176
     1
 90
        1
176
     1
 40
1.0
176
     1
 90
        8
176
     1
 62
     7
176
     1
 40
1.0
176
     1
 90
        1
176
     1
 90
        6
176
     1
 90
        2
176
     1
 62
     7
176
     1
 90
        5
176
     1
 90
        0
176
     1
 90
        0
176
     1
290
     0
176
     1
 90
        1
176
     1
 40
0.0
176
     1
 90
        0
176
     1
290
     0
176
     1
290
     1
176
     1
290
     1
176
     1
290
     0
176
     1
290
     0
176
     1
290
     0
176
     1
290
     0
176
     1
290
     0
176
     1
290
     0
176
     1
 90
       50
176
     1
 40
0.0
176
     1
 40
1.0
176
     1
 90
        0
176
     1
 62
    18
420
        0
176
     1
 90
       50
176
     1
 90
        3
176
     1
 62
     5
420
      255
176
     1
290
     0
176
     1
 90
       50
176
     1
 90
       50
176
     1
 90
       50
176
     1
290
     0
176
     1
 90
       50
176
     1
 62
   256
176
     0
 40
1.0
176
     0
 90
        2
176
     1
  1
strokes_ogs.tif
176
     1
290
     0
176
     1
 40
1.0
176
     1
 40
1.0
176
     1
  0
VISUALSTYLE
  5
36
102
{ACAD_REACTORS
330
2A
102
}
330
2A
100
AcDbVisualStyle
  2
Brighten
 70
    12
177
     3
291
     1
 70
    58
 90
        2
176
     1
 90
        2
176
     1
 90
        0
176
     1
 90
        0
176
     1
 40
0.6
176
     1
 40
30.0
176
     1
 62
     7
420
 16777215
176
     1
 90
        1
176
     1
 90
        4
176
     1
 62
     7
176
     1
 62
   257
176
     1
 90
        1
176
     1
 90
        1
176
     1
 40
1.0
176
     1
 90
        8
176
     1
 62
     7
176
     1
 40
1.0
176
     1
 90
        1
176
     1
 90
        6
176
     1
 90
        2
176
     1
 62
     7
176
     1
 90
        5
176
     1
 90
        0
176
     1
 90
        0
176
     1
290
     0
176
     1
 90
        1
176
     1
 40
50.0
176
     1
 90
        0
176
     1
290
     0
176
     1
290
     1
176
     1
290
     1
176
     1
290
     0
176
     1
290
     0
176
     1
290
     0
176
     1
290
     0
176
     1
290
     0
176
     1
290
     0
176
     1
 90
       50
176
     1
 40
0.0
176
     1
 40
1.0
176
     1
 90
        0
176
     1
 62
    18
420
        0
176
     1
 90
       50
176
     1
 90
        3
176
     1
 62
     5
420
      255
176
     1
290
     0
176
     1
 90
       50
176
     1
 90
       50
176
     1
 90
       50
176
     1
290
     0
176
     1
 90
       50
176
     1
 62
   256
176
     0
 40
1.0
176
     0
 90
        2
176
     1
  1
strokes_ogs.tif
176
     1
290
     0
176
     1
 40
1.0
176
     1
 40
1.0
176
     1
  0
VISUALSTYLE
  5
3A
102
{ACAD_REACTORS
330
2A
102
}
330
2A
100
AcDbVisualStyle
  2
ColorChange
 70
    16
177
     3
291
     1
 70
    58
 90
        2
176
     1
 90
        2
176
     1
 90
        3
176
     1
 90
        0
176
     1
 40
0.6
176
     1
 40
30.0
176
     1
 62
     8
420
  8421504
176
     1
 90
        1
176
     1
 90
        4
176
     1
 62
     7
176
     1
 62
   257
176
     1
 90
        1
176
     1
 90
        1
176
     1
 40
1.0
176
     1
 90
        8
176
     1
 62
     8
420
  8421504
176
     1
 40
1.0
176
     1
 90
        1
176
     1
 90
        6
176
     1
 90
        2
176
     1
 62
     7
176
     1
 90
        5
176
     1
 90
        0
176
     1
 90
        0
176
     1
290
     0
176
     1
 90
        1
176
     1
 40
0.0
176
     1
 90
        0
176
     1
290
     0
176
     1
290
     1
176
     1
290
     1
176
     1
290
     0
176
     1
290
     0
176
     1
290
     0
176
     1
290
     0
176
     1
290
     0
176
     1
290
     0
176
     1
 90
       50
176
     1
 40
0.0
176
     1
 40
1.0
176
     1
 90
        0
176
     1
 62
    18
420
        0
176
     1
 90
       50
176
     1
 90
        3
176
     1
 62
     5
420
      255
176
     1
290
     0
176
     1
 90
       50
176
     1
 90
       50
176
     1
 90
       50
176
     1
290
     0
176
     1
 90
       50
176
     1
 62
   256
176
     0
 40
1.0
176
     0
 90
        2
176
     1
  1
strokes_ogs.tif
176
     1
290
     0
176
     1
 40
1.0
176
     1
 40
1.0
176
     1
  0
VISUALSTYLE
  5
34
102
{ACAD_REACTORS
330
2A
102
}
330
2A
100
AcDbVisualStyle
  2
Conceptual
 70
     9
177
     3
291
     0
 70
    58
 90
        3
176
     1
 90
        2
176
     1
 90
        0
176
     1
 90
        0
176
     1
 40
0.6
176
     1
 40
30.0
176
     1
 62
     7
420
 16777215
176
     1
 90
        2
176
     1
 90
        2
176
     1
 62
     7
176
     1
 62
   257
176
     1
 90
        1
176
     1
 90
        1
176
     1
 40
179.0
176
     1
 90
        8
176
     1
 62
     7
176
     1
 40
1.0
176
     1
 90
        1
176
     1
 90
        6
176
     1
 90
        2
176
     1
 62
     7
176
     1
 90
        3
176
     1
 90
        0
176
     1
 90
        0
176
     1
290
     0
176
     1
 90
        1
176
     1
 40
0.0
176
     1
 90
        0
176
     1
290
     0
176
     1
290
     1
176
     1
290
     1
176
     1
290
     0
176
     1
290
     0
176
     1
290
     0
176
     1
290
     0
176
     1
290
     0
176
     1
290
     0
176
     1
 90
       50
176
     1
 40
0.0
176
     1
 40
1.0
176
     1
 90
        0
176
     1
 62
    18
420
        0
176
     1
 90
       50
176
     1
 90
        3
176
     1
 62
     5
420
      255
176
     1
290
     0
176
     1
 90
       50
176
     1
 90
       50
176
     1
 90
       50
176
     1
290
     0
176
     1
 90
       50
176
     1
 62
   256
176
     0
 40
1.0
176
     0
 90
        2
176
     1
  1
strokes_ogs.tif
176
     1
290
     0
176
     1
 40
1.0
176
     1
 40
1.0
176
     1
  0
VISUALSTYLE
  5
35
102
{ACAD_REACTORS
330
2A
102
}
330
2A
100
AcDbVisualStyle
  2
Dim
 70
    11
177
     3
291
     1
 70
    58
 90
        2
176
     1
 90
        2
176
     1
 90
        0
176
     1
 90
        0
176
     1
 40
0.6
176
     1
 40
30.0
176
     1
 62
     7
420
 16777215
176
     1
 90
        1
176
     1
 90
        4
176
     1
 62
     7
176
     1
 62
   257
176
     1
 90
        1
176
     1
 90
        1
176
     1
 40
1.0
176
     1
 90
        8
176
     1
 62
     7
176
     1
 40
1.0
176
     1
 90
        1
176
     1
 90
        6
176
     1
 90
        2
176
     1
 62
     7
176
     1
 90
        5
176
     1
 90
        0
176
     1
 90
        0
176
     1
290
     0
176
     1
 90
        1
176
     1
 40
-50.0
176
     1
 90
        0
176
     1
290
     0
176
     1
290
     1
176
     1
290
     1
176
     1
290
     0
176
     1
290
     0
176
     1
290
     0
176
     1
290
     0
176
     1
290
     0
176
     1
290
     0
176
     1
 90
       50
176
     1
 40
0.0
176
     1
 40
1.0
176
     1
 90
        0
176
     1
 62
    18
420
        0
176
     1
 90
       50
176
     1
 90
        3
176
     1
 62
     5
420
      255
176
     1
290
     0
176
     1
 90
       50
176
     1
 90
       50
176
     1
 90
       50
176
     1
290
     0
176
     1
 90
       50
176
     1
 62
   256
176
     0
 40
1.0
176
     0
 90
        2
176
     1
  1
strokes_ogs.tif
176
     1
290
     0
176
     1
 40
1.0
176
     1
 40
1.0
176
     1
  0
VISUALSTYLE
  5
3D
102
{ACAD_REACTORS
330
2A
102
}
330
2A
100
AcDbVisualStyle
  2
EdgeColorOff
 70
    22
177
     3
291
     1
 70
    58
 90
        2
176
     0
 90
        2
176
     0
 90
        0
176
     0
 90
        0
176
     0
 40
0.6
176
     0
 40
30.0
176
     0
 62
     7
420
 16777215
176
     0
 90
        1
176
     0
 90
        4
176
     0
 62
     7
176
     0
 62
   257
176
     0
 90
        1
176
     0
 90
        1
176
     0
 40
1.0
176
     0
 90
        8
176
     2
 62
     7
176
     0
 40
1.0
176
     0
 90
        1
176
     0
 90
        6
176
     0
 90
        2
176
     0
 62
     7
176
     0
 90
        5
176
     0
 90
        0
176
     0
 90
        0
176
     0
290
     0
176
     0
 90
        1
176
     0
 40
0.0
176
     0
 90
        0
176
     0
290
     0
176
     0
290
     1
176
     0
290
     1
176
     0
290
     0
176
     0
290
     0
176
     0
290
     0
176
     0
290
     0
176
     0
290
     0
176
     0
290
     0
176
     0
 90
       50
176
     0
 40
0.0
176
     0
 40
1.0
176
     0
 90
        0
176
     0
 62
    18
420
        0
176
     0
 90
       50
176
     0
 90
        3
176
     0
 62
     5
420
      255
176
     0
290
     0
176
     0
 90
       50
176
     0
 90
       50
176
     0
 90
       50
176
     0
290
     0
176
     0
 90
       50
176
     0
 62
   256
176
     0
 40
1.0
176
     0
 90
        2
176
     0
  1
strokes_ogs.tif
176
     0
290
     0
176
     0
 40
1.0
176
     0
 40
1.0
176
     0
  0
VISUALSTYLE
  5
39
102
{ACAD_REACTORS
330
2A
102
}
330
2A
100
AcDbVisualStyle
  2
Facepattern
 70
    15
177
     3
291
     1
 70
    58
 90
        2
176
     1
 90
        2
176
     1
 90
        0
176
     1
 90
        0
176
     1
 40
0.6
176
     1
 40
30.0
176
     1
 62
     7
420
 16777215
176
     1
 90
        1
176
     1
 90
        4
176
     1
 62
     7
176
     1
 62
   257
176
     1
 90
        1
176
     1
 90
        1
176
     1
 40
1.0
176
     1
 90
        8
176
     1
 62
     7
176
     1
 40
1.0
176
     1
 90
        1
176
     1
 90
        6
176
     1
 90
        2
176
     1
 62
     7
176
     1
 90
        5
176
     1
 90
        0
176
     1
 90
        0
176
     1
290
     0
176
     1
 90
        1
176
     1
 40
0.0
176
     1
 90
        0
176
     1
290
     0
176
     1
290
     1
176
     1
290
     1
176
     1
290
     0
176
     1
290
     0
176
     1
290
     0
176
     1
290
     0
176
     1
290
     0
176
     1
290
     0
176
     1
 90
       50
176
     1
 40
0.0
176
     1
 40
1.0
176
     1
 90
        0
176
     1
 62
    18
420
        0
176
     1
 90
       50
176
     1
 90
        3
176
     1
 62
     5
420
      255
176
     1
290
     0
176
     1
 90
       50
176
     1
 90
       50
176
     1
 90
       50
176
     1
290
     0
176
     1
 90
       50
176
     1
 62
   256
176
     0
 40
1.0
176
     0
 90
        2
176
     1
  1
strokes_ogs.tif
176
     1
290
     0
176
     1
 40
1.0
176
     1
 40
1.0
176
     1
  0
VISUALSTYLE
  5
2B
102
{ACAD_REACTORS
330
2A
102
}
330
2A
100
AcDbVisualStyle
  2
Flat
 70
     0
177
     3
291
     1
 70
    58
 90
        2
176
     1
 90
        1
176
     1
 90
        1
176
     1
 90
        2
176
     1
 40
0.6
176
     1
 40
30.0
176
     1
 62
     7
420
 16777215
176
     1
 90
        0
176
     1
 90
        0
176
     1
 62
     7
176
     1
 62
   257
176
     1
 90
        1
176
     1
 90
        1
176
     1
 40
1.0
176
     1
 90
        8
176
     1
 62
     7
176
     1
 40
1.0
176
     1
 90
        1
176
     1
 90
        6
176
     1
 90
        2
176
     1
 62
     7
176
     1
 90
        5
176
     1
 90
        0
176
     1
 90
        0
176
     1
290
     0
176
     1
 90
       13
176
     1
 40
0.0
176
     1
 90
        0
176
     1
290
     0
176
     1
290
     1
176
     1
290
     1
176
     1
290
     0
176
     1
290
     0
176
     1
290
     0
176
     1
290
     0
176
     1
290
     0
176
     1
290
     0
176
     1
 90
       50
176
     1
 40
0.0
176
     1
 40
1.0
176
     1
 90
        0
176
     1
 62
    18
420
        0
176
     1
 90
       50
176
     1
 90
        3
176
     1
 62
     5
420
      255
176
     1
290
     0
176
     1
 90
       50
176
     1
 90
       50
176
     1
 90
       50
176
     1
290
     0
176
     1
 90
       50
176
     1
 62
   256
176
     0
 40
1.0
176
     0
 90
        2
176
     1
  1
strokes_ogs.tif
176
     1
290
     0
176
     1
 40
1.0
176
     1
 40
1.0
176
     1
  0
VISUALSTYLE
  5
2C
102
{ACAD_REACTORS
330
2A
102
}
330
2A
100
AcDbVisualStyle
  2
FlatWithEdges
 70
     1
177
     3
291
     1
 70
    58
 90
        2
176
     1
 90
        1
176
     1
 90
        1
176
     1
 90
        2
176
     1
 40
0.6
176
     1
 40
30.0
176
     1
 62
     7
420
 16777215
176
     1
 90
        1
176
     1
 90
        0
176
     1
 62
     7
176
     1
 62
   257
176
     1
 90
        1
176
     1
 90
        1
176
     1
 40
1.0
176
     1
 90
        0
176
     1
 62
   257
176
     1
 40
1.0
176
     1
 90
        1
176
     1
 90
        6
176
     1
 90
        2
176
     1
 62
     7
176
     1
 90
        5
176
     1
 90
        0
176
     1
 90
        0
176
     1
290
     0
176
     1
 90
       13
176
     1
 40
0.0
176
     1
 90
        0
176
     1
290
     0
176
     1
290
     1
176
     1
290
     1
176
     1
290
     0
176
     1
290
     0
176
     1
290
     0
176
     1
290
     0
176
     1
290
     0
176
     1
290
     0
176
     1
 90
       50
176
     1
 40
0.0
176
     1
 40
1.0
176
     1
 90
        0
176
     1
 62
    18
420
        0
176
     1
 90
       50
176
     1
 90
        3
176
     1
 62
     5
420
      255
176
     1
290
     0
176
     1
 90
       50
176
     1
 90
       50
176
     1
 90
       50
176
     1
290
     0
176
     1
 90
       50
176
     1
 62
   256
176
     0
 40
1.0
176
     0
 90
        2
176
     1
  1
strokes_ogs.tif
176
     1
290
     0
176
     1
 40
1.0
176
     1
 40
1.0
176
     1
  0
VISUALSTYLE
  5
2D
102
{ACAD_REACTORS
330
2A
102
}
330
2A
100
AcDbVisualStyle
  2
Gouraud
 70
     2
177
     3
291
     1
 70
    58
 90
        2
176
     1
 90
        2
176
     1
 90
        1
176
     1
 90
        2
176
     1
 40
0.6
176
     1
 40
30.0
176
     1
 62
     7
420
 16777215
176
     1
 90
        0
176
     1
 90
        0
176
     1
 62
     7
176
     1
 62
   257
176
     1
 90
        1
176
     1
 90
        1
176
     1
 40
1.0
176
     1
 90
        0
176
     1
 62
     7
176
     1
 40
1.0
176
     1
 90
        1
176
     1
 90
        6
176
     1
 90
        2
176
     1
 62
     7
176
     1
 90
        5
176
     1
 90
        0
176
     1
 90
        0
176
     1
290
     0
176
     1
 90
       13
176
     1
 40
0.0
176
     1
 90
        0
176
     1
290
     0
176
     1
290
     1
176
     1
290
     1
176
     1
290
     0
176
     1
290
     0
176
     1
290
     0
176
     1
290
     0
176
     1
290
     0
176
     1
290
     0
176
     1
 90
       50
176
     1
 40
0.0
176
     1
 40
1.0
176
     1
 90
        0
176
     1
 62
    18
420
        0
176
     1
 90
       50
176
     1
 90
        3
176
     1
 62
     5
420
      255
176
     1
290
     0
176
     1
 90
       50
176
     1
 90
       50
176
     1
 90
       50
176
     1
290
     0
176
     1
 90
       50
176
     1
 62
   256
176
     0
 40
1.0
176
     0
 90
        2
176
     1
  1
strokes_ogs.tif
176
     1
290
     0
176
     1
 40
1.0
176
     1
 40
1.0
176
     1
  0
VISUALSTYLE
  5
2E
102
{ACAD_REACTORS
330
2A
102
}
330
2A
100
AcDbVisualStyle
  2
GouraudWithEdges
 70
     3
177
     3
291
     1
 70
    58
 90
        2
176
     1
 90
        2
176
     1
 90
        1
176
     1
 90
        2
176
     1
 40
0.6
176
     1
 40
30.0
176
     1
 62
     7
420
 16777215
176
     1
 90
        1
176
     1
 90
        0
176
     1
 62
     7
176
     1
 62
   257
176
     1
 90
        1
176
     1
 90
        1
176
     1
 40
1.0
176
     1
 90
        0
176
     1
 62
   257
176
     1
 40
1.0
176
     1
 90
        1
176
     1
 90
        6
176
     1
 90
        2
176
     1
 62
     7
176
     1
 90
        5
176
     1
 90
        0
176
     1
 90
        0
176
     1
290
     0
176
     1
 90
       13
176
     1
 40
0.0
176
     1
 90
        0
176
     1
290
     0
176
     1
290
     1
176
     1
290
     1
176
     1
290
     0
176
     1
290
     0
176
     1
290
     0
176
     1
290
     0
176
     1
290
     0
176
     1
290
     0
176
     1
 90
       50
176
     1
 40
0.0
176
     1
 40
1.0
176
     1
 90
        0
176
     1
 62
    18
420
        0
176
     1
 90
       50
176
     1
 90
        3
176
     1
 62
     5
420
      255
176
     1
290
     0
176
     1
 90
       50
176
     1
 90
       50
176
     1
 90
       50
176
     1
290
     0
176
     1
 90
       50
176
     1
 62
   256
176
     0
 40
1.0
176
     0
 90
        2
176
     1
  1
strokes_ogs.tif
176
     1
290
     0
176
     1
 40
1.0
176
     1
 40
1.0
176
     1
  0
VISUALSTYLE
  5
31
102
{ACAD_REACTORS
330
2A
102
}
330
2A
100
AcDbVisualStyle
  2
Hidden
 70
     6
177
     3
291
     0
 70
    58
 90
        1
176
     1
 90
        2
176
     1
 90
        2
176
     1
 90
        0
176
     1
 40
0.6
176
     1
 40
30.0
176
     1
 62
     7
420
 16777215
176
     1
 90
        2
176
     1
 90
        2
176
     1
 62
     7
176
     1
 62
   257
176
     1
 90
        2
176
     1
 90
        1
176
     1
 40
40.0
176
     1
 90
        0
176
     1
 62
   257
176
     1
 40
1.0
176
     1
 90
        1
176
     1
 90
        6
176
     1
 90
        2
176
     1
 62
     7
176
     1
 90
        3
176
     1
 90
        0
176
     1
 90
        0
176
     1
290
     0
176
     1
 90
        1
176
     1
 40
0.0
176
     1
 90
        0
176
     1
290
     0
176
     1
290
     1
176
     1
290
     1
176
     1
290
     0
176
     1
290
     0
176
     1
290
     0
176
     1
290
     0
176
     1
290
     0
176
     1
290
     0
176
     1
 90
       50
176
     1
 40
0.0
176
     1
 40
1.0
176
     1
 90
        0
176
     1
 62
    18
420
        0
176
     1
 90
       50
176
     1
 90
        3
176
     1
 62
     5
420
      255
176
     1
290
     0
176
     1
 90
       50
176
     1
 90
       50
176
     1
 90
       50
176
     1
290
     0
176
     1
 90
       50
176
     1
 62
   256
176
     0
 40
1.0
176
     0
 90
        2
176
     1
  1
strokes_ogs.tif
176
     1
290
     0
176
     1
 40
1.0
176
     1
 40
1.0
176
     1
  0
VISUALSTYLE
  5
3B
102
{ACAD_REACTORS
330
2A
102
}
330
2A
100
AcDbVisualStyle
  2
JitterOff
 70
    20
177
     3
291
     1
 70
    58
 90
        2
176
     0
 90
        2
176
     0
 90
        0
176
     0
 90
        0
176
     0
 40
0.6
176
     0
 40
30.0
176
     0
 62
     7
420
 16777215
176
     0
 90
        1
176
     0
 90
        4
176
     0
 62
     7
176
     0
 62
   257
176
     0
 90
        1
176
     0
 90
        1
176
     0
 40
1.0
176
     0
 90
       10
176
     2
 62
     7
176
     0
 40
1.0
176
     0
 90
        1
176
     0
 90
        6
176
     0
 90
        2
176
     0
 62
     7
176
     0
 90
        5
176
     0
 90
        0
176
     0
 90
        0
176
     0
290
     0
176
     0
 90
        1
176
     0
 40
0.0
176
     0
 90
        0
176
     0
290
     0
176
     0
290
     1
176
     0
290
     1
176
     0
290
     0
176
     0
290
     0
176
     0
290
     0
176
     0
290
     0
176
     0
290
     0
176
     0
290
     0
176
     0
 90
       50
176
     0
 40
0.0
176
     0
 40
1.0
176
     0
 90
        0
176
     0
 62
    18
420
        0
176
     0
 90
       50
176
     0
 90
        3
176
     0
 62
     5
420
      255
176
     0
290
     0
176
     0
 90
       50
176
     0
 90
       50
176
     0
 90
       50
176
     0
290
     0
176
     0
 90
       50
176
     0
 62
   256
176
     0
 40
1.0
176
     0
 90
        2
176
     0
  1
strokes_ogs.tif
176
     0
290
     0
176
     0
 40
1.0
176
     0
 40
1.0
176
     0
  0
VISUALSTYLE
  5
38
102
{ACAD_REACTORS
330
2A
102
}
330
2A
100
AcDbVisualStyle
  2
Linepattern
 70
    14
177
     3
291
     1
 70
    58
 90
        2
176
     1
 90
        2
176
     1
 90
        0
176
     1
 90
        0
176
     1
 40
0.6
176
     1
 40
30.0
176
     1
 62
     7
420
 16777215
176
     1
 90
        1
176
     1
 90
        4
176
     1
 62
     7
176
     1
 62
   257
176
     1
 90
        7
176
     1
 90
        7
176
     1
 40
1.0
176
     1
 90
        8
176
     1
 62
     7
176
     1
 40
1.0
176
     1
 90
        1
176
     1
 90
        6
176
     1
 90
        2
176
     1
 62
     7
176
     1
 90
        5
176
     1
 90
        0
176
     1
 90
        0
176
     1
290
     0
176
     1
 90
        1
176
     1
 40
0.0
176
     1
 90
        0
176
     1
290
     0
176
     1
290
     1
176
     1
290
     1
176
     1
290
     0
176
     1
290
     0
176
     1
290
     0
176
     1
290
     0
176
     1
290
     0
176
     1
290
     0
176
     1
 90
       50
176
     1
 40
0.0
176
     1
 40
1.0
176
     1
 90
        0
176
     1
 62
    18
420
        0
176
     1
 90
       50
176
     1
 90
        3
176
     1
 62
     5
420
      255
176
     1
290
     0
176
     1
 90
       50
176
     1
 90
       50
176
     1
 90
       50
176
     1
290
     0
176
     1
 90
       50
176
     1
 62
   256
176
     0
 40
1.0
176
     0
 90
        2
176
     1
  1
strokes_ogs.tif
176
     1
290
     0
176
     1
 40
1.0
176
     1
 40
1.0
176
     1
  0
VISUALSTYLE
  5
3C
102
{ACAD_REACTORS
330
2A
102
}
330
2A
100
AcDbVisualStyle
  2
OverhangOff
 70
    21
177
     3
291
     1
 70
    58
 90
        2
176
     0
 90
        2
176
     0
 90
        0
176
     0
 90
        0
176
     0
 40
0.6
176
     0
 40
30.0
176
     0
 62
     7
420
 16777215
176
     0
 90
        1
176
     0
 90
        4
176
     0
 62
     7
176
     0
 62
   257
176
     0
 90
        1
176
     0
 90
        1
176
     0
 40
1.0
176
     0
 90
        9
176
     2
 62
     7
176
     0
 40
1.0
176
     0
 90
        1
176
     0
 90
        6
176
     0
 90
        2
176
     0
 62
     7
176
     0
 90
        5
176
     0
 90
        0
176
     0
 90
        0
176
     0
290
     0
176
     0
 90
        1
176
     0
 40
0.0
176
     0
 90
        0
176
     0
290
     0
176
     0
290
     1
176
     0
290
     1
176
     0
290
     0
176
     0
290
     0
176
     0
290
     0
176
     0
290
     0
176
     0
290
     0
176
     0
290
     0
176
     0
 90
       50
176
     0
 40
0.0
176
     0
 40
1.0
176
     0
 90
        0
176
     0
 62
    18
420
        0
176
     0
 90
       50
176
     0
 90
        3
176
     0
 62
     5
420
      255
176
     0
290
     0
176
     0
 90
       50
176
     0
 90
       50
176
     0
 90
       50
176
     0
290
     0
176
     0
 90
       50
176
     0
 62
   256
176
     0
 40
1.0
176
     0
 90
        2
176
     0
  1
strokes_ogs.tif
176
     0
290
     0
176
     0
 40
1.0
176
     0
 40
1.0
176
     0
  0
VISUALSTYLE
  5
33
102
{ACAD_REACTORS
330
2A
102
}
330
2A
100
AcDbVisualStyle
  2
Realistic
 70
     8
177
     3
291
     0
 70
    58
 90
        2
176
     1
 90
        3
176
     1
 90
        0
176
     1
 90
        2
176
     1
 40
0.6
176
     1
 40
30.0
176
     1
 62
     7
420
 16777215
176
     1
 90
        0
176
     1
 90
        0
176
     1
 62
     7
176
     1
 62
   257
176
     1
 90
        1
176
     1
 90
        1
176
     1
 40
1.0
176
     1
 90
        8
176
     1
 62
   257
176
     1
 40
1.0
176
     1
 90
        1
176
     1
 90
        6
176
     1
 90
        2
176
     1
 62
     7
176
     1
 90
        3
176
     1
 90
        0
176
     1
 90
        0
176
     1
290
     0
176
     1
 90
       13
176
     1
 40
0.0
176
     1
 90
        0
176
     1
290
     0
176
     1
290
     1
176
     1
290
     1
176
     1
290
     0
176
     1
290
     0
176
     1
290
     0
176
     1
290
     0
176
     1
290
     0
176
     1
290
     0
176
     1
 90
       50
176
     1
 40
0.0
176
     1
 40
1.0
176
     1
 90
        0
176
     1
 62
    18
420
        0
176
     1
 90
       50
176
     1
 90
        3
176
     1
 62
     5
420
      255
176
     1
290
     0
176
     1
 90
       50
176
     1
 90
       50
176
     1
 90
       50
176
     1
290
     0
176
     1
 90
       50
176
     1
 62
   256
176
     0
 40
1.0
176
     0
 90
        2
176
     1
  1
strokes_ogs.tif
176
     1
290
     0
176
     1
 40
1.0
176
     1
 40
1.0
176
     1
  0
VISUALSTYLE
  5
42
102
{ACAD_REACTORS
330
2A
102
}
330
2A
100
AcDbVisualStyle
  2
Shaded
 70
    27
177
     3
291
     0
 70
    58
 90
        2
176
     1
 90
        2
176
     1
 90
        1
176
     1
 90
        2
176
     1
 40
0.6
176
     1
 40
30.0
176
     1
 62
     7
420
 16777215
176
     1
 90
        0
176
     1
 90
        4
176
     1
 62
     7
176
     1
 62
   257
176
     1
 90
        1
176
     1
 90
        1
176
     1
 40
1.0
176
     1
 90
        8
176
     1
 62
   257
176
     1
 40
1.0
176
     1
 90
        1
176
     1
 90
        6
176
     1
 90
        2
176
     1
 62
     8
420
  7895160
176
     1
 90
        3
176
     1
 90
        0
176
     1
 90
        0
176
     1
290
     0
176
     1
 90
        5
176
     1
 40
0.0
176
     1
 90
        0
176
     1
290
     0
176
     1
290
     1
176
     1
290
     1
176
     1
290
     0
176
     1
290
     0
176
     1
290
     0
176
     1
290
     0
176
     1
290
     0
176
     1
290
     0
176
     1
 90
       50
176
     1
 40
0.0
176
     1
 40
1.0
176
     1
 90
        0
176
     1
 62
    18
420
        0
176
     1
 90
       50
176
     1
 90
        3
176
     1
 62
     5
420
      255
176
     1
290
     0
176
     1
 90
       50
176
     1
 90
       50
176
     1
 90
       50
176
     1
290
     0
176
     1
 90
       50
176
     1
 62
   256
176
     0
 40
1.0
176
     0
 90
        2
176
     1
  1
strokes_ogs.tif
176
     1
290
     0
176
     1
 40
1.0
176
     1
 40
1.0
176
     1
  0
VISUALSTYLE
  5
41
102
{ACAD_REACTORS
330
2A
102
}
330
2A
100
AcDbVisualStyle
  2
Shaded with edges
 70
    26
177
     3
291
     0
 70
    58
 90
        2
176
     1
 90
        2
176
     1
 90
        1
176
     1
 90
        2
176
     1
 40
0.6
176
     1
 40
30.0
176
     1
 62
     7
420
 16777215
176
     1
 90
        1
176
     1
 90
       10
176
     1
 62
     7
176
     1
 62
   257
176
     1
 90
        2
176
     1
 90
        1
176
     1
 40
1.0
176
     1
 90
        8
176
     1
 62
   257
176
     1
 40
1.0
176
     1
 90
        1
176
     1
 90
        6
176
     1
 90
        2
176
     1
 62
     7
176
     1
 90
        3
176
     1
 90
        0
176
     1
 90
        0
176
     1
290
     0
176
     1
 90
        5
176
     1
 40
0.0
176
     1
 90
        0
176
     1
290
     0
176
     1
290
     1
176
     1
290
     1
176
     1
290
     0
176
     1
290
     0
176
     1
290
     0
176
     1
290
     0
176
     1
290
     0
176
     1
290
     0
176
     1
 90
       50
176
     1
 40
0.0
176
     1
 40
1.0
176
     1
 90
        0
176
     1
 62
    18
420
        0
176
     1
 90
       50
176
     1
 90
        3
176
     1
 62
     5
420
      255
176
     1
290
     0
176
     1
 90
       50
176
     1
 90
       50
176
     1
 90
       50
176
     1
290
     0
176
     1
 90
       50
176
     1
 62
   256
176
     0
 40
1.0
176
     0
 90
        2
176
     1
  1
strokes_ogs.tif
176
     1
290
     0
176
     1
 40
1.0
176
     1
 40
1.0
176
     1
  0
VISUALSTYLE
  5
3E
102
{ACAD_REACTORS
330
2A
102
}
330
2A
100
AcDbVisualStyle
  2
Shades of Gray
 70
    23
177
     3
291
     0
 70
    58
 90
        2
176
     1
 90
        2
176
     1
 90
        3
176
     1
 90
        0
176
     1
 40
0.6
176
     1
 40
30.0
176
     1
 62
     7
420
 16777215
176
     1
 90
        2
176
     1
 90
        2
176
     1
 62
     7
176
     1
 62
     7
176
     1
 90
        1
176
     1
 90
        1
176
     1
 40
40.0
176
     1
 90
        8
176
     1
 62
     7
176
     1
 40
1.0
176
     1
 90
        1
176
     1
 90
        6
176
     1
 90
        2
176
     1
 62
     7
176
     1
 90
        3
176
     1
 90
        0
176
     1
 90
        0
176
     1
290
     0
176
     1
 90
        1
176
     1
 40
0.0
176
     1
 90
        0
176
     1
290
     0
176
     1
290
     1
176
     1
290
     1
176
     1
290
     0
176
     1
290
     0
176
     1
290
     0
176
     1
290
     0
176
     1
290
     0
176
     1
290
     0
176
     1
 90
       50
176
     1
 40
0.0
176
     1
 40
1.0
176
     1
 90
        0
176
     1
 62
    18
420
        0
176
     1
 90
       50
176
     1
 90
        3
176
     1
 62
     5
420
      255
176
     1
290
     0
176
     1
 90
       50
176
     1
 90
       50
176
     1
 90
       50
176
     1
290
     0
176
     1
 90
       50
176
     1
 62
   256
176
     0
 40
1.0
176
     0
 90
        2
176
     1
  1
strokes_ogs.tif
176
     1
290
     0
176
     1
 40
1.0
176
     1
 40
1.0
176
     1
  0
VISUALSTYLE
  5
3F
102
{ACAD_REACTORS
330
2A
102
}
330
2A
100
AcDbVisualStyle
  2
Sketchy
 70
    24
177
     3
291
     0
 70
    58
 90
        1
176
     1
 90
        2
176
     1
 90
        2
176
     1
 90
        0
176
     1
 40
0.6
176
     1
 40
30.0
176
     1
 62
     7
420
 16777215
176
     1
 90
        2
176
     1
 90
        2
176
     1
 62
     7
176
     1
 62
     7
176
     1
 90
        1
176
     1
 90
        1
176
     1
 40
40.0
176
     1
 90
       11
176
     1
 62
     7
176
     1
 40
1.0
176
     1
 90
        1
176
     1
 90
        6
176
     1
 90
        2
176
     1
 62
     7
176
     1
 90
        6
176
     1
 90
        0
176
     1
 90
        0
176
     1
290
     0
176
     1
 90
        1
176
     1
 40
0.0
176
     1
 90
        0
176
     1
290
     0
176
     1
290
     1
176
     1
290
     1
176
     1
290
     0
176
     1
290
     0
176
     1
290
     0
176
     1
290
     0
176
     1
290
     0
176
     1
290
     0
176
     1
 90
       50
176
     1
 40
0.0
176
     1
 40
1.0
176
     1
 90
        0
176
     1
 62
    18
420
        0
176
     1
 90
       50
176
     1
 90
        3
176
     1
 62
     5
420
      255
176
     1
290
     0
176
     1
 90
       50
176
     1
 90
       50
176
     1
 90
       50
176
     1
290
     0
176
     1
 90
       50
176
     1
 62
   256
176
     0
 40
1.0
176
     0
 90
        2
176
     1
  1
strokes_ogs.tif
176
     1
290
     0
176
     1
 40
1.0
176
     1
 40
1.0
176
     1
  0
VISUALSTYLE
  5
37
102
{ACAD_REACTORS
330
2A
102
}
330
2A
100
AcDbVisualStyle
  2
Thicken
 70
    13
177
     3
291
     1
 70
    58
 90
        2
176
     1
 90
        2
176
     1
 90
        0
176
     1
 90
        0
176
     1
 40
0.6
176
     1
 40
30.0
176
     1
 62
     7
420
 16777215
176
     1
 90
        1
176
     1
 90
        4
176
     1
 62
     7
176
     1
 62
   257
176
     1
 90
        1
176
     1
 90
        1
176
     1
 40
1.0
176
     1
 90
       12
176
     1
 62
     7
176
     1
 40
1.0
176
     1
 90
        1
176
     1
 90
        6
176
     1
 90
        2
176
     1
 62
     7
176
     1
 90
        5
176
     1
 90
        0
176
     1
 90
        0
176
     1
290
     0
176
     1
 90
        1
176
     1
 40
0.0
176
     1
 90
        0
176
     1
290
     0
176
     1
290
     1
176
     1
290
     1
176
     1
290
     0
176
     1
290
     0
176
     1
290
     0
176
     1
290
     0
176
     1
290
     0
176
     1
290
     0
176
     1
 90
       50
176
     1
 40
0.0
176
     1
 40
1.0
176
     1
 90
        0
176
     1
 62
    18
420
        0
176
     1
 90
       50
176
     1
 90
        3
176
     1
 62
     5
420
      255
176
     1
290
     0
176
     1
 90
       50
176
     1
 90
       50
176
     1
 90
       50
176
     1
290
     0
176
     1
 90
       50
176
     1
 62
   256
176
     0
 40
1.0
176
     0
 90
        2
176
     1
  1
strokes_ogs.tif
176
     1
290
     0
176
     1
 40
1.0
176
     1
 40
1.0
176
     1
  0
VISUALSTYLE
  5
30
102
{ACAD_REACTORS
330
2A
102
}
330
2A
100
AcDbVisualStyle
  2
Wireframe
 70
     5
177
     3
291
     0
 70
    58
 90
        0
176
     1
 90
        2
176
     1
 90
        0
176
     1
 90
        0
176
     1
 40
0.6
176
     1
 40
30.0
176
     1
 62
     7
420
 16777215
176
     1
 90
        1
176
     1
 90
        4
176
     1
 62
     7
176
     1
 62
   257
176
     1
 90
        1
176
     1
 90
        1
176
     1
 40
1.0
176
     1
 90
        0
176
     1
 62
   257
176
     1
 40
1.0
176
     1
 90
        1
176
     1
 90
        6
176
     1
 90
        2
176
     1
 62
     7
176
     1
 90
        3
176
     1
 90
        0
176
     1
 90
        0
176
     1
290
     0
176
     1
 90
        1
176
     1
 40
0.0
176
     1
 90
        0
176
     1
290
     0
176
     1
290
     1
176
     1
290
     1
176
     1
290
     0
176
     1
290
     0
176
     1
290
     0
176
     1
290
     0
176
     1
290
     0
176
     1
290
     0
176
     1
 90
       50
176
     1
 40
0.0
176
     1
 40
1.0
176
     1
 90
        0
176
     1
 62
    18
420
        0
176
     1
 90
       50
176
     1
 90
        3
176
     1
 62
     5
420
      255
176
     1
290
     0
176
     1
 90
       50
176
     1
 90
       50
176
     1
 90
       50
176
     1
290
     0
176
     1
 90
       50
176
     1
 62
   256
176
     0
 40
1.0
176
     0
 90
        2
176
     1
  1
strokes_ogs.tif
176
     1
290
     0
176
     1
 40
1.0
176
     1
 40
1.0
176
     1
  0
VISUALSTYLE
  5
40
102
{ACAD_REACTORS
330
2A
102
}
330
2A
100
AcDbVisualStyle
  2
X-Ray
 70
    25
177
     3
291
     0
 70
    58
 90
        2
176
     1
 90
        2
176
     1
 90
        1
176
     1
 90
        1
176
     1
 40
0.5
176
     1
 40
30.0
176
     1
 62
     7
420
 16777215
176
     1
 90
        1
176
     1
 90
        0
176
     1
 62
     7
176
     1
 62
   257
176
     1
 90
        1
176
     1
 90
        1
176
     1
 40
1.0
176
     1
 90
        8
176
     1
 62
     7
176
     1
 40
1.0
176
     1
 90
        1
176
     1
 90
        6
176
     1
 90
        2
176
     1
 62
     7
176
     1
 90
        3
176
     1
 90
        0
176
     1
 90
        0
176
     1
290
     0
176
     1
 90
       13
176
     1
 40
0.0
176
     1
 90
        0
176
     1
290
     0
176
     1
290
     1
176
     1
290
     1
176
     1
290
     0
176
     1
290
     0
176
     1
290
     0
176
     1
290
     0
176
     1
290
     0
176
     1
290
     0
176
     1
 90
       50
176
     1
 40
0.0
176
     1
 40
1.0
176
     1
 90
        0
176
     1
 62
    18
420
        0
176
     1
 90
       50
176
     1
 90
        3
176
     1
 62
     5
420
      255
176
     1
290
     0
176
     1
 90
       50
176
     1
 90
       50
176
     1
 90
       50
176
     1
290
     0
176
     1
 90
       50
176
     1
 62
   256
176
     0
 40
1.0
176
     0
 90
        2
176
     1
  1
strokes_ogs.tif
176
     1
290
     0
176
     1
 40
1.0
176
     1
 40
1.0
176
     1
  0
DICTIONARYVAR
  5
28D
102
{ACAD_REACTORS
330
28C
102
}
330
28C
100
DictionaryVariables
280
     0
  1
1:1
  0
ENDSEC
  0
EOF
