999
dxflib 3.12.2.0
  0
SECTION
  2
HEADER
  9
$ACADVER
  1
AC1015
  9
$HANDSEED
  5
FFFF
  9
$ANGBASE
 50
0.0
  9
$ANGDIR
 70
0
  9
$ATTMODE
 70
1
  9
$AUNITS
 70
0
  9
$AUPREC
 70
0
  9
$CECOLOR
 62
256
  9
$CELTSCALE
 40
1.0
  9
$CHAMFERA
 40
0.0
  9
$CHAMFERB
 40
0.0
  9
$CHAMFERC
 40
0.0
  9
$CHAMFERD
 40
0.0
  9
$CMLJUST
 70
0
  9
$CMLSCALE
 40
1.0
  9
$DIMADEC
 70
0
  9
$DIMALT
 70
0
  9
$DIMALTD
 70
2
  9
$DIMALTF
 40
25.3999999999999986
  9
$DIMALTTD
 70
2
  9
$DIMALTTZ
 70
0
  9
$DIMALTU
 70
2
  9
$DIMALTZ
 70
0
  9
$DIMAPOST
  1

  9
$DIMASZ
 40
0.18
  9
$DIMAUNIT
 70
0
  9
$DIMAZIN
 70
0
  9
$DIMBLK
  1

  9
$DIMBLK1
  1

  9
$DIMBLK2
  1

  9
$DIMCEN
 40
0.09
  9
$DIMCLRD
 70
0
  9
$DIMCLRE
 70
0
  9
$DIMCLRT
 70
0
  9
$DIMDEC
 70
4
  9
$DIMDLE
 40
0.0
  9
$DIMDLI
 40
0.38
  9
$DIMDSEP
 70
46
  9
$DIMEXE
 40
0.18
  9
$DIMEXO
 40
0.0625
  9
$DIMGAP
 40
0.09
  9
$DIMJUST
 70
0
  9
$DIMLFAC
 40
1.0
  9
$DIMLIM
 70
0
  9
$DIMLUNIT
 70
2
  9
$DIMPOST
  1

  9
$DIMRND
 40
0.0
  9
$DIMSAH
 70
0
  9
$DIMSCALE
 40
1.0
  9
$DIMSD1
 70
0
  9
$DIMSD2
 70
0
  9
$DIMSE1
 70
0
  9
$DIMSE2
 70
0
  9
$DIMSOXD
 70
0
  9
$DIMTAD
 70
0
  9
$DIMTDEC
 70
4
  9
$DIMTFAC
 40
1.0
  9
$DIMTIH
 70
1
  9
$DIMTIX
 70
0
  9
$DIMTM
 40
0.0
  9
$DIMTOFL
 70
0
  9
$DIMTOH
 70
1
  9
$DIMTOL
 70
0
  9
$DIMTOLJ
 70
1
  9
$DIMTP
 40
0.0
  9
$DIMTSZ
 40
0.0
  9
$DIMTVP
 40
0.0
  9
$DIMTXSTY
  7
STANDARD
  9
$DIMTXT
 40
0.18
  9
$DIMTZIN
 70
0
  9
$DIMUPT
 70
0
  9
$DIMZIN
 70
0
  9
$DISPSILH
 70
0
  9
$DWGCODEPAGE
  3
ANSI_1252
  9
$ELEVATION
 40
0.0
  9
$EXTMAX
 10
-100000000000000000000.0
 20
-100000000000000000000.0
 30
-100000000000000000000.0
  9
$EXTMIN
 10
100000000000000000000.0
 20
100000000000000000000.0
 30
100000000000000000000.0
  9
$FILLETRAD
 40
0.5
  9
$FILLMODE
 70
1
  9
$INSBASE
 10
0.0
 20
0.0
 30
0.0
  9
$INSUNITS
 70
0
  9
$LIMCHECK
 70
0
  9
$LIMMAX
 10
12.0
 20
9.0
  9
$LIMMIN
 10
0.0
 20
0.0
  9
$LTSCALE
 40
1.0
  9
$LUNITS
 70
2
  9
$LUPREC
 70
4
  9
$MAXACTVP
 70
64
  9
$MEASUREMENT
 70
1
  9
$MIRRTEXT
 70
1
  9
$ORTHOMODE
 70
0
  9
$PDMODE
 70
0
  9
$PDSIZE
 40
0
  9
$PELEVATION
 40
0.0
  9
$PEXTMAX
 10
-100000000000000000000.0
 20
-100000000000000000000.0
 30
-100000000000000000000.0
  9
$PEXTMIN
 10
100000000000000000000.0
 20
100000000000000000000.0
 30
100000000000000000000.0
  9
$PINSBASE
 10
0.0
 20
0.0
 30
0.0
  9
$PLIMCHECK
 70
0
  9
$PLIMMAX
 10
12.0
 20
9.0
  9
$PLIMMIN
 10
0.0
 20
0.0
  9
$PLINEGEN
 70
0
  9
$PLINEWID
 40
0.0
  9
$PROXYGRAPHICS
 70
1
  9
$PSLTSCALE
 70
1
  9
$PUCSNAME
  2

  9
$PUCSORG
 10
0.0
 20
0.0
 30
0.0
  9
$PUCSXDIR
 10
1.0
 20
0.0
 30
0.0
  9
$PUCSYDIR
 10
0.0
 20
1.0
 30
0.0
  9
$QTEXTMODE
 70
0
  9
$REGENMODE
 70
1
  9
$SHADEDGE
 70
3
  9
$SHADEDIF
 70
70
  9
$SKETCHINC
 40
0.1
  9
$SKPOLY
 70
0
  9
$SPLFRAME
 70
0
  9
$SPLINESEGS
 70
8
  9
$SPLINETYPE
 70
6
  9
$SURFTAB1
 70
6
  9
$SURFTAB2
 70
6
  9
$SURFTYPE
 70
6
  9
$SURFU
 70
6
  9
$SURFV
 70
6
  9
$TEXTSIZE
 40
0.2
  9
$TEXTSTYLE
  7
STANDARD
  9
$THICKNESS
 40
0.0
  9
$TILEMODE
 70
1
  9
$TRACEWID
 40
0.05
  9
$TREEDEPTH
 70
3020
  9
$UCSNAME
  2

  9
$UCSORG
 10
0.0
 20
0.0
 30
0.0
  9
$UCSXDIR
 10
1.0
 20
0.0
 30
0.0
  9
$UCSYDIR
 10
0.0
 20
1.0
 30
0.0
  9
$UNITMODE
 70
0
  9
$USERI1
 70
0
  9
$USERI2
 70
0
  9
$USERI3
 70
0
  9
$USERI4
 70
0
  9
$USERI5
 70
0
  9
$USERR1
 40
0.0
  9
$USERR2
 40
0.0
  9
$USERR3
 40
0.0
  9
$USERR4
 40
0.0
  9
$USERR5
 40
0.0
  9
$USRTIMER
 70
1
  9
$VISRETAIN
 70
1
  0
ENDSEC
  0
SECTION
  2
TABLES
  0
TABLE
  2
VPORT
  5
8
100
AcDbSymbolTable
 70
1
  0
VPORT
  5
30
100
AcDbSymbolTableRecord
100
AcDbViewportTableRecord
  2
*Active
 70
0
 10
0.0
 20
0.0
 11
1.0
 21
1.0
 12
286.3055555555554861
 22
148.5
 13
0.0
 23
0.0
 14
10.0
 24
10.0
 15
10.0
 25
10.0
 16
0.0
 26
0.0
 36
1.0
 17
0.0
 27
0.0
 37
0.0
 40
297.0
 41
1.92798353909465
 42
50.0
 43
0.0
 44
0.0
 50
0.0
 51
0.0
 71
0
 72
100
 73
1
 74
3
 75
1
 76
1
 77
0
 78
0
281
0
 65
1
110
0.0
120
0.0
130
0.0
111
1.0
121
0.0
131
0.0
112
0.0
122
1.0
132
0.0
 79
0
146
0.0
  0
ENDTAB
  0
TABLE
  2
LTYPE
  5
5
100
AcDbSymbolTable
 70
41
  0
LTYPE
  5
16
100
AcDbSymbolTableRecord
100
AcDbLinetypeTableRecord
  2
CONTINUOUS
 70
0
  3
Solid line
 72
65
 73
0
 40
0.0
  0
LTYPE
  5
31
100
AcDbSymbolTableRecord
100
AcDbLinetypeTableRecord
  2
BORDER
 70
0
  3
Border __ __ . __ __ . __ __ . __ __ . __ __ .
 72
65
 73
6
 40
44.4499999999999957
 49
12.6999999999999993
 74
0
 49
-6.3499999999999996
 74
0
 49
12.6999999999999993
 74
0
 49
-6.3499999999999996
 74
0
 49
0.0
 74
0
 49
-6.3499999999999996
 74
0
  0
LTYPE
  5
32
100
AcDbSymbolTableRecord
100
AcDbLinetypeTableRecord
  2
CENTER2
 70
0
  3
Center (.5x) ___ _ ___ _ ___ _ ___ _ ___ _ ___
 72
65
 73
4
 40
28.5750000000000028
 49
19.0500000000000007
 74
0
 49
-3.1749999999999998
 74
0
 49
3.1749999999999998
 74
0
 49
-3.1749999999999998
 74
0
  0
LTYPE
  5
33
100
AcDbSymbolTableRecord
100
AcDbLinetypeTableRecord
  2
ACAD_ISO13W100
 70
0
  3
ISO double-dash double-dot __ __ . . __ __ . . _
 72
65
 73
8
 40
36.0
 49
12.0
 74
0
 49
-3.0
 74
0
 49
12.0
 74
0
 49
-3.0
 74
0
 49
0.0
 74
0
 49
-3.0
 74
0
 49
0.0
 74
0
 49
-3.0
 74
0
  0
LTYPE
  5
34
100
AcDbSymbolTableRecord
100
AcDbLinetypeTableRecord
  2
BORDERX2
 70
0
  3
Border (2x) ____  ____  .  ____  ____  .  ___
 72
65
 73
6
 40
88.8999999999999915
 49
25.3999999999999986
 74
0
 49
-12.6999999999999993
 74
0
 49
25.3999999999999986
 74
0
 49
-12.6999999999999993
 74
0
 49
0.0
 74
0
 49
-12.6999999999999993
 74
0
  0
LTYPE
  5
35
100
AcDbSymbolTableRecord
100
AcDbLinetypeTableRecord
  2
ACAD_ISO05W100
 70
0
  3
ISO long-dash double-dot ____ .. ____ .. ____ . 
 72
65
 73
6
 40
33.0
 49
24.0
 74
0
 49
-3.0
 74
0
 49
0.0
 74
0
 49
-3.0
 74
0
 49
0.0
 74
0
 49
-3.0
 74
0
  0
LTYPE
  5
36
100
AcDbSymbolTableRecord
100
AcDbLinetypeTableRecord
  2
DASHDOT
 70
0
  3
Dash dot __ . __ . __ . __ . __ . __ . __ . __
 72
65
 73
4
 40
25.3999999999999986
 49
12.6999999999999993
 74
0
 49
-6.3499999999999996
 74
0
 49
0.0
 74
0
 49
-6.3499999999999996
 74
0
  0
LTYPE
  5
37
100
AcDbSymbolTableRecord
100
AcDbLinetypeTableRecord
  2
ACAD_ISO12W100
 70
0
  3
ISO dash double-dot __ . . __ . . __ . . __ . . 
 72
65
 73
6
 40
21.0
 49
12.0
 74
0
 49
-3.0
 74
0
 49
0.0
 74
0
 49
-3.0
 74
0
 49
0.0
 74
0
 49
-3.0
 74
0
  0
LTYPE
  5
38
100
AcDbSymbolTableRecord
100
AcDbLinetypeTableRecord
  2
HIDDEN
 70
0
  3
Hidden __ __ __ __ __ __ __ __ __ __ __ __ __ __
 72
65
 73
2
 40
9.5249999999999986
 49
6.3499999999999996
 74
0
 49
-3.1749999999999998
 74
0
  0
LTYPE
  5
39
100
AcDbSymbolTableRecord
100
AcDbLinetypeTableRecord
  2
PHANTOM2
 70
0
  3
Phantom (.5x) ___ _ _ ___ _ _ ___ _ _ ___ _ _
 72
65
 73
6
 40
31.7500000000000036
 49
15.875
 74
0
 49
-3.1749999999999998
 74
0
 49
3.1749999999999998
 74
0
 49
-3.1749999999999998
 74
0
 49
3.1749999999999998
 74
0
 49
-3.1749999999999998
 74
0
  0
LTYPE
  5
3A
100
AcDbSymbolTableRecord
100
AcDbLinetypeTableRecord
  2
ACAD_ISO04W100
 70
0
  3
ISO long-dash dot ____ . ____ . ____ . ____ . _
 72
65
 73
4
 40
30.0
 49
24.0
 74
0
 49
-3.0
 74
0
 49
0.0
 74
0
 49
-3.0
 74
0
  0
LTYPE
  5
3B
100
AcDbSymbolTableRecord
100
AcDbLinetypeTableRecord
  2
ACAD_ISO11W100
 70
0
  3
ISO double-dash dot __ __ . __ __ . __ __ . __ _
 72
65
 73
6
 40
33.0
 49
12.0
 74
0
 49
-3.0
 74
0
 49
12.0
 74
0
 49
-3.0
 74
0
 49
0.0
 74
0
 49
-3.0
 74
0
  0
LTYPE
  5
3C
100
AcDbSymbolTableRecord
100
AcDbLinetypeTableRecord
  2
PHANTOM
 70
0
  3
Phantom ______  __  __  ______  __  __  ______ 
 72
65
 73
6
 40
63.5000000000000071
 49
31.75
 74
0
 49
-6.3499999999999996
 74
0
 49
6.3499999999999996
 74
0
 49
-6.3499999999999996
 74
0
 49
6.3499999999999996
 74
0
 49
-6.3499999999999996
 74
0
  0
LTYPE
  5
3D
100
AcDbSymbolTableRecord
100
AcDbLinetypeTableRecord
  2
HIDDENX2
 70
0
  3
Hidden (2x) ____ ____ ____ ____ ____ ____ ____ 
 72
65
 73
2
 40
19.0499999999999972
 49
12.6999999999999993
 74
0
 49
-6.3499999999999996
 74
0
  0
LTYPE
  5
3E
100
AcDbSymbolTableRecord
100
AcDbLinetypeTableRecord
  2
ACAD_ISO03W100
 70
0
  3
ISO dash space __    __    __    __    __    __
 72
65
 73
2
 40
30.0
 49
12.0
 74
0
 49
-18.0
 74
0
  0
LTYPE
  5
3F
100
AcDbSymbolTableRecord
100
AcDbLinetypeTableRecord
  2
DOT
 70
0
  3
Dot . . . . . . . . . . . . . . . . . . . . . . . .
 72
65
 73
2
 40
6.3499999999999996
 49
0.0
 74
0
 49
-6.3499999999999996
 74
0
  0
LTYPE
  5
40
100
AcDbSymbolTableRecord
100
AcDbLinetypeTableRecord
  2
DASHEDX2
 70
0
  3
Dashed (2x) ____  ____  ____  ____  ____  ___
 72
65
 73
2
 40
38.0999999999999943
 49
25.3999999999999986
 74
0
 49
-12.6999999999999993
 74
0
  0
LTYPE
  5
41
100
AcDbSymbolTableRecord
100
AcDbLinetypeTableRecord
  2
ACAD_ISO10W100
 70
0
  3
ISO dash dot __ . __ . __ . __ . __ . __ . __ . 
 72
65
 73
4
 40
18.0
 49
12.0
 74
0
 49
-3.0
 74
0
 49
0.0
 74
0
 49
-3.0
 74
0
  0
LTYPE
  5
42
100
AcDbSymbolTableRecord
100
AcDbLinetypeTableRecord
  2
BORDER2
 70
0
  3
Border (.5x) __.__.__.__.__.__.__.__.__.__.__.
 72
65
 73
6
 40
22.2249999999999979
 49
6.3499999999999996
 74
0
 49
-3.1749999999999998
 74
0
 49
6.3499999999999996
 74
0
 49
-3.1749999999999998
 74
0
 49
0.0
 74
0
 49
-3.1749999999999998
 74
0
  0
LTYPE
  5
43
100
AcDbSymbolTableRecord
100
AcDbLinetypeTableRecord
  2
ACAD_ISO02W100
 70
0
  3
ISO dash __ __ __ __ __ __ __ __ __ __ __ __ __
 72
65
 73
2
 40
15.0
 49
12.0
 74
0
 49
-3.0
 74
0
  0
LTYPE
  5
44
100
AcDbSymbolTableRecord
100
AcDbLinetypeTableRecord
  2
DIVIDE2
 70
0
  3
Divide (.5x) __..__..__..__..__..__..__..__.._
 72
65
 73
6
 40
15.875
 49
6.3499999999999996
 74
0
 49
-3.1749999999999998
 74
0
 49
0.0
 74
0
 49
-3.1749999999999998
 74
0
 49
0.0
 74
0
 49
-3.1749999999999998
 74
0
  0
LTYPE
  5
45
100
AcDbSymbolTableRecord
100
AcDbLinetypeTableRecord
  2
CENTERX2
 70
0
  3
Center (2x) ________  __  ________  __  _____
 72
65
 73
4
 40
101.6000000000000085
 49
63.5
 74
0
 49
-12.6999999999999993
 74
0
 49
12.6999999999999993
 74
0
 49
-12.6999999999999993
 74
0
  0
LTYPE
  5
46
100
AcDbSymbolTableRecord
100
AcDbLinetypeTableRecord
  2
DASHDOTX2
 70
0
  3
Dash dot (2x) ____  .  ____  .  ____  .  ___
 72
65
 73
4
 40
50.7999999999999972
 49
25.3999999999999986
 74
0
 49
-12.6999999999999993
 74
0
 49
0.0
 74
0
 49
-12.6999999999999993
 74
0
  0
LTYPE
  5
47
100
AcDbSymbolTableRecord
100
AcDbLinetypeTableRecord
  2
HIDDEN2
 70
0
  3
Hidden (.5x) _ _ _ _ _ _ _ _ _ _ _ _ _ _ _ _ _ 
 72
65
 73
2
 40
4.7624999999999993
 49
3.1749999999999998
 74
0
 49
-1.5874999999999999
 74
0
  0
LTYPE
  5
48
100
AcDbSymbolTableRecord
100
AcDbLinetypeTableRecord
  2
DOT2
 70
0
  3
Dot (.5x) ........................................
 72
65
 73
2
 40
3.1749999999999998
 49
0.0
 74
0
 49
-3.1749999999999998
 74
0
  0
LTYPE
  5
49
100
AcDbSymbolTableRecord
100
AcDbLinetypeTableRecord
  2
DASHDOT2
 70
0
  3
Dash dot (.5x) _._._._._._._._._._._._._._._.
 72
65
 73
4
 40
12.6999999999999993
 49
6.3499999999999996
 74
0
 49
-3.1749999999999998
 74
0
 49
0.0
 74
0
 49
-3.1749999999999998
 74
0
  0
LTYPE
  5
14
100
AcDbSymbolTableRecord
100
AcDbLinetypeTableRecord
  2
BYBLOCK
 70
0
  3

 72
65
 73
0
 40
0.0
  0
LTYPE
  5
4A
100
AcDbSymbolTableRecord
100
AcDbLinetypeTableRecord
  2
PHANTOMX2
 70
0
  3
Phantom (2x) ____________    ____    ____   _
 72
65
 73
6
 40
127.0000000000000142
 49
63.5
 74
0
 49
-12.6999999999999993
 74
0
 49
12.6999999999999993
 74
0
 49
-12.6999999999999993
 74
0
 49
12.6999999999999993
 74
0
 49
-12.6999999999999993
 74
0
  0
LTYPE
  5
4B
100
AcDbSymbolTableRecord
100
AcDbLinetypeTableRecord
  2
ACAD_ISO09W100
 70
0
  3
ISO long-dash double-short-dash ____ __ __ ____
 72
65
 73
6
 40
45.0
 49
24.0
 74
0
 49
-3.0
 74
0
 49
6.0
 74
0
 49
-3.0
 74
0
 49
6.0
 74
0
 49
-3.0
 74
0
  0
LTYPE
  5
4C
100
AcDbSymbolTableRecord
100
AcDbLinetypeTableRecord
  2
CENTER
 70
0
  3
Center ____ _ ____ _ ____ _ ____ _ ____ _ ____
 72
65
 73
4
 40
50.8000000000000043
 49
31.75
 74
0
 49
-6.3499999999999996
 74
0
 49
6.3499999999999996
 74
0
 49
-6.3499999999999996
 74
0
  0
LTYPE
  5
4D
100
AcDbSymbolTableRecord
100
AcDbLinetypeTableRecord
  2
ACAD_ISO08W100
 70
0
  3
ISO long-dash short-dash ____ __ ____ __ ____ _
 72
65
 73
4
 40
36.0
 49
24.0
 74
0
 49
-3.0
 74
0
 49
6.0
 74
0
 49
-3.0
 74
0
  0
LTYPE
  5
4E
100
AcDbSymbolTableRecord
100
AcDbLinetypeTableRecord
  2
DIVIDE
 70
0
  3
Divide ____ . . ____ . . ____ . . ____ . . ____
 72
65
 73
6
 40
31.75
 49
12.6999999999999993
 74
0
 49
-6.3499999999999996
 74
0
 49
0.0
 74
0
 49
-6.3499999999999996
 74
0
 49
0.0
 74
0
 49
-6.3499999999999996
 74
0
  0
LTYPE
  5
4F
100
AcDbSymbolTableRecord
100
AcDbLinetypeTableRecord
  2
DASHED
 70
0
  3
Dashed __ __ __ __ __ __ __ __ __ __ __ __ __ _
 72
65
 73
2
 40
19.0499999999999972
 49
12.6999999999999993
 74
0
 49
-6.3499999999999996
 74
0
  0
LTYPE
  5
50
100
AcDbSymbolTableRecord
100
AcDbLinetypeTableRecord
  2
ACAD_ISO15W100
 70
0
  3
ISO double-dash triple-dot __ __ . . . __ __ . .
 72
65
 73
10
 40
39.0
 49
12.0
 74
0
 49
-3.0
 74
0
 49
12.0
 74
0
 49
-3.0
 74
0
 49
0.0
 74
0
 49
-3.0
 74
0
 49
0.0
 74
0
 49
-3.0
 74
0
 49
0.0
 74
0
 49
-3.0
 74
0
  0
LTYPE
  5
51
100
AcDbSymbolTableRecord
100
AcDbLinetypeTableRecord
  2
ACAD_ISO07W100
 70
0
  3
ISO dot . . . . . . . . . . . . . . . . . . . . 
 72
65
 73
2
 40
3.0
 49
0.0
 74
0
 49
-3.0
 74
0
  0
LTYPE
  5
52
100
AcDbSymbolTableRecord
100
AcDbLinetypeTableRecord
  2
DASHED2
 70
0
  3
Dashed (.5x) _ _ _ _ _ _ _ _ _ _ _ _ _ _ _ _ _ 
 72
65
 73
2
 40
9.5249999999999986
 49
6.3499999999999996
 74
0
 49
-3.1749999999999998
 74
0
  0
LTYPE
  5
53
100
AcDbSymbolTableRecord
100
AcDbLinetypeTableRecord
  2
ACAD_ISO14W100
 70
0
  3
ISO dash triple-dot __ . . . __ . . . __ . . . _
 72
65
 73
8
 40
24.0
 49
12.0
 74
0
 49
-3.0
 74
0
 49
0.0
 74
0
 49
-3.0
 74
0
 49
0.0
 74
0
 49
-3.0
 74
0
 49
0.0
 74
0
 49
-3.0
 74
0
  0
LTYPE
  5
54
100
AcDbSymbolTableRecord
100
AcDbLinetypeTableRecord
  2
ACAD_ISO06W100
 70
0
  3
ISO long-dash triple-dot ____ ... ____ ... ____
 72
65
 73
8
 40
36.0
 49
24.0
 74
0
 49
-3.0
 74
0
 49
0.0
 74
0
 49
-3.0
 74
0
 49
0.0
 74
0
 49
-3.0
 74
0
 49
0.0
 74
0
 49
-3.0
 74
0
  0
LTYPE
  5
55
100
AcDbSymbolTableRecord
100
AcDbLinetypeTableRecord
  2
DOTX2
 70
0
  3
Dot (2x) .  .  .  .  .  .  .  .  .  .  .  .  .  .
 72
65
 73
2
 40
12.6999999999999993
 49
0.0
 74
0
 49
-12.6999999999999993
 74
0
  0
LTYPE
  5
15
100
AcDbSymbolTableRecord
100
AcDbLinetypeTableRecord
  2
BYLAYER
 70
0
  3

 72
65
 73
0
 40
0.0
  0
LTYPE
  5
56
100
AcDbSymbolTableRecord
100
AcDbLinetypeTableRecord
  2
DIVIDEX2
 70
0
  3
Divide (2x) ________  .  .  ________  .  .  _
 72
65
 73
6
 40
63.5
 49
25.3999999999999986
 74
0
 49
-12.6999999999999993
 74
0
 49
0.0
 74
0
 49
-12.6999999999999993
 74
0
 49
0.0
 74
0
 49
-12.6999999999999993
 74
0
  0
ENDTAB
  0
TABLE
  2
LAYER
  5
2
100
AcDbSymbolTable
 70
1
  0
LAYER
  5
10
100
AcDbSymbolTableRecord
100
AcDbLayerTableRecord
  2
0
 70
0
 62
13
420
10834514
  6
CONTINUOUS
370
5
390
F
  0
ENDTAB
  0
TABLE
  2
STYLE
  5
3
100
AcDbSymbolTable
 70
1
  0
STYLE
  5
57
100
AcDbSymbolTableRecord
100
AcDbTextStyleTableRecord
  2
Standard
 70
0
 40
0.0
 41
1.0
 50
0.0
 71
0
 42
2.5
  3

  4

1001
ACAD
1000
txt
1071
0
  0
ENDTAB
  0
TABLE
  2
VIEW
  5
6
100
AcDbSymbolTable
 70
0
  0
ENDTAB
  0
TABLE
  2
UCS
  5
7
100
AcDbSymbolTable
 70
0
  0
ENDTAB
  0
TABLE
  2
APPID
  5
9
100
AcDbSymbolTable
 70
1
  0
APPID
  5
12
100
AcDbSymbolTableRecord
100
AcDbRegAppTableRecord
  2
ACAD
 70
0
  0
APPID
  5
58
100
AcDbSymbolTableRecord
100
AcDbRegAppTableRecord
  2
QCAD
 70
0
  0
ENDTAB
  0
TABLE
  2
DIMSTYLE
  5
A
100
AcDbSymbolTable
 70
1
100
AcDbDimStyleTable
 71
0
  0
DIMSTYLE
105
27
100
AcDbSymbolTableRecord
100
AcDbDimStyleTableRecord
  2
Standard
 41
0.18
 42
0.0625
 43
3.75
 44
0.18
 70
0
 73
0
 74
0
 77
1
 78
8
140
0.18
141
2.5
143
0.03937007874016
147
0.09
171
3
172
1
271
2
272
2
274
3
278
44
283
0
284
8
340
57
  0
ENDTAB
  0
TABLE
  2
BLOCK_RECORD
  5
1
100
AcDbSymbolTable
 70
1
  0
BLOCK_RECORD
  5
1F
100
AcDbSymbolTableRecord
100
AcDbBlockTableRecord
  2
*Model_Space
340
22
  0
BLOCK_RECORD
  5
1B
100
AcDbSymbolTableRecord
100
AcDbBlockTableRecord
  2
*Paper_Space
340
1E
  0
BLOCK_RECORD
  5
23
100
AcDbSymbolTableRecord
100
AcDbBlockTableRecord
  2
*Paper_Space0
340
26
  0
ENDTAB
  0
ENDSEC
  0
SECTION
  2
BLOCKS
  0
BLOCK
  5
20
100
AcDbEntity
  8
0
100
AcDbBlockBegin
  2
*Model_Space
 70
0
 10
0.0
 20
0.0
 30
0.0
  3
*Model_Space
  1

  0
ENDBLK
  5
21
100
AcDbEntity
  8
0
100
AcDbBlockEnd
  0
BLOCK
  5
1C
100
AcDbEntity
 67
1
  8
0
100
AcDbBlockBegin
  2
*Paper_Space
 70
0
 10
0.0
 20
0.0
 30
0.0
  3
*Paper_Space
  1

  0
ENDBLK
  5
1D
100
AcDbEntity
 67
1
  8
0
100
AcDbBlockEnd
  0
BLOCK
  5
24
100
AcDbEntity
  8
0
100
AcDbBlockBegin
  2
*Paper_Space0
 70
0
 10
0.0
 20
0.0
 30
0.0
  3
*Paper_Space0
  1

  0
ENDBLK
  5
25
100
AcDbEntity
  8
0
100
AcDbBlockEnd
  0
ENDSEC
  0
SECTION
  2
ENTITIES
  0
LWPOLYLINE
  5
59
100
AcDbEntity
  8
0
 62
256
370
-1
 48
1.0
  6
BYLAYER
100
AcDbPolyline
 90
25
 70
1
 10
308.3940804974940875
 20
182.6511112604445941
 30
0.0
 10
308.7558519298406168
 20
182.8009618942010945
 30
0.0
 10
309.0665121016207877
 20
183.0393398280982069
 30
0.0
 10
309.3048900355178148
 20
183.3499999998778094
 30
0.0
 10
309.4547406692748837
 20
183.7117714322237134
 30
0.0
 10
309.5058519298415831
 20
184.0999999998776104
 30
0.0
 10
309.4547406692756226
 20
184.4882285675315075
 30
0.0
 10
309.3048900355188948
 20
184.8499999998776957
 30
0.0
 10
309.0665121016222088
 20
185.1606601716576108
 30
0.0
 10
308.75585192984272
 20
185.3990381055546948
 30
0.0
 10
308.394080497496418
 20
185.5488887393117921
 30
0.0
 10
308.0058519298427768
 20
185.5999999998788041
 30
0.0
 10
307.6176233621887945
 20
185.5488887393123889
 30
0.0
 10
307.2558519298423789
 20
185.3990381055558032
 30
0.0
 10
306.9451917580623785
 20
185.1606601716592877
 30
0.0
 10
306.7068138241655788
 20
184.8499999998796
 30
0.0
 10
306.5569631904079984
 20
184.4882285675336107
 30
0.0
 10
306.5058519298415263
 20
184.0999999998797989
 30
0.0
 10
306.5569631904077141
 20
183.7117714322259872
 30
0.0
 10
306.7068138241643283
 20
183.349999999879401
 30
0.0
 10
306.9451917580610143
 20
183.0393398280997133
 30
0.0
 10
307.2558519298406736
 20
182.8009618942026009
 30
0.0
 10
307.6176233621866913
 20
182.651111260445191
 30
0.0
 10
308.0058519298403894
 20
182.5999999998786905
 30
0.0
 10
308.3940804974940875
 20
182.6511112604445941
 30
0.0
  0
CIRCLE
  5
5A
100
AcDbEntity
  8
0
 62
256
370
-1
 48
1.0
  6
BYLAYER
100
AcDbCircle
 10
308.0058519297418229
 20
55.9999999999602665
 30
0.0
 40
1.50000000000002
  0
CIRCLE
  5
5B
100
AcDbEntity
  8
0
 62
256
370
-1
 48
1.0
  6
BYLAYER
100
AcDbCircle
 10
308.0000002039420792
 20
440.3000000000461114
 30
0.0
 40
1.5000000000000211
  0
LINE
  5
5C
100
AcDbEntity
  8
0
 62
256
370
-1
 48
1.0
  6
BYLAYER
100
AcDbLine
 10
311.0058519297169823
 20
26.0000000000395595
 30
0.0
 11
305.0058519297181192
 21
26.0000000000446114
 31
0.0
  0
LINE
  5
5D
100
AcDbEntity
  8
0
 62
256
370
-1
 48
1.0
  6
BYLAYER
100
AcDbLine
 10
4.9999823121803812
 20
470.3000000003499963
 30
0.0
 11
4.9999823121731852
 21
460.3000000004319077
 31
0.0
  0
LINE
  5
5E
100
AcDbEntity
  8
0
 62
256
370
-1
 48
1.0
  6
BYLAYER
100
AcDbLine
 10
4.9999823118821309
 20
420.3000000002700745
 30
0.0
 11
4.9999823118748097
 21
410.3000000002710976
 31
0.0
  0
LWPOLYLINE
  5
5F
100
AcDbEntity
  8
0
 62
256
370
-1
 48
1.0
  6
BYLAYER
100
AcDbPolyline
 90
25
 70
1
 10
7.2499823124087159
 20
439.000961894593388
 30
0.0
 10
6.939322140629443
 20
439.2393398284905857
 30
0.0
 10
6.7009442067325491
 20
439.5500000002704724
 30
0.0
 10
6.5510935729761384
 20
439.9117714326166038
 30
0.0
 10
6.4999823124098786
 20
440.3000000002704724
 30
0.0
 10
6.5510935729766349
 20
440.6882285679241136
 30
0.0
 10
6.7009442067338574
 20
441.0500000002701881
 30
0.0
 10
6.9393221406308641
 20
441.3606601720503022
 30
0.0
 10
7.2499823124107916
 20
441.5990381059465903
 30
0.0
 10
7.6117537447573609
 20
441.7488887397034887
 30
0.0
 10
7.9999823124109586
 20
441.8000000002692218
 30
0.0
 10
8.3882108800648059
 20
441.7488887397029771
 30
0.0
 10
8.7499823124108786
 20
441.5990381059455103
 30
0.0
 10
9.0606424841904225
 20
441.3606601720487106
 30
0.0
 10
9.2990204180871352
 20
441.0500000002687102
 30
0.0
 10
9.4488710518440087
 20
440.6882285679221809
 30
0.0
 10
9.4999823124100544
 20
440.3000000002683123
 30
0.0
 10
9.4488710518434225
 20
439.9117714326147279
 30
0.0
 10
9.2990204180861085
 20
439.5500000002684828
 30
0.0
 10
9.060642484188989
 20
439.2393398284888235
 30
0.0
 10
8.7499823124088483
 20
439.000961894592308
 30
0.0
 10
8.388210880062708
 20
438.8511112608359213
 30
0.0
 10
7.9999823124087932
 20
438.8000000002696765
 30
0.0
 10
7.6117537447550827
 20
438.851111260836376
 30
0.0
 10
7.2499823124087159
 20
439.000961894593388
 30
0.0
  0
LINE
  5
60
100
AcDbEntity
  8
0
 62
256
370
-1
 48
1.0
  6
BYLAYER
100
AcDbLine
 10
305.0058519298258943
 20
164.0999999998819021
 30
0.0
 11
311.0058519298248143
 21
164.0999999998770136
 31
0.0
  0
LINE
  5
61
100
AcDbEntity
  8
0
 62
256
370
-1
 48
1.0
  6
BYLAYER
100
AcDbLine
 10
305.0058519298174815
 20
154.099999999962904
 30
0.0
 11
305.0058519298258943
 21
164.0999999998819021
 31
0.0
  0
LINE
  5
62
100
AcDbEntity
  8
0
 62
256
370
-1
 48
1.0
  6
BYLAYER
100
AcDbLine
 10
311.0058519298668216
 20
214.0999999998761893
 30
0.0
 11
311.0058519298585793
 21
204.0999999998759904
 31
0.0
  0
LINE
  5
63
100
AcDbEntity
  8
0
 62
256
370
-1
 48
1.0
  6
BYLAYER
100
AcDbLine
 10
311.005851929816572
 20
154.0999999999577881
 30
0.0
 11
305.0058519298174815
 21
154.099999999962904
 31
0.0
  0
LINE
  5
64
100
AcDbEntity
  8
0
 62
256
370
-1
 48
1.0
  6
BYLAYER
100
AcDbLine
 10
311.0058519298248143
 20
164.0999999998770136
 30
0.0
 11
311.005851929816572
 21
154.0999999999577881
 31
0.0
  0
LINE
  5
65
100
AcDbEntity
  8
0
 62
256
370
-1
 48
1.0
  6
BYLAYER
100
AcDbLine
 10
305.0058519298668784
 20
214.0999999998811063
 30
0.0
 11
311.0058519298668216
 21
214.0999999998761893
 31
0.0
  0
LINE
  5
66
100
AcDbEntity
  8
0
 62
256
370
-1
 48
1.0
  6
BYLAYER
100
AcDbLine
 10
305.0058519298585225
 20
204.0999999998809926
 30
0.0
 11
305.0058519298668784
 21
214.0999999998811063
 31
0.0
  0
LINE
  5
67
100
AcDbEntity
  8
0
 62
256
370
-1
 48
1.0
  6
BYLAYER
100
AcDbLine
 10
311.0058519298585793
 20
204.0999999998759904
 30
0.0
 11
305.0058519298585225
 21
204.0999999998809926
 31
0.0
  0
LWPOLYLINE
  5
68
100
AcDbEntity
  8
0
 62
256
370
-1
 48
1.0
  6
BYLAYER
100
AcDbPolyline
 90
25
 70
1
 10
196.2556410383861873
 20
489.5990381055543139
 30
0.0
 10
195.9449808666063007
 20
489.3606601716576279
 30
0.0
 10
195.7066029327089893
 20
489.0499999998780254
 30
0.0
 10
195.5567522989520057
 20
488.6882285675316098
 30
0.0
 10
195.5056410383855052
 20
488.2999999998781959
 30
0.0
 10
195.5567522989512952
 20
487.9117714322243273
 30
0.0
 10
195.7066029327081935
 20
487.5499999998774001
 30
0.0
 10
195.944980866604709
 20
487.2393398280976839
 30
0.0
 10
196.2556410383847094
 20
487.0009618942012821
 30
0.0
 10
196.6174124707306987
 20
486.8511112604431901
 30
0.0
 10
197.0056410383847947
 20
486.7999999998771159
 30
0.0
 10
197.3938696060382085
 20
486.8511112604427922
 30
0.0
 10
197.7556410383845105
 20
487.0009618941999179
 30
0.0
 10
198.0663012101645108
 20
487.2393398280967176
 30
0.0
 10
198.3046791440617085
 20
487.5499999998760927
 30
0.0
 10
198.4545297778186921
 20
487.911771432222622
 30
0.0
 10
198.5056410383853063
 20
488.299999999875979
 30
0.0
 10
198.4545297778192889
 20
488.6882285675304161
 30
0.0
 10
198.3046791440623053
 20
489.049999999875979
 30
0.0
 10
198.0663012101657046
 20
489.3606601716560931
 30
0.0
 10
197.7556410383859884
 20
489.599038105553177
 30
0.0
 10
197.3938696060401128
 20
489.7488887393103028
 30
0.0
 10
197.0056410383866137
 20
489.7999999998768885
 30
0.0
 10
196.6174124707324893
 20
489.7488887393108143
 30
0.0
 10
196.2556410383861873
 20
489.5990381055543139
 30
0.0
  0
LWPOLYLINE
  5
69
100
AcDbEntity
  8
0
 62
256
370
-1
 48
1.0
  6
BYLAYER
100
AcDbPolyline
 90
25
 70
1
 10
338.5511114647165982
 20
488.6882285674445825
 30
0.0
 10
338.5000002041501261
 20
488.2999999997908844
 30
0.0
 10
338.5511114647164277
 20
487.9117714321371864
 30
0.0
 10
338.7009620984729281
 20
487.5499999997908276
 30
0.0
 10
338.9393400323696142
 20
487.2393398280112251
 30
0.0
 10
339.2500002041488756
 20
487.0009618941135727
 30
0.0
 10
339.6117716364952912
 20
486.8511112603566744
 30
0.0
 10
340.0000002041489893
 20
486.7999999997900886
 30
0.0
 10
340.3882287718031989
 20
486.8511112603566744
 30
0.0
 10
340.7500002041492735
 20
487.000961894113118
 30
0.0
 10
341.0606603759293876
 20
487.2393398280099177
 30
0.0
 10
341.2990383098265283
 20
487.5499999997894065
 30
0.0
 10
341.448888943583313
 20
487.9117714321357084
 30
0.0
 10
341.5000002041500125
 20
488.2999999997891223
 30
0.0
 10
341.4488889435841088
 20
488.6882285674431046
 30
0.0
 10
341.2990383098273242
 20
489.0499999997894065
 30
0.0
 10
341.0606603759309223
 20
489.3606601715691227
 30
0.0
 10
340.7500002041505809
 20
489.5990381054663203
 30
0.0
 10
340.3882287718047905
 20
489.7488887392236734
 30
0.0
 10
340.0000002041506946
 20
489.7999999997899749
 30
0.0
 10
339.6117716364971102
 20
489.748888739224526
 30
0.0
 10
339.2500002041508083
 20
489.5990381054671161
 30
0.0
 10
338.9393400323709216
 20
489.3606601715704869
 30
0.0
 10
338.7009620984737239
 20
489.0499999997908276
 30
0.0
 10
338.5511114647165982
 20
488.6882285674445825
 30
0.0
  0
LWPOLYLINE
  5
6A
100
AcDbEntity
  8
0
 62
256
370
-1
 48
1.0
  6
BYLAYER
100
AcDbPolyline
 90
25
 70
1
 10
309.4547406693578182
 20
311.8117714324712892
 30
0.0
 10
309.5058519299241766
 20
312.2000000001248168
 30
0.0
 10
309.454740669358273
 20
312.5882285677789127
 30
0.0
 10
309.3048900356014883
 20
312.950000000125101
 30
0.0
 10
309.0665121017049159
 20
313.2606601719052719
 30
0.0
 10
308.755851929925484
 20
313.4990381058025264
 30
0.0
 10
308.3940804975791821
 20
313.6488887395594816
 30
0.0
 10
308.005851929925484
 20
313.7000000001260105
 30
0.0
 10
307.6176233622716722
 20
313.6488887395601068
 30
0.0
 10
307.2558519299254272
 20
313.4990381058034927
 30
0.0
 10
306.9451917581454836
 20
313.2606601719069772
 30
0.0
 10
306.7068138242485134
 20
312.9500000001273747
 30
0.0
 10
306.5569631904909897
 20
312.588228567781016
 30
0.0
 10
306.5058519299242903
 20
312.2000000001273747
 30
0.0
 10
306.5569631904908192
 20
311.8117714324736198
 30
0.0
 10
306.7068138242473196
 20
311.4500000001269768
 30
0.0
 10
306.9451917581437215
 20
311.1393398283472038
 30
0.0
 10
307.2558519299236082
 20
310.9009618944501767
 30
0.0
 10
307.6176233622696259
 20
310.7511112606931079
 30
0.0
 10
308.0058519299234945
 20
310.700000000126181
 30
0.0
 10
308.3940804975771925
 20
310.751111260692312
 30
0.0
 10
308.7558519299233808
 20
310.9009618944488125
 30
0.0
 10
309.0665121017033243
 20
311.1393398283457259
 30
0.0
 10
309.304890035600522
 20
311.4500000001249873
 30
0.0
 10
309.4547406693578182
 20
311.8117714324712892
 30
0.0
  0
LINE
  5
6B
100
AcDbEntity
  8
0
 62
256
370
-1
 48
1.0
  6
BYLAYER
100
AcDbLine
 10
311.0058519299079194
 20
292.2000000001244189
 30
0.0
 11
311.0058519298997908
 21
282.2000000002058187
 31
0.0
  0
LINE
  5
6C
100
AcDbEntity
  8
0
 62
256
370
-1
 48
1.0
  6
BYLAYER
100
AcDbLine
 10
310.0000002041480229
 20
485.2999999998102112
 30
0.0
 11
310.0000002041522862
 21
491.2999999998100975
 31
0.0
  0
LINE
  5
6D
100
AcDbEntity
  8
0
 62
256
370
-1
 48
1.0
  6
BYLAYER
100
AcDbLine
 10
305.0000002039677156
 20
470.3000000000486125
 30
0.0
 11
311.0000002039674882
 21
470.3000000000436103
 31
0.0
  0
LINE
  5
6E
100
AcDbEntity
  8
0
 62
256
370
-1
 48
1.0
  6
BYLAYER
100
AcDbLine
 10
311.0058519297591033
 20
75.999999999957609
 30
0.0
 11
305.0058519297588191
 21
75.9999999999624976
 31
0.0
  0
LINE
  5
6F
100
AcDbEntity
  8
0
 62
256
370
-1
 48
1.0
  6
BYLAYER
100
AcDbLine
 10
305.0058519299087152
 20
292.2000000001294779
 30
0.0
 11
311.0058519299079194
 21
292.2000000001244189
 31
0.0
  0
LINE
  5
70
100
AcDbEntity
  8
0
 62
256
370
-1
 48
1.0
  6
BYLAYER
100
AcDbLine
 10
305.0058519297181192
 20
26.0000000000446114
 30
0.0
 11
305.005851929726191
 21
35.9999999999636273
 31
0.0
  0
LINE
  5
71
100
AcDbEntity
  8
0
 62
256
370
-1
 48
1.0
  6
BYLAYER
100
AcDbLine
 10
305.0000002039594165
 20
460.3000000000479872
 30
0.0
 11
305.0000002039677156
 21
470.3000000000486125
 31
0.0
  0
LINE
  5
72
100
AcDbEntity
  8
0
 62
256
370
-1
 48
1.0
  6
BYLAYER
100
AcDbLine
 10
311.0000002039222977
 20
420.300000000042985
 30
0.0
 11
311.0000002039142828
 21
410.3000000001247258
 31
0.0
  0
LINE
  5
73
100
AcDbEntity
  8
0
 62
256
370
-1
 48
1.0
  6
BYLAYER
100
AcDbLine
 10
311.0058519297253952
 20
35.9999999999587672
 30
0.0
 11
311.0058519297169823
 21
26.0000000000395595
 31
0.0
  0
LINE
  5
74
100
AcDbEntity
  8
0
 62
256
370
-1
 48
1.0
  6
BYLAYER
100
AcDbLine
 10
305.0058519297671751
 20
85.9999999999629239
 30
0.0
 11
311.0058519297672888
 21
85.9999999999580496
 31
0.0
  0
LINE
  5
75
100
AcDbEntity
  8
0
 62
256
370
-1
 48
1.0
  6
BYLAYER
100
AcDbLine
 10
311.0000002039594165
 20
460.3000000000429281
 30
0.0
 11
305.0000002039594165
 21
460.3000000000479872
 31
0.0
  0
CIRCLE
  5
76
100
AcDbEntity
  8
0
 62
256
370
-1
 48
1.0
  6
BYLAYER
100
AcDbCircle
 10
54.0060722962382584
 20
488.3000000000756131
 30
0.0
 40
1.50000000000002
  0
LINE
  5
77
100
AcDbEntity
  8
0
 62
256
370
-1
 48
1.0
  6
BYLAYER
100
AcDbLine
 10
34.0060722962365034
 20
485.3000000000885166
 30
0.0
 11
24.0060722962364288
 21
485.3000000000955083
 31
0.0
  0
LINE
  5
78
100
AcDbEntity
  8
0
 62
256
370
-1
 48
1.0
  6
BYLAYER
100
AcDbLine
 10
305.005851929726191
 20
35.9999999999636273
 30
0.0
 11
311.0058519297253952
 21
35.9999999999587672
 31
0.0
  0
LINE
  5
79
100
AcDbEntity
  8
0
 62
256
370
-1
 48
1.0
  6
BYLAYER
100
AcDbLine
 10
305.0058519299519162
 20
342.2000000001286253
 30
0.0
 11
311.0058519299519162
 21
342.200000000124021
 31
0.0
  0
LINE
  5
7A
100
AcDbEntity
  8
0
 62
256
370
-1
 48
1.0
  6
BYLAYER
100
AcDbLine
 10
311.0058519299436739
 20
332.2000000001235094
 30
0.0
 11
305.0058519299439013
 21
332.200000000128
 31
0.0
  0
LINE
  5
7B
100
AcDbEntity
  8
0
 62
256
370
-1
 48
1.0
  6
BYLAYER
100
AcDbLine
 10
305.0058519299439013
 20
332.200000000128
 30
0.0
 11
305.0058519299519162
 21
342.2000000001286253
 31
0.0
  0
LINE
  5
7C
100
AcDbEntity
  8
0
 62
256
370
-1
 48
1.0
  6
BYLAYER
100
AcDbLine
 10
311.0058519299519162
 20
342.200000000124021
 30
0.0
 11
311.0058519299436739
 21
332.2000000001235094
 31
0.0
  0
LINE
  5
7D
100
AcDbEntity
  8
0
 62
256
370
-1
 48
1.0
  6
BYLAYER
100
AcDbLine
 10
311.0058519298997908
 20
282.2000000002058187
 30
0.0
 11
305.0058519299005866
 21
282.2000000002107072
 31
0.0
  0
LINE
  5
7E
100
AcDbEntity
  8
0
 62
256
370
-1
 48
1.0
  6
BYLAYER
100
AcDbLine
 10
305.0058519299005866
 20
282.2000000002107072
 30
0.0
 11
305.0058519299087152
 21
292.2000000001294779
 31
0.0
  0
LINE
  5
7F
100
AcDbEntity
  8
0
 62
256
370
-1
 48
1.0
  6
BYLAYER
100
AcDbLine
 10
370.000000204070318
 20
491.2999999997708187
 30
0.0
 11
370.0000002040662821
 21
485.2999999997716145
 31
0.0
  0
LINE
  5
80
100
AcDbEntity
  8
0
 62
256
370
-1
 48
1.0
  6
BYLAYER
100
AcDbLine
 10
320.0000002041522862
 20
491.2999999998039016
 30
0.0
 11
320.0000002041481935
 21
485.2999999998036742
 31
0.0
  0
LINE
  5
81
100
AcDbEntity
  8
0
 62
256
370
-1
 48
1.0
  6
BYLAYER
100
AcDbLine
 10
320.0000002041481935
 20
485.2999999998036742
 30
0.0
 11
310.0000002041480229
 21
485.2999999998102112
 31
0.0
  0
LINE
  5
82
100
AcDbEntity
  8
0
 62
256
370
-1
 48
1.0
  6
BYLAYER
100
AcDbLine
 10
320.0000002041522862
 20
491.2999999998039016
 30
0.0
 11
310.0000002041522862
 21
491.2999999998100975
 31
0.0
  0
LINE
  5
83
100
AcDbEntity
  8
0
 62
256
370
-1
 48
1.0
  6
BYLAYER
100
AcDbLine
 10
360.0000002041473977
 20
485.2999999997783789
 30
0.0
 11
360.0000002041509788
 21
491.2999999997769009
 31
0.0
  0
LINE
  5
84
100
AcDbEntity
  8
0
 62
256
370
-1
 48
1.0
  6
BYLAYER
100
AcDbLine
 10
370.0000002040662821
 20
485.2999999997716145
 30
0.0
 11
360.0000002041473977
 21
485.2999999997783789
 31
0.0
  0
LINE
  5
85
100
AcDbEntity
  8
0
 62
256
370
-1
 48
1.0
  6
BYLAYER
100
AcDbLine
 10
370.000000204070318
 20
491.2999999997708187
 30
0.0
 11
360.0000002041509788
 21
491.2999999997769009
 31
0.0
  0
LINE
  5
86
100
AcDbEntity
  8
0
 62
256
370
-1
 48
1.0
  6
BYLAYER
100
AcDbLine
 10
167.005641038383402
 20
485.2999999998971248
 30
0.0
 11
167.0056410383874095
 21
491.2999999998970111
 31
0.0
  0
LINE
  5
87
100
AcDbEntity
  8
0
 62
256
370
-1
 48
1.0
  6
BYLAYER
100
AcDbLine
 10
84.006072296154656
 20
485.3000000000565137
 30
0.0
 11
74.0060722962355442
 21
485.3000000000628802
 31
0.0
  0
LINE
  5
88
100
AcDbEntity
  8
0
 62
256
370
-1
 48
1.0
  6
BYLAYER
100
AcDbLine
 10
177.005641038383402
 20
485.2999999998904741
 30
0.0
 11
167.005641038383402
 21
485.2999999998971248
 31
0.0
  0
LINE
  5
89
100
AcDbEntity
  8
0
 62
256
370
-1
 48
1.0
  6
BYLAYER
100
AcDbLine
 10
227.0056410383016043
 20
485.2999999998585849
 30
0.0
 11
217.0056410383824925
 21
485.2999999998651219
 31
0.0
  0
LINE
  5
8A
100
AcDbEntity
  8
0
 62
256
370
-1
 48
1.0
  6
BYLAYER
100
AcDbLine
 10
34.006072296240518
 20
491.3000000000885166
 30
0.0
 11
34.0060722962365034
 21
485.3000000000885166
 31
0.0
  0
LINE
  5
8B
100
AcDbEntity
  8
0
 62
256
370
-1
 48
1.0
  6
BYLAYER
100
AcDbLine
 10
74.0060722962355442
 20
485.3000000000628802
 30
0.0
 11
74.006072296239708
 21
491.3000000000620844
 31
0.0
  0
LINE
  5
8C
100
AcDbEntity
  8
0
 62
256
370
-1
 48
1.0
  6
BYLAYER
100
AcDbLine
 10
84.0060722961585498
 20
491.3000000000553769
 30
0.0
 11
84.006072296154656
 21
485.3000000000565137
 31
0.0
  0
LINE
  5
8D
100
AcDbEntity
  8
0
 62
256
370
-1
 48
1.0
  6
BYLAYER
100
AcDbLine
 10
227.0056410383058108
 20
491.2999999998576186
 30
0.0
 11
227.0056410383016043
 21
485.2999999998585849
 31
0.0
  0
LINE
  5
8E
100
AcDbEntity
  8
0
 62
256
370
-1
 48
1.0
  6
BYLAYER
100
AcDbLine
 10
217.0056410383824925
 20
485.2999999998651219
 30
0.0
 11
217.0056410383865
 21
491.2999999998639282
 31
0.0
  0
LINE
  5
8F
100
AcDbEntity
  8
0
 62
256
370
-1
 48
1.0
  6
BYLAYER
100
AcDbLine
 10
311.0000002039674882
 20
470.3000000000436103
 30
0.0
 11
311.0000002039594165
 21
460.3000000000429281
 31
0.0
  0
LINE
  5
90
100
AcDbEntity
  8
0
 62
256
370
-1
 48
1.0
  6
BYLAYER
100
AcDbLine
 10
311.0058519297672888
 20
85.9999999999580496
 30
0.0
 11
311.0058519297591033
 21
75.999999999957609
 31
0.0
  0
LINE
  5
91
100
AcDbEntity
  8
0
 62
256
370
-1
 48
1.0
  6
BYLAYER
100
AcDbLine
 10
305.0058519297588191
 20
75.9999999999624976
 30
0.0
 11
305.0058519297671751
 21
85.9999999999629239
 31
0.0
  0
LINE
  5
92
100
AcDbEntity
  8
0
 62
256
370
-1
 48
1.0
  6
BYLAYER
100
AcDbLine
 10
177.0056410383874095
 20
491.2999999998907015
 30
0.0
 11
177.005641038383402
 21
485.2999999998904741
 31
0.0
  0
LINE
  5
93
100
AcDbEntity
  8
0
 62
256
370
-1
 48
1.0
  6
BYLAYER
100
AcDbLine
 10
177.0056410383874095
 20
491.2999999998907015
 30
0.0
 11
167.0056410383874095
 21
491.2999999998970111
 31
0.0
  0
LINE
  5
94
100
AcDbEntity
  8
0
 62
256
370
-1
 48
1.0
  6
BYLAYER
100
AcDbLine
 10
227.0056410383058108
 20
491.2999999998576186
 30
0.0
 11
217.0056410383865
 21
491.2999999998639282
 31
0.0
  0
CIRCLE
  5
95
100
AcDbEntity
  8
0
 62
256
370
-1
 48
1.0
  6
BYLAYER
100
AcDbCircle
 10
339.9999941138851796
 20
7.9999999997557989
 30
0.0
 40
1.5000000000000191
  0
LINE
  5
96
100
AcDbEntity
  8
0
 62
256
370
-1
 48
1.0
  6
BYLAYER
100
AcDbLine
 10
84.0060722961585498
 20
491.3000000000553769
 30
0.0
 11
74.006072296239708
 21
491.3000000000620844
 31
0.0
  0
LINE
  5
97
100
AcDbEntity
  8
0
 62
256
370
-1
 48
1.0
  6
BYLAYER
100
AcDbLine
 10
311.0000002039222977
 20
420.300000000042985
 30
0.0
 11
305.0000002039272999
 21
420.3000000000474756
 31
0.0
  0
LINE
  5
98
100
AcDbEntity
  8
0
 62
256
370
-1
 48
1.0
  6
BYLAYER
100
AcDbLine
 10
311.0000002039142828
 20
410.3000000001247258
 30
0.0
 11
305.0000002039204787
 21
410.3000000001292165
 31
0.0
  0
LINE
  5
99
100
AcDbEntity
  8
0
 62
256
370
-1
 48
1.0
  6
BYLAYER
100
AcDbLine
 10
305.0000002039272999
 20
420.3000000000474756
 30
0.0
 11
305.0000002039204787
 21
410.3000000001292165
 31
0.0
  0
LINE
  5
9A
100
AcDbEntity
  8
0
 62
256
370
-1
 48
1.0
  6
BYLAYER
100
AcDbLine
 10
24.0060722961952209
 20
491.3000000000087084
 30
0.0
 11
34.006072296240518
 21
491.3000000000885166
 31
0.0
  0
LINE
  5
9B
100
AcDbEntity
  8
0
 62
256
370
-1
 48
1.0
  6
BYLAYER
100
AcDbLine
 10
24.0060722962364288
 20
485.3000000000955083
 30
0.0
 11
24.0060722961952209
 21
491.3000000000087084
 31
0.0
  0
LINE
  5
9C
100
AcDbEntity
  8
0
 62
256
370
-1
 48
1.0
  6
BYLAYER
100
AcDbLine
 10
69.0647014052205037
 20
387.3000000000648129
 30
0.0
 11
289.999920386240774
 21
387.2999999999088914
 31
0.0
  0
LWPOLYLINE
  5
9D
100
AcDbEntity
  8
0
 62
256
370
-1
 48
1.0
  6
BYLAYER
100
AcDbPolyline
 90
13
 70
0
 10
39.0000193136861597
 20
40.0000000000228368
 30
0.0
 10
39.0855706999472119
 20
38.6947380778197711
 30
0.0
 10
39.3407610507941925
 20
37.4118095489924727
 30
0.0
 10
39.7612239885718992
 20
36.173165676364107
 30
0.0
 10
40.3397652758405769
 20
35.0000000000123066
 30
0.0
 10
41.0664859107732099
 20
33.9123857099225177
 30
0.0
 10
41.928951501821011
 20
32.9289321881417294
 30
0.0
 10
42.9124050236004777
 20
32.0664665970925
 30
0.0
 10
44.0000193136892435
 20
31.339745962158279
 30
0.0
 10
45.1731849900401201
 20
30.7612046748878392
 30
0.0
 10
46.4118288626678321
 20
30.3407417371082886
 30
0.0
 10
47.6947573914947895
 20
30.0855513862594606
 30
0.0
 10
49.0000193136977273
 20
29.9999999999964011
 30
0.0
  0
LINE
  5
9E
100
AcDbEntity
  8
0
 62
256
370
-1
 48
1.0
  6
BYLAYER
100
AcDbLine
 10
10.9999823118835902
 20
420.300000000265527
 30
0.0
 11
4.9999823118821309
 21
420.3000000002700745
 31
0.0
  0
LINE
  5
9F
100
AcDbEntity
  8
0
 62
256
370
-1
 48
1.0
  6
BYLAYER
100
AcDbLine
 10
18.9397634049342187
 20
456.9395576125917273
 30
0.0
 11
22.9397634049341299
 21
456.9199040992667165
 31
0.0
  0
LINE
  5
A0
100
AcDbEntity
  8
0
 62
256
370
-1
 48
1.0
  6
BYLAYER
100
AcDbLine
 10
22.9397634049341299
 20
456.9199040992667165
 30
0.0
 11
22.939763404913549
 21
428.9199040992666028
 31
0.0
  0
LINE
  5
A1
100
AcDbEntity
  8
0
 62
256
370
-1
 48
1.0
  6
BYLAYER
100
AcDbLine
 10
22.939763404913549
 20
428.9199040992666028
 30
0.0
 11
18.9397634049134496
 21
428.9395576125920115
 31
0.0
  0
LINE
  5
A2
100
AcDbEntity
  8
0
 62
256
370
-1
 48
1.0
  6
BYLAYER
100
AcDbLine
 10
18.9397634049134496
 20
428.9395576125920115
 30
0.0
 11
18.9397634049342187
 21
456.9395576125917273
 31
0.0
  0
LINE
  5
A3
100
AcDbEntity
  8
0
 62
256
370
-1
 48
1.0
  6
BYLAYER
100
AcDbLine
 10
319.9999941138880786
 20
10.9999999997878408
 30
0.0
 11
309.9999941139690804
 21
10.9999999997953193
 31
0.0
  0
LINE
  5
A4
100
AcDbEntity
  8
0
 62
256
370
-1
 48
1.0
  6
BYLAYER
100
AcDbLine
 10
319.9999941138837016
 20
4.9999999998004272
 30
0.0
 11
319.9999941138880786
 21
10.9999999997878408
 31
0.0
  0
LINE
  5
A5
100
AcDbEntity
  8
0
 62
256
370
-1
 48
1.0
  6
BYLAYER
100
AcDbLine
 10
309.9999941139645898
 20
4.999999999807951
 30
0.0
 11
309.9999941139690804
 21
10.9999999997953193
 31
0.0
  0
LINE
  5
A6
100
AcDbEntity
  8
0
 62
256
370
-1
 48
1.0
  6
BYLAYER
100
AcDbLine
 10
369.9999941138872828
 20
10.9999999997517097
 30
0.0
 11
359.9999941138871122
 21
10.9999999997591509
 31
0.0
  0
LINE
  5
A7
100
AcDbEntity
  8
0
 62
256
370
-1
 48
1.0
  6
BYLAYER
100
AcDbLine
 10
369.9999941138827921
 20
4.9999999997503899
 30
0.0
 11
369.9999941138872828
 21
10.9999999997517097
 31
0.0
  0
LINE
  5
A8
100
AcDbEntity
  8
0
 62
256
370
-1
 48
1.0
  6
BYLAYER
100
AcDbLine
 10
359.9999941138827921
 20
4.9999999997577103
 30
0.0
 11
359.9999941138871122
 21
10.9999999997591509
 31
0.0
  0
CIRCLE
  5
A9
100
AcDbEntity
  8
0
 62
256
370
-1
 48
1.0
  6
BYLAYER
100
AcDbCircle
 10
7.9999823122200455
 20
184.100000000184707
 30
0.0
 40
1.50000000000002
  0
LINE
  5
AA
100
AcDbEntity
  8
0
 62
256
370
-1
 48
1.0
  6
BYLAYER
100
AcDbLine
 10
4.999982311990677
 20
214.100000000265311
 30
0.0
 11
4.9999823119833051
 21
204.1000000003473929
 31
0.0
  0
LINE
  5
AB
100
AcDbEntity
  8
0
 62
256
370
-1
 48
1.0
  6
BYLAYER
100
AcDbLine
 10
4.999982311990677
 20
214.100000000265311
 30
0.0
 11
10.9999823119913493
 21
214.1000000002609056
 31
0.0
  0
CIRCLE
  5
AC
100
AcDbEntity
  8
0
 62
256
370
-1
 48
1.0
  6
BYLAYER
100
AcDbCircle
 10
7.9999823121250637
 20
56.0000000000263185
 30
0.0
 40
1.50000000000002
  0
LINE
  5
AD
100
AcDbEntity
  8
0
 62
256
370
-1
 48
1.0
  6
BYLAYER
100
AcDbLine
 10
10.9999823115989006
 20
36.0000000000225171
 30
0.0
 11
10.9999823115914896
 21
26.0000000000234195
 31
0.0
  0
LINE
  5
AE
100
AcDbEntity
  8
0
 62
256
370
-1
 48
1.0
  6
BYLAYER
100
AcDbLine
 10
10.9999823118762805
 20
410.3000000002664933
 30
0.0
 11
4.9999823118748097
 21
410.3000000002710976
 31
0.0
  0
LINE
  5
AF
100
AcDbEntity
  8
0
 62
256
370
-1
 48
1.0
  6
BYLAYER
100
AcDbLine
 10
10.9999823121809097
 20
470.3000000003455057
 30
0.0
 11
10.9999823121736497
 21
460.300000000427417
 31
0.0
  0
LINE
  5
B0
100
AcDbEntity
  8
0
 62
256
370
-1
 48
1.0
  6
BYLAYER
100
AcDbLine
 10
4.9999823121803812
 20
470.3000000003499963
 30
0.0
 11
10.9999823121809097
 21
470.3000000003455057
 31
0.0
  0
LINE
  5
B1
100
AcDbEntity
  8
0
 62
256
370
-1
 48
1.0
  6
BYLAYER
100
AcDbLine
 10
10.9999823118835902
 20
420.300000000265527
 30
0.0
 11
10.9999823118762805
 21
410.3000000002664933
 31
0.0
  0
LINE
  5
B2
100
AcDbEntity
  8
0
 62
256
370
-1
 48
1.0
  6
BYLAYER
100
AcDbLine
 10
10.9999823121736497
 20
460.300000000427417
 30
0.0
 11
4.9999823121731852
 21
460.3000000004319077
 31
0.0
  0
LINE
  5
B3
100
AcDbEntity
  8
0
 62
256
370
-1
 48
1.0
  6
BYLAYER
100
AcDbLine
 10
0.0002068235894146
 20
490.2999844016442808
 30
0.0
 11
0.0000000000044436
 21
5.9989112718535411
 31
0.0
  0
LINE
  5
B4
100
AcDbEntity
  8
0
 62
256
370
-1
 48
1.0
  6
BYLAYER
100
AcDbLine
 10
369.9999941138827921
 20
4.9999999997503899
 30
0.0
 11
359.9999941138827921
 21
4.9999999997577103
 31
0.0
  0
LINE
  5
B5
100
AcDbEntity
  8
0
 62
256
370
-1
 48
1.0
  6
BYLAYER
100
AcDbLine
 10
319.9999941138837016
 20
4.9999999998004272
 30
0.0
 11
309.9999941139645898
 21
4.999999999807951
 31
0.0
  0
LINE
  5
B6
100
AcDbEntity
  8
0
 62
256
370
-1
 48
1.0
  6
BYLAYER
100
AcDbLine
 10
39.0000166616563035
 20
50.0000000000074678
 30
0.0
 11
39.0000193136861597
 21
40.0000000000228368
 31
0.0
  0
LWPOLYLINE
  5
B7
100
AcDbEntity
  8
0
 62
256
370
-1
 48
1.0
  6
BYLAYER
100
AcDbPolyline
 90
13
 70
0
 10
289.999920386240774
 20
387.2999999999088914
 30
0.0
 10
291.3051823084410898
 20
387.2144486136460273
 30
0.0
 10
292.5881108372656172
 20
386.9592582627976185
 30
0.0
 10
293.8267547098910768
 20
386.5387953250190094
 30
0.0
 10
294.9999203862395234
 20
385.9602540377495075
 30
0.0
 10
296.087534676326527
 20
385.2335334028164766
 30
0.0
 10
297.0709881981040894
 20
384.3710678117690804
 30
0.0
 10
297.933453789149894
 20
383.3876142899900969
 30
0.0
 10
298.66017442408139
 20
382.2999999999025249
 30
0.0
 10
299.238715711349073
 20
381.126834323553112
 30
0.0
 10
299.6591786491256926
 20
379.8881904509270839
 30
0.0
 10
299.9143689999725098
 20
378.6052619221022155
 30
0.0
 10
299.9999203862333275
 20
377.299999999901388
 30
0.0
  0
ARC
  5
B8
100
AcDbEntity
  8
0
 62
256
370
-1
 48
1.0
  6
BYLAYER
100
AcDbCircle
 10
69.0647014052121193
 20
376.0225999853639109
 30
0.0
 40
11.2774000147009996
100
AcDbArc
 50
90.0000000000425047
 51
173.4961030721201496
  0
ARC
  5
B9
100
AcDbEntity
  8
0
 62
256
370
-1
 48
1.0
  6
BYLAYER
100
AcDbCircle
 10
289.9999203859795216
 20
39.9999999997202735
 30
0.0
 40
9.9999999999961062
100
AcDbArc
 50
269.9999999999353122
 51
359.9999999999574811
  0
CIRCLE
  5
BA
100
AcDbEntity
  8
0
 62
256
370
-1
 48
1.0
  6
BYLAYER
100
AcDbCircle
 10
54.0060722957952777
 20
7.9999999999642197
 30
0.0
 40
1.50000000000002
  0
LINE
  5
BB
100
AcDbEntity
  8
0
 62
256
370
-1
 48
1.0
  6
BYLAYER
100
AcDbLine
 10
84.006072295797253
 20
10.9999999999600693
 30
0.0
 11
74.006072295796983
 21
10.9999999999674696
 31
0.0
  0
LINE
  5
BC
100
AcDbEntity
  8
0
 62
256
370
-1
 48
1.0
  6
BYLAYER
100
AcDbLine
 10
34.0060722957936292
 20
5.0000000000087681
 30
0.0
 11
24.0060722958744996
 21
5.000000000016172
 31
0.0
  0
LINE
  5
BD
100
AcDbEntity
  8
0
 62
256
370
-1
 48
1.0
  6
BYLAYER
100
AcDbLine
 10
74.006072295792535
 20
4.9999999999661142
 30
0.0
 11
74.006072295796983
 21
10.9999999999674696
 31
0.0
  0
LWPOLYLINE
  5
BE
100
AcDbEntity
  8
0
 62
256
370
-1
 48
1.0
  6
BYLAYER
100
AcDbPolyline
 90
25
 70
1
 10
7.2499823123159501
 20
313.4990381060268874
 30
0.0
 10
7.6117537446623391
 20
313.6488887397835015
 30
0.0
 10
7.9999823123160052
 20
313.7000000003499167
 30
0.0
 10
8.3882108799700763
 20
313.6488887397829899
 30
0.0
 10
8.7499823123159466
 20
313.499038106025921
 30
0.0
 10
9.0606424840955366
 20
313.2606601721290076
 30
0.0
 10
9.2990204179922831
 20
312.9500000003486093
 30
0.0
 10
9.4488710517489078
 20
312.5882285680024779
 30
0.0
 10
9.4999823123150993
 20
312.2000000003486093
 30
0.0
 10
9.4488710517485135
 20
311.8117714326946839
 30
0.0
 10
9.2990204179911444
 20
311.4500000003487798
 30
0.0
 10
9.0606424840939574
 20
311.1393398285691774
 30
0.0
 10
8.7499823123140636
 20
310.9009618946723208
 30
0.0
 10
8.3882108799677528
 20
310.7511112609157067
 30
0.0
 10
7.9999823123139304
 20
310.700000000349803
 30
0.0
 10
7.6117537446601853
 20
310.751111260916673
 30
0.0
 10
7.2499823123139757
 20
310.9009618946735145
 30
0.0
 10
6.9393221405342747
 20
311.1393398285708827
 30
0.0
 10
6.7009442066379563
 20
311.4500000003503146
 30
0.0
 10
6.5510935728812409
 20
311.8117714326971281
 30
0.0
 10
6.4999823123148914
 20
312.2000000003509967
 30
0.0
 10
6.5510935728817712
 20
312.5882285680048085
 30
0.0
 10
6.7009442066390168
 20
312.9500000003508262
 30
0.0
 10
6.9393221405359666
 20
313.2606601721303718
 30
0.0
 10
7.2499823123159501
 20
313.4990381060268874
 30
0.0
  0
ARC
  5
BF
100
AcDbEntity
  8
0
 62
256
370
-1
 48
1.0
  6
BYLAYER
100
AcDbCircle
 10
2893.2823398490008913
 20
50.0007569680129578
 30
0.0
 40
2854.282323187448128
100
AcDbArc
 50
173.4153609806661507
 51
180.0000152010076135
  0
LINE
  5
C0
100
AcDbEntity
  8
0
 62
256
370
-1
 48
1.0
  6
BYLAYER
100
AcDbLine
 10
299.9999203862333275
 20
377.299999999901388
 30
0.0
 11
299.9999203859754857
 21
39.9999999997128981
 31
0.0
  0
LINE
  5
C1
100
AcDbEntity
  8
0
 62
256
370
-1
 48
1.0
  6
BYLAYER
100
AcDbLine
 10
289.9999203859682098
 20
29.9999999997241495
 30
0.0
 11
49.0000193136977273
 21
29.9999999999964011
 31
0.0
  0
LINE
  5
C2
100
AcDbEntity
  8
0
 62
256
370
-1
 48
1.0
  6
BYLAYER
100
AcDbLine
 10
4.9999823117872442
 20
292.2000000003504852
 30
0.0
 11
10.9999823117887203
 21
292.200000000345824
 31
0.0
  0
LINE
  5
C3
100
AcDbEntity
  8
0
 62
256
370
-1
 48
1.0
  6
BYLAYER
100
AcDbLine
 10
10.9999823120788403
 20
332.2000000005078277
 30
0.0
 11
4.9999823120781972
 21
332.2000000005123752
 31
0.0
  0
LINE
  5
C4
100
AcDbEntity
  8
0
 62
256
370
-1
 48
1.0
  6
BYLAYER
100
AcDbLine
 10
10.9999823120861695
 20
342.200000000425689
 30
0.0
 11
10.9999823120788403
 21
332.2000000005078277
 31
0.0
  0
LINE
  5
C5
100
AcDbEntity
  8
0
 62
256
370
-1
 48
1.0
  6
BYLAYER
100
AcDbLine
 10
10.9999823117812898
 20
282.2000000003466766
 30
0.0
 11
4.9999823117797986
 21
282.2000000003515083
 31
0.0
  0
LINE
  5
C6
100
AcDbEntity
  8
0
 62
256
370
-1
 48
1.0
  6
BYLAYER
100
AcDbLine
 10
4.9999823120781972
 20
332.2000000005123752
 30
0.0
 11
4.9999823120855407
 21
342.200000000430407
 31
0.0
  0
LINE
  5
C7
100
AcDbEntity
  8
0
 62
256
370
-1
 48
1.0
  6
BYLAYER
100
AcDbLine
 10
4.9999823117872442
 20
292.2000000003504852
 30
0.0
 11
4.9999823117797986
 21
282.2000000003515083
 31
0.0
  0
LINE
  5
C8
100
AcDbEntity
  8
0
 62
256
370
-1
 48
1.0
  6
BYLAYER
100
AcDbLine
 10
4.9999823120855407
 20
342.200000000430407
 30
0.0
 11
10.9999823120861695
 21
342.200000000425689
 31
0.0
  0
LINE
  5
C9
100
AcDbEntity
  8
0
 62
256
370
-1
 48
1.0
  6
BYLAYER
100
AcDbLine
 10
10.9999823117887203
 20
292.200000000345824
 30
0.0
 11
10.9999823117812898
 21
282.2000000003466766
 31
0.0
  0
LINE
  5
CA
100
AcDbEntity
  8
0
 62
256
370
-1
 48
1.0
  6
BYLAYER
100
AcDbLine
 10
4.9999823116922508
 20
164.1000000001855028
 30
0.0
 11
4.9999823116849242
 21
154.1000000001862986
 31
0.0
  0
LINE
  5
CB
100
AcDbEntity
  8
0
 62
256
370
-1
 48
1.0
  6
BYLAYER
100
AcDbLine
 10
10.9999823116938398
 20
164.1000000001808985
 30
0.0
 11
4.9999823116922508
 21
164.1000000001855028
 31
0.0
  0
LINE
  5
CC
100
AcDbEntity
  8
0
 62
256
370
-1
 48
1.0
  6
BYLAYER
100
AcDbLine
 10
10.9999823119838798
 20
204.1000000003429022
 30
0.0
 11
4.9999823119833051
 21
204.1000000003473929
 31
0.0
  0
LINE
  5
CD
100
AcDbEntity
  8
0
 62
256
370
-1
 48
1.0
  6
BYLAYER
100
AcDbLine
 10
10.9999823116864306
 20
154.1000000001820069
 30
0.0
 11
4.9999823116849242
 21
154.1000000001862986
 31
0.0
  0
LINE
  5
CE
100
AcDbEntity
  8
0
 62
256
370
-1
 48
1.0
  6
BYLAYER
100
AcDbLine
 10
10.9999823116938398
 20
164.1000000001808985
 30
0.0
 11
10.9999823116864306
 21
154.1000000001820069
 31
0.0
  0
LINE
  5
CF
100
AcDbEntity
  8
0
 62
256
370
-1
 48
1.0
  6
BYLAYER
100
AcDbLine
 10
10.9999823119913493
 20
214.1000000002609056
 30
0.0
 11
10.9999823119838798
 21
204.1000000003429022
 31
0.0
  0
LINE
  5
D0
100
AcDbEntity
  8
0
 62
256
370
-1
 48
1.0
  6
BYLAYER
100
AcDbLine
 10
5.9989112718219646
 20
0.0000000000271328
 30
0.0
 11
384.0000002036148885
 21
-0.0000000002540339
 31
0.0
  0
ARC
  5
D1
100
AcDbEntity
  8
0
 62
256
370
-1
 48
1.0
  6
BYLAYER
100
AcDbCircle
 10
5.9989112718264064
 20
5.9989112718490993
 30
0.0
 40
5.9989112718219593
100
AcDbArc
 50
180.0
 51
269.9999999999574811
  0
ARC
  5
D2
100
AcDbEntity
  8
0
 62
256
370
-1
 48
1.0
  6
BYLAYER
100
AcDbCircle
 10
6.0002373731923759
 20
490.2999694504842978
 30
0.0
 40
6.0000305496218402
100
AcDbArc
 50
89.9999999999420481
 51
179.9998572276665243
  0
LINE
  5
D3
100
AcDbEntity
  8
0
 62
256
370
-1
 48
1.0
  6
BYLAYER
100
AcDbLine
 10
383.999403045628128
 20
496.2999999997239229
 30
0.0
 11
6.0002373731987371
 21
496.3000000001060243
 31
0.0
  0
ARC
  5
D4
100
AcDbEntity
  8
0
 62
256
370
-1
 48
1.0
  6
BYLAYER
100
AcDbCircle
 10
383.9994030456214773
 20
490.299992781471019
 30
0.0
 40
6.0000072182524491
100
AcDbArc
 50
0.0000689290922461
 51
89.9999999999416218
  0
LINE
  5
D5
100
AcDbEntity
  8
0
 62
256
370
-1
 48
1.0
  6
BYLAYER
100
AcDbLine
 10
389.9994102638697768
 20
490.2999999997173859
 30
0.0
 11
389.9999928959534827
 21
5.9999999997413642
 31
0.0
  0
LWPOLYLINE
  5
D6
100
AcDbEntity
  8
0
 62
256
370
-1
 48
1.0
  6
BYLAYER
100
AcDbPolyline
 90
7
 70
0
 10
389.9999928959534827
 20
5.9999999997413642
 30
0.0
 10
389.7955496788255232
 20
4.4470861950436502
 30
0.0
 10
389.1961487335888137
 20
3.0000005649927322
 30
0.0
 10
388.2426383070862812
 20
1.7573597559082339
 30
0.0
 10
386.9999986593247172
 20
0.8038478159400224
 30
0.0
 10
385.5529137593115934
 20
0.2044451082350179
 30
0.0
 10
384.0000002036148885
 20
-0.0000000002540339
 30
0.0
  0
LINE
  5
D7
100
AcDbEntity
  8
0
 62
256
370
-1
 48
1.0
  6
BYLAYER
100
AcDbLine
 10
4.9999823118883384
 20
76.0000000001889759
 30
0.0
 11
4.9999823118957476
 21
86.0000000001069367
 31
0.0
  0
LINE
  5
D8
100
AcDbEntity
  8
0
 62
256
370
-1
 48
1.0
  6
BYLAYER
100
AcDbLine
 10
10.9999823118889797
 20
76.0000000001844853
 30
0.0
 11
4.9999823118883384
 21
76.0000000001889759
 31
0.0
  0
LINE
  5
D9
100
AcDbEntity
  8
0
 62
256
370
-1
 48
1.0
  6
BYLAYER
100
AcDbLine
 10
10.9999823118963995
 20
86.0000000001023892
 30
0.0
 11
10.9999823118889797
 21
76.0000000001844853
 31
0.0
  0
LINE
  5
DA
100
AcDbEntity
  8
0
 62
256
370
-1
 48
1.0
  6
BYLAYER
100
AcDbLine
 10
4.9999823118957476
 20
86.0000000001069367
 30
0.0
 11
10.9999823118963995
 21
86.0000000001023892
 31
0.0
  0
LWPOLYLINE
  5
DB
100
AcDbEntity
  8
0
 62
256
370
-1
 48
1.0
  6
BYLAYER
100
AcDbPolyline
 90
25
 70
1
 10
198.3046791436196088
 20
8.7499999998619469
 30
0.0
 10
198.066301209723008
 20
9.0606601716419419
 30
0.0
 10
197.7556410379434908
 20
9.2990381055391964
 30
0.0
 10
197.3938696055973026
 20
9.4488887392962049
 30
0.0
 10
197.0056410379434908
 20
9.4999999998629718
 30
0.0
 10
196.6174124702897075
 20
9.4488887392968248
 30
0.0
 10
196.2556410379432918
 20
9.2990381055401716
 30
0.0
 10
195.9449808661632915
 20
9.0606601716436561
 30
0.0
 10
195.7066029322662928
 20
8.7499999998639257
 30
0.0
 10
195.5567522985091955
 20
8.3882285675178814
 30
0.0
 10
195.5056410379424108
 20
7.9999999998640909
 30
0.0
 10
195.5567522985085134
 20
7.6117714322103183
 30
0.0
 10
195.7066029322652128
 20
7.2499999998638671
 30
0.0
 10
195.9449808661616999
 20
6.9393398280838721
 30
0.0
 10
196.2556410379415013
 20
6.7009618941868823
 30
0.0
 10
196.6174124702872916
 20
6.551111260429626
 30
0.0
 10
197.0056410379411886
 20
6.4999999998628981
 30
0.0
 10
197.3938696055951141
 20
6.5511112604289776
 30
0.0
 10
197.7556410379413876
 20
6.7009618941855864
 30
0.0
 10
198.0663012097215017
 20
6.9393398280822929
 30
0.0
 10
198.3046791436185003
 20
7.2499999998619042
 30
0.0
 10
198.4545297773757113
 20
7.6117714322080738
 30
0.0
 10
198.5056410379424108
 20
7.9999999998617337
 30
0.0
 10
198.4545297773763082
 20
8.3882285675156876
 30
0.0
 10
198.3046791436196088
 20
8.7499999998619469
 30
0.0
  0
LINE
  5
DC
100
AcDbEntity
  8
0
 62
256
370
-1
 48
1.0
  6
BYLAYER
100
AcDbLine
 10
84.0060722957927624
 20
4.9999999999587006
 30
0.0
 11
74.006072295792535
 21
4.9999999999661142
 31
0.0
  0
LINE
  5
DD
100
AcDbEntity
  8
0
 62
256
370
-1
 48
1.0
  6
BYLAYER
100
AcDbLine
 10
84.0060722957927624
 20
4.9999999999587006
 30
0.0
 11
84.006072295797253
 21
10.9999999999600693
 31
0.0
  0
LINE
  5
DE
100
AcDbEntity
  8
0
 62
256
370
-1
 48
1.0
  6
BYLAYER
100
AcDbLine
 10
217.0056410379397107
 20
4.9999999998648006
 30
0.0
 11
217.0056410379440877
 21
10.9999999998662403
 31
0.0
  0
LINE
  5
DF
100
AcDbEntity
  8
0
 62
256
370
-1
 48
1.0
  6
BYLAYER
100
AcDbLine
 10
227.0056410379399949
 20
4.9999999998575708
 30
0.0
 11
217.0056410379397107
 21
4.9999999998648006
 31
0.0
  0
LINE
  5
E0
100
AcDbEntity
  8
0
 62
256
370
-1
 48
1.0
  6
BYLAYER
100
AcDbLine
 10
227.0056410379399949
 20
4.9999999998575708
 30
0.0
 11
227.0056410379444003
 21
10.9999999998588294
 31
0.0
  0
LINE
  5
E1
100
AcDbEntity
  8
0
 62
256
370
-1
 48
1.0
  6
BYLAYER
100
AcDbLine
 10
217.0056410379440877
 20
10.9999999998662403
 30
0.0
 11
227.0056410379444003
 21
10.9999999998588294
 31
0.0
  0
LINE
  5
E2
100
AcDbEntity
  8
0
 62
256
370
-1
 48
1.0
  6
BYLAYER
100
AcDbLine
 10
24.0060722958744996
 20
5.000000000016172
 30
0.0
 11
24.0060722958788695
 21
11.0000000000036202
 31
0.0
  0
LINE
  5
E3
100
AcDbEntity
  8
0
 62
256
370
-1
 48
1.0
  6
BYLAYER
100
AcDbLine
 10
34.0060722957979991
 20
10.9999999999962093
 30
0.0
 11
34.0060722957936292
 21
5.0000000000087681
 31
0.0
  0
LINE
  5
E4
100
AcDbEntity
  8
0
 62
256
370
-1
 48
1.0
  6
BYLAYER
100
AcDbLine
 10
34.0060722957979991
 20
10.9999999999962093
 30
0.0
 11
24.0060722958788695
 21
11.0000000000036202
 31
0.0
  0
LINE
  5
E5
100
AcDbEntity
  8
0
 62
256
370
-1
 48
1.0
  6
BYLAYER
100
AcDbLine
 10
177.0056410379407055
 20
4.9999999999074962
 30
0.0
 11
167.0056410380215937
 21
4.9999999999148956
 31
0.0
  0
LINE
  5
E6
100
AcDbEntity
  8
0
 62
256
370
-1
 48
1.0
  6
BYLAYER
100
AcDbLine
 10
177.0056410379407055
 20
4.9999999999074962
 30
0.0
 11
177.0056410379451108
 21
10.9999999998949907
 31
0.0
  0
LINE
  5
E7
100
AcDbEntity
  8
0
 62
256
370
-1
 48
1.0
  6
BYLAYER
100
AcDbLine
 10
177.0056410379451108
 20
10.9999999998949907
 30
0.0
 11
167.0056410380259138
 21
10.9999999999023608
 31
0.0
  0
LINE
  5
E8
100
AcDbEntity
  8
0
 62
256
370
-1
 48
1.0
  6
BYLAYER
100
AcDbLine
 10
167.0056410380215937
 20
4.9999999999148956
 30
0.0
 11
167.0056410380259138
 21
10.9999999999023608
 31
0.0
  0
LINE
  5
E9
100
AcDbEntity
  8
0
 62
256
370
-1
 48
1.0
  6
BYLAYER
100
AcDbLine
 10
10.9999823115989006
 20
36.0000000000225171
 30
0.0
 11
4.9999823115973756
 21
36.0000000000269296
 31
0.0
  0
LINE
  5
EA
100
AcDbEntity
  8
0
 62
256
370
-1
 48
1.0
  6
BYLAYER
100
AcDbLine
 10
4.9999823115899744
 20
26.000000000027871
 30
0.0
 11
4.9999823115973756
 21
36.0000000000269296
 31
0.0
  0
LINE
  5
EB
100
AcDbEntity
  8
0
 62
256
370
-1
 48
1.0
  6
BYLAYER
100
AcDbLine
 10
10.9999823115914896
 20
26.0000000000234195
 30
0.0
 11
4.9999823115899744
 21
26.000000000027871
 31
0.0
  0
ENDSEC
  0
SECTION
  2
OBJECTS
  0
DICTIONARY
  5
C
100
AcDbDictionary
280
0
281
1
  3
ACAD_GROUP
350
D
  3
ACAD_LAYOUT
350
1A
  3
ACAD_MLINESTYLE
350
17
  3
ACAD_PLOTSETTINGS
350
19
  3
ACAD_PLOTSTYLENAME
350
E
  3
AcDbVariableDictionary
350
EC
  3
QCAD_OBJECTS
350
ED
  0
DICTIONARY
  5
D
100
AcDbDictionary
280
0
281
1
  0
ACDBDICTIONARYWDFLT
  5
E
100
AcDbDictionary
281
1
  3
Normal
350
F
100
AcDbDictionaryWithDefault
340
F
  0
ACDBPLACEHOLDER
  5
F
  0
DICTIONARY
  5
17
100
AcDbDictionary
280
0
281
1
  3
Standard
350
18
  0
MLINESTYLE
  5
18
100
AcDbMlineStyle
  2
STANDARD
 70
0
  3

 62
256
 51
90.0
 52
90.0
 71
2
 49
0.5
 62
256
  6
BYLAYER
 49
-0.5
 62
256
  6
BYLAYER
  0
DICTIONARY
  5
19
100
AcDbDictionary
280
0
281
1
  0
DICTIONARY
  5
1A
100
AcDbDictionary
281
1
  3
Layout1
350
1E
  3
Layout2
350
26
  3
Model
350
22
  0
LAYOUT
  5
1E
100
AcDbPlotSettings
  1

  2
none_device
  4

  6

 40
0.0
 41
0.0
 42
0.0
 43
0.0
 44
0.0
 45
0.0
 46
0.0
 47
0.0
 48
0.0
 49
0.0
140
0.0
141
0.0
142
1.0
143
1.0
 70
688
 72
0
 73
0
 74
5
  7

 75
16
147
1.0
148
0.0
149
0.0
100
AcDbLayout
  1
Layout1
 70
1
 71
1
 10
0.0
 20
0.0
 11
420.0
 21
297.0
 12
0.0
 22
0.0
 32
0.0
 14
100000000000000000000.0
 24
100000000000000000000.0
 34
100000000000000000000.0
 15
-100000000000000000000.0
 25
-100000000000000000000.0
 35
-100000000000000000000.0
146
0.0
 13
0.0
 23
0.0
 33
0.0
 16
1.0
 26
0.0
 36
0.0
 17
0.0
 27
1.0
 37
0.0
 76
0
330
1B
  0
LAYOUT
  5
22
100
AcDbPlotSettings
  1

  2
none_device
  4

  6

 40
0.0
 41
0.0
 42
0.0
 43
0.0
 44
0.0
 45
0.0
 46
0.0
 47
0.0
 48
0.0
 49
0.0
140
0.0
141
0.0
142
1.0
143
1.0
 70
1712
 72
0
 73
0
 74
0
  7

 75
0
147
1.0
148
0.0
149
0.0
100
AcDbLayout
  1
Model
 70
1
 71
0
 10
0.0
 20
0.0
 11
12.0
 21
9.0
 12
0.0
 22
0.0
 32
0.0
 14
0.0
 24
0.0
 34
0.0
 15
0.0
 25
0.0
 35
0.0
146
0.0
 13
0.0
 23
0.0
 33
0.0
 16
1.0
 26
0.0
 36
0.0
 17
0.0
 27
1.0
 37
0.0
 76
0
330
1F
  0
LAYOUT
  5
26
100
AcDbPlotSettings
  1

  2
none_device
  4

  6

 40
0.0
 41
0.0
 42
0.0
 43
0.0
 44
0.0
 45
0.0
 46
0.0
 47
0.0
 48
0.0
 49
0.0
140
0.0
141
0.0
142
1.0
143
1.0
 70
688
 72
0
 73
0
 74
5
  7

 75
16
147
1.0
148
0.0
149
0.0
100
AcDbLayout
  1
Layout2
 70
1
 71
2
 10
0.0
 20
0.0
 11
12.0
 21
9.0
 12
0.0
 22
0.0
 32
0.0
 14
0.0
 24
0.0
 34
0.0
 15
0.0
 25
0.0
 35
0.0
146
0.0
 13
0.0
 23
0.0
 33
0.0
 16
1.0
 26
0.0
 36
0.0
 17
0.0
 27
1.0
 37
0.0
 76
0
330
23
  0
DICTIONARY
  5
EC
100
AcDbDictionary
281
1
  3
DIMASSOC
350
EF
  3
HIDETEXT
350
EE
  0
DICTIONARYVAR
  5
EE
100
DictionaryVariables
280
0
  1
2
  0
DICTIONARYVAR
  5
EF
100
DictionaryVariables
280
0
  1
1
  0
DICTIONARY
  5
ED
100
AcDbDictionary
281
1
  3
ColorSettings/BackgroundColor
350
F0
  3
ColorSettings/ColorMode
350
F1
  3
Grid/DisplayGrid00
350
F2
  3
Grid/DisplayGrid01
350
F3
  3
Grid/DisplayGrid02
350
F4
  3
Grid/DisplayGrid03
350
F5
  3
Grid/GridSpacingX00
350
F6
  3
Grid/GridSpacingX01
350
F7
  3
Grid/GridSpacingX02
350
F8
  3
Grid/GridSpacingX03
350
F9
  3
Grid/GridSpacingY00
350
FA
  3
Grid/GridSpacingY01
350
FB
  3
Grid/GridSpacingY02
350
FC
  3
Grid/GridSpacingY03
350
FD
  3
Grid/IsometricGrid00
350
FE
  3
Grid/IsometricGrid01
350
FF
  3
Grid/IsometricGrid02
350
100
  3
Grid/IsometricGrid03
350
101
  3
Grid/IsometricProjection00
350
102
  3
Grid/IsometricProjection01
350
103
  3
Grid/IsometricProjection02
350
104
  3
Grid/IsometricProjection03
350
105
  3
Grid/MetaGridSpacingX00
350
106
  3
Grid/MetaGridSpacingX01
350
107
  3
Grid/MetaGridSpacingX02
350
108
  3
Grid/MetaGridSpacingX03
350
109
  3
Grid/MetaGridSpacingY00
350
10A
  3
Grid/MetaGridSpacingY01
350
10B
  3
Grid/MetaGridSpacingY02
350
10C
  3
Grid/MetaGridSpacingY03
350
10D
  3
MultiPageSettings/Columns
350
10E
  3
MultiPageSettings/GlueMarginsBottom
350
10F
  3
MultiPageSettings/GlueMarginsLeft
350
110
  3
MultiPageSettings/GlueMarginsRight
350
111
  3
MultiPageSettings/GlueMarginsTop
350
112
  3
MultiPageSettings/PrintCropMarks
350
113
  3
MultiPageSettings/Rows
350
114
  3
PageSettings/OffsetX
350
115
  3
PageSettings/OffsetY
350
116
  3
PageSettings/PageOrientation
350
117
  3
PageSettings/PaperHeight
350
118
  3
PageSettings/PaperWidth
350
119
  3
PageSettings/Scale
350
11A
  3
PageSettings/ShowPaperBorders
350
11B
  3
UnitSettings/PaperUnit
350
11C
  3
ViewportCenter
350
11D
  3
ViewportHeight
350
11E
  3
ViewportWidth
350
11F
  0
XRECORD
  5
F0
330
ED
100
AcDbXrecord
280
1
1000
Bianco
  0
XRECORD
  5
F1
330
ED
100
AcDbXrecord
280
1
1000
FullColor
  0
XRECORD
  5
F2
330
ED
100
AcDbXrecord
280
1
290
1
  0
XRECORD
  5
F3
330
ED
100
AcDbXrecord
280
1
290
1
  0
XRECORD
  5
F4
330
ED
100
AcDbXrecord
280
1
290
1
  0
XRECORD
  5
F5
330
ED
100
AcDbXrecord
280
1
290
1
  0
XRECORD
  5
F6
330
ED
100
AcDbXrecord
280
1
1000
auto
  0
XRECORD
  5
F7
330
ED
100
AcDbXrecord
280
1
1000
auto
  0
XRECORD
  5
F8
330
ED
100
AcDbXrecord
280
1
1000
auto
  0
XRECORD
  5
F9
330
ED
100
AcDbXrecord
280
1
1000
auto
  0
XRECORD
  5
FA
330
ED
100
AcDbXrecord
280
1
1000
auto
  0
XRECORD
  5
FB
330
ED
100
AcDbXrecord
280
1
1000
auto
  0
XRECORD
  5
FC
330
ED
100
AcDbXrecord
280
1
1000
auto
  0
XRECORD
  5
FD
330
ED
100
AcDbXrecord
280
1
1000
auto
  0
XRECORD
  5
FE
330
ED
100
AcDbXrecord
280
1
290
0
  0
XRECORD
  5
FF
330
ED
100
AcDbXrecord
280
1
290
0
  0
XRECORD
  5
100
330
ED
100
AcDbXrecord
280
1
290
0
  0
XRECORD
  5
101
330
ED
100
AcDbXrecord
280
1
290
0
  0
XRECORD
  5
102
330
ED
100
AcDbXrecord
280
1
 90
4097
  0
XRECORD
  5
103
330
ED
100
AcDbXrecord
280
1
 90
4097
  0
XRECORD
  5
104
330
ED
100
AcDbXrecord
280
1
 90
4097
  0
XRECORD
  5
105
330
ED
100
AcDbXrecord
280
1
 90
4097
  0
XRECORD
  5
106
330
ED
100
AcDbXrecord
280
1
1000
auto
  0
XRECORD
  5
107
330
ED
100
AcDbXrecord
280
1
1000
auto
  0
XRECORD
  5
108
330
ED
100
AcDbXrecord
280
1
1000
auto
  0
XRECORD
  5
109
330
ED
100
AcDbXrecord
280
1
1000
auto
  0
XRECORD
  5
10A
330
ED
100
AcDbXrecord
280
1
1000
auto
  0
XRECORD
  5
10B
330
ED
100
AcDbXrecord
280
1
1000
auto
  0
XRECORD
  5
10C
330
ED
100
AcDbXrecord
280
1
1000
auto
  0
XRECORD
  5
10D
330
ED
100
AcDbXrecord
280
1
1000
auto
  0
XRECORD
  5
10E
330
ED
100
AcDbXrecord
280
1
 90
1
  0
XRECORD
  5
10F
330
ED
100
AcDbXrecord
280
1
 40
10.0
  0
XRECORD
  5
110
330
ED
100
AcDbXrecord
280
1
 40
10.0
  0
XRECORD
  5
111
330
ED
100
AcDbXrecord
280
1
 40
10.0
  0
XRECORD
  5
112
330
ED
100
AcDbXrecord
280
1
 40
10.0
  0
XRECORD
  5
113
330
ED
100
AcDbXrecord
280
1
290
0
  0
XRECORD
  5
114
330
ED
100
AcDbXrecord
280
1
 90
1
  0
XRECORD
  5
115
330
ED
100
AcDbXrecord
280
1
 40
0.0
  0
XRECORD
  5
116
330
ED
100
AcDbXrecord
280
1
 40
0.0
  0
XRECORD
  5
117
330
ED
100
AcDbXrecord
280
1
1000
Portrait
  0
XRECORD
  5
118
330
ED
100
AcDbXrecord
280
1
 40
297.0
  0
XRECORD
  5
119
330
ED
100
AcDbXrecord
280
1
 40
210.0
  0
XRECORD
  5
11A
330
ED
100
AcDbXrecord
280
1
1000
1:1
  0
XRECORD
  5
11B
330
ED
100
AcDbXrecord
280
1
290
1
  0
XRECORD
  5
11C
330
ED
100
AcDbXrecord
280
1
 90
4
  0
XRECORD
  5
11E
330
ED
100
AcDbXrecord
280
1
 40
787.9759672136865447
  0
XRECORD
  5
11F
330
ED
100
AcDbXrecord
280
1
 40
1285.9533442632282458
  0
ENDSEC
  0
EOF
