999
dxflib 3.17.0.0
  0
SECTION
  2
HEADER
  9
$ACADVER
  1
AC1015
  9
$HANDSEED
  5
FFFF
  9
$ANGBASE
 50
0.0
  9
$ANGDIR
 70
0
  9
$ATTMODE
 70
1
  9
$AUNITS
 70
0
  9
$AUPREC
 70
0
  9
$CECOLOR
 62
256
  9
$CELTSCALE
 40
1.0
  9
$CHAMFERA
 40
0.0
  9
$CHAMFERB
 40
0.0
  9
$CHAMFERC
 40
0.0
  9
$CHAMFERD
 40
0.0
  9
$CMLJUST
 70
0
  9
$CMLSCALE
 40
1.0
  9
$DIMADEC
 70
0
  9
$DIMALT
 70
0
  9
$DIMALTD
 70
2
  9
$DIMALTF
 40
25.3999999999999986
  9
$DIMALTTD
 70
2
  9
$DIMALTTZ
 70
0
  9
$DIMALTU
 70
2
  9
$DIMALTZ
 70
0
  9
$DIMAPOST
  1

  9
$DIMASZ
 40
0.18
  9
$DIMAUNIT
 70
0
  9
$DIMAZIN
 70
0
  9
$DIMBLK
  1

  9
$DIMBLK1
  1

  9
$DIMBLK2
  1

  9
$DIMCEN
 40
0.09
  9
$DIMCLRD
 70
0
  9
$DIMCLRE
 70
0
  9
$DIMCLRT
 70
0
  9
$DIMDEC
 70
4
  9
$DIMDLE
 40
0.0
  9
$DIMDLI
 40
0.38
  9
$DIMDSEP
 70
46
  9
$DIMEXE
 40
0.18
  9
$DIMEXO
 40
0.0625
  9
$DIMGAP
 40
0.09
  9
$DIMJUST
 70
0
  9
$DIMLFAC
 40
1.0
  9
$DIMLIM
 70
0
  9
$DIMLUNIT
 70
2
  9
$DIMPOST
  1

  9
$DIMRND
 40
0.0
  9
$DIMSAH
 70
0
  9
$DIMSCALE
 40
1.0
  9
$DIMSD1
 70
0
  9
$DIMSD2
 70
0
  9
$DIMSE1
 70
0
  9
$DIMSE2
 70
0
  9
$DIMSOXD
 70
0
  9
$DIMTAD
 70
0
  9
$DIMTDEC
 70
4
  9
$DIMTFAC
 40
1.0
  9
$DIMTIH
 70
1
  9
$DIMTIX
 70
0
  9
$DIMTM
 40
0.0
  9
$DIMTOFL
 70
0
  9
$DIMTOH
 70
1
  9
$DIMTOL
 70
0
  9
$DIMTOLJ
 70
1
  9
$DIMTP
 40
0.0
  9
$DIMTSZ
 40
0.0
  9
$DIMTVP
 40
0.0
  9
$DIMTXSTY
  7
STANDARD
  9
$DIMTXT
 40
0.18
  9
$DIMTZIN
 70
0
  9
$DIMUPT
 70
0
  9
$DIMZIN
 70
0
  9
$DISPSILH
 70
0
  9
$DWGCODEPAGE
  3
ANSI_1252
  9
$ELEVATION
 40
0.0
  9
$EXTMAX
 10
-100000000000000000000.0
 20
-100000000000000000000.0
 30
-100000000000000000000.0
  9
$EXTMIN
 10
100000000000000000000.0
 20
100000000000000000000.0
 30
100000000000000000000.0
  9
$FILLETRAD
 40
0.5
  9
$FILLMODE
 70
1
  9
$INSBASE
 10
0.0
 20
0.0
 30
0.0
  9
$INSUNITS
 70
0
  9
$LIMCHECK
 70
0
  9
$LIMMAX
 10
12.0
 20
9.0
  9
$LIMMIN
 10
0.0
 20
0.0
  9
$LTSCALE
 40
1.0
  9
$LUNITS
 70
2
  9
$LUPREC
 70
4
  9
$MAXACTVP
 70
64
  9
$MEASUREMENT
 70
1
  9
$MIRRTEXT
 70
1
  9
$ORTHOMODE
 70
0
  9
$PDMODE
 70
0
  9
$PDSIZE
 40
0
  9
$PELEVATION
 40
0.0
  9
$PEXTMAX
 10
-100000000000000000000.0
 20
-100000000000000000000.0
 30
-100000000000000000000.0
  9
$PEXTMIN
 10
100000000000000000000.0
 20
100000000000000000000.0
 30
100000000000000000000.0
  9
$PINSBASE
 10
0.0
 20
0.0
 30
0.0
  9
$PLIMCHECK
 70
0
  9
$PLIMMAX
 10
12.0
 20
9.0
  9
$PLIMMIN
 10
0.0
 20
0.0
  9
$PLINEGEN
 70
0
  9
$PLINEWID
 40
0.0
  9
$PROXYGRAPHICS
 70
1
  9
$PSLTSCALE
 70
1
  9
$PUCSNAME
  2

  9
$PUCSORG
 10
0.0
 20
0.0
 30
0.0
  9
$PUCSXDIR
 10
1.0
 20
0.0
 30
0.0
  9
$PUCSYDIR
 10
0.0
 20
1.0
 30
0.0
  9
$QTEXTMODE
 70
0
  9
$REGENMODE
 70
1
  9
$SHADEDGE
 70
3
  9
$SHADEDIF
 70
70
  9
$SKETCHINC
 40
0.1
  9
$SKPOLY
 70
0
  9
$SPLFRAME
 70
0
  9
$SPLINESEGS
 70
8
  9
$SPLINETYPE
 70
6
  9
$SURFTAB1
 70
6
  9
$SURFTAB2
 70
6
  9
$SURFTYPE
 70
6
  9
$SURFU
 70
6
  9
$SURFV
 70
6
  9
$TEXTSIZE
 40
0.2
  9
$TEXTSTYLE
  7
STANDARD
  9
$THICKNESS
 40
0.0
  9
$TILEMODE
 70
1
  9
$TRACEWID
 40
0.05
  9
$TREEDEPTH
 70
3020
  9
$UCSNAME
  2

  9
$UCSORG
 10
0.0
 20
0.0
 30
0.0
  9
$UCSXDIR
 10
1.0
 20
0.0
 30
0.0
  9
$UCSYDIR
 10
0.0
 20
1.0
 30
0.0
  9
$UNITMODE
 70
0
  9
$USERI1
 70
0
  9
$USERI2
 70
0
  9
$USERI3
 70
0
  9
$USERI4
 70
0
  9
$USERI5
 70
0
  9
$USERR1
 40
0.0
  9
$USERR2
 40
0.0
  9
$USERR3
 40
0.0
  9
$USERR4
 40
0.0
  9
$USERR5
 40
0.0
  9
$USRTIMER
 70
1
  9
$VISRETAIN
 70
1
  0
ENDSEC
  0
SECTION
  2
TABLES
  0
TABLE
  2
VPORT
  5
8
100
AcDbSymbolTable
 70
1
  0
VPORT
  5
30
100
AcDbSymbolTableRecord
100
AcDbViewportTableRecord
  2
*Active
 70
0
 10
0.0
 20
0.0
 11
1.0
 21
1.0
 12
286.3055555555554861
 22
148.5
 13
0.0
 23
0.0
 14
10.0
 24
10.0
 15
10.0
 25
10.0
 16
0.0
 26
0.0
 36
1.0
 17
0.0
 27
0.0
 37
0.0
 40
297.0
 41
1.92798353909465
 42
50.0
 43
0.0
 44
0.0
 50
0.0
 51
0.0
 71
0
 72
100
 73
1
 74
3
 75
1
 76
1
 77
0
 78
0
281
0
 65
1
110
0.0
120
0.0
130
0.0
111
1.0
121
0.0
131
0.0
112
0.0
122
1.0
132
0.0
 79
0
146
0.0
  0
ENDTAB
  0
TABLE
  2
LTYPE
  5
5
100
AcDbSymbolTable
 70
41
  0
LTYPE
  5
16
100
AcDbSymbolTableRecord
100
AcDbLinetypeTableRecord
  2
CONTINUOUS
 70
0
  3
Solid line
 72
65
 73
0
 40
0.0
  0
LTYPE
  5
31
100
AcDbSymbolTableRecord
100
AcDbLinetypeTableRecord
  2
ACAD_ISO05W100
 70
0
  3
ISO long-dash double-dot ____ .. ____ .. ____ . 
 72
65
 73
6
 40
33.0000000000000071
 49
24.0
 74
0
 49
-2.9500000000000002
 74
0
 49
0.1
 74
0
 49
-2.9000000000000004
 74
0
 49
0.1
 74
0
 49
-2.9500000000000002
 74
0
  0
LTYPE
  5
32
100
AcDbSymbolTableRecord
100
AcDbLinetypeTableRecord
  2
DASHED
 70
0
  3
Dashed __ __ __ __ __ __ __ __ __ __ __ __ __ _
 72
65
 73
2
 40
19.0499999999999972
 49
12.6999999999999993
 74
0
 49
-6.3499999999999996
 74
0
  0
LTYPE
  5
33
100
AcDbSymbolTableRecord
100
AcDbLinetypeTableRecord
  2
ACAD_ISO03W100
 70
0
  3
ISO dash space __    __    __    __    __    __
 72
65
 73
2
 40
30.0
 49
12.0
 74
0
 49
-18.0
 74
0
  0
LTYPE
  5
34
100
AcDbSymbolTableRecord
100
AcDbLinetypeTableRecord
  2
DASHDOT2
 70
0
  3
Dash dot (.5x) _._._._._._._._._._._._._._._.
 72
65
 73
4
 40
12.6999999999999993
 49
6.3499999999999996
 74
0
 49
-3.125
 74
0
 49
0.1
 74
0
 49
-3.125
 74
0
  0
LTYPE
  5
35
100
AcDbSymbolTableRecord
100
AcDbLinetypeTableRecord
  2
HIDDENX2
 70
0
  3
Hidden (2x) ____ ____ ____ ____ ____ ____ ____ 
 72
65
 73
2
 40
19.0499999999999972
 49
12.6999999999999993
 74
0
 49
-6.3499999999999996
 74
0
  0
LTYPE
  5
36
100
AcDbSymbolTableRecord
100
AcDbLinetypeTableRecord
  2
DOTX2
 70
0
  3
Dot (2x) .  .  .  .  .  .  .  .  .  .  .  .  .  .
 72
65
 73
2
 40
12.6999999999999993
 49
0.1
 74
0
 49
-12.5999999999999996
 74
0
  0
LTYPE
  5
37
100
AcDbSymbolTableRecord
100
AcDbLinetypeTableRecord
  2
DOT
 70
0
  3
Dot . . . . . . . . . . . . . . . . . . . . . . . .
 72
65
 73
2
 40
6.3499999999999996
 49
0.1
 74
0
 49
-6.25
 74
0
  0
LTYPE
  5
38
100
AcDbSymbolTableRecord
100
AcDbLinetypeTableRecord
  2
PHANTOM
 70
0
  3
Phantom ______  __  __  ______  __  __  ______ 
 72
65
 73
6
 40
63.5000000000000071
 49
31.75
 74
0
 49
-6.3499999999999996
 74
0
 49
6.3499999999999996
 74
0
 49
-6.3499999999999996
 74
0
 49
6.3499999999999996
 74
0
 49
-6.3499999999999996
 74
0
  0
LTYPE
  5
39
100
AcDbSymbolTableRecord
100
AcDbLinetypeTableRecord
  2
DOT2
 70
0
  3
Dot (.5x) ........................................
 72
65
 73
2
 40
3.1749999999999998
 49
0.1
 74
0
 49
-3.0749999999999997
 74
0
  0
LTYPE
  5
3A
100
AcDbSymbolTableRecord
100
AcDbLinetypeTableRecord
  2
CENTERX2
 70
0
  3
Center (2x) ________  __  ________  __  _____
 72
65
 73
4
 40
101.6000000000000085
 49
63.5
 74
0
 49
-12.6999999999999993
 74
0
 49
12.6999999999999993
 74
0
 49
-12.6999999999999993
 74
0
  0
LTYPE
  5
3B
100
AcDbSymbolTableRecord
100
AcDbLinetypeTableRecord
  2
PHANTOMX2
 70
0
  3
Phantom (2x) ____________    ____    ____   _
 72
65
 73
6
 40
127.0000000000000142
 49
63.5
 74
0
 49
-12.6999999999999993
 74
0
 49
12.6999999999999993
 74
0
 49
-12.6999999999999993
 74
0
 49
12.6999999999999993
 74
0
 49
-12.6999999999999993
 74
0
  0
LTYPE
  5
3C
100
AcDbSymbolTableRecord
100
AcDbLinetypeTableRecord
  2
ACAD_ISO09W100
 70
0
  3
ISO long-dash double-short-dash ____ __ __ ____
 72
65
 73
6
 40
45.0
 49
24.0
 74
0
 49
-3.0
 74
0
 49
6.0
 74
0
 49
-3.0
 74
0
 49
6.0
 74
0
 49
-3.0
 74
0
  0
LTYPE
  5
3D
100
AcDbSymbolTableRecord
100
AcDbLinetypeTableRecord
  2
ACAD_ISO13W100
 70
0
  3
ISO double-dash double-dot __ __ . . __ __ . . _
 72
65
 73
8
 40
36.0000000000000071
 49
12.0
 74
0
 49
-3.0
 74
0
 49
12.0
 74
0
 49
-2.9500000000000002
 74
0
 49
0.1
 74
0
 49
-2.9000000000000004
 74
0
 49
0.1
 74
0
 49
-2.9500000000000002
 74
0
  0
LTYPE
  5
3E
100
AcDbSymbolTableRecord
100
AcDbLinetypeTableRecord
  2
BORDERX2
 70
0
  3
Border (2x) ____  ____  .  ____  ____  .  ___
 72
65
 73
6
 40
88.8999999999999773
 49
25.3999999999999986
 74
0
 49
-12.6999999999999993
 74
0
 49
25.3999999999999986
 74
0
 49
-12.6499999999999986
 74
0
 49
0.1
 74
0
 49
-12.6499999999999986
 74
0
  0
LTYPE
  5
3F
100
AcDbSymbolTableRecord
100
AcDbLinetypeTableRecord
  2
ACAD_ISO06W100
 70
0
  3
ISO long-dash triple-dot ____ ... ____ ... ____
 72
65
 73
8
 40
36.0000000000000071
 49
24.0
 74
0
 49
-2.9500000000000002
 74
0
 49
0.1
 74
0
 49
-2.9000000000000004
 74
0
 49
0.1
 74
0
 49
-2.9000000000000004
 74
0
 49
0.1
 74
0
 49
-2.9500000000000002
 74
0
  0
LTYPE
  5
40
100
AcDbSymbolTableRecord
100
AcDbLinetypeTableRecord
  2
DIVIDE
 70
0
  3
Divide ____ . . ____ . . ____ . . ____ . . ____
 72
65
 73
6
 40
31.7500000000000036
 49
12.6999999999999993
 74
0
 49
-6.2999999999999998
 74
0
 49
0.1
 74
0
 49
-6.25
 74
0
 49
0.1
 74
0
 49
-6.2999999999999998
 74
0
  0
LTYPE
  5
41
100
AcDbSymbolTableRecord
100
AcDbLinetypeTableRecord
  2
ACAD_ISO10W100
 70
0
  3
ISO dash dot __ . __ . __ . __ . __ . __ . __ . 
 72
65
 73
4
 40
18.0
 49
12.0
 74
0
 49
-2.9500000000000002
 74
0
 49
0.1
 74
0
 49
-2.9500000000000002
 74
0
  0
LTYPE
  5
42
100
AcDbSymbolTableRecord
100
AcDbLinetypeTableRecord
  2
ACAD_ISO15W100
 70
0
  3
ISO double-dash triple-dot __ __ . . . __ __ . .
 72
65
 73
10
 40
39.0000000000000071
 49
12.0
 74
0
 49
-3.0
 74
0
 49
12.0
 74
0
 49
-2.9500000000000002
 74
0
 49
0.1
 74
0
 49
-2.9000000000000004
 74
0
 49
0.1
 74
0
 49
-2.9000000000000004
 74
0
 49
0.1
 74
0
 49
-2.9500000000000002
 74
0
  0
LTYPE
  5
43
100
AcDbSymbolTableRecord
100
AcDbLinetypeTableRecord
  2
ACAD_ISO07W100
 70
0
  3
ISO dot . . . . . . . . . . . . . . . . . . . . 
 72
65
 73
2
 40
3.0
 49
0.1
 74
0
 49
-2.8999999999999999
 74
0
  0
LTYPE
  5
44
100
AcDbSymbolTableRecord
100
AcDbLinetypeTableRecord
  2
DASHEDX2
 70
0
  3
Dashed (2x) ____  ____  ____  ____  ____  ___
 72
65
 73
2
 40
38.0999999999999943
 49
25.3999999999999986
 74
0
 49
-12.6999999999999993
 74
0
  0
LTYPE
  5
45
100
AcDbSymbolTableRecord
100
AcDbLinetypeTableRecord
  2
DIVIDEX2
 70
0
  3
Divide (2x) ________  .  .  ________  .  .  _
 72
65
 73
6
 40
63.5
 49
25.3999999999999986
 74
0
 49
-12.6499999999999986
 74
0
 49
0.1
 74
0
 49
-12.5999999999999979
 74
0
 49
0.1
 74
0
 49
-12.6499999999999986
 74
0
  0
LTYPE
  5
46
100
AcDbSymbolTableRecord
100
AcDbLinetypeTableRecord
  2
DASHDOT
 70
0
  3
Dash dot __ . __ . __ . __ . __ . __ . __ . __
 72
65
 73
4
 40
25.4000000000000021
 49
12.6999999999999993
 74
0
 49
-6.2999999999999998
 74
0
 49
0.1
 74
0
 49
-6.2999999999999998
 74
0
  0
LTYPE
  5
47
100
AcDbSymbolTableRecord
100
AcDbLinetypeTableRecord
  2
ACAD_ISO11W100
 70
0
  3
ISO double-dash dot __ __ . __ __ . __ __ . __ _
 72
65
 73
6
 40
33.0
 49
12.0
 74
0
 49
-3.0
 74
0
 49
12.0
 74
0
 49
-2.9500000000000002
 74
0
 49
0.1
 74
0
 49
-2.9500000000000002
 74
0
  0
LTYPE
  5
48
100
AcDbSymbolTableRecord
100
AcDbLinetypeTableRecord
  2
CENTER2
 70
0
  3
Center (.5x) ___ _ ___ _ ___ _ ___ _ ___ _ ___
 72
65
 73
4
 40
28.5750000000000028
 49
19.0500000000000007
 74
0
 49
-3.1749999999999998
 74
0
 49
3.1749999999999998
 74
0
 49
-3.1749999999999998
 74
0
  0
LTYPE
  5
49
100
AcDbSymbolTableRecord
100
AcDbLinetypeTableRecord
  2
ACAD_ISO04W100
 70
0
  3
ISO long-dash dot ____ . ____ . ____ . ____ . _
 72
65
 73
4
 40
30.0
 49
24.0
 74
0
 49
-2.9500000000000002
 74
0
 49
0.1
 74
0
 49
-2.9500000000000002
 74
0
  0
LTYPE
  5
4A
100
AcDbSymbolTableRecord
100
AcDbLinetypeTableRecord
  2
BORDER
 70
0
  3
Border __ __ . __ __ . __ __ . __ __ . __ __ .
 72
65
 73
6
 40
44.4499999999999957
 49
12.6999999999999993
 74
0
 49
-6.3499999999999996
 74
0
 49
12.6999999999999993
 74
0
 49
-6.2999999999999998
 74
0
 49
0.1
 74
0
 49
-6.2999999999999998
 74
0
  0
LTYPE
  5
4B
100
AcDbSymbolTableRecord
100
AcDbLinetypeTableRecord
  2
DASHDOTX2
 70
0
  3
Dash dot (2x) ____  .  ____  .  ____  .  ___
 72
65
 73
4
 40
50.7999999999999972
 49
25.3999999999999986
 74
0
 49
-12.6499999999999986
 74
0
 49
0.1
 74
0
 49
-12.6499999999999986
 74
0
  0
LTYPE
  5
4C
100
AcDbSymbolTableRecord
100
AcDbLinetypeTableRecord
  2
ACAD_ISO08W100
 70
0
  3
ISO long-dash short-dash ____ __ ____ __ ____ _
 72
65
 73
4
 40
36.0
 49
24.0
 74
0
 49
-3.0
 74
0
 49
6.0
 74
0
 49
-3.0
 74
0
  0
LTYPE
  5
4D
100
AcDbSymbolTableRecord
100
AcDbLinetypeTableRecord
  2
CENTER
 70
0
  3
Center ____ _ ____ _ ____ _ ____ _ ____ _ ____
 72
65
 73
4
 40
50.8000000000000043
 49
31.75
 74
0
 49
-6.3499999999999996
 74
0
 49
6.3499999999999996
 74
0
 49
-6.3499999999999996
 74
0
  0
LTYPE
  5
14
100
AcDbSymbolTableRecord
100
AcDbLinetypeTableRecord
  2
BYBLOCK
 70
0
  3

 72
65
 73
0
 40
0.0
  0
LTYPE
  5
4E
100
AcDbSymbolTableRecord
100
AcDbLinetypeTableRecord
  2
DASHED2
 70
0
  3
Dashed (.5x) _ _ _ _ _ _ _ _ _ _ _ _ _ _ _ _ _ 
 72
65
 73
2
 40
9.5249999999999986
 49
6.3499999999999996
 74
0
 49
-3.1749999999999998
 74
0
  0
LTYPE
  5
4F
100
AcDbSymbolTableRecord
100
AcDbLinetypeTableRecord
  2
DIVIDE2
 70
0
  3
Divide (.5x) __..__..__..__..__..__..__..__.._
 72
65
 73
6
 40
15.8749999999999982
 49
6.3499999999999996
 74
0
 49
-3.125
 74
0
 49
0.1
 74
0
 49
-3.0750000000000002
 74
0
 49
0.1
 74
0
 49
-3.125
 74
0
  0
LTYPE
  5
15
100
AcDbSymbolTableRecord
100
AcDbLinetypeTableRecord
  2
BYLAYER
 70
0
  3

 72
65
 73
0
 40
0.0
  0
LTYPE
  5
50
100
AcDbSymbolTableRecord
100
AcDbLinetypeTableRecord
  2
HIDDEN2
 70
0
  3
Hidden (.5x) _ _ _ _ _ _ _ _ _ _ _ _ _ _ _ _ _ 
 72
65
 73
2
 40
4.7624999999999993
 49
3.1749999999999998
 74
0
 49
-1.5874999999999999
 74
0
  0
LTYPE
  5
51
100
AcDbSymbolTableRecord
100
AcDbLinetypeTableRecord
  2
ACAD_ISO12W100
 70
0
  3
ISO dash double-dot __ . . __ . . __ . . __ . . 
 72
65
 73
6
 40
21.0
 49
12.0
 74
0
 49
-2.9500000000000002
 74
0
 49
0.1
 74
0
 49
-2.9000000000000004
 74
0
 49
0.1
 74
0
 49
-2.9500000000000002
 74
0
  0
LTYPE
  5
52
100
AcDbSymbolTableRecord
100
AcDbLinetypeTableRecord
  2
PHANTOM2
 70
0
  3
Phantom (.5x) ___ _ _ ___ _ _ ___ _ _ ___ _ _
 72
65
 73
6
 40
31.7500000000000036
 49
15.875
 74
0
 49
-3.1749999999999998
 74
0
 49
3.1749999999999998
 74
0
 49
-3.1749999999999998
 74
0
 49
3.1749999999999998
 74
0
 49
-3.1749999999999998
 74
0
  0
LTYPE
  5
53
100
AcDbSymbolTableRecord
100
AcDbLinetypeTableRecord
  2
HIDDEN
 70
0
  3
Hidden __ __ __ __ __ __ __ __ __ __ __ __ __ __
 72
65
 73
2
 40
9.5249999999999986
 49
6.3499999999999996
 74
0
 49
-3.1749999999999998
 74
0
  0
LTYPE
  5
54
100
AcDbSymbolTableRecord
100
AcDbLinetypeTableRecord
  2
ACAD_ISO02W100
 70
0
  3
ISO dash __ __ __ __ __ __ __ __ __ __ __ __ __
 72
65
 73
2
 40
15.0
 49
12.0
 74
0
 49
-3.0
 74
0
  0
LTYPE
  5
55
100
AcDbSymbolTableRecord
100
AcDbLinetypeTableRecord
  2
ACAD_ISO14W100
 70
0
  3
ISO dash triple-dot __ . . . __ . . . __ . . . _
 72
65
 73
8
 40
24.0000000000000036
 49
12.0
 74
0
 49
-2.9500000000000002
 74
0
 49
0.1
 74
0
 49
-2.9000000000000004
 74
0
 49
0.1
 74
0
 49
-2.9000000000000004
 74
0
 49
0.1
 74
0
 49
-2.9500000000000002
 74
0
  0
LTYPE
  5
56
100
AcDbSymbolTableRecord
100
AcDbLinetypeTableRecord
  2
BORDER2
 70
0
  3
Border (.5x) __.__.__.__.__.__.__.__.__.__.__.
 72
65
 73
6
 40
22.2250000000000014
 49
6.3499999999999996
 74
0
 49
-3.1749999999999998
 74
0
 49
6.3499999999999996
 74
0
 49
-3.125
 74
0
 49
0.1
 74
0
 49
-3.125
 74
0
  0
ENDTAB
  0
TABLE
  2
LAYER
  5
2
100
AcDbSymbolTable
 70
1
  0
LAYER
  5
10
100
AcDbSymbolTableRecord
100
AcDbLayerTableRecord
  2
0
 70
0
 62
13
420
10834514
  6
CONTINUOUS
370
5
390
F
  0
ENDTAB
  0
TABLE
  2
STYLE
  5
3
100
AcDbSymbolTable
 70
1
  0
STYLE
  5
57
100
AcDbSymbolTableRecord
100
AcDbTextStyleTableRecord
  2
Standard
 70
0
 40
0.0
 41
1.0
 50
0.0
 71
0
 42
2.5
  3

  4

1001
ACAD
1000
txt
1071
0
  0
ENDTAB
  0
TABLE
  2
VIEW
  5
6
100
AcDbSymbolTable
 70
0
  0
ENDTAB
  0
TABLE
  2
UCS
  5
7
100
AcDbSymbolTable
 70
0
  0
ENDTAB
  0
TABLE
  2
APPID
  5
9
100
AcDbSymbolTable
 70
1
  0
APPID
  5
12
100
AcDbSymbolTableRecord
100
AcDbRegAppTableRecord
  2
ACAD
 70
0
  0
APPID
  5
58
100
AcDbSymbolTableRecord
100
AcDbRegAppTableRecord
  2
QCAD
 70
0
  0
ENDTAB
  0
TABLE
  2
DIMSTYLE
  5
A
100
AcDbSymbolTable
 70
1
100
AcDbDimStyleTable
 71
0
  0
DIMSTYLE
105
27
100
AcDbSymbolTableRecord
100
AcDbDimStyleTableRecord
  2
Standard
 41
0.18
 42
0.0625
 43
3.75
 44
0.18
 70
0
 73
0
 74
0
 77
1
 78
8
140
0.18
141
2.5
143
0.03937007874016
147
0.09
171
3
172
1
271
2
272
2
274
3
278
44
283
0
284
8
340
57
  0
ENDTAB
  0
TABLE
  2
BLOCK_RECORD
  5
1
100
AcDbSymbolTable
 70
1
  0
BLOCK_RECORD
  5
1F
100
AcDbSymbolTableRecord
100
AcDbBlockTableRecord
  2
*Model_Space
340
22
  0
BLOCK_RECORD
  5
1B
100
AcDbSymbolTableRecord
100
AcDbBlockTableRecord
  2
*Paper_Space
340
1E
  0
BLOCK_RECORD
  5
23
100
AcDbSymbolTableRecord
100
AcDbBlockTableRecord
  2
*Paper_Space0
340
26
  0
ENDTAB
  0
ENDSEC
  0
SECTION
  2
BLOCKS
  0
BLOCK
  5
20
100
AcDbEntity
  8
0
100
AcDbBlockBegin
  2
*Model_Space
 70
0
 10
0.0
 20
0.0
 30
0.0
  3
*Model_Space
  1

  0
ENDBLK
  5
21
100
AcDbEntity
  8
0
100
AcDbBlockEnd
  0
BLOCK
  5
1C
100
AcDbEntity
 67
1
  8
0
100
AcDbBlockBegin
  2
*Paper_Space
 70
0
 10
0.0
 20
0.0
 30
0.0
  3
*Paper_Space
  1

  0
ENDBLK
  5
1D
100
AcDbEntity
 67
1
  8
0
100
AcDbBlockEnd
  0
BLOCK
  5
24
100
AcDbEntity
  8
0
100
AcDbBlockBegin
  2
*Paper_Space0
 70
0
 10
0.0
 20
0.0
 30
0.0
  3
*Paper_Space0
  1

  0
ENDBLK
  5
25
100
AcDbEntity
  8
0
100
AcDbBlockEnd
  0
ENDSEC
  0
SECTION
  2
ENTITIES
  0
LINE
  5
59
100
AcDbEntity
  8
0
 62
256
370
-1
 48
1.0
  6
BYLAYER
100
AcDbLine
 10
84.000108325571432
 20
10.9999999999812417
 30
0.0
 11
74.0001083256520928
 21
10.9999999999802753
 31
0.0
  0
ARC
  5
5A
100
AcDbEntity
  8
0
 62
43
420
10850642
370
-1
 48
1.0
  6
BYLAYER
100
AcDbCircle
 10
191.2242989696909206
 20
301.4179918709042454
 30
0.0
 40
5.0000000000000266
100
AcDbArc
 50
269.9999992775810824
 51
0.0
  0
LINE
  5
5B
100
AcDbEntity
  8
0
 62
256
370
-1
 48
1.0
  6
BYLAYER
100
AcDbLine
 10
216.9996770677996949
 20
485.3000000000027967
 30
0.0
 11
216.9996770677994107
 21
491.300000000000864
 31
0.0
  0
LINE
  5
5C
100
AcDbEntity
  8
0
 62
43
420
10850642
370
-1
 48
1.0
  6
BYLAYER
100
AcDbLine
 10
196.224299754219885
 20
363.639756292089146
 30
0.0
 11
196.2242989696909774
 21
301.4179918078612559
 31
0.0
  0
LINE
  5
5D
100
AcDbEntity
  8
0
 62
256
370
-1
 48
1.0
  6
BYLAYER
100
AcDbLine
 10
226.9996770677182951
 20
491.3000000000012619
 30
0.0
 11
216.9996770677994107
 21
491.300000000000864
 31
0.0
  0
ARC
  5
5E
100
AcDbEntity
  8
0
 62
43
420
10850642
370
-1
 48
1.0
  6
BYLAYER
100
AcDbCircle
 10
199.219565308561215
 20
355.5037558476759614
 30
0.0
 40
11.9566020092835608
100
AcDbArc
 50
18.7688572731086509
 51
85.179646044927992
  0
LINE
  5
5F
100
AcDbEntity
  8
0
 62
256
370
-1
 48
1.0
  6
BYLAYER
100
AcDbLine
 10
226.9996770677182951
 20
491.3000000000012619
 30
0.0
 11
226.9996770677190057
 21
485.3000000000033651
 31
0.0
  0
ARC
  5
60
100
AcDbEntity
  8
0
 62
43
420
10850642
370
-1
 48
1.0
  6
BYLAYER
100
AcDbCircle
 10
272.2819027826426463
 20
228.9538860021342543
 30
0.0
 40
11.9579472478329194
100
AcDbArc
 50
334.8259268791724139
 51
41.2295359384120985
  0
LINE
  5
61
100
AcDbEntity
  8
0
 62
256
370
-1
 48
1.0
  6
BYLAYER
100
AcDbLine
 10
226.9996770677190057
 20
485.3000000000033651
 30
0.0
 11
216.9996770677996949
 21
485.3000000000027967
 31
0.0
  0
LINE
  5
62
100
AcDbEntity
  8
0
 62
43
420
10850642
370
-1
 48
1.0
  6
BYLAYER
100
AcDbLine
 10
217.115509383308904
 20
251.5735531014805986
 30
0.0
 11
199.6155086286046014
 21
221.2626635444405281
 31
0.0
  0
LINE
  5
63
100
AcDbEntity
  8
0
 62
256
370
-1
 48
1.0
  6
BYLAYER
100
AcDbLine
 10
74.0001083256525476
 20
485.3000000000939735
 30
0.0
 11
74.0001083256519792
 21
491.300000000092723
 31
0.0
  0
ARC
  5
64
100
AcDbEntity
  8
0
 62
43
420
10850642
370
-1
 48
1.0
  6
BYLAYER
100
AcDbCircle
 10
200.2243004431614395
 20
363.4115638208477321
 30
0.0
 40
4.0065043760695032
100
AcDbArc
 50
89.9999988441289531
 51
176.7349231641190954
  0
LINE
  5
65
100
AcDbEntity
  8
0
 62
256
370
-1
 48
1.0
  6
BYLAYER
100
AcDbLine
 10
84.0001083255711904
 20
491.3000000000940304
 30
0.0
 11
84.0001083255718726
 21
485.3000000000947693
 31
0.0
  0
ARC
  5
66
100
AcDbEntity
  8
0
 62
43
420
10850642
370
-1
 48
1.0
  6
BYLAYER
100
AcDbCircle
 10
554.4368991639569231
 20
476.2222969956490033
 30
0.0
 40
363.2130696755920098
100
AcDbArc
 50
198.7700683790729101
 51
221.2299328937795053
  0
ARC
  5
67
100
AcDbEntity
  8
0
 62
256
370
-1
 48
1.0
  6
BYLAYER
100
AcDbCircle
 10
5.9999567046421758
 20
490.3001525701295122
 30
0.0
 40
5.9998471744593491
100
AcDbArc
 50
89.9983916278512197
 51
179.9998510415758517
  0
ARC
  5
68
100
AcDbEntity
  8
0
 62
43
420
10850642
370
-1
 48
1.0
  6
BYLAYER
100
AcDbCircle
 10
279.7611080641000854
 20
225.4489668847243422
 30
0.0
 40
3.698244862074981
100
AcDbArc
 50
239.999999277580315
 51
334.6801792759455338
  0
LINE
  5
69
100
AcDbEntity
  8
0
 62
256
370
-1
 48
1.0
  6
BYLAYER
100
AcDbLine
 10
24.00010832565372
 20
4.9999999999765805
 30
0.0
 11
24.0001083255851171
 21
10.9999999999275246
 31
0.0
  0
LINE
  5
6A
100
AcDbEntity
  8
0
 62
43
420
10850642
370
-1
 48
1.0
  6
BYLAYER
100
AcDbLine
 10
223.9456364253064464
 20
253.4036800342845197
 30
0.0
 11
277.9119855926800824
 21
222.2461929080669449
 31
0.0
  0
LINE
  5
6B
100
AcDbEntity
  8
0
 62
256
370
-1
 48
1.0
  6
BYLAYER
100
AcDbLine
 10
370.09988795947379
 20
13.9999999999806164
 30
0.0
 11
370.0998879594740743
 21
27.3000000000132559
 31
0.0
  0
ARC
  5
6C
100
AcDbEntity
  8
0
 62
43
420
10850642
370
-1
 48
1.0
  6
BYLAYER
100
AcDbCircle
 10
221.4456363707096216
 20
249.0735530468837453
 30
0.0
 40
5.0000000000000258
100
AcDbArc
 50
59.9999992775809829
 51
149.999999277580514
  0
LINE
  5
6D
100
AcDbEntity
  8
0
 62
256
370
-1
 48
1.0
  6
BYLAYER
100
AcDbLine
 10
24.000108325585181
 20
491.300000000040427
 30
0.0
 11
34.0001083256532084
 21
491.3000000000905061
 31
0.0
  0
ARC
  5
6E
100
AcDbEntity
  8
0
 62
43
420
10850642
370
-1
 48
1.0
  6
BYLAYER
100
AcDbCircle
 10
203.9456356160052906
 20
218.7626634898437032
 30
0.0
 40
5.0000000000000284
100
AcDbArc
 50
149.9999992775808551
 51
239.9999992775809119
  0
LINE
  5
6F
100
AcDbEntity
  8
0
 62
256
370
-1
 48
1.0
  6
BYLAYER
100
AcDbLine
 10
10.9998700674188239
 20
342.200000000394823
 30
0.0
 11
4.9998700674182981
 21
342.2000000003948799
 31
0.0
  0
LINE
  5
70
100
AcDbEntity
  8
0
 62
43
420
10850642
370
-1
 48
1.0
  6
BYLAYER
100
AcDbLine
 10
255.3312638807777546
 20
183.3216535809070251
 30
0.0
 11
201.4456355614084941
 21
214.4325365024429857
 31
0.0
  0
LINE
  5
71
100
AcDbEntity
  8
0
 62
256
370
-1
 48
1.0
  6
BYLAYER
100
AcDbLine
 10
311.0057396696169576
 20
86.0000000000642331
 30
0.0
 11
311.005739669615707
 21
76.0000000000639488
 31
0.0
  0
ARC
  5
72
100
AcDbEntity
  8
0
 62
43
420
10850642
370
-1
 48
1.0
  6
BYLAYER
100
AcDbCircle
 10
253.1336430592596685
 20
179.9716476047490801
 30
0.0
 40
4.0065043760695032
100
AcDbArc
 50
329.9999988441293226
 51
56.7349231641196141
  0
LINE
  5
73
100
AcDbEntity
  8
0
 62
256
370
-1
 48
1.0
  6
BYLAYER
100
AcDbLine
 10
311.005739669615707
 20
76.0000000000639488
 30
0.0
 11
305.0057396696157639
 21
76.0000000000643468
 31
0.0
  0
ARC
  5
74
100
AcDbEntity
  8
0
 62
43
420
10850642
370
-1
 48
1.0
  6
BYLAYER
100
AcDbCircle
 10
246.7876480335438032
 20
184.7956777419735772
 30
0.0
 40
11.9566020092835608
100
AcDbArc
 50
258.7696714512156859
 51
325.1796460449281199
  0
LINE
  5
75
100
AcDbEntity
  8
0
 62
256
370
-1
 48
1.0
  6
BYLAYER
100
AcDbLine
 10
305.0057396696209366
 20
214.1000000000723276
 30
0.0
 11
311.0057396696205387
 21
214.1000000000717023
 31
0.0
  0
ARC
  5
76
100
AcDbEntity
  8
0
 62
43
420
10850642
370
-1
 48
1.0
  6
BYLAYER
100
AcDbCircle
 10
173.7244339760040646
 20
-183.1910519787300018
 30
0.0
 40
363.213071041748492
100
AcDbArc
 50
78.7700685051997027
 51
101.2299329774713783
  0
LINE
  5
77
100
AcDbEntity
  8
0
 62
256
370
-1
 48
1.0
  6
BYLAYER
100
AcDbLine
 10
389.9992908011219015
 20
490.2998918070624654
 30
0.0
 11
389.9998806518075867
 21
6.0000000001841158
 31
0.0
  0
ARC
  5
78
100
AcDbEntity
  8
0
 62
43
420
10850642
370
-1
 48
1.0
  6
BYLAYER
100
AcDbCircle
 10
100.6610771646494413
 20
184.7967723523180439
 30
0.0
 40
11.9579472478329105
100
AcDbArc
 50
214.8259268791721865
 51
281.2299329774713215
  0
ARC
  5
79
100
AcDbEntity
  8
0
 62
256
370
-1
 48
1.0
  6
BYLAYER
100
AcDbCircle
 10
383.999887959470982
 20
5.9999926925221985
 30
0.0
 40
5.9999926923411797
100
AcDbArc
 50
270.0000000000292744
 51
0.000069780001811
  0
ARC
  5
7A
100
AcDbEntity
  8
0
 62
43
420
10850642
370
-1
 48
1.0
  6
BYLAYER
100
AcDbCircle
 10
93.8861255300340645
 20
180.0720501371621936
 30
0.0
 40
3.698244862074981
100
AcDbArc
 50
119.999999277580784
 51
214.6801792759459033
  0
LINE
  5
7B
100
AcDbEntity
  8
0
 62
43
420
10850642
370
-1
 48
1.0
  6
BYLAYER
100
AcDbLine
 10
146.0033530924568765
 20
214.4323099257872514
 30
0.0
 11
92.0370031393790669
 21
183.2748241604492421
 31
0.0
  0
LINE
  5
7C
100
AcDbEntity
  8
0
 62
256
370
-1
 48
1.0
  6
BYLAYER
100
AcDbLine
 10
5.9999986430292624
 20
0.0
 30
0.0
 11
383.9998879594741084
 21
0.0000000001813305
 31
0.0
  0
ARC
  5
7D
100
AcDbEntity
  8
0
 62
43
420
10850642
370
-1
 48
1.0
  6
BYLAYER
100
AcDbCircle
 10
143.503353147053673
 20
218.7624369762309584
 30
0.0
 40
5.0000000000000284
100
AcDbArc
 50
299.9999992775809119
 51
29.9999992775806241
  0
ARC
  5
7E
100
AcDbEntity
  8
0
 62
256
370
-1
 48
1.0
  6
BYLAYER
100
AcDbCircle
 10
5.9999986430264238
 20
5.9999986430265153
 30
0.0
 40
5.9999986430264816
100
AcDbArc
 50
179.9999870518815612
 51
270.0000000000276827
  0
LINE
  5
7F
100
AcDbEntity
  8
0
 62
43
420
10850642
370
-1
 48
1.0
  6
BYLAYER
100
AcDbLine
 10
130.3334802071484262
 20
251.5733269199749884
 30
0.0
 11
147.83348019749738
 21
221.2624369216341336
 31
0.0
  0
LINE
  5
80
100
AcDbEntity
  8
0
 62
256
370
-1
 48
1.0
  6
BYLAYER
100
AcDbLine
 10
0.0001095302029009
 20
490.3001681686369011
 30
0.0
 11
-0.0000000000000871
 21
5.9999999999970441
 31
0.0
  0
ARC
  5
81
100
AcDbEntity
  8
0
 62
43
420
10850642
370
-1
 48
1.0
  6
BYLAYER
100
AcDbCircle
 10
126.0033531567047476
 20
249.0733269745718133
 30
0.0
 40
5.0000000000000266
100
AcDbArc
 50
29.9999992775809829
 51
119.9999992775806277
  0
LINE
  5
82
100
AcDbEntity
  8
0
 62
256
370
-1
 48
1.0
  6
BYLAYER
100
AcDbLine
 10
383.9992328613470818
 20
496.2999999999980787
 30
0.0
 11
6.0001251286894615
 21
496.2999997422247134
 31
0.0
  0
LINE
  5
83
100
AcDbEntity
  8
0
 62
43
420
10850642
370
-1
 48
1.0
  6
BYLAYER
100
AcDbLine
 10
69.6177241074032906
 20
222.2925724623234771
 30
0.0
 11
123.503353211301544
 21
253.4034540250154919
 31
0.0
  0
ARC
  5
84
100
AcDbEntity
  8
0
 62
256
370
-1
 48
1.0
  6
BYLAYER
100
AcDbCircle
 10
383.9992328613457744
 20
490.2999420600120857
 30
0.0
 40
6.000057939986803
100
AcDbArc
 50
359.9995201245238263
 51
89.9999999999845102
  0
ARC
  5
85
100
AcDbEntity
  8
0
 62
43
420
10850642
370
-1
 48
1.0
  6
BYLAYER
100
AcDbCircle
 10
67.8153442399798791
 20
225.8707709097227792
 30
0.0
 40
4.0065043760695023
100
AcDbArc
 50
209.9999988441290952
 51
296.7349231641192659
  0
CIRCLE
  5
86
100
AcDbEntity
  8
0
 62
256
370
-1
 48
1.0
  6
BYLAYER
100
AcDbCircle
 10
273.5311146517748853
 20
436.300000000089085
 30
0.0
 40
1.4999999999999289
  0
ARC
  5
87
100
AcDbEntity
  8
0
 62
43
420
10850642
370
-1
 48
1.0
  6
BYLAYER
100
AcDbCircle
 10
75.1660744002959689
 20
228.954548745670138
 30
0.0
 40
11.9566020092835608
100
AcDbArc
 50
138.7700683651598865
 51
205.1796460449280062
  0
CIRCLE
  5
88
100
AcDbEntity
  8
0
 62
256
370
-1
 48
1.0
  6
BYLAYER
100
AcDbCircle
 10
203.5311146517749705
 20
436.300000000094883
 30
0.0
 40
1.4999999999999289
  0
ARC
  5
89
100
AcDbEntity
  8
0
 62
43
420
10850642
370
-1
 48
1.0
  6
BYLAYER
100
AcDbCircle
 10
-206.9880457685670194
 20
476.2222910591957543
 30
0.0
 40
363.2130714947103911
100
AcDbArc
 50
318.7700683651601707
 51
341.2299328233620486
  0
CIRCLE
  5
8A
100
AcDbEntity
  8
0
 62
256
370
-1
 48
1.0
  6
BYLAYER
100
AcDbCircle
 10
196.9996770678033897
 20
488.2999999999933607
 30
0.0
 40
1.5000000000000191
  0
ARC
  5
8B
100
AcDbEntity
  8
0
 62
43
420
10850642
370
-1
 48
1.0
  6
BYLAYER
100
AcDbCircle
 10
148.2303077951087289
 20
355.5033239808674352
 30
0.0
 40
11.9579472478329105
100
AcDbArc
 50
94.8259268791722292
 51
161.2307459343889491
  0
LINE
  5
8C
100
AcDbEntity
  8
0
 62
256
370
-1
 48
1.0
  6
BYLAYER
100
AcDbLine
 10
84.0001083255711904
 20
491.3000000000940304
 30
0.0
 11
74.0001083256519792
 21
491.300000000092723
 31
0.0
  0
ARC
  5
8D
100
AcDbEntity
  8
0
 62
43
420
10850642
370
-1
 48
1.0
  6
BYLAYER
100
AcDbCircle
 10
147.5260541482667804
 20
363.7329653134331693
 30
0.0
 40
3.698244862074981
100
AcDbArc
 50
359.9999992775809119
 51
94.6801792759461733
  0
LINE
  5
8E
100
AcDbEntity
  8
0
 62
256
370
-1
 48
1.0
  6
BYLAYER
100
AcDbLine
 10
84.0001083255718726
 20
485.3000000000947693
 30
0.0
 11
74.0001083256525476
 21
485.3000000000939735
 31
0.0
  0
LINE
  5
8F
100
AcDbEntity
  8
0
 62
43
420
10850642
370
-1
 48
1.0
  6
BYLAYER
100
AcDbLine
 10
151.2242982246375789
 20
301.4179923752479908
 30
0.0
 11
151.2242990103417242
 21
363.7329652668034896
 31
0.0
  0
LINE
  5
90
100
AcDbEntity
  8
0
 62
256
370
-1
 48
1.0
  6
BYLAYER
100
AcDbLine
 10
176.9996770678008886
 20
485.2999999999981924
 30
0.0
 11
166.9996770678008033
 21
485.2999999999976808
 31
0.0
  0
ARC
  5
91
100
AcDbEntity
  8
0
 62
43
420
10850642
370
-1
 48
1.0
  6
BYLAYER
100
AcDbCircle
 10
156.2242982246376073
 20
301.4179923122050582
 30
0.0
 40
5.0000000000000284
100
AcDbArc
 50
179.9999992775811108
 51
269.9999992775809119
  0
LINE
  5
92
100
AcDbEntity
  8
0
 62
256
370
-1
 48
1.0
  6
BYLAYER
100
AcDbLine
 10
176.9996770678004907
 20
491.2999999999975671
 30
0.0
 11
176.9996770678008886
 21
485.2999999999981924
 31
0.0
  0
LINE
  5
93
100
AcDbEntity
  8
0
 62
43
420
10850642
370
-1
 48
1.0
  6
BYLAYER
100
AcDbLine
 10
191.2242989066479595
 20
296.4179918709041885
 30
0.0
 11
156.2242981615946178
 21
296.4179923122050013
 31
0.0
  0
LINE
  5
94
100
AcDbEntity
  8
0
 62
256
370
-1
 48
1.0
  6
BYLAYER
100
AcDbLine
 10
176.9996770678004907
 20
491.2999999999975671
 30
0.0
 11
166.9996770678000075
 21
491.2999999999972829
 31
0.0
  0
CIRCLE
  5
95
100
AcDbEntity
  8
0
 62
43
420
10850642
370
-1
 48
1.0
  6
BYLAYER
100
AcDbCircle
 10
94.7427232647601301
 20
180.2181719319644344
 30
0.0
 40
1.499999999999996
  0
LINE
  5
96
100
AcDbEntity
  8
0
 62
256
370
-1
 48
1.0
  6
BYLAYER
100
AcDbLine
 10
166.9996770678008033
 20
485.2999999999976808
 30
0.0
 11
166.9996770678000075
 21
491.2999999999972829
 31
0.0
  0
CIRCLE
  5
97
100
AcDbEntity
  8
0
 62
43
420
10850642
370
-1
 48
1.0
  6
BYLAYER
100
AcDbCircle
 10
200.2245580276860437
 20
362.9180690169343961
 30
0.0
 40
1.499999999999996
  0
LINE
  5
98
100
AcDbEntity
  8
0
 62
256
370
-1
 48
1.0
  6
BYLAYER
100
AcDbLine
 10
4.9998700674183212
 20
460.3000000000354817
 30
0.0
 11
10.9998700674185912
 21
460.3000000000346859
 31
0.0
  0
CIRCLE
  5
99
100
AcDbEntity
  8
0
 62
43
420
10850642
370
-1
 48
1.0
  6
BYLAYER
100
AcDbCircle
 10
147.2245580276857595
 20
362.9180682271778551
 30
0.0
 40
1.4999999999999969
  0
LINE
  5
9A
100
AcDbEntity
  8
0
 62
256
370
-1
 48
1.0
  6
BYLAYER
100
AcDbLine
 10
10.9998700674185912
 20
460.3000000000346859
 30
0.0
 11
10.9998700674186782
 21
470.2999999999528882
 31
0.0
  0
CIRCLE
  5
9B
100
AcDbEntity
  8
0
 62
43
420
10850642
370
-1
 48
1.0
  6
BYLAYER
100
AcDbCircle
 10
147.2244300698574193
 20
332.9178458209557903
 30
0.0
 40
1.499999999999998
  0
LINE
  5
9C
100
AcDbEntity
  8
0
 62
256
370
-1
 48
1.0
  6
BYLAYER
100
AcDbLine
 10
10.9998700674186782
 20
470.2999999999528882
 30
0.0
 11
4.9998700674182297
 21
470.2999999999528882
 31
0.0
  0
CIRCLE
  5
9D
100
AcDbEntity
  8
0
 62
43
420
10850642
370
-1
 48
1.0
  6
BYLAYER
100
AcDbCircle
 10
200.22455847471781
 20
332.918069016934453
 30
0.0
 40
1.4999999999999949
  0
LINE
  5
9E
100
AcDbEntity
  8
0
 62
256
370
-1
 48
1.0
  6
BYLAYER
100
AcDbLine
 10
4.9998700674182297
 20
470.2999999999528882
 30
0.0
 11
4.9998700674183212
 21
460.3000000000354817
 31
0.0
  0
CIRCLE
  5
9F
100
AcDbEntity
  8
0
 62
43
420
10850642
370
-1
 48
1.0
  6
BYLAYER
100
AcDbCircle
 10
120.7234856018090738
 20
195.2181715448235764
 30
0.0
 40
1.499999999999994
  0
LINE
  5
A0
100
AcDbEntity
  8
0
 62
256
370
-1
 48
1.0
  6
BYLAYER
100
AcDbLine
 10
24.000108325653521
 20
485.3000000000893124
 30
0.0
 11
24.000108325585181
 21
491.300000000040427
 31
0.0
  0
CIRCLE
  5
A1
100
AcDbEntity
  8
0
 62
43
420
10850642
370
-1
 48
1.0
  6
BYLAYER
100
AcDbCircle
 10
68.2427239487099655
 20
226.117518727418144
 30
0.0
 40
1.499999999999994
  0
LINE
  5
A2
100
AcDbEntity
  8
0
 62
256
370
-1
 48
1.0
  6
BYLAYER
100
AcDbLine
 10
34.0001083256540255
 20
485.3000000000906198
 30
0.0
 11
24.000108325653521
 21
485.3000000000893124
 31
0.0
  0
CIRCLE
  5
A3
100
AcDbEntity
  8
0
 62
43
420
10850642
370
-1
 48
1.0
  6
BYLAYER
100
AcDbCircle
 10
94.2234862857591224
 20
241.1175183402772859
 30
0.0
 40
1.499999999999998
  0
LINE
  5
A4
100
AcDbEntity
  8
0
 62
256
370
-1
 48
1.0
  6
BYLAYER
100
AcDbLine
 10
34.0001083256532084
 20
491.3000000000905061
 30
0.0
 11
34.0001083256540255
 21
485.3000000000906198
 31
0.0
  0
CIRCLE
  5
A5
100
AcDbEntity
  8
0
 62
43
420
10850642
370
-1
 48
1.0
  6
BYLAYER
100
AcDbCircle
 10
279.2062640103912372
 20
226.1177413864208461
 30
0.0
 40
1.499999999999982
  0
LINE
  5
A6
100
AcDbEntity
  8
0
 62
256
370
-1
 48
1.0
  6
BYLAYER
100
AcDbLine
 10
34.0001083256537342
 20
4.99999999997749
 30
0.0
 11
24.00010832565372
 21
4.9999999999765805
 31
0.0
  0
CIRCLE
  5
A7
100
AcDbEntity
  8
0
 62
43
420
10850642
370
-1
 48
1.0
  6
BYLAYER
100
AcDbCircle
 10
253.2255021203732213
 20
241.1177417735617041
 30
0.0
 40
1.4999999999999989
  0
LINE
  5
A8
100
AcDbEntity
  8
0
 62
256
370
-1
 48
1.0
  6
BYLAYER
100
AcDbLine
 10
34.0001083256534002
 20
10.99999999997749
 30
0.0
 11
34.0001083256537342
 21
4.99999999997749
 31
0.0
  0
CIRCLE
  5
A9
100
AcDbEntity
  8
0
 62
43
420
10850642
370
-1
 48
1.0
  6
BYLAYER
100
AcDbCircle
 10
252.7062633264420697
 20
180.2183953807235923
 30
0.0
 40
1.5002224104784589
  0
LINE
  5
AA
100
AcDbEntity
  8
0
 62
256
370
-1
 48
1.0
  6
BYLAYER
100
AcDbLine
 10
24.0001083255851171
 20
10.9999999999275246
 30
0.0
 11
34.0001083256534002
 21
10.99999999997749
 31
0.0
  0
CIRCLE
  5
AB
100
AcDbEntity
  8
0
 62
43
420
10850642
370
-1
 48
1.0
  6
BYLAYER
100
AcDbCircle
 10
226.7253730294161471
 20
195.2181733628833058
 30
0.0
 40
1.4999999999999869
  0
CIRCLE
  5
AC
100
AcDbEntity
  8
0
 62
256
370
-1
 48
1.0
  6
BYLAYER
100
AcDbCircle
 10
54.0001083256562424
 20
7.9999999999731699
 30
0.0
 40
1.50000000000002
  0
CIRCLE
  5
AD
100
AcDbEntity
  8
0
 62
43
420
10850642
370
-1
 48
1.0
  6
BYLAYER
100
AcDbCircle
 10
173.7244292474669578
 20
256.4179941117732255
 30
0.0
 40
1.4999999999999969
  0
LINE
  5
AE
100
AcDbEntity
  8
0
 62
256
370
-1
 48
1.0
  6
BYLAYER
100
AcDbLine
 10
74.0001083256527039
 20
4.9999999999812417
 30
0.0
 11
84.0001083255719578
 21
4.999999999982208
 31
0.0
  0
LINE
  5
AF
100
AcDbEntity
  8
0
 62
256
370
-1
 48
1.0
  6
BYLAYER
100
AcDbLine
 10
84.000108325571432
 20
10.9999999999812417
 30
0.0
 11
84.0001083255719578
 21
4.999999999982208
 31
0.0
  0
LINE
  5
B0
100
AcDbEntity
  8
0
 62
256
370
-1
 48
1.0
  6
BYLAYER
100
AcDbLine
 10
74.0001083256520928
 20
10.9999999999802753
 30
0.0
 11
74.0001083256527039
 21
4.9999999999812417
 31
0.0
  0
LINE
  5
B1
100
AcDbEntity
  8
0
 62
256
370
-1
 48
1.0
  6
BYLAYER
100
AcDbLine
 10
176.9996770678007181
 20
4.9999999999820943
 30
0.0
 11
166.9996770678006897
 21
4.9999999999812985
 31
0.0
  0
LINE
  5
B2
100
AcDbEntity
  8
0
 62
256
370
-1
 48
1.0
  6
BYLAYER
100
AcDbLine
 10
176.9996770678007181
 20
4.9999999999820943
 30
0.0
 11
176.9996770678004054
 21
10.999999999982208
 31
0.0
  0
LINE
  5
B3
100
AcDbEntity
  8
0
 62
256
370
-1
 48
1.0
  6
BYLAYER
100
AcDbLine
 10
176.9996770678004054
 20
10.999999999982208
 30
0.0
 11
166.9996770678001781
 21
10.9999999999812417
 31
0.0
  0
LINE
  5
B4
100
AcDbEntity
  8
0
 62
256
370
-1
 48
1.0
  6
BYLAYER
100
AcDbLine
 10
166.9996770678006897
 20
4.9999999999812985
 30
0.0
 11
166.9996770678001781
 21
10.9999999999812417
 31
0.0
  0
CIRCLE
  5
B5
100
AcDbEntity
  8
0
 62
256
370
-1
 48
1.0
  6
BYLAYER
100
AcDbCircle
 10
196.999677067803276
 20
7.9999999999775468
 30
0.0
 40
1.5000000000000191
  0
LINE
  5
B6
100
AcDbEntity
  8
0
 62
256
370
-1
 48
1.0
  6
BYLAYER
100
AcDbLine
 10
226.9996770677187499
 20
4.9999999999866986
 30
0.0
 11
216.9996770677996949
 21
4.9999999999859597
 31
0.0
  0
LINE
  5
B7
100
AcDbEntity
  8
0
 62
256
370
-1
 48
1.0
  6
BYLAYER
100
AcDbLine
 10
226.9996770677185793
 20
10.9999999999856186
 30
0.0
 11
226.9996770677187499
 21
4.9999999999866986
 31
0.0
  0
LINE
  5
B8
100
AcDbEntity
  8
0
 62
256
370
-1
 48
1.0
  6
BYLAYER
100
AcDbLine
 10
226.9996770677185793
 20
10.9999999999856186
 30
0.0
 11
216.9996770677994391
 21
10.9999999999847091
 31
0.0
  0
LINE
  5
B9
100
AcDbEntity
  8
0
 62
256
370
-1
 48
1.0
  6
BYLAYER
100
AcDbLine
 10
216.9996770677996949
 20
4.9999999999859597
 30
0.0
 11
216.9996770677994391
 21
10.9999999999847091
 31
0.0
  0
CIRCLE
  5
BA
100
AcDbEntity
  8
0
 62
256
370
-1
 48
1.0
  6
BYLAYER
100
AcDbCircle
 10
54.0001083256563206
 20
488.300000000085447
 30
0.0
 40
1.5000000000000191
  0
LINE
  5
BB
100
AcDbEntity
  8
0
 62
256
370
-1
 48
1.0
  6
BYLAYER
100
AcDbLine
 10
319.9940362335652253
 20
485.3000000000199634
 30
0.0
 11
309.9940362335652253
 21
485.3000000000171212
 31
0.0
  0
LINE
  5
BC
100
AcDbEntity
  8
0
 62
256
370
-1
 48
1.0
  6
BYLAYER
100
AcDbLine
 10
319.9940362335652821
 20
491.3000000000176328
 30
0.0
 11
319.9940362335652253
 21
485.3000000000199634
 31
0.0
  0
LINE
  5
BD
100
AcDbEntity
  8
0
 62
256
370
-1
 48
1.0
  6
BYLAYER
100
AcDbLine
 10
319.9940362335652821
 20
491.3000000000176328
 30
0.0
 11
309.9940362335643727
 21
491.3000000000167802
 31
0.0
  0
LINE
  5
BE
100
AcDbEntity
  8
0
 62
256
370
-1
 48
1.0
  6
BYLAYER
100
AcDbLine
 10
309.9940362335652253
 20
485.3000000000171212
 30
0.0
 11
309.9940362335643727
 21
491.3000000000167802
 31
0.0
  0
CIRCLE
  5
BF
100
AcDbEntity
  8
0
 62
256
370
-1
 48
1.0
  6
BYLAYER
100
AcDbCircle
 10
339.9940362335681243
 20
488.3000000000125169
 30
0.0
 40
1.500000000000018
  0
LINE
  5
C0
100
AcDbEntity
  8
0
 62
256
370
-1
 48
1.0
  6
BYLAYER
100
AcDbLine
 10
369.9998879594741084
 20
4.9999999999910756
 30
0.0
 11
369.9998879595318613
 21
10.9999999999857891
 31
0.0
  0
LINE
  5
C1
100
AcDbEntity
  8
0
 62
256
370
-1
 48
1.0
  6
BYLAYER
100
AcDbLine
 10
369.9998879595318613
 20
10.9999999999857891
 30
0.0
 11
359.9998879595318613
 21
10.9999999999856186
 31
0.0
  0
LINE
  5
C2
100
AcDbEntity
  8
0
 62
256
370
-1
 48
1.0
  6
BYLAYER
100
AcDbLine
 10
359.9998879594740515
 20
4.999999999991303
 30
0.0
 11
359.9998879595318613
 21
10.9999999999856186
 31
0.0
  0
LINE
  5
C3
100
AcDbEntity
  8
0
 62
256
370
-1
 48
1.0
  6
BYLAYER
100
AcDbLine
 10
359.9998879594740515
 20
4.999999999991303
 30
0.0
 11
369.9998879594741084
 21
4.9999999999910756
 31
0.0
  0
LINE
  5
C4
100
AcDbEntity
  8
0
 62
256
370
-1
 48
1.0
  6
BYLAYER
100
AcDbLine
 10
359.9940362335643727
 20
485.3000000000237151
 30
0.0
 11
359.9940362335640884
 21
491.3000000000216687
 31
0.0
  0
LINE
  5
C5
100
AcDbEntity
  8
0
 62
256
370
-1
 48
1.0
  6
BYLAYER
100
AcDbLine
 10
369.9940362334834845
 20
485.300000000022635
 30
0.0
 11
359.9940362335643727
 21
485.3000000000237151
 31
0.0
  0
LINE
  5
C6
100
AcDbEntity
  8
0
 62
256
370
-1
 48
1.0
  6
BYLAYER
100
AcDbLine
 10
369.9940362334833139
 20
491.3000000000221235
 30
0.0
 11
369.9940362334834845
 21
485.300000000022635
 31
0.0
  0
LINE
  5
C7
100
AcDbEntity
  8
0
 62
256
370
-1
 48
1.0
  6
BYLAYER
100
AcDbLine
 10
369.9940362334833139
 20
491.3000000000221235
 30
0.0
 11
359.9940362335640884
 21
491.3000000000216687
 31
0.0
  0
CIRCLE
  5
C8
100
AcDbEntity
  8
0
 62
256
370
-1
 48
1.0
  6
BYLAYER
100
AcDbCircle
 10
379.9999129941930391
 20
20.6493777551182234
 30
0.0
 40
1.499999999999996
  0
LINE
  5
C9
100
AcDbEntity
  8
0
 62
256
370
-1
 48
1.0
  6
BYLAYER
100
AcDbLine
 10
370.0998879594740743
 20
27.3000000000132559
 30
0.0
 11
351.0998879594715163
 21
27.3000000000134264
 31
0.0
  0
LINE
  5
CA
100
AcDbEntity
  8
0
 62
256
370
-1
 48
1.0
  6
BYLAYER
100
AcDbLine
 10
351.0998879594715163
 20
27.3000000000134264
 30
0.0
 11
351.0998879594714026
 21
13.9999999999805027
 31
0.0
  0
LINE
  5
CB
100
AcDbEntity
  8
0
 62
256
370
-1
 48
1.0
  6
BYLAYER
100
AcDbLine
 10
351.0998879594714026
 20
13.9999999999805027
 30
0.0
 11
370.09988795947379
 21
13.9999999999806164
 31
0.0
  0
CIRCLE
  5
CC
100
AcDbEntity
  8
0
 62
256
370
-1
 48
1.0
  6
BYLAYER
100
AcDbCircle
 10
307.9998879594691061
 20
440.2999999999495913
 30
0.0
 40
1.5000000000000191
  0
LINE
  5
CD
100
AcDbEntity
  8
0
 62
256
370
-1
 48
1.0
  6
BYLAYER
100
AcDbLine
 10
310.9998879594695609
 20
420.2999999999535703
 30
0.0
 11
310.9998879594688219
 21
410.3000000000330942
 31
0.0
  0
LINE
  5
CE
100
AcDbEntity
  8
0
 62
256
370
-1
 48
1.0
  6
BYLAYER
100
AcDbLine
 10
304.9998879594708683
 20
420.2999999999530019
 30
0.0
 11
310.9998879594695609
 21
420.2999999999535703
 31
0.0
  0
LINE
  5
CF
100
AcDbEntity
  8
0
 62
256
370
-1
 48
1.0
  6
BYLAYER
100
AcDbLine
 10
304.999887959469504
 20
410.3000000000332648
 30
0.0
 11
304.9998879594708683
 21
420.2999999999530019
 31
0.0
  0
LINE
  5
D0
100
AcDbEntity
  8
0
 62
256
370
-1
 48
1.0
  6
BYLAYER
100
AcDbLine
 10
310.9998879594688219
 20
410.3000000000330942
 30
0.0
 11
304.999887959469504
 21
410.3000000000332648
 31
0.0
  0
CIRCLE
  5
D1
100
AcDbEntity
  8
0
 62
256
370
-1
 48
1.0
  6
BYLAYER
100
AcDbCircle
 10
339.999887959531975
 20
7.9999999999674856
 30
0.0
 40
1.4999999999999969
  0
CIRCLE
  5
D2
100
AcDbEntity
  8
0
 62
256
370
-1
 48
1.0
  6
BYLAYER
100
AcDbCircle
 10
308.005739669607749
 20
56.0000000000612204
 30
0.0
 40
1.499999999999996
  0
CIRCLE
  5
D3
100
AcDbEntity
  8
0
 62
256
370
-1
 48
1.0
  6
BYLAYER
100
AcDbCircle
 10
308.0057396696121259
 20
184.1000000000688601
 30
0.0
 40
1.499999999999994
  0
LINE
  5
D4
100
AcDbEntity
  8
0
 62
256
370
-1
 48
1.0
  6
BYLAYER
100
AcDbLine
 10
319.9998879595328276
 20
4.9999999999978968
 30
0.0
 11
319.9998879595328845
 21
10.9999999999854481
 31
0.0
  0
LINE
  5
D5
100
AcDbEntity
  8
0
 62
256
370
-1
 48
1.0
  6
BYLAYER
100
AcDbLine
 10
319.9998879595328845
 20
10.9999999999854481
 30
0.0
 11
309.9998879596134316
 21
10.9999999999844817
 31
0.0
  0
LINE
  5
D6
100
AcDbEntity
  8
0
 62
256
370
-1
 48
1.0
  6
BYLAYER
100
AcDbLine
 10
309.9998879596137158
 20
4.9999999999972715
 30
0.0
 11
309.9998879596134316
 21
10.9999999999844817
 31
0.0
  0
LINE
  5
D7
100
AcDbEntity
  8
0
 62
256
370
-1
 48
1.0
  6
BYLAYER
100
AcDbLine
 10
309.9998879596137158
 20
4.9999999999972715
 30
0.0
 11
319.9998879595328276
 21
4.9999999999978968
 31
0.0
  0
LINE
  5
D8
100
AcDbEntity
  8
0
 62
256
370
-1
 48
1.0
  6
BYLAYER
100
AcDbLine
 10
311.0057396696148544
 20
154.1000000001533294
 30
0.0
 11
305.0057396696159344
 21
154.1000000001540684
 31
0.0
  0
LINE
  5
D9
100
AcDbEntity
  8
0
 62
256
370
-1
 48
1.0
  6
BYLAYER
100
AcDbLine
 10
311.0057396696154797
 20
164.1000000000722139
 30
0.0
 11
311.0057396696148544
 21
154.1000000001533294
 31
0.0
  0
LINE
  5
DA
100
AcDbEntity
  8
0
 62
256
370
-1
 48
1.0
  6
BYLAYER
100
AcDbLine
 10
305.0057396696167871
 20
164.1000000000729528
 30
0.0
 11
311.0057396696154797
 21
164.1000000000722139
 31
0.0
  0
LINE
  5
DB
100
AcDbEntity
  8
0
 62
256
370
-1
 48
1.0
  6
BYLAYER
100
AcDbLine
 10
305.0057396696159344
 20
154.1000000001540684
 30
0.0
 11
305.0057396696167871
 21
164.1000000000729528
 31
0.0
  0
CIRCLE
  5
DC
100
AcDbEntity
  8
0
 62
256
370
-1
 48
1.0
  6
BYLAYER
100
AcDbCircle
 10
308.0057396696093974
 20
312.2000000003116611
 30
0.0
 40
1.5000000000000191
  0
LINE
  5
DD
100
AcDbEntity
  8
0
 62
256
370
-1
 48
1.0
  6
BYLAYER
100
AcDbLine
 10
311.0057396696205387
 20
214.1000000000717023
 30
0.0
 11
311.005739669620084
 21
204.1000000000717023
 31
0.0
  0
LINE
  5
DE
100
AcDbEntity
  8
0
 62
256
370
-1
 48
1.0
  6
BYLAYER
100
AcDbLine
 10
305.0057396696196861
 20
204.100000000072157
 30
0.0
 11
305.0057396696209366
 21
214.1000000000723276
 31
0.0
  0
LINE
  5
DF
100
AcDbEntity
  8
0
 62
256
370
-1
 48
1.0
  6
BYLAYER
100
AcDbLine
 10
311.005739669620084
 20
204.1000000000717023
 30
0.0
 11
305.0057396696196861
 21
204.100000000072157
 31
0.0
  0
LINE
  5
E0
100
AcDbEntity
  8
0
 62
256
370
-1
 48
1.0
  6
BYLAYER
100
AcDbLine
 10
305.0057396696165029
 20
86.0000000000648583
 30
0.0
 11
311.0057396696169576
 21
86.0000000000642331
 31
0.0
  0
LINE
  5
E1
100
AcDbEntity
  8
0
 62
256
370
-1
 48
1.0
  6
BYLAYER
100
AcDbLine
 10
305.0057396696157639
 20
76.0000000000643468
 30
0.0
 11
305.0057396696165029
 21
86.0000000000648583
 31
0.0
  0
LINE
  5
E2
100
AcDbEntity
  8
0
 62
256
370
-1
 48
1.0
  6
BYLAYER
100
AcDbLine
 10
305.0057396696116712
 20
26.0000000001463718
 30
0.0
 11
305.0057396696121828
 21
36.0000000000657678
 31
0.0
  0
LINE
  5
E3
100
AcDbEntity
  8
0
 62
256
370
-1
 48
1.0
  6
BYLAYER
100
AcDbLine
 10
311.0057396696102501
 20
26.000000000145576
 30
0.0
 11
305.0057396696116712
 21
26.0000000001463718
 31
0.0
  0
LINE
  5
E4
100
AcDbEntity
  8
0
 62
256
370
-1
 48
1.0
  6
BYLAYER
100
AcDbLine
 10
311.0057396696112164
 20
36.0000000000650289
 30
0.0
 11
311.0057396696102501
 21
26.000000000145576
 31
0.0
  0
LINE
  5
E5
100
AcDbEntity
  8
0
 62
256
370
-1
 48
1.0
  6
BYLAYER
100
AcDbLine
 10
305.0057396696121828
 20
36.0000000000657678
 30
0.0
 11
311.0057396696112164
 21
36.0000000000650289
 31
0.0
  0
LINE
  5
E6
100
AcDbEntity
  8
0
 62
256
370
-1
 48
1.0
  6
BYLAYER
100
AcDbLine
 10
311.0057396696131491
 20
292.2000000003154128
 30
0.0
 11
305.0057396696143996
 21
292.2000000003163223
 31
0.0
  0
LINE
  5
E7
100
AcDbEntity
  8
0
 62
256
370
-1
 48
1.0
  6
BYLAYER
100
AcDbLine
 10
305.0057396696143996
 20
292.2000000003163223
 30
0.0
 11
305.0057396696137175
 21
282.2000000003972104
 31
0.0
  0
LINE
  5
E8
100
AcDbEntity
  8
0
 62
256
370
-1
 48
1.0
  6
BYLAYER
100
AcDbLine
 10
305.0057396696137175
 20
282.2000000003972104
 30
0.0
 11
311.0057396696122396
 21
282.2000000003963578
 31
0.0
  0
LINE
  5
E9
100
AcDbEntity
  8
0
 62
256
370
-1
 48
1.0
  6
BYLAYER
100
AcDbLine
 10
311.0057396696122396
 20
282.2000000003963578
 30
0.0
 11
311.0057396696131491
 21
292.2000000003154128
 31
0.0
  0
LINE
  5
EA
100
AcDbEntity
  8
0
 62
256
370
-1
 48
1.0
  6
BYLAYER
100
AcDbLine
 10
310.9998879594768937
 20
460.299999999952604
 30
0.0
 11
304.99988795947678
 21
460.2999999999520924
 31
0.0
  0
LINE
  5
EB
100
AcDbEntity
  8
0
 62
256
370
-1
 48
1.0
  6
BYLAYER
100
AcDbLine
 10
310.9998879594779737
 20
470.2999999999516376
 30
0.0
 11
310.9998879594768937
 21
460.299999999952604
 31
0.0
  0
LINE
  5
EC
100
AcDbEntity
  8
0
 62
256
370
-1
 48
1.0
  6
BYLAYER
100
AcDbLine
 10
304.9998879594779737
 20
470.2999999999536271
 30
0.0
 11
310.9998879594779737
 21
470.2999999999516376
 31
0.0
  0
LINE
  5
ED
100
AcDbEntity
  8
0
 62
256
370
-1
 48
1.0
  6
BYLAYER
100
AcDbLine
 10
304.99988795947678
 20
460.2999999999520924
 30
0.0
 11
304.9998879594779737
 21
470.2999999999536271
 31
0.0
  0
LINE
  5
EE
100
AcDbEntity
  8
0
 62
256
370
-1
 48
1.0
  6
BYLAYER
100
AcDbLine
 10
311.0057396696202545
 20
332.2000000003145033
 30
0.0
 11
311.0057396696210503
 21
342.2000000003148443
 31
0.0
  0
LINE
  5
EF
100
AcDbEntity
  8
0
 62
256
370
-1
 48
1.0
  6
BYLAYER
100
AcDbLine
 10
311.0057396696210503
 20
342.2000000003148443
 30
0.0
 11
305.0057396696205956
 21
342.200000000314958
 31
0.0
  0
LINE
  5
F0
100
AcDbEntity
  8
0
 62
256
370
-1
 48
1.0
  6
BYLAYER
100
AcDbLine
 10
305.0057396696205956
 20
342.200000000314958
 30
0.0
 11
305.0057396696197429
 21
332.2000000003153559
 31
0.0
  0
LINE
  5
F1
100
AcDbEntity
  8
0
 62
256
370
-1
 48
1.0
  6
BYLAYER
100
AcDbLine
 10
305.0057396696197429
 20
332.2000000003153559
 30
0.0
 11
311.0057396696202545
 21
332.2000000003145033
 31
0.0
  0
ARC
  5
F2
100
AcDbEntity
  8
0
 62
256
370
-1
 48
1.0
  6
BYLAYER
100
AcDbCircle
 10
2893.2823074224629636
 20
50.0007569701425609
 30
0.0
 40
2854.282323187449947
100
AcDbArc
 50
173.415360980708698
 51
180.0000152010076135
  0
LINE
  5
F3
100
AcDbEntity
  8
0
 62
256
370
-1
 48
1.0
  6
BYLAYER
100
AcDbLine
 10
38.9999842351196904
 20
50.0000000000160298
 30
0.0
 11
38.9999868871705999
 21
40.0000000000160298
 31
0.0
  0
ARC
  5
F4
100
AcDbEntity
  8
0
 62
256
370
-1
 48
1.0
  6
BYLAYER
100
AcDbCircle
 10
48.999986887189614
 20
40.000000000015973
 30
0.0
 40
10.0000000000190106
100
AcDbArc
 50
180.0
 51
270.0
  0
LINE
  5
F5
100
AcDbEntity
  8
0
 62
256
370
-1
 48
1.0
  6
BYLAYER
100
AcDbLine
 10
48.9999868871896069
 20
29.9999999999969873
 30
0.0
 11
79.0999868871704876
 21
29.9999999999969305
 31
0.0
  0
LINE
  5
F6
100
AcDbEntity
  8
0
 62
256
370
-1
 48
1.0
  6
BYLAYER
100
AcDbLine
 10
289.9998879594776326
 20
29.9999999999171791
 30
0.0
 11
79.0999868871704876
 21
29.9999999999969305
 31
0.0
  0
ARC
  5
F7
100
AcDbEntity
  8
0
 62
256
370
-1
 48
1.0
  6
BYLAYER
100
AcDbCircle
 10
289.9998879594813275
 20
39.9999999999137117
 30
0.0
 40
9.9999999999960938
100
AcDbArc
 50
269.9999999999777742
 51
360.0
  0
LINE
  5
F8
100
AcDbEntity
  8
0
 62
256
370
-1
 48
1.0
  6
BYLAYER
100
AcDbLine
 10
299.9998879594776326
 20
377.3000000000947693
 30
0.0
 11
299.9998879594776895
 21
39.9999999999132001
 31
0.0
  0
ARC
  5
F9
100
AcDbEntity
  8
0
 62
256
370
-1
 48
1.0
  6
BYLAYER
100
AcDbCircle
 10
289.9998879594778032
 20
377.3000000000951673
 30
0.0
 40
9.9999999999999343
100
AcDbArc
 50
360.0
 51
89.9999999999999432
  0
LINE
  5
FA
100
AcDbEntity
  8
0
 62
256
370
-1
 48
1.0
  6
BYLAYER
100
AcDbLine
 10
69.0646689784380783
 20
387.3000000000940872
 30
0.0
 11
289.9998879594775758
 21
387.3000000000947693
 31
0.0
  0
ARC
  5
FB
100
AcDbEntity
  8
0
 62
256
370
-1
 48
1.0
  6
BYLAYER
100
AcDbCircle
 10
69.0646689784379646
 20
376.0225999853931853
 30
0.0
 40
11.2774000147010192
100
AcDbArc
 50
89.9999999999999432
 51
173.4961030721627822
  0
LINE
  5
FC
100
AcDbEntity
  8
0
 62
256
370
-1
 48
1.0
  6
BYLAYER
100
AcDbLine
 10
4.9998700674180183
 20
75.9999999999964757
 30
0.0
 11
10.9998700674186747
 21
75.9999999999964757
 31
0.0
  0
LINE
  5
FD
100
AcDbEntity
  8
0
 62
256
370
-1
 48
1.0
  6
BYLAYER
100
AcDbLine
 10
10.9998700674186747
 20
75.9999999999964757
 30
0.0
 11
10.9998700674186889
 21
85.9999999999143938
 31
0.0
  0
LINE
  5
FE
100
AcDbEntity
  8
0
 62
256
370
-1
 48
1.0
  6
BYLAYER
100
AcDbLine
 10
10.9998700674186889
 20
85.9999999999143938
 30
0.0
 11
4.9998700674182475
 21
85.9999999999143938
 31
0.0
  0
LINE
  5
FF
100
AcDbEntity
  8
0
 62
256
370
-1
 48
1.0
  6
BYLAYER
100
AcDbLine
 10
4.9998700674182475
 20
85.9999999999143938
 30
0.0
 11
4.9998700674180183
 21
75.9999999999964757
 31
0.0
  0
CIRCLE
  5
100
100
AcDbEntity
  8
0
 62
256
370
-1
 48
1.0
  6
BYLAYER
100
AcDbCircle
 10
7.9998700674226182
 20
55.9999999999962483
 30
0.0
 40
1.500000000000018
  0
LINE
  5
101
100
AcDbEntity
  8
0
 62
256
370
-1
 48
1.0
  6
BYLAYER
100
AcDbLine
 10
4.9998700674180512
 20
204.1000000001540684
 30
0.0
 11
10.9998700674186605
 21
204.1000000001540684
 31
0.0
  0
LINE
  5
102
100
AcDbEntity
  8
0
 62
256
370
-1
 48
1.0
  6
BYLAYER
100
AcDbLine
 10
10.9998700674186605
 20
204.1000000001540684
 30
0.0
 11
10.9998700674186782
 21
214.1000000000718728
 31
0.0
  0
LINE
  5
103
100
AcDbEntity
  8
0
 62
256
370
-1
 48
1.0
  6
BYLAYER
100
AcDbLine
 10
10.9998700674186782
 20
214.1000000000718728
 30
0.0
 11
4.9998700674180405
 21
214.1000000000719865
 31
0.0
  0
LINE
  5
104
100
AcDbEntity
  8
0
 62
256
370
-1
 48
1.0
  6
BYLAYER
100
AcDbLine
 10
4.9998700674180405
 20
214.1000000000719865
 30
0.0
 11
4.9998700674180512
 21
204.1000000001540684
 31
0.0
  0
LINE
  5
105
100
AcDbEntity
  8
0
 62
256
370
-1
 48
1.0
  6
BYLAYER
100
AcDbLine
 10
4.9998700674180947
 20
332.2000000004767912
 30
0.0
 11
10.9998700674186392
 21
332.2000000004766775
 31
0.0
  0
LINE
  5
106
100
AcDbEntity
  8
0
 62
256
370
-1
 48
1.0
  6
BYLAYER
100
AcDbLine
 10
10.9998700674186392
 20
332.2000000004766775
 30
0.0
 11
10.9998700674188239
 21
342.200000000394823
 31
0.0
  0
LINE
  5
107
100
AcDbEntity
  8
0
 62
256
370
-1
 48
1.0
  6
BYLAYER
100
AcDbLine
 10
4.9998700674182981
 20
342.2000000003948799
 30
0.0
 11
4.9998700674180947
 21
332.2000000004767912
 31
0.0
  0
CIRCLE
  5
108
100
AcDbEntity
  8
0
 62
256
370
-1
 48
1.0
  6
BYLAYER
100
AcDbCircle
 10
7.999870067422429
 20
312.2000000004766775
 30
0.0
 40
1.500000000000016
  0
LINE
  5
109
100
AcDbEntity
  8
0
 62
256
370
-1
 48
1.0
  6
BYLAYER
100
AcDbLine
 10
10.999870067427965
 20
164.1000000001542389
 30
0.0
 11
4.9998700674263148
 21
164.1000000001541821
 31
0.0
  0
LINE
  5
10A
100
AcDbEntity
  8
0
 62
256
370
-1
 48
1.0
  6
BYLAYER
100
AcDbLine
 10
4.9998700674263148
 20
164.1000000001541821
 30
0.0
 11
4.9998700674262091
 21
154.1000000001546937
 31
0.0
  0
LINE
  5
10B
100
AcDbEntity
  8
0
 62
256
370
-1
 48
1.0
  6
BYLAYER
100
AcDbLine
 10
4.9998700674262091
 20
154.1000000001546937
 30
0.0
 11
10.9998700674277625
 21
154.1000000001546937
 31
0.0
  0
LINE
  5
10C
100
AcDbEntity
  8
0
 62
256
370
-1
 48
1.0
  6
BYLAYER
100
AcDbLine
 10
10.9998700674277625
 20
154.1000000001546937
 30
0.0
 11
10.999870067427965
 21
164.1000000001542389
 31
0.0
  0
CIRCLE
  5
10D
100
AcDbEntity
  8
0
 62
256
370
-1
 48
1.0
  6
BYLAYER
100
AcDbCircle
 10
7.9998700674225498
 20
184.1000000001540116
 30
0.0
 40
1.500000000000016
  0
CIRCLE
  5
10E
100
AcDbEntity
  8
0
 62
256
370
-1
 48
1.0
  6
BYLAYER
100
AcDbCircle
 10
7.9998700674223944
 20
440.3000000000350269
 30
0.0
 40
1.50000000000002
  0
LINE
  5
10F
100
AcDbEntity
  8
0
 62
256
370
-1
 48
1.0
  6
BYLAYER
100
AcDbLine
 10
10.9998700674277146
 20
410.300000000035709
 30
0.0
 11
10.9998700674278318
 21
420.3000000000350838
 31
0.0
  0
LINE
  5
110
100
AcDbEntity
  8
0
 62
256
370
-1
 48
1.0
  6
BYLAYER
100
AcDbLine
 10
10.9998700674278318
 20
420.3000000000350838
 30
0.0
 11
4.9998700674261425
 21
420.3000000000354248
 31
0.0
  0
LINE
  5
111
100
AcDbEntity
  8
0
 62
256
370
-1
 48
1.0
  6
BYLAYER
100
AcDbLine
 10
4.9998700674261425
 20
420.3000000000354248
 30
0.0
 11
4.999870067426305
 21
410.300000000035709
 31
0.0
  0
LINE
  5
112
100
AcDbEntity
  8
0
 62
256
370
-1
 48
1.0
  6
BYLAYER
100
AcDbLine
 10
4.999870067426305
 20
410.300000000035709
 30
0.0
 11
10.9998700674277146
 21
410.300000000035709
 31
0.0
  0
LINE
  5
113
100
AcDbEntity
  8
0
 62
256
370
-1
 48
1.0
  6
BYLAYER
100
AcDbLine
 10
10.9998700674276257
 20
282.2000000004770186
 30
0.0
 11
10.9998700674277057
 21
292.2000000004766775
 31
0.0
  0
LINE
  5
114
100
AcDbEntity
  8
0
 62
256
370
-1
 48
1.0
  6
BYLAYER
100
AcDbLine
 10
10.9998700674277057
 20
292.2000000004766775
 30
0.0
 11
4.9998700674262357
 21
292.2000000004766207
 31
0.0
  0
LINE
  5
115
100
AcDbEntity
  8
0
 62
256
370
-1
 48
1.0
  6
BYLAYER
100
AcDbLine
 10
4.9998700674262357
 20
292.2000000004766207
 30
0.0
 11
4.9998700674263805
 21
282.2000000004774733
 31
0.0
  0
LINE
  5
116
100
AcDbEntity
  8
0
 62
256
370
-1
 48
1.0
  6
BYLAYER
100
AcDbLine
 10
4.9998700674263805
 20
282.2000000004774733
 30
0.0
 11
10.9998700674276257
 21
282.2000000004770186
 31
0.0
  0
LINE
  5
117
100
AcDbEntity
  8
0
 62
256
370
-1
 48
1.0
  6
BYLAYER
100
AcDbLine
 10
10.9998700674279917
 20
25.999999999997101
 30
0.0
 11
10.9998700674279384
 21
35.9999999999965326
 31
0.0
  0
LINE
  5
118
100
AcDbEntity
  8
0
 62
256
370
-1
 48
1.0
  6
BYLAYER
100
AcDbLine
 10
10.9998700674279384
 20
35.9999999999965326
 30
0.0
 11
4.9998700674264125
 21
35.9999999999966462
 31
0.0
  0
LINE
  5
119
100
AcDbEntity
  8
0
 62
256
370
-1
 48
1.0
  6
BYLAYER
100
AcDbLine
 10
4.9998700674264125
 20
35.9999999999966462
 30
0.0
 11
4.9998700674262819
 21
25.999999999997101
 31
0.0
  0
LINE
  5
11A
100
AcDbEntity
  8
0
 62
256
370
-1
 48
1.0
  6
BYLAYER
100
AcDbLine
 10
4.9998700674262819
 20
25.999999999997101
 30
0.0
 11
10.9998700674279917
 21
25.999999999997101
 31
0.0
  0
ENDSEC
  0
SECTION
  2
OBJECTS
  0
DICTIONARY
  5
C
100
AcDbDictionary
280
0
281
1
  3
ACAD_GROUP
350
D
  3
ACAD_LAYOUT
350
1A
  3
ACAD_MLINESTYLE
350
17
  3
ACAD_PLOTSETTINGS
350
19
  3
ACAD_PLOTSTYLENAME
350
E
  3
AcDbVariableDictionary
350
11B
  3
QCAD_OBJECTS
350
11C
  0
DICTIONARY
  5
D
100
AcDbDictionary
280
0
281
1
  0
ACDBDICTIONARYWDFLT
  5
E
100
AcDbDictionary
281
1
  3
Normal
350
F
100
AcDbDictionaryWithDefault
340
F
  0
ACDBPLACEHOLDER
  5
F
  0
DICTIONARY
  5
17
100
AcDbDictionary
280
0
281
1
  3
Standard
350
18
  0
MLINESTYLE
  5
18
100
AcDbMlineStyle
  2
STANDARD
 70
0
  3

 62
256
 51
90.0
 52
90.0
 71
2
 49
0.5
 62
256
  6
BYLAYER
 49
-0.5
 62
256
  6
BYLAYER
  0
DICTIONARY
  5
19
100
AcDbDictionary
280
0
281
1
  0
DICTIONARY
  5
1A
100
AcDbDictionary
281
1
  3
Layout1
350
1E
  3
Layout2
350
26
  3
Model
350
22
  0
LAYOUT
  5
1E
100
AcDbPlotSettings
  1

  2
none_device
  4

  6

 40
0.0
 41
0.0
 42
0.0
 43
0.0
 44
0.0
 45
0.0
 46
0.0
 47
0.0
 48
0.0
 49
0.0
140
0.0
141
0.0
142
1.0
143
1.0
 70
688
 72
0
 73
0
 74
5
  7

 75
16
147
1.0
148
0.0
149
0.0
100
AcDbLayout
  1
Layout1
 70
1
 71
1
 10
0.0
 20
0.0
 11
420.0
 21
297.0
 12
0.0
 22
0.0
 32
0.0
 14
100000000000000000000.0
 24
100000000000000000000.0
 34
100000000000000000000.0
 15
-100000000000000000000.0
 25
-100000000000000000000.0
 35
-100000000000000000000.0
146
0.0
 13
0.0
 23
0.0
 33
0.0
 16
1.0
 26
0.0
 36
0.0
 17
0.0
 27
1.0
 37
0.0
 76
0
330
1B
  0
LAYOUT
  5
22
100
AcDbPlotSettings
  1

  2
none_device
  4

  6

 40
0.0
 41
0.0
 42
0.0
 43
0.0
 44
0.0
 45
0.0
 46
0.0
 47
0.0
 48
0.0
 49
0.0
140
0.0
141
0.0
142
1.0
143
1.0
 70
1712
 72
0
 73
0
 74
0
  7

 75
0
147
1.0
148
0.0
149
0.0
100
AcDbLayout
  1
Model
 70
1
 71
0
 10
0.0
 20
0.0
 11
12.0
 21
9.0
 12
0.0
 22
0.0
 32
0.0
 14
0.0
 24
0.0
 34
0.0
 15
0.0
 25
0.0
 35
0.0
146
0.0
 13
0.0
 23
0.0
 33
0.0
 16
1.0
 26
0.0
 36
0.0
 17
0.0
 27
1.0
 37
0.0
 76
0
330
1F
  0
LAYOUT
  5
26
100
AcDbPlotSettings
  1

  2
none_device
  4

  6

 40
0.0
 41
0.0
 42
0.0
 43
0.0
 44
0.0
 45
0.0
 46
0.0
 47
0.0
 48
0.0
 49
0.0
140
0.0
141
0.0
142
1.0
143
1.0
 70
688
 72
0
 73
0
 74
5
  7

 75
16
147
1.0
148
0.0
149
0.0
100
AcDbLayout
  1
Layout2
 70
1
 71
2
 10
0.0
 20
0.0
 11
12.0
 21
9.0
 12
0.0
 22
0.0
 32
0.0
 14
0.0
 24
0.0
 34
0.0
 15
0.0
 25
0.0
 35
0.0
146
0.0
 13
0.0
 23
0.0
 33
0.0
 16
1.0
 26
0.0
 36
0.0
 17
0.0
 27
1.0
 37
0.0
 76
0
330
23
  0
DICTIONARY
  5
11B
100
AcDbDictionary
281
1
  3
DIMASSOC
350
11E
  3
HIDETEXT
350
11D
  0
DICTIONARYVAR
  5
11D
100
DictionaryVariables
280
0
  1
2
  0
DICTIONARYVAR
  5
11E
100
DictionaryVariables
280
0
  1
1
  0
DICTIONARY
  5
11C
100
AcDbDictionary
281
1
  3
ColorSettings/BackgroundColor
350
11F
  3
ColorSettings/ColorMode
350
120
  3
Grid/DisplayGrid00
350
121
  3
Grid/DisplayGrid01
350
122
  3
Grid/DisplayGrid02
350
123
  3
Grid/DisplayGrid03
350
124
  3
Grid/GridSpacingX00
350
125
  3
Grid/GridSpacingX01
350
126
  3
Grid/GridSpacingX02
350
127
  3
Grid/GridSpacingX03
350
128
  3
Grid/GridSpacingY00
350
129
  3
Grid/GridSpacingY01
350
12A
  3
Grid/GridSpacingY02
350
12B
  3
Grid/GridSpacingY03
350
12C
  3
Grid/IsometricGrid00
350
12D
  3
Grid/IsometricGrid01
350
12E
  3
Grid/IsometricGrid02
350
12F
  3
Grid/IsometricGrid03
350
130
  3
Grid/IsometricProjection00
350
131
  3
Grid/IsometricProjection01
350
132
  3
Grid/IsometricProjection02
350
133
  3
Grid/IsometricProjection03
350
134
  3
Grid/MetaGridSpacingX00
350
135
  3
Grid/MetaGridSpacingX01
350
136
  3
Grid/MetaGridSpacingX02
350
137
  3
Grid/MetaGridSpacingX03
350
138
  3
Grid/MetaGridSpacingY00
350
139
  3
Grid/MetaGridSpacingY01
350
13A
  3
Grid/MetaGridSpacingY02
350
13B
  3
Grid/MetaGridSpacingY03
350
13C
  3
MultiPageSettings/Columns
350
13D
  3
MultiPageSettings/GlueMarginsBottom
350
13E
  3
MultiPageSettings/GlueMarginsLeft
350
13F
  3
MultiPageSettings/GlueMarginsRight
350
140
  3
MultiPageSettings/GlueMarginsTop
350
141
  3
MultiPageSettings/PrintCropMarks
350
142
  3
MultiPageSettings/Rows
350
143
  3
PageSettings/OffsetX
350
144
  3
PageSettings/OffsetY
350
145
  3
PageSettings/PageOrientation
350
146
  3
PageSettings/PaperHeight
350
147
  3
PageSettings/PaperWidth
350
148
  3
PageSettings/Scale
350
149
  3
PageSettings/ShowPaperBorders
350
14A
  3
QCADVersion
350
14B
  3
UnitSettings/PaperUnit
350
14C
  3
ViewportCenter
350
14D
  3
ViewportHeight
350
14E
  3
ViewportWidth
350
14F
  0
XRECORD
  5
11F
330
11C
100
AcDbXrecord
280
1
1000
Bianco
  0
XRECORD
  5
120
330
11C
100
AcDbXrecord
280
1
1000
FullColor
  0
XRECORD
  5
121
330
11C
100
AcDbXrecord
280
1
290
1
  0
XRECORD
  5
122
330
11C
100
AcDbXrecord
280
1
290
1
  0
XRECORD
  5
123
330
11C
100
AcDbXrecord
280
1
290
1
  0
XRECORD
  5
124
330
11C
100
AcDbXrecord
280
1
290
1
  0
XRECORD
  5
125
330
11C
100
AcDbXrecord
280
1
1000
auto
  0
XRECORD
  5
126
330
11C
100
AcDbXrecord
280
1
1000
auto
  0
XRECORD
  5
127
330
11C
100
AcDbXrecord
280
1
1000
auto
  0
XRECORD
  5
128
330
11C
100
AcDbXrecord
280
1
1000
auto
  0
XRECORD
  5
129
330
11C
100
AcDbXrecord
280
1
1000
auto
  0
XRECORD
  5
12A
330
11C
100
AcDbXrecord
280
1
1000
auto
  0
XRECORD
  5
12B
330
11C
100
AcDbXrecord
280
1
1000
auto
  0
XRECORD
  5
12C
330
11C
100
AcDbXrecord
280
1
1000
auto
  0
XRECORD
  5
12D
330
11C
100
AcDbXrecord
280
1
290
0
  0
XRECORD
  5
12E
330
11C
100
AcDbXrecord
280
1
290
0
  0
XRECORD
  5
12F
330
11C
100
AcDbXrecord
280
1
290
0
  0
XRECORD
  5
130
330
11C
100
AcDbXrecord
280
1
290
0
  0
XRECORD
  5
131
330
11C
100
AcDbXrecord
280
1
 90
65537
  0
XRECORD
  5
132
330
11C
100
AcDbXrecord
280
1
 90
65537
  0
XRECORD
  5
133
330
11C
100
AcDbXrecord
280
1
 90
65537
  0
XRECORD
  5
134
330
11C
100
AcDbXrecord
280
1
 90
65537
  0
XRECORD
  5
135
330
11C
100
AcDbXrecord
280
1
1000
auto
  0
XRECORD
  5
136
330
11C
100
AcDbXrecord
280
1
1000
auto
  0
XRECORD
  5
137
330
11C
100
AcDbXrecord
280
1
1000
auto
  0
XRECORD
  5
138
330
11C
100
AcDbXrecord
280
1
1000
auto
  0
XRECORD
  5
139
330
11C
100
AcDbXrecord
280
1
1000
auto
  0
XRECORD
  5
13A
330
11C
100
AcDbXrecord
280
1
1000
auto
  0
XRECORD
  5
13B
330
11C
100
AcDbXrecord
280
1
1000
auto
  0
XRECORD
  5
13C
330
11C
100
AcDbXrecord
280
1
1000
auto
  0
XRECORD
  5
13D
330
11C
100
AcDbXrecord
280
1
 90
1
  0
XRECORD
  5
13E
330
11C
100
AcDbXrecord
280
1
 40
10.0
  0
XRECORD
  5
13F
330
11C
100
AcDbXrecord
280
1
 40
10.0
  0
XRECORD
  5
140
330
11C
100
AcDbXrecord
280
1
 40
10.0
  0
XRECORD
  5
141
330
11C
100
AcDbXrecord
280
1
 40
10.0
  0
XRECORD
  5
142
330
11C
100
AcDbXrecord
280
1
290
0
  0
XRECORD
  5
143
330
11C
100
AcDbXrecord
280
1
 90
1
  0
XRECORD
  5
144
330
11C
100
AcDbXrecord
280
1
 40
0.0
  0
XRECORD
  5
145
330
11C
100
AcDbXrecord
280
1
 40
0.0
  0
XRECORD
  5
146
330
11C
100
AcDbXrecord
280
1
1000
Portrait
  0
XRECORD
  5
147
330
11C
100
AcDbXrecord
280
1
 40
297.0
  0
XRECORD
  5
148
330
11C
100
AcDbXrecord
280
1
 40
210.0
  0
XRECORD
  5
149
330
11C
100
AcDbXrecord
280
1
1000
1:1
  0
XRECORD
  5
14A
330
11C
100
AcDbXrecord
280
1
290
1
  0
XRECORD
  5
14B
330
11C
100
AcDbXrecord
280
1
1000
3.17.3.1
  0
XRECORD
  5
14C
330
11C
100
AcDbXrecord
280
1
 90
4
  0
XRECORD
  5
14E
330
11C
100
AcDbXrecord
280
1
 40
536.185473515247736
  0
XRECORD
  5
14F
330
11C
100
AcDbXrecord
280
1
 40
1148.058346709467969
  0
ENDSEC
  0
EOF
