999
dxflib 3.12.2.0
  0
SECTION
  2
HEADER
  9
$ACADVER
  1
AC1015
  9
$HANDSEED
  5
FFFF
  9
$ANGBASE
 50
0.0
  9
$ANGDIR
 70
0
  9
$ATTMODE
 70
1
  9
$AUNITS
 70
0
  9
$AUPREC
 70
0
  9
$CECOLOR
 62
256
  9
$CELTSCALE
 40
1.0
  9
$CHAMFERA
 40
0.0
  9
$CHAMFERB
 40
0.0
  9
$CHAMFERC
 40
0.0
  9
$CHAMFERD
 40
0.0
  9
$CMLJUST
 70
0
  9
$CMLSCALE
 40
1.0
  9
$DIMADEC
 70
0
  9
$DIMALT
 70
0
  9
$DIMALTD
 70
2
  9
$DIMALTF
 40
25.3999999999999986
  9
$DIMALTTD
 70
2
  9
$DIMALTTZ
 70
0
  9
$DIMALTU
 70
2
  9
$DIMALTZ
 70
0
  9
$DIMAPOST
  1

  9
$DIMASZ
 40
0.18
  9
$DIMAUNIT
 70
0
  9
$DIMAZIN
 70
0
  9
$DIMBLK
  1

  9
$DIMBLK1
  1

  9
$DIMBLK2
  1

  9
$DIMCEN
 40
0.09
  9
$DIMCLRD
 70
0
  9
$DIMCLRE
 70
0
  9
$DIMCLRT
 70
0
  9
$DIMDEC
 70
4
  9
$DIMDLE
 40
0.0
  9
$DIMDLI
 40
0.38
  9
$DIMDSEP
 70
46
  9
$DIMEXE
 40
0.18
  9
$DIMEXO
 40
0.0625
  9
$DIMGAP
 40
0.09
  9
$DIMJUST
 70
0
  9
$DIMLFAC
 40
1.0
  9
$DIMLIM
 70
0
  9
$DIMLUNIT
 70
2
  9
$DIMPOST
  1

  9
$DIMRND
 40
0.0
  9
$DIMSAH
 70
0
  9
$DIMSCALE
 40
1.0
  9
$DIMSD1
 70
0
  9
$DIMSD2
 70
0
  9
$DIMSE1
 70
0
  9
$DIMSE2
 70
0
  9
$DIMSOXD
 70
0
  9
$DIMTAD
 70
0
  9
$DIMTDEC
 70
4
  9
$DIMTFAC
 40
1.0
  9
$DIMTIH
 70
1
  9
$DIMTIX
 70
0
  9
$DIMTM
 40
0.0
  9
$DIMTOFL
 70
0
  9
$DIMTOH
 70
1
  9
$DIMTOL
 70
0
  9
$DIMTOLJ
 70
1
  9
$DIMTP
 40
0.0
  9
$DIMTSZ
 40
0.0
  9
$DIMTVP
 40
0.0
  9
$DIMTXSTY
  7
STANDARD
  9
$DIMTXT
 40
0.18
  9
$DIMTZIN
 70
0
  9
$DIMUPT
 70
0
  9
$DIMZIN
 70
0
  9
$DISPSILH
 70
0
  9
$DWGCODEPAGE
  3
ANSI_1252
  9
$ELEVATION
 40
0.0
  9
$EXTMAX
 10
-100000000000000000000.0
 20
-100000000000000000000.0
 30
-100000000000000000000.0
  9
$EXTMIN
 10
100000000000000000000.0
 20
100000000000000000000.0
 30
100000000000000000000.0
  9
$FILLETRAD
 40
0.5
  9
$FILLMODE
 70
1
  9
$INSBASE
 10
0.0
 20
0.0
 30
0.0
  9
$INSUNITS
 70
0
  9
$LIMCHECK
 70
0
  9
$LIMMAX
 10
12.0
 20
9.0
  9
$LIMMIN
 10
0.0
 20
0.0
  9
$LTSCALE
 40
1.0
  9
$LUNITS
 70
2
  9
$LUPREC
 70
4
  9
$MAXACTVP
 70
64
  9
$MEASUREMENT
 70
1
  9
$MIRRTEXT
 70
1
  9
$ORTHOMODE
 70
0
  9
$PDMODE
 70
0
  9
$PDSIZE
 40
0
  9
$PELEVATION
 40
0.0
  9
$PEXTMAX
 10
-100000000000000000000.0
 20
-100000000000000000000.0
 30
-100000000000000000000.0
  9
$PEXTMIN
 10
100000000000000000000.0
 20
100000000000000000000.0
 30
100000000000000000000.0
  9
$PINSBASE
 10
0.0
 20
0.0
 30
0.0
  9
$PLIMCHECK
 70
0
  9
$PLIMMAX
 10
12.0
 20
9.0
  9
$PLIMMIN
 10
0.0
 20
0.0
  9
$PLINEGEN
 70
0
  9
$PLINEWID
 40
0.0
  9
$PROXYGRAPHICS
 70
1
  9
$PSLTSCALE
 70
1
  9
$PUCSNAME
  2

  9
$PUCSORG
 10
0.0
 20
0.0
 30
0.0
  9
$PUCSXDIR
 10
1.0
 20
0.0
 30
0.0
  9
$PUCSYDIR
 10
0.0
 20
1.0
 30
0.0
  9
$QTEXTMODE
 70
0
  9
$REGENMODE
 70
1
  9
$SHADEDGE
 70
3
  9
$SHADEDIF
 70
70
  9
$SKETCHINC
 40
0.1
  9
$SKPOLY
 70
0
  9
$SPLFRAME
 70
0
  9
$SPLINESEGS
 70
8
  9
$SPLINETYPE
 70
6
  9
$SURFTAB1
 70
6
  9
$SURFTAB2
 70
6
  9
$SURFTYPE
 70
6
  9
$SURFU
 70
6
  9
$SURFV
 70
6
  9
$TEXTSIZE
 40
0.2
  9
$TEXTSTYLE
  7
STANDARD
  9
$THICKNESS
 40
0.0
  9
$TILEMODE
 70
1
  9
$TRACEWID
 40
0.05
  9
$TREEDEPTH
 70
3020
  9
$UCSNAME
  2

  9
$UCSORG
 10
0.0
 20
0.0
 30
0.0
  9
$UCSXDIR
 10
1.0
 20
0.0
 30
0.0
  9
$UCSYDIR
 10
0.0
 20
1.0
 30
0.0
  9
$UNITMODE
 70
0
  9
$USERI1
 70
0
  9
$USERI2
 70
0
  9
$USERI3
 70
0
  9
$USERI4
 70
0
  9
$USERI5
 70
0
  9
$USERR1
 40
0.0
  9
$USERR2
 40
0.0
  9
$USERR3
 40
0.0
  9
$USERR4
 40
0.0
  9
$USERR5
 40
0.0
  9
$USRTIMER
 70
1
  9
$VISRETAIN
 70
1
  0
ENDSEC
  0
SECTION
  2
TABLES
  0
TABLE
  2
VPORT
  5
8
100
AcDbSymbolTable
 70
1
  0
VPORT
  5
30
100
AcDbSymbolTableRecord
100
AcDbViewportTableRecord
  2
*Active
 70
0
 10
0.0
 20
0.0
 11
1.0
 21
1.0
 12
286.3055555555554861
 22
148.5
 13
0.0
 23
0.0
 14
10.0
 24
10.0
 15
10.0
 25
10.0
 16
0.0
 26
0.0
 36
1.0
 17
0.0
 27
0.0
 37
0.0
 40
297.0
 41
1.92798353909465
 42
50.0
 43
0.0
 44
0.0
 50
0.0
 51
0.0
 71
0
 72
100
 73
1
 74
3
 75
1
 76
1
 77
0
 78
0
281
0
 65
1
110
0.0
120
0.0
130
0.0
111
1.0
121
0.0
131
0.0
112
0.0
122
1.0
132
0.0
 79
0
146
0.0
  0
ENDTAB
  0
TABLE
  2
LTYPE
  5
5
100
AcDbSymbolTable
 70
41
  0
LTYPE
  5
16
100
AcDbSymbolTableRecord
100
AcDbLinetypeTableRecord
  2
CONTINUOUS
 70
0
  3
Solid line
 72
65
 73
0
 40
0.0
  0
LTYPE
  5
31
100
AcDbSymbolTableRecord
100
AcDbLinetypeTableRecord
  2
ACAD_ISO10W100
 70
0
  3
ISO dash dot __ . __ . __ . __ . __ . __ . __ . 
 72
65
 73
4
 40
18.0
 49
12.0
 74
0
 49
-3.0
 74
0
 49
0.0
 74
0
 49
-3.0
 74
0
  0
LTYPE
  5
32
100
AcDbSymbolTableRecord
100
AcDbLinetypeTableRecord
  2
PHANTOM
 70
0
  3
Phantom ______  __  __  ______  __  __  ______ 
 72
65
 73
6
 40
63.5000000000000071
 49
31.75
 74
0
 49
-6.3499999999999996
 74
0
 49
6.3499999999999996
 74
0
 49
-6.3499999999999996
 74
0
 49
6.3499999999999996
 74
0
 49
-6.3499999999999996
 74
0
  0
LTYPE
  5
33
100
AcDbSymbolTableRecord
100
AcDbLinetypeTableRecord
  2
ACAD_ISO02W100
 70
0
  3
ISO dash __ __ __ __ __ __ __ __ __ __ __ __ __
 72
65
 73
2
 40
15.0
 49
12.0
 74
0
 49
-3.0
 74
0
  0
LTYPE
  5
34
100
AcDbSymbolTableRecord
100
AcDbLinetypeTableRecord
  2
DOT
 70
0
  3
Dot . . . . . . . . . . . . . . . . . . . . . . . .
 72
65
 73
2
 40
6.3499999999999996
 49
0.0
 74
0
 49
-6.3499999999999996
 74
0
  0
LTYPE
  5
35
100
AcDbSymbolTableRecord
100
AcDbLinetypeTableRecord
  2
BORDER2
 70
0
  3
Border (.5x) __.__.__.__.__.__.__.__.__.__.__.
 72
65
 73
6
 40
22.2249999999999979
 49
6.3499999999999996
 74
0
 49
-3.1749999999999998
 74
0
 49
6.3499999999999996
 74
0
 49
-3.1749999999999998
 74
0
 49
0.0
 74
0
 49
-3.1749999999999998
 74
0
  0
LTYPE
  5
36
100
AcDbSymbolTableRecord
100
AcDbLinetypeTableRecord
  2
BORDER
 70
0
  3
Border __ __ . __ __ . __ __ . __ __ . __ __ .
 72
65
 73
6
 40
44.4499999999999957
 49
12.6999999999999993
 74
0
 49
-6.3499999999999996
 74
0
 49
12.6999999999999993
 74
0
 49
-6.3499999999999996
 74
0
 49
0.0
 74
0
 49
-6.3499999999999996
 74
0
  0
LTYPE
  5
37
100
AcDbSymbolTableRecord
100
AcDbLinetypeTableRecord
  2
DIVIDE2
 70
0
  3
Divide (.5x) __..__..__..__..__..__..__..__.._
 72
65
 73
6
 40
15.875
 49
6.3499999999999996
 74
0
 49
-3.1749999999999998
 74
0
 49
0.0
 74
0
 49
-3.1749999999999998
 74
0
 49
0.0
 74
0
 49
-3.1749999999999998
 74
0
  0
LTYPE
  5
38
100
AcDbSymbolTableRecord
100
AcDbLinetypeTableRecord
  2
DASHDOT2
 70
0
  3
Dash dot (.5x) _._._._._._._._._._._._._._._.
 72
65
 73
4
 40
12.6999999999999993
 49
6.3499999999999996
 74
0
 49
-3.1749999999999998
 74
0
 49
0.0
 74
0
 49
-3.1749999999999998
 74
0
  0
LTYPE
  5
39
100
AcDbSymbolTableRecord
100
AcDbLinetypeTableRecord
  2
PHANTOMX2
 70
0
  3
Phantom (2x) ____________    ____    ____   _
 72
65
 73
6
 40
127.0000000000000142
 49
63.5
 74
0
 49
-12.6999999999999993
 74
0
 49
12.6999999999999993
 74
0
 49
-12.6999999999999993
 74
0
 49
12.6999999999999993
 74
0
 49
-12.6999999999999993
 74
0
  0
LTYPE
  5
3A
100
AcDbSymbolTableRecord
100
AcDbLinetypeTableRecord
  2
HIDDEN2
 70
0
  3
Hidden (.5x) _ _ _ _ _ _ _ _ _ _ _ _ _ _ _ _ _ 
 72
65
 73
2
 40
4.7624999999999993
 49
3.1749999999999998
 74
0
 49
-1.5874999999999999
 74
0
  0
LTYPE
  5
3B
100
AcDbSymbolTableRecord
100
AcDbLinetypeTableRecord
  2
HIDDEN
 70
0
  3
Hidden __ __ __ __ __ __ __ __ __ __ __ __ __ __
 72
65
 73
2
 40
9.5249999999999986
 49
6.3499999999999996
 74
0
 49
-3.1749999999999998
 74
0
  0
LTYPE
  5
3C
100
AcDbSymbolTableRecord
100
AcDbLinetypeTableRecord
  2
ACAD_ISO09W100
 70
0
  3
ISO long-dash double-short-dash ____ __ __ ____
 72
65
 73
6
 40
45.0
 49
24.0
 74
0
 49
-3.0
 74
0
 49
6.0
 74
0
 49
-3.0
 74
0
 49
6.0
 74
0
 49
-3.0
 74
0
  0
LTYPE
  5
14
100
AcDbSymbolTableRecord
100
AcDbLinetypeTableRecord
  2
BYBLOCK
 70
0
  3

 72
65
 73
0
 40
0.0
  0
LTYPE
  5
3D
100
AcDbSymbolTableRecord
100
AcDbLinetypeTableRecord
  2
ACAD_ISO08W100
 70
0
  3
ISO long-dash short-dash ____ __ ____ __ ____ _
 72
65
 73
4
 40
36.0
 49
24.0
 74
0
 49
-3.0
 74
0
 49
6.0
 74
0
 49
-3.0
 74
0
  0
LTYPE
  5
3E
100
AcDbSymbolTableRecord
100
AcDbLinetypeTableRecord
  2
CENTERX2
 70
0
  3
Center (2x) ________  __  ________  __  _____
 72
65
 73
4
 40
101.6000000000000085
 49
63.5
 74
0
 49
-12.6999999999999993
 74
0
 49
12.6999999999999993
 74
0
 49
-12.6999999999999993
 74
0
  0
LTYPE
  5
3F
100
AcDbSymbolTableRecord
100
AcDbLinetypeTableRecord
  2
ACAD_ISO15W100
 70
0
  3
ISO double-dash triple-dot __ __ . . . __ __ . .
 72
65
 73
10
 40
39.0
 49
12.0
 74
0
 49
-3.0
 74
0
 49
12.0
 74
0
 49
-3.0
 74
0
 49
0.0
 74
0
 49
-3.0
 74
0
 49
0.0
 74
0
 49
-3.0
 74
0
 49
0.0
 74
0
 49
-3.0
 74
0
  0
LTYPE
  5
40
100
AcDbSymbolTableRecord
100
AcDbLinetypeTableRecord
  2
ACAD_ISO07W100
 70
0
  3
ISO dot . . . . . . . . . . . . . . . . . . . . 
 72
65
 73
2
 40
3.0
 49
0.0
 74
0
 49
-3.0
 74
0
  0
LTYPE
  5
41
100
AcDbSymbolTableRecord
100
AcDbLinetypeTableRecord
  2
DASHDOTX2
 70
0
  3
Dash dot (2x) ____  .  ____  .  ____  .  ___
 72
65
 73
4
 40
50.7999999999999972
 49
25.3999999999999986
 74
0
 49
-12.6999999999999993
 74
0
 49
0.0
 74
0
 49
-12.6999999999999993
 74
0
  0
LTYPE
  5
42
100
AcDbSymbolTableRecord
100
AcDbLinetypeTableRecord
  2
DOTX2
 70
0
  3
Dot (2x) .  .  .  .  .  .  .  .  .  .  .  .  .  .
 72
65
 73
2
 40
12.6999999999999993
 49
0.0
 74
0
 49
-12.6999999999999993
 74
0
  0
LTYPE
  5
43
100
AcDbSymbolTableRecord
100
AcDbLinetypeTableRecord
  2
DIVIDEX2
 70
0
  3
Divide (2x) ________  .  .  ________  .  .  _
 72
65
 73
6
 40
63.5
 49
25.3999999999999986
 74
0
 49
-12.6999999999999993
 74
0
 49
0.0
 74
0
 49
-12.6999999999999993
 74
0
 49
0.0
 74
0
 49
-12.6999999999999993
 74
0
  0
LTYPE
  5
44
100
AcDbSymbolTableRecord
100
AcDbLinetypeTableRecord
  2
ACAD_ISO14W100
 70
0
  3
ISO dash triple-dot __ . . . __ . . . __ . . . _
 72
65
 73
8
 40
24.0
 49
12.0
 74
0
 49
-3.0
 74
0
 49
0.0
 74
0
 49
-3.0
 74
0
 49
0.0
 74
0
 49
-3.0
 74
0
 49
0.0
 74
0
 49
-3.0
 74
0
  0
LTYPE
  5
45
100
AcDbSymbolTableRecord
100
AcDbLinetypeTableRecord
  2
DOT2
 70
0
  3
Dot (.5x) ........................................
 72
65
 73
2
 40
3.1749999999999998
 49
0.0
 74
0
 49
-3.1749999999999998
 74
0
  0
LTYPE
  5
46
100
AcDbSymbolTableRecord
100
AcDbLinetypeTableRecord
  2
ACAD_ISO06W100
 70
0
  3
ISO long-dash triple-dot ____ ... ____ ... ____
 72
65
 73
8
 40
36.0
 49
24.0
 74
0
 49
-3.0
 74
0
 49
0.0
 74
0
 49
-3.0
 74
0
 49
0.0
 74
0
 49
-3.0
 74
0
 49
0.0
 74
0
 49
-3.0
 74
0
  0
LTYPE
  5
47
100
AcDbSymbolTableRecord
100
AcDbLinetypeTableRecord
  2
BORDERX2
 70
0
  3
Border (2x) ____  ____  .  ____  ____  .  ___
 72
65
 73
6
 40
88.8999999999999915
 49
25.3999999999999986
 74
0
 49
-12.6999999999999993
 74
0
 49
25.3999999999999986
 74
0
 49
-12.6999999999999993
 74
0
 49
0.0
 74
0
 49
-12.6999999999999993
 74
0
  0
LTYPE
  5
48
100
AcDbSymbolTableRecord
100
AcDbLinetypeTableRecord
  2
DASHED2
 70
0
  3
Dashed (.5x) _ _ _ _ _ _ _ _ _ _ _ _ _ _ _ _ _ 
 72
65
 73
2
 40
9.5249999999999986
 49
6.3499999999999996
 74
0
 49
-3.1749999999999998
 74
0
  0
LTYPE
  5
49
100
AcDbSymbolTableRecord
100
AcDbLinetypeTableRecord
  2
ACAD_ISO13W100
 70
0
  3
ISO double-dash double-dot __ __ . . __ __ . . _
 72
65
 73
8
 40
36.0
 49
12.0
 74
0
 49
-3.0
 74
0
 49
12.0
 74
0
 49
-3.0
 74
0
 49
0.0
 74
0
 49
-3.0
 74
0
 49
0.0
 74
0
 49
-3.0
 74
0
  0
LTYPE
  5
4A
100
AcDbSymbolTableRecord
100
AcDbLinetypeTableRecord
  2
PHANTOM2
 70
0
  3
Phantom (.5x) ___ _ _ ___ _ _ ___ _ _ ___ _ _
 72
65
 73
6
 40
31.7500000000000036
 49
15.875
 74
0
 49
-3.1749999999999998
 74
0
 49
3.1749999999999998
 74
0
 49
-3.1749999999999998
 74
0
 49
3.1749999999999998
 74
0
 49
-3.1749999999999998
 74
0
  0
LTYPE
  5
4B
100
AcDbSymbolTableRecord
100
AcDbLinetypeTableRecord
  2
ACAD_ISO05W100
 70
0
  3
ISO long-dash double-dot ____ .. ____ .. ____ . 
 72
65
 73
6
 40
33.0
 49
24.0
 74
0
 49
-3.0
 74
0
 49
0.0
 74
0
 49
-3.0
 74
0
 49
0.0
 74
0
 49
-3.0
 74
0
  0
LTYPE
  5
15
100
AcDbSymbolTableRecord
100
AcDbLinetypeTableRecord
  2
BYLAYER
 70
0
  3

 72
65
 73
0
 40
0.0
  0
LTYPE
  5
4C
100
AcDbSymbolTableRecord
100
AcDbLinetypeTableRecord
  2
CENTER2
 70
0
  3
Center (.5x) ___ _ ___ _ ___ _ ___ _ ___ _ ___
 72
65
 73
4
 40
28.5750000000000028
 49
19.0500000000000007
 74
0
 49
-3.1749999999999998
 74
0
 49
3.1749999999999998
 74
0
 49
-3.1749999999999998
 74
0
  0
LTYPE
  5
4D
100
AcDbSymbolTableRecord
100
AcDbLinetypeTableRecord
  2
ACAD_ISO12W100
 70
0
  3
ISO dash double-dot __ . . __ . . __ . . __ . . 
 72
65
 73
6
 40
21.0
 49
12.0
 74
0
 49
-3.0
 74
0
 49
0.0
 74
0
 49
-3.0
 74
0
 49
0.0
 74
0
 49
-3.0
 74
0
  0
LTYPE
  5
4E
100
AcDbSymbolTableRecord
100
AcDbLinetypeTableRecord
  2
HIDDENX2
 70
0
  3
Hidden (2x) ____ ____ ____ ____ ____ ____ ____ 
 72
65
 73
2
 40
19.0499999999999972
 49
12.6999999999999993
 74
0
 49
-6.3499999999999996
 74
0
  0
LTYPE
  5
4F
100
AcDbSymbolTableRecord
100
AcDbLinetypeTableRecord
  2
ACAD_ISO04W100
 70
0
  3
ISO long-dash dot ____ . ____ . ____ . ____ . _
 72
65
 73
4
 40
30.0
 49
24.0
 74
0
 49
-3.0
 74
0
 49
0.0
 74
0
 49
-3.0
 74
0
  0
LTYPE
  5
50
100
AcDbSymbolTableRecord
100
AcDbLinetypeTableRecord
  2
CENTER
 70
0
  3
Center ____ _ ____ _ ____ _ ____ _ ____ _ ____
 72
65
 73
4
 40
50.8000000000000043
 49
31.75
 74
0
 49
-6.3499999999999996
 74
0
 49
6.3499999999999996
 74
0
 49
-6.3499999999999996
 74
0
  0
LTYPE
  5
51
100
AcDbSymbolTableRecord
100
AcDbLinetypeTableRecord
  2
DASHEDX2
 70
0
  3
Dashed (2x) ____  ____  ____  ____  ____  ___
 72
65
 73
2
 40
38.0999999999999943
 49
25.3999999999999986
 74
0
 49
-12.6999999999999993
 74
0
  0
LTYPE
  5
52
100
AcDbSymbolTableRecord
100
AcDbLinetypeTableRecord
  2
DASHDOT
 70
0
  3
Dash dot __ . __ . __ . __ . __ . __ . __ . __
 72
65
 73
4
 40
25.3999999999999986
 49
12.6999999999999993
 74
0
 49
-6.3499999999999996
 74
0
 49
0.0
 74
0
 49
-6.3499999999999996
 74
0
  0
LTYPE
  5
53
100
AcDbSymbolTableRecord
100
AcDbLinetypeTableRecord
  2
ACAD_ISO11W100
 70
0
  3
ISO double-dash dot __ __ . __ __ . __ __ . __ _
 72
65
 73
6
 40
33.0
 49
12.0
 74
0
 49
-3.0
 74
0
 49
12.0
 74
0
 49
-3.0
 74
0
 49
0.0
 74
0
 49
-3.0
 74
0
  0
LTYPE
  5
54
100
AcDbSymbolTableRecord
100
AcDbLinetypeTableRecord
  2
DIVIDE
 70
0
  3
Divide ____ . . ____ . . ____ . . ____ . . ____
 72
65
 73
6
 40
31.75
 49
12.6999999999999993
 74
0
 49
-6.3499999999999996
 74
0
 49
0.0
 74
0
 49
-6.3499999999999996
 74
0
 49
0.0
 74
0
 49
-6.3499999999999996
 74
0
  0
LTYPE
  5
55
100
AcDbSymbolTableRecord
100
AcDbLinetypeTableRecord
  2
ACAD_ISO03W100
 70
0
  3
ISO dash space __    __    __    __    __    __
 72
65
 73
2
 40
30.0
 49
12.0
 74
0
 49
-18.0
 74
0
  0
LTYPE
  5
56
100
AcDbSymbolTableRecord
100
AcDbLinetypeTableRecord
  2
DASHED
 70
0
  3
Dashed __ __ __ __ __ __ __ __ __ __ __ __ __ _
 72
65
 73
2
 40
19.0499999999999972
 49
12.6999999999999993
 74
0
 49
-6.3499999999999996
 74
0
  0
ENDTAB
  0
TABLE
  2
LAYER
  5
2
100
AcDbSymbolTable
 70
1
  0
LAYER
  5
10
100
AcDbSymbolTableRecord
100
AcDbLayerTableRecord
  2
0
 70
0
 62
13
420
10834514
  6
CONTINUOUS
370
5
390
F
  0
ENDTAB
  0
TABLE
  2
STYLE
  5
3
100
AcDbSymbolTable
 70
1
  0
STYLE
  5
57
100
AcDbSymbolTableRecord
100
AcDbTextStyleTableRecord
  2
Standard
 70
0
 40
0.0
 41
1.0
 50
0.0
 71
0
 42
2.5
  3

  4

1001
ACAD
1000
txt
1071
0
  0
ENDTAB
  0
TABLE
  2
VIEW
  5
6
100
AcDbSymbolTable
 70
0
  0
ENDTAB
  0
TABLE
  2
UCS
  5
7
100
AcDbSymbolTable
 70
0
  0
ENDTAB
  0
TABLE
  2
APPID
  5
9
100
AcDbSymbolTable
 70
1
  0
APPID
  5
12
100
AcDbSymbolTableRecord
100
AcDbRegAppTableRecord
  2
ACAD
 70
0
  0
APPID
  5
58
100
AcDbSymbolTableRecord
100
AcDbRegAppTableRecord
  2
QCAD
 70
0
  0
ENDTAB
  0
TABLE
  2
DIMSTYLE
  5
A
100
AcDbSymbolTable
 70
1
100
AcDbDimStyleTable
 71
0
  0
DIMSTYLE
105
27
100
AcDbSymbolTableRecord
100
AcDbDimStyleTableRecord
  2
Standard
 41
0.18
 42
0.0625
 43
3.75
 44
0.18
 70
0
 73
0
 74
0
 77
1
 78
8
140
0.18
141
2.5
143
0.03937007874016
147
0.09
171
3
172
1
271
2
272
2
274
3
278
44
283
0
284
8
340
57
  0
ENDTAB
  0
TABLE
  2
BLOCK_RECORD
  5
1
100
AcDbSymbolTable
 70
1
  0
BLOCK_RECORD
  5
1F
100
AcDbSymbolTableRecord
100
AcDbBlockTableRecord
  2
*Model_Space
340
22
  0
BLOCK_RECORD
  5
1B
100
AcDbSymbolTableRecord
100
AcDbBlockTableRecord
  2
*Paper_Space
340
1E
  0
BLOCK_RECORD
  5
23
100
AcDbSymbolTableRecord
100
AcDbBlockTableRecord
  2
*Paper_Space0
340
26
  0
ENDTAB
  0
ENDSEC
  0
SECTION
  2
BLOCKS
  0
BLOCK
  5
20
100
AcDbEntity
  8
0
100
AcDbBlockBegin
  2
*Model_Space
 70
0
 10
0.0
 20
0.0
 30
0.0
  3
*Model_Space
  1

  0
ENDBLK
  5
21
100
AcDbEntity
  8
0
100
AcDbBlockEnd
  0
BLOCK
  5
1C
100
AcDbEntity
 67
1
  8
0
100
AcDbBlockBegin
  2
*Paper_Space
 70
0
 10
0.0
 20
0.0
 30
0.0
  3
*Paper_Space
  1

  0
ENDBLK
  5
1D
100
AcDbEntity
 67
1
  8
0
100
AcDbBlockEnd
  0
BLOCK
  5
24
100
AcDbEntity
  8
0
100
AcDbBlockBegin
  2
*Paper_Space0
 70
0
 10
0.0
 20
0.0
 30
0.0
  3
*Paper_Space0
  1

  0
ENDBLK
  5
25
100
AcDbEntity
  8
0
100
AcDbBlockEnd
  0
ENDSEC
  0
SECTION
  2
ENTITIES
  0
CIRCLE
  5
59
100
AcDbEntity
  8
0
 62
256
370
-1
 48
1.0
  6
BYLAYER
100
AcDbCircle
 10
308.0057396738840225
 20
312.1999999960954142
 30
0.0
 40
1.50000000000002
  0
LWPOLYLINE
  5
5A
100
AcDbEntity
  8
0
 62
256
370
-1
 48
1.0
  6
BYLAYER
100
AcDbPolyline
 90
25
 70
1
 10
308.3939682398062132
 20
185.5488887352803999
 30
0.0
 10
308.7557396721501846
 20
185.3990381015186131
 30
0.0
 10
309.0663998439267743
 20
185.160660167617408
 30
0.0
 10
309.3047777778194245
 20
184.8499999958343096
 30
0.0
 10
309.4546284115714911
 20
184.4882285634859898
 30
0.0
 10
309.5057396721326199
 20
184.0999999958314106
 30
0.0
 10
309.4546284115605772
 20
183.7117714281783094
 30
0.0
 10
309.3047777777986767
 20
183.3499999958343096
 30
0.0
 10
309.0663998438978979
 20
183.0393398240576914
 30
0.0
 10
308.7557396721147143
 20
182.8009618901652118
 30
0.0
 10
308.3939682397663091
 20
182.651111256413202
 30
0.0
 10
308.0057396721119858
 20
182.5999999958519879
 30
0.0
 10
307.617511104458913
 20
182.6511112564236896
 30
0.0
 10
307.255739672114828
 20
182.8009618901857039
 30
0.0
 10
306.9450795003381245
 20
183.0393398240867953
 30
0.0
 10
306.7067015664454743
 20
183.3499999958698083
 30
0.0
 10
306.5568509326934077
 20
183.7117714282180998
 30
0.0
 10
306.5057396721323926
 20
184.0999999958725084
 30
0.0
 10
306.5568509327040942
 20
184.4882285635256096
 30
0.0
 10
306.7067015664658811
 20
184.8499999958700073
 30
0.0
 10
306.9450795003671146
 20
185.1606601676463129
 30
0.0
 10
307.2557396721501277
 20
185.3990381015389062
 30
0.0
 10
307.6175111044985897
 20
185.5488887352910865
 30
0.0
 10
308.0057396721530836
 20
185.5999999958519879
 30
0.0
 10
308.3939682398062132
 20
185.5488887352803999
 30
0.0
  0
LWPOLYLINE
  5
5B
100
AcDbEntity
  8
0
 62
256
370
-1
 48
1.0
  6
BYLAYER
100
AcDbPolyline
 90
25
 70
1
 10
7.2498700734327297
 20
439.0009618942594898
 30
0.0
 10
6.939209901656187
 20
439.2393398281607801
 30
0.0
 10
6.7008319677636807
 20
439.5499999999436227
 30
0.0
 10
6.5509813340115448
 20
439.9117714322915731
 30
0.0
 10
6.4998700734504693
 20
440.2999999999465786
 30
0.0
 10
6.5509813340222216
 20
440.6882285675987987
 30
0.0
 10
6.7008319677841479
 20
441.0499999999436795
 30
0.0
 10
6.9392099016851594
 20
441.3606601717199283
 30
0.0
 10
7.2498700734683181
 20
441.5990381056126921
 30
0.0
 10
7.6116415058165119
 20
441.7488887393641903
 30
0.0
 10
7.9998700734711141
 20
441.7999999999256033
 30
0.0
 10
8.3880986411241203
 20
441.7488887393533901
 30
0.0
 10
8.7498700734684558
 20
441.599038105592399
 30
0.0
 10
9.0605302452448306
 20
441.3606601716908813
 30
0.0
 10
9.2989081791375501
 20
441.0499999999078113
 30
0.0
 10
9.4487588128893982
 20
440.6882285675591788
 30
0.0
 10
9.4998700734505537
 20
440.2999999999054808
 30
0.0
 10
9.4487588128788182
 20
439.9117714322520101
 30
0.0
 10
9.298908179116971
 20
439.5499999999083229
 30
0.0
 10
9.0605302452157837
 20
439.2393398281315058
 30
0.0
 10
8.7498700734327954
 20
439.0009618942389125
 30
0.0
 10
8.3880986410845217
 20
438.8511112604866753
 30
0.0
 10
7.999870073430027
 20
438.7999999999254896
 30
0.0
 10
7.6116415057769604
 20
438.8511112604971913
 30
0.0
 10
7.2498700734327297
 20
439.0009618942594898
 30
0.0
  0
LWPOLYLINE
  5
5C
100
AcDbEntity
  8
0
 62
256
370
-1
 48
1.0
  6
BYLAYER
100
AcDbPolyline
 90
13
 70
0
 10
289.9998879598882127
 20
29.9999999959469399
 30
0.0
 10
291.3051498820897791
 20
30.0855513821904701
 30
0.0
 10
292.5880784109177171
 20
30.3407417330198186
 30
0.0
 10
293.8267222835493158
 20
30.7612046707803195
 30
0.0
 10
294.9998879599064026
 20
31.3397459580323101
 30
0.0
 10
296.0875022500032969
 20
32.0664665929491832
 30
0.0
 10
297.0709557717934786
 20
32.9289321839821412
 30
0.0
 10
297.9334213628541193
 20
33.9123857057483775
 30
0.0
 10
298.6601419978006788
 20
34.9999999958253625
 30
0.0
 10
299.2386832850854148
 20
36.1731656721663271
 30
0.0
 10
299.6591462228805085
 20
37.4118095447860028
 30
0.0
 10
299.9143365737455724
 20
38.6947380736069917
 30
0.0
 10
299.9998879600250916
 20
39.9999999958061991
 30
0.0
  0
LINE
  5
5D
100
AcDbEntity
  8
0
 62
256
370
-1
 48
1.0
  6
BYLAYER
100
AcDbLine
 10
10.9998700714282194
 20
292.200000000326213
 30
0.0
 11
4.9998700714266606
 21
292.2000000004082949
 31
0.0
  0
LWPOLYLINE
  5
5E
100
AcDbEntity
  8
0
 62
256
370
-1
 48
1.0
  6
BYLAYER
100
AcDbPolyline
 90
25
 70
1
 10
7.9998700716762139
 20
310.7000000003670266
 30
0.0
 10
7.6116415040231997
 20
310.7511112609387283
 30
0.0
 10
7.2498700716789806
 20
310.9009618947006857
 30
0.0
 10
6.9392098999023286
 20
311.1393398286016918
 30
0.0
 10
6.7008319660097886
 20
311.4500000003848186
 30
0.0
 10
6.5509813322579644
 20
311.8117714327328258
 30
0.0
 10
6.4998700716967086
 20
312.2000000003877176
 30
0.0
 10
6.5509813322686199
 20
312.5882285680406767
 30
0.0
 10
6.7008319660304503
 20
312.9500000003847049
 30
0.0
 10
6.9392098999314307
 20
313.2606601721614084
 30
0.0
 10
7.2498700717144429
 20
313.4990381060537175
 30
0.0
 10
7.6116415040628356
 20
313.6488887398057841
 30
0.0
 10
7.9998700717172584
 20
313.7000000003670266
 30
0.0
 10
8.3880986393704227
 20
313.6488887397952112
 30
0.0
 10
8.749870071714513
 20
313.4990381060334244
 30
0.0
 10
9.0605302434910868
 20
313.2606601721324182
 30
0.0
 10
9.2989081773837601
 20
312.9500000003491778
 30
0.0
 10
9.4487588111357379
 20
312.5882285680007726
 30
0.0
 10
9.4998700716966979
 20
312.2000000003465061
 30
0.0
 10
9.4487588111250442
 20
311.811771432693206
 30
0.0
 10
9.2989081773632947
 20
311.4500000003495188
 30
0.0
 10
9.0605302434620043
 20
311.1393398285727017
 30
0.0
 10
8.7498700716789646
 20
310.900961894680222
 30
0.0
 10
8.3880986393307566
 20
310.7511112609279849
 30
0.0
 10
7.9998700716762139
 20
310.7000000003670266
 30
0.0
  0
LINE
  5
5F
100
AcDbEntity
  8
0
 62
256
370
-1
 48
1.0
  6
BYLAYER
100
AcDbLine
 10
10.9998700712913404
 20
282.2000000003267814
 30
0.0
 11
10.9998700714282194
 21
292.200000000326213
 31
0.0
  0
LINE
  5
60
100
AcDbEntity
  8
0
 62
256
370
-1
 48
1.0
  6
BYLAYER
100
AcDbLine
 10
4.9998700712897568
 20
282.2000000004089202
 30
0.0
 11
10.9998700712913404
 21
282.2000000003267814
 31
0.0
  0
LINE
  5
61
100
AcDbEntity
  8
0
 62
256
370
-1
 48
1.0
  6
BYLAYER
100
AcDbLine
 10
10.9998700721036595
 20
342.2000000002440743
 30
0.0
 11
4.9998700721030946
 21
342.200000000326213
 31
0.0
  0
LINE
  5
62
100
AcDbEntity
  8
0
 62
256
370
-1
 48
1.0
  6
BYLAYER
100
AcDbLine
 10
370.0998879596658071
 20
13.9999999949137095
 30
0.0
 11
370.0998879598478197
 21
27.2999999949465106
 31
0.0
  0
LINE
  5
63
100
AcDbEntity
  8
0
 62
256
370
-1
 48
1.0
  6
BYLAYER
100
AcDbLine
 10
351.0998879598453755
 20
27.299999995206651
 30
0.0
 11
351.099887959663306
 21
13.9999999951738392
 31
0.0
  0
LINE
  5
64
100
AcDbEntity
  8
0
 62
256
370
-1
 48
1.0
  6
BYLAYER
100
AcDbLine
 10
370.0998879598478197
 20
27.2999999949465106
 30
0.0
 11
351.0998879598453755
 21
27.299999995206651
 31
0.0
  0
LINE
  5
65
100
AcDbEntity
  8
0
 62
256
370
-1
 48
1.0
  6
BYLAYER
100
AcDbLine
 10
389.999290807834825
 20
490.2998918017233905
 30
0.0
 11
389.9998806518900096
 21
5.9999999948447007
 31
0.0
  0
LINE
  5
66
100
AcDbEntity
  8
0
 62
256
370
-1
 48
1.0
  6
BYLAYER
100
AcDbLine
 10
4.9998700721030946
 20
342.200000000326213
 30
0.0
 11
4.9998700719661686
 21
332.2000000004081244
 31
0.0
  0
LINE
  5
67
100
AcDbEntity
  8
0
 62
256
370
-1
 48
1.0
  6
BYLAYER
100
AcDbLine
 10
4.9998700719661686
 20
332.2000000004081244
 30
0.0
 11
10.9998700719667699
 21
332.2000000003260993
 31
0.0
  0
LINE
  5
68
100
AcDbEntity
  8
0
 62
256
370
-1
 48
1.0
  6
BYLAYER
100
AcDbLine
 10
10.9998700719667699
 20
332.2000000003260993
 30
0.0
 11
10.9998700721036595
 21
342.2000000002440743
 31
0.0
  0
LINE
  5
69
100
AcDbEntity
  8
0
 62
256
370
-1
 48
1.0
  6
BYLAYER
100
AcDbLine
 10
311.0057396717244842
 20
154.0999999958955016
 30
0.0
 11
305.0057396717256779
 21
154.0999999959780951
 31
0.0
  0
LWPOLYLINE
  5
6A
100
AcDbEntity
  8
0
 62
256
370
-1
 48
1.0
  6
BYLAYER
100
AcDbPolyline
 90
25
 70
1
 10
306.7067015647079984
 20
56.7499999958622965
 30
0.0
 10
306.9450794986091751
 20
57.0606601676388223
 30
0.0
 10
307.2557396703921881
 20
57.2990381015312735
 30
0.0
 10
307.6175111027404228
 20
57.4488887352833899
 30
0.0
 10
308.0057396703949735
 20
57.4999999958443695
 30
0.0
 10
308.3939682380481031
 20
57.4488887352728028
 30
0.0
 10
308.7557396703920745
 20
57.2990381015108667
 30
0.0
 10
309.0663998421687779
 20
57.0606601676097327
 30
0.0
 10
309.3047777760614849
 20
56.7499999958267622
 30
0.0
 10
309.454628409813381
 20
56.3882285634783216
 30
0.0
 10
309.5057396703745098
 20
55.9999999958238632
 30
0.0
 10
309.4546284098025808
 20
55.6117714281709326
 30
0.0
 10
309.3047777760410213
 20
55.2499999958266628
 30
0.0
 10
309.0663998421397878
 20
54.9393398240501796
 30
0.0
 10
308.7557396703566042
 20
54.700961890157501
 30
0.0
 10
308.3939682380084832
 20
54.5511112564055267
 30
0.0
 10
308.0057396703538188
 20
54.4999999958445684
 30
0.0
 10
307.6175111027008029
 20
54.5511112564161067
 30
0.0
 10
307.2557396703567179
 20
54.7009618901780996
 30
0.0
 10
306.9450794985801281
 20
54.9393398240792479
 30
0.0
 10
306.706701564687819
 20
55.2499999958622467
 30
0.0
 10
306.5568509309356955
 20
55.6117714282103819
 30
0.0
 10
306.5057396703742825
 20
55.9999999958650179
 30
0.0
 10
306.5568509309463821
 20
56.388228563518048
 30
0.0
 10
306.7067015647079984
 20
56.7499999958622965
 30
0.0
  0
LWPOLYLINE
  5
6B
100
AcDbEntity
  8
0
 62
256
370
-1
 48
1.0
  6
BYLAYER
100
AcDbPolyline
 90
25
 70
1
 10
339.9940362402738856
 20
489.7999999953593147
 30
0.0
 10
340.3822648079269015
 20
489.748888734787613
 30
0.0
 10
340.7440362402709866
 20
489.5990381010257124
 30
0.0
 10
341.0546964120475195
 20
489.3606601671244221
 30
0.0
 10
341.2930743459402265
 20
489.0499999953418069
 30
0.0
 10
341.4429249796921226
 20
488.6882285629939133
 30
0.0
 10
341.4940362402533083
 20
488.2999999953389079
 30
0.0
 10
341.4429249796813792
 20
487.9117714276857214
 30
0.0
 10
341.2930743459194787
 20
487.5499999953418069
 30
0.0
 10
341.0546964120185862
 20
487.239339823564876
 30
0.0
 10
340.7440362402355163
 20
487.0009618896721122
 30
0.0
 10
340.3822648078871111
 20
486.851111255920614
 30
0.0
 10
339.9940362402329015
 20
486.7999999953589736
 30
0.0
 10
339.6058076725794876
 20
486.8511112559310163
 30
0.0
 10
339.2440362402354026
 20
487.0009618896929737
 30
0.0
 10
338.9333760684588128
 20
487.239339823593923
 30
0.0
 10
338.6949981345659921
 20
487.549999995376993
 30
0.0
 10
338.5451475008143234
 20
487.911771427725796
 30
0.0
 10
338.4940362402533083
 20
488.2999999953793804
 30
0.0
 10
338.54514750082501
 20
488.68822856303359
 30
0.0
 10
338.6949981345866831
 20
489.0499999953772772
 30
0.0
 10
338.9333760684879735
 20
489.3606601671538101
 30
0.0
 10
339.244036240271214
 20
489.5990381010462897
 30
0.0
 10
339.6058076726192212
 20
489.7488887347977879
 30
0.0
 10
339.9940362402738856
 20
489.7999999953593147
 30
0.0
  0
LINE
  5
6C
100
AcDbEntity
  8
0
 62
256
370
-1
 48
1.0
  6
BYLAYER
100
AcDbLine
 10
305.0057396717256779
 20
154.0999999959780951
 30
0.0
 11
305.0057396718635232
 21
164.0999999958974911
 31
0.0
  0
LINE
  5
6D
100
AcDbEntity
  8
0
 62
256
370
-1
 48
1.0
  6
BYLAYER
100
AcDbLine
 10
305.0057396718635232
 20
164.0999999958974911
 30
0.0
 11
311.0057396718622726
 21
164.0999999958148123
 31
0.0
  0
LINE
  5
6E
100
AcDbEntity
  8
0
 62
256
370
-1
 48
1.0
  6
BYLAYER
100
AcDbLine
 10
311.0057396718622726
 20
164.0999999958148123
 30
0.0
 11
311.0057396717244842
 21
154.0999999958955016
 31
0.0
  0
LINE
  5
6F
100
AcDbEntity
  8
0
 62
256
370
-1
 48
1.0
  6
BYLAYER
100
AcDbLine
 10
359.994036240208402
 20
485.2999999950943106
 30
0.0
 11
359.9940362402901997
 21
491.2999999950922074
 31
0.0
  0
LINE
  5
70
100
AcDbEntity
  8
0
 62
256
370
-1
 48
1.0
  6
BYLAYER
100
AcDbLine
 10
369.9940362402090273
 20
491.2999999949565222
 30
0.0
 11
359.9940362402901997
 21
491.2999999950922074
 31
0.0
  0
LINE
  5
71
100
AcDbEntity
  8
0
 62
256
370
-1
 48
1.0
  6
BYLAYER
100
AcDbLine
 10
369.9940362402090273
 20
491.2999999949565222
 30
0.0
 11
369.9940362401276275
 21
485.2999999949582275
 31
0.0
  0
LINE
  5
72
100
AcDbEntity
  8
0
 62
256
370
-1
 48
1.0
  6
BYLAYER
100
AcDbLine
 10
369.9940362401276275
 20
485.2999999949582275
 30
0.0
 11
359.994036240208402
 21
485.2999999950943106
 31
0.0
  0
LINE
  5
73
100
AcDbEntity
  8
0
 62
256
370
-1
 48
1.0
  6
BYLAYER
100
AcDbLine
 10
311.0057396707941848
 20
85.9999999958061352
 30
0.0
 11
311.0057396706559985
 21
75.9999999958060357
 31
0.0
  0
LINE
  5
74
100
AcDbEntity
  8
0
 62
256
370
-1
 48
1.0
  6
BYLAYER
100
AcDbLine
 10
311.0057396706559985
 20
75.9999999958060357
 30
0.0
 11
305.00573967065651
 21
75.9999999958887145
 31
0.0
  0
LWPOLYLINE
  5
75
100
AcDbEntity
  8
0
 62
256
370
-1
 48
1.0
  6
BYLAYER
100
AcDbPolyline
 90
25
 70
1
 10
306.9392277937320159
 20
441.3606601675273282
 30
0.0
 10
307.2498879655149722
 20
441.5990381014199784
 30
0.0
 10
307.6116593978629794
 20
441.7488887351710787
 30
0.0
 10
307.9998879655178143
 20
441.7999999957330033
 30
0.0
 10
308.3881165331707166
 20
441.7488887351606195
 30
0.0
 10
308.7498879655149722
 20
441.5990381013991737
 30
0.0
 10
309.0605481372913914
 20
441.3606601674982812
 30
0.0
 10
309.2989260711839279
 20
441.049999995715325
 30
0.0
 10
309.4487767049359945
 20
440.6882285633669198
 30
0.0
 10
309.4998879654971802
 20
440.2999999957127102
 30
0.0
 10
309.448776704925308
 20
439.9117714280590121
 30
0.0
 10
309.2989260711635211
 20
439.5499999957152113
 30
0.0
 10
309.060548137262515
 20
439.2393398239387921
 30
0.0
 10
308.7498879654793882
 20
439.0009618900456871
 30
0.0
 10
308.3881165331309262
 20
438.8511112562941889
 30
0.0
 10
307.9998879654767165
 20
438.7999999957328896
 30
0.0
 10
307.6116593978235869
 20
438.8511112563045913
 30
0.0
 10
307.2498879654793882
 20
439.0009618900666055
 30
0.0
 10
306.9392277937026279
 20
439.2393398239673843
 30
0.0
 10
306.7008498598100914
 20
439.5499999957503974
 30
0.0
 10
306.5509992260580816
 20
439.911771428098973
 30
0.0
 10
306.4998879654971233
 20
440.2999999957534101
 30
0.0
 10
306.5509992260687113
 20
440.688228563406426
 30
0.0
 10
306.7008498598308961
 20
441.049999995750909
 30
0.0
 10
306.9392277937320159
 20
441.3606601675273282
 30
0.0
  0
LWPOLYLINE
  5
76
100
AcDbEntity
  8
0
 62
256
370
-1
 48
1.0
  6
BYLAYER
100
AcDbPolyline
 90
25
 70
1
 10
341.2989260653288284
 20
8.7499999952950223
 30
0.0
 10
341.4487766990807245
 20
8.3882285629467717
 30
0.0
 10
341.4998879596420238
 20
7.9999999952922876
 30
0.0
 10
341.4487766990702085
 20
7.6117714276391499
 30
0.0
 10
341.2989260653083079
 20
7.2499999952949681
 30
0.0
 10
341.0605481314070744
 20
6.9393398235184849
 30
0.0
 10
340.7498879596240045
 20
6.7009618896257956
 30
0.0
 10
340.388116527275713
 20
6.5511112558737778
 30
0.0
 10
339.9998879596212191
 20
6.4999999953128542
 30
0.0
 10
339.6116593919680895
 20
6.5511112558844626
 30
0.0
 10
339.2498879596238908
 20
6.700961889646373
 30
0.0
 10
338.9392277878474147
 20
6.9393398235474208
 30
0.0
 10
338.7008498539548782
 20
7.249999995330545
 30
0.0
 10
338.5509992202028116
 20
7.611771427678736
 30
0.0
 10
338.4998879596416828
 20
7.9999999953333356
 30
0.0
 10
338.5509992202134981
 20
8.388228562986404
 30
0.0
 10
338.700849853975285
 20
8.7499999953306293
 30
0.0
 10
338.9392277878765753
 20
9.0606601671071481
 30
0.0
 10
339.2498879596594179
 20
9.2990381009996987
 30
0.0
 10
339.6116593920077094
 20
9.4488887347517192
 30
0.0
 10
339.9998879596624874
 20
9.4999999953127787
 30
0.0
 10
340.3881165273155034
 20
9.4488887347410024
 30
0.0
 10
340.7498879596595884
 20
9.2990381009791641
 30
0.0
 10
341.0605481314360077
 20
9.0606601670781668
 30
0.0
 10
341.2989260653288284
 20
8.7499999952950223
 30
0.0
  0
LINE
  5
77
100
AcDbEntity
  8
0
 62
256
370
-1
 48
1.0
  6
BYLAYER
100
AcDbLine
 10
305.00573967065651
 20
75.9999999958887145
 30
0.0
 11
305.0057396707937869
 21
85.9999999958889703
 31
0.0
  0
LINE
  5
78
100
AcDbEntity
  8
0
 62
256
370
-1
 48
1.0
  6
BYLAYER
100
AcDbLine
 10
305.0057396707937869
 20
85.9999999958889703
 30
0.0
 11
311.0057396707941848
 21
85.9999999958061352
 31
0.0
  0
LINE
  5
79
100
AcDbEntity
  8
0
 62
256
370
-1
 48
1.0
  6
BYLAYER
100
AcDbLine
 10
305.0057396699677952
 20
25.9999999959705406
 30
0.0
 11
305.005739670105072
 21
35.9999999958898371
 31
0.0
  0
LINE
  5
7A
100
AcDbEntity
  8
0
 62
256
370
-1
 48
1.0
  6
BYLAYER
100
AcDbLine
 10
305.005739670105072
 20
35.9999999958898371
 30
0.0
 11
311.0057396701043899
 21
35.9999999958070518
 31
0.0
  0
LINE
  5
7B
100
AcDbEntity
  8
0
 62
256
370
-1
 48
1.0
  6
BYLAYER
100
AcDbLine
 10
311.0057396701043899
 20
35.9999999958070518
 30
0.0
 11
311.0057396699664878
 21
25.9999999958879506
 31
0.0
  0
LINE
  5
7C
100
AcDbEntity
  8
0
 62
256
370
-1
 48
1.0
  6
BYLAYER
100
AcDbLine
 10
311.0057396699664878
 20
25.9999999958879506
 30
0.0
 11
305.0057396699677952
 21
25.9999999959705406
 31
0.0
  0
LINE
  5
7D
100
AcDbEntity
  8
0
 62
256
370
-1
 48
1.0
  6
BYLAYER
100
AcDbLine
 10
10.9998700737206292
 20
460.2999999998846192
 30
0.0
 11
10.9998700738574104
 21
470.2999999998024805
 31
0.0
  0
LWPOLYLINE
  5
7E
100
AcDbEntity
  8
0
 62
256
370
-1
 48
1.0
  6
BYLAYER
100
AcDbPolyline
 90
25
 70
1
 10
55.5001083323415827
 20
488.2999999993264169
 30
0.0
 10
55.4489970717698597
 20
487.9117714316728893
 30
0.0
 10
55.2991464380080373
 20
487.5499999993286906
 30
0.0
 10
55.060768504106818
 20
487.2393398275522145
 30
0.0
 10
54.7501083323237694
 20
487.0009618936599054
 30
0.0
 10
54.3883368999754566
 20
486.8511112599077251
 30
0.0
 10
54.0001083323210267
 20
486.7999999993471079
 30
0.0
 10
53.6118797646680179
 20
486.8511112599184116
 30
0.0
 10
53.2501083323237623
 20
487.0009618936801985
 30
0.0
 10
52.9394481605471867
 20
487.2393398275813183
 30
0.0
 10
52.7010702266545579
 20
487.5499999993643883
 30
0.0
 10
52.5512195929026333
 20
487.911771431712225
 30
0.0
 10
52.5001083323415187
 20
488.2999999993675146
 30
0.0
 10
52.5512195929132631
 20
488.6882285670205874
 30
0.0
 10
52.7010702266752276
 20
489.0499999993646156
 30
0.0
 10
52.9394481605763616
 20
489.3606601711412054
 30
0.0
 10
53.2501083323593676
 20
489.599038105033685
 30
0.0
 10
53.6118797647077017
 20
489.7488887387858085
 30
0.0
 10
54.0001083323621529
 20
489.7999999993468236
 30
0.0
 10
54.3883369000151191
 20
489.7488887387746104
 30
0.0
 10
54.7501083323593534
 20
489.5990381050131077
 30
0.0
 10
55.0607685041359076
 20
489.36066017111159
 30
0.0
 10
55.2991464380283801
 20
489.0499999993286906
 30
0.0
 10
55.4489970717805178
 20
488.6882285669806834
 30
0.0
 10
55.5001083323415827
 20
488.2999999993264169
 30
0.0
  0
LWPOLYLINE
  5
7F
100
AcDbEntity
  8
0
 62
256
370
-1
 48
1.0
  6
BYLAYER
100
AcDbPolyline
 90
25
 70
1
 10
9.4998700699429417
 20
184.100000000023897
 30
0.0
 10
9.4487588093713413
 20
183.7117714323707958
 30
0.0
 10
9.2989081756094798
 20
183.350000000026597
 30
0.0
 10
9.0605302417082427
 20
183.0393398282502062
 30
0.0
 10
8.7498700699252083
 20
182.8009618943574992
 30
0.0
 10
8.3880986375770341
 20
182.6511112606054894
 30
0.0
 10
7.9998700699224106
 20
182.600000000044389
 30
0.0
 10
7.6116415022693928
 20
182.6511112606160907
 30
0.0
 10
7.2498700699251968
 20
182.8009618943779913
 30
0.0
 10
6.9392098981486718
 20
183.03933982827931
 30
0.0
 10
6.7008319642561247
 20
183.3500000000622094
 30
0.0
 10
6.5509813305041291
 20
183.7117714324103872
 30
0.0
 10
6.4998700699429621
 20
184.1000000000651085
 30
0.0
 10
6.5509813305147624
 20
184.4882285677180107
 30
0.0
 10
6.7008319642766709
 20
184.8500000000624084
 30
0.0
 10
6.9392098981776806
 20
185.1606601718387992
 30
0.0
 10
7.249870069960731
 20
185.3990381057315062
 30
0.0
 10
7.6116415023090802
 20
185.5488887394832886
 30
0.0
 10
7.999870069963503
 20
185.6000000000445027
 30
0.0
 10
8.3880986376167108
 20
185.548888739472801
 30
0.0
 10
8.7498700699607852
 20
185.3990381057107868
 30
0.0
 10
9.0605302417372933
 20
185.1606601718098091
 30
0.0
 10
9.2989081756299949
 20
184.850000000026796
 30
0.0
 10
9.4487588093819657
 20
184.4882285676783056
 30
0.0
 10
9.4998700699429417
 20
184.100000000023897
 30
0.0
  0
LINE
  5
80
100
AcDbEntity
  8
0
 62
256
370
-1
 48
1.0
  6
BYLAYER
100
AcDbLine
 10
4.9998700696729026
 20
164.1000000000857995
 30
0.0
 11
4.9998700695359926
 21
154.100000000086311
 31
0.0
  0
LINE
  5
81
100
AcDbEntity
  8
0
 62
256
370
-1
 48
1.0
  6
BYLAYER
100
AcDbLine
 10
4.9998700702124506
 20
204.1000000000857995
 30
0.0
 11
10.9998700702130296
 21
204.1000000000034902
 31
0.0
  0
LINE
  5
82
100
AcDbEntity
  8
0
 62
256
370
-1
 48
1.0
  6
BYLAYER
100
AcDbLine
 10
4.9998700703493402
 20
214.1000000000040018
 30
0.0
 11
4.9998700702124506
 21
204.1000000000857995
 31
0.0
  0
LWPOLYLINE
  5
83
100
AcDbEntity
  8
0
 62
256
370
-1
 48
1.0
  6
BYLAYER
100
AcDbPolyline
 90
13
 70
0
 10
38.999984235804142
 20
49.9999999994821067
 30
0.0
 10
39.1390270194497774
 20
78.1737118115847522
 30
0.0
 10
39.5561567659192974
 20
106.3446786558680941
 30
0.0
 10
40.2513328331247635
 20
134.5101557582123064
 30
0.0
 10
41.2244874881658134
 20
162.6673988793785952
 30
0.0
 10
42.4755259139306176
 20
190.8136645823871049
 30
0.0
 10
44.0043262183337092
 20
218.9462104998179086
 30
0.0
 10
45.8107394461931889
 20
247.0622956010072926
 30
0.0
 10
47.8945895937421682
 20
275.1591804591130881
 30
0.0
 10
50.2556736257766232
 20
303.2341275180257867
 30
0.0
 10
52.8937614954433926
 20
331.2844013590960799
 30
0.0
 10
55.8085961666462893
 20
359.3072689676516802
 30
0.0
 10
57.859848579240861
 20
377.2999999993019742
 30
0.0
  0
LWPOLYLINE
  5
84
100
AcDbEntity
  8
0
 62
256
370
-1
 48
1.0
  6
BYLAYER
100
AcDbPolyline
 90
25
 70
1
 10
198.2987151801549999
 20
487.5499999972790874
 30
0.0
 10
198.0603372462539085
 20
487.239339825502384
 30
0.0
 10
197.7496770744708101
 20
487.0009618916100749
 30
0.0
 10
197.3879056421224902
 20
486.8511112578585198
 30
0.0
 10
196.9996770744679964
 20
486.7999999972964815
 30
0.0
 10
196.6114485068150088
 20
486.8511112578688085
 30
0.0
 10
196.2496770744706964
 20
487.0009618916304248
 30
0.0
 10
195.9390169026941066
 20
487.2393398255313173
 30
0.0
 10
195.7006389688017123
 20
487.5499999973143872
 30
0.0
 10
195.5507883350495888
 20
487.9117714296627923
 30
0.0
 10
195.4996770744886021
 20
488.2999999973175136
 30
0.0
 10
195.5507883350601901
 20
488.6882285649701885
 30
0.0
 10
195.7006389688220054
 20
489.0499999973142167
 30
0.0
 10
195.9390169027234094
 20
489.3606601690914886
 30
0.0
 10
196.2496770745061951
 20
489.5990381029835135
 30
0.0
 10
196.6114485068546003
 20
489.7488887367356938
 30
0.0
 10
196.9996770745090942
 20
489.7999999972965952
 30
0.0
 10
197.3879056421621954
 20
489.7488887367247798
 30
0.0
 10
197.7496770745061951
 20
489.5990381029632204
 30
0.0
 10
198.0603372462830123
 20
489.3606601690618163
 30
0.0
 10
198.2987151801754919
 20
489.0499999972788032
 30
0.0
 10
198.448565813927388
 20
488.688228564930796
 30
0.0
 10
198.4996770744886021
 20
488.2999999972764726
 30
0.0
 10
198.4485658139167867
 20
487.9117714296232862
 30
0.0
 10
198.2987151801549999
 20
487.5499999972790874
 30
0.0
  0
LINE
  5
85
100
AcDbEntity
  8
0
 62
256
370
-1
 48
1.0
  6
BYLAYER
100
AcDbLine
 10
304.9998879652247865
 20
420.2999999957775117
 30
0.0
 11
310.9998879652238202
 21
420.2999999956956003
 31
0.0
  0
LINE
  5
86
100
AcDbEntity
  8
0
 62
256
370
-1
 48
1.0
  6
BYLAYER
100
AcDbLine
 10
310.9998879650859749
 20
410.2999999957758064
 30
0.0
 11
304.9998879650868844
 21
410.2999999958577746
 31
0.0
  0
LINE
  5
87
100
AcDbEntity
  8
0
 62
256
370
-1
 48
1.0
  6
BYLAYER
100
AcDbLine
 10
309.9940362402094252
 20
485.2999999957738169
 30
0.0
 11
309.9940362402908249
 21
491.2999999957735895
 31
0.0
  0
LINE
  5
88
100
AcDbEntity
  8
0
 62
256
370
-1
 48
1.0
  6
BYLAYER
100
AcDbLine
 10
319.9940362402912797
 20
491.299999995637279
 30
0.0
 11
309.9940362402908249
 21
491.2999999957735895
 31
0.0
  0
LINE
  5
89
100
AcDbEntity
  8
0
 62
256
370
-1
 48
1.0
  6
BYLAYER
100
AcDbLine
 10
319.9940362402912797
 20
491.299999995637279
 30
0.0
 11
319.9940362402095957
 21
485.2999999956379042
 31
0.0
  0
CIRCLE
  5
8A
100
AcDbEntity
  8
0
 62
256
370
-1
 48
1.0
  6
BYLAYER
100
AcDbCircle
 10
7.9998700681892219
 20
55.9999999998868248
 30
0.0
 40
1.5000000000000191
  0
LINE
  5
8B
100
AcDbEntity
  8
0
 62
256
370
-1
 48
1.0
  6
BYLAYER
100
AcDbLine
 10
4.9998700677822407
 20
25.9999999999286686
 30
0.0
 11
10.9998700677837604
 21
25.9999999998465299
 31
0.0
  0
LINE
  5
8C
100
AcDbEntity
  8
0
 62
256
370
-1
 48
1.0
  6
BYLAYER
100
AcDbLine
 10
10.9998700702130296
 20
204.1000000000034902
 30
0.0
 11
10.9998700703498908
 21
214.0999999999214936
 31
0.0
  0
LINE
  5
8D
100
AcDbEntity
  8
0
 62
256
370
-1
 48
1.0
  6
BYLAYER
100
AcDbLine
 10
10.9998700703498908
 20
214.0999999999214936
 30
0.0
 11
4.9998700703493402
 21
214.1000000000040018
 31
0.0
  0
LINE
  5
8E
100
AcDbEntity
  8
0
 62
256
370
-1
 48
1.0
  6
BYLAYER
100
AcDbLine
 10
311.0057396743058007
 20
342.199999996056988
 30
0.0
 11
305.0057396743058007
 21
342.199999996139411
 31
0.0
  0
LINE
  5
8F
100
AcDbEntity
  8
0
 62
256
370
-1
 48
1.0
  6
BYLAYER
100
AcDbLine
 10
311.0057396741681259
 20
332.1999999960561922
 30
0.0
 11
311.0057396743058007
 21
342.199999996056988
 31
0.0
  0
LINE
  5
90
100
AcDbEntity
  8
0
 62
256
370
-1
 48
1.0
  6
BYLAYER
100
AcDbLine
 10
310.9998879659167983
 20
470.299999995694975
 30
0.0
 11
310.9998879657790098
 21
460.2999999956941792
 31
0.0
  0
LINE
  5
91
100
AcDbEntity
  8
0
 62
256
370
-1
 48
1.0
  6
BYLAYER
100
AcDbLine
 10
310.9998879657790098
 20
460.2999999956941792
 30
0.0
 11
304.9998879657788962
 21
460.2999999957772843
 31
0.0
  0
LINE
  5
92
100
AcDbEntity
  8
0
 62
256
370
-1
 48
1.0
  6
BYLAYER
100
AcDbLine
 10
304.9998879657788962
 20
460.2999999957772843
 30
0.0
 11
304.9998879659166846
 21
470.2999999957768864
 31
0.0
  0
LINE
  5
93
100
AcDbEntity
  8
0
 62
256
370
-1
 48
1.0
  6
BYLAYER
100
AcDbLine
 10
304.9998879659166846
 20
470.2999999957768864
 30
0.0
 11
310.9998879659167983
 21
470.299999995694975
 31
0.0
  0
LINE
  5
94
100
AcDbEntity
  8
0
 62
256
370
-1
 48
1.0
  6
BYLAYER
100
AcDbLine
 10
305.0057396736146984
 20
292.199999996140491
 30
0.0
 11
305.0057396734770236
 21
282.1999999962213224
 31
0.0
  0
LINE
  5
95
100
AcDbEntity
  8
0
 62
256
370
-1
 48
1.0
  6
BYLAYER
100
AcDbLine
 10
311.0057396736137889
 20
292.1999999960576133
 30
0.0
 11
305.0057396736146984
 21
292.199999996140491
 31
0.0
  0
LINE
  5
96
100
AcDbEntity
  8
0
 62
256
370
-1
 48
1.0
  6
BYLAYER
100
AcDbLine
 10
311.0057396734761141
 20
282.1999999961387857
 30
0.0
 11
311.0057396736137889
 21
292.1999999960576133
 31
0.0
  0
LINE
  5
97
100
AcDbEntity
  8
0
 62
256
370
-1
 48
1.0
  6
BYLAYER
100
AcDbLine
 10
305.0057396734770236
 20
282.1999999962213224
 30
0.0
 11
311.0057396734761141
 21
282.1999999961387857
 31
0.0
  0
LINE
  5
98
100
AcDbEntity
  8
0
 62
256
370
-1
 48
1.0
  6
BYLAYER
100
AcDbLine
 10
216.9996770744438948
 20
485.2999999970315912
 30
0.0
 11
216.9996770745254082
 21
491.2999999970297722
 31
0.0
  0
LINE
  5
99
100
AcDbEntity
  8
0
 62
256
370
-1
 48
1.0
  6
BYLAYER
100
AcDbLine
 10
226.9996770744446906
 20
491.2999999968939733
 30
0.0
 11
216.9996770745254082
 21
491.2999999970297722
 31
0.0
  0
LINE
  5
9A
100
AcDbEntity
  8
0
 62
256
370
-1
 48
1.0
  6
BYLAYER
100
AcDbLine
 10
226.9996770744446906
 20
491.2999999968939733
 30
0.0
 11
226.9996770743630918
 21
485.2999999968952238
 31
0.0
  0
LINE
  5
9B
100
AcDbEntity
  8
0
 62
256
370
-1
 48
1.0
  6
BYLAYER
100
AcDbLine
 10
226.9996770743630918
 20
485.2999999968952238
 30
0.0
 11
216.9996770744438948
 21
485.2999999970315912
 31
0.0
  0
LINE
  5
9C
100
AcDbEntity
  8
0
 62
256
370
-1
 48
1.0
  6
BYLAYER
100
AcDbLine
 10
74.0001083322967901
 20
485.2999999990809101
 30
0.0
 11
74.0001083323783462
 21
491.2999999990797164
 31
0.0
  0
LINE
  5
9D
100
AcDbEntity
  8
0
 62
256
370
-1
 48
1.0
  6
BYLAYER
100
AcDbLine
 10
84.0001083322976143
 20
491.2999999989435764
 30
0.0
 11
84.0001083322159872
 21
485.2999999989451112
 31
0.0
  0
LINE
  5
9E
100
AcDbEntity
  8
0
 62
256
370
-1
 48
1.0
  6
BYLAYER
100
AcDbLine
 10
84.0001083322159872
 20
485.2999999989451112
 30
0.0
 11
74.0001083322967901
 21
485.2999999990809101
 31
0.0
  0
LINE
  5
9F
100
AcDbEntity
  8
0
 62
256
370
-1
 48
1.0
  6
BYLAYER
100
AcDbLine
 10
24.0001083322976392
 20
485.2999999997609279
 30
0.0
 11
24.0001083323112994
 21
491.2999999997113036
 31
0.0
  0
LINE
  5
A0
100
AcDbEntity
  8
0
 62
256
370
-1
 48
1.0
  6
BYLAYER
100
AcDbLine
 10
24.0001083323112994
 20
491.2999999997113036
 30
0.0
 11
34.0001083323794973
 21
491.2999999996250153
 31
0.0
  0
LINE
  5
A1
100
AcDbEntity
  8
0
 62
256
370
-1
 48
1.0
  6
BYLAYER
100
AcDbLine
 10
34.0001083323794973
 20
491.2999999996250153
 30
0.0
 11
34.0001083322979625
 21
485.299999999624788
 31
0.0
  0
LINE
  5
A2
100
AcDbEntity
  8
0
 62
256
370
-1
 48
1.0
  6
BYLAYER
100
AcDbLine
 10
34.0001083322979625
 20
485.299999999624788
 30
0.0
 11
24.0001083322976392
 21
485.2999999997609279
 31
0.0
  0
LWPOLYLINE
  5
A3
100
AcDbEntity
  8
0
 62
256
370
-1
 48
1.0
  6
BYLAYER
100
AcDbPolyline
 90
25
 70
1
 10
198.2987151735999873
 20
8.7499999972629077
 30
0.0
 10
198.4485658073517982
 20
8.3882285649147512
 30
0.0
 10
198.4996770679130123
 20
7.9999999972601268
 30
0.0
 10
198.4485658073411969
 20
7.6117714296071481
 30
0.0
 10
198.29871517357941
 20
7.249999997262929
 30
0.0
 10
198.0603372396784039
 20
6.939339825486349
 30
0.0
 10
197.7496770678951918
 20
6.7009618915938116
 30
0.0
 10
197.3879056355469004
 20
6.5511112578418071
 30
0.0
 10
196.9996770678924918
 20
6.4999999972806153
 30
0.0
 10
196.6114485002393053
 20
6.5511112578524724
 30
0.0
 10
196.2496770678951066
 20
6.7009618916143454
 30
0.0
 10
195.9390168961186021
 20
6.9393398255154048
 30
0.0
 10
195.7006389622260087
 20
7.2499999972984703
 30
0.0
 10
195.5507883284739989
 20
7.6117714296467884
 30
0.0
 10
195.4996770679128986
 20
7.9999999973011899
 30
0.0
 10
195.5507883284847139
 20
8.3882285649543675
 30
0.0
 10
195.7006389622465861
 20
8.7499999972984863
 30
0.0
 10
195.9390168961475922
 20
9.0606601690749855
 30
0.0
 10
196.2496770679306906
 20
9.2990381029676943
 30
0.0
 10
196.6114485002790957
 20
9.4488887367196401
 30
0.0
 10
196.9996770679333906
 20
9.4999999972807121
 30
0.0
 10
197.3879056355866055
 20
9.4488887367090602
 30
0.0
 10
197.7496770679306906
 20
9.2990381029472218
 30
0.0
 10
198.060337239707394
 20
9.0606601690459776
 30
0.0
 10
198.2987151735999873
 20
8.7499999972629077
 30
0.0
  0
LINE
  5
A4
100
AcDbEntity
  8
0
 62
256
370
-1
 48
1.0
  6
BYLAYER
100
AcDbLine
 10
166.999677067868987
 20
4.999999997694994
 30
0.0
 11
166.9996770679506142
 21
10.9999999976948697
 31
0.0
  0
LINE
  5
A5
100
AcDbEntity
  8
0
 62
256
370
-1
 48
1.0
  6
BYLAYER
100
AcDbLine
 10
34.0001083258039287
 20
10.9999999995120703
 30
0.0
 11
34.0001083257223087
 21
4.9999999995120064
 31
0.0
  0
LINE
  5
A6
100
AcDbEntity
  8
0
 62
256
370
-1
 48
1.0
  6
BYLAYER
100
AcDbLine
 10
24.0001083257357486
 20
10.9999999995989999
 30
0.0
 11
34.0001083258039287
 21
10.9999999995120703
 31
0.0
  0
LWPOLYLINE
  5
A7
100
AcDbEntity
  8
0
 62
256
370
-1
 48
1.0
  6
BYLAYER
100
AcDbPolyline
 90
25
 70
1
 10
55.448997065194277
 20
7.6117714315601814
 30
0.0
 10
55.2991464314324332
 20
7.2499999992161026
 30
0.0
 10
55.0607684975313276
 20
6.9393398274395732
 30
0.0
 10
54.7501083257482435
 20
6.7009618935468627
 30
0.0
 10
54.3883368933999378
 20
6.5511112597948937
 30
0.0
 10
54.0001083257455079
 20
6.4999999992338768
 30
0.0
 10
53.6118797580923996
 20
6.5511112598055252
 30
0.0
 10
53.2501083257481866
 20
6.7009618935673947
 30
0.0
 10
52.9394481539716821
 20
6.9393398274686149
 30
0.0
 10
52.7010702200790533
 20
7.2499999992516857
 30
0.0
 10
52.5512195863270577
 20
7.6117714315998386
 30
0.0
 10
52.5001083257659715
 20
7.9999999992544337
 30
0.0
 10
52.5512195863376874
 20
8.3882285669074488
 30
0.0
 10
52.701070220099588
 20
8.749999999251683
 30
0.0
 10
52.9394481540006794
 20
9.0606601710282177
 30
0.0
 10
53.2501083257837777
 20
9.2990381049207347
 30
0.0
 10
53.6118797581320834
 20
9.4488887386727178
 30
0.0
 10
54.0001083257865133
 20
9.4999999992339212
 30
0.0
 10
54.3883368934396074
 20
9.4488887386620899
 30
0.0
 10
54.7501083257837706
 20
9.2990381049002142
 30
0.0
 10
55.0607684975603178
 20
9.0606601709991725
 30
0.0
 10
55.2991464314529679
 20
8.7499999992161257
 30
0.0
 10
55.4489970652049635
 20
8.3882285668677685
 30
0.0
 10
55.5001083257660284
 20
7.9999999992133697
 30
0.0
 10
55.448997065194277
 20
7.6117714315601814
 30
0.0
  0
LINE
  5
A8
100
AcDbEntity
  8
0
 62
256
370
-1
 48
1.0
  6
BYLAYER
100
AcDbLine
 10
84.0001083257220245
 20
10.9999999988311803
 30
0.0
 11
84.0001083256404115
 21
4.9999999988321493
 31
0.0
  0
LINE
  5
A9
100
AcDbEntity
  8
0
 62
256
370
-1
 48
1.0
  6
BYLAYER
100
AcDbLine
 10
84.0001083257220245
 20
10.9999999988311803
 30
0.0
 11
74.0001083258028132
 21
10.9999999989671693
 31
0.0
  0
LINE
  5
AA
100
AcDbEntity
  8
0
 62
256
370
-1
 48
1.0
  6
BYLAYER
100
AcDbLine
 10
74.0001083257211718
 20
4.9999999989681587
 30
0.0
 11
84.0001083256404115
 21
4.9999999988321493
 31
0.0
  0
LWPOLYLINE
  5
AB
100
AcDbEntity
  8
0
 62
256
370
-1
 48
1.0
  6
BYLAYER
100
AcDbPolyline
 90
7
 70
0
 10
0.0000000000821431
 20
5.9999999999970512
 30
0.0
 10
0.2044447034139467
 20
4.4470858158961413
 30
0.0
 10
0.803846943211335
 20
3.0000001049487559
 30
0.0
 10
1.757358435695799
 20
1.757359395168862
 30
0.0
 10
2.9999989298021301
 20
0.8038476216131253
 30
0.0
 10
4.447084505171464
 20
0.2044450545013042
 30
0.0
 10
5.9999986430292509
 20
-0.0000000000821434
 30
0.0
  0
LINE
  5
AC
100
AcDbEntity
  8
0
 62
256
370
-1
 48
1.0
  6
BYLAYER
100
AcDbLine
 10
5.9999986430292509
 20
-0.0000000000821434
 30
0.0
 11
383.9998879594742789
 21
-0.0000000050760976
 31
0.0
  0
ARC
  5
AD
100
AcDbEntity
  8
0
 62
256
370
-1
 48
1.0
  6
BYLAYER
100
AcDbCircle
 10
383.9998879595531776
 20
5.9999926872651033
 30
0.0
 40
5.9999926923411842
100
AcDbArc
 50
269.9999999992448352
 51
0.0000697823297299
  0
LWPOLYLINE
  5
AE
100
AcDbEntity
  8
0
 62
256
370
-1
 48
1.0
  6
BYLAYER
100
AcDbPolyline
 90
7
 70
0
 10
383.9992328681420872
 20
496.2999999947426204
 30
0.0
 10
385.5521702248283873
 20
496.0955508104553928
 30
0.0
 10
386.9992763448889264
 20
495.4961362794089155
 30
0.0
 10
388.2419322920572995
 20
494.5426059444355928
 30
0.0
 10
389.1954522192087893
 20
493.2999420110759274
 30
0.0
 10
389.7948546300860926
 20
491.8528308707063843
 30
0.0
 10
389.999290807834825
 20
490.2998918017233905
 30
0.0
  0
LWPOLYLINE
  5
AF
100
AcDbEntity
  8
0
 62
256
370
-1
 48
1.0
  6
BYLAYER
100
AcDbPolyline
 90
13
 70
0
 10
57.859848579240861
 20
377.2999999993019742
 30
0.0
 10
58.09711646749804
 20
378.647965273018599
 30
0.0
 10
58.4959319800649098
 20
379.9572599750925974
 30
0.0
 10
59.0504207253212172
 20
381.2085987227255259
 30
0.0
 10
59.752415307727297
 20
382.3835498009481171
 30
0.0
 10
60.5915756302652326
 20
383.4648066543470009
 30
0.0
 10
61.5555411998967088
 20
384.4364428056443899
 30
0.0
 10
62.6301131926395129
 20
385.2841464462853196
 30
0.0
 10
63.7994635965176116
 20
385.9954312436021837
 30
0.0
 10
65.0463683517913154
 20
386.5598202594584905
 30
0.0
 10
66.3524610544101705
 20
386.9690002713224999
 30
0.0
 10
67.6985034857355146
 20
387.216944222680695
 30
0.0
 10
69.0646689837403756
 20
387.2999999991488949
 30
0.0
  0
LINE
  5
B0
100
AcDbEntity
  8
0
 62
256
370
-1
 48
1.0
  6
BYLAYER
100
AcDbLine
 10
216.9996770678679923
 20
4.9999999970150997
 30
0.0
 11
216.9996770679499889
 21
10.9999999970139193
 31
0.0
  0
LINE
  5
B1
100
AcDbEntity
  8
0
 62
256
370
-1
 48
1.0
  6
BYLAYER
100
AcDbLine
 10
74.0001083258028132
 20
10.9999999989671693
 30
0.0
 11
74.0001083257211718
 21
4.9999999989681587
 31
0.0
  0
LINE
  5
B2
100
AcDbEntity
  8
0
 62
256
370
-1
 48
1.0
  6
BYLAYER
100
AcDbLine
 10
34.0001083257223087
 20
4.9999999995120064
 30
0.0
 11
24.0001083257220493
 21
4.9999999996479954
 31
0.0
  0
LINE
  5
B3
100
AcDbEntity
  8
0
 62
256
370
-1
 48
1.0
  6
BYLAYER
100
AcDbLine
 10
24.0001083257220493
 20
4.9999999996479954
 30
0.0
 11
24.0001083257357486
 21
10.9999999995989999
 31
0.0
  0
LINE
  5
B4
100
AcDbEntity
  8
0
 62
256
370
-1
 48
1.0
  6
BYLAYER
100
AcDbLine
 10
10.9998700695375007
 20
154.100000000004087
 30
0.0
 11
10.9998700696744098
 21
164.1000000000036891
 31
0.0
  0
LINE
  5
B5
100
AcDbEntity
  8
0
 62
256
370
-1
 48
1.0
  6
BYLAYER
100
AcDbLine
 10
4.9998700695359926
 20
154.100000000086311
 30
0.0
 11
10.9998700695375007
 21
154.100000000004087
 31
0.0
  0
LINE
  5
B6
100
AcDbEntity
  8
0
 62
256
370
-1
 48
1.0
  6
BYLAYER
100
AcDbLine
 10
289.9998879598882127
 20
29.9999999959469399
 30
0.0
 11
48.9999868876003077
 21
29.999999999326171
 31
0.0
  0
LINE
  5
B7
100
AcDbEntity
  8
0
 62
256
370
-1
 48
1.0
  6
BYLAYER
100
AcDbLine
 10
299.9998879646428804
 20
377.299999995987605
 30
0.0
 11
299.9998879600250916
 21
39.9999999958061991
 31
0.0
  0
ARC
  5
B8
100
AcDbEntity
  8
0
 62
256
370
-1
 48
1.0
  6
BYLAYER
100
AcDbCircle
 10
289.9998879646429373
 20
377.2999999961243134
 30
0.0
 40
9.9999999999999289
100
AcDbArc
 50
0.0
 51
90.0000000007844108
  0
LINE
  5
B9
100
AcDbEntity
  8
0
 62
256
370
-1
 48
1.0
  6
BYLAYER
100
AcDbLine
 10
10.9998700696744098
 20
164.1000000000036891
 30
0.0
 11
4.9998700696729026
 21
164.1000000000857995
 31
0.0
  0
LINE
  5
BA
100
AcDbEntity
  8
0
 62
256
370
-1
 48
1.0
  6
BYLAYER
100
AcDbLine
 10
309.9998879596822121
 20
4.9999999957532282
 30
0.0
 11
319.9998879596012102
 21
4.9999999956170154
 31
0.0
  0
LINE
  5
BB
100
AcDbEntity
  8
0
 62
256
370
-1
 48
1.0
  6
BYLAYER
100
AcDbLine
 10
359.9998879595426047
 20
4.9999999950625176
 30
0.0
 11
359.9998879596823258
 21
10.9999999950570793
 31
0.0
  0
LINE
  5
BC
100
AcDbEntity
  8
0
 62
256
370
-1
 48
1.0
  6
BYLAYER
100
AcDbLine
 10
369.9998879595427184
 20
4.9999999949257123
 30
0.0
 11
369.99988795968261
 21
10.9999999949201595
 31
0.0
  0
LINE
  5
BD
100
AcDbEntity
  8
0
 62
256
370
-1
 48
1.0
  6
BYLAYER
100
AcDbLine
 10
359.9998879595426047
 20
4.9999999950625176
 30
0.0
 11
369.9998879595427184
 21
4.9999999949257123
 31
0.0
  0
LINE
  5
BE
100
AcDbEntity
  8
0
 62
256
370
-1
 48
1.0
  6
BYLAYER
100
AcDbLine
 10
69.0646689837403756
 20
387.2999999991488949
 30
0.0
 11
289.9998879647797025
 21
387.2999999961244271
 31
0.0
  0
LINE
  5
BF
100
AcDbEntity
  8
0
 62
256
370
-1
 48
1.0
  6
BYLAYER
100
AcDbLine
 10
38.999984235804142
 20
49.9999999994821067
 30
0.0
 11
38.999986887718201
 21
39.9999999994820925
 31
0.0
  0
LWPOLYLINE
  5
C0
100
AcDbEntity
  8
0
 62
256
370
-1
 48
1.0
  6
BYLAYER
100
AcDbPolyline
 90
13
 70
0
 10
38.999986887718201
 20
39.9999999994820925
 30
0.0
 10
39.0855382739623778
 20
38.6947380772779184
 30
0.0
 10
39.3407286247927317
 20
37.4118095484472803
 30
0.0
 10
39.7611915625543872
 20
36.1731656758135216
 30
0.0
 10
40.3397328498079233
 20
34.9999999994542605
 30
0.0
 10
41.0664534847264378
 20
33.9123857093550285
 30
0.0
 10
41.9289190757614776
 20
32.9289321875630634
 30
0.0
 10
42.9123725975298171
 20
32.0664665965010798
 30
0.0
 10
43.9999868876091327
 20
31.3397459615528113
 30
0.0
 10
45.1731525639525628
 20
30.761204674267141
 30
0.0
 10
46.4117964365748605
 20
30.3407417364715783
 30
0.0
 10
47.6947249653984429
 20
30.0855513856060988
 30
0.0
 10
48.9999868876003077
 20
29.999999999326171
 30
0.0
  0
LINE
  5
C1
100
AcDbEntity
  8
0
 62
256
370
-1
 48
1.0
  6
BYLAYER
100
AcDbLine
 10
4.9998700685955626
 20
85.9999999998459685
 30
0.0
 11
4.9998700684586446
 21
75.9999999999279794
 31
0.0
  0
LINE
  5
C2
100
AcDbEntity
  8
0
 62
256
370
-1
 48
1.0
  6
BYLAYER
100
AcDbLine
 10
10.9998700684592805
 20
75.9999999998458691
 30
0.0
 11
10.9998700685961701
 21
85.9999999997638298
 31
0.0
  0
LINE
  5
C3
100
AcDbEntity
  8
0
 62
256
370
-1
 48
1.0
  6
BYLAYER
100
AcDbLine
 10
10.9998700685961701
 20
85.9999999997638298
 30
0.0
 11
4.9998700685955626
 21
85.9999999998459685
 31
0.0
  0
LINE
  5
C4
100
AcDbEntity
  8
0
 62
256
370
-1
 48
1.0
  6
BYLAYER
100
AcDbLine
 10
4.9998700684586446
 20
75.9999999999279794
 30
0.0
 11
10.9998700684592805
 21
75.9999999998458691
 31
0.0
  0
LINE
  5
C5
100
AcDbEntity
  8
0
 62
256
370
-1
 48
1.0
  6
BYLAYER
100
AcDbLine
 10
10.9998700677837604
 20
25.9999999998465299
 30
0.0
 11
10.9998700679206696
 21
35.9999999998459685
 31
0.0
  0
LINE
  5
C6
100
AcDbEntity
  8
0
 62
256
370
-1
 48
1.0
  6
BYLAYER
100
AcDbLine
 10
4.9998700679191437
 20
35.9999999999280931
 30
0.0
 11
4.9998700677822407
 21
25.9999999999286686
 31
0.0
  0
LINE
  5
C7
100
AcDbEntity
  8
0
 62
256
370
-1
 48
1.0
  6
BYLAYER
100
AcDbLine
 10
10.9998700679206696
 20
35.9999999998459685
 30
0.0
 11
4.9998700679191437
 21
35.9999999999280931
 31
0.0
  0
LINE
  5
C8
100
AcDbEntity
  8
0
 62
256
370
-1
 48
1.0
  6
BYLAYER
100
AcDbLine
 10
176.9996770678692997
 20
4.9999999975589402
 30
0.0
 11
176.9996770679508984
 21
10.9999999975588505
 31
0.0
  0
LINE
  5
C9
100
AcDbEntity
  8
0
 62
256
370
-1
 48
1.0
  6
BYLAYER
100
AcDbLine
 10
176.9996770678692997
 20
4.9999999975589402
 30
0.0
 11
166.999677067868987
 21
4.999999997694994
 31
0.0
  0
LINE
  5
CA
100
AcDbEntity
  8
0
 62
256
370
-1
 48
1.0
  6
BYLAYER
100
AcDbLine
 10
226.9996770678691007
 20
10.9999999968779605
 30
0.0
 11
226.9996770677877009
 21
4.9999999968790139
 31
0.0
  0
LINE
  5
CB
100
AcDbEntity
  8
0
 62
256
370
-1
 48
1.0
  6
BYLAYER
100
AcDbLine
 10
226.9996770677877009
 20
4.9999999968790139
 30
0.0
 11
216.9996770678679923
 21
4.9999999970150997
 31
0.0
  0
LINE
  5
CC
100
AcDbEntity
  8
0
 62
256
370
-1
 48
1.0
  6
BYLAYER
100
AcDbLine
 10
176.9996770679508984
 20
10.9999999975588505
 30
0.0
 11
166.9996770679506142
 21
10.9999999976948697
 31
0.0
  0
LINE
  5
CD
100
AcDbEntity
  8
0
 62
256
370
-1
 48
1.0
  6
BYLAYER
100
AcDbLine
 10
226.9996770678691007
 20
10.9999999968779605
 30
0.0
 11
216.9996770679499889
 21
10.9999999970139193
 31
0.0
  0
ARC
  5
CE
100
AcDbEntity
  8
0
 62
256
370
-1
 48
1.0
  6
BYLAYER
100
AcDbCircle
 10
5.9999567113545655
 20
490.3001525700465777
 30
0.0
 40
5.9998471744593527
100
AcDbArc
 50
89.9983916270667805
 51
179.9998510415758517
  0
CIRCLE
  5
CF
100
AcDbEntity
  8
0
 62
256
370
-1
 48
1.0
  6
BYLAYER
100
AcDbCircle
 10
379.999912994475153
 20
20.6493777499155158
 30
0.0
 40
1.4999999999999969
  0
LINE
  5
D0
100
AcDbEntity
  8
0
 62
256
370
-1
 48
1.0
  6
BYLAYER
100
AcDbLine
 10
383.9992328681420872
 20
496.2999999947426204
 30
0.0
 11
6.0001251354841623
 21
496.2999997421429725
 31
0.0
  0
LINE
  5
D1
100
AcDbEntity
  8
0
 62
256
370
-1
 48
1.0
  6
BYLAYER
100
AcDbLine
 10
0.0001095369154715
 20
490.3001681686359916
 30
0.0
 11
0.0000000000821431
 21
5.9999999999970512
 31
0.0
  0
LINE
  5
D2
100
AcDbEntity
  8
0
 62
256
370
-1
 48
1.0
  6
BYLAYER
100
AcDbLine
 10
10.9998700738574104
 20
470.2999999998024805
 30
0.0
 11
4.9998700738568624
 21
470.2999999998849034
 31
0.0
  0
LINE
  5
D3
100
AcDbEntity
  8
0
 62
256
370
-1
 48
1.0
  6
BYLAYER
100
AcDbLine
 10
4.9998700737199249
 20
460.2999999999668148
 30
0.0
 11
10.9998700737206292
 21
460.2999999998846192
 31
0.0
  0
LINE
  5
D4
100
AcDbEntity
  8
0
 62
256
370
-1
 48
1.0
  6
BYLAYER
100
AcDbLine
 10
4.9998700738568624
 20
470.2999999998849034
 30
0.0
 11
4.9998700737199249
 21
460.2999999999668148
 31
0.0
  0
LINE
  5
D5
100
AcDbEntity
  8
0
 62
256
370
-1
 48
1.0
  6
BYLAYER
100
AcDbLine
 10
304.9998879650868844
 20
410.2999999958577746
 30
0.0
 11
304.9998879652247865
 21
420.2999999957775117
 31
0.0
  0
LINE
  5
D6
100
AcDbEntity
  8
0
 62
256
370
-1
 48
1.0
  6
BYLAYER
100
AcDbLine
 10
310.9998879652238202
 20
420.2999999956956003
 30
0.0
 11
310.9998879650859749
 21
410.2999999957758064
 31
0.0
  0
LINE
  5
D7
100
AcDbEntity
  8
0
 62
256
370
-1
 48
1.0
  6
BYLAYER
100
AcDbLine
 10
176.9996770745264882
 20
491.2999999975747869
 30
0.0
 11
176.9996770744448895
 21
485.299999997575128
 31
0.0
  0
LINE
  5
D8
100
AcDbEntity
  8
0
 62
256
370
-1
 48
1.0
  6
BYLAYER
100
AcDbLine
 10
176.9996770744448895
 20
485.299999997575128
 30
0.0
 11
166.9996770744446906
 21
485.2999999977113248
 31
0.0
  0
LINE
  5
D9
100
AcDbEntity
  8
0
 62
256
370
-1
 48
1.0
  6
BYLAYER
100
AcDbLine
 10
166.9996770744446906
 20
485.2999999977113248
 30
0.0
 11
166.9996770745262893
 21
491.2999999977109269
 31
0.0
  0
LINE
  5
DA
100
AcDbEntity
  8
0
 62
256
370
-1
 48
1.0
  6
BYLAYER
100
AcDbLine
 10
176.9996770745264882
 20
491.2999999975747869
 30
0.0
 11
166.9996770745262893
 21
491.2999999977109269
 31
0.0
  0
LINE
  5
DB
100
AcDbEntity
  8
0
 62
256
370
-1
 48
1.0
  6
BYLAYER
100
AcDbLine
 10
369.99988795968261
 20
10.9999999949201595
 30
0.0
 11
359.9998879596823258
 21
10.9999999950570793
 31
0.0
  0
LINE
  5
DC
100
AcDbEntity
  8
0
 62
256
370
-1
 48
1.0
  6
BYLAYER
100
AcDbLine
 10
305.0057396741680122
 20
332.1999999961400931
 30
0.0
 11
311.0057396741681259
 21
332.1999999960561922
 31
0.0
  0
LINE
  5
DD
100
AcDbEntity
  8
0
 62
256
370
-1
 48
1.0
  6
BYLAYER
100
AcDbLine
 10
305.0057396743058007
 20
342.199999996139411
 30
0.0
 11
305.0057396741680122
 21
332.1999999961400931
 31
0.0
  0
LINE
  5
DE
100
AcDbEntity
  8
0
 62
256
370
-1
 48
1.0
  6
BYLAYER
100
AcDbLine
 10
311.0057396724142222
 20
204.0999999958139028
 30
0.0
 11
305.0057396724141086
 21
204.0999999958964111
 31
0.0
  0
LINE
  5
DF
100
AcDbEntity
  8
0
 62
256
370
-1
 48
1.0
  6
BYLAYER
100
AcDbLine
 10
305.0057396724141086
 20
204.0999999958964111
 30
0.0
 11
305.005739672551897
 21
214.09999999589661
 31
0.0
  0
LINE
  5
E0
100
AcDbEntity
  8
0
 62
256
370
-1
 48
1.0
  6
BYLAYER
100
AcDbLine
 10
305.005739672551897
 20
214.09999999589661
 30
0.0
 11
311.0057396725521244
 21
214.0999999958139881
 31
0.0
  0
LINE
  5
E1
100
AcDbEntity
  8
0
 62
256
370
-1
 48
1.0
  6
BYLAYER
100
AcDbLine
 10
311.0057396725521244
 20
214.0999999958139881
 30
0.0
 11
311.0057396724142222
 21
204.0999999958139028
 31
0.0
  0
LINE
  5
E2
100
AcDbEntity
  8
0
 62
256
370
-1
 48
1.0
  6
BYLAYER
100
AcDbLine
 10
351.099887959663306
 20
13.9999999951738392
 30
0.0
 11
370.0998879596658071
 21
13.9999999949137095
 31
0.0
  0
LINE
  5
E3
100
AcDbEntity
  8
0
 62
256
370
-1
 48
1.0
  6
BYLAYER
100
AcDbLine
 10
319.9940362402095957
 20
485.2999999956379042
 30
0.0
 11
309.9940362402094252
 21
485.2999999957738169
 31
0.0
  0
LINE
  5
E4
100
AcDbEntity
  8
0
 62
256
370
-1
 48
1.0
  6
BYLAYER
100
AcDbLine
 10
84.0001083322976143
 20
491.2999999989435764
 30
0.0
 11
74.0001083323783462
 21
491.2999999990797164
 31
0.0
  0
LINE
  5
E5
100
AcDbEntity
  8
0
 62
256
370
-1
 48
1.0
  6
BYLAYER
100
AcDbLine
 10
4.9998700714266606
 20
292.2000000004082949
 30
0.0
 11
4.9998700712897568
 21
282.2000000004089202
 31
0.0
  0
LINE
  5
E6
100
AcDbEntity
  8
0
 62
256
370
-1
 48
1.0
  6
BYLAYER
100
AcDbLine
 10
10.9998700731818992
 20
420.2999999998850171
 30
0.0
 11
4.9998700731805723
 21
420.299999999967099
 31
0.0
  0
LINE
  5
E7
100
AcDbEntity
  8
0
 62
256
370
-1
 48
1.0
  6
BYLAYER
100
AcDbLine
 10
10.99987007304507
 20
410.2999999998850171
 30
0.0
 11
10.9998700731818992
 21
420.2999999998850171
 31
0.0
  0
LINE
  5
E8
100
AcDbEntity
  8
0
 62
256
370
-1
 48
1.0
  6
BYLAYER
100
AcDbLine
 10
4.9998700730435113
 20
410.2999999999672127
 30
0.0
 11
10.99987007304507
 21
410.2999999998850171
 31
0.0
  0
LINE
  5
E9
100
AcDbEntity
  8
0
 62
256
370
-1
 48
1.0
  6
BYLAYER
100
AcDbLine
 10
4.9998700731805723
 20
420.299999999967099
 30
0.0
 11
4.9998700730435113
 21
410.2999999999672127
 31
0.0
  0
LINE
  5
EA
100
AcDbEntity
  8
0
 62
256
370
-1
 48
1.0
  6
BYLAYER
100
AcDbLine
 10
319.9998879596012102
 20
4.9999999956170154
 30
0.0
 11
319.9998879596835195
 21
10.9999999956043997
 31
0.0
  0
LINE
  5
EB
100
AcDbEntity
  8
0
 62
256
370
-1
 48
1.0
  6
BYLAYER
100
AcDbLine
 10
309.9998879596822121
 20
4.9999999957532282
 30
0.0
 11
309.9998879597641803
 21
10.9999999957406196
 31
0.0
  0
LINE
  5
EC
100
AcDbEntity
  8
0
 62
256
370
-1
 48
1.0
  6
BYLAYER
100
AcDbLine
 10
319.9998879596835195
 20
10.9999999956043997
 30
0.0
 11
309.9998879597641803
 21
10.9999999957406196
 31
0.0
  0
CIRCLE
  5
ED
100
AcDbEntity
  8
0
 62
256
370
-1
 48
1.0
  6
BYLAYER
100
AcDbCircle
 10
203.5311146577818135
 20
438.7499999970931412
 30
0.0
 40
1.4999999999999289
  0
LWPOLYLINE
  5
EE
100
AcDbEntity
  8
0
 62
256
370
-1
 48
1.0
  6
BYLAYER
100
AcDbPolyline
 90
25
 70
1
 10
272.2320765521150179
 20
439.4999999961461867
 30
0.0
 10
272.4704544860157966
 20
439.8106601679227197
 30
0.0
 10
272.7811146577988097
 20
440.0490381018150856
 30
0.0
 10
273.1428860901468738
 20
440.198888735567607
 30
0.0
 10
273.5311146578010835
 20
440.2499999961289063
 30
0.0
 10
273.9193432254543836
 20
440.1988887355576026
 30
0.0
 10
274.2811146577985255
 20
440.0490381017954746
 30
0.0
 10
274.5917748295755132
 20
439.8106601678960033
 30
0.0
 10
274.8301527634682202
 20
439.4999999961121944
 30
0.0
 10
274.9800033972202868
 20
439.1382285637637892
 30
0.0
 10
275.0311146577819841
 20
438.7499999961098069
 30
0.0
 10
274.9800033972102824
 20
438.3617714284566773
 30
0.0
 10
274.8301527634487798
 20
437.9999999961124786
 30
0.0
 10
274.5917748295477736
 20
437.6893398243354909
 30
0.0
 10
274.2811146577649879
 20
437.4509618904426134
 30
0.0
 10
273.9193432254168101
 20
437.3011112566907173
 30
0.0
 10
273.5311146577623731
 20
437.2499999961290769
 30
0.0
 10
273.142886090109414
 20
437.301111256700608
 30
0.0
 10
272.7811146577651016
 20
437.4509618904623949
 30
0.0
 10
272.4704544859882844
 20
437.6893398243628894
 30
0.0
 10
272.2320765520954069
 20
437.9999999961456183
 30
0.0
 10
272.0822259183435108
 20
438.3617714284943077
 30
0.0
 10
272.0311146577819272
 20
438.7499999961485742
 30
0.0
 10
272.0822259183531742
 20
439.1382285638018175
 30
0.0
 10
272.2320765521150179
 20
439.4999999961461867
 30
0.0
  0
ENDSEC
  0
SECTION
  2
OBJECTS
  0
DICTIONARY
  5
C
100
AcDbDictionary
280
0
281
1
  3
ACAD_GROUP
350
D
  3
ACAD_LAYOUT
350
1A
  3
ACAD_MLINESTYLE
350
17
  3
ACAD_PLOTSETTINGS
350
19
  3
ACAD_PLOTSTYLENAME
350
E
  3
AcDbVariableDictionary
350
EF
  3
QCAD_OBJECTS
350
F0
  0
DICTIONARY
  5
D
100
AcDbDictionary
280
0
281
1
  0
ACDBDICTIONARYWDFLT
  5
E
100
AcDbDictionary
281
1
  3
Normal
350
F
100
AcDbDictionaryWithDefault
340
F
  0
ACDBPLACEHOLDER
  5
F
  0
DICTIONARY
  5
17
100
AcDbDictionary
280
0
281
1
  3
Standard
350
18
  0
MLINESTYLE
  5
18
100
AcDbMlineStyle
  2
STANDARD
 70
0
  3

 62
256
 51
90.0
 52
90.0
 71
2
 49
0.5
 62
256
  6
BYLAYER
 49
-0.5
 62
256
  6
BYLAYER
  0
DICTIONARY
  5
19
100
AcDbDictionary
280
0
281
1
  0
DICTIONARY
  5
1A
100
AcDbDictionary
281
1
  3
Layout1
350
1E
  3
Layout2
350
26
  3
Model
350
22
  0
LAYOUT
  5
1E
100
AcDbPlotSettings
  1

  2
none_device
  4

  6

 40
0.0
 41
0.0
 42
0.0
 43
0.0
 44
0.0
 45
0.0
 46
0.0
 47
0.0
 48
0.0
 49
0.0
140
0.0
141
0.0
142
1.0
143
1.0
 70
688
 72
0
 73
0
 74
5
  7

 75
16
147
1.0
148
0.0
149
0.0
100
AcDbLayout
  1
Layout1
 70
1
 71
1
 10
0.0
 20
0.0
 11
420.0
 21
297.0
 12
0.0
 22
0.0
 32
0.0
 14
100000000000000000000.0
 24
100000000000000000000.0
 34
100000000000000000000.0
 15
-100000000000000000000.0
 25
-100000000000000000000.0
 35
-100000000000000000000.0
146
0.0
 13
0.0
 23
0.0
 33
0.0
 16
1.0
 26
0.0
 36
0.0
 17
0.0
 27
1.0
 37
0.0
 76
0
330
1B
  0
LAYOUT
  5
22
100
AcDbPlotSettings
  1

  2
none_device
  4

  6

 40
0.0
 41
0.0
 42
0.0
 43
0.0
 44
0.0
 45
0.0
 46
0.0
 47
0.0
 48
0.0
 49
0.0
140
0.0
141
0.0
142
1.0
143
1.0
 70
1712
 72
0
 73
0
 74
0
  7

 75
0
147
1.0
148
0.0
149
0.0
100
AcDbLayout
  1
Model
 70
1
 71
0
 10
0.0
 20
0.0
 11
12.0
 21
9.0
 12
0.0
 22
0.0
 32
0.0
 14
0.0
 24
0.0
 34
0.0
 15
0.0
 25
0.0
 35
0.0
146
0.0
 13
0.0
 23
0.0
 33
0.0
 16
1.0
 26
0.0
 36
0.0
 17
0.0
 27
1.0
 37
0.0
 76
0
330
1F
  0
LAYOUT
  5
26
100
AcDbPlotSettings
  1

  2
none_device
  4

  6

 40
0.0
 41
0.0
 42
0.0
 43
0.0
 44
0.0
 45
0.0
 46
0.0
 47
0.0
 48
0.0
 49
0.0
140
0.0
141
0.0
142
1.0
143
1.0
 70
688
 72
0
 73
0
 74
5
  7

 75
16
147
1.0
148
0.0
149
0.0
100
AcDbLayout
  1
Layout2
 70
1
 71
2
 10
0.0
 20
0.0
 11
12.0
 21
9.0
 12
0.0
 22
0.0
 32
0.0
 14
0.0
 24
0.0
 34
0.0
 15
0.0
 25
0.0
 35
0.0
146
0.0
 13
0.0
 23
0.0
 33
0.0
 16
1.0
 26
0.0
 36
0.0
 17
0.0
 27
1.0
 37
0.0
 76
0
330
23
  0
DICTIONARY
  5
EF
100
AcDbDictionary
281
1
  3
DIMASSOC
350
F2
  3
HIDETEXT
350
F1
  0
DICTIONARYVAR
  5
F1
100
DictionaryVariables
280
0
  1
2
  0
DICTIONARYVAR
  5
F2
100
DictionaryVariables
280
0
  1
1
  0
DICTIONARY
  5
F0
100
AcDbDictionary
281
1
  3
ColorSettings/BackgroundColor
350
F3
  3
ColorSettings/ColorMode
350
F4
  3
Grid/DisplayGrid00
350
F5
  3
Grid/DisplayGrid01
350
F6
  3
Grid/DisplayGrid02
350
F7
  3
Grid/DisplayGrid03
350
F8
  3
Grid/GridSpacingX00
350
F9
  3
Grid/GridSpacingX01
350
FA
  3
Grid/GridSpacingX02
350
FB
  3
Grid/GridSpacingX03
350
FC
  3
Grid/GridSpacingY00
350
FD
  3
Grid/GridSpacingY01
350
FE
  3
Grid/GridSpacingY02
350
FF
  3
Grid/GridSpacingY03
350
100
  3
Grid/IsometricGrid00
350
101
  3
Grid/IsometricGrid01
350
102
  3
Grid/IsometricGrid02
350
103
  3
Grid/IsometricGrid03
350
104
  3
Grid/IsometricProjection00
350
105
  3
Grid/IsometricProjection01
350
106
  3
Grid/IsometricProjection02
350
107
  3
Grid/IsometricProjection03
350
108
  3
Grid/MetaGridSpacingX00
350
109
  3
Grid/MetaGridSpacingX01
350
10A
  3
Grid/MetaGridSpacingX02
350
10B
  3
Grid/MetaGridSpacingX03
350
10C
  3
Grid/MetaGridSpacingY00
350
10D
  3
Grid/MetaGridSpacingY01
350
10E
  3
Grid/MetaGridSpacingY02
350
10F
  3
Grid/MetaGridSpacingY03
350
110
  3
MultiPageSettings/Columns
350
111
  3
MultiPageSettings/GlueMarginsBottom
350
112
  3
MultiPageSettings/GlueMarginsLeft
350
113
  3
MultiPageSettings/GlueMarginsRight
350
114
  3
MultiPageSettings/GlueMarginsTop
350
115
  3
MultiPageSettings/PrintCropMarks
350
116
  3
MultiPageSettings/Rows
350
117
  3
PageSettings/OffsetX
350
118
  3
PageSettings/OffsetY
350
119
  3
PageSettings/PageOrientation
350
11A
  3
PageSettings/PaperHeight
350
11B
  3
PageSettings/PaperWidth
350
11C
  3
PageSettings/Scale
350
11D
  3
PageSettings/ShowPaperBorders
350
11E
  3
UnitSettings/PaperUnit
350
11F
  3
ViewportCenter
350
120
  3
ViewportHeight
350
121
  3
ViewportWidth
350
122
  0
XRECORD
  5
F3
330
F0
100
AcDbXrecord
280
1
1000
Bianco
  0
XRECORD
  5
F4
330
F0
100
AcDbXrecord
280
1
1000
FullColor
  0
XRECORD
  5
F5
330
F0
100
AcDbXrecord
280
1
290
1
  0
XRECORD
  5
F6
330
F0
100
AcDbXrecord
280
1
290
1
  0
XRECORD
  5
F7
330
F0
100
AcDbXrecord
280
1
290
1
  0
XRECORD
  5
F8
330
F0
100
AcDbXrecord
280
1
290
1
  0
XRECORD
  5
F9
330
F0
100
AcDbXrecord
280
1
1000
auto
  0
XRECORD
  5
FA
330
F0
100
AcDbXrecord
280
1
1000
auto
  0
XRECORD
  5
FB
330
F0
100
AcDbXrecord
280
1
1000
auto
  0
XRECORD
  5
FC
330
F0
100
AcDbXrecord
280
1
1000
auto
  0
XRECORD
  5
FD
330
F0
100
AcDbXrecord
280
1
1000
auto
  0
XRECORD
  5
FE
330
F0
100
AcDbXrecord
280
1
1000
auto
  0
XRECORD
  5
FF
330
F0
100
AcDbXrecord
280
1
1000
auto
  0
XRECORD
  5
100
330
F0
100
AcDbXrecord
280
1
1000
auto
  0
XRECORD
  5
101
330
F0
100
AcDbXrecord
280
1
290
0
  0
XRECORD
  5
102
330
F0
100
AcDbXrecord
280
1
290
0
  0
XRECORD
  5
103
330
F0
100
AcDbXrecord
280
1
290
0
  0
XRECORD
  5
104
330
F0
100
AcDbXrecord
280
1
290
0
  0
XRECORD
  5
105
330
F0
100
AcDbXrecord
280
1
 90
4097
  0
XRECORD
  5
106
330
F0
100
AcDbXrecord
280
1
 90
4097
  0
XRECORD
  5
107
330
F0
100
AcDbXrecord
280
1
 90
4097
  0
XRECORD
  5
108
330
F0
100
AcDbXrecord
280
1
 90
4097
  0
XRECORD
  5
109
330
F0
100
AcDbXrecord
280
1
1000
auto
  0
XRECORD
  5
10A
330
F0
100
AcDbXrecord
280
1
1000
auto
  0
XRECORD
  5
10B
330
F0
100
AcDbXrecord
280
1
1000
auto
  0
XRECORD
  5
10C
330
F0
100
AcDbXrecord
280
1
1000
auto
  0
XRECORD
  5
10D
330
F0
100
AcDbXrecord
280
1
1000
auto
  0
XRECORD
  5
10E
330
F0
100
AcDbXrecord
280
1
1000
auto
  0
XRECORD
  5
10F
330
F0
100
AcDbXrecord
280
1
1000
auto
  0
XRECORD
  5
110
330
F0
100
AcDbXrecord
280
1
1000
auto
  0
XRECORD
  5
111
330
F0
100
AcDbXrecord
280
1
 90
1
  0
XRECORD
  5
112
330
F0
100
AcDbXrecord
280
1
 40
10.0
  0
XRECORD
  5
113
330
F0
100
AcDbXrecord
280
1
 40
10.0
  0
XRECORD
  5
114
330
F0
100
AcDbXrecord
280
1
 40
10.0
  0
XRECORD
  5
115
330
F0
100
AcDbXrecord
280
1
 40
10.0
  0
XRECORD
  5
116
330
F0
100
AcDbXrecord
280
1
290
0
  0
XRECORD
  5
117
330
F0
100
AcDbXrecord
280
1
 90
1
  0
XRECORD
  5
118
330
F0
100
AcDbXrecord
280
1
 40
0.0
  0
XRECORD
  5
119
330
F0
100
AcDbXrecord
280
1
 40
0.0
  0
XRECORD
  5
11A
330
F0
100
AcDbXrecord
280
1
1000
Portrait
  0
XRECORD
  5
11B
330
F0
100
AcDbXrecord
280
1
 40
297.0
  0
XRECORD
  5
11C
330
F0
100
AcDbXrecord
280
1
 40
210.0
  0
XRECORD
  5
11D
330
F0
100
AcDbXrecord
280
1
1000
1:1
  0
XRECORD
  5
11E
330
F0
100
AcDbXrecord
280
1
290
1
  0
XRECORD
  5
11F
330
F0
100
AcDbXrecord
280
1
 90
4
  0
XRECORD
  5
121
330
F0
100
AcDbXrecord
280
1
 40
547.2055327866852394
  0
XRECORD
  5
122
330
F0
100
AcDbXrecord
280
1
 40
893.0231557373783744
  0
ENDSEC
  0
EOF
