999
dxflib 3.12.2.0
  0
SECTION
  2
HEADER
  9
$ACADVER
  1
AC1015
  9
$HANDSEED
  5
FFFF
  9
$ANGBASE
 50
0.0
  9
$ANGDIR
 70
0
  9
$ATTMODE
 70
1
  9
$AUNITS
 70
0
  9
$AUPREC
 70
0
  9
$CECOLOR
 62
256
  9
$CELTSCALE
 40
1.0
  9
$CHAMFERA
 40
0.0
  9
$CHAMFERB
 40
0.0
  9
$CHAMFERC
 40
0.0
  9
$CHAMFERD
 40
0.0
  9
$CMLJUST
 70
0
  9
$CMLSCALE
 40
1.0
  9
$DIMADEC
 70
0
  9
$DIMALT
 70
0
  9
$DIMALTD
 70
2
  9
$DIMALTF
 40
25.3999999999999986
  9
$DIMALTTD
 70
2
  9
$DIMALTTZ
 70
0
  9
$DIMALTU
 70
2
  9
$DIMALTZ
 70
0
  9
$DIMAPOST
  1

  9
$DIMASZ
 40
0.18
  9
$DIMAUNIT
 70
0
  9
$DIMAZIN
 70
0
  9
$DIMBLK
  1

  9
$DIMBLK1
  1

  9
$DIMBLK2
  1

  9
$DIMCEN
 40
0.09
  9
$DIMCLRD
 70
0
  9
$DIMCLRE
 70
0
  9
$DIMCLRT
 70
0
  9
$DIMDEC
 70
4
  9
$DIMDLE
 40
0.0
  9
$DIMDLI
 40
0.38
  9
$DIMDSEP
 70
46
  9
$DIMEXE
 40
0.18
  9
$DIMEXO
 40
0.0625
  9
$DIMGAP
 40
0.09
  9
$DIMJUST
 70
0
  9
$DIMLFAC
 40
1.0
  9
$DIMLIM
 70
0
  9
$DIMLUNIT
 70
2
  9
$DIMPOST
  1

  9
$DIMRND
 40
0.0
  9
$DIMSAH
 70
0
  9
$DIMSCALE
 40
1.0
  9
$DIMSD1
 70
0
  9
$DIMSD2
 70
0
  9
$DIMSE1
 70
0
  9
$DIMSE2
 70
0
  9
$DIMSOXD
 70
0
  9
$DIMTAD
 70
0
  9
$DIMTDEC
 70
4
  9
$DIMTFAC
 40
1.0
  9
$DIMTIH
 70
1
  9
$DIMTIX
 70
0
  9
$DIMTM
 40
0.0
  9
$DIMTOFL
 70
0
  9
$DIMTOH
 70
1
  9
$DIMTOL
 70
0
  9
$DIMTOLJ
 70
1
  9
$DIMTP
 40
0.0
  9
$DIMTSZ
 40
0.0
  9
$DIMTVP
 40
0.0
  9
$DIMTXSTY
  7
STANDARD
  9
$DIMTXT
 40
0.18
  9
$DIMTZIN
 70
0
  9
$DIMUPT
 70
0
  9
$DIMZIN
 70
0
  9
$DISPSILH
 70
0
  9
$DWGCODEPAGE
  3
ANSI_1252
  9
$ELEVATION
 40
0.0
  9
$EXTMAX
 10
-100000000000000000000.0
 20
-100000000000000000000.0
 30
-100000000000000000000.0
  9
$EXTMIN
 10
100000000000000000000.0
 20
100000000000000000000.0
 30
100000000000000000000.0
  9
$FILLETRAD
 40
0.5
  9
$FILLMODE
 70
1
  9
$INSBASE
 10
0.0
 20
0.0
 30
0.0
  9
$INSUNITS
 70
0
  9
$LIMCHECK
 70
0
  9
$LIMMAX
 10
12.0
 20
9.0
  9
$LIMMIN
 10
0.0
 20
0.0
  9
$LTSCALE
 40
1.0
  9
$LUNITS
 70
2
  9
$LUPREC
 70
4
  9
$MAXACTVP
 70
64
  9
$MEASUREMENT
 70
1
  9
$MIRRTEXT
 70
1
  9
$ORTHOMODE
 70
0
  9
$PDMODE
 70
0
  9
$PDSIZE
 40
0
  9
$PELEVATION
 40
0.0
  9
$PEXTMAX
 10
-100000000000000000000.0
 20
-100000000000000000000.0
 30
-100000000000000000000.0
  9
$PEXTMIN
 10
100000000000000000000.0
 20
100000000000000000000.0
 30
100000000000000000000.0
  9
$PINSBASE
 10
0.0
 20
0.0
 30
0.0
  9
$PLIMCHECK
 70
0
  9
$PLIMMAX
 10
12.0
 20
9.0
  9
$PLIMMIN
 10
0.0
 20
0.0
  9
$PLINEGEN
 70
0
  9
$PLINEWID
 40
0.0
  9
$PROXYGRAPHICS
 70
1
  9
$PSLTSCALE
 70
1
  9
$PUCSNAME
  2

  9
$PUCSORG
 10
0.0
 20
0.0
 30
0.0
  9
$PUCSXDIR
 10
1.0
 20
0.0
 30
0.0
  9
$PUCSYDIR
 10
0.0
 20
1.0
 30
0.0
  9
$QTEXTMODE
 70
0
  9
$REGENMODE
 70
1
  9
$SHADEDGE
 70
3
  9
$SHADEDIF
 70
70
  9
$SKETCHINC
 40
0.1
  9
$SKPOLY
 70
0
  9
$SPLFRAME
 70
0
  9
$SPLINESEGS
 70
8
  9
$SPLINETYPE
 70
6
  9
$SURFTAB1
 70
6
  9
$SURFTAB2
 70
6
  9
$SURFTYPE
 70
6
  9
$SURFU
 70
6
  9
$SURFV
 70
6
  9
$TEXTSIZE
 40
0.2
  9
$TEXTSTYLE
  7
STANDARD
  9
$THICKNESS
 40
0.0
  9
$TILEMODE
 70
1
  9
$TRACEWID
 40
0.05
  9
$TREEDEPTH
 70
3020
  9
$UCSNAME
  2

  9
$UCSORG
 10
0.0
 20
0.0
 30
0.0
  9
$UCSXDIR
 10
1.0
 20
0.0
 30
0.0
  9
$UCSYDIR
 10
0.0
 20
1.0
 30
0.0
  9
$UNITMODE
 70
0
  9
$USERI1
 70
0
  9
$USERI2
 70
0
  9
$USERI3
 70
0
  9
$USERI4
 70
0
  9
$USERI5
 70
0
  9
$USERR1
 40
0.0
  9
$USERR2
 40
0.0
  9
$USERR3
 40
0.0
  9
$USERR4
 40
0.0
  9
$USERR5
 40
0.0
  9
$USRTIMER
 70
1
  9
$VISRETAIN
 70
1
  0
ENDSEC
  0
SECTION
  2
TABLES
  0
TABLE
  2
VPORT
  5
8
100
AcDbSymbolTable
 70
1
  0
VPORT
  5
30
100
AcDbSymbolTableRecord
100
AcDbViewportTableRecord
  2
*Active
 70
0
 10
0.0
 20
0.0
 11
1.0
 21
1.0
 12
286.3055555555554861
 22
148.5
 13
0.0
 23
0.0
 14
10.0
 24
10.0
 15
10.0
 25
10.0
 16
0.0
 26
0.0
 36
1.0
 17
0.0
 27
0.0
 37
0.0
 40
297.0
 41
1.92798353909465
 42
50.0
 43
0.0
 44
0.0
 50
0.0
 51
0.0
 71
0
 72
100
 73
1
 74
3
 75
1
 76
1
 77
0
 78
0
281
0
 65
1
110
0.0
120
0.0
130
0.0
111
1.0
121
0.0
131
0.0
112
0.0
122
1.0
132
0.0
 79
0
146
0.0
  0
ENDTAB
  0
TABLE
  2
LTYPE
  5
5
100
AcDbSymbolTable
 70
41
  0
LTYPE
  5
16
100
AcDbSymbolTableRecord
100
AcDbLinetypeTableRecord
  2
CONTINUOUS
 70
0
  3
Solid line
 72
65
 73
0
 40
0.0
  0
LTYPE
  5
31
100
AcDbSymbolTableRecord
100
AcDbLinetypeTableRecord
  2
ACAD_ISO04W100
 70
0
  3
ISO long-dash dot ____ . ____ . ____ . ____ . _
 72
65
 73
4
 40
30.0
 49
24.0
 74
0
 49
-3.0
 74
0
 49
0.0
 74
0
 49
-3.0
 74
0
  0
LTYPE
  5
32
100
AcDbSymbolTableRecord
100
AcDbLinetypeTableRecord
  2
HIDDEN
 70
0
  3
Hidden __ __ __ __ __ __ __ __ __ __ __ __ __ __
 72
65
 73
2
 40
9.5249999999999986
 49
6.3499999999999996
 74
0
 49
-3.1749999999999998
 74
0
  0
LTYPE
  5
33
100
AcDbSymbolTableRecord
100
AcDbLinetypeTableRecord
  2
ACAD_ISO11W100
 70
0
  3
ISO double-dash dot __ __ . __ __ . __ __ . __ _
 72
65
 73
6
 40
33.0
 49
12.0
 74
0
 49
-3.0
 74
0
 49
12.0
 74
0
 49
-3.0
 74
0
 49
0.0
 74
0
 49
-3.0
 74
0
  0
LTYPE
  5
34
100
AcDbSymbolTableRecord
100
AcDbLinetypeTableRecord
  2
HIDDENX2
 70
0
  3
Hidden (2x) ____ ____ ____ ____ ____ ____ ____ 
 72
65
 73
2
 40
19.0499999999999972
 49
12.6999999999999993
 74
0
 49
-6.3499999999999996
 74
0
  0
LTYPE
  5
35
100
AcDbSymbolTableRecord
100
AcDbLinetypeTableRecord
  2
ACAD_ISO03W100
 70
0
  3
ISO dash space __    __    __    __    __    __
 72
65
 73
2
 40
30.0
 49
12.0
 74
0
 49
-18.0
 74
0
  0
LTYPE
  5
36
100
AcDbSymbolTableRecord
100
AcDbLinetypeTableRecord
  2
DASHEDX2
 70
0
  3
Dashed (2x) ____  ____  ____  ____  ____  ___
 72
65
 73
2
 40
38.0999999999999943
 49
25.3999999999999986
 74
0
 49
-12.6999999999999993
 74
0
  0
LTYPE
  5
37
100
AcDbSymbolTableRecord
100
AcDbLinetypeTableRecord
  2
DOTX2
 70
0
  3
Dot (2x) .  .  .  .  .  .  .  .  .  .  .  .  .  .
 72
65
 73
2
 40
12.6999999999999993
 49
0.0
 74
0
 49
-12.6999999999999993
 74
0
  0
LTYPE
  5
38
100
AcDbSymbolTableRecord
100
AcDbLinetypeTableRecord
  2
ACAD_ISO10W100
 70
0
  3
ISO dash dot __ . __ . __ . __ . __ . __ . __ . 
 72
65
 73
4
 40
18.0
 49
12.0
 74
0
 49
-3.0
 74
0
 49
0.0
 74
0
 49
-3.0
 74
0
  0
LTYPE
  5
39
100
AcDbSymbolTableRecord
100
AcDbLinetypeTableRecord
  2
DIVIDE2
 70
0
  3
Divide (.5x) __..__..__..__..__..__..__..__.._
 72
65
 73
6
 40
15.875
 49
6.3499999999999996
 74
0
 49
-3.1749999999999998
 74
0
 49
0.0
 74
0
 49
-3.1749999999999998
 74
0
 49
0.0
 74
0
 49
-3.1749999999999998
 74
0
  0
LTYPE
  5
3A
100
AcDbSymbolTableRecord
100
AcDbLinetypeTableRecord
  2
ACAD_ISO02W100
 70
0
  3
ISO dash __ __ __ __ __ __ __ __ __ __ __ __ __
 72
65
 73
2
 40
15.0
 49
12.0
 74
0
 49
-3.0
 74
0
  0
LTYPE
  5
3B
100
AcDbSymbolTableRecord
100
AcDbLinetypeTableRecord
  2
DOT2
 70
0
  3
Dot (.5x) ........................................
 72
65
 73
2
 40
3.1749999999999998
 49
0.0
 74
0
 49
-3.1749999999999998
 74
0
  0
LTYPE
  5
15
100
AcDbSymbolTableRecord
100
AcDbLinetypeTableRecord
  2
BYLAYER
 70
0
  3

 72
65
 73
0
 40
0.0
  0
LTYPE
  5
3C
100
AcDbSymbolTableRecord
100
AcDbLinetypeTableRecord
  2
HIDDEN2
 70
0
  3
Hidden (.5x) _ _ _ _ _ _ _ _ _ _ _ _ _ _ _ _ _ 
 72
65
 73
2
 40
4.7624999999999993
 49
3.1749999999999998
 74
0
 49
-1.5874999999999999
 74
0
  0
LTYPE
  5
3D
100
AcDbSymbolTableRecord
100
AcDbLinetypeTableRecord
  2
DIVIDEX2
 70
0
  3
Divide (2x) ________  .  .  ________  .  .  _
 72
65
 73
6
 40
63.5
 49
25.3999999999999986
 74
0
 49
-12.6999999999999993
 74
0
 49
0.0
 74
0
 49
-12.6999999999999993
 74
0
 49
0.0
 74
0
 49
-12.6999999999999993
 74
0
  0
LTYPE
  5
3E
100
AcDbSymbolTableRecord
100
AcDbLinetypeTableRecord
  2
CENTER2
 70
0
  3
Center (.5x) ___ _ ___ _ ___ _ ___ _ ___ _ ___
 72
65
 73
4
 40
28.5750000000000028
 49
19.0500000000000007
 74
0
 49
-3.1749999999999998
 74
0
 49
3.1749999999999998
 74
0
 49
-3.1749999999999998
 74
0
  0
LTYPE
  5
3F
100
AcDbSymbolTableRecord
100
AcDbLinetypeTableRecord
  2
DOT
 70
0
  3
Dot . . . . . . . . . . . . . . . . . . . . . . . .
 72
65
 73
2
 40
6.3499999999999996
 49
0.0
 74
0
 49
-6.3499999999999996
 74
0
  0
LTYPE
  5
40
100
AcDbSymbolTableRecord
100
AcDbLinetypeTableRecord
  2
DASHDOT2
 70
0
  3
Dash dot (.5x) _._._._._._._._._._._._._._._.
 72
65
 73
4
 40
12.6999999999999993
 49
6.3499999999999996
 74
0
 49
-3.1749999999999998
 74
0
 49
0.0
 74
0
 49
-3.1749999999999998
 74
0
  0
LTYPE
  5
41
100
AcDbSymbolTableRecord
100
AcDbLinetypeTableRecord
  2
ACAD_ISO09W100
 70
0
  3
ISO long-dash double-short-dash ____ __ __ ____
 72
65
 73
6
 40
45.0
 49
24.0
 74
0
 49
-3.0
 74
0
 49
6.0
 74
0
 49
-3.0
 74
0
 49
6.0
 74
0
 49
-3.0
 74
0
  0
LTYPE
  5
42
100
AcDbSymbolTableRecord
100
AcDbLinetypeTableRecord
  2
PHANTOM
 70
0
  3
Phantom ______  __  __  ______  __  __  ______ 
 72
65
 73
6
 40
63.5000000000000071
 49
31.75
 74
0
 49
-6.3499999999999996
 74
0
 49
6.3499999999999996
 74
0
 49
-6.3499999999999996
 74
0
 49
6.3499999999999996
 74
0
 49
-6.3499999999999996
 74
0
  0
LTYPE
  5
43
100
AcDbSymbolTableRecord
100
AcDbLinetypeTableRecord
  2
ACAD_ISO08W100
 70
0
  3
ISO long-dash short-dash ____ __ ____ __ ____ _
 72
65
 73
4
 40
36.0
 49
24.0
 74
0
 49
-3.0
 74
0
 49
6.0
 74
0
 49
-3.0
 74
0
  0
LTYPE
  5
44
100
AcDbSymbolTableRecord
100
AcDbLinetypeTableRecord
  2
CENTER
 70
0
  3
Center ____ _ ____ _ ____ _ ____ _ ____ _ ____
 72
65
 73
4
 40
50.8000000000000043
 49
31.75
 74
0
 49
-6.3499999999999996
 74
0
 49
6.3499999999999996
 74
0
 49
-6.3499999999999996
 74
0
  0
LTYPE
  5
45
100
AcDbSymbolTableRecord
100
AcDbLinetypeTableRecord
  2
BORDER2
 70
0
  3
Border (.5x) __.__.__.__.__.__.__.__.__.__.__.
 72
65
 73
6
 40
22.2249999999999979
 49
6.3499999999999996
 74
0
 49
-3.1749999999999998
 74
0
 49
6.3499999999999996
 74
0
 49
-3.1749999999999998
 74
0
 49
0.0
 74
0
 49
-3.1749999999999998
 74
0
  0
LTYPE
  5
46
100
AcDbSymbolTableRecord
100
AcDbLinetypeTableRecord
  2
ACAD_ISO15W100
 70
0
  3
ISO double-dash triple-dot __ __ . . . __ __ . .
 72
65
 73
10
 40
39.0
 49
12.0
 74
0
 49
-3.0
 74
0
 49
12.0
 74
0
 49
-3.0
 74
0
 49
0.0
 74
0
 49
-3.0
 74
0
 49
0.0
 74
0
 49
-3.0
 74
0
 49
0.0
 74
0
 49
-3.0
 74
0
  0
LTYPE
  5
47
100
AcDbSymbolTableRecord
100
AcDbLinetypeTableRecord
  2
DIVIDE
 70
0
  3
Divide ____ . . ____ . . ____ . . ____ . . ____
 72
65
 73
6
 40
31.75
 49
12.6999999999999993
 74
0
 49
-6.3499999999999996
 74
0
 49
0.0
 74
0
 49
-6.3499999999999996
 74
0
 49
0.0
 74
0
 49
-6.3499999999999996
 74
0
  0
LTYPE
  5
48
100
AcDbSymbolTableRecord
100
AcDbLinetypeTableRecord
  2
DASHED2
 70
0
  3
Dashed (.5x) _ _ _ _ _ _ _ _ _ _ _ _ _ _ _ _ _ 
 72
65
 73
2
 40
9.5249999999999986
 49
6.3499999999999996
 74
0
 49
-3.1749999999999998
 74
0
  0
LTYPE
  5
49
100
AcDbSymbolTableRecord
100
AcDbLinetypeTableRecord
  2
DASHED
 70
0
  3
Dashed __ __ __ __ __ __ __ __ __ __ __ __ __ _
 72
65
 73
2
 40
19.0499999999999972
 49
12.6999999999999993
 74
0
 49
-6.3499999999999996
 74
0
  0
LTYPE
  5
4A
100
AcDbSymbolTableRecord
100
AcDbLinetypeTableRecord
  2
ACAD_ISO07W100
 70
0
  3
ISO dot . . . . . . . . . . . . . . . . . . . . 
 72
65
 73
2
 40
3.0
 49
0.0
 74
0
 49
-3.0
 74
0
  0
LTYPE
  5
4B
100
AcDbSymbolTableRecord
100
AcDbLinetypeTableRecord
  2
CENTERX2
 70
0
  3
Center (2x) ________  __  ________  __  _____
 72
65
 73
4
 40
101.6000000000000085
 49
63.5
 74
0
 49
-12.6999999999999993
 74
0
 49
12.6999999999999993
 74
0
 49
-12.6999999999999993
 74
0
  0
LTYPE
  5
4C
100
AcDbSymbolTableRecord
100
AcDbLinetypeTableRecord
  2
DASHDOTX2
 70
0
  3
Dash dot (2x) ____  .  ____  .  ____  .  ___
 72
65
 73
4
 40
50.7999999999999972
 49
25.3999999999999986
 74
0
 49
-12.6999999999999993
 74
0
 49
0.0
 74
0
 49
-12.6999999999999993
 74
0
  0
LTYPE
  5
4D
100
AcDbSymbolTableRecord
100
AcDbLinetypeTableRecord
  2
ACAD_ISO14W100
 70
0
  3
ISO dash triple-dot __ . . . __ . . . __ . . . _
 72
65
 73
8
 40
24.0
 49
12.0
 74
0
 49
-3.0
 74
0
 49
0.0
 74
0
 49
-3.0
 74
0
 49
0.0
 74
0
 49
-3.0
 74
0
 49
0.0
 74
0
 49
-3.0
 74
0
  0
LTYPE
  5
4E
100
AcDbSymbolTableRecord
100
AcDbLinetypeTableRecord
  2
ACAD_ISO06W100
 70
0
  3
ISO long-dash triple-dot ____ ... ____ ... ____
 72
65
 73
8
 40
36.0
 49
24.0
 74
0
 49
-3.0
 74
0
 49
0.0
 74
0
 49
-3.0
 74
0
 49
0.0
 74
0
 49
-3.0
 74
0
 49
0.0
 74
0
 49
-3.0
 74
0
  0
LTYPE
  5
4F
100
AcDbSymbolTableRecord
100
AcDbLinetypeTableRecord
  2
BORDERX2
 70
0
  3
Border (2x) ____  ____  .  ____  ____  .  ___
 72
65
 73
6
 40
88.8999999999999915
 49
25.3999999999999986
 74
0
 49
-12.6999999999999993
 74
0
 49
25.3999999999999986
 74
0
 49
-12.6999999999999993
 74
0
 49
0.0
 74
0
 49
-12.6999999999999993
 74
0
  0
LTYPE
  5
50
100
AcDbSymbolTableRecord
100
AcDbLinetypeTableRecord
  2
ACAD_ISO13W100
 70
0
  3
ISO double-dash double-dot __ __ . . __ __ . . _
 72
65
 73
8
 40
36.0
 49
12.0
 74
0
 49
-3.0
 74
0
 49
12.0
 74
0
 49
-3.0
 74
0
 49
0.0
 74
0
 49
-3.0
 74
0
 49
0.0
 74
0
 49
-3.0
 74
0
  0
LTYPE
  5
51
100
AcDbSymbolTableRecord
100
AcDbLinetypeTableRecord
  2
BORDER
 70
0
  3
Border __ __ . __ __ . __ __ . __ __ . __ __ .
 72
65
 73
6
 40
44.4499999999999957
 49
12.6999999999999993
 74
0
 49
-6.3499999999999996
 74
0
 49
12.6999999999999993
 74
0
 49
-6.3499999999999996
 74
0
 49
0.0
 74
0
 49
-6.3499999999999996
 74
0
  0
LTYPE
  5
52
100
AcDbSymbolTableRecord
100
AcDbLinetypeTableRecord
  2
ACAD_ISO05W100
 70
0
  3
ISO long-dash double-dot ____ .. ____ .. ____ . 
 72
65
 73
6
 40
33.0
 49
24.0
 74
0
 49
-3.0
 74
0
 49
0.0
 74
0
 49
-3.0
 74
0
 49
0.0
 74
0
 49
-3.0
 74
0
  0
LTYPE
  5
53
100
AcDbSymbolTableRecord
100
AcDbLinetypeTableRecord
  2
PHANTOMX2
 70
0
  3
Phantom (2x) ____________    ____    ____   _
 72
65
 73
6
 40
127.0000000000000142
 49
63.5
 74
0
 49
-12.6999999999999993
 74
0
 49
12.6999999999999993
 74
0
 49
-12.6999999999999993
 74
0
 49
12.6999999999999993
 74
0
 49
-12.6999999999999993
 74
0
  0
LTYPE
  5
14
100
AcDbSymbolTableRecord
100
AcDbLinetypeTableRecord
  2
BYBLOCK
 70
0
  3

 72
65
 73
0
 40
0.0
  0
LTYPE
  5
54
100
AcDbSymbolTableRecord
100
AcDbLinetypeTableRecord
  2
DASHDOT
 70
0
  3
Dash dot __ . __ . __ . __ . __ . __ . __ . __
 72
65
 73
4
 40
25.3999999999999986
 49
12.6999999999999993
 74
0
 49
-6.3499999999999996
 74
0
 49
0.0
 74
0
 49
-6.3499999999999996
 74
0
  0
LTYPE
  5
55
100
AcDbSymbolTableRecord
100
AcDbLinetypeTableRecord
  2
ACAD_ISO12W100
 70
0
  3
ISO dash double-dot __ . . __ . . __ . . __ . . 
 72
65
 73
6
 40
21.0
 49
12.0
 74
0
 49
-3.0
 74
0
 49
0.0
 74
0
 49
-3.0
 74
0
 49
0.0
 74
0
 49
-3.0
 74
0
  0
LTYPE
  5
56
100
AcDbSymbolTableRecord
100
AcDbLinetypeTableRecord
  2
PHANTOM2
 70
0
  3
Phantom (.5x) ___ _ _ ___ _ _ ___ _ _ ___ _ _
 72
65
 73
6
 40
31.7500000000000036
 49
15.875
 74
0
 49
-3.1749999999999998
 74
0
 49
3.1749999999999998
 74
0
 49
-3.1749999999999998
 74
0
 49
3.1749999999999998
 74
0
 49
-3.1749999999999998
 74
0
  0
ENDTAB
  0
TABLE
  2
LAYER
  5
2
100
AcDbSymbolTable
 70
1
  0
LAYER
  5
10
100
AcDbSymbolTableRecord
100
AcDbLayerTableRecord
  2
0
 70
0
 62
13
420
10834514
  6
CONTINUOUS
370
5
390
F
  0
ENDTAB
  0
TABLE
  2
STYLE
  5
3
100
AcDbSymbolTable
 70
1
  0
STYLE
  5
57
100
AcDbSymbolTableRecord
100
AcDbTextStyleTableRecord
  2
Standard
 70
0
 40
0.0
 41
1.0
 50
0.0
 71
0
 42
2.5
  3

  4

1001
ACAD
1000
txt
1071
0
  0
ENDTAB
  0
TABLE
  2
VIEW
  5
6
100
AcDbSymbolTable
 70
0
  0
ENDTAB
  0
TABLE
  2
UCS
  5
7
100
AcDbSymbolTable
 70
0
  0
ENDTAB
  0
TABLE
  2
APPID
  5
9
100
AcDbSymbolTable
 70
1
  0
APPID
  5
12
100
AcDbSymbolTableRecord
100
AcDbRegAppTableRecord
  2
ACAD
 70
0
  0
APPID
  5
58
100
AcDbSymbolTableRecord
100
AcDbRegAppTableRecord
  2
QCAD
 70
0
  0
ENDTAB
  0
TABLE
  2
DIMSTYLE
  5
A
100
AcDbSymbolTable
 70
1
100
AcDbDimStyleTable
 71
0
  0
DIMSTYLE
105
27
100
AcDbSymbolTableRecord
100
AcDbDimStyleTableRecord
  2
Standard
 41
0.18
 42
0.0625
 43
3.75
 44
0.18
 70
0
 73
0
 74
0
 77
1
 78
8
140
0.18
141
2.5
143
0.03937007874016
147
0.09
171
3
172
1
271
2
272
2
274
3
278
44
283
0
284
8
340
57
  0
ENDTAB
  0
TABLE
  2
BLOCK_RECORD
  5
1
100
AcDbSymbolTable
 70
1
  0
BLOCK_RECORD
  5
1F
100
AcDbSymbolTableRecord
100
AcDbBlockTableRecord
  2
*Model_Space
340
22
  0
BLOCK_RECORD
  5
1B
100
AcDbSymbolTableRecord
100
AcDbBlockTableRecord
  2
*Paper_Space
340
1E
  0
BLOCK_RECORD
  5
23
100
AcDbSymbolTableRecord
100
AcDbBlockTableRecord
  2
*Paper_Space0
340
26
  0
ENDTAB
  0
ENDSEC
  0
SECTION
  2
BLOCKS
  0
BLOCK
  5
20
100
AcDbEntity
  8
0
100
AcDbBlockBegin
  2
*Model_Space
 70
0
 10
0.0
 20
0.0
 30
0.0
  3
*Model_Space
  1

  0
ENDBLK
  5
21
100
AcDbEntity
  8
0
100
AcDbBlockEnd
  0
BLOCK
  5
1C
100
AcDbEntity
 67
1
  8
0
100
AcDbBlockBegin
  2
*Paper_Space
 70
0
 10
0.0
 20
0.0
 30
0.0
  3
*Paper_Space
  1

  0
ENDBLK
  5
1D
100
AcDbEntity
 67
1
  8
0
100
AcDbBlockEnd
  0
BLOCK
  5
24
100
AcDbEntity
  8
0
100
AcDbBlockBegin
  2
*Paper_Space0
 70
0
 10
0.0
 20
0.0
 30
0.0
  3
*Paper_Space0
  1

  0
ENDBLK
  5
25
100
AcDbEntity
  8
0
100
AcDbBlockEnd
  0
ENDSEC
  0
SECTION
  2
ENTITIES
  0
CIRCLE
  5
59
100
AcDbEntity
  8
0
 62
256
370
-1
 48
1.0
  6
BYLAYER
100
AcDbCircle
 10
20.5865704916309298
 20
98.3011397881755897
 30
0.0
 40
2.99999999999998
  0
CIRCLE
  5
5A
100
AcDbEntity
  8
0
 62
256
370
-1
 48
1.0
  6
BYLAYER
100
AcDbCircle
 10
254.4134295134161334
 20
54.9998695990302622
 30
0.0
 40
2.9999999999999778
  0
LINE
  5
5B
100
AcDbEntity
  8
0
 62
256
370
-1
 48
1.0
  6
BYLAYER
100
AcDbLine
 10
284.0000000024718929
 20
5.9999999999160583
 30
0.0
 11
294.0000000022786253
 21
5.9999999999160556
 31
0.0
  0
CIRCLE
  5
5C
100
AcDbEntity
  8
0
 62
256
370
-1
 48
1.0
  6
BYLAYER
100
AcDbCircle
 10
150.0000000025596876
 20
302.9998695990051942
 30
0.0
 40
1.499999999999998
  0
CIRCLE
  5
5D
100
AcDbEntity
  8
0
 62
256
370
-1
 48
1.0
  6
BYLAYER
100
AcDbCircle
 10
254.0000000023638052
 20
302.9998695990051942
 30
0.0
 40
1.50000000000002
  0
CIRCLE
  5
5E
100
AcDbEntity
  8
0
 62
256
370
-1
 48
1.0
  6
BYLAYER
100
AcDbCircle
 10
45.5865704916176995
 20
54.9998695989809221
 30
0.0
 40
2.999999999999996
  0
LINE
  5
5F
100
AcDbEntity
  8
0
 62
256
370
-1
 48
1.0
  6
BYLAYER
100
AcDbLine
 10
234.0000000023636915
 20
299.9998695990067858
 30
0.0
 11
224.0000000023638904
 21
299.9998695990067858
 31
0.0
  0
LINE
  5
60
100
AcDbEntity
  8
0
 62
256
370
-1
 48
1.0
  6
BYLAYER
100
AcDbLine
 10
234.0000000023636915
 20
305.9998695990042279
 30
0.0
 11
234.0000000023636915
 21
299.9998695990067858
 31
0.0
  0
LINE
  5
61
100
AcDbEntity
  8
0
 62
256
370
-1
 48
1.0
  6
BYLAYER
100
AcDbLine
 10
274.0000000023634925
 20
299.9998695990057058
 30
0.0
 11
284.0000000023637199
 21
299.9998695990057058
 31
0.0
  0
LINE
  5
62
100
AcDbEntity
  8
0
 62
256
370
-1
 48
1.0
  6
BYLAYER
100
AcDbLine
 10
16.0000000024450806
 20
299.9998695990058764
 30
0.0
 11
26.0000000024451587
 21
299.9998695990058764
 31
0.0
  0
LINE
  5
63
100
AcDbEntity
  8
0
 62
256
370
-1
 48
1.0
  6
BYLAYER
100
AcDbLine
 10
16.0000000024450806
 20
305.9998695990046826
 30
0.0
 11
16.0000000024450806
 21
299.9998695990058764
 31
0.0
  0
LINE
  5
64
100
AcDbEntity
  8
0
 62
256
370
-1
 48
1.0
  6
BYLAYER
100
AcDbLine
 10
284.0000000023637199
 20
299.9998695990057058
 30
0.0
 11
284.0000000023637199
 21
306.009869599005583
 31
0.0
  0
LINE
  5
65
100
AcDbEntity
  8
0
 62
256
370
-1
 48
1.0
  6
BYLAYER
100
AcDbLine
 10
130.0000000025603981
 20
299.9998695990062174
 30
0.0
 11
130.0000000025603981
 21
305.999869598986777
 31
0.0
  0
LINE
  5
66
100
AcDbEntity
  8
0
 62
256
370
-1
 48
1.0
  6
BYLAYER
100
AcDbLine
 10
130.0000000025603981
 20
305.999869598986777
 30
0.0
 11
120.0000000025601992
 21
305.999869598986777
 31
0.0
  0
LINE
  5
67
100
AcDbEntity
  8
0
 62
256
370
-1
 48
1.0
  6
BYLAYER
100
AcDbLine
 10
224.0000000023638904
 20
299.9998695990067858
 30
0.0
 11
224.0000000023638904
 21
305.9998695990042279
 31
0.0
  0
LINE
  5
68
100
AcDbEntity
  8
0
 62
256
370
-1
 48
1.0
  6
BYLAYER
100
AcDbLine
 10
120.0000000025601992
 20
305.999869598986777
 30
0.0
 11
120.0000000025601992
 21
299.9998695990062174
 31
0.0
  0
LINE
  5
69
100
AcDbEntity
  8
0
 62
256
370
-1
 48
1.0
  6
BYLAYER
100
AcDbLine
 10
284.0000000023637199
 20
306.009869599005583
 30
0.0
 11
274.0000000023634925
 21
306.009869599005583
 31
0.0
  0
LINE
  5
6A
100
AcDbEntity
  8
0
 62
256
370
-1
 48
1.0
  6
BYLAYER
100
AcDbLine
 10
274.0000000023634925
 20
306.009869599005583
 30
0.0
 11
274.0000000023634925
 21
299.9998695990057058
 31
0.0
  0
LINE
  5
6B
100
AcDbEntity
  8
0
 62
256
370
-1
 48
1.0
  6
BYLAYER
100
AcDbLine
 10
224.0000000023638904
 20
305.9998695990042279
 30
0.0
 11
234.0000000023636915
 21
305.9998695990042279
 31
0.0
  0
LINE
  5
6C
100
AcDbEntity
  8
0
 62
256
370
-1
 48
1.0
  6
BYLAYER
100
AcDbLine
 10
66.0000000023634215
 20
305.99986959900599
 30
0.0
 11
66.0000000023634215
 21
299.9998695990061037
 31
0.0
  0
LINE
  5
6D
100
AcDbEntity
  8
0
 62
256
370
-1
 48
1.0
  6
BYLAYER
100
AcDbLine
 10
120.0000000025601992
 20
299.9998695990062174
 30
0.0
 11
130.0000000025603981
 21
299.9998695990062174
 31
0.0
  0
LINE
  5
6E
100
AcDbEntity
  8
0
 62
256
370
-1
 48
1.0
  6
BYLAYER
100
AcDbLine
 10
76.000000002363393
 20
305.99986959900599
 30
0.0
 11
66.0000000023634215
 21
305.99986959900599
 31
0.0
  0
LINE
  5
6F
100
AcDbEntity
  8
0
 62
256
370
-1
 48
1.0
  6
BYLAYER
100
AcDbLine
 10
66.0000000023634215
 20
299.9998695990061037
 30
0.0
 11
76.000000002363393
 21
299.9998695990061037
 31
0.0
  0
LINE
  5
70
100
AcDbEntity
  8
0
 62
256
370
-1
 48
1.0
  6
BYLAYER
100
AcDbLine
 10
76.000000002363393
 20
299.9998695990061037
 30
0.0
 11
76.000000002363393
 21
305.99986959900599
 31
0.0
  0
LINE
  5
71
100
AcDbEntity
  8
0
 62
256
370
-1
 48
1.0
  6
BYLAYER
100
AcDbLine
 10
26.0000000024451587
 20
299.9998695990058764
 30
0.0
 11
26.0000000024451587
 21
305.9998695990046826
 31
0.0
  0
CIRCLE
  5
72
100
AcDbEntity
  8
0
 62
256
370
-1
 48
1.0
  6
BYLAYER
100
AcDbCircle
 10
279.4134295134592776
 20
98.3011397882276867
 30
0.0
 40
2.999999999999996
  0
CIRCLE
  5
73
100
AcDbEntity
  8
0
 62
256
370
-1
 48
1.0
  6
BYLAYER
100
AcDbCircle
 10
175.0000000025598865
 20
279.1505046936159147
 30
0.0
 40
2.9999999999999951
  0
LINE
  5
74
100
AcDbEntity
  8
0
 62
256
370
-1
 48
1.0
  6
BYLAYER
100
AcDbLine
 10
146.4706350393454102
 20
38.9505009968801588
 30
0.0
 11
153.4706350393454102
 21
38.9505009968801588
 31
0.0
  0
CIRCLE
  5
75
100
AcDbEntity
  8
0
 62
256
370
-1
 48
1.0
  6
BYLAYER
100
AcDbCircle
 10
125.0000000026765719
 20
279.1505046936528629
 30
0.0
 40
2.9999999999999729
  0
CIRCLE
  5
76
100
AcDbEntity
  8
0
 62
256
370
-1
 48
1.0
  6
BYLAYER
100
AcDbCircle
 10
46.000000002363457
 20
302.9998695990051942
 30
0.0
 40
1.5000000000000191
  0
LINE
  5
77
100
AcDbEntity
  8
0
 62
256
370
-1
 48
1.0
  6
BYLAYER
100
AcDbLine
 10
294.0000000024413112
 20
385.0000103881492919
 30
0.0
 11
6.0000000023185898
 21
385.0000103880910274
 31
0.0
  0
ARC
  5
78
100
AcDbEntity
  8
0
 62
256
370
-1
 48
1.0
  6
BYLAYER
100
AcDbCircle
 10
146.4706350393454102
 20
37.4505009968801374
 30
0.0
 40
1.4999999999999809
100
AcDbArc
 50
90.0
 51
269.9999991462266848
  0
LINE
  5
79
100
AcDbEntity
  8
0
 62
256
370
-1
 48
1.0
  6
BYLAYER
100
AcDbLine
 10
180.0000000025598865
 20
299.9998695990067858
 30
0.0
 11
180.0000000025598865
 21
305.9998695989967246
 31
0.0
  0
LINE
  5
7A
100
AcDbEntity
  8
0
 62
256
370
-1
 48
1.0
  6
BYLAYER
100
AcDbLine
 10
180.0000000025598865
 20
305.9998695989967246
 30
0.0
 11
170.0000000025596876
 21
305.9998695989967246
 31
0.0
  0
LINE
  5
7B
100
AcDbEntity
  8
0
 62
256
370
-1
 48
1.0
  6
BYLAYER
100
AcDbLine
 10
170.0000000025596876
 20
299.9998695990067858
 30
0.0
 11
170.0000000025596876
 21
305.9998695989967246
 31
0.0
  0
LINE
  5
7C
100
AcDbEntity
  8
0
 62
256
370
-1
 48
1.0
  6
BYLAYER
100
AcDbLine
 10
180.0000000025598865
 20
299.9998695990067858
 30
0.0
 11
170.0000000025596876
 21
299.9998695990067858
 31
0.0
  0
LINE
  5
7D
100
AcDbEntity
  8
0
 62
256
370
-1
 48
1.0
  6
BYLAYER
100
AcDbLine
 10
153.4706350616970951
 20
35.9505009968801517
 30
0.0
 11
146.4706350169936968
 21
35.9505009968801517
 31
0.0
  0
LINE
  5
7E
100
AcDbEntity
  8
0
 62
256
370
-1
 48
1.0
  6
BYLAYER
100
AcDbLine
 10
294.0000000023459279
 20
211.9998069971076973
 30
0.0
 11
300.0000000022574795
 21
211.9998069971076973
 31
0.0
  0
LINE
  5
7F
100
AcDbEntity
  8
0
 62
256
370
-1
 48
1.0
  6
BYLAYER
100
AcDbLine
 10
294.0000000023459279
 20
221.9998069971078962
 30
0.0
 11
300.0000000022574795
 21
221.9998069971078962
 31
0.0
  0
LINE
  5
80
100
AcDbEntity
  8
0
 62
256
370
-1
 48
1.0
  6
BYLAYER
100
AcDbLine
 10
294.0000000023459279
 20
69.000238254960621
 30
0.0
 11
300.0000000022574795
 21
69.000238254960621
 31
0.0
  0
LINE
  5
81
100
AcDbEntity
  8
0
 62
256
370
-1
 48
1.0
  6
BYLAYER
100
AcDbLine
 10
294.0000000023459279
 20
50.5002382549602373
 30
0.0
 11
288.000000002309207
 21
50.5002382549607916
 31
0.0
  0
LINE
  5
82
100
AcDbEntity
  8
0
 62
256
370
-1
 48
1.0
  6
BYLAYER
100
AcDbLine
 10
288.0000000023094913
 20
45.0002382549605997
 30
0.0
 11
285.0000000023094913
 21
45.0002382549607773
 31
0.0
  0
LINE
  5
83
100
AcDbEntity
  8
0
 62
256
370
-1
 48
1.0
  6
BYLAYER
100
AcDbLine
 10
285.0000000023097186
 20
47.5002382549603865
 30
0.0
 11
283.0000000023094913
 21
47.5002382549610189
 31
0.0
  0
LINE
  5
84
100
AcDbEntity
  8
0
 62
256
370
-1
 48
1.0
  6
BYLAYER
100
AcDbLine
 10
288.000000002309207
 20
50.5002382549607916
 30
0.0
 11
288.0000000023093207
 21
53.0002382549606708
 31
0.0
  0
LINE
  5
85
100
AcDbEntity
  8
0
 62
256
370
-1
 48
1.0
  6
BYLAYER
100
AcDbLine
 10
288.0000000023093207
 20
53.0002382549606708
 30
0.0
 11
285.0000000023097186
 21
53.0002382549605784
 31
0.0
  0
LINE
  5
86
100
AcDbEntity
  8
0
 62
256
370
-1
 48
1.0
  6
BYLAYER
100
AcDbLine
 10
300.0000000022225208
 20
19.0002382550425786
 30
0.0
 11
300.0000000022225208
 21
29.0002382549617117
 31
0.0
  0
LINE
  5
87
100
AcDbEntity
  8
0
 62
256
370
-1
 48
1.0
  6
BYLAYER
100
AcDbLine
 10
294.0000000023463826
 20
29.0002382549617117
 30
0.0
 11
300.0000000022225208
 21
29.0002382549617117
 31
0.0
  0
LINE
  5
88
100
AcDbEntity
  8
0
 62
256
370
-1
 48
1.0
  6
BYLAYER
100
AcDbLine
 10
285.0000000023097186
 20
50.5002382549610616
 30
0.0
 11
283.0000000023097186
 21
50.5002382549612392
 31
0.0
  0
LINE
  5
89
100
AcDbEntity
  8
0
 62
256
370
-1
 48
1.0
  6
BYLAYER
100
AcDbLine
 10
294.0000000023459279
 20
79.0002382549608768
 30
0.0
 11
300.0000000022574795
 21
79.0002382549608768
 31
0.0
  0
LINE
  5
8A
100
AcDbEntity
  8
0
 62
256
370
-1
 48
1.0
  6
BYLAYER
100
AcDbLine
 10
288.0000000023094913
 20
47.5002382549602089
 30
0.0
 11
288.0000000023094913
 21
45.0002382549605997
 31
0.0
  0
LINE
  5
8B
100
AcDbEntity
  8
0
 62
256
370
-1
 48
1.0
  6
BYLAYER
100
AcDbLine
 10
294.0000000023463826
 20
19.0002382550425786
 30
0.0
 11
300.0000000022225208
 21
19.0002382550425786
 31
0.0
  0
ARC
  5
8C
100
AcDbEntity
  8
0
 62
256
370
-1
 48
1.0
  6
BYLAYER
100
AcDbCircle
 10
153.4706350393454102
 20
37.4505009968800806
 30
0.0
 40
1.4999999999999809
100
AcDbArc
 50
270.0000008537733152
 51
90.0
  0
LINE
  5
8D
100
AcDbEntity
  8
0
 62
256
370
-1
 48
1.0
  6
BYLAYER
100
AcDbLine
 10
284.00000000234661
 20
315.9998695990046826
 30
0.0
 11
289.00000000234661
 21
315.9998695990046826
 31
0.0
  0
LINE
  5
8E
100
AcDbEntity
  8
0
 62
256
370
-1
 48
1.0
  6
BYLAYER
100
AcDbLine
 10
284.00000000234661
 20
310.9998695990046258
 30
0.0
 11
284.00000000234661
 21
315.9998695990046826
 31
0.0
  0
LINE
  5
8F
100
AcDbEntity
  8
0
 62
256
370
-1
 48
1.0
  6
BYLAYER
100
AcDbLine
 10
289.00000000234661
 20
310.9998695990046258
 30
0.0
 11
284.00000000234661
 21
310.9998695990046258
 31
0.0
  0
LINE
  5
90
100
AcDbEntity
  8
0
 62
256
370
-1
 48
1.0
  6
BYLAYER
100
AcDbLine
 10
289.00000000234661
 20
315.9998695990046826
 30
0.0
 11
289.00000000234661
 21
310.9998695990046258
 31
0.0
  0
LINE
  5
91
100
AcDbEntity
  8
0
 62
256
370
-1
 48
1.0
  6
BYLAYER
100
AcDbLine
 10
16.9999999978186693
 20
336.5000117831929174
 30
0.0
 11
16.9999999978193905
 21
333.5000117831925763
 31
0.0
  0
LINE
  5
92
100
AcDbEntity
  8
0
 62
256
370
-1
 48
1.0
  6
BYLAYER
100
AcDbLine
 10
11.9999999978214298
 20
336.5000117831922921
 30
0.0
 11
11.9999999978214298
 21
339.0000117831922921
 31
0.0
  0
LINE
  5
93
100
AcDbEntity
  8
0
 62
256
370
-1
 48
1.0
  6
BYLAYER
100
AcDbLine
 10
11.9999999978210692
 20
333.5000117831921784
 30
0.0
 11
11.9999999978212504
 21
331.0000117831920079
 31
0.0
  0
LINE
  5
94
100
AcDbEntity
  8
0
 62
256
370
-1
 48
1.0
  6
BYLAYER
100
AcDbLine
 10
14.9999999978212006
 20
336.50001178319269
 30
0.0
 11
14.99999999782138
 21
339.0000117831925763
 31
0.0
  0
LINE
  5
95
100
AcDbEntity
  8
0
 62
256
370
-1
 48
1.0
  6
BYLAYER
100
AcDbLine
 10
14.9999999978212006
 20
336.50001178319269
 30
0.0
 11
16.9999999978186693
 21
336.5000117831929174
 31
0.0
  0
LINE
  5
96
100
AcDbEntity
  8
0
 62
256
370
-1
 48
1.0
  6
BYLAYER
100
AcDbLine
 10
0.0000000000090239
 20
365.0000117831107218
 30
0.0
 11
0.0000000000104677
 21
355.0000117831913826
 31
0.0
  0
LINE
  5
97
100
AcDbEntity
  8
0
 62
256
370
-1
 48
1.0
  6
BYLAYER
100
AcDbLine
 10
6.0000000000512443
 20
305.0000117832813089
 30
0.0
 11
0.0
 21
305.0000117831922921
 31
0.0
  0
LINE
  5
98
100
AcDbEntity
  8
0
 62
256
370
-1
 48
1.0
  6
BYLAYER
100
AcDbLine
 10
6.0000000000134346
 20
365.0000117831928037
 30
0.0
 11
6.0000000023185898
 21
385.0000103880910274
 31
0.0
  0
LINE
  5
99
100
AcDbEntity
  8
0
 62
256
370
-1
 48
1.0
  6
BYLAYER
100
AcDbLine
 10
6.0000000000112692
 20
333.5000117831918942
 30
0.0
 11
11.9999999978210692
 21
333.5000117831921784
 31
0.0
  0
LINE
  5
9A
100
AcDbEntity
  8
0
 62
256
370
-1
 48
1.0
  6
BYLAYER
100
AcDbLine
 10
6.0000000000109077
 20
336.5000117831920079
 30
0.0
 11
11.9999999978214298
 21
336.5000117831922921
 31
0.0
  0
LINE
  5
9B
100
AcDbEntity
  8
0
 62
256
370
-1
 48
1.0
  6
BYLAYER
100
AcDbLine
 10
11.9999999978214298
 20
339.0000117831922921
 30
0.0
 11
14.99999999782138
 21
339.0000117831925763
 31
0.0
  0
LINE
  5
9C
100
AcDbEntity
  8
0
 62
256
370
-1
 48
1.0
  6
BYLAYER
100
AcDbLine
 10
6.0000000000134346
 20
365.0000117831928037
 30
0.0
 11
0.0000000000090239
 21
365.0000117831107218
 31
0.0
  0
LINE
  5
9D
100
AcDbEntity
  8
0
 62
256
370
-1
 48
1.0
  6
BYLAYER
100
AcDbLine
 10
14.9999999978215595
 20
333.5000117831922921
 30
0.0
 11
14.9999999978212006
 21
331.0000117831925195
 31
0.0
  0
LINE
  5
9E
100
AcDbEntity
  8
0
 62
256
370
-1
 48
1.0
  6
BYLAYER
100
AcDbLine
 10
26.0000000024451587
 20
305.9998695990046826
 30
0.0
 11
16.0000000024450806
 21
305.9998695990046826
 31
0.0
  0
LINE
  5
9F
100
AcDbEntity
  8
0
 62
256
370
-1
 48
1.0
  6
BYLAYER
100
AcDbLine
 10
252.5000000024710118
 20
5.9999999999161604
 30
0.0
 11
252.500000002471694
 21
11.9999999999524007
 31
0.0
  0
LINE
  5
A0
100
AcDbEntity
  8
0
 62
256
370
-1
 48
1.0
  6
BYLAYER
100
AcDbLine
 10
274.0000000024721203
 20
5.9999999999159339
 30
0.0
 11
274.0000000024721203
 21
0.0000000000043653
 31
0.0
  0
LINE
  5
A1
100
AcDbEntity
  8
0
 62
256
370
-1
 48
1.0
  6
BYLAYER
100
AcDbLine
 10
255.5000000024724898
 20
14.9999999999520508
 30
0.0
 11
258.0000000024721771
 21
14.9999999999520508
 31
0.0
  0
LINE
  5
A2
100
AcDbEntity
  8
0
 62
256
370
-1
 48
1.0
  6
BYLAYER
100
AcDbLine
 10
274.0000000024721203
 20
0.0000000000043653
 30
0.0
 11
284.0000000024722908
 21
0.0000000000043315
 31
0.0
  0
LINE
  5
A3
100
AcDbEntity
  8
0
 62
256
370
-1
 48
1.0
  6
BYLAYER
100
AcDbLine
 10
255.5000000024722056
 20
11.9999999999527294
 30
0.0
 11
258.0000000024721203
 21
11.99999999995255
 31
0.0
  0
LINE
  5
A4
100
AcDbEntity
  8
0
 62
256
370
-1
 48
1.0
  6
BYLAYER
100
AcDbLine
 10
234.0000000024728877
 20
5.9999999999154721
 30
0.0
 11
234.0000000024730014
 21
0.0000000000394795
 31
0.0
  0
LINE
  5
A5
100
AcDbEntity
  8
0
 62
256
370
-1
 48
1.0
  6
BYLAYER
100
AcDbLine
 10
284.0000000024718929
 20
5.9999999999160583
 30
0.0
 11
284.0000000024722908
 21
0.0000000000043315
 31
0.0
  0
LINE
  5
A6
100
AcDbEntity
  8
0
 62
256
370
-1
 48
1.0
  6
BYLAYER
100
AcDbLine
 10
255.500000002471495
 20
5.9999999999158549
 30
0.0
 11
255.5000000024722056
 21
11.9999999999527294
 31
0.0
  0
LINE
  5
A7
100
AcDbEntity
  8
0
 62
256
370
-1
 48
1.0
  6
BYLAYER
100
AcDbLine
 10
255.500000002471495
 20
5.9999999999158549
 30
0.0
 11
274.0000000024721203
 21
5.9999999999159339
 31
0.0
  0
LINE
  5
A8
100
AcDbEntity
  8
0
 62
256
370
-1
 48
1.0
  6
BYLAYER
100
AcDbLine
 10
258.0000000024721203
 20
11.99999999995255
 30
0.0
 11
258.0000000024721771
 21
14.9999999999520508
 31
0.0
  0
LINE
  5
A9
100
AcDbEntity
  8
0
 62
256
370
-1
 48
1.0
  6
BYLAYER
100
AcDbLine
 10
234.0000000024728877
 20
5.9999999999154721
 30
0.0
 11
252.5000000024710118
 21
5.9999999999161604
 31
0.0
  0
LINE
  5
AA
100
AcDbEntity
  8
0
 62
256
370
-1
 48
1.0
  6
BYLAYER
100
AcDbLine
 10
224.0000000025540885
 20
5.9999999999154152
 30
0.0
 11
224.0000000025538895
 21
0.0000000000393555
 31
0.0
  0
LINE
  5
AB
100
AcDbEntity
  8
0
 62
256
370
-1
 48
1.0
  6
BYLAYER
100
AcDbLine
 10
255.5000000024724898
 20
14.9999999999520508
 30
0.0
 11
255.5000000024728024
 21
16.9999999999519993
 31
0.0
  0
LINE
  5
AC
100
AcDbEntity
  8
0
 62
256
370
-1
 48
1.0
  6
BYLAYER
100
AcDbLine
 10
252.5000000024720919
 20
14.9999999999520401
 30
0.0
 11
252.5000000024724045
 21
16.9999999999522515
 31
0.0
  0
LINE
  5
AD
100
AcDbEntity
  8
0
 62
256
370
-1
 48
1.0
  6
BYLAYER
100
AcDbLine
 10
255.5000000024728024
 20
16.9999999999519993
 30
0.0
 11
252.5000000024724045
 21
16.9999999999522515
 31
0.0
  0
LINE
  5
AE
100
AcDbEntity
  8
0
 62
256
370
-1
 48
1.0
  6
BYLAYER
100
AcDbLine
 10
252.500000002471694
 20
11.9999999999524007
 30
0.0
 11
250.0000000024720066
 21
11.9999999999521805
 31
0.0
  0
LINE
  5
AF
100
AcDbEntity
  8
0
 62
256
370
-1
 48
1.0
  6
BYLAYER
100
AcDbLine
 10
76.0000000080725897
 20
5.9999999999160583
 30
0.0
 11
120.0000000013955059
 21
5.9999999999154152
 31
0.0
  0
LINE
  5
B0
100
AcDbEntity
  8
0
 62
256
370
-1
 48
1.0
  6
BYLAYER
100
AcDbLine
 10
130.0000000013143051
 20
5.9999999999154721
 30
0.0
 11
130.0000000013143904
 21
0.0000000000394795
 31
0.0
  0
LINE
  5
B1
100
AcDbEntity
  8
0
 62
256
370
-1
 48
1.0
  6
BYLAYER
100
AcDbLine
 10
180.0000000013133103
 20
5.9999999999160583
 30
0.0
 11
180.0000000013137083
 21
0.0000000000043315
 31
0.0
  0
LINE
  5
B2
100
AcDbEntity
  8
0
 62
256
370
-1
 48
1.0
  6
BYLAYER
100
AcDbLine
 10
130.0000000013143051
 20
5.9999999999154721
 30
0.0
 11
148.5000000013124009
 21
5.9999999999161604
 31
0.0
  0
LINE
  5
B3
100
AcDbEntity
  8
0
 62
256
370
-1
 48
1.0
  6
BYLAYER
100
AcDbLine
 10
294.0000000023463826
 20
305.0000178890027769
 30
0.0
 11
294.0000000023459279
 21
221.9998069971078962
 31
0.0
  0
LINE
  5
B4
100
AcDbEntity
  8
0
 62
256
370
-1
 48
1.0
  6
BYLAYER
100
AcDbLine
 10
294.0000000023463826
 20
315.0000178889218887
 30
0.0
 11
294.0000000023457005
 21
333.5000178889198992
 31
0.0
  0
LINE
  5
B5
100
AcDbEntity
  8
0
 62
256
370
-1
 48
1.0
  6
BYLAYER
100
AcDbLine
 10
294.0000000023459279
 20
365.0000178889210929
 30
0.0
 11
294.0000000024413112
 21
385.0000103881492919
 31
0.0
  0
LINE
  5
B6
100
AcDbEntity
  8
0
 62
256
370
-1
 48
1.0
  6
BYLAYER
100
AcDbLine
 10
294.0000000023459279
 20
355.0000178889209224
 30
0.0
 11
300.0000000022574795
 21
355.0000178889209224
 31
0.0
  0
LINE
  5
B7
100
AcDbEntity
  8
0
 62
256
370
-1
 48
1.0
  6
BYLAYER
100
AcDbLine
 10
294.0000000023457005
 20
333.5000178889198992
 30
0.0
 11
288.0000000023094913
 21
333.5000178889205245
 31
0.0
  0
LINE
  5
B8
100
AcDbEntity
  8
0
 62
256
370
-1
 48
1.0
  6
BYLAYER
100
AcDbLine
 10
288.0000000023094913
 20
331.0000178889208087
 30
0.0
 11
285.0000000023094913
 21
331.0000178889209792
 31
0.0
  0
LINE
  5
B9
100
AcDbEntity
  8
0
 62
256
370
-1
 48
1.0
  6
BYLAYER
100
AcDbLine
 10
285.0000000023097186
 20
333.5000178889205813
 30
0.0
 11
285.0000000023094913
 21
331.0000178889209792
 31
0.0
  0
LINE
  5
BA
100
AcDbEntity
  8
0
 62
256
370
-1
 48
1.0
  6
BYLAYER
100
AcDbLine
 10
294.0000000023463826
 20
305.0000178890027769
 30
0.0
 11
300.0000000022225208
 21
305.0000178890027769
 31
0.0
  0
LINE
  5
BB
100
AcDbEntity
  8
0
 62
256
370
-1
 48
1.0
  6
BYLAYER
100
AcDbLine
 10
294.0000000023459279
 20
365.0000178889210929
 30
0.0
 11
300.0000000022574795
 21
365.0000178889210929
 31
0.0
  0
LINE
  5
BC
100
AcDbEntity
  8
0
 62
256
370
-1
 48
1.0
  6
BYLAYER
100
AcDbLine
 10
285.0000000023097186
 20
336.5000178889213203
 30
0.0
 11
285.0000000023097186
 21
339.0000178889208087
 31
0.0
  0
LINE
  5
BD
100
AcDbEntity
  8
0
 62
256
370
-1
 48
1.0
  6
BYLAYER
100
AcDbLine
 10
283.0000000023097186
 20
336.5000178889214908
 30
0.0
 11
283.0000000023094913
 21
333.5000178889213203
 31
0.0
  0
LINE
  5
BE
100
AcDbEntity
  8
0
 62
256
370
-1
 48
1.0
  6
BYLAYER
100
AcDbLine
 10
300.0000000022225208
 20
305.0000178890027769
 30
0.0
 11
300.0000000022225208
 21
315.0000178889218887
 31
0.0
  0
LINE
  5
BF
100
AcDbEntity
  8
0
 62
256
370
-1
 48
1.0
  6
BYLAYER
100
AcDbLine
 10
285.0000000023097186
 20
333.5000178889205813
 30
0.0
 11
283.0000000023094913
 21
333.5000178889213203
 31
0.0
  0
LINE
  5
C0
100
AcDbEntity
  8
0
 62
256
370
-1
 48
1.0
  6
BYLAYER
100
AcDbLine
 10
288.0000000023093207
 20
339.0000178889209224
 30
0.0
 11
285.0000000023097186
 21
339.0000178889208087
 31
0.0
  0
LINE
  5
C1
100
AcDbEntity
  8
0
 62
256
370
-1
 48
1.0
  6
BYLAYER
100
AcDbLine
 10
288.000000002309207
 20
336.5000178889209792
 30
0.0
 11
288.0000000023093207
 21
339.0000178889209224
 31
0.0
  0
LINE
  5
C2
100
AcDbEntity
  8
0
 62
256
370
-1
 48
1.0
  6
BYLAYER
100
AcDbLine
 10
300.0000000022574795
 20
355.0000178889209224
 30
0.0
 11
300.0000000022574795
 21
365.0000178889210929
 31
0.0
  0
LINE
  5
C3
100
AcDbEntity
  8
0
 62
256
370
-1
 48
1.0
  6
BYLAYER
100
AcDbLine
 10
294.0000000023463826
 20
315.0000178889218887
 30
0.0
 11
300.0000000022225208
 21
315.0000178889218887
 31
0.0
  0
LINE
  5
C4
100
AcDbEntity
  8
0
 62
256
370
-1
 48
1.0
  6
BYLAYER
100
AcDbLine
 10
294.0000000023459279
 20
336.5000178889205245
 30
0.0
 11
288.000000002309207
 21
336.5000178889209792
 31
0.0
  0
LINE
  5
C5
100
AcDbEntity
  8
0
 62
256
370
-1
 48
1.0
  6
BYLAYER
100
AcDbLine
 10
285.0000000023097186
 20
336.5000178889213203
 30
0.0
 11
283.0000000023097186
 21
336.5000178889214908
 31
0.0
  0
LINE
  5
C6
100
AcDbEntity
  8
0
 62
256
370
-1
 48
1.0
  6
BYLAYER
100
AcDbLine
 10
288.0000000023094913
 20
333.5000178889205245
 30
0.0
 11
288.0000000023094913
 21
331.0000178889208087
 31
0.0
  0
LINE
  5
C7
100
AcDbEntity
  8
0
 62
256
370
-1
 48
1.0
  6
BYLAYER
100
AcDbLine
 10
294.0000000023459279
 20
336.5000178889205245
 30
0.0
 11
294.0000000023459279
 21
355.0000178889209224
 31
0.0
  0
LINE
  5
C8
100
AcDbEntity
  8
0
 62
256
370
-1
 48
1.0
  6
BYLAYER
100
AcDbLine
 10
11.9999999978212504
 20
331.0000117831920079
 30
0.0
 11
14.9999999978212006
 21
331.0000117831925195
 31
0.0
  0
LINE
  5
C9
100
AcDbEntity
  8
0
 62
256
370
-1
 48
1.0
  6
BYLAYER
100
AcDbLine
 10
0.0
 20
315.00001178319269
 30
0.0
 11
0.0
 21
305.0000117831922921
 31
0.0
  0
LINE
  5
CA
100
AcDbEntity
  8
0
 62
256
370
-1
 48
1.0
  6
BYLAYER
100
AcDbLine
 10
6.0000000000470033
 20
355.0000117831925195
 30
0.0
 11
0.0000000000104677
 21
355.0000117831913826
 31
0.0
  0
LINE
  5
CB
100
AcDbEntity
  8
0
 62
256
370
-1
 48
1.0
  6
BYLAYER
100
AcDbLine
 10
6.0000000000132543
 20
315.0000117831937132
 30
0.0
 11
6.0000000000112692
 21
333.5000117831918942
 31
0.0
  0
LINE
  5
CC
100
AcDbEntity
  8
0
 62
256
370
-1
 48
1.0
  6
BYLAYER
100
AcDbLine
 10
6.0000000000132543
 20
315.0000117831937132
 30
0.0
 11
0.0
 21
315.00001178319269
 31
0.0
  0
LINE
  5
CD
100
AcDbEntity
  8
0
 62
256
370
-1
 48
1.0
  6
BYLAYER
100
AcDbLine
 10
14.9999999978215595
 20
333.5000117831922921
 30
0.0
 11
16.9999999978193905
 21
333.5000117831925763
 31
0.0
  0
LINE
  5
CE
100
AcDbEntity
  8
0
 62
256
370
-1
 48
1.0
  6
BYLAYER
100
AcDbLine
 10
6.0000000000109077
 20
336.5000117831920079
 30
0.0
 11
6.0000000000470033
 21
355.0000117831925195
 31
0.0
  0
LINE
  5
CF
100
AcDbEntity
  8
0
 62
256
370
-1
 48
1.0
  6
BYLAYER
100
AcDbLine
 10
6.0000000000512443
 20
305.0000117832813089
 30
0.0
 11
6.0000000000134346
 21
221.9998069971009897
 31
0.0
  0
LINE
  5
D0
100
AcDbEntity
  8
0
 62
256
370
-1
 48
1.0
  6
BYLAYER
100
AcDbLine
 10
6.0000003003252802
 20
5.9999999999160556
 30
0.0
 11
16.0000000081547711
 21
5.9999999999154152
 31
0.0
  0
LINE
  5
D1
100
AcDbEntity
  8
0
 62
256
370
-1
 48
1.0
  6
BYLAYER
100
AcDbLine
 10
6.0000000000512443
 20
19.0002382550425786
 30
0.0
 11
6.0000003003252802
 21
5.9999999999160556
 31
0.0
  0
LINE
  5
D2
100
AcDbEntity
  8
0
 62
256
370
-1
 48
1.0
  6
BYLAYER
100
AcDbLine
 10
294.0000000023463826
 20
161.9998069971896086
 30
0.0
 11
294.0000000023459279
 21
79.0002382549608768
 31
0.0
  0
LINE
  5
D3
100
AcDbEntity
  8
0
 62
256
370
-1
 48
1.0
  6
BYLAYER
100
AcDbLine
 10
294.0000000023457005
 20
190.4998069971067025
 30
0.0
 11
288.0000000023094913
 21
190.4998069971072994
 31
0.0
  0
LINE
  5
D4
100
AcDbEntity
  8
0
 62
256
370
-1
 48
1.0
  6
BYLAYER
100
AcDbLine
 10
283.0000000023097186
 20
193.4998069971082941
 30
0.0
 11
283.0000000023094913
 21
190.4998069971080952
 31
0.0
  0
LINE
  5
D5
100
AcDbEntity
  8
0
 62
256
370
-1
 48
1.0
  6
BYLAYER
100
AcDbLine
 10
294.0000000023457005
 20
190.4998069971067025
 30
0.0
 11
294.0000000023463826
 21
171.9998069971088057
 31
0.0
  0
LINE
  5
D6
100
AcDbEntity
  8
0
 62
256
370
-1
 48
1.0
  6
BYLAYER
100
AcDbLine
 10
288.0000000023094913
 20
190.4998069971072994
 30
0.0
 11
288.0000000023094913
 21
187.9998069971076973
 31
0.0
  0
LINE
  5
D7
100
AcDbEntity
  8
0
 62
256
370
-1
 48
1.0
  6
BYLAYER
100
AcDbLine
 10
285.0000000023097186
 20
193.4998069971080952
 30
0.0
 11
285.0000000023097186
 21
195.999806997107612
 31
0.0
  0
LINE
  5
D8
100
AcDbEntity
  8
0
 62
256
370
-1
 48
1.0
  6
BYLAYER
100
AcDbLine
 10
288.0000000023093207
 20
195.9998069971076973
 30
0.0
 11
285.0000000023097186
 21
195.999806997107612
 31
0.0
  0
LINE
  5
D9
100
AcDbEntity
  8
0
 62
256
370
-1
 48
1.0
  6
BYLAYER
100
AcDbLine
 10
294.0000000023463826
 20
171.9998069971088057
 30
0.0
 11
300.0000000022225208
 21
171.9998069971088057
 31
0.0
  0
LINE
  5
DA
100
AcDbEntity
  8
0
 62
256
370
-1
 48
1.0
  6
BYLAYER
100
AcDbLine
 10
288.0000000023094913
 20
187.9998069971076973
 30
0.0
 11
285.0000000023094913
 21
187.999806997107811
 31
0.0
  0
LINE
  5
DB
100
AcDbEntity
  8
0
 62
256
370
-1
 48
1.0
  6
BYLAYER
100
AcDbLine
 10
285.0000000023097186
 20
190.4998069971074131
 30
0.0
 11
285.0000000023094913
 21
187.999806997107811
 31
0.0
  0
LINE
  5
DC
100
AcDbEntity
  8
0
 62
256
370
-1
 48
1.0
  6
BYLAYER
100
AcDbLine
 10
294.0000000023459279
 20
211.9998069971076973
 30
0.0
 11
294.0000000023459279
 21
193.4998069971072994
 31
0.0
  0
LINE
  5
DD
100
AcDbEntity
  8
0
 62
256
370
-1
 48
1.0
  6
BYLAYER
100
AcDbLine
 10
285.0000000023097186
 20
190.4998069971074131
 30
0.0
 11
283.0000000023094913
 21
190.4998069971080952
 31
0.0
  0
LINE
  5
DE
100
AcDbEntity
  8
0
 62
256
370
-1
 48
1.0
  6
BYLAYER
100
AcDbLine
 10
294.0000000023463826
 20
161.9998069971896086
 30
0.0
 11
300.0000000022225208
 21
161.9998069971896086
 31
0.0
  0
LINE
  5
DF
100
AcDbEntity
  8
0
 62
256
370
-1
 48
1.0
  6
BYLAYER
100
AcDbLine
 10
288.000000002309207
 20
193.4998069971078962
 30
0.0
 11
288.0000000023093207
 21
195.9998069971076973
 31
0.0
  0
LINE
  5
E0
100
AcDbEntity
  8
0
 62
256
370
-1
 48
1.0
  6
BYLAYER
100
AcDbLine
 10
300.0000000022225208
 20
161.9998069971896086
 30
0.0
 11
300.0000000022225208
 21
171.9998069971088057
 31
0.0
  0
LINE
  5
E1
100
AcDbEntity
  8
0
 62
256
370
-1
 48
1.0
  6
BYLAYER
100
AcDbLine
 10
300.0000000022574795
 20
211.9998069971076973
 30
0.0
 11
300.0000000022574795
 21
221.9998069971078962
 31
0.0
  0
LINE
  5
E2
100
AcDbEntity
  8
0
 62
256
370
-1
 48
1.0
  6
BYLAYER
100
AcDbLine
 10
285.0000000023097186
 20
193.4998069971080952
 30
0.0
 11
283.0000000023097186
 21
193.4998069971082941
 31
0.0
  0
LINE
  5
E3
100
AcDbEntity
  8
0
 62
256
370
-1
 48
1.0
  6
BYLAYER
100
AcDbLine
 10
294.0000000023459279
 20
193.4998069971072994
 30
0.0
 11
288.000000002309207
 21
193.4998069971078962
 31
0.0
  0
CIRCLE
  5
E4
100
AcDbEntity
  8
0
 62
256
370
-1
 48
1.0
  6
BYLAYER
100
AcDbCircle
 10
173.9999999846843934
 20
246.8565305206487892
 30
0.0
 40
1.499999999999996
  0
CIRCLE
  5
E5
100
AcDbEntity
  8
0
 62
256
370
-1
 48
1.0
  6
BYLAYER
100
AcDbCircle
 10
125.9999999846843934
 20
246.8565305206699918
 30
0.0
 40
1.499999999999998
  0
LINE
  5
E6
100
AcDbEntity
  8
0
 62
256
370
-1
 48
1.0
  6
BYLAYER
100
AcDbLine
 10
285.0000000023097186
 20
50.5002382549610616
 30
0.0
 11
285.0000000023097186
 21
53.0002382549605784
 31
0.0
  0
LINE
  5
E7
100
AcDbEntity
  8
0
 62
256
370
-1
 48
1.0
  6
BYLAYER
100
AcDbLine
 10
283.0000000023097186
 20
50.5002382549612392
 30
0.0
 11
283.0000000023094913
 21
47.5002382549610189
 31
0.0
  0
LINE
  5
E8
100
AcDbEntity
  8
0
 62
256
370
-1
 48
1.0
  6
BYLAYER
100
AcDbLine
 10
294.0000000023457005
 20
47.5002382549596689
 30
0.0
 11
294.0000000023463826
 21
29.0002382549617117
 31
0.0
  0
LINE
  5
E9
100
AcDbEntity
  8
0
 62
256
370
-1
 48
1.0
  6
BYLAYER
100
AcDbLine
 10
294.0000000023457005
 20
47.5002382549596689
 30
0.0
 11
288.0000000023094913
 21
47.5002382549602089
 31
0.0
  0
LINE
  5
EA
100
AcDbEntity
  8
0
 62
256
370
-1
 48
1.0
  6
BYLAYER
100
AcDbLine
 10
285.0000000023097186
 20
47.5002382549603865
 30
0.0
 11
285.0000000023094913
 21
45.0002382549607773
 31
0.0
  0
LINE
  5
EB
100
AcDbEntity
  8
0
 62
256
370
-1
 48
1.0
  6
BYLAYER
100
AcDbLine
 10
300.0000000022574795
 20
69.000238254960621
 30
0.0
 11
300.0000000022574795
 21
79.0002382549608768
 31
0.0
  0
LINE
  5
EC
100
AcDbEntity
  8
0
 62
256
370
-1
 48
1.0
  6
BYLAYER
100
AcDbLine
 10
294.0000000023459279
 20
69.000238254960621
 30
0.0
 11
294.0000000023459279
 21
50.5002382549602373
 31
0.0
  0
LINE
  5
ED
100
AcDbEntity
  8
0
 62
256
370
-1
 48
1.0
  6
BYLAYER
100
AcDbLine
 10
294.0000000023463826
 20
19.0002382550425786
 30
0.0
 11
294.0000000022786253
 21
5.9999999999160556
 31
0.0
  0
LINE
  5
EE
100
AcDbEntity
  8
0
 62
256
370
-1
 48
1.0
  6
BYLAYER
100
AcDbLine
 10
11.9999999978210692
 20
190.4998069971005066
 30
0.0
 11
11.9999999978212504
 21
187.9998069971003929
 31
0.0
  0
LINE
  5
EF
100
AcDbEntity
  8
0
 62
256
370
-1
 48
1.0
  6
BYLAYER
100
AcDbLine
 10
11.9999999978214298
 20
193.4998069971005918
 30
0.0
 11
11.9999999978214298
 21
195.9998069971007055
 31
0.0
  0
LINE
  5
F0
100
AcDbEntity
  8
0
 62
256
370
-1
 48
1.0
  6
BYLAYER
100
AcDbLine
 10
14.9999999978215595
 20
190.4998069971005918
 30
0.0
 11
16.9999999978193905
 21
190.4998069971009897
 31
0.0
  0
LINE
  5
F1
100
AcDbEntity
  8
0
 62
256
370
-1
 48
1.0
  6
BYLAYER
100
AcDbLine
 10
0.0000000000090239
 20
221.9998069970189931
 30
0.0
 11
0.0000000000104677
 21
211.9998069970997108
 31
0.0
  0
LINE
  5
F2
100
AcDbEntity
  8
0
 62
256
370
-1
 48
1.0
  6
BYLAYER
100
AcDbLine
 10
0.0
 20
171.9998069971009897
 30
0.0
 11
0.0
 21
161.9998069971007055
 31
0.0
  0
LINE
  5
F3
100
AcDbEntity
  8
0
 62
256
370
-1
 48
1.0
  6
BYLAYER
100
AcDbLine
 10
6.0000000000134346
 20
221.9998069971009897
 30
0.0
 11
0.0000000000090239
 21
221.9998069970189931
 31
0.0
  0
LINE
  5
F4
100
AcDbEntity
  8
0
 62
256
370
-1
 48
1.0
  6
BYLAYER
100
AcDbLine
 10
14.9999999978212006
 20
193.4998069971011034
 30
0.0
 11
14.99999999782138
 21
195.9998069971009045
 31
0.0
  0
LINE
  5
F5
100
AcDbEntity
  8
0
 62
256
370
-1
 48
1.0
  6
BYLAYER
100
AcDbLine
 10
14.9999999978215595
 20
190.4998069971005918
 30
0.0
 11
14.9999999978212006
 21
187.9998069971007908
 31
0.0
  0
LINE
  5
F6
100
AcDbEntity
  8
0
 62
256
370
-1
 48
1.0
  6
BYLAYER
100
AcDbLine
 10
6.0000000000112692
 20
190.4998069971001939
 30
0.0
 11
6.0000000000132543
 21
171.9998069971020129
 31
0.0
  0
LINE
  5
F7
100
AcDbEntity
  8
0
 62
256
370
-1
 48
1.0
  6
BYLAYER
100
AcDbLine
 10
6.0000000000512443
 20
161.9998069971896086
 30
0.0
 11
0.0
 21
161.9998069971007055
 31
0.0
  0
LINE
  5
F8
100
AcDbEntity
  8
0
 62
256
370
-1
 48
1.0
  6
BYLAYER
100
AcDbLine
 10
6.0000000000112692
 20
190.4998069971001939
 30
0.0
 11
11.9999999978210692
 21
190.4998069971005066
 31
0.0
  0
LINE
  5
F9
100
AcDbEntity
  8
0
 62
256
370
-1
 48
1.0
  6
BYLAYER
100
AcDbLine
 10
6.0000000000109077
 20
193.4998069971003076
 30
0.0
 11
11.9999999978214298
 21
193.4998069971005918
 31
0.0
  0
LINE
  5
FA
100
AcDbEntity
  8
0
 62
256
370
-1
 48
1.0
  6
BYLAYER
100
AcDbLine
 10
16.9999999978186693
 20
193.4998069971013024
 30
0.0
 11
16.9999999978193905
 21
190.4998069971009897
 31
0.0
  0
LINE
  5
FB
100
AcDbEntity
  8
0
 62
256
370
-1
 48
1.0
  6
BYLAYER
100
AcDbLine
 10
6.0000000000470033
 20
211.9998069971007908
 30
0.0
 11
6.0000000000109077
 21
193.4998069971003076
 31
0.0
  0
LINE
  5
FC
100
AcDbEntity
  8
0
 62
256
370
-1
 48
1.0
  6
BYLAYER
100
AcDbLine
 10
6.0000000000470033
 20
211.9998069971007908
 30
0.0
 11
0.0000000000104677
 21
211.9998069970997108
 31
0.0
  0
LINE
  5
FD
100
AcDbEntity
  8
0
 62
256
370
-1
 48
1.0
  6
BYLAYER
100
AcDbLine
 10
11.9999999978214298
 20
195.9998069971007055
 30
0.0
 11
14.99999999782138
 21
195.9998069971009045
 31
0.0
  0
LINE
  5
FE
100
AcDbEntity
  8
0
 62
256
370
-1
 48
1.0
  6
BYLAYER
100
AcDbLine
 10
14.9999999978212006
 20
193.4998069971011034
 30
0.0
 11
16.9999999978186693
 21
193.4998069971013024
 31
0.0
  0
LINE
  5
FF
100
AcDbEntity
  8
0
 62
256
370
-1
 48
1.0
  6
BYLAYER
100
AcDbLine
 10
6.0000000000132543
 20
171.9998069971020129
 30
0.0
 11
0.0
 21
171.9998069971009897
 31
0.0
  0
LINE
  5
100
100
AcDbEntity
  8
0
 62
256
370
-1
 48
1.0
  6
BYLAYER
100
AcDbLine
 10
11.9999999978212504
 20
187.9998069971003929
 30
0.0
 11
14.9999999978212006
 21
187.9998069971007908
 31
0.0
  0
LINE
  5
101
100
AcDbEntity
  8
0
 62
256
370
-1
 48
1.0
  6
BYLAYER
100
AcDbLine
 10
6.0000000000512443
 20
161.9998069971896086
 30
0.0
 11
6.0000000000134346
 21
79.000238254954013
 31
0.0
  0
LINE
  5
102
100
AcDbEntity
  8
0
 62
256
370
-1
 48
1.0
  6
BYLAYER
100
AcDbLine
 10
6.0000000000132543
 20
29.0002382549549402
 30
0.0
 11
0.0
 21
29.000238254953949
 31
0.0
  0
LINE
  5
103
100
AcDbEntity
  8
0
 62
256
370
-1
 48
1.0
  6
BYLAYER
100
AcDbLine
 10
0.0000000000090239
 20
79.0002382548719879
 30
0.0
 11
0.0000000000104677
 21
69.0002382549526772
 31
0.0
  0
LINE
  5
104
100
AcDbEntity
  8
0
 62
256
370
-1
 48
1.0
  6
BYLAYER
100
AcDbLine
 10
11.9999999978210692
 20
47.5002382549534374
 30
0.0
 11
11.9999999978212504
 21
45.0002382549532882
 31
0.0
  0
LINE
  5
105
100
AcDbEntity
  8
0
 62
256
370
-1
 48
1.0
  6
BYLAYER
100
AcDbLine
 10
14.9999999978212006
 20
50.5002382549540201
 30
0.0
 11
14.99999999782138
 21
53.0002382549538069
 31
0.0
  0
LINE
  5
106
100
AcDbEntity
  8
0
 62
256
370
-1
 48
1.0
  6
BYLAYER
100
AcDbLine
 10
6.0000000000134346
 20
79.000238254954013
 30
0.0
 11
0.0000000000090239
 21
79.0002382548719879
 31
0.0
  0
LINE
  5
107
100
AcDbEntity
  8
0
 62
256
370
-1
 48
1.0
  6
BYLAYER
100
AcDbLine
 10
11.9999999978214298
 20
50.5002382549535724
 30
0.0
 11
11.9999999978214298
 21
53.0002382549536435
 31
0.0
  0
LINE
  5
108
100
AcDbEntity
  8
0
 62
256
370
-1
 48
1.0
  6
BYLAYER
100
AcDbLine
 10
0.0
 20
29.000238254953949
 30
0.0
 11
0.0
 21
19.0002382549536009
 31
0.0
  0
LINE
  5
109
100
AcDbEntity
  8
0
 62
256
370
-1
 48
1.0
  6
BYLAYER
100
AcDbLine
 10
6.0000000000470033
 20
69.0002382549537572
 30
0.0
 11
6.0000000000109077
 21
50.5002382549532101
 31
0.0
  0
LINE
  5
10A
100
AcDbEntity
  8
0
 62
256
370
-1
 48
1.0
  6
BYLAYER
100
AcDbLine
 10
6.0000000000512443
 20
19.0002382550425786
 30
0.0
 11
0.0
 21
19.0002382549536009
 31
0.0
  0
LINE
  5
10B
100
AcDbEntity
  8
0
 62
256
370
-1
 48
1.0
  6
BYLAYER
100
AcDbLine
 10
14.9999999978215595
 20
47.5002382549535298
 30
0.0
 11
14.9999999978212006
 21
45.000238254953743
 31
0.0
  0
LINE
  5
10C
100
AcDbEntity
  8
0
 62
256
370
-1
 48
1.0
  6
BYLAYER
100
AcDbLine
 10
6.0000000000109077
 20
50.5002382549532101
 30
0.0
 11
11.9999999978214298
 21
50.5002382549535724
 31
0.0
  0
LINE
  5
10D
100
AcDbEntity
  8
0
 62
256
370
-1
 48
1.0
  6
BYLAYER
100
AcDbLine
 10
6.0000000000112692
 20
47.5002382549531674
 30
0.0
 11
6.0000000000132543
 21
29.0002382549549402
 31
0.0
  0
LINE
  5
10E
100
AcDbEntity
  8
0
 62
256
370
-1
 48
1.0
  6
BYLAYER
100
AcDbLine
 10
16.9999999978186693
 20
50.5002382549541977
 30
0.0
 11
16.9999999978193905
 21
47.5002382549538922
 31
0.0
  0
LINE
  5
10F
100
AcDbEntity
  8
0
 62
256
370
-1
 48
1.0
  6
BYLAYER
100
AcDbLine
 10
6.0000000000470033
 20
69.0002382549537572
 30
0.0
 11
0.0000000000104677
 21
69.0002382549526772
 31
0.0
  0
LINE
  5
110
100
AcDbEntity
  8
0
 62
256
370
-1
 48
1.0
  6
BYLAYER
100
AcDbLine
 10
11.9999999978214298
 20
53.0002382549536435
 30
0.0
 11
14.99999999782138
 21
53.0002382549538069
 31
0.0
  0
LINE
  5
111
100
AcDbEntity
  8
0
 62
256
370
-1
 48
1.0
  6
BYLAYER
100
AcDbLine
 10
11.9999999978212504
 20
45.0002382549532882
 30
0.0
 11
14.9999999978212006
 21
45.000238254953743
 31
0.0
  0
LINE
  5
112
100
AcDbEntity
  8
0
 62
256
370
-1
 48
1.0
  6
BYLAYER
100
AcDbLine
 10
6.0000000000112692
 20
47.5002382549531674
 30
0.0
 11
11.9999999978210692
 21
47.5002382549534374
 31
0.0
  0
LINE
  5
113
100
AcDbEntity
  8
0
 62
256
370
-1
 48
1.0
  6
BYLAYER
100
AcDbLine
 10
14.9999999978215595
 20
47.5002382549535298
 30
0.0
 11
16.9999999978193905
 21
47.5002382549538922
 31
0.0
  0
LINE
  5
114
100
AcDbEntity
  8
0
 62
256
370
-1
 48
1.0
  6
BYLAYER
100
AcDbLine
 10
14.9999999978212006
 20
50.5002382549540201
 30
0.0
 11
16.9999999978186693
 21
50.5002382549541977
 31
0.0
  0
LINE
  5
115
100
AcDbEntity
  8
0
 62
256
370
-1
 48
1.0
  6
BYLAYER
100
AcDbLine
 10
250.0000000024720066
 20
11.9999999999521805
 30
0.0
 11
250.0000000024720919
 21
14.9999999999524398
 31
0.0
  0
LINE
  5
116
100
AcDbEntity
  8
0
 62
256
370
-1
 48
1.0
  6
BYLAYER
100
AcDbLine
 10
252.5000000024720919
 20
14.9999999999520401
 30
0.0
 11
250.0000000024720919
 21
14.9999999999524398
 31
0.0
  0
LINE
  5
117
100
AcDbEntity
  8
0
 62
256
370
-1
 48
1.0
  6
BYLAYER
100
AcDbLine
 10
224.0000000025538895
 20
0.0000000000393555
 30
0.0
 11
234.0000000024730014
 21
0.0000000000394795
 31
0.0
  0
LINE
  5
118
100
AcDbEntity
  8
0
 62
256
370
-1
 48
1.0
  6
BYLAYER
100
AcDbLine
 10
148.5000000013135093
 20
14.9999999999520401
 30
0.0
 11
148.5000000013137935
 21
16.9999999999522515
 31
0.0
  0
LINE
  5
119
100
AcDbEntity
  8
0
 62
256
370
-1
 48
1.0
  6
BYLAYER
100
AcDbLine
 10
151.5000000013129124
 20
5.9999999999158549
 30
0.0
 11
170.0000000013135093
 21
5.9999999999159339
 31
0.0
  0
LINE
  5
11A
100
AcDbEntity
  8
0
 62
256
370
-1
 48
1.0
  6
BYLAYER
100
AcDbLine
 10
148.5000000013135093
 20
14.9999999999520401
 30
0.0
 11
146.0000000013135093
 21
14.9999999999524398
 31
0.0
  0
LINE
  5
11B
100
AcDbEntity
  8
0
 62
256
370
-1
 48
1.0
  6
BYLAYER
100
AcDbLine
 10
154.0000000013135093
 20
11.99999999995255
 30
0.0
 11
154.0000000013135946
 21
14.9999999999520508
 31
0.0
  0
LINE
  5
11C
100
AcDbEntity
  8
0
 62
256
370
-1
 48
1.0
  6
BYLAYER
100
AcDbLine
 10
148.5000000013131114
 20
11.9999999999524007
 30
0.0
 11
146.0000000013133956
 21
11.9999999999521805
 31
0.0
  0
LINE
  5
11D
100
AcDbEntity
  8
0
 62
256
370
-1
 48
1.0
  6
BYLAYER
100
AcDbLine
 10
170.0000000013133956
 20
0.0000000000043653
 30
0.0
 11
180.0000000013137083
 21
0.0000000000043315
 31
0.0
  0
LINE
  5
11E
100
AcDbEntity
  8
0
 62
256
370
-1
 48
1.0
  6
BYLAYER
100
AcDbLine
 10
120.000000001395307
 20
0.0000000000393555
 30
0.0
 11
130.0000000013143904
 21
0.0000000000394795
 31
0.0
  0
LINE
  5
11F
100
AcDbEntity
  8
0
 62
256
370
-1
 48
1.0
  6
BYLAYER
100
AcDbLine
 10
151.5000000013139072
 20
14.9999999999520508
 30
0.0
 11
154.0000000013135946
 21
14.9999999999520508
 31
0.0
  0
LINE
  5
120
100
AcDbEntity
  8
0
 62
256
370
-1
 48
1.0
  6
BYLAYER
100
AcDbLine
 10
170.0000000013135093
 20
5.9999999999159339
 30
0.0
 11
170.0000000013133956
 21
0.0000000000043653
 31
0.0
  0
LINE
  5
121
100
AcDbEntity
  8
0
 62
256
370
-1
 48
1.0
  6
BYLAYER
100
AcDbLine
 10
151.5000000013135946
 20
11.9999999999527294
 30
0.0
 11
154.0000000013135093
 21
11.99999999995255
 31
0.0
  0
LINE
  5
122
100
AcDbEntity
  8
0
 62
256
370
-1
 48
1.0
  6
BYLAYER
100
AcDbLine
 10
120.0000000013955059
 20
5.9999999999154152
 30
0.0
 11
120.000000001395307
 21
0.0000000000393555
 31
0.0
  0
LINE
  5
123
100
AcDbEntity
  8
0
 62
256
370
-1
 48
1.0
  6
BYLAYER
100
AcDbLine
 10
151.5000000013141914
 20
16.9999999999519993
 30
0.0
 11
148.5000000013137935
 21
16.9999999999522515
 31
0.0
  0
LINE
  5
124
100
AcDbEntity
  8
0
 62
256
370
-1
 48
1.0
  6
BYLAYER
100
AcDbLine
 10
146.0000000013133956
 20
11.9999999999521805
 30
0.0
 11
146.0000000013135093
 21
14.9999999999524398
 31
0.0
  0
LINE
  5
125
100
AcDbEntity
  8
0
 62
256
370
-1
 48
1.0
  6
BYLAYER
100
AcDbLine
 10
148.5000000013124009
 20
5.9999999999161604
 30
0.0
 11
148.5000000013131114
 21
11.9999999999524007
 31
0.0
  0
LINE
  5
126
100
AcDbEntity
  8
0
 62
256
370
-1
 48
1.0
  6
BYLAYER
100
AcDbLine
 10
151.5000000013129124
 20
5.9999999999158549
 30
0.0
 11
151.5000000013135946
 21
11.9999999999527294
 31
0.0
  0
LINE
  5
127
100
AcDbEntity
  8
0
 62
256
370
-1
 48
1.0
  6
BYLAYER
100
AcDbLine
 10
151.5000000013139072
 20
14.9999999999520508
 30
0.0
 11
151.5000000013141914
 21
16.9999999999519993
 31
0.0
  0
LINE
  5
128
100
AcDbEntity
  8
0
 62
256
370
-1
 48
1.0
  6
BYLAYER
100
AcDbLine
 10
180.0000000013133103
 20
5.9999999999160583
 30
0.0
 11
224.0000000025540885
 21
5.9999999999154152
 31
0.0
  0
LINE
  5
129
100
AcDbEntity
  8
0
 62
256
370
-1
 48
1.0
  6
BYLAYER
100
AcDbLine
 10
26.0000000080735809
 20
5.9999999999154721
 30
0.0
 11
26.0000000080736307
 21
0.0000000000394795
 31
0.0
  0
LINE
  5
12A
100
AcDbEntity
  8
0
 62
256
370
-1
 48
1.0
  6
BYLAYER
100
AcDbLine
 10
44.5000000080727176
 20
14.9999999999520401
 30
0.0
 11
42.0000000080727531
 21
14.9999999999524398
 31
0.0
  0
LINE
  5
12B
100
AcDbEntity
  8
0
 62
256
370
-1
 48
1.0
  6
BYLAYER
100
AcDbLine
 10
76.0000000080725897
 20
5.9999999999160583
 30
0.0
 11
76.0000000080730018
 21
0.0000000000043315
 31
0.0
  0
LINE
  5
12C
100
AcDbEntity
  8
0
 62
256
370
-1
 48
1.0
  6
BYLAYER
100
AcDbLine
 10
66.0000000080727034
 20
0.0000000000043653
 30
0.0
 11
76.0000000080730018
 21
0.0000000000043315
 31
0.0
  0
LINE
  5
12D
100
AcDbEntity
  8
0
 62
256
370
-1
 48
1.0
  6
BYLAYER
100
AcDbLine
 10
44.5000000080723623
 20
11.9999999999524007
 30
0.0
 11
42.0000000080726466
 21
11.9999999999521805
 31
0.0
  0
LINE
  5
12E
100
AcDbEntity
  8
0
 62
256
370
-1
 48
1.0
  6
BYLAYER
100
AcDbLine
 10
44.5000000080716802
 20
5.9999999999161604
 30
0.0
 11
44.5000000080723623
 21
11.9999999999524007
 31
0.0
  0
LINE
  5
12F
100
AcDbEntity
  8
0
 62
256
370
-1
 48
1.0
  6
BYLAYER
100
AcDbLine
 10
50.0000000080727176
 20
11.99999999995255
 30
0.0
 11
50.0000000080728668
 21
14.9999999999520508
 31
0.0
  0
LINE
  5
130
100
AcDbEntity
  8
0
 62
256
370
-1
 48
1.0
  6
BYLAYER
100
AcDbLine
 10
66.000000008072746
 20
5.9999999999159339
 30
0.0
 11
66.0000000080727034
 21
0.0000000000043653
 31
0.0
  0
LINE
  5
131
100
AcDbEntity
  8
0
 62
256
370
-1
 48
1.0
  6
BYLAYER
100
AcDbLine
 10
16.0000000081547711
 20
5.9999999999154152
 30
0.0
 11
16.0000000081545508
 21
0.0000000000393555
 31
0.0
  0
LINE
  5
132
100
AcDbEntity
  8
0
 62
256
370
-1
 48
1.0
  6
BYLAYER
100
AcDbLine
 10
47.5000000080721705
 20
5.9999999999158549
 30
0.0
 11
66.000000008072746
 21
5.9999999999159339
 31
0.0
  0
LINE
  5
133
100
AcDbEntity
  8
0
 62
256
370
-1
 48
1.0
  6
BYLAYER
100
AcDbLine
 10
47.5000000080734424
 20
16.9999999999519993
 30
0.0
 11
44.5000000080730302
 21
16.9999999999522515
 31
0.0
  0
LINE
  5
134
100
AcDbEntity
  8
0
 62
256
370
-1
 48
1.0
  6
BYLAYER
100
AcDbLine
 10
16.0000000081545508
 20
0.0000000000393555
 30
0.0
 11
26.0000000080736307
 21
0.0000000000394795
 31
0.0
  0
LINE
  5
135
100
AcDbEntity
  8
0
 62
256
370
-1
 48
1.0
  6
BYLAYER
100
AcDbLine
 10
47.5000000080731581
 20
14.9999999999520508
 30
0.0
 11
47.5000000080734424
 21
16.9999999999519993
 31
0.0
  0
LINE
  5
136
100
AcDbEntity
  8
0
 62
256
370
-1
 48
1.0
  6
BYLAYER
100
AcDbLine
 10
42.0000000080726466
 20
11.9999999999521805
 30
0.0
 11
42.0000000080727531
 21
14.9999999999524398
 31
0.0
  0
LINE
  5
137
100
AcDbEntity
  8
0
 62
256
370
-1
 48
1.0
  6
BYLAYER
100
AcDbLine
 10
47.5000000080731581
 20
14.9999999999520508
 30
0.0
 11
50.0000000080728668
 21
14.9999999999520508
 31
0.0
  0
LINE
  5
138
100
AcDbEntity
  8
0
 62
256
370
-1
 48
1.0
  6
BYLAYER
100
AcDbLine
 10
26.0000000080735809
 20
5.9999999999154721
 30
0.0
 11
44.5000000080716802
 21
5.9999999999161604
 31
0.0
  0
LINE
  5
139
100
AcDbEntity
  8
0
 62
256
370
-1
 48
1.0
  6
BYLAYER
100
AcDbLine
 10
47.5000000080728881
 20
11.9999999999527294
 30
0.0
 11
50.0000000080727176
 21
11.99999999995255
 31
0.0
  0
LINE
  5
13A
100
AcDbEntity
  8
0
 62
256
370
-1
 48
1.0
  6
BYLAYER
100
AcDbLine
 10
47.5000000080721705
 20
5.9999999999158549
 30
0.0
 11
47.5000000080728881
 21
11.9999999999527294
 31
0.0
  0
LINE
  5
13B
100
AcDbEntity
  8
0
 62
256
370
-1
 48
1.0
  6
BYLAYER
100
AcDbLine
 10
44.5000000080727176
 20
14.9999999999520401
 30
0.0
 11
44.5000000080730302
 21
16.9999999999522515
 31
0.0
  0
CIRCLE
  5
13C
100
AcDbEntity
  8
0
 62
256
370
-1
 48
1.0
  6
BYLAYER
100
AcDbCircle
 10
250.9460273324309014
 20
113.582101776192502
 30
0.0
 40
1.499999999999996
  0
CIRCLE
  5
13D
100
AcDbEntity
  8
0
 62
256
370
-1
 48
1.0
  6
BYLAYER
100
AcDbCircle
 10
226.9460273324125978
 20
72.0128823945500187
 30
0.0
 40
1.4999999999999969
  0
CIRCLE
  5
13E
100
AcDbEntity
  8
0
 62
256
370
-1
 48
1.0
  6
BYLAYER
100
AcDbCircle
 10
49.0539726909994727
 20
113.582101745001097
 30
0.0
 40
1.4999999999999969
  0
CIRCLE
  5
13F
100
AcDbEntity
  8
0
 62
256
370
-1
 48
1.0
  6
BYLAYER
100
AcDbCircle
 10
73.0539726909811407
 20
72.012882363337468
 30
0.0
 40
1.4999999999999969
  0
ENDSEC
  0
SECTION
  2
OBJECTS
  0
DICTIONARY
  5
C
100
AcDbDictionary
280
0
281
1
  3
ACAD_GROUP
350
D
  3
ACAD_LAYOUT
350
1A
  3
ACAD_MLINESTYLE
350
17
  3
ACAD_PLOTSETTINGS
350
19
  3
ACAD_PLOTSTYLENAME
350
E
  3
AcDbVariableDictionary
350
140
  3
QCAD_OBJECTS
350
141
  0
DICTIONARY
  5
D
100
AcDbDictionary
280
0
281
1
  0
ACDBDICTIONARYWDFLT
  5
E
100
AcDbDictionary
281
1
  3
Normal
350
F
100
AcDbDictionaryWithDefault
340
F
  0
ACDBPLACEHOLDER
  5
F
  0
DICTIONARY
  5
17
100
AcDbDictionary
280
0
281
1
  3
Standard
350
18
  0
MLINESTYLE
  5
18
100
AcDbMlineStyle
  2
STANDARD
 70
0
  3

 62
256
 51
90.0
 52
90.0
 71
2
 49
0.5
 62
256
  6
BYLAYER
 49
-0.5
 62
256
  6
BYLAYER
  0
DICTIONARY
  5
19
100
AcDbDictionary
280
0
281
1
  0
DICTIONARY
  5
1A
100
AcDbDictionary
281
1
  3
Layout1
350
1E
  3
Layout2
350
26
  3
Model
350
22
  0
LAYOUT
  5
1E
100
AcDbPlotSettings
  1

  2
none_device
  4

  6

 40
0.0
 41
0.0
 42
0.0
 43
0.0
 44
0.0
 45
0.0
 46
0.0
 47
0.0
 48
0.0
 49
0.0
140
0.0
141
0.0
142
1.0
143
1.0
 70
688
 72
0
 73
0
 74
5
  7

 75
16
147
1.0
148
0.0
149
0.0
100
AcDbLayout
  1
Layout1
 70
1
 71
1
 10
0.0
 20
0.0
 11
420.0
 21
297.0
 12
0.0
 22
0.0
 32
0.0
 14
100000000000000000000.0
 24
100000000000000000000.0
 34
100000000000000000000.0
 15
-100000000000000000000.0
 25
-100000000000000000000.0
 35
-100000000000000000000.0
146
0.0
 13
0.0
 23
0.0
 33
0.0
 16
1.0
 26
0.0
 36
0.0
 17
0.0
 27
1.0
 37
0.0
 76
0
330
1B
  0
LAYOUT
  5
22
100
AcDbPlotSettings
  1

  2
none_device
  4

  6

 40
0.0
 41
0.0
 42
0.0
 43
0.0
 44
0.0
 45
0.0
 46
0.0
 47
0.0
 48
0.0
 49
0.0
140
0.0
141
0.0
142
1.0
143
1.0
 70
1712
 72
0
 73
0
 74
0
  7

 75
0
147
1.0
148
0.0
149
0.0
100
AcDbLayout
  1
Model
 70
1
 71
0
 10
0.0
 20
0.0
 11
12.0
 21
9.0
 12
0.0
 22
0.0
 32
0.0
 14
0.0
 24
0.0
 34
0.0
 15
0.0
 25
0.0
 35
0.0
146
0.0
 13
0.0
 23
0.0
 33
0.0
 16
1.0
 26
0.0
 36
0.0
 17
0.0
 27
1.0
 37
0.0
 76
0
330
1F
  0
LAYOUT
  5
26
100
AcDbPlotSettings
  1

  2
none_device
  4

  6

 40
0.0
 41
0.0
 42
0.0
 43
0.0
 44
0.0
 45
0.0
 46
0.0
 47
0.0
 48
0.0
 49
0.0
140
0.0
141
0.0
142
1.0
143
1.0
 70
688
 72
0
 73
0
 74
5
  7

 75
16
147
1.0
148
0.0
149
0.0
100
AcDbLayout
  1
Layout2
 70
1
 71
2
 10
0.0
 20
0.0
 11
12.0
 21
9.0
 12
0.0
 22
0.0
 32
0.0
 14
0.0
 24
0.0
 34
0.0
 15
0.0
 25
0.0
 35
0.0
146
0.0
 13
0.0
 23
0.0
 33
0.0
 16
1.0
 26
0.0
 36
0.0
 17
0.0
 27
1.0
 37
0.0
 76
0
330
23
  0
DICTIONARY
  5
140
100
AcDbDictionary
281
1
  3
DIMASSOC
350
143
  3
HIDETEXT
350
142
  0
DICTIONARYVAR
  5
142
100
DictionaryVariables
280
0
  1
2
  0
DICTIONARYVAR
  5
143
100
DictionaryVariables
280
0
  1
1
  0
DICTIONARY
  5
141
100
AcDbDictionary
281
1
  3
ColorSettings/BackgroundColor
350
144
  3
ColorSettings/ColorMode
350
145
  3
Grid/DisplayGrid00
350
146
  3
Grid/DisplayGrid01
350
147
  3
Grid/DisplayGrid02
350
148
  3
Grid/DisplayGrid03
350
149
  3
Grid/GridSpacingX00
350
14A
  3
Grid/GridSpacingX01
350
14B
  3
Grid/GridSpacingX02
350
14C
  3
Grid/GridSpacingX03
350
14D
  3
Grid/GridSpacingY00
350
14E
  3
Grid/GridSpacingY01
350
14F
  3
Grid/GridSpacingY02
350
150
  3
Grid/GridSpacingY03
350
151
  3
Grid/IsometricGrid00
350
152
  3
Grid/IsometricGrid01
350
153
  3
Grid/IsometricGrid02
350
154
  3
Grid/IsometricGrid03
350
155
  3
Grid/IsometricProjection00
350
156
  3
Grid/IsometricProjection01
350
157
  3
Grid/IsometricProjection02
350
158
  3
Grid/IsometricProjection03
350
159
  3
Grid/MetaGridSpacingX00
350
15A
  3
Grid/MetaGridSpacingX01
350
15B
  3
Grid/MetaGridSpacingX02
350
15C
  3
Grid/MetaGridSpacingX03
350
15D
  3
Grid/MetaGridSpacingY00
350
15E
  3
Grid/MetaGridSpacingY01
350
15F
  3
Grid/MetaGridSpacingY02
350
160
  3
Grid/MetaGridSpacingY03
350
161
  3
MultiPageSettings/Columns
350
162
  3
MultiPageSettings/GlueMarginsBottom
350
163
  3
MultiPageSettings/GlueMarginsLeft
350
164
  3
MultiPageSettings/GlueMarginsRight
350
165
  3
MultiPageSettings/GlueMarginsTop
350
166
  3
MultiPageSettings/PrintCropMarks
350
167
  3
MultiPageSettings/Rows
350
168
  3
PageSettings/OffsetX
350
169
  3
PageSettings/OffsetY
350
16A
  3
PageSettings/PageOrientation
350
16B
  3
PageSettings/PaperHeight
350
16C
  3
PageSettings/PaperWidth
350
16D
  3
PageSettings/Scale
350
16E
  3
PageSettings/ShowPaperBorders
350
16F
  3
UnitSettings/PaperUnit
350
170
  3
ViewportCenter
350
171
  3
ViewportHeight
350
172
  3
ViewportWidth
350
173
  0
XRECORD
  5
144
330
141
100
AcDbXrecord
280
1
1000
Bianco
  0
XRECORD
  5
145
330
141
100
AcDbXrecord
280
1
1000
FullColor
  0
XRECORD
  5
146
330
141
100
AcDbXrecord
280
1
290
1
  0
XRECORD
  5
147
330
141
100
AcDbXrecord
280
1
290
1
  0
XRECORD
  5
148
330
141
100
AcDbXrecord
280
1
290
1
  0
XRECORD
  5
149
330
141
100
AcDbXrecord
280
1
290
1
  0
XRECORD
  5
14A
330
141
100
AcDbXrecord
280
1
1000
auto
  0
XRECORD
  5
14B
330
141
100
AcDbXrecord
280
1
1000
auto
  0
XRECORD
  5
14C
330
141
100
AcDbXrecord
280
1
1000
auto
  0
XRECORD
  5
14D
330
141
100
AcDbXrecord
280
1
1000
auto
  0
XRECORD
  5
14E
330
141
100
AcDbXrecord
280
1
1000
auto
  0
XRECORD
  5
14F
330
141
100
AcDbXrecord
280
1
1000
auto
  0
XRECORD
  5
150
330
141
100
AcDbXrecord
280
1
1000
auto
  0
XRECORD
  5
151
330
141
100
AcDbXrecord
280
1
1000
auto
  0
XRECORD
  5
152
330
141
100
AcDbXrecord
280
1
290
0
  0
XRECORD
  5
153
330
141
100
AcDbXrecord
280
1
290
0
  0
XRECORD
  5
154
330
141
100
AcDbXrecord
280
1
290
0
  0
XRECORD
  5
155
330
141
100
AcDbXrecord
280
1
290
0
  0
XRECORD
  5
156
330
141
100
AcDbXrecord
280
1
 90
4097
  0
XRECORD
  5
157
330
141
100
AcDbXrecord
280
1
 90
4097
  0
XRECORD
  5
158
330
141
100
AcDbXrecord
280
1
 90
4097
  0
XRECORD
  5
159
330
141
100
AcDbXrecord
280
1
 90
4097
  0
XRECORD
  5
15A
330
141
100
AcDbXrecord
280
1
1000
auto
  0
XRECORD
  5
15B
330
141
100
AcDbXrecord
280
1
1000
auto
  0
XRECORD
  5
15C
330
141
100
AcDbXrecord
280
1
1000
auto
  0
XRECORD
  5
15D
330
141
100
AcDbXrecord
280
1
1000
auto
  0
XRECORD
  5
15E
330
141
100
AcDbXrecord
280
1
1000
auto
  0
XRECORD
  5
15F
330
141
100
AcDbXrecord
280
1
1000
auto
  0
XRECORD
  5
160
330
141
100
AcDbXrecord
280
1
1000
auto
  0
XRECORD
  5
161
330
141
100
AcDbXrecord
280
1
1000
auto
  0
XRECORD
  5
162
330
141
100
AcDbXrecord
280
1
 90
1
  0
XRECORD
  5
163
330
141
100
AcDbXrecord
280
1
 40
10.0
  0
XRECORD
  5
164
330
141
100
AcDbXrecord
280
1
 40
10.0
  0
XRECORD
  5
165
330
141
100
AcDbXrecord
280
1
 40
10.0
  0
XRECORD
  5
166
330
141
100
AcDbXrecord
280
1
 40
10.0
  0
XRECORD
  5
167
330
141
100
AcDbXrecord
280
1
290
0
  0
XRECORD
  5
168
330
141
100
AcDbXrecord
280
1
 90
1
  0
XRECORD
  5
169
330
141
100
AcDbXrecord
280
1
 40
0.0
  0
XRECORD
  5
16A
330
141
100
AcDbXrecord
280
1
 40
0.0
  0
XRECORD
  5
16B
330
141
100
AcDbXrecord
280
1
1000
Portrait
  0
XRECORD
  5
16C
330
141
100
AcDbXrecord
280
1
 40
297.0
  0
XRECORD
  5
16D
330
141
100
AcDbXrecord
280
1
 40
210.0
  0
XRECORD
  5
16E
330
141
100
AcDbXrecord
280
1
1000
1:1
  0
XRECORD
  5
16F
330
141
100
AcDbXrecord
280
1
290
1
  0
XRECORD
  5
170
330
141
100
AcDbXrecord
280
1
 90
4
  0
XRECORD
  5
172
330
141
100
AcDbXrecord
280
1
 40
424.5018557147991487
  0
XRECORD
  5
173
330
141
100
AcDbXrecord
280
1
 40
692.7744039360476336
  0
ENDSEC
  0
EOF
