  0
SECTION
  2
HEADER
  9
$ACADVER
  1
AC1014
  9
$ACADMAINTVER
 70
     9
  9
$DWGCODEPAGE
  3
ANSI_1252
  9
$INSBASE
 10
0.0
 20
0.0
 30
0.0
  9
$EXTMIN
 10
1.000000000000000E+20
 20
1.000000000000000E+20
 30
1.000000000000000E+20
  9
$EXTMAX
 10
-1.000000000000000E+20
 20
-1.000000000000000E+20
 30
-1.000000000000000E+20
  9
$LIMMIN
 10
0.0
 20
0.0
  9
$LIMMAX
 10
12.0
 20
9.0
  9
$ORTHOMODE
 70
     0
  9
$REGENMODE
 70
     1
  9
$FILLMODE
 70
     1
  9
$QTEXTMODE
 70
     0
  9
$MIRRTEXT
 70
     1
  9
$DRAGMODE
 70
     2
  9
$LTSCALE
 40
1.0
  9
$OSMODE
 70
    37
  9
$ATTMODE
 70
     1
  9
$TEXTSIZE
 40
0.2
  9
$TRACEWID
 40
0.05
  9
$TEXTSTYLE
  7
STANDARD
  9
$CLAYER
  8
0
  9
$CELTYPE
  6
BYLAYER
  9
$CECOLOR
 62
   256
  9
$CELTSCALE
 40
1.0
  9
$DELOBJ
 70
     1
  9
$DISPSILH
 70
     0
  9
$DIMSCALE
 40
1.0
  9
$DIMASZ
 40
0.18
  9
$DIMEXO
 40
0.0625
  9
$DIMDLI
 40
0.38
  9
$DIMRND
 40
0.0
  9
$DIMDLE
 40
0.0
  9
$DIMEXE
 40
0.18
  9
$DIMTP
 40
0.0
  9
$DIMTM
 40
0.0
  9
$DIMTXT
 40
0.18
  9
$DIMCEN
 40
0.09
  9
$DIMTSZ
 40
0.0
  9
$DIMTOL
 70
     0
  9
$DIMLIM
 70
     0
  9
$DIMTIH
 70
     1
  9
$DIMTOH
 70
     1
  9
$DIMSE1
 70
     0
  9
$DIMSE2
 70
     0
  9
$DIMTAD
 70
     0
  9
$DIMZIN
 70
     0
  9
$DIMBLK
  1

  9
$DIMASO
 70
     1
  9
$DIMSHO
 70
     1
  9
$DIMPOST
  1

  9
$DIMAPOST
  1

  9
$DIMALT
 70
     0
  9
$DIMALTD
 70
     2
  9
$DIMALTF
 40
25.4
  9
$DIMLFAC
 40
1.0
  9
$DIMTOFL
 70
     0
  9
$DIMTVP
 40
0.0
  9
$DIMTIX
 70
     0
  9
$DIMSOXD
 70
     0
  9
$DIMSAH
 70
     0
  9
$DIMBLK1
  1

  9
$DIMBLK2
  1

  9
$DIMSTYLE
  2
STANDARD
  9
$DIMCLRD
 70
     0
  9
$DIMCLRE
 70
     0
  9
$DIMCLRT
 70
     0
  9
$DIMTFAC
 40
1.0
  9
$DIMGAP
 40
0.09
  9
$DIMJUST
 70
     0
  9
$DIMSD1
 70
     0
  9
$DIMSD2
 70
     0
  9
$DIMTOLJ
 70
     1
  9
$DIMTZIN
 70
     0
  9
$DIMALTZ
 70
     0
  9
$DIMALTTZ
 70
     0
  9
$DIMFIT
 70
     3
  9
$DIMUPT
 70
     0
  9
$DIMUNIT
 70
     2
  9
$DIMDEC
 70
     4
  9
$DIMTDEC
 70
     4
  9
$DIMALTU
 70
     2
  9
$DIMALTTD
 70
     2
  9
$DIMTXSTY
  7
STANDARD
  9
$DIMAUNIT
 70
     0
  9
$LUNITS
 70
     2
  9
$LUPREC
 70
     4
  9
$SKETCHINC
 40
0.1
  9
$FILLETRAD
 40
0.5
  9
$AUNITS
 70
     0
  9
$AUPREC
 70
     0
  9
$MENU
  1
.
  9
$ELEVATION
 40
0.0
  9
$PELEVATION
 40
0.0
  9
$THICKNESS
 40
0.0
  9
$LIMCHECK
 70
     0
  9
$CHAMFERA
 40
0.0
  9
$CHAMFERB
 40
0.0
  9
$CHAMFERC
 40
0.0
  9
$CHAMFERD
 40
0.0
  9
$SKPOLY
 70
     0
  9
$TDCREATE
 40
2457861.962686192
  9
$TDUPDATE
 40
2457861.962686562
  9
$TDINDWG
 40
0.0000000116
  9
$TDUSRTIMER
 40
0.0000000116
  9
$USRTIMER
 70
     1
  9
$ANGBASE
 50
0.0
  9
$ANGDIR
 70
     0
  9
$PDMODE
 70
     0
  9
$PDSIZE
 40
0.0
  9
$PLINEWID
 40
0.0
  9
$COORDS
 70
     1
  9
$SPLFRAME
 70
     0
  9
$SPLINETYPE
 70
     6
  9
$SPLINESEGS
 70
     8
  9
$ATTDIA
 70
     0
  9
$ATTREQ
 70
     1
  9
$HANDLING
 70
     1
  9
$HANDSEED
  5
1B5
  9
$SURFTAB1
 70
     6
  9
$SURFTAB2
 70
     6
  9
$SURFTYPE
 70
     6
  9
$SURFU
 70
     6
  9
$SURFV
 70
     6
  9
$UCSNAME
  2

  9
$UCSORG
 10
0.0
 20
0.0
 30
0.0
  9
$UCSXDIR
 10
1.0
 20
0.0
 30
0.0
  9
$UCSYDIR
 10
0.0
 20
1.0
 30
0.0
  9
$PUCSNAME
  2

  9
$PUCSORG
 10
0.0
 20
0.0
 30
0.0
  9
$PUCSXDIR
 10
1.0
 20
0.0
 30
0.0
  9
$PUCSYDIR
 10
0.0
 20
1.0
 30
0.0
  9
$USERI1
 70
     0
  9
$USERI2
 70
     0
  9
$USERI3
 70
     0
  9
$USERI4
 70
     0
  9
$USERI5
 70
     0
  9
$USERR1
 40
0.0
  9
$USERR2
 40
0.0
  9
$USERR3
 40
0.0
  9
$USERR4
 40
0.0
  9
$USERR5
 40
0.0
  9
$WORLDVIEW
 70
     1
  9
$SHADEDGE
 70
     3
  9
$SHADEDIF
 70
    70
  9
$TILEMODE
 70
     1
  9
$MAXACTVP
 70
    64
  9
$PINSBASE
 10
0.0
 20
0.0
 30
0.0
  9
$PLIMCHECK
 70
     0
  9
$PEXTMIN
 10
1.000000000000000E+20
 20
1.000000000000000E+20
 30
1.000000000000000E+20
  9
$PEXTMAX
 10
-1.000000000000000E+20
 20
-1.000000000000000E+20
 30
-1.000000000000000E+20
  9
$PLIMMIN
 10
0.0
 20
0.0
  9
$PLIMMAX
 10
12.0
 20
9.0
  9
$UNITMODE
 70
     0
  9
$VISRETAIN
 70
     1
  9
$PLINEGEN
 70
     0
  9
$PSLTSCALE
 70
     1
  9
$TREEDEPTH
 70
  3020
  9
$PICKSTYLE
 70
     1
  9
$CMLSTYLE
  2
STANDARD
  9
$CMLJUST
 70
     0
  9
$CMLSCALE
 40
1.0
  9
$PROXYGRAPHICS
 70
     1
  9
$MEASUREMENT
 70
     1
  0
ENDSEC
  0
SECTION
  2
CLASSES
  0
CLASS
  1
ACDBDICTIONARYWDFLT
  2
AcDbDictionaryWithDefault
  3
ObjectDBX Classes
 90
        0
280
     0
281
     0
  0
CLASS
  1
VISUALSTYLE
  2
AcDbVisualStyle
  3
ObjectDBX Classes
 90
     4095
280
     0
281
     0
  0
CLASS
  1
MATERIAL
  2
AcDbMaterial
  3
ObjectDBX Classes
 90
     1153
280
     0
281
     0
  0
CLASS
  1
SCALE
  2
AcDbScale
  3
ObjectDBX Classes
 90
     1153
280
     0
281
     0
  0
CLASS
  1
SUN
  2
AcDbSun
  3
SCENEOE
 90
     1153
280
     0
281
     0
  0
CLASS
  1
DICTIONARYVAR
  2
AcDbDictionaryVar
  3
ObjectDBX Classes
 90
        0
280
     0
281
     0
  0
CLASS
  1
XRECORD
  2
AcDbXrecord
  3
ObjectDBX Classes
 90
        0
280
     0
281
     0
  0
CLASS
  1
LWPOLYLINE
  2
AcDbPolyline
  3
ObjectDBX Classes
 90
        0
280
     0
281
     1
  0
CLASS
  1
HATCH
  2
AcDbHatch
  3
ObjectDBX Classes
 90
        0
280
     0
281
     1
  0
CLASS
  1
ACDBPLACEHOLDER
  2
AcDbPlaceHolder
  3
ObjectDBX Classes
 90
        0
280
     0
281
     0
  0
CLASS
  1
LAYOUT
  2
AcDbLayout
  3
ObjectDBX Classes
 90
        0
280
     0
281
     0
  0
ENDSEC
  0
SECTION
  2
TABLES
  0
TABLE
  2
VPORT
  5
8
102
{ACAD_XDICTIONARY
360
1AB
102
}
330
0
100
AcDbSymbolTable
 70
     1
  0
VPORT
  5
29
330
8
100
AcDbSymbolTableRecord
100
AcDbViewportTableRecord
  2
*ACTIVE
 70
     0
 10
0.0
 20
0.0
 11
1.0
 21
1.0
 12
0.0
 22
0.0
 13
0.0
 23
0.0
 14
0.5
 24
0.5
 15
0.5
 25
0.5
 16
0.0
 26
0.0
 36
1.0
 17
0.0
 27
0.0
 37
-1000.0
 40
109.0425417864345
 41
1.309791332263243
 42
50.0
 43
143.0724414448333
 44
205.556317321499
 50
0.0
 51
0.0
 71
     0
 72
   100
 73
     1
 74
     3
 75
     0
 76
     0
 77
     0
 78
     0
  0
ENDTAB
  0
TABLE
  2
LTYPE
  5
5
330
0
100
AcDbSymbolTable
 70
     1
  0
LTYPE
  5
14
330
5
100
AcDbSymbolTableRecord
100
AcDbLinetypeTableRecord
  2
BYBLOCK
 70
     0
  3

 72
    65
 73
     0
 40
0.0
  0
LTYPE
  5
15
330
5
100
AcDbSymbolTableRecord
100
AcDbLinetypeTableRecord
  2
BYLAYER
 70
     0
  3

 72
    65
 73
     0
 40
0.0
  0
LTYPE
  5
16
330
5
100
AcDbSymbolTableRecord
100
AcDbLinetypeTableRecord
  2
CONTINUOUS
 70
     0
  3
Solid line
 72
    65
 73
     0
 40
0.0
  0
ENDTAB
  0
TABLE
  2
LAYER
  5
2
330
0
100
AcDbSymbolTable
 70
     3
  0
LAYER
  5
10
330
2
100
AcDbSymbolTableRecord
100
AcDbLayerTableRecord
  2
0
 70
     0
 62
     7
  6
CONTINUOUS
  0
LAYER
  5
6A
330
2
100
AcDbSymbolTableRecord
100
AcDbLayerTableRecord
  2
PROFILEEDGES
 70
     0
 62
     7
  6
CONTINUOUS
  0
LAYER
  5
6B
330
2
100
AcDbSymbolTableRecord
100
AcDbLayerTableRecord
  2
SECTIONCUTEDGES
 70
     0
 62
     7
  6
CONTINUOUS
  0
ENDTAB
  0
TABLE
  2
STYLE
  5
3
330
0
100
AcDbSymbolTable
 70
     1
  0
STYLE
  5
11
330
3
100
AcDbSymbolTableRecord
100
AcDbTextStyleTableRecord
  2
STANDARD
 70
     0
 40
0.0
 41
1.0
 50
0.0
 71
     0
 42
0.2
  3
txt
  4

  0
ENDTAB
  0
TABLE
  2
VIEW
  5
6
330
0
100
AcDbSymbolTable
 70
     0
  0
ENDTAB
  0
TABLE
  2
UCS
  5
7
330
0
100
AcDbSymbolTable
 70
     0
  0
ENDTAB
  0
TABLE
  2
APPID
  5
9
330
0
100
AcDbSymbolTable
 70
     1
  0
APPID
  5
12
330
9
100
AcDbSymbolTableRecord
100
AcDbRegAppTableRecord
  2
ACAD
 70
     0
  0
ENDTAB
  0
TABLE
  2
DIMSTYLE
  5
A
330
0
100
AcDbSymbolTable
 70
     1
  0
DIMSTYLE
105
27
330
A
100
AcDbSymbolTableRecord
100
AcDbDimStyleTableRecord
  2
STANDARD
 70
     0
  3

  4

  5

  6

  7

 40
1.0
 41
0.18
 42
0.0625
 43
0.38
 44
0.18
 45
0.0
 46
0.0
 47
0.0
 48
0.0
140
0.18
141
0.09
142
0.0
143
25.4
144
1.0
145
0.0
146
1.0
147
0.09
 71
     0
 72
     0
 73
     1
 74
     1
 75
     0
 76
     0
 77
     0
 78
     0
170
     0
171
     2
172
     0
173
     0
174
     0
175
     0
176
     0
177
     0
178
     0
270
     2
271
     4
272
     4
273
     2
274
     2
340
11
275
     0
280
     0
281
     0
282
     0
283
     1
284
     0
285
     0
286
     0
287
     3
288
     0
  0
ENDTAB
  0
TABLE
  2
BLOCK_RECORD
  5
1
330
0
100
AcDbSymbolTable
 70
     1
  0
BLOCK_RECORD
  5
1F
330
1
100
AcDbSymbolTableRecord
100
AcDbBlockTableRecord
  2
*MODEL_SPACE
  0
BLOCK_RECORD
  5
1B
330
1
100
AcDbSymbolTableRecord
100
AcDbBlockTableRecord
  2
*PAPER_SPACE
  0
ENDTAB
  0
ENDSEC
  0
SECTION
  2
BLOCKS
  0
BLOCK
  5
20
330
1F
100
AcDbEntity
  8
0
100
AcDbBlockBegin
  2
*MODEL_SPACE
 70
     0
 10
0.0
 20
0.0
 30
0.0
  3
*MODEL_SPACE
  1

  0
ENDBLK
  5
21
330
1F
100
AcDbEntity
  8
0
100
AcDbBlockEnd
  0
BLOCK
  5
1C
330
1B
100
AcDbEntity
 67
     1
  8
0
100
AcDbBlockBegin
  2
*PAPER_SPACE
 70
     0
 10
0.0
 20
0.0
 30
0.0
  3
*PAPER_SPACE
  1

  0
ENDBLK
  5
1D
330
1B
100
AcDbEntity
 67
     1
  8
0
100
AcDbBlockEnd
  0
ENDSEC
  0
SECTION
  2
ENTITIES
  0
LINE
  5
6C
330
1F
100
AcDbEntity
  8
0
100
AcDbLine
 10
-17.11177142201652
 20
-12.75111126041701
 30
0.0
 11
-16.74999998967027
 21
-12.90096189417383
 31
0.0
  0
LINE
  5
6D
330
1F
100
AcDbEntity
  8
0
100
AcDbLine
 10
-16.74999998967027
 20
-12.90096189417383
 30
0.0
 11
-16.43933981789036
 21
-13.13933982807061
 31
0.0
  0
LINE
  5
6E
330
1F
100
AcDbEntity
  8
0
100
AcDbLine
 10
-16.43933981789036
 20
-13.13933982807061
 30
0.0
 11
-16.20096188399345
 21
-13.44999999985038
 31
0.0
  0
LINE
  5
6F
330
1F
100
AcDbEntity
  8
0
100
AcDbLine
 10
-16.20096188399345
 20
-13.44999999985038
 30
0.0
 11
-16.05111125023639
 21
-13.81177143219655
 31
0.0
  0
LINE
  5
70
330
1F
100
AcDbEntity
  8
0
100
AcDbLine
 10
13.94888874972624
 20
3.311771432495989
 30
0.0
 11
14.00000001029252
 21
3.700000000149807
 31
0.0
  0
LINE
  5
71
330
1F
100
AcDbEntity
  8
0
100
AcDbLine
 10
13.79903811596944
 20
2.950000000149735
 30
0.0
 11
13.94888874972624
 21
3.311771432495989
 31
0.0
  0
LINE
  5
72
330
1F
100
AcDbEntity
  8
0
100
AcDbLine
 10
13.56066018207271
 20
2.63933982836987
 30
0.0
 11
13.79903811596944
 21
2.950000000149735
 31
0.0
  0
LINE
  5
73
330
1F
100
AcDbEntity
  8
0
100
AcDbLine
 10
13.25000001029292
 20
2.400961894472908
 30
0.0
 11
13.56066018207271
 21
2.63933982836987
 31
0.0
  0
LINE
  5
74
330
1F
100
AcDbEntity
  8
0
100
AcDbLine
 10
-18.79903809534675
 20
-13.44999999985115
 30
0.0
 11
-18.56066016145001
 21
-13.13933982807125
 31
0.0
  0
LINE
  5
75
330
1F
100
AcDbEntity
  8
0
100
AcDbLine
 10
-18.56066016145001
 20
-13.13933982807125
 30
0.0
 11
-18.24999998967027
 21
-12.90096189417428
 31
0.0
  0
LINE
  5
76
330
1F
100
AcDbEntity
  8
0
100
AcDbLine
 10
11.20096190461565
 20
4.450000000148937
 30
0.0
 11
11.05111127085886
 21
4.088228567802688
 31
0.0
  0
LINE
  5
77
330
1F
100
AcDbEntity
  8
0
100
AcDbLine
 10
25.7764571244637
 20
23.10222253872511
 30
0.0
 11
26.49999998620991
 21
23.40192381335195
 31
0.0
  0
LINE
  5
78
330
1F
100
AcDbEntity
  8
0
100
AcDbLine
 10
24.99999999016102
 20
23.00000000995918
 30
0.0
 11
25.7764571244637
 21
23.10222253872511
 31
0.0
  0
LINE
  5
79
330
1F
100
AcDbEntity
  8
0
100
AcDbLine
 10
24.22354285384859
 20
23.10222252345906
 30
0.0
 11
24.99999999016102
 21
23.00000000995918
 31
0.0
  0
LINE
  5
7A
330
1F
100
AcDbEntity
  8
0
100
AcDbLine
 10
23.49999998620991
 20
23.40192378385985
 30
0.0
 11
24.22354285384859
 21
23.10222252345906
 31
0.0
  0
LINE
  5
7B
330
1F
100
AcDbEntity
  8
0
100
AcDbLine
 10
22.87867963796345
 20
23.87867964554549
 30
0.0
 11
23.49999998620991
 21
23.40192378385985
 31
0.0
  0
LINE
  5
7C
330
1F
100
AcDbEntity
  8
0
100
AcDbLine
 10
22.40192376406177
 20
24.49999998441851
 30
0.0
 11
22.87867963796345
 21
23.87867964554549
 31
0.0
  0
LINE
  5
7D
330
1F
100
AcDbEntity
  8
0
100
AcDbLine
 10
22.10222248943495
 20
25.22354284616508
 30
0.0
 11
22.40192376406177
 21
24.49999998441851
 31
0.0
  0
LINE
  5
7E
330
1F
100
AcDbEntity
  8
0
100
AcDbLine
 10
21.99999996066903
 20
25.99999998046717
 30
0.0
 11
22.10222248943495
 21
25.22354284616508
 31
0.0
  0
LINE
  5
7F
330
1F
100
AcDbEntity
  8
0
100
AcDbLine
 10
-27.89777747887672
 20
26.77645713530086
 30
0.0
 11
-27.5980762113631
 21
27.49999999999336
 31
0.0
  0
LINE
  5
80
330
1F
100
AcDbEntity
  8
0
100
AcDbLine
 10
-27.5980762113631
 20
27.49999999999336
 30
0.0
 11
-27.1213203435696
 21
28.12132034355318
 31
0.0
  0
LINE
  5
81
330
1F
100
AcDbEntity
  8
0
100
AcDbLine
 10
-27.1213203435696
 20
28.12132034355318
 30
0.0
 11
-26.50000000001007
 21
28.59807621134692
 31
0.0
  0
LINE
  5
82
330
1F
100
AcDbEntity
  8
0
100
AcDbLine
 10
-26.50000000001007
 20
28.59807621134692
 30
0.0
 11
-25.77645713531772
 21
28.897777478861
 31
0.0
  0
LINE
  5
83
330
1F
100
AcDbEntity
  8
0
100
AcDbLine
 10
-25.77645713531772
 20
28.897777478861
 30
0.0
 11
-25.00000000001019
 21
28.99999999999406
 31
0.0
  0
LINE
  5
84
330
1F
100
AcDbEntity
  8
0
100
AcDbLine
 10
-25.00000000001019
 20
28.99999999999406
 30
0.0
 11
-24.22354286470258
 21
28.89777747886146
 31
0.0
  0
LINE
  5
85
330
1F
100
AcDbEntity
  8
0
100
AcDbLine
 10
-24.22354286470258
 20
28.89777747886146
 30
0.0
 11
-23.50000000001008
 21
28.59807621134782
 31
0.0
  0
LINE
  5
86
330
1F
100
AcDbEntity
  8
0
100
AcDbLine
 10
-23.50000000001008
 20
28.59807621134782
 30
0.0
 11
-22.87867965645033
 21
28.12132034355443
 31
0.0
  0
LINE
  5
87
330
1F
100
AcDbEntity
  8
0
100
AcDbLine
 10
-22.87867965645033
 20
28.12132034355443
 30
0.0
 11
-22.40192378865647
 21
27.49999999999495
 31
0.0
  0
LINE
  5
88
330
1F
100
AcDbEntity
  8
0
100
AcDbLine
 10
-22.40192378865647
 20
27.49999999999495
 30
0.0
 11
-22.10222252114233
 21
26.77645713530258
 31
0.0
  0
LINE
  5
89
330
1F
100
AcDbEntity
  8
0
100
AcDbLine
 10
-22.10222252114233
 20
26.77645713530258
 30
0.0
 11
-22.00000000000933
 21
25.99999999999506
 31
0.0
  0
LINE
  5
8A
330
1F
100
AcDbEntity
  8
0
100
AcDbLine
 10
-22.00000000000933
 20
25.99999999999506
 30
0.0
 11
-22.10222252114189
 21
25.22354286468747
 31
0.0
  0
LINE
  5
8B
330
1F
100
AcDbEntity
  8
0
100
AcDbLine
 10
-22.10222252114189
 20
25.22354286468747
 30
0.0
 11
-22.40192378865554
 21
24.49999999999496
 31
0.0
  0
LINE
  5
8C
330
1F
100
AcDbEntity
  8
0
100
AcDbLine
 10
-22.40192378865554
 20
24.49999999999496
 30
0.0
 11
-22.87867965644901
 21
23.87867965643514
 31
0.0
  0
LINE
  5
8D
330
1F
100
AcDbEntity
  8
0
100
AcDbLine
 10
-22.87867965644901
 20
23.87867965643514
 30
0.0
 11
-23.50000000000854
 21
23.40192378864131
 31
0.0
  0
LINE
  5
8E
330
1F
100
AcDbEntity
  8
0
100
AcDbLine
 10
-23.50000000000854
 20
23.40192378864131
 30
0.0
 11
-24.22354286470089
 21
23.10222252112719
 31
0.0
  0
LINE
  5
8F
330
1F
100
AcDbEntity
  8
0
100
AcDbLine
 10
-24.22354286470089
 20
23.10222252112719
 30
0.0
 11
-25.00000000000866
 21
22.99999999999416
 31
0.0
  0
LINE
  5
90
330
1F
100
AcDbEntity
  8
0
100
AcDbLine
 10
-25.00000000000866
 20
22.99999999999416
 30
0.0
 11
-25.776457135316
 21
23.10222252112672
 31
0.0
  0
LINE
  5
91
330
1F
100
AcDbEntity
  8
0
100
AcDbLine
 10
-25.776457135316
 20
23.10222252112672
 30
0.0
 11
-26.50000000000853
 21
23.40192378864041
 31
0.0
  0
LINE
  5
92
330
1F
100
AcDbEntity
  8
0
100
AcDbLine
 10
-26.50000000000853
 20
23.40192378864041
 30
0.0
 11
-27.12132034356828
 21
23.87867965643389
 31
0.0
  0
LINE
  5
93
330
1F
100
AcDbEntity
  8
0
100
AcDbLine
 10
-27.12132034356828
 20
23.87867965643389
 30
0.0
 11
-27.59807621136214
 21
24.49999999999337
 31
0.0
  0
LINE
  5
94
330
1F
100
AcDbEntity
  8
0
100
AcDbLine
 10
-27.59807621136214
 20
24.49999999999337
 30
0.0
 11
-27.89777747887628
 21
25.22354286468574
 31
0.0
  0
LINE
  5
95
330
1F
100
AcDbEntity
  8
0
100
AcDbLine
 10
-27.89777747887628
 20
25.22354286468574
 30
0.0
 11
-28.00000000000932
 21
25.99999999999327
 31
0.0
  0
LINE
  5
96
330
1F
100
AcDbEntity
  8
0
100
AcDbLine
 10
-13.24999998970685
 20
4.999038105825532
 30
0.0
 11
-13.56066016148664
 21
4.760660171928564
 31
0.0
  0
LINE
  5
97
330
1F
100
AcDbEntity
  8
0
100
AcDbLine
 10
-12.88822855736066
 20
5.148888739582524
 30
0.0
 11
-13.24999998970685
 21
4.999038105825532
 31
0.0
  0
LINE
  5
98
330
1F
100
AcDbEntity
  8
0
100
AcDbLine
 10
-12.49999998970695
 20
5.200000000149099
 30
0.0
 11
-12.88822855736066
 21
5.148888739582524
 31
0.0
  0
LINE
  5
99
330
1F
100
AcDbEntity
  8
0
100
AcDbLine
 10
-12.11177142205311
 20
5.148888739582794
 30
0.0
 11
-12.49999998970695
 21
5.200000000149099
 31
0.0
  0
LINE
  5
9A
330
1F
100
AcDbEntity
  8
0
100
AcDbLine
 10
-11.74999998970686
 20
4.999038105825972
 30
0.0
 11
-12.11177142205311
 21
5.148888739582794
 31
0.0
  0
LINE
  5
9B
330
1F
100
AcDbEntity
  8
0
100
AcDbLine
 10
-11.43933981792699
 20
4.760660171929197
 30
0.0
 11
-11.74999998970686
 21
4.999038105825972
 31
0.0
  0
LINE
  5
9C
330
1F
100
AcDbEntity
  8
0
100
AcDbLine
 10
-11.20096188403007
 20
4.450000000149427
 30
0.0
 11
-11.43933981792699
 21
4.760660171929197
 31
0.0
  0
LINE
  5
9D
330
1F
100
AcDbEntity
  8
0
100
AcDbLine
 10
-11.05111125027297
 20
4.088228567803264
 30
0.0
 11
-11.20096188403007
 21
4.450000000149427
 31
0.0
  0
LINE
  5
9E
330
1F
100
AcDbEntity
  8
0
100
AcDbLine
 10
-10.9999999897065
 20
3.700000000149525
 30
0.0
 11
-11.05111125027297
 21
4.088228567803264
 31
0.0
  0
LINE
  5
9F
330
1F
100
AcDbEntity
  8
0
100
AcDbLine
 10
4.596194077704375
 20
21.40380592229035
 30
0.0
 11
3.249999999992634
 21
20.37083487540392
 31
0.0
  0
LINE
  5
A0
330
1F
100
AcDbEntity
  8
0
100
AcDbLine
 10
1.68232379315875
 20
19.72148212912387
 30
0.0
 11
-0.0000000000073376
 21
19.50000000000202
 31
0.0
  0
LINE
  5
A1
330
1F
100
AcDbEntity
  8
0
100
AcDbLine
 10
-0.0000000000073376
 20
19.50000000000202
 30
0.0
 11
-1.682323793173741
 21
19.72148212912251
 31
0.0
  0
LINE
  5
A2
330
1F
100
AcDbEntity
  8
0
100
AcDbLine
 10
-1.682323793173741
 20
19.72148212912251
 30
0.0
 11
-3.250000000007377
 21
20.3708348754019
 31
0.0
  0
LINE
  5
A3
330
1F
100
AcDbEntity
  8
0
100
AcDbLine
 10
-3.250000000007377
 20
20.3708348754019
 30
0.0
 11
-4.596194077720378
 21
21.40380592228775
 31
0.0
  0
LINE
  5
A4
330
1F
100
AcDbEntity
  8
0
100
AcDbLine
 10
-4.596194077720378
 20
21.40380592228775
 30
0.0
 11
-5.629165124606788
 21
22.75000000000021
 31
0.0
  0
LINE
  5
A5
330
1F
100
AcDbEntity
  8
0
100
AcDbLine
 10
-5.629165124606788
 20
22.75000000000021
 30
0.0
 11
-6.278517870887387
 21
24.31767620683336
 31
0.0
  0
LINE
  5
A6
330
1F
100
AcDbEntity
  8
0
100
AcDbLine
 10
-6.278517870887387
 20
24.31767620683336
 30
0.0
 11
-6.500000000009033
 21
25.99999999999951
 31
0.0
  0
LINE
  5
A7
330
1F
100
AcDbEntity
  8
0
100
AcDbLine
 10
31.16025403783181
 20
37.50000000001076
 30
0.0
 11
29.57106781185227
 21
39.57106781187565
 31
0.0
  0
LINE
  5
A8
330
1F
100
AcDbEntity
  8
0
100
AcDbLine
 10
29.57106781185227
 20
39.57106781187565
 30
0.0
 11
27.49999999998634
 21
41.16025403785389
 31
0.0
  0
LINE
  5
A9
330
1F
100
AcDbEntity
  8
0
100
AcDbLine
 10
27.49999999998634
 20
41.16025403785389
 30
0.0
 11
25.08819045101125
 21
42.1592582628994
 31
0.0
  0
LINE
  5
AA
330
1F
100
AcDbEntity
  8
0
100
AcDbLine
 10
25.08819045101125
 20
42.1592582628994
 30
0.0
 11
22.49999999998597
 21
42.50000000000797
 31
0.0
  0
LINE
  5
AB
330
1F
100
AcDbEntity
  8
0
100
AcDbLine
 10
32.49999999998877
 20
32.50000000001126
 30
0.0
 11
32.15925826287872
 21
35.08819045103614
 31
0.0
  0
LINE
  5
AC
330
1F
100
AcDbEntity
  8
0
100
AcDbLine
 10
32.15925826287872
 20
35.08819045103614
 30
0.0
 11
31.16025403783181
 21
37.50000000001076
 31
0.0
  0
LINE
  5
AD
330
1F
100
AcDbEntity
  8
0
100
AcDbLine
 10
-6.500000000009033
 20
25.99999999999951
 30
0.0
 11
-6.278517870888447
 21
27.68232379316591
 31
0.0
  0
LINE
  5
AE
330
1F
100
AcDbEntity
  8
0
100
AcDbLine
 10
-6.278517870888447
 20
27.68232379316591
 30
0.0
 11
-5.629165124608974
 21
29.24999999999969
 31
0.0
  0
LINE
  5
AF
330
1F
100
AcDbEntity
  8
0
100
AcDbLine
 10
-5.629165124608974
 20
29.24999999999969
 30
0.0
 11
-4.596194077723241
 21
30.59619407771261
 31
0.0
  0
LINE
  5
B0
330
1F
100
AcDbEntity
  8
0
100
AcDbLine
 10
-4.596194077723241
 20
30.59619407771261
 30
0.0
 11
-3.250000000011197
 21
31.62916512459937
 31
0.0
  0
LINE
  5
B1
330
1F
100
AcDbEntity
  8
0
100
AcDbLine
 10
-3.250000000011197
 20
31.62916512459937
 30
0.0
 11
-1.682323793177716
 21
32.27851787088015
 31
0.0
  0
LINE
  5
B2
330
1F
100
AcDbEntity
  8
0
100
AcDbLine
 10
6.499999999990637
 20
26.00000000000327
 30
0.0
 11
6.278517870870052
 21
24.31767620683682
 31
0.0
  0
LINE
  5
B3
330
1F
100
AcDbEntity
  8
0
100
AcDbLine
 10
6.278517870870052
 20
24.31767620683682
 30
0.0
 11
5.629165124590521
 21
22.75000000000321
 31
0.0
  0
LINE
  5
B4
330
1F
100
AcDbEntity
  8
0
100
AcDbLine
 10
5.629165124590521
 20
22.75000000000321
 30
0.0
 11
4.596194077704375
 21
21.40380592229035
 31
0.0
  0
LINE
  5
B5
330
1F
100
AcDbEntity
  8
0
100
AcDbLine
 10
-32.5000000000113
 20
32.49999999999158
 30
0.0
 11
-32.15925826290302
 21
35.08819045101738
 31
0.0
  0
LINE
  5
B6
330
1F
100
AcDbEntity
  8
0
100
AcDbLine
 10
-1.682323793177716
 20
32.27851787088015
 30
0.0
 11
-0.000000000011332
 21
32.50000000000188
 31
0.0
  0
LINE
  5
B7
330
1F
100
AcDbEntity
  8
0
100
AcDbLine
 10
-0.000000000011332
 20
32.50000000000188
 30
0.0
 11
1.682323793155253
 21
32.27851787088172
 31
0.0
  0
LINE
  5
B8
330
1F
100
AcDbEntity
  8
0
100
AcDbLine
 10
1.682323793155253
 20
32.27851787088172
 30
0.0
 11
3.249999999989148
 21
31.6291651246015
 31
0.0
  0
LINE
  5
B9
330
1F
100
AcDbEntity
  8
0
100
AcDbLine
 10
3.249999999989148
 20
31.6291651246015
 30
0.0
 11
4.596194077702216
 21
30.59619407771572
 31
0.0
  0
LINE
  5
BA
330
1F
100
AcDbEntity
  8
0
100
AcDbLine
 10
4.596194077702216
 20
30.59619407771572
 30
0.0
 11
5.629165124588903
 21
29.25000000000341
 31
0.0
  0
LINE
  5
BB
330
1F
100
AcDbEntity
  8
0
100
AcDbLine
 10
5.629165124588903
 20
29.25000000000341
 30
0.0
 11
6.278517870869369
 21
27.68232379316995
 31
0.0
  0
LINE
  5
BC
330
1F
100
AcDbEntity
  8
0
100
AcDbLine
 10
6.278517870869369
 20
27.68232379316995
 30
0.0
 11
6.499999999990637
 21
26.00000000000327
 31
0.0
  0
LINE
  5
BD
330
1F
100
AcDbEntity
  8
0
100
AcDbLine
 10
27.59807618676839
 20
24.50000003550002
 30
0.0
 11
27.89777744716936
 21
25.22354290313874
 31
0.0
  0
LINE
  5
BE
330
1F
100
AcDbEntity
  8
0
100
AcDbLine
 10
27.89777744716936
 20
25.22354290313874
 30
0.0
 11
27.99999996066902
 21
26.00000003945123
 31
0.0
  0
LINE
  5
BF
330
1F
100
AcDbEntity
  8
0
100
AcDbLine
 10
27.99999996066902
 20
26.00000003945123
 30
0.0
 11
27.89777743190315
 21
26.77645717375385
 31
0.0
  0
LINE
  5
C0
330
1F
100
AcDbEntity
  8
0
100
AcDbLine
 10
27.89777743190315
 20
26.77645717375385
 30
0.0
 11
27.59807615727634
 21
27.50000003550001
 31
0.0
  0
LINE
  5
C1
330
1F
100
AcDbEntity
  8
0
100
AcDbLine
 10
27.59807615727634
 20
27.50000003550001
 30
0.0
 11
27.12132028337464
 21
28.12132037437303
 31
0.0
  0
LINE
  5
C2
330
1F
100
AcDbEntity
  8
0
100
AcDbLine
 10
27.12132028337464
 20
28.12132037437303
 30
0.0
 11
26.49999993512819
 21
28.59807623605851
 31
0.0
  0
LINE
  5
C3
330
1F
100
AcDbEntity
  8
0
100
AcDbLine
 10
26.49999993512819
 20
28.59807623605851
 30
0.0
 11
25.7764570674895
 21
28.89777749645934
 31
0.0
  0
LINE
  5
C4
330
1F
100
AcDbEntity
  8
0
100
AcDbLine
 10
25.7764570674895
 20
28.89777749645934
 30
0.0
 11
24.99999993117702
 21
29.00000000995908
 31
0.0
  0
LINE
  5
C5
330
1F
100
AcDbEntity
  8
0
100
AcDbLine
 10
24.99999993117702
 20
29.00000000995908
 30
0.0
 11
24.22354279687438
 21
28.89777748119329
 31
0.0
  0
LINE
  5
C6
330
1F
100
AcDbEntity
  8
0
100
AcDbLine
 10
24.22354279687438
 20
28.89777748119329
 30
0.0
 11
23.49999993512819
 21
28.59807620656636
 31
0.0
  0
LINE
  5
C7
330
1F
100
AcDbEntity
  8
0
100
AcDbLine
 10
12.11177144263918
 20
2.251111260715595
 30
0.0
 11
12.50000001029302
 21
2.200000000149432
 31
0.0
  0
LINE
  5
C8
330
1F
100
AcDbEntity
  8
0
100
AcDbLine
 10
11.75000001029292
 20
2.400961894472598
 30
0.0
 11
12.11177144263918
 21
2.251111260715595
 31
0.0
  0
LINE
  5
C9
330
1F
100
AcDbEntity
  8
0
100
AcDbLine
 10
11.43933983851306
 20
2.639339828369379
 30
0.0
 11
11.75000001029292
 21
2.400961894472598
 31
0.0
  0
LINE
  5
CA
330
1F
100
AcDbEntity
  8
0
100
AcDbLine
 10
11.20096190461614
 20
2.950000000148962
 30
0.0
 11
11.43933983851306
 21
2.639339828369379
 31
0.0
  0
LINE
  5
CB
330
1F
100
AcDbEntity
  8
0
100
AcDbLine
 10
11.05111127085904
 20
3.311771432495132
 30
0.0
 11
11.20096190461614
 21
2.950000000148962
 31
0.0
  0
LINE
  5
CC
330
1F
100
AcDbEntity
  8
0
100
AcDbLine
 10
11.00000001029253
 20
3.70000000014887
 30
0.0
 11
11.05111127085904
 21
3.311771432495132
 31
0.0
  0
LINE
  5
CD
330
1F
100
AcDbEntity
  8
0
100
AcDbLine
 10
11.05111127085886
 20
4.088228567802688
 30
0.0
 11
11.00000001029253
 21
3.70000000014887
 31
0.0
  0
LINE
  5
CE
330
1F
100
AcDbEntity
  8
0
100
AcDbLine
 10
17.88822857798409
 20
-15.64888873928625
 30
0.0
 11
18.25000001033028
 21
-15.49903810552922
 31
0.0
  0
LINE
  5
CF
330
1F
100
AcDbEntity
  8
0
100
AcDbLine
 10
17.50000001033037
 20
-15.69999999985274
 30
0.0
 11
17.88822857798409
 21
-15.64888873928625
 31
0.0
  0
LINE
  5
D0
330
1F
100
AcDbEntity
  8
0
100
AcDbLine
 10
17.11177144267653
 20
-15.64888873928652
 30
0.0
 11
17.50000001033037
 21
-15.69999999985274
 31
0.0
  0
LINE
  5
D1
330
1F
100
AcDbEntity
  8
0
100
AcDbLine
 10
16.75000001033028
 20
-15.49903810552966
 30
0.0
 11
17.11177144267653
 21
-15.64888873928652
 31
0.0
  0
LINE
  5
D2
330
1F
100
AcDbEntity
  8
0
100
AcDbLine
 10
16.43933983855037
 20
-15.26066017163288
 30
0.0
 11
16.75000001033028
 21
-15.49903810552966
 31
0.0
  0
LINE
  5
D3
330
1F
100
AcDbEntity
  8
0
100
AcDbLine
 10
16.20096190465345
 20
-14.94999999985315
 30
0.0
 11
16.43933983855037
 21
-15.26066017163288
 31
0.0
  0
LINE
  5
D4
330
1F
100
AcDbEntity
  8
0
100
AcDbLine
 10
16.05111127089639
 20
-14.58822856750699
 30
0.0
 11
16.20096190465345
 21
-14.94999999985315
 31
0.0
  0
LINE
  5
D5
330
1F
100
AcDbEntity
  8
0
100
AcDbLine
 10
16.00000001032988
 20
-14.19999999985321
 30
0.0
 11
16.05111127089639
 21
-14.58822856750699
 31
0.0
  0
LINE
  5
D6
330
1F
100
AcDbEntity
  8
0
100
AcDbLine
 10
16.05111127089616
 20
-13.81177143219943
 30
0.0
 11
16.00000001032988
 21
-14.19999999985321
 31
0.0
  0
LINE
  5
D7
330
1F
100
AcDbEntity
  8
0
100
AcDbLine
 10
16.20096190465301
 20
-13.44999999985318
 30
0.0
 11
16.05111127089616
 21
-13.81177143219943
 31
0.0
  0
LINE
  5
D8
330
1F
100
AcDbEntity
  8
0
100
AcDbLine
 10
16.43933983854974
 20
-13.13933982807328
 30
0.0
 11
16.20096190465301
 21
-13.44999999985318
 31
0.0
  0
LINE
  5
D9
330
1F
100
AcDbEntity
  8
0
100
AcDbLine
 10
16.75000001032948
 20
-12.90096189417631
 30
0.0
 11
16.43933983854974
 21
-13.13933982807328
 31
0.0
  0
LINE
  5
DA
330
1F
100
AcDbEntity
  8
0
100
AcDbLine
 10
17.11177144267567
 20
-12.75111126041932
 30
0.0
 11
16.75000001032948
 21
-12.90096189417631
 31
0.0
  0
LINE
  5
DB
330
1F
100
AcDbEntity
  8
0
100
AcDbLine
 10
17.50000001032942
 20
-12.69999999985279
 30
0.0
 11
17.11177144267567
 21
-12.75111126041932
 31
0.0
  0
LINE
  5
DC
330
1F
100
AcDbEntity
  8
0
100
AcDbLine
 10
17.88822857798323
 20
-12.75111126041904
 30
0.0
 11
17.50000001032942
 21
-12.69999999985279
 31
0.0
  0
LINE
  5
DD
330
1F
100
AcDbEntity
  8
0
100
AcDbLine
 10
18.25000001032948
 20
-12.90096189417587
 30
0.0
 11
17.88822857798323
 21
-12.75111126041904
 31
0.0
  0
LINE
  5
DE
330
1F
100
AcDbEntity
  8
0
100
AcDbLine
 10
18.56066018210942
 20
-13.13933982807264
 30
0.0
 11
18.25000001032948
 21
-12.90096189417587
 31
0.0
  0
LINE
  5
DF
330
1F
100
AcDbEntity
  8
0
100
AcDbLine
 10
18.79903811600634
 20
-13.44999999985241
 30
0.0
 11
18.56066018210942
 21
-13.13933982807264
 31
0.0
  0
LINE
  5
E0
330
1F
100
AcDbEntity
  8
0
100
AcDbLine
 10
18.9488887497634
 20
-13.81177143219858
 30
0.0
 11
18.79903811600634
 21
-13.44999999985241
 31
0.0
  0
LINE
  5
E1
330
1F
100
AcDbEntity
  8
0
100
AcDbLine
 10
19.00000001032991
 20
-14.19999999985232
 30
0.0
 11
18.9488887497634
 21
-13.81177143219858
 31
0.0
  0
LINE
  5
E2
330
1F
100
AcDbEntity
  8
0
100
AcDbLine
 10
18.94888874976363
 20
-14.58822856750613
 30
0.0
 11
19.00000001032991
 21
-14.19999999985232
 31
0.0
  0
LINE
  5
E3
330
1F
100
AcDbEntity
  8
0
100
AcDbLine
 10
-32.49999999998904
 20
-42.50000000000846
 30
0.0
 11
-32.5000000000113
 21
32.49999999999158
 31
0.0
  0
LINE
  5
E4
330
1F
100
AcDbEntity
  8
0
100
AcDbLine
 10
32.50000000001107
 20
-42.49999999998911
 30
0.0
 11
-32.49999999998904
 21
-42.50000000000846
 31
0.0
  0
LINE
  5
E5
330
1F
100
AcDbEntity
  8
0
100
AcDbLine
 10
32.49999999998877
 20
32.50000000001126
 30
0.0
 11
32.50000000001107
 21
-42.49999999998911
 31
0.0
  0
LINE
  5
E6
330
1F
100
AcDbEntity
  8
0
100
AcDbLine
 10
-22.5000000000142
 20
42.49999999999453
 30
0.0
 11
22.49999999998597
 21
42.50000000000797
 31
0.0
  0
LINE
  5
E7
330
1F
100
AcDbEntity
  8
0
100
AcDbLine
 10
3.249999999992634
 20
20.37083487540392
 30
0.0
 11
1.68232379315875
 21
19.72148212912387
 31
0.0
  0
LINE
  5
E8
330
1F
100
AcDbEntity
  8
0
100
AcDbLine
 10
-11.05111125027278
 20
3.311771432495707
 30
0.0
 11
-10.9999999897065
 21
3.700000000149525
 31
0.0
  0
LINE
  5
E9
330
1F
100
AcDbEntity
  8
0
100
AcDbLine
 10
-11.20096188402958
 20
2.950000000149453
 30
0.0
 11
-11.05111125027278
 21
3.311771432495707
 31
0.0
  0
LINE
  5
EA
330
1F
100
AcDbEntity
  8
0
100
AcDbLine
 10
-11.43933981792632
 20
2.639339828369593
 30
0.0
 11
-11.20096188402958
 21
2.950000000149453
 31
0.0
  0
LINE
  5
EB
330
1F
100
AcDbEntity
  8
0
100
AcDbLine
 10
-11.74999998970611
 20
2.400961894472626
 30
0.0
 11
-11.43933981792632
 21
2.639339828369593
 31
0.0
  0
LINE
  5
EC
330
1F
100
AcDbEntity
  8
0
100
AcDbLine
 10
-12.11177142205229
 20
2.251111260715589
 30
0.0
 11
-11.74999998970611
 21
2.400961894472626
 31
0.0
  0
LINE
  5
ED
330
1F
100
AcDbEntity
  8
0
100
AcDbLine
 10
-12.49999998970601
 20
2.20000000014906
 30
0.0
 11
-12.11177142205229
 21
2.251111260715589
 31
0.0
  0
LINE
  5
EE
330
1F
100
AcDbEntity
  8
0
100
AcDbLine
 10
-12.88822855735985
 20
2.251111260715319
 30
0.0
 11
-12.49999998970601
 21
2.20000000014906
 31
0.0
  0
LINE
  5
EF
330
1F
100
AcDbEntity
  8
0
100
AcDbLine
 10
-13.24999998970611
 20
2.400961894472186
 30
0.0
 11
-12.88822855735985
 21
2.251111260715319
 31
0.0
  0
LINE
  5
F0
330
1F
100
AcDbEntity
  8
0
100
AcDbLine
 10
-13.56066016148597
 20
2.639339828368962
 30
0.0
 11
-13.24999998970611
 21
2.400961894472186
 31
0.0
  0
LINE
  5
F1
330
1F
100
AcDbEntity
  8
0
100
AcDbLine
 10
-13.79903809538288
 20
2.950000000148686
 30
0.0
 11
-13.56066016148597
 21
2.639339828368962
 31
0.0
  0
LINE
  5
F2
330
1F
100
AcDbEntity
  8
0
100
AcDbLine
 10
-13.94888872913999
 20
3.31177143249485
 30
0.0
 11
-13.79903809538288
 21
2.950000000148686
 31
0.0
  0
LINE
  5
F3
330
1F
100
AcDbEntity
  8
0
100
AcDbLine
 10
-13.9999999897065
 20
3.700000000148634
 30
0.0
 11
-13.94888872913999
 21
3.31177143249485
 31
0.0
  0
LINE
  5
F4
330
1F
100
AcDbEntity
  8
0
100
AcDbLine
 10
-13.94888872914017
 20
4.088228567802407
 30
0.0
 11
-13.9999999897065
 21
3.700000000148634
 31
0.0
  0
LINE
  5
F5
330
1F
100
AcDbEntity
  8
0
100
AcDbLine
 10
-13.79903809538338
 20
4.450000000148661
 30
0.0
 11
-13.94888872914017
 21
4.088228567802407
 31
0.0
  0
LINE
  5
F6
330
1F
100
AcDbEntity
  8
0
100
AcDbLine
 10
-28.00000000000932
 20
25.99999999999327
 30
0.0
 11
-27.89777747887672
 21
26.77645713530086
 31
0.0
  0
LINE
  5
F7
330
1F
100
AcDbEntity
  8
0
100
AcDbLine
 10
-25.0881904510394
 20
42.15925826288461
 30
0.0
 11
-22.5000000000142
 21
42.49999999999453
 31
0.0
  0
LINE
  5
F8
330
1F
100
AcDbEntity
  8
0
100
AcDbLine
 10
-27.50000000001383
 20
41.16025403783767
 30
0.0
 11
-25.0881904510394
 21
42.15925826288461
 31
0.0
  0
LINE
  5
F9
330
1F
100
AcDbEntity
  8
0
100
AcDbLine
 10
-29.57106781187896
 20
39.57106781185839
 30
0.0
 11
-27.50000000001383
 21
41.16025403783767
 31
0.0
  0
LINE
  5
FA
330
1F
100
AcDbEntity
  8
0
100
AcDbLine
 10
-31.16025403785737
 20
37.49999999999248
 30
0.0
 11
-29.57106781187896
 21
39.57106781185839
 31
0.0
  0
LINE
  5
FB
330
1F
100
AcDbEntity
  8
0
100
AcDbLine
 10
-32.15925826290302
 20
35.08819045101738
 30
0.0
 11
-31.16025403785737
 21
37.49999999999248
 31
0.0
  0
LINE
  5
FC
330
1F
100
AcDbEntity
  8
0
100
AcDbLine
 10
22.10222247416874
 20
26.77645711678019
 30
0.0
 11
21.99999996066903
 21
25.99999998046717
 31
0.0
  0
LINE
  5
FD
330
1F
100
AcDbEntity
  8
0
100
AcDbLine
 10
22.40192373456969
 20
27.49999998441846
 30
0.0
 11
22.10222247416874
 21
26.77645711678019
 31
0.0
  0
LINE
  5
FE
330
1F
100
AcDbEntity
  8
0
100
AcDbLine
 10
22.87867959625538
 20
28.12132033266478
 30
0.0
 11
22.40192373456969
 21
27.49999998441846
 31
0.0
  0
LINE
  5
FF
330
1F
100
AcDbEntity
  8
0
100
AcDbLine
 10
23.49999993512819
 20
28.59807620656636
 30
0.0
 11
22.87867959625538
 21
28.12132033266478
 31
0.0
  0
LINE
  5
100
330
1F
100
AcDbEntity
  8
0
100
AcDbLine
 10
27.12132032508272
 20
23.87867968725374
 30
0.0
 11
27.59807618676839
 21
24.50000003550002
 31
0.0
  0
LINE
  5
101
330
1F
100
AcDbEntity
  8
0
100
AcDbLine
 10
26.49999998620991
 20
23.40192381335195
 30
0.0
 11
27.12132032508272
 21
23.87867968725374
 31
0.0
  0
LINE
  5
102
330
1F
100
AcDbEntity
  8
0
100
AcDbLine
 10
-13.56066016148664
 20
4.760660171928564
 30
0.0
 11
-13.79903809538338
 21
4.450000000148661
 31
0.0
  0
LINE
  5
103
330
1F
100
AcDbEntity
  8
0
100
AcDbLine
 10
-18.24999998967027
 20
-12.90096189417428
 30
0.0
 11
-17.88822855732408
 21
-12.75111126041729
 31
0.0
  0
LINE
  5
104
330
1F
100
AcDbEntity
  8
0
100
AcDbLine
 10
-17.88822855732408
 20
-12.75111126041729
 30
0.0
 11
-17.49999998967052
 21
-12.69999999985071
 31
0.0
  0
LINE
  5
105
330
1F
100
AcDbEntity
  8
0
100
AcDbLine
 10
-17.49999998967052
 20
-12.69999999985071
 30
0.0
 11
-17.11177142201652
 21
-12.75111126041701
 31
0.0
  0
LINE
  5
106
330
1F
100
AcDbEntity
  8
0
100
AcDbLine
 10
-16.05111125023639
 20
-13.81177143219655
 30
0.0
 11
-15.99999998966988
 21
-14.19999999985028
 31
0.0
  0
LINE
  5
107
330
1F
100
AcDbEntity
  8
0
100
AcDbLine
 10
-15.99999998966988
 20
-14.19999999985028
 30
0.0
 11
-16.05111125023616
 21
-14.5882285675041
 31
0.0
  0
LINE
  5
108
330
1F
100
AcDbEntity
  8
0
100
AcDbLine
 10
-16.05111125023616
 20
-14.5882285675041
 30
0.0
 11
-16.200961883993
 21
-14.94999999985036
 31
0.0
  0
LINE
  5
109
330
1F
100
AcDbEntity
  8
0
100
AcDbLine
 10
-16.200961883993
 20
-14.94999999985036
 30
0.0
 11
-16.43933981788973
 21
-15.26066017163022
 31
0.0
  0
LINE
  5
10A
330
1F
100
AcDbEntity
  8
0
100
AcDbLine
 10
-16.43933981788973
 20
-15.26066017163022
 30
0.0
 11
-16.74999998966948
 21
-15.49903810552718
 31
0.0
  0
LINE
  5
10B
330
1F
100
AcDbEntity
  8
0
100
AcDbLine
 10
-16.74999998966948
 20
-15.49903810552718
 30
0.0
 11
-17.11177142201567
 21
-15.64888873928422
 31
0.0
  0
LINE
  5
10C
330
1F
100
AcDbEntity
  8
0
100
AcDbLine
 10
-17.11177142201567
 20
-15.64888873928422
 30
0.0
 11
-17.49999998966938
 21
-15.69999999985075
 31
0.0
  0
LINE
  5
10D
330
1F
100
AcDbEntity
  8
0
100
AcDbLine
 10
-17.49999998966938
 20
-15.69999999985075
 30
0.0
 11
-17.88822855732322
 21
-15.64888873928449
 31
0.0
  0
LINE
  5
10E
330
1F
100
AcDbEntity
  8
0
100
AcDbLine
 10
-17.88822855732322
 20
-15.64888873928449
 30
0.0
 11
-18.24999998966948
 21
-15.49903810552763
 31
0.0
  0
LINE
  5
10F
330
1F
100
AcDbEntity
  8
0
100
AcDbLine
 10
-18.24999998966948
 20
-15.49903810552763
 30
0.0
 11
-18.56066016144938
 21
-15.26066017163085
 31
0.0
  0
LINE
  5
110
330
1F
100
AcDbEntity
  8
0
100
AcDbLine
 10
-18.56066016144938
 20
-15.26066017163085
 30
0.0
 11
-18.7990380953463
 21
-14.94999999985112
 31
0.0
  0
LINE
  5
111
330
1F
100
AcDbEntity
  8
0
100
AcDbLine
 10
-18.7990380953463
 20
-14.94999999985112
 30
0.0
 11
-18.94888872910336
 21
-14.58822856750496
 31
0.0
  0
LINE
  5
112
330
1F
100
AcDbEntity
  8
0
100
AcDbLine
 10
-18.94888872910336
 20
-14.58822856750496
 30
0.0
 11
-18.99999998966987
 21
-14.19999999985131
 31
0.0
  0
LINE
  5
113
330
1F
100
AcDbEntity
  8
0
100
AcDbLine
 10
-18.99999998966987
 20
-14.19999999985131
 30
0.0
 11
-18.94888872910359
 21
-13.8117714321974
 31
0.0
  0
LINE
  5
114
330
1F
100
AcDbEntity
  8
0
100
AcDbLine
 10
-18.94888872910359
 20
-13.8117714321974
 30
0.0
 11
-18.79903809534675
 21
-13.44999999985115
 31
0.0
  0
LINE
  5
115
330
1F
100
AcDbEntity
  8
0
100
AcDbLine
 10
11.43933983851239
 20
4.760660171928982
 30
0.0
 11
11.20096190461565
 21
4.450000000148937
 31
0.0
  0
LINE
  5
116
330
1F
100
AcDbEntity
  8
0
100
AcDbLine
 10
11.75000001029218
 20
4.999038105825944
 30
0.0
 11
11.43933983851239
 21
4.760660171928982
 31
0.0
  0
LINE
  5
117
330
1F
100
AcDbEntity
  8
0
100
AcDbLine
 10
12.11177144263837
 20
5.1488887395828
 30
0.0
 11
11.75000001029218
 21
4.999038105825944
 31
0.0
  0
LINE
  5
118
330
1F
100
AcDbEntity
  8
0
100
AcDbLine
 10
12.50000001029208
 20
5.200000000149471
 30
0.0
 11
12.11177144263837
 21
5.1488887395828
 31
0.0
  0
LINE
  5
119
330
1F
100
AcDbEntity
  8
0
100
AcDbLine
 10
12.88822857794592
 20
5.148888739583076
 30
0.0
 11
12.50000001029208
 21
5.200000000149471
 31
0.0
  0
LINE
  5
11A
330
1F
100
AcDbEntity
  8
0
100
AcDbLine
 10
13.25000001029218
 20
4.999038105826254
 30
0.0
 11
12.88822857794592
 21
5.148888739583076
 31
0.0
  0
LINE
  5
11B
330
1F
100
AcDbEntity
  8
0
100
AcDbLine
 10
13.56066018207204
 20
4.760660171929473
 30
0.0
 11
13.25000001029218
 21
4.999038105826254
 31
0.0
  0
LINE
  5
11C
330
1F
100
AcDbEntity
  8
0
100
AcDbLine
 10
13.79903811596895
 20
4.45000000014971
 30
0.0
 11
13.56066018207204
 21
4.760660171929473
 31
0.0
  0
LINE
  5
11D
330
1F
100
AcDbEntity
  8
0
100
AcDbLine
 10
13.94888874972606
 20
4.088228567803545
 30
0.0
 11
13.79903811596895
 21
4.45000000014971
 31
0.0
  0
LINE
  5
11E
330
1F
100
AcDbEntity
  8
0
100
AcDbLine
 10
14.00000001029252
 20
3.700000000149807
 30
0.0
 11
13.94888874972606
 21
4.088228567803545
 31
0.0
  0
LINE
  5
11F
330
1F
100
AcDbEntity
  8
0
100
AcDbLine
 10
12.88822857794674
 20
2.251111260715871
 30
0.0
 11
13.25000001029292
 21
2.400961894472908
 31
0.0
  0
LINE
  5
120
330
1F
100
AcDbEntity
  8
0
100
AcDbLine
 10
12.50000001029302
 20
2.200000000149432
 30
0.0
 11
12.88822857794674
 21
2.251111260715871
 31
0.0
  0
LINE
  5
121
330
1F
100
AcDbEntity
  8
0
100
AcDbLine
 10
18.79903811600675
 20
-14.94999999985239
 30
0.0
 11
18.94888874976363
 21
-14.58822856750613
 31
0.0
  0
LINE
  5
122
330
1F
100
AcDbEntity
  8
0
100
AcDbLine
 10
18.56066018211005
 20
-15.26066017163225
 30
0.0
 11
18.79903811600675
 21
-14.94999999985239
 31
0.0
  0
LINE
  5
123
330
1F
100
AcDbEntity
  8
0
100
AcDbLine
 10
18.25000001033028
 20
-15.49903810552922
 30
0.0
 11
18.56066018211005
 21
-15.26066017163225
 31
0.0
  0
LINE
  5
124
330
1F
100
AcDbEntity
  8
0
100
AcDbLine
 10
25.00000000000788
 20
-32.49999999999084
 30
0.0
 11
25.05111126057428
 21
-32.11177143233706
 31
0.0
  0
LINE
  5
125
330
1F
100
AcDbEntity
  8
0
100
AcDbLine
 10
25.05111126057428
 20
-32.11177143233706
 30
0.0
 11
25.20096189433123
 21
-31.74999999999084
 31
0.0
  0
LINE
  5
126
330
1F
100
AcDbEntity
  8
0
100
AcDbLine
 10
25.20096189433123
 20
-31.74999999999084
 30
0.0
 11
25.43933982822806
 21
-31.43933982821102
 31
0.0
  0
LINE
  5
127
330
1F
100
AcDbEntity
  8
0
100
AcDbLine
 10
25.43933982822806
 20
-31.43933982821102
 30
0.0
 11
25.75000000000788
 21
-31.20096189431418
 31
0.0
  0
LINE
  5
128
330
1F
100
AcDbEntity
  8
0
100
AcDbLine
 10
25.75000000000788
 20
-31.20096189431418
 30
0.0
 11
26.1117714323541
 21
-31.05111126055724
 31
0.0
  0
LINE
  5
129
330
1F
100
AcDbEntity
  8
0
100
AcDbLine
 10
26.1117714323541
 20
-31.05111126055724
 30
0.0
 11
26.50000000000788
 21
-30.99999999999084
 31
0.0
  0
LINE
  5
12A
330
1F
100
AcDbEntity
  8
0
100
AcDbLine
 10
26.50000000000788
 20
-30.99999999999084
 30
0.0
 11
26.88822856766166
 21
-31.05111126055724
 31
0.0
  0
LINE
  5
12B
330
1F
100
AcDbEntity
  8
0
100
AcDbLine
 10
26.88822856766166
 20
-31.05111126055724
 30
0.0
 11
27.25000000000788
 21
-31.20096189431418
 31
0.0
  0
LINE
  5
12C
330
1F
100
AcDbEntity
  8
0
100
AcDbLine
 10
27.25000000000788
 20
-31.20096189431418
 30
0.0
 11
27.56066017178771
 21
-31.43933982821102
 31
0.0
  0
LINE
  5
12D
330
1F
100
AcDbEntity
  8
0
100
AcDbLine
 10
27.56066017178771
 20
-31.43933982821102
 30
0.0
 11
27.79903810568453
 21
-31.74999999999084
 31
0.0
  0
LINE
  5
12E
330
1F
100
AcDbEntity
  8
0
100
AcDbLine
 10
27.79903810568453
 20
-31.74999999999084
 30
0.0
 11
27.94888873944148
 21
-32.11177143233706
 31
0.0
  0
LINE
  5
12F
330
1F
100
AcDbEntity
  8
0
100
AcDbLine
 10
27.94888873944148
 20
-32.11177143233706
 30
0.0
 11
28.00000000000788
 21
-32.49999999999084
 31
0.0
  0
LINE
  5
130
330
1F
100
AcDbEntity
  8
0
100
AcDbLine
 10
28.00000000000788
 20
-32.49999999999084
 30
0.0
 11
27.94888873944148
 21
-32.88822856764462
 31
0.0
  0
LINE
  5
131
330
1F
100
AcDbEntity
  8
0
100
AcDbLine
 10
27.94888873944148
 20
-32.88822856764462
 30
0.0
 11
27.79903810568453
 21
-33.24999999999083
 31
0.0
  0
LINE
  5
132
330
1F
100
AcDbEntity
  8
0
100
AcDbLine
 10
27.79903810568453
 20
-33.24999999999083
 30
0.0
 11
27.56066017178771
 21
-33.56066017177066
 31
0.0
  0
LINE
  5
133
330
1F
100
AcDbEntity
  8
0
100
AcDbLine
 10
27.56066017178771
 20
-33.56066017177066
 30
0.0
 11
27.25000000000788
 21
-33.79903810566749
 31
0.0
  0
LINE
  5
134
330
1F
100
AcDbEntity
  8
0
100
AcDbLine
 10
27.25000000000788
 20
-33.79903810566749
 30
0.0
 11
26.88822856766166
 21
-33.94888873942444
 31
0.0
  0
LINE
  5
135
330
1F
100
AcDbEntity
  8
0
100
AcDbLine
 10
26.88822856766166
 20
-33.94888873942444
 30
0.0
 11
26.50000000000788
 21
-33.99999999999083
 31
0.0
  0
LINE
  5
136
330
1F
100
AcDbEntity
  8
0
100
AcDbLine
 10
26.50000000000788
 20
-33.99999999999083
 30
0.0
 11
26.1117714323541
 21
-33.94888873942444
 31
0.0
  0
LINE
  5
137
330
1F
100
AcDbEntity
  8
0
100
AcDbLine
 10
26.1117714323541
 20
-33.94888873942444
 30
0.0
 11
25.75000000000788
 21
-33.79903810566749
 31
0.0
  0
LINE
  5
138
330
1F
100
AcDbEntity
  8
0
100
AcDbLine
 10
25.75000000000788
 20
-33.79903810566749
 30
0.0
 11
25.43933982822806
 21
-33.56066017177066
 31
0.0
  0
LINE
  5
139
330
1F
100
AcDbEntity
  8
0
100
AcDbLine
 10
25.43933982822806
 20
-33.56066017177066
 30
0.0
 11
25.20096189433123
 21
-33.24999999999083
 31
0.0
  0
LINE
  5
13A
330
1F
100
AcDbEntity
  8
0
100
AcDbLine
 10
25.20096189433123
 20
-33.24999999999083
 30
0.0
 11
25.05111126057428
 21
-32.88822856764462
 31
0.0
  0
LINE
  5
13B
330
1F
100
AcDbEntity
  8
0
100
AcDbLine
 10
25.05111126057428
 20
-32.88822856764462
 30
0.0
 11
25.00000000000788
 21
-32.49999999999084
 31
0.0
  0
LINE
  5
13C
330
1F
100
AcDbEntity
  8
0
100
AcDbLine
 10
24.99999999999876
 20
-2.499999999990684
 30
0.0
 11
25.05111126056515
 21
-2.111771432336905
 31
0.0
  0
LINE
  5
13D
330
1F
100
AcDbEntity
  8
0
100
AcDbLine
 10
25.05111126056515
 20
-2.111771432336905
 30
0.0
 11
25.20096189432211
 21
-1.749999999990685
 31
0.0
  0
LINE
  5
13E
330
1F
100
AcDbEntity
  8
0
100
AcDbLine
 10
25.20096189432211
 20
-1.749999999990685
 30
0.0
 11
25.43933982821893
 21
-1.439339828210866
 31
0.0
  0
LINE
  5
13F
330
1F
100
AcDbEntity
  8
0
100
AcDbLine
 10
25.43933982821893
 20
-1.439339828210866
 30
0.0
 11
25.74999999999876
 21
-1.200961894314028
 31
0.0
  0
LINE
  5
140
330
1F
100
AcDbEntity
  8
0
100
AcDbLine
 10
25.74999999999876
 20
-1.200961894314028
 30
0.0
 11
26.11177143234498
 21
-1.051111260557087
 31
0.0
  0
LINE
  5
141
330
1F
100
AcDbEntity
  8
0
100
AcDbLine
 10
26.11177143234498
 20
-1.051111260557087
 30
0.0
 11
26.49999999999876
 21
-0.9999999999906867
 31
0.0
  0
LINE
  5
142
330
1F
100
AcDbEntity
  8
0
100
AcDbLine
 10
26.49999999999876
 20
-0.9999999999906867
 30
0.0
 11
26.88822856765253
 21
-1.051111260557081
 31
0.0
  0
LINE
  5
143
330
1F
100
AcDbEntity
  8
0
100
AcDbLine
 10
26.88822856765253
 20
-1.051111260557081
 30
0.0
 11
27.24999999999875
 21
-1.200961894314028
 31
0.0
  0
LINE
  5
144
330
1F
100
AcDbEntity
  8
0
100
AcDbLine
 10
27.24999999999875
 20
-1.200961894314028
 30
0.0
 11
27.56066017177858
 21
-1.439339828210866
 31
0.0
  0
LINE
  5
145
330
1F
100
AcDbEntity
  8
0
100
AcDbLine
 10
27.56066017177858
 20
-1.439339828210866
 30
0.0
 11
27.79903810567541
 21
-1.749999999990685
 31
0.0
  0
LINE
  5
146
330
1F
100
AcDbEntity
  8
0
100
AcDbLine
 10
27.79903810567541
 20
-1.749999999990685
 30
0.0
 11
27.94888873943236
 21
-2.111771432336905
 31
0.0
  0
LINE
  5
147
330
1F
100
AcDbEntity
  8
0
100
AcDbLine
 10
27.94888873943236
 20
-2.111771432336905
 30
0.0
 11
27.99999999999875
 21
-2.499999999990684
 31
0.0
  0
LINE
  5
148
330
1F
100
AcDbEntity
  8
0
100
AcDbLine
 10
27.99999999999875
 20
-2.499999999990684
 30
0.0
 11
27.94888873943236
 21
-2.888228567644462
 31
0.0
  0
LINE
  5
149
330
1F
100
AcDbEntity
  8
0
100
AcDbLine
 10
27.94888873943236
 20
-2.888228567644462
 30
0.0
 11
27.79903810567541
 21
-3.249999999990683
 31
0.0
  0
LINE
  5
14A
330
1F
100
AcDbEntity
  8
0
100
AcDbLine
 10
27.79903810567541
 20
-3.249999999990683
 30
0.0
 11
27.56066017177858
 21
-3.560660171770502
 31
0.0
  0
LINE
  5
14B
330
1F
100
AcDbEntity
  8
0
100
AcDbLine
 10
27.56066017177858
 20
-3.560660171770502
 30
0.0
 11
27.24999999999875
 21
-3.79903810566734
 31
0.0
  0
LINE
  5
14C
330
1F
100
AcDbEntity
  8
0
100
AcDbLine
 10
27.24999999999875
 20
-3.79903810566734
 30
0.0
 11
26.88822856765253
 21
-3.948888739424281
 31
0.0
  0
LINE
  5
14D
330
1F
100
AcDbEntity
  8
0
100
AcDbLine
 10
26.88822856765253
 20
-3.948888739424281
 30
0.0
 11
26.49999999999876
 21
-3.999999999990681
 31
0.0
  0
LINE
  5
14E
330
1F
100
AcDbEntity
  8
0
100
AcDbLine
 10
26.49999999999876
 20
-3.999999999990681
 30
0.0
 11
26.11177143234498
 21
-3.948888739424286
 31
0.0
  0
LINE
  5
14F
330
1F
100
AcDbEntity
  8
0
100
AcDbLine
 10
26.11177143234498
 20
-3.948888739424286
 30
0.0
 11
25.74999999999876
 21
-3.79903810566734
 31
0.0
  0
LINE
  5
150
330
1F
100
AcDbEntity
  8
0
100
AcDbLine
 10
25.74999999999876
 20
-3.79903810566734
 30
0.0
 11
25.43933982821893
 21
-3.560660171770502
 31
0.0
  0
LINE
  5
151
330
1F
100
AcDbEntity
  8
0
100
AcDbLine
 10
25.43933982821893
 20
-3.560660171770502
 30
0.0
 11
25.20096189432211
 21
-3.249999999990683
 31
0.0
  0
LINE
  5
152
330
1F
100
AcDbEntity
  8
0
100
AcDbLine
 10
25.20096189432211
 20
-3.249999999990683
 30
0.0
 11
25.05111126056515
 21
-2.888228567644468
 31
0.0
  0
LINE
  5
153
330
1F
100
AcDbEntity
  8
0
100
AcDbLine
 10
25.05111126056515
 20
-2.888228567644468
 30
0.0
 11
24.99999999999876
 21
-2.499999999990684
 31
0.0
  0
LINE
  5
154
330
1F
100
AcDbEntity
  8
0
100
AcDbLine
 10
-25.00000000000153
 20
-2.500000000006662
 30
0.0
 11
-25.05111126056793
 21
-2.88822856766044
 31
0.0
  0
LINE
  5
155
330
1F
100
AcDbEntity
  8
0
100
AcDbLine
 10
-25.05111126056793
 20
-2.88822856766044
 30
0.0
 11
-25.20096189432487
 21
-3.25000000000666
 31
0.0
  0
LINE
  5
156
330
1F
100
AcDbEntity
  8
0
100
AcDbLine
 10
-25.20096189432487
 20
-3.25000000000666
 30
0.0
 11
-25.4393398282217
 21
-3.560660171786486
 31
0.0
  0
LINE
  5
157
330
1F
100
AcDbEntity
  8
0
100
AcDbLine
 10
-25.4393398282217
 20
-3.560660171786486
 30
0.0
 11
-25.75000000000153
 21
-3.799038105683318
 31
0.0
  0
LINE
  5
158
330
1F
100
AcDbEntity
  8
0
100
AcDbLine
 10
-25.75000000000153
 20
-3.799038105683318
 30
0.0
 11
-26.11177143234775
 21
-3.948888739440264
 31
0.0
  0
LINE
  5
159
330
1F
100
AcDbEntity
  8
0
100
AcDbLine
 10
-26.11177143234775
 20
-3.948888739440264
 30
0.0
 11
-26.50000000000153
 21
-4.000000000006665
 31
0.0
  0
LINE
  5
15A
330
1F
100
AcDbEntity
  8
0
100
AcDbLine
 10
-26.50000000000153
 20
-4.000000000006665
 30
0.0
 11
-26.88822856765531
 21
-3.948888739440264
 31
0.0
  0
LINE
  5
15B
330
1F
100
AcDbEntity
  8
0
100
AcDbLine
 10
-26.88822856765531
 20
-3.948888739440264
 30
0.0
 11
-27.25000000000153
 21
-3.799038105683323
 31
0.0
  0
LINE
  5
15C
330
1F
100
AcDbEntity
  8
0
100
AcDbLine
 10
-27.25000000000153
 20
-3.799038105683323
 30
0.0
 11
-27.56066017178135
 21
-3.560660171786486
 31
0.0
  0
LINE
  5
15D
330
1F
100
AcDbEntity
  8
0
100
AcDbLine
 10
-27.56066017178135
 20
-3.560660171786486
 30
0.0
 11
-27.79903810567819
 21
-3.25000000000666
 31
0.0
  0
LINE
  5
15E
330
1F
100
AcDbEntity
  8
0
100
AcDbLine
 10
-27.79903810567819
 20
-3.25000000000666
 30
0.0
 11
-27.94888873943513
 21
-2.888228567660446
 31
0.0
  0
LINE
  5
15F
330
1F
100
AcDbEntity
  8
0
100
AcDbLine
 10
-27.94888873943513
 20
-2.888228567660446
 30
0.0
 11
-28.00000000000153
 21
-2.500000000006662
 31
0.0
  0
LINE
  5
160
330
1F
100
AcDbEntity
  8
0
100
AcDbLine
 10
-28.00000000000153
 20
-2.500000000006662
 30
0.0
 11
-27.94888873943513
 21
-2.111771432352883
 31
0.0
  0
LINE
  5
161
330
1F
100
AcDbEntity
  8
0
100
AcDbLine
 10
-27.94888873943513
 20
-2.111771432352883
 30
0.0
 11
-27.79903810567819
 21
-1.750000000006663
 31
0.0
  0
LINE
  5
162
330
1F
100
AcDbEntity
  8
0
100
AcDbLine
 10
-27.79903810567819
 20
-1.750000000006663
 30
0.0
 11
-27.56066017178135
 21
-1.439339828226838
 31
0.0
  0
LINE
  5
163
330
1F
100
AcDbEntity
  8
0
100
AcDbLine
 10
-27.56066017178135
 20
-1.439339828226838
 30
0.0
 11
-27.25000000000153
 21
-1.200961894330006
 31
0.0
  0
LINE
  5
164
330
1F
100
AcDbEntity
  8
0
100
AcDbLine
 10
-27.25000000000153
 20
-1.200961894330006
 30
0.0
 11
-26.88822856765531
 21
-1.051111260573059
 31
0.0
  0
LINE
  5
165
330
1F
100
AcDbEntity
  8
0
100
AcDbLine
 10
-26.88822856765531
 20
-1.051111260573059
 30
0.0
 11
-26.50000000000153
 21
-1.000000000006659
 31
0.0
  0
LINE
  5
166
330
1F
100
AcDbEntity
  8
0
100
AcDbLine
 10
-26.50000000000153
 20
-1.000000000006659
 30
0.0
 11
-26.11177143234775
 21
-1.051111260573059
 31
0.0
  0
LINE
  5
167
330
1F
100
AcDbEntity
  8
0
100
AcDbLine
 10
-26.11177143234775
 20
-1.051111260573059
 30
0.0
 11
-25.75000000000153
 21
-1.20096189433
 31
0.0
  0
LINE
  5
168
330
1F
100
AcDbEntity
  8
0
100
AcDbLine
 10
-25.75000000000153
 20
-1.20096189433
 30
0.0
 11
-25.4393398282217
 21
-1.439339828226838
 31
0.0
  0
LINE
  5
169
330
1F
100
AcDbEntity
  8
0
100
AcDbLine
 10
-25.4393398282217
 20
-1.439339828226838
 30
0.0
 11
-25.20096189432487
 21
-1.750000000006663
 31
0.0
  0
LINE
  5
16A
330
1F
100
AcDbEntity
  8
0
100
AcDbLine
 10
-25.20096189432487
 20
-1.750000000006663
 30
0.0
 11
-25.05111126056793
 21
-2.111771432352878
 31
0.0
  0
LINE
  5
16B
330
1F
100
AcDbEntity
  8
0
100
AcDbLine
 10
-25.05111126056793
 20
-2.111771432352878
 30
0.0
 11
-25.00000000000153
 21
-2.500000000006662
 31
0.0
  0
LINE
  5
16C
330
1F
100
AcDbEntity
  8
0
100
AcDbLine
 10
-24.9999999999923
 20
-32.50000000000661
 30
0.0
 11
-25.0511112605587
 21
-32.88822856766038
 31
0.0
  0
LINE
  5
16D
330
1F
100
AcDbEntity
  8
0
100
AcDbLine
 10
-25.0511112605587
 20
-32.88822856766038
 30
0.0
 11
-25.20096189431564
 21
-33.25000000000661
 31
0.0
  0
LINE
  5
16E
330
1F
100
AcDbEntity
  8
0
100
AcDbLine
 10
-25.20096189431564
 20
-33.25000000000661
 30
0.0
 11
-25.43933982821248
 21
-33.56066017178643
 31
0.0
  0
LINE
  5
16F
330
1F
100
AcDbEntity
  8
0
100
AcDbLine
 10
-25.43933982821248
 20
-33.56066017178643
 30
0.0
 11
-25.7499999999923
 21
-33.79903810568327
 31
0.0
  0
LINE
  5
170
330
1F
100
AcDbEntity
  8
0
100
AcDbLine
 10
-25.7499999999923
 20
-33.79903810568327
 30
0.0
 11
-26.11177143233852
 21
-33.94888873944021
 31
0.0
  0
LINE
  5
171
330
1F
100
AcDbEntity
  8
0
100
AcDbLine
 10
-26.11177143233852
 20
-33.94888873944021
 30
0.0
 11
-26.4999999999923
 21
-34.0000000000066
 31
0.0
  0
LINE
  5
172
330
1F
100
AcDbEntity
  8
0
100
AcDbLine
 10
-26.4999999999923
 20
-34.0000000000066
 30
0.0
 11
-26.88822856764608
 21
-33.94888873944021
 31
0.0
  0
LINE
  5
173
330
1F
100
AcDbEntity
  8
0
100
AcDbLine
 10
-26.88822856764608
 20
-33.94888873944021
 30
0.0
 11
-27.2499999999923
 21
-33.79903810568327
 31
0.0
  0
LINE
  5
174
330
1F
100
AcDbEntity
  8
0
100
AcDbLine
 10
-27.2499999999923
 20
-33.79903810568327
 30
0.0
 11
-27.56066017177212
 21
-33.56066017178643
 31
0.0
  0
LINE
  5
175
330
1F
100
AcDbEntity
  8
0
100
AcDbLine
 10
-27.56066017177212
 20
-33.56066017178643
 30
0.0
 11
-27.79903810566896
 21
-33.25000000000661
 31
0.0
  0
LINE
  5
176
330
1F
100
AcDbEntity
  8
0
100
AcDbLine
 10
-27.79903810566896
 20
-33.25000000000661
 30
0.0
 11
-27.94888873942591
 21
-32.88822856766038
 31
0.0
  0
LINE
  5
177
330
1F
100
AcDbEntity
  8
0
100
AcDbLine
 10
-27.94888873942591
 20
-32.88822856766038
 30
0.0
 11
-27.9999999999923
 21
-32.50000000000661
 31
0.0
  0
LINE
  5
178
330
1F
100
AcDbEntity
  8
0
100
AcDbLine
 10
-27.9999999999923
 20
-32.50000000000661
 30
0.0
 11
-27.94888873942591
 21
-32.11177143235283
 31
0.0
  0
LINE
  5
179
330
1F
100
AcDbEntity
  8
0
100
AcDbLine
 10
-27.94888873942591
 20
-32.11177143235283
 30
0.0
 11
-27.79903810566896
 21
-31.75000000000661
 31
0.0
  0
LINE
  5
17A
330
1F
100
AcDbEntity
  8
0
100
AcDbLine
 10
-27.79903810566896
 20
-31.75000000000661
 30
0.0
 11
-27.56066017177212
 21
-31.43933982822679
 31
0.0
  0
LINE
  5
17B
330
1F
100
AcDbEntity
  8
0
100
AcDbLine
 10
-27.56066017177212
 20
-31.43933982822679
 30
0.0
 11
-27.2499999999923
 21
-31.20096189432995
 31
0.0
  0
LINE
  5
17C
330
1F
100
AcDbEntity
  8
0
100
AcDbLine
 10
-27.2499999999923
 20
-31.20096189432995
 30
0.0
 11
-26.88822856764608
 21
-31.05111126057301
 31
0.0
  0
LINE
  5
17D
330
1F
100
AcDbEntity
  8
0
100
AcDbLine
 10
-26.88822856764608
 20
-31.05111126057301
 30
0.0
 11
-26.4999999999923
 21
-31.00000000000661
 31
0.0
  0
LINE
  5
17E
330
1F
100
AcDbEntity
  8
0
100
AcDbLine
 10
-26.4999999999923
 20
-31.00000000000661
 30
0.0
 11
-26.11177143233852
 21
-31.05111126057301
 31
0.0
  0
LINE
  5
17F
330
1F
100
AcDbEntity
  8
0
100
AcDbLine
 10
-26.11177143233852
 20
-31.05111126057301
 30
0.0
 11
-25.7499999999923
 21
-31.20096189432995
 31
0.0
  0
LINE
  5
180
330
1F
100
AcDbEntity
  8
0
100
AcDbLine
 10
-25.7499999999923
 20
-31.20096189432995
 30
0.0
 11
-25.43933982821248
 21
-31.43933982822678
 31
0.0
  0
LINE
  5
181
330
1F
100
AcDbEntity
  8
0
100
AcDbLine
 10
-25.43933982821248
 20
-31.43933982822678
 30
0.0
 11
-25.20096189431564
 21
-31.75000000000661
 31
0.0
  0
LINE
  5
182
330
1F
100
AcDbEntity
  8
0
100
AcDbLine
 10
-25.20096189431564
 20
-31.75000000000661
 30
0.0
 11
-25.0511112605587
 21
-32.11177143235282
 31
0.0
  0
LINE
  5
183
330
1F
100
AcDbEntity
  8
0
100
AcDbLine
 10
-25.0511112605587
 20
-32.11177143235282
 30
0.0
 11
-24.9999999999923
 21
-32.50000000000661
 31
0.0
  0
ENDSEC
  0
SECTION
  2
OBJECTS
  0
DICTIONARY
  5
C
330
0
100
AcDbDictionary
  3
ACAD_GROUP
350
D
  3
ACAD_LAYOUT
350
1A
  3
ACAD_MATERIAL
350
43
  3
ACAD_MLEADERSTYLE
350
1A6
  3
ACAD_MLINESTYLE
350
17
  3
ACAD_PLOTSETTINGS
350
19
  3
ACAD_SCALELIST
350
47
  3
ACAD_VISUALSTYLE
350
2A
  3
ACDBHEADERROUNDTRIPXREC
350
184
  3
ACDBVARIABLEDICTIONARY
350
1A4
  0
DICTIONARY
  5
1AB
330
8
100
AcDbDictionary
280
     1
  3
ACAD_XREC_ROUNDTRIP
360
1AC
  0
DICTIONARY
  5
D
102
{ACAD_REACTORS
330
C
102
}
330
C
100
AcDbDictionary
  0
DICTIONARY
  5
1A
102
{ACAD_REACTORS
330
C
102
}
330
C
100
AcDbDictionary
  0
DICTIONARY
  5
43
102
{ACAD_REACTORS
330
C
102
}
330
C
100
AcDbDictionary
  3
BYBLOCK
350
45
  3
BYLAYER
350
44
  3
GLOBAL
350
46
  0
DICTIONARY
  5
1A6
102
{ACAD_REACTORS
330
C
102
}
330
C
100
AcDbDictionary
  0
DICTIONARY
  5
17
102
{ACAD_REACTORS
330
C
102
}
330
C
100
AcDbDictionary
  3
STANDARD
350
18
  0
DICTIONARY
  5
19
102
{ACAD_REACTORS
330
C
102
}
330
C
100
AcDbDictionary
  0
DICTIONARY
  5
47
102
{ACAD_REACTORS
330
C
102
}
330
C
100
AcDbDictionary
  3
A0
350
48
  3
A1
350
49
  3
A2
350
4A
  3
A3
350
4B
  3
A4
350
4C
  3
A5
350
4D
  3
A6
350
4E
  3
A7
350
4F
  3
A8
350
50
  3
A9
350
51
  3
B0
350
52
  3
B1
350
53
  3
B2
350
54
  3
B3
350
55
  3
B4
350
56
  3
B5
350
57
  3
B6
350
58
  3
B7
350
59
  3
B8
350
5A
  3
B9
350
5B
  3
C0
350
5C
  3
C1
350
5D
  3
C2
350
5E
  3
C3
350
5F
  3
C4
350
60
  3
C5
350
61
  3
C6
350
62
  3
C7
350
63
  3
C8
350
64
  3
C9
350
65
  3
D0
350
66
  3
D1
350
67
  3
D2
350
68
  0
DICTIONARY
  5
2A
102
{ACAD_REACTORS
330
C
102
}
330
C
100
AcDbDictionary
  3
2DWIREFRAME
350
2F
  3
BASIC
350
32
  3
BRIGHTEN
350
36
  3
COLORCHANGE
350
3A
  3
CONCEPTUAL
350
34
  3
DIM
350
35
  3
EDGECOLOROFF
350
3D
  3
FACEPATTERN
350
39
  3
FLAT
350
2B
  3
FLATWITHEDGES
350
2C
  3
GOURAUD
350
2D
  3
GOURAUDWITHEDGES
350
2E
  3
HIDDEN
350
31
  3
JITTEROFF
350
3B
  3
LINEPATTERN
350
38
  3
OVERHANGOFF
350
3C
  3
REALISTIC
350
33
  3
SHADED
350
42
  3
SHADED_WITH_EDGES
350
41
  3
SHADES_OF_GRAY
350
3E
  3
SKETCHY
350
3F
  3
THICKEN
350
37
  3
WIREFRAME
350
30
  3
X-RAY
350
40
  0
DICTIONARY
  5
184
102
{ACAD_REACTORS
330
C
102
}
330
C
100
AcDbDictionary
  3
CEPSNTYPE
350
18D
  3
DIMSTYLEDATA
350
1A3
  3
FINGERPRINTGUID
350
18E
  3
HYPERLINKBASE
350
187
  3
INSUNITS
350
18C
  3
LAYOUTDICT
350
189
  3
LWETCUNION
350
18B
  3
PLOTSETDICT
350
18A
  3
PSVPSCALE
350
190
  3
PUCSBASE
350
193
  3
PUCSORGBACK
350
199
  3
PUCSORGBOTTOM
350
195
  3
PUCSORGFRONT
350
198
  3
PUCSORGLEFT
350
196
  3
PUCSORGRIGHT
350
197
  3
PUCSORGTOP
350
194
  3
PUCSORTHOREF
350
191
  3
PUCSORTHOVIEW
350
192
  3
STYLESHEET
350
188
  3
TSTACKALIGN
350
185
  3
TSTACKSIZE
350
186
  3
UCSBASE
350
19C
  3
UCSORGBACK
350
1A2
  3
UCSORGBOTTOM
350
19E
  3
UCSORGFRONT
350
1A1
  3
UCSORGLEFT
350
19F
  3
UCSORGRIGHT
350
1A0
  3
UCSORGTOP
350
19D
  3
UCSORTHOREF
350
19A
  3
UCSORTHOVIEW
350
19B
  3
VERSIONGUID
350
18F
  0
DICTIONARY
  5
1A4
102
{ACAD_REACTORS
330
C
102
}
330
C
100
AcDbDictionary
  3
CANNOSCALE
350
1AD
  3
DIMASSOC
350
1A9
  3
HIDETEXT
350
1AA
  3
MSLTSCALE
350
1AE
  0
XRECORD
  5
1AC
102
{ACAD_REACTORS
330
1AB
102
}
330
1AB
100
AcDbXrecord
102
VTR_0.000_0.000_1.000_1.000_GRIDDISPLAY
 70
     3
102
VTR_0.000_0.000_1.000_1.000_GRIDMAJOR
 70
     5
102
VTR_0.000_0.000_1.000_1.000_DEFAULTLIGHTING
280
     1
102
VTR_0.000_0.000_1.000_1.000_DEFAULTLIGHTINGTYPE
 70
     1
102
VTR_0.000_0.000_1.000_1.000_BRIGHTNESS
141
0.0
102
VTR_0.000_0.000_1.000_1.000_CONTRAST
142
0.0
  0
MATERIAL
  5
45
102
{ACAD_REACTORS
330
43
102
}
102
{ACAD_XDICTIONARY
360
1B1
102
}
330
43
100
AcDbMaterial
  1
BYBLOCK
  0
MATERIAL
  5
44
102
{ACAD_REACTORS
330
43
102
}
102
{ACAD_XDICTIONARY
360
1AF
102
}
330
43
100
AcDbMaterial
  1
BYLAYER
  0
MATERIAL
  5
46
102
{ACAD_REACTORS
330
43
102
}
102
{ACAD_XDICTIONARY
360
1B3
102
}
330
43
100
AcDbMaterial
  1
GLOBAL
  0
MLINESTYLE
  5
18
102
{ACAD_REACTORS
330
17
102
}
330
17
100
AcDbMlineStyle
  2
Standard
 70
     0
  3

 62
   256
 51
90.0
 52
90.0
 71
     2
 49
0.5
 62
   256
  6
BYLAYER
 49
-0.5
 62
   256
  6
BYLAYER
  0
ACAD_PROXY_OBJECT
  5
48
102
{ACAD_REACTORS
330
47
102
}
330
47
100
AcDbProxyObject
 90
      499
 91
      503
 93
       41
310
903313A31580
  0
ACAD_PROXY_OBJECT
  5
49
102
{ACAD_REACTORS
330
47
102
}
330
47
100
AcDbProxyObject
 90
      499
 91
      503
 93
      105
310
903313A324000000000000004000
  0
ACAD_PROXY_OBJECT
  5
4A
102
{ACAD_REACTORS
330
47
102
}
330
47
100
AcDbProxyObject
 90
      499
 91
      503
 93
      105
310
903313A344000000000000104000
  0
ACAD_PROXY_OBJECT
  5
4B
102
{ACAD_REACTORS
330
47
102
}
330
47
100
AcDbProxyObject
 90
      499
 91
      503
 93
      105
310
903313A354000000000000144000
  0
ACAD_PROXY_OBJECT
  5
4C
102
{ACAD_REACTORS
330
47
102
}
330
47
100
AcDbProxyObject
 90
      499
 91
      503
 93
      105
310
903313A384000000000000204000
  0
ACAD_PROXY_OBJECT
  5
4D
102
{ACAD_REACTORS
330
47
102
}
330
47
100
AcDbProxyObject
 90
      499
 91
      503
 93
      113
310
904313A31304000000000000244000
  0
ACAD_PROXY_OBJECT
  5
4E
102
{ACAD_REACTORS
330
47
102
}
330
47
100
AcDbProxyObject
 90
      499
 91
      503
 93
      113
310
904313A31364000000000000304000
  0
ACAD_PROXY_OBJECT
  5
4F
102
{ACAD_REACTORS
330
47
102
}
330
47
100
AcDbProxyObject
 90
      499
 91
      503
 93
      113
310
904313A32304000000000000344000
  0
ACAD_PROXY_OBJECT
  5
50
102
{ACAD_REACTORS
330
47
102
}
330
47
100
AcDbProxyObject
 90
      499
 91
      503
 93
      113
310
904313A333040000000000003E4000
  0
ACAD_PROXY_OBJECT
  5
51
102
{ACAD_REACTORS
330
47
102
}
330
47
100
AcDbProxyObject
 90
      499
 91
      503
 93
      113
310
904313A34304000000000000444000
  0
ACAD_PROXY_OBJECT
  5
52
102
{ACAD_REACTORS
330
47
102
}
330
47
100
AcDbProxyObject
 90
      499
 91
      503
 93
      113
310
904313A35304000000000000494000
  0
ACAD_PROXY_OBJECT
  5
53
102
{ACAD_REACTORS
330
47
102
}
330
47
100
AcDbProxyObject
 90
      499
 91
      503
 93
      121
310
905313A3130304000000000000594000
  0
ACAD_PROXY_OBJECT
  5
54
102
{ACAD_REACTORS
330
47
102
}
330
47
100
AcDbProxyObject
 90
      499
 91
      503
 93
      105
310
903323A310000000000000010100
  0
ACAD_PROXY_OBJECT
  5
55
102
{ACAD_REACTORS
330
47
102
}
330
47
100
AcDbProxyObject
 90
      499
 91
      503
 93
      105
310
903343A310000000000000410100
  0
ACAD_PROXY_OBJECT
  5
56
102
{ACAD_REACTORS
330
47
102
}
330
47
100
AcDbProxyObject
 90
      499
 91
      503
 93
      105
310
903383A310000000000000810100
  0
ACAD_PROXY_OBJECT
  5
57
102
{ACAD_REACTORS
330
47
102
}
330
47
100
AcDbProxyObject
 90
      499
 91
      503
 93
      113
310
90431303A310000000000000910100
  0
ACAD_PROXY_OBJECT
  5
58
102
{ACAD_REACTORS
330
47
102
}
330
47
100
AcDbProxyObject
 90
      499
 91
      503
 93
      121
310
9053130303A310000000000001650100
  0
ACAD_PROXY_OBJECT
  5
59
102
{ACAD_REACTORS
330
47
102
}
330
47
100
AcDbProxyObject
 90
      499
 91
      503
 93
      257
310
90E312F31323822203D2031272D3022000000000000200FC000000000000284000
  0
ACAD_PROXY_OBJECT
  5
5A
102
{ACAD_REACTORS
330
47
102
}
330
47
100
AcDbProxyObject
 90
      499
 91
      503
 93
      249
310
90D312F363422203D2031272D3022000000000000240FC000000000000284000
  0
ACAD_PROXY_OBJECT
  5
5B
102
{ACAD_REACTORS
330
47
102
}
330
47
100
AcDbProxyObject
 90
      499
 91
      503
 93
      249
310
90D312F333222203D2031272D3022000000000000280FC000000000000284000
  0
ACAD_PROXY_OBJECT
  5
5C
102
{ACAD_REACTORS
330
47
102
}
330
47
100
AcDbProxyObject
 90
      499
 91
      503
 93
      249
310
90D312F313622203D2031272D30220000000000002C0FC000000000000284000
  0
ACAD_PROXY_OBJECT
  5
5D
102
{ACAD_REACTORS
330
47
102
}
330
47
100
AcDbProxyObject
 90
      499
 91
      503
 93
      249
310
90D332F333222203D2031272D30220000000000002E0FC000000000000284000
  0
ACAD_PROXY_OBJECT
  5
5E
102
{ACAD_REACTORS
330
47
102
}
330
47
100
AcDbProxyObject
 90
      499
 91
      503
 93
      241
310
90C312F3822203D2031272D3022000000000000300FC000000000000284000
  0
ACAD_PROXY_OBJECT
  5
5F
102
{ACAD_REACTORS
330
47
102
}
330
47
100
AcDbProxyObject
 90
      499
 91
      503
 93
      249
310
90D332F313622203D2031272D3022000000000000320FC000000000000284000
  0
ACAD_PROXY_OBJECT
  5
60
102
{ACAD_REACTORS
330
47
102
}
330
47
100
AcDbProxyObject
 90
      499
 91
      503
 93
      241
310
90C312F3422203D2031272D3022000000000000340FC000000000000284000
  0
ACAD_PROXY_OBJECT
  5
61
102
{ACAD_REACTORS
330
47
102
}
330
47
100
AcDbProxyObject
 90
      499
 91
      503
 93
      241
310
90C332F3822203D2031272D3022000000000000360FC000000000000284000
  0
ACAD_PROXY_OBJECT
  5
62
102
{ACAD_REACTORS
330
47
102
}
330
47
100
AcDbProxyObject
 90
      499
 91
      503
 93
      241
310
90C312F3222203D2031272D3022000000000000380FC000000000000284000
  0
ACAD_PROXY_OBJECT
  5
63
102
{ACAD_REACTORS
330
47
102
}
330
47
100
AcDbProxyObject
 90
      499
 91
      503
 93
      241
310
90C332F3422203D2031272D30220000000000003A0FC000000000000284000
  0
ACAD_PROXY_OBJECT
  5
64
102
{ACAD_REACTORS
330
47
102
}
330
47
100
AcDbProxyObject
 90
      499
 91
      503
 93
      161
310
90A3122203D2031272D30224000000000000284000
  0
ACAD_PROXY_OBJECT
  5
65
102
{ACAD_REACTORS
330
47
102
}
330
47
100
AcDbProxyObject
 90
      499
 91
      503
 93
      257
310
90E312D312F3222203D2031272D30220000000000003E0FC000000000000284000
  0
ACAD_PROXY_OBJECT
  5
66
102
{ACAD_REACTORS
330
47
102
}
330
47
100
AcDbProxyObject
 90
      499
 91
      503
 93
      225
310
90A3322203D2031272D302200000000000002100000000000000284000
  0
ACAD_PROXY_OBJECT
  5
67
102
{ACAD_REACTORS
330
47
102
}
330
47
100
AcDbProxyObject
 90
      499
 91
      503
 93
      225
310
90A3622203D2031272D302200000000000006100000000000000284000
  0
ACAD_PROXY_OBJECT
  5
68
102
{ACAD_REACTORS
330
47
102
}
330
47
100
AcDbProxyObject
 90
      499
 91
      503
 93
      249
310
90D31272D3022203D2031272D30220000000000000A100000000000000284000
  0
ACAD_PROXY_OBJECT
  5
2F
102
{ACAD_REACTORS
330
2A
102
}
330
2A
100
AcDbProxyObject
 90
      499
 91
      501
 93
      436
310
42CC9915DA5C99599C985B595049028333333333333E33F0000000000000F90107901411070040501600405405064090741402480A0340
1001
ACAD
1000
AcDbSavedByObjectVersion
1070
     0
  0
ACAD_PROXY_OBJECT
  5
32
102
{ACAD_REACTORS
330
2A
102
}
330
2A
100
AcDbProxyObject
 90
      499
 91
      501
 93
      388
310
4150985CDA58D07406404333333333333E33F0000000000000F90107A41107004050150841D405064090741402480A0350
1001
ACAD
1000
AcDbSavedByObjectVersion
1070
     0
  0
ACAD_PROXY_OBJECT
  5
36
102
{ACAD_REACTORS
330
2A
102
}
330
2A
100
AcDbProxyObject
 90
      499
 91
      501
 93
      428
310
42109C9A59DA1D195B90C409028333333333333E33F0000000000000F9010790141107004050150841D405064090741402480A029950
1001
ACAD
1000
AcDbSavedByObjectVersion
1070
     0
  0
ACAD_PROXY_OBJECT
  5
3A
102
{ACAD_REACTORS
330
2A
102
}
330
2A
100
AcDbProxyObject
 90
      499
 91
      501
 93
      452
310
42D0DBDB1BDC90DA185B99D95104090240C333333333333E33F0000000000000F90108901411070040501508421405064090741402480A0350
1001
ACAD
1000
AcDbSavedByObjectVersion
1070
     0
  0
ACAD_PROXY_OBJECT
  5
34
102
{ACAD_REACTORS
330
2A
102
}
330
2A
100
AcDbProxyObject
 90
      499
 91
      501
 93
      500
310
4290DBDB98D95C1D1D585B10940D028333333333333E33F0000000000000F90107902409070040501000000000018199010841D405064090740C02480A0340
1001
ACAD
1000
AcDbSavedByObjectVersion
1070
     0
  0
ACAD_PROXY_OBJECT
  5
35
102
{ACAD_REACTORS
330
2A
102
}
330
2A
100
AcDbProxyObject
 90
      499
 91
      501
 93
      412
310
40D11A5B50B409028333333333333E33F0000000000000F9010790141107004050150841D405064090741402480A02677FFFFFD0
1001
ACAD
1000
AcDbSavedByObjectVersion
1070
     0
  0
ACAD_PROXY_OBJECT
  5
3D
102
{ACAD_REACTORS
330
2A
102
}
330
2A
100
AcDbProxyObject
 90
      499
 91
      501
 93
      452
310
43115919D950DBDB1BDC93D999916409028333333333333E33F0000000000000F9010790141107004050150841D405064090741402480A0350
1001
ACAD
1000
AcDbSavedByObjectVersion
1070
     0
  0
ACAD_PROXY_OBJECT
  5
39
102
{ACAD_REACTORS
330
2A
102
}
330
2A
100
AcDbProxyObject
 90
      499
 91
      501
 93
      444
310
42D19858D95C185D1D195C9B90F409028333333333333E33F0000000000000F9010790141107004050150841D405064090741402480A0350
1001
ACAD
1000
AcDbSavedByObjectVersion
1070
     0
  0
ACAD_PROXY_OBJECT
  5
2B
102
{ACAD_REACTORS
330
2A
102
}
330
2A
100
AcDbProxyObject
 90
      499
 91
      501
 93
      380
310
41119B185D240901404333333333333E33F0000000000000F9010740A907004050150841D405064090741402480A1B50
1001
ACAD
1000
AcDbSavedByObjectVersion
1070
     0
  0
ACAD_PROXY_OBJECT
  5
2C
102
{ACAD_REACTORS
330
2A
102
}
330
2A
100
AcDbProxyObject
 90
      499
 91
      501
 93
      468
310
43519B185D15DA5D1A115919D95CD0140901404333333333333E33F0000000000000F90107409019070040501600405405064090741402480A1B50
1001
ACAD
1000
AcDbSavedByObjectVersion
1070
     0
  0
ACAD_PROXY_OBJECT
  5
2D
102
{ACAD_REACTORS
330
2A
102
}
330
2A
100
AcDbProxyObject
 90
      499
 91
      501
 93
      404
310
41D1DBDD5C985D5910240902404333333333333E33F0000000000000F9010740A9070040501641D405064090741402480A1B50
1001
ACAD
1000
AcDbSavedByObjectVersion
1070
     0
  0
ACAD_PROXY_OBJECT
  5
2E
102
{ACAD_REACTORS
330
2A
102
}
330
2A
100
AcDbProxyObject
 90
      499
 91
      501
 93
      492
310
4411DBDD5C985D5915DA5D1A115919D95CD0340902404333333333333E33F0000000000000F90107409019070040501600405405064090741402480A1B50
1001
ACAD
1000
AcDbSavedByObjectVersion
1070
     0
  0
ACAD_PROXY_OBJECT
  5
31
102
{ACAD_REACTORS
330
2A
102
}
330
2A
100
AcDbProxyObject
 90
      499
 91
      501
 93
      476
310
41921A5919195B90640502408333333333333E33F0000000000000F901079024090700405020000000000001110200405405064090740C02480A0340
1001
ACAD
1000
AcDbSavedByObjectVersion
1070
     0
  0
ACAD_PROXY_OBJECT
  5
3B
102
{ACAD_REACTORS
330
2A
102
}
330
2A
100
AcDbProxyObject
 90
      499
 91
      501
 93
      428
310
42529A5D1D195C93D999914409028333333333333E33F0000000000000F9010790141107004050150A41D405064090741402480A0350
1001
ACAD
1000
AcDbSavedByObjectVersion
1070
     0
  0
ACAD_PROXY_OBJECT
  5
38
102
{ACAD_REACTORS
330
2A
102
}
330
2A
100
AcDbProxyObject
 90
      499
 91
      501
 93
      444
310
42D31A5B995C185D1D195C9B90E409028333333333333E33F0000000000000F9010790141107004050750841D405064090741402483A0350
1001
ACAD
1000
AcDbSavedByObjectVersion
1070
     0
  0
ACAD_PROXY_OBJECT
  5
3C
102
{ACAD_REACTORS
330
2A
102
}
330
2A
100
AcDbProxyObject
 90
      499
 91
      501
 93
      444
310
42D3DD995C9A185B99D3D999915409028333333333333E33F0000000000000F9010790141107004050150941D405064090741402480A0350
1001
ACAD
1000
AcDbSavedByObjectVersion
1070
     0
  0
ACAD_PROXY_OBJECT
  5
33
102
{ACAD_REACTORS
330
2A
102
}
330
2A
100
AcDbProxyObject
 90
      499
 91
      501
 93
      428
310
425499585B1A5CDD1A58D08409038333333333333E33F0000000000000F9010740A907004050150800405405064090740C02480A1B40
1001
ACAD
1000
AcDbSavedByObjectVersion
1070
     0
  0
ACAD_PROXY_OBJECT
  5
42
102
{ACAD_REACTORS
330
2A
102
}
330
2A
100
AcDbProxyObject
 90
      499
 91
      501
 93
      420
310
4194DA1859195911B40902404333333333333E33F0000000000000F9010740A41107004050150800405405064090840C02480A0B40
1001
ACAD
1000
AcDbSavedByObjectVersion
1070
     0
  0
ACAD_PROXY_OBJECT
  5
41
102
{ACAD_REACTORS
330
2A
102
}
330
2A
100
AcDbProxyObject
 90
      499
 91
      501
 93
      516
310
4454DA18591959081DDA5D1A08195919D95CD1A40902404333333333333E33F0000000000000F901074090142907004050250800405405064090740C02480A0B40
1001
ACAD
1000
AcDbSavedByObjectVersion
1070
     0
  0
ACAD_PROXY_OBJECT
  5
3E
102
{ACAD_REACTORS
330
2A
102
}
330
2A
100
AcDbProxyObject
 90
      499
 91
      501
 93
      532
310
4394DA1859195CC81BD98811DC985E5174090240C333333333333E33F0000000000000F901079024090741D01000000000000111010841D405064090740C02480A0340
1001
ACAD
1000
AcDbSavedByObjectVersion
1070
     0
  0
ACAD_PROXY_OBJECT
  5
3F
102
{ACAD_REACTORS
330
2A
102
}
330
2A
100
AcDbProxyObject
 90
      499
 91
      501
 93
      476
310
41D4DAD95D18DA1E51840502408333333333333E33F0000000000000F901079024090741D01000000000000111010B41D405064090741802480A0340
1001
ACAD
1000
AcDbSavedByObjectVersion
1070
     0
  0
ACAD_PROXY_OBJECT
  5
37
102
{ACAD_REACTORS
330
2A
102
}
330
2A
100
AcDbProxyObject
 90
      499
 91
      501
 93
      412
310
41D51A1A58DAD95B90D409028333333333333E33F0000000000000F9010790141107004050150C41D405064090741402480A0350
1001
ACAD
1000
AcDbSavedByObjectVersion
1070
     0
  0
ACAD_PROXY_OBJECT
  5
30
102
{ACAD_REACTORS
330
2A
102
}
330
2A
100
AcDbProxyObject
 90
      499
 91
      501
 93
      420
310
4255DA5C99599C985B595059028333333333333E33F0000000000000F90107901411070040501600405405064090740C02480A0340
1001
ACAD
1000
AcDbSavedByObjectVersion
1070
     0
  0
ACAD_PROXY_OBJECT
  5
40
102
{ACAD_REACTORS
330
2A
102
}
330
2A
100
AcDbProxyObject
 90
      499
 91
      501
 93
      404
310
41560B54985E51940902404000000000000E03F0000000000000F9010740501907004050150841D405064090740C02480A1B40
1001
ACAD
1000
AcDbSavedByObjectVersion
1070
     0
  0
XRECORD
  5
18D
102
{ACAD_REACTORS
330
184
102
}
330
184
100
AcDbXrecord
 90
        0
  0
XRECORD
  5
1A3
102
{ACAD_REACTORS
330
184
102
}
330
184
100
AcDbXrecord
1000
DSTYLE
1002
{
1070
   171
 70
     2
1070
   143
 40
25.4
1070
   274
 70
     2
1070
    41
 40
0.18
1070
   141
 40
0.09
1070
   271
 70
     4
1070
    43
 40
0.38
1070
   278
 70
    46
1070
    44
 40
0.18
1070
    42
 40
0.0625
1070
   147
 40
0.09
1070
    77
 70
     0
1070
   272
 70
     4
1070
    73
 70
     1
1070
   172
 70
     0
1070
    74
 70
     1
1070
   283
 70
     1
1070
   340
340
11
1070
   140
 40
0.18
1070
   284
 70
     0
1070
    78
 70
     0
1002
}
  0
XRECORD
  5
18E
102
{ACAD_REACTORS
330
184
102
}
330
184
100
AcDbXrecord
  1
{2C3DAA9C-6E5C-4BE0-A577-C88C111AD156}
  0
XRECORD
  5
187
102
{ACAD_REACTORS
330
184
102
}
330
184
100
AcDbXrecord
  1

  0
XRECORD
  5
18C
102
{ACAD_REACTORS
330
184
102
}
330
184
100
AcDbXrecord
 90
        4
  0
XRECORD
  5
189
102
{ACAD_REACTORS
330
184
102
}
330
184
100
AcDbXrecord
340
1A
  0
XRECORD
  5
18B
102
{ACAD_REACTORS
330
184
102
}
330
184
100
AcDbXrecord
 90
    10781
  0
XRECORD
  5
18A
102
{ACAD_REACTORS
330
184
102
}
330
184
100
AcDbXrecord
340
19
  0
XRECORD
  5
190
102
{ACAD_REACTORS
330
184
102
}
330
184
100
AcDbXrecord
 40
0.0
  0
XRECORD
  5
193
102
{ACAD_REACTORS
330
184
102
}
330
184
100
AcDbXrecord
340
0
  0
XRECORD
  5
199
102
{ACAD_REACTORS
330
184
102
}
330
184
100
AcDbXrecord
 10
0.0
 20
0.0
 30
0.0
  0
XRECORD
  5
195
102
{ACAD_REACTORS
330
184
102
}
330
184
100
AcDbXrecord
 10
0.0
 20
0.0
 30
0.0
  0
XRECORD
  5
198
102
{ACAD_REACTORS
330
184
102
}
330
184
100
AcDbXrecord
 10
0.0
 20
0.0
 30
0.0
  0
XRECORD
  5
196
102
{ACAD_REACTORS
330
184
102
}
330
184
100
AcDbXrecord
 10
0.0
 20
0.0
 30
0.0
  0
XRECORD
  5
197
102
{ACAD_REACTORS
330
184
102
}
330
184
100
AcDbXrecord
 10
0.0
 20
0.0
 30
0.0
  0
XRECORD
  5
194
102
{ACAD_REACTORS
330
184
102
}
330
184
100
AcDbXrecord
 10
0.0
 20
0.0
 30
0.0
  0
XRECORD
  5
191
102
{ACAD_REACTORS
330
184
102
}
330
184
100
AcDbXrecord
340
0
  0
XRECORD
  5
192
102
{ACAD_REACTORS
330
184
102
}
330
184
100
AcDbXrecord
 70
     0
  0
XRECORD
  5
188
102
{ACAD_REACTORS
330
184
102
}
330
184
100
AcDbXrecord
  1

  0
XRECORD
  5
185
102
{ACAD_REACTORS
330
184
102
}
330
184
100
AcDbXrecord
 90
        1
  0
XRECORD
  5
186
102
{ACAD_REACTORS
330
184
102
}
330
184
100
AcDbXrecord
 90
       70
  0
XRECORD
  5
19C
102
{ACAD_REACTORS
330
184
102
}
330
184
100
AcDbXrecord
340
0
  0
XRECORD
  5
1A2
102
{ACAD_REACTORS
330
184
102
}
330
184
100
AcDbXrecord
 10
0.0
 20
0.0
 30
0.0
  0
XRECORD
  5
19E
102
{ACAD_REACTORS
330
184
102
}
330
184
100
AcDbXrecord
 10
0.0
 20
0.0
 30
0.0
  0
XRECORD
  5
1A1
102
{ACAD_REACTORS
330
184
102
}
330
184
100
AcDbXrecord
 10
0.0
 20
0.0
 30
0.0
  0
XRECORD
  5
19F
102
{ACAD_REACTORS
330
184
102
}
330
184
100
AcDbXrecord
 10
0.0
 20
0.0
 30
0.0
  0
XRECORD
  5
1A0
102
{ACAD_REACTORS
330
184
102
}
330
184
100
AcDbXrecord
 10
0.0
 20
0.0
 30
0.0
  0
XRECORD
  5
19D
102
{ACAD_REACTORS
330
184
102
}
330
184
100
AcDbXrecord
 10
0.0
 20
0.0
 30
0.0
  0
XRECORD
  5
19A
102
{ACAD_REACTORS
330
184
102
}
330
184
100
AcDbXrecord
340
0
  0
XRECORD
  5
19B
102
{ACAD_REACTORS
330
184
102
}
330
184
100
AcDbXrecord
 70
     0
  0
XRECORD
  5
18F
102
{ACAD_REACTORS
330
184
102
}
330
184
100
AcDbXrecord
  1
{FAEB1C32-E019-11D5-929B-00C0DF256EC4}
  0
DICTIONARYVAR
  5
1AD
102
{ACAD_REACTORS
330
1A4
102
}
330
1A4
100
DictionaryVariables
280
     0
  1
1:1
  0
DICTIONARYVAR
  5
1A9
102
{ACAD_REACTORS
330
1A4
102
}
330
1A4
100
DictionaryVariables
280
     0
  1
2
  0
DICTIONARYVAR
  5
1AA
102
{ACAD_REACTORS
330
1A4
102
}
330
1A4
100
DictionaryVariables
280
     0
  1
1
  0
DICTIONARYVAR
  5
1AE
102
{ACAD_REACTORS
330
1A4
102
}
330
1A4
100
DictionaryVariables
280
     0
  1
1
  0
DICTIONARY
  5
1B1
330
45
100
AcDbDictionary
280
     1
  3
ACAD_XREC_ROUNDTRIP
360
1B2
  0
DICTIONARY
  5
1AF
330
44
100
AcDbDictionary
280
     1
  3
ACAD_XREC_ROUNDTRIP
360
1B0
  0
DICTIONARY
  5
1B3
330
46
100
AcDbDictionary
280
     1
  3
ACAD_XREC_ROUNDTRIP
360
1B4
  0
XRECORD
  5
1B2
102
{ACAD_REACTORS
330
1B1
102
}
330
1B1
100
AcDbXrecord
102
MATERIAL
148
0.0
149
0.0
149
0.0
 93
        0
 94
      127
282
     0
 72
     1
 77
     1
171
     1
175
     1
179
     1
273
     0
  0
XRECORD
  5
1B0
102
{ACAD_REACTORS
330
1AF
102
}
330
1AF
100
AcDbXrecord
102
MATERIAL
148
0.0
149
0.0
149
0.0
 93
        0
 94
      127
282
     0
 72
     1
 77
     1
171
     1
175
     1
179
     1
273
     0
  0
XRECORD
  5
1B4
102
{ACAD_REACTORS
330
1B3
102
}
330
1B3
100
AcDbXrecord
102
MATERIAL
148
0.0
149
0.0
149
0.0
 93
        0
 94
      127
282
     0
 72
     1
 77
     1
171
     1
175
     1
179
     1
273
     0
  0
ENDSEC
  0
EOF
