  0
SECTION
  2
HEADER
  9
$ACADVER
  1
AC1014
  9
$ACADMAINTVER
 70
     9
  9
$DWGCODEPAGE
  3
ANSI_1252
  9
$INSBASE
 10
0.0
 20
0.0
 30
0.0
  9
$EXTMIN
 10
1.000000000000000E+20
 20
1.000000000000000E+20
 30
1.000000000000000E+20
  9
$EXTMAX
 10
-1.000000000000000E+20
 20
-1.000000000000000E+20
 30
-1.000000000000000E+20
  9
$LIMMIN
 10
0.0
 20
0.0
  9
$LIMMAX
 10
12.0
 20
9.0
  9
$ORTHOMODE
 70
     0
  9
$REGENMODE
 70
     1
  9
$FILLMODE
 70
     1
  9
$QTEXTMODE
 70
     0
  9
$MIRRTEXT
 70
     1
  9
$DRAGMODE
 70
     2
  9
$LTSCALE
 40
1.0
  9
$OSMODE
 70
    37
  9
$ATTMODE
 70
     1
  9
$TEXTSIZE
 40
0.2
  9
$TRACEWID
 40
0.05
  9
$TEXTSTYLE
  7
STANDARD
  9
$CLAYER
  8
0
  9
$CELTYPE
  6
BYLAYER
  9
$CECOLOR
 62
   256
  9
$CELTSCALE
 40
1.0
  9
$DELOBJ
 70
     1
  9
$DISPSILH
 70
     0
  9
$DIMSCALE
 40
1.0
  9
$DIMASZ
 40
0.18
  9
$DIMEXO
 40
0.0625
  9
$DIMDLI
 40
0.38
  9
$DIMRND
 40
0.0
  9
$DIMDLE
 40
0.0
  9
$DIMEXE
 40
0.18
  9
$DIMTP
 40
0.0
  9
$DIMTM
 40
0.0
  9
$DIMTXT
 40
0.18
  9
$DIMCEN
 40
0.09
  9
$DIMTSZ
 40
0.0
  9
$DIMTOL
 70
     0
  9
$DIMLIM
 70
     0
  9
$DIMTIH
 70
     1
  9
$DIMTOH
 70
     1
  9
$DIMSE1
 70
     0
  9
$DIMSE2
 70
     0
  9
$DIMTAD
 70
     0
  9
$DIMZIN
 70
     0
  9
$DIMBLK
  1

  9
$DIMASO
 70
     1
  9
$DIMSHO
 70
     1
  9
$DIMPOST
  1

  9
$DIMAPOST
  1

  9
$DIMALT
 70
     0
  9
$DIMALTD
 70
     2
  9
$DIMALTF
 40
25.4
  9
$DIMLFAC
 40
1.0
  9
$DIMTOFL
 70
     0
  9
$DIMTVP
 40
0.0
  9
$DIMTIX
 70
     0
  9
$DIMSOXD
 70
     0
  9
$DIMSAH
 70
     0
  9
$DIMBLK1
  1

  9
$DIMBLK2
  1

  9
$DIMSTYLE
  2
STANDARD
  9
$DIMCLRD
 70
     0
  9
$DIMCLRE
 70
     0
  9
$DIMCLRT
 70
     0
  9
$DIMTFAC
 40
1.0
  9
$DIMGAP
 40
0.09
  9
$DIMJUST
 70
     0
  9
$DIMSD1
 70
     0
  9
$DIMSD2
 70
     0
  9
$DIMTOLJ
 70
     1
  9
$DIMTZIN
 70
     0
  9
$DIMALTZ
 70
     0
  9
$DIMALTTZ
 70
     0
  9
$DIMFIT
 70
     3
  9
$DIMUPT
 70
     0
  9
$DIMUNIT
 70
     2
  9
$DIMDEC
 70
     4
  9
$DIMTDEC
 70
     4
  9
$DIMALTU
 70
     2
  9
$DIMALTTD
 70
     2
  9
$DIMTXSTY
  7
STANDARD
  9
$DIMAUNIT
 70
     0
  9
$LUNITS
 70
     2
  9
$LUPREC
 70
     4
  9
$SKETCHINC
 40
0.1
  9
$FILLETRAD
 40
0.5
  9
$AUNITS
 70
     0
  9
$AUPREC
 70
     0
  9
$MENU
  1
.
  9
$ELEVATION
 40
0.0
  9
$PELEVATION
 40
0.0
  9
$THICKNESS
 40
0.0
  9
$LIMCHECK
 70
     0
  9
$CHAMFERA
 40
0.0
  9
$CHAMFERB
 40
0.0
  9
$CHAMFERC
 40
0.0
  9
$CHAMFERD
 40
0.0
  9
$SKPOLY
 70
     0
  9
$TDCREATE
 40
2457828.923633044
  9
$TDUPDATE
 40
2457828.923633183
  9
$TDINDWG
 40
0.0000000116
  9
$TDUSRTIMER
 40
0.0000000116
  9
$USRTIMER
 70
     1
  9
$ANGBASE
 50
0.0
  9
$ANGDIR
 70
     0
  9
$PDMODE
 70
     0
  9
$PDSIZE
 40
0.0
  9
$PLINEWID
 40
0.0
  9
$COORDS
 70
     1
  9
$SPLFRAME
 70
     0
  9
$SPLINETYPE
 70
     6
  9
$SPLINESEGS
 70
     8
  9
$ATTDIA
 70
     0
  9
$ATTREQ
 70
     1
  9
$HANDLING
 70
     1
  9
$HANDSEED
  5
29B
  9
$SURFTAB1
 70
     6
  9
$SURFTAB2
 70
     6
  9
$SURFTYPE
 70
     6
  9
$SURFU
 70
     6
  9
$SURFV
 70
     6
  9
$UCSNAME
  2

  9
$UCSORG
 10
0.0
 20
0.0
 30
0.0
  9
$UCSXDIR
 10
1.0
 20
0.0
 30
0.0
  9
$UCSYDIR
 10
0.0
 20
1.0
 30
0.0
  9
$PUCSNAME
  2

  9
$PUCSORG
 10
0.0
 20
0.0
 30
0.0
  9
$PUCSXDIR
 10
1.0
 20
0.0
 30
0.0
  9
$PUCSYDIR
 10
0.0
 20
1.0
 30
0.0
  9
$USERI1
 70
     0
  9
$USERI2
 70
     0
  9
$USERI3
 70
     0
  9
$USERI4
 70
     0
  9
$USERI5
 70
     0
  9
$USERR1
 40
0.0
  9
$USERR2
 40
0.0
  9
$USERR3
 40
0.0
  9
$USERR4
 40
0.0
  9
$USERR5
 40
0.0
  9
$WORLDVIEW
 70
     1
  9
$SHADEDGE
 70
     3
  9
$SHADEDIF
 70
    70
  9
$TILEMODE
 70
     1
  9
$MAXACTVP
 70
    64
  9
$PINSBASE
 10
0.0
 20
0.0
 30
0.0
  9
$PLIMCHECK
 70
     0
  9
$PEXTMIN
 10
1.000000000000000E+20
 20
1.000000000000000E+20
 30
1.000000000000000E+20
  9
$PEXTMAX
 10
-1.000000000000000E+20
 20
-1.000000000000000E+20
 30
-1.000000000000000E+20
  9
$PLIMMIN
 10
0.0
 20
0.0
  9
$PLIMMAX
 10
12.0
 20
9.0
  9
$UNITMODE
 70
     0
  9
$VISRETAIN
 70
     1
  9
$PLINEGEN
 70
     0
  9
$PSLTSCALE
 70
     1
  9
$TREEDEPTH
 70
  3020
  9
$PICKSTYLE
 70
     1
  9
$CMLSTYLE
  2
STANDARD
  9
$CMLJUST
 70
     0
  9
$CMLSCALE
 40
1.0
  9
$PROXYGRAPHICS
 70
     1
  9
$MEASUREMENT
 70
     1
  0
ENDSEC
  0
SECTION
  2
CLASSES
  0
CLASS
  1
ACDBDICTIONARYWDFLT
  2
AcDbDictionaryWithDefault
  3
ObjectDBX Classes
 90
        0
280
     0
281
     0
  0
CLASS
  1
VISUALSTYLE
  2
AcDbVisualStyle
  3
ObjectDBX Classes
 90
     4095
280
     0
281
     0
  0
CLASS
  1
MATERIAL
  2
AcDbMaterial
  3
ObjectDBX Classes
 90
     1153
280
     0
281
     0
  0
CLASS
  1
SCALE
  2
AcDbScale
  3
ObjectDBX Classes
 90
     1153
280
     0
281
     0
  0
CLASS
  1
SUN
  2
AcDbSun
  3
SCENEOE
 90
     1153
280
     0
281
     0
  0
CLASS
  1
DICTIONARYVAR
  2
AcDbDictionaryVar
  3
ObjectDBX Classes
 90
        0
280
     0
281
     0
  0
CLASS
  1
XRECORD
  2
AcDbXrecord
  3
ObjectDBX Classes
 90
        0
280
     0
281
     0
  0
CLASS
  1
LWPOLYLINE
  2
AcDbPolyline
  3
ObjectDBX Classes
 90
        0
280
     0
281
     1
  0
CLASS
  1
HATCH
  2
AcDbHatch
  3
ObjectDBX Classes
 90
        0
280
     0
281
     1
  0
CLASS
  1
ACDBPLACEHOLDER
  2
AcDbPlaceHolder
  3
ObjectDBX Classes
 90
        0
280
     0
281
     0
  0
CLASS
  1
LAYOUT
  2
AcDbLayout
  3
ObjectDBX Classes
 90
        0
280
     0
281
     0
  0
ENDSEC
  0
SECTION
  2
TABLES
  0
TABLE
  2
VPORT
  5
8
102
{ACAD_XDICTIONARY
360
291
102
}
330
0
100
AcDbSymbolTable
 70
     1
  0
VPORT
  5
29
330
8
100
AcDbSymbolTableRecord
100
AcDbViewportTableRecord
  2
*ACTIVE
 70
     0
 10
0.0
 20
0.0
 11
1.0
 21
1.0
 12
0.0
 22
0.0
 13
0.0
 23
0.0
 14
0.5
 24
0.5
 15
0.5
 25
0.5
 16
0.0
 26
0.0
 36
1.0
 17
0.0
 27
0.0
 37
-1000.0
 40
723.1994107612059
 41
1.388888888888889
 42
50.0
 43
1020.732293645774
 44
1275.503349232892
 50
0.0
 51
0.0
 71
     0
 72
   100
 73
     1
 74
     3
 75
     0
 76
     0
 77
     0
 78
     0
  0
ENDTAB
  0
TABLE
  2
LTYPE
  5
5
330
0
100
AcDbSymbolTable
 70
     1
  0
LTYPE
  5
14
330
5
100
AcDbSymbolTableRecord
100
AcDbLinetypeTableRecord
  2
BYBLOCK
 70
     0
  3

 72
    65
 73
     0
 40
0.0
  0
LTYPE
  5
15
330
5
100
AcDbSymbolTableRecord
100
AcDbLinetypeTableRecord
  2
BYLAYER
 70
     0
  3

 72
    65
 73
     0
 40
0.0
  0
LTYPE
  5
16
330
5
100
AcDbSymbolTableRecord
100
AcDbLinetypeTableRecord
  2
CONTINUOUS
 70
     0
  3
Solid line
 72
    65
 73
     0
 40
0.0
  0
ENDTAB
  0
TABLE
  2
LAYER
  5
2
330
0
100
AcDbSymbolTable
 70
     3
  0
LAYER
  5
10
330
2
100
AcDbSymbolTableRecord
100
AcDbLayerTableRecord
  2
0
 70
     0
 62
     7
  6
CONTINUOUS
  0
LAYER
  5
6A
330
2
100
AcDbSymbolTableRecord
100
AcDbLayerTableRecord
  2
PROFILEEDGES
 70
     0
 62
     7
  6
CONTINUOUS
  0
LAYER
  5
6B
330
2
100
AcDbSymbolTableRecord
100
AcDbLayerTableRecord
  2
SECTIONCUTEDGES
 70
     0
 62
     7
  6
CONTINUOUS
  0
ENDTAB
  0
TABLE
  2
STYLE
  5
3
330
0
100
AcDbSymbolTable
 70
     1
  0
STYLE
  5
11
330
3
100
AcDbSymbolTableRecord
100
AcDbTextStyleTableRecord
  2
STANDARD
 70
     0
 40
0.0
 41
1.0
 50
0.0
 71
     0
 42
0.2
  3
txt
  4

  0
ENDTAB
  0
TABLE
  2
VIEW
  5
6
330
0
100
AcDbSymbolTable
 70
     0
  0
ENDTAB
  0
TABLE
  2
UCS
  5
7
330
0
100
AcDbSymbolTable
 70
     0
  0
ENDTAB
  0
TABLE
  2
APPID
  5
9
330
0
100
AcDbSymbolTable
 70
     1
  0
APPID
  5
12
330
9
100
AcDbSymbolTableRecord
100
AcDbRegAppTableRecord
  2
ACAD
 70
     0
  0
ENDTAB
  0
TABLE
  2
DIMSTYLE
  5
A
330
0
100
AcDbSymbolTable
 70
     1
  0
DIMSTYLE
105
27
330
A
100
AcDbSymbolTableRecord
100
AcDbDimStyleTableRecord
  2
STANDARD
 70
     0
  3

  4

  5

  6

  7

 40
1.0
 41
0.18
 42
0.0625
 43
0.38
 44
0.18
 45
0.0
 46
0.0
 47
0.0
 48
0.0
140
0.18
141
0.09
142
0.0
143
25.4
144
1.0
145
0.0
146
1.0
147
0.09
 71
     0
 72
     0
 73
     1
 74
     1
 75
     0
 76
     0
 77
     0
 78
     0
170
     0
171
     2
172
     0
173
     0
174
     0
175
     0
176
     0
177
     0
178
     0
270
     2
271
     4
272
     4
273
     2
274
     2
340
11
275
     0
280
     0
281
     0
282
     0
283
     1
284
     0
285
     0
286
     0
287
     3
288
     0
  0
ENDTAB
  0
TABLE
  2
BLOCK_RECORD
  5
1
330
0
100
AcDbSymbolTable
 70
     1
  0
BLOCK_RECORD
  5
1F
330
1
100
AcDbSymbolTableRecord
100
AcDbBlockTableRecord
  2
*MODEL_SPACE
  0
BLOCK_RECORD
  5
1B
330
1
100
AcDbSymbolTableRecord
100
AcDbBlockTableRecord
  2
*PAPER_SPACE
  0
ENDTAB
  0
ENDSEC
  0
SECTION
  2
BLOCKS
  0
BLOCK
  5
20
330
1F
100
AcDbEntity
  8
0
100
AcDbBlockBegin
  2
*MODEL_SPACE
 70
     0
 10
0.0
 20
0.0
 30
0.0
  3
*MODEL_SPACE
  1

  0
ENDBLK
  5
21
330
1F
100
AcDbEntity
  8
0
100
AcDbBlockEnd
  0
BLOCK
  5
1C
330
1B
100
AcDbEntity
 67
     1
  8
0
100
AcDbBlockBegin
  2
*PAPER_SPACE
 70
     0
 10
0.0
 20
0.0
 30
0.0
  3
*PAPER_SPACE
  1

  0
ENDBLK
  5
1D
330
1B
100
AcDbEntity
 67
     1
  8
0
100
AcDbBlockEnd
  0
ENDSEC
  0
SECTION
  2
ENTITIES
  0
LINE
  5
6C
330
1F
100
AcDbEntity
  8
0
100
AcDbLine
 10
104.7500013253406
 20
238.8509611165119
 30
0.0
 11
105.0606614971204
 21
239.0893390504089
 31
0.0
  0
LINE
  5
6D
330
1F
100
AcDbEntity
  8
0
100
AcDbLine
 10
104.7500013253406
 20
238.8509611165119
 30
0.0
 11
104.3882298929943
 21
238.7011104827549
 31
0.0
  0
LINE
  5
6E
330
1F
100
AcDbEntity
  8
0
100
AcDbLine
 10
104.3882298929943
 20
238.7011104827549
 30
0.0
 11
104.0000013253406
 21
238.6499992221886
 31
0.0
  0
LINE
  5
6F
330
1F
100
AcDbEntity
  8
0
100
AcDbLine
 10
103.6117727576867
 20
238.7011104827549
 30
0.0
 11
104.0000013253406
 21
238.6499992221886
 31
0.0
  0
LINE
  5
70
330
1F
100
AcDbEntity
  8
0
100
AcDbLine
 10
0.0000013241806851
 20
241.6499992221888
 30
0.0
 11
0.3882298918345764
 21
241.5988879616225
 31
0.0
  0
LINE
  5
71
330
1F
100
AcDbEntity
  8
0
100
AcDbLine
 10
0.3882298918345764
 20
241.5988879616225
 30
0.0
 11
0.7500013241804694
 21
241.4490373278657
 31
0.0
  0
LINE
  5
72
330
1F
100
AcDbEntity
  8
0
100
AcDbLine
 10
0.7500013241804694
 20
241.4490373278657
 30
0.0
 11
1.060661495960667
 21
241.2106593939687
 31
0.0
  0
LINE
  5
73
330
1F
100
AcDbEntity
  8
0
100
AcDbLine
 10
1.060661495960667
 20
241.2106593939687
 30
0.0
 11
1.299039429857448
 21
240.899999222188
 31
0.0
  0
LINE
  5
74
330
1F
100
AcDbEntity
  8
0
100
AcDbLine
 10
1.060661495960667
 20
239.0893390504091
 30
0.0
 11
0.7500013241804694
 21
238.8509611165123
 31
0.0
  0
LINE
  5
75
330
1F
100
AcDbEntity
  8
0
100
AcDbLine
 10
0.7500013241804694
 20
238.8509611165123
 30
0.0
 11
0.3882298918343508
 21
238.7011104827553
 31
0.0
  0
LINE
  5
76
330
1F
100
AcDbEntity
  8
0
100
AcDbLine
 10
-105.2990367747371
 20
-239.3999992281047
 30
0.0
 11
-105.0606588408401
 21
-239.0893390563249
 31
0.0
  0
LINE
  5
77
330
1F
100
AcDbEntity
  8
0
100
AcDbLine
 10
74.00000132534139
 20
-243.1499992281077
 30
0.0
 11
84.00000132534055
 21
-243.1499992281077
 31
0.0
  0
LINE
  5
78
330
1F
100
AcDbEntity
  8
0
100
AcDbLine
 10
74.00000132534147
 20
-237.1499992281062
 30
0.0
 11
74.00000132534139
 21
-243.1499992281077
 31
0.0
  0
LINE
  5
79
330
1F
100
AcDbEntity
  8
0
100
AcDbLine
 10
105.5000013253406
 20
-240.1499992281023
 30
0.0
 11
105.4488900647736
 21
-240.5382277957563
 31
0.0
  0
LINE
  5
7A
330
1F
100
AcDbEntity
  8
0
100
AcDbLine
 10
103.2500013253406
 20
-241.4490373337782
 30
0.0
 11
103.6117727576867
 21
-241.598887967536
 31
0.0
  0
LINE
  5
7B
330
1F
100
AcDbEntity
  8
0
100
AcDbLine
 10
-94.90402717857555
 20
130.4927218633505
 30
0.0
 11
-95.14004043154907
 21
129.1499982501815
 31
0.0
  0
LINE
  5
7C
330
1F
100
AcDbEntity
  8
0
100
AcDbLine
 10
-97.19129771090422
 20
111.1572676324332
 30
0.0
 11
-95.14004043154907
 21
129.1499982501815
 31
0.0
  0
LINE
  5
7D
330
1F
100
AcDbEntity
  8
0
100
AcDbLine
 10
-100.1061399736231
 20
83.13440036265794
 30
0.0
 11
-97.19129771090422
 21
111.1572676324332
 31
0.0
  0
LINE
  5
7E
330
1F
100
AcDbEntity
  8
0
100
AcDbLine
 10
-103.6117701014064
 20
241.59888796162
 30
0.0
 11
-103.24999866906
 21
241.4490373278631
 31
0.0
  0
LINE
  5
7F
330
1F
100
AcDbEntity
  8
0
100
AcDbLine
 10
-103.24999866906
 20
241.4490373278631
 30
0.0
 11
-102.9393384972803
 21
241.2106593939662
 31
0.0
  0
LINE
  5
80
330
1F
100
AcDbEntity
  8
0
100
AcDbLine
 10
-102.9393384972803
 20
241.2106593939662
 30
0.0
 11
-102.7009605633835
 21
240.8999992221873
 31
0.0
  0
LINE
  5
81
330
1F
100
AcDbEntity
  8
0
100
AcDbLine
 10
-102.7009605633835
 20
240.8999992221873
 30
0.0
 11
-102.5511099296264
 21
240.5382277898401
 31
0.0
  0
LINE
  5
82
330
1F
100
AcDbEntity
  8
0
100
AcDbLine
 10
-103.6117701014064
 20
238.7011104827526
 30
0.0
 11
-103.9999986690602
 21
238.6499992221861
 31
0.0
  0
LINE
  5
83
330
1F
100
AcDbEntity
  8
0
100
AcDbLine
 10
-102.4999986690601
 20
240.1499992221872
 30
0.0
 11
-102.5511099296264
 21
239.7617706545325
 31
0.0
  0
LINE
  5
84
330
1F
100
AcDbEntity
  8
0
100
AcDbLine
 10
-102.5511099296264
 20
239.7617706545325
 30
0.0
 11
-102.7009605633835
 21
239.3999992221872
 31
0.0
  0
LINE
  5
85
330
1F
100
AcDbEntity
  8
0
100
AcDbLine
 10
-102.7009605633835
 20
239.3999992221872
 30
0.0
 11
-102.9393384972803
 21
239.0893390504064
 31
0.0
  0
LINE
  5
86
330
1F
100
AcDbEntity
  8
0
100
AcDbLine
 10
-102.9393384972803
 20
239.0893390504064
 30
0.0
 11
-103.2499986690601
 21
238.8509611165096
 31
0.0
  0
LINE
  5
87
330
1F
100
AcDbEntity
  8
0
100
AcDbLine
 10
-103.2499986690601
 20
238.8509611165096
 30
0.0
 11
-103.6117701014064
 21
238.7011104827526
 31
0.0
  0
LINE
  5
88
330
1F
100
AcDbEntity
  8
0
100
AcDbLine
 10
-130.0758182823149
 20
175.4500794683916
 30
0.0
 11
-32.9004770457235
 21
175.4500794683907
 31
0.0
  0
LINE
  5
89
330
1F
100
AcDbEntity
  8
0
100
AcDbLine
 10
-113.4438051209348
 20
-141.8053223452382
 30
0.0
 11
-112.7486215390614
 21
-113.6398449802208
 31
0.0
  0
LINE
  5
8A
330
1F
100
AcDbEntity
  8
0
100
AcDbLine
 10
-113.8609423691163
 20
-169.9762895264249
 30
0.0
 11
-113.4438051209348
 21
-141.8053223452382
 31
0.0
  0
LINE
  5
8B
330
1F
100
AcDbEntity
  8
0
100
AcDbLine
 10
-113.9999926407847
 20
-198.1500017494238
 30
0.0
 11
-113.8609423691163
 21
-169.9762895264249
 31
0.0
  0
LINE
  5
8C
330
1F
100
AcDbEntity
  8
0
100
AcDbLine
 10
-9.885852590129538
 20
179.9131194608487
 30
0.0
 11
-9.988075111262374
 21
180.6895765961563
 31
0.0
  0
LINE
  5
8D
330
1F
100
AcDbEntity
  8
0
100
AcDbLine
 10
138.0000013252572
 20
-190.6499992281167
 30
0.0
 11
138.0000013252572
 21
-188.1499992281165
 31
0.0
  0
LINE
  5
8E
330
1F
100
AcDbEntity
  8
0
100
AcDbLine
 10
138.0000013252572
 20
-188.1499992281165
 30
0.0
 11
135.0000013252573
 21
-188.1499992281166
 31
0.0
  0
LINE
  5
8F
330
1F
100
AcDbEntity
  8
0
100
AcDbLine
 10
135.0000013252572
 20
-190.6499992281166
 30
0.0
 11
135.0000013252573
 21
-188.1499992281166
 31
0.0
  0
LINE
  5
90
330
1F
100
AcDbEntity
  8
0
100
AcDbLine
 10
135.0000013252572
 20
-190.6499992281166
 30
0.0
 11
133.0000013252574
 21
-190.6499992281165
 31
0.0
  0
LINE
  5
91
330
1F
100
AcDbEntity
  8
0
100
AcDbLine
 10
133.0000013252574
 20
-190.6499992281165
 30
0.0
 11
133.0000013252578
 21
-193.6499992281167
 31
0.0
  0
LINE
  5
92
330
1F
100
AcDbEntity
  8
0
100
AcDbLine
 10
144.0000010250681
 20
-248.1499992281162
 30
0.0
 11
144.0000013252595
 21
-222.1499992281172
 31
0.0
  0
LINE
  5
93
330
1F
100
AcDbEntity
  8
0
100
AcDbLine
 10
-133.999998669059
 20
-243.1499992281137
 30
0.0
 11
-123.9999986691409
 21
-243.1499992281138
 31
0.0
  0
LINE
  5
94
330
1F
100
AcDbEntity
  8
0
100
AcDbLine
 10
-133.999998669059
 20
-237.1499992281131
 30
0.0
 11
-133.999998669059
 21
-243.1499992281137
 31
0.0
  0
LINE
  5
95
330
1F
100
AcDbEntity
  8
0
100
AcDbLine
 10
30.00000132409874
 20
-237.1499992280979
 30
0.0
 11
20.00000132418078
 21
-237.1499992280978
 31
0.0
  0
LINE
  5
96
330
1F
100
AcDbEntity
  8
0
100
AcDbLine
 10
30.00000132409896
 20
-243.1499992280985
 30
0.0
 11
30.00000132409874
 21
-237.1499992280979
 31
0.0
  0
LINE
  5
97
330
1F
100
AcDbEntity
  8
0
100
AcDbLine
 10
-143.9999986447449
 20
-222.1500007752791
 30
0.0
 11
-143.9999823808784
 21
-248.1499992281161
 31
0.0
  0
LINE
  5
98
330
1F
100
AcDbEntity
  8
0
100
AcDbLine
 10
-137.9999986446942
 20
65.54999922488676
 30
0.0
 11
-137.9999986446937
 21
68.04999922488692
 31
0.0
  0
LINE
  5
99
330
1F
100
AcDbEntity
  8
0
100
AcDbLine
 10
-1.299036781495897
 20
-239.399999228103
 30
0.0
 11
-1.060658847599116
 21
-239.0893390563224
 31
0.0
  0
LINE
  5
9A
330
1F
100
AcDbEntity
  8
0
100
AcDbLine
 10
-105.448887408494
 20
-239.761770660451
 30
0.0
 11
-105.2990367747371
 21
-239.3999992281047
 31
0.0
  0
LINE
  5
9B
330
1F
100
AcDbEntity
  8
0
100
AcDbLine
 10
-105.4999986690603
 20
-240.1499992281048
 30
0.0
 11
-105.448887408494
 21
-239.761770660451
 31
0.0
  0
LINE
  5
9C
330
1F
100
AcDbEntity
  8
0
100
AcDbLine
 10
-102.4999986690601
 20
-240.1499992281039
 30
0.0
 11
-102.5511099296264
 21
-240.5382277957586
 31
0.0
  0
LINE
  5
9D
330
1F
100
AcDbEntity
  8
0
100
AcDbLine
 10
-102.5511099296264
 20
-239.761770660451
 30
0.0
 11
-102.4999986690601
 21
-240.1499992281039
 31
0.0
  0
LINE
  5
9E
330
1F
100
AcDbEntity
  8
0
100
AcDbLine
 10
-104.3882272367139
 20
-238.7011104886711
 30
0.0
 11
-103.9999986690603
 21
-238.6499992281047
 31
0.0
  0
LINE
  5
9F
330
1F
100
AcDbEntity
  8
0
100
AcDbLine
 10
-105.299036774737
 20
-240.8999992281049
 30
0.0
 11
-105.448887408494
 21
-240.5382277957586
 31
0.0
  0
LINE
  5
A0
330
1F
100
AcDbEntity
  8
0
100
AcDbLine
 10
-105.0606588408401
 20
-241.2106593998847
 30
0.0
 11
-105.299036774737
 21
-240.8999992281049
 31
0.0
  0
LINE
  5
A1
330
1F
100
AcDbEntity
  8
0
100
AcDbLine
 10
-104.7499986690602
 20
-241.4490373337815
 30
0.0
 11
-105.0606588408401
 21
-241.2106593998847
 31
0.0
  0
LINE
  5
A2
330
1F
100
AcDbEntity
  8
0
100
AcDbLine
 10
-104.388227236714
 20
-241.5988879675384
 30
0.0
 11
-104.7499986690602
 21
-241.4490373337815
 31
0.0
  0
LINE
  5
A3
330
1F
100
AcDbEntity
  8
0
100
AcDbLine
 10
-103.9999986690603
 20
-241.649999228105
 30
0.0
 11
-104.388227236714
 21
-241.5988879675384
 31
0.0
  0
LINE
  5
A4
330
1F
100
AcDbEntity
  8
0
100
AcDbLine
 10
-103.6117701014064
 20
-241.5988879675384
 30
0.0
 11
-103.9999986690603
 21
-241.649999228105
 31
0.0
  0
LINE
  5
A5
330
1F
100
AcDbEntity
  8
0
100
AcDbLine
 10
-103.24999866906
 20
-241.4490373337814
 30
0.0
 11
-103.6117701014064
 21
-241.5988879675384
 31
0.0
  0
LINE
  5
A6
330
1F
100
AcDbEntity
  8
0
100
AcDbLine
 10
-102.9393384972803
 20
-241.2106593998847
 30
0.0
 11
-103.24999866906
 21
-241.4490373337814
 31
0.0
  0
LINE
  5
A7
330
1F
100
AcDbEntity
  8
0
100
AcDbLine
 10
20.00000132418101
 20
-243.1499992280984
 30
0.0
 11
30.00000132409896
 21
-243.1499992280985
 31
0.0
  0
LINE
  5
A8
330
1F
100
AcDbEntity
  8
0
100
AcDbLine
 10
-102.7009605633835
 20
-240.8999992281039
 30
0.0
 11
-102.9393384972803
 21
-241.2106593998847
 31
0.0
  0
LINE
  5
A9
330
1F
100
AcDbEntity
  8
0
100
AcDbLine
 10
-104.388227236714
 20
241.59888796162
 30
0.0
 11
-103.9999986690602
 21
241.6499992221863
 31
0.0
  0
LINE
  5
AA
330
1F
100
AcDbEntity
  8
0
100
AcDbLine
 10
89.23132645510567
 20
137.8538256208308
 30
0.0
 11
90.39315127771609
 21
137.1471186011484
 31
0.0
  0
LINE
  5
AB
330
1F
100
AcDbEntity
  8
0
100
AcDbLine
 10
144.0000013252842
 20
212.1499992248445
 30
0.0
 11
150.0000011762633
 21
212.1499992248447
 31
0.0
  0
LINE
  5
AC
330
1F
100
AcDbEntity
  8
0
100
AcDbLine
 10
150.0000011762633
 20
212.1499992248447
 30
0.0
 11
150.0000011762635
 21
222.1499992247639
 31
0.0
  0
LINE
  5
AD
330
1F
100
AcDbEntity
  8
0
100
AcDbLine
 10
144.0000013253307
 20
222.1499992247637
 30
0.0
 11
150.0000011762635
 21
222.1499992247639
 31
0.0
  0
LINE
  5
AE
330
1F
100
AcDbEntity
  8
0
100
AcDbLine
 10
144.0000013253307
 20
222.1499992247637
 30
0.0
 11
144.000001399735
 21
248.1499992281162
 31
0.0
  0
LINE
  5
AF
330
1F
100
AcDbEntity
  8
0
100
AcDbLine
 10
-143.9999986024069
 20
248.1499992247618
 30
0.0
 11
144.000001399735
 21
248.1499992281162
 31
0.0
  0
LINE
  5
B0
330
1F
100
AcDbEntity
  8
0
100
AcDbLine
 10
-4.988069055430383
 20
201.1536782112942
 30
0.0
 11
-4.159641930683956
 21
200.5180037209026
 31
0.0
  0
LINE
  5
B1
330
1F
100
AcDbEntity
  8
0
100
AcDbLine
 10
-4.159641930683956
 20
200.5180037209026
 30
0.0
 11
-3.5239674402926
 21
199.6895765961563
 31
0.0
  0
LINE
  5
B2
330
1F
100
AcDbEntity
  8
0
100
AcDbLine
 10
105.2990394310171
 20
240.8999992221887
 30
0.0
 11
105.4488900647736
 21
240.5382277898424
 31
0.0
  0
LINE
  5
B3
330
1F
100
AcDbEntity
  8
0
100
AcDbLine
 10
105.5000013253407
 20
240.1499992221886
 30
0.0
 11
105.4488900647736
 21
240.5382277898424
 31
0.0
  0
LINE
  5
B4
330
1F
100
AcDbEntity
  8
0
100
AcDbLine
 10
105.5000013253407
 20
240.1499992221886
 30
0.0
 11
105.4488900647741
 21
239.7617706545348
 31
0.0
  0
LINE
  5
B5
330
1F
100
AcDbEntity
  8
0
100
AcDbLine
 10
105.2990394310171
 20
239.3999992221887
 30
0.0
 11
105.4488900647741
 21
239.7617706545348
 31
0.0
  0
LINE
  5
B6
330
1F
100
AcDbEntity
  8
0
100
AcDbLine
 10
105.2990394310171
 20
239.3999992221887
 30
0.0
 11
105.0606614971204
 21
239.0893390504089
 31
0.0
  0
LINE
  5
B7
330
1F
100
AcDbEntity
  8
0
100
AcDbLine
 10
102.5511125859064
 20
240.5382277898424
 30
0.0
 11
102.5000013253406
 21
240.1499992221895
 31
0.0
  0
LINE
  5
B8
330
1F
100
AcDbEntity
  8
0
100
AcDbLine
 10
102.5511125859069
 20
239.7617706545348
 30
0.0
 11
102.5000013253406
 21
240.1499992221895
 31
0.0
  0
LINE
  5
B9
330
1F
100
AcDbEntity
  8
0
100
AcDbLine
 10
102.7009632196638
 20
239.3999992221895
 30
0.0
 11
102.5511125859069
 21
239.7617706545348
 31
0.0
  0
LINE
  5
BA
330
1F
100
AcDbEntity
  8
0
100
AcDbLine
 10
102.9393411535608
 20
239.0893390504089
 30
0.0
 11
102.7009632196638
 21
239.3999992221895
 31
0.0
  0
LINE
  5
BB
330
1F
100
AcDbEntity
  8
0
100
AcDbLine
 10
103.2500013253405
 20
238.8509611165128
 30
0.0
 11
102.9393411535608
 21
239.0893390504089
 31
0.0
  0
LINE
  5
BC
330
1F
100
AcDbEntity
  8
0
100
AcDbLine
 10
-1.060658847599116
 20
-239.0893390563224
 30
0.0
 11
-0.7499986758193248
 21
-238.8509611224264
 31
0.0
  0
LINE
  5
BD
330
1F
100
AcDbEntity
  8
0
100
AcDbLine
 10
-150.0000011762616
 20
94.04999922496673
 30
0.0
 11
-150.0000011762639
 21
84.04999922504742
 31
0.0
  0
LINE
  5
BE
330
1F
100
AcDbEntity
  8
0
100
AcDbLine
 10
-134.9999986446936
 20
62.54999922488582
 30
0.0
 11
-134.9999986446942
 21
60.04999922488584
 31
0.0
  0
LINE
  5
BF
330
1F
100
AcDbEntity
  8
0
100
AcDbLine
 10
138.0000013252867
 20
-68.04999922795959
 30
0.0
 11
135.0000013252856
 21
-68.04999922795977
 31
0.0
  0
LINE
  5
C0
330
1F
100
AcDbEntity
  8
0
100
AcDbLine
 10
138.0000013252866
 20
-65.54999922795943
 30
0.0
 11
138.0000013252867
 21
-68.04999922795959
 31
0.0
  0
LINE
  5
C1
330
1F
100
AcDbEntity
  8
0
100
AcDbLine
 10
144.0000013252862
 20
-65.54999922795908
 30
0.0
 11
138.0000013252866
 21
-65.54999922795943
 31
0.0
  0
LINE
  5
C2
330
1F
100
AcDbEntity
  8
0
100
AcDbLine
 10
144.0000013252876
 20
-84.04999922795866
 30
0.0
 11
144.0000013252862
 21
-65.54999922795908
 31
0.0
  0
LINE
  5
C3
330
1F
100
AcDbEntity
  8
0
100
AcDbLine
 10
-150.0000011762616
 20
-34.05000077511996
 30
0.0
 11
-150.0000011762639
 21
-44.05000077503927
 31
0.0
  0
LINE
  5
C4
330
1F
100
AcDbEntity
  8
0
100
AcDbLine
 10
-1.060658847599342
 20
-241.210659399882
 30
0.0
 11
-1.299036781495897
 21
-240.8999992281031
 31
0.0
  0
LINE
  5
C5
330
1F
100
AcDbEntity
  8
0
100
AcDbLine
 10
-1.299036781495897
 20
-240.8999992281031
 30
0.0
 11
-1.448887415252827
 21
-240.5382277957559
 31
0.0
  0
LINE
  5
C6
330
1F
100
AcDbEntity
  8
0
100
AcDbLine
 10
-134.9999986446936
 20
190.6499992248046
 30
0.0
 11
-134.9999986446942
 21
188.1499992248046
 31
0.0
  0
LINE
  5
C7
330
1F
100
AcDbEntity
  8
0
100
AcDbLine
 10
-134.9999986446936
 20
190.6499992248046
 30
0.0
 11
-132.9999986446935
 21
190.6499992248036
 31
0.0
  0
LINE
  5
C8
330
1F
100
AcDbEntity
  8
0
100
AcDbLine
 10
-132.9999986446935
 20
190.6499992248036
 30
0.0
 11
-132.9999986446934
 21
193.649999224804
 31
0.0
  0
LINE
  5
C9
330
1F
100
AcDbEntity
  8
0
100
AcDbLine
 10
137.9999989760329
 20
68.05000077212031
 30
0.0
 11
134.999998976033
 21
68.05000077212058
 31
0.0
  0
LINE
  5
CA
330
1F
100
AcDbEntity
  8
0
100
AcDbLine
 10
134.999998976033
 20
65.55000077212061
 30
0.0
 11
134.999998976033
 21
68.05000077212058
 31
0.0
  0
LINE
  5
CB
330
1F
100
AcDbEntity
  8
0
100
AcDbLine
 10
134.999998976033
 20
65.55000077212061
 30
0.0
 11
132.9999989760331
 21
65.55000077212124
 31
0.0
  0
LINE
  5
CC
330
1F
100
AcDbEntity
  8
0
100
AcDbLine
 10
132.9999989760331
 20
65.55000077212124
 30
0.0
 11
132.9999989760335
 21
62.55000077212102
 31
0.0
  0
LINE
  5
CD
330
1F
100
AcDbEntity
  8
0
100
AcDbLine
 10
134.999998976033
 20
62.55000077212039
 30
0.0
 11
132.9999989760335
 21
62.55000077212102
 31
0.0
  0
LINE
  5
CE
330
1F
100
AcDbEntity
  8
0
100
AcDbLine
 10
-137.9999986446942
 20
193.6499992248065
 30
0.0
 11
-137.9999986446937
 21
196.1499992248067
 31
0.0
  0
LINE
  5
CF
330
1F
100
AcDbEntity
  8
0
100
AcDbLine
 10
-137.9999986446942
 20
193.6499992248065
 30
0.0
 11
-143.9999986446936
 21
193.6499992248073
 31
0.0
  0
LINE
  5
D0
330
1F
100
AcDbEntity
  8
0
100
AcDbLine
 10
-143.9999986446936
 20
193.6499992248073
 30
0.0
 11
-143.9999986447449
 21
212.1499992249653
 31
0.0
  0
LINE
  5
D1
330
1F
100
AcDbEntity
  8
0
100
AcDbLine
 10
-143.9999986447449
 20
212.1499992249653
 30
0.0
 11
-150.0000011762639
 21
212.1499992249662
 31
0.0
  0
LINE
  5
D2
330
1F
100
AcDbEntity
  8
0
100
AcDbLine
 10
-150.0000011762616
 20
222.1499992248856
 30
0.0
 11
-150.0000011762639
 21
212.1499992249662
 31
0.0
  0
LINE
  5
D3
330
1F
100
AcDbEntity
  8
0
100
AcDbLine
 10
-143.9999986446964
 20
222.1499992248843
 30
0.0
 11
-150.0000011762616
 21
222.1499992248856
 31
0.0
  0
LINE
  5
D4
330
1F
100
AcDbEntity
  8
0
100
AcDbLine
 10
-143.9999986446964
 20
222.1499992248843
 30
0.0
 11
-143.9999986024069
 21
248.1499992247618
 31
0.0
  0
LINE
  5
D5
330
1F
100
AcDbEntity
  8
0
100
AcDbLine
 10
143.9999989760783
 20
94.05000077203977
 30
0.0
 11
149.9999988270114
 21
94.04999922496297
 31
0.0
  0
LINE
  5
D6
330
1F
100
AcDbEntity
  8
0
100
AcDbLine
 10
149.9999988270106
 20
84.04999922504376
 30
0.0
 11
149.9999988270114
 21
94.04999922496297
 31
0.0
  0
LINE
  5
D7
330
1F
100
AcDbEntity
  8
0
100
AcDbLine
 10
143.9999989760314
 20
84.05000077212055
 30
0.0
 11
149.9999988270106
 21
84.04999922504376
 31
0.0
  0
LINE
  5
D8
330
1F
100
AcDbEntity
  8
0
100
AcDbLine
 10
143.9999989760331
 20
65.55000077212097
 30
0.0
 11
143.9999989760314
 21
84.05000077212055
 31
0.0
  0
LINE
  5
D9
330
1F
100
AcDbEntity
  8
0
100
AcDbLine
 10
143.9999989760331
 20
65.55000077212097
 30
0.0
 11
137.999998976033
 21
65.55000077212016
 31
0.0
  0
LINE
  5
DA
330
1F
100
AcDbEntity
  8
0
100
AcDbLine
 10
150.0000011762354
 20
-172.1500007751944
 30
0.0
 11
150.0000011762356
 21
-162.1500007752752
 31
0.0
  0
LINE
  5
DB
330
1F
100
AcDbEntity
  8
0
100
AcDbLine
 10
144.000001325256
 20
-172.1499992281176
 30
0.0
 11
150.0000011762354
 21
-172.1500007751944
 31
0.0
  0
LINE
  5
DC
330
1F
100
AcDbEntity
  8
0
100
AcDbLine
 10
144.0000013252573
 20
-190.6499992281172
 30
0.0
 11
144.000001325256
 21
-172.1499992281176
 31
0.0
  0
LINE
  5
DD
330
1F
100
AcDbEntity
  8
0
100
AcDbLine
 10
144.0000013252573
 20
-190.6499992281172
 30
0.0
 11
138.0000013252572
 21
-190.6499992281167
 31
0.0
  0
LINE
  5
DE
330
1F
100
AcDbEntity
  8
0
100
AcDbLine
 10
137.999998976033
 20
65.55000077212016
 30
0.0
 11
137.9999989760329
 21
68.05000077212031
 31
0.0
  0
LINE
  5
DF
330
1F
100
AcDbEntity
  8
0
100
AcDbLine
 10
134.999998976033
 20
62.55000077212039
 30
0.0
 11
134.999998976033
 21
60.05000077212024
 31
0.0
  0
LINE
  5
E0
330
1F
100
AcDbEntity
  8
0
100
AcDbLine
 10
137.9999989760341
 20
60.05000077211997
 30
0.0
 11
134.999998976033
 21
60.05000077212024
 31
0.0
  0
LINE
  5
E1
330
1F
100
AcDbEntity
  8
0
100
AcDbLine
 10
137.999998976034
 20
62.55000077212012
 30
0.0
 11
137.9999989760341
 21
60.05000077211997
 31
0.0
  0
LINE
  5
E2
330
1F
100
AcDbEntity
  8
0
100
AcDbLine
 10
143.9999989760335
 20
62.55000077212093
 30
0.0
 11
137.999998976034
 21
62.55000077212012
 31
0.0
  0
LINE
  5
E3
330
1F
100
AcDbEntity
  8
0
100
AcDbLine
 10
143.9999989760354
 20
44.05000077212135
 30
0.0
 11
143.9999989760335
 21
62.55000077212093
 31
0.0
  0
LINE
  5
E4
330
1F
100
AcDbEntity
  8
0
100
AcDbLine
 10
143.9999989760354
 20
44.05000077212135
 30
0.0
 11
149.9999985584465
 21
44.04999922504537
 31
0.0
  0
LINE
  5
E5
330
1F
100
AcDbEntity
  8
0
100
AcDbLine
 10
149.9999985584465
 20
44.04999922504537
 30
0.0
 11
149.9999985584471
 21
34.04999922504503
 31
0.0
  0
LINE
  5
E6
330
1F
100
AcDbEntity
  8
0
100
AcDbLine
 10
143.9999989760357
 20
34.05000077212101
 30
0.0
 11
149.9999985584471
 21
34.04999922504503
 31
0.0
  0
LINE
  5
E7
330
1F
100
AcDbEntity
  8
0
100
AcDbLine
 10
144.0000013253308
 20
-34.04999922804024
 30
0.0
 11
150.000001176264
 21
-34.05000077511708
 31
0.0
  0
LINE
  5
E8
330
1F
100
AcDbEntity
  8
0
100
AcDbLine
 10
150.0000011762633
 20
-44.0500007750367
 30
0.0
 11
150.000001176264
 21
-34.05000077511708
 31
0.0
  0
LINE
  5
E9
330
1F
100
AcDbEntity
  8
0
100
AcDbLine
 10
144.0000013252839
 20
-44.04999922795945
 30
0.0
 11
150.0000011762633
 21
-44.0500007750367
 31
0.0
  0
LINE
  5
EA
330
1F
100
AcDbEntity
  8
0
100
AcDbLine
 10
144.0000013252856
 20
-62.54999922795904
 30
0.0
 11
144.0000013252839
 21
-44.04999922795945
 31
0.0
  0
LINE
  5
EB
330
1F
100
AcDbEntity
  8
0
100
AcDbLine
 10
144.0000013252856
 20
-62.54999922795904
 30
0.0
 11
138.0000013252856
 21
-62.5499992279594
 31
0.0
  0
LINE
  5
EC
330
1F
100
AcDbEntity
  8
0
100
AcDbLine
 10
138.0000013252856
 20
-62.5499992279594
 30
0.0
 11
138.0000013252856
 21
-60.04999922795925
 31
0.0
  0
LINE
  5
ED
330
1F
100
AcDbEntity
  8
0
100
AcDbLine
 10
138.0000013252856
 20
-60.04999922795925
 30
0.0
 11
135.0000013252856
 21
-60.04999922795943
 31
0.0
  0
LINE
  5
EE
330
1F
100
AcDbEntity
  8
0
100
AcDbLine
 10
135.0000013252856
 20
-65.54999922795962
 30
0.0
 11
133.0000013252861
 21
-65.54999922795854
 31
0.0
  0
LINE
  5
EF
330
1F
100
AcDbEntity
  8
0
100
AcDbLine
 10
135.0000013252856
 20
-65.54999922795962
 30
0.0
 11
135.0000013252856
 21
-68.04999922795977
 31
0.0
  0
LINE
  5
F0
330
1F
100
AcDbEntity
  8
0
100
AcDbLine
 10
144.0000013252883
 20
-94.049999227959
 30
0.0
 11
144.0000013252876
 21
-84.04999922795866
 31
0.0
  0
LINE
  5
F1
330
1F
100
AcDbEntity
  8
0
100
AcDbLine
 10
144.0000013253025
 20
-162.1499992281984
 30
0.0
 11
144.0000013252883
 21
-94.049999227959
 31
0.0
  0
LINE
  5
F2
330
1F
100
AcDbEntity
  8
0
100
AcDbLine
 10
144.0000013253025
 20
-162.1499992281984
 30
0.0
 11
150.0000011762356
 21
-162.1500007752752
 31
0.0
  0
LINE
  5
F3
330
1F
100
AcDbEntity
  8
0
100
AcDbLine
 10
-103.2499986690601
 20
-238.8509611224279
 30
0.0
 11
-102.9393384972803
 21
-239.0893390563249
 31
0.0
  0
LINE
  5
F4
330
1F
100
AcDbEntity
  8
0
100
AcDbLine
 10
-19.99999867581935
 20
-237.1499992281059
 30
0.0
 11
-29.99999867581851
 21
-237.1499992281059
 31
0.0
  0
LINE
  5
F5
330
1F
100
AcDbEntity
  8
0
100
AcDbLine
 10
-134.9999986446936
 20
-65.55000077520087
 30
0.0
 11
-132.9999986446935
 21
-65.55000077520236
 31
0.0
  0
LINE
  5
F6
330
1F
100
AcDbEntity
  8
0
100
AcDbLine
 10
-134.9999986446936
 20
-65.55000077520087
 30
0.0
 11
-134.9999986446942
 21
-68.05000077520084
 31
0.0
  0
LINE
  5
F7
330
1F
100
AcDbEntity
  8
0
100
AcDbLine
 10
-137.9999986446937
 20
-65.5500007752006
 30
0.0
 11
-137.9999986446942
 21
-68.05000077520057
 31
0.0
  0
LINE
  5
F8
330
1F
100
AcDbEntity
  8
0
100
AcDbLine
 10
-143.9999986446938
 20
-65.55000077519834
 30
0.0
 11
-137.9999986446937
 21
-65.5500007752006
 31
0.0
  0
LINE
  5
F9
330
1F
100
AcDbEntity
  8
0
100
AcDbLine
 10
-143.9999986447449
 20
-94.05000077512021
 30
0.0
 11
-150.0000011762639
 21
-94.05000077511922
 31
0.0
  0
LINE
  5
FA
330
1F
100
AcDbEntity
  8
0
100
AcDbLine
 10
-0.7499986758195504
 20
-241.4490373337797
 30
0.0
 11
-1.060658847599342
 21
-241.210659399882
 31
0.0
  0
LINE
  5
FB
330
1F
100
AcDbEntity
  8
0
100
AcDbLine
 10
84.00000132534055
 20
-243.1499992281077
 30
0.0
 11
84.00000132534065
 21
-237.1499992281062
 31
0.0
  0
LINE
  5
FC
330
1F
100
AcDbEntity
  8
0
100
AcDbLine
 10
-19.99999867581935
 20
237.1499992221836
 30
0.0
 11
-19.99999867581912
 21
243.1499992221851
 31
0.0
  0
LINE
  5
FD
330
1F
100
AcDbEntity
  8
0
100
AcDbLine
 10
-29.99999867581851
 20
237.1499992221836
 30
0.0
 11
-19.99999867581935
 21
237.1499992221836
 31
0.0
  0
LINE
  5
FE
330
1F
100
AcDbEntity
  8
0
100
AcDbLine
 10
-29.99999867581829
 20
243.1499992221851
 30
0.0
 11
-29.99999867581851
 21
237.1499992221836
 31
0.0
  0
LINE
  5
FF
330
1F
100
AcDbEntity
  8
0
100
AcDbLine
 10
84.00000132534055
 20
243.149999222185
 30
0.0
 11
74.00000132534139
 21
243.149999222185
 31
0.0
  0
LINE
  5
100
330
1F
100
AcDbEntity
  8
0
100
AcDbLine
 10
-5.952792875020018
 20
201.5532799013117
 30
0.0
 11
-4.988069055430383
 21
201.1536782112942
 31
0.0
  0
LINE
  5
101
330
1F
100
AcDbEntity
  8
0
100
AcDbLine
 10
-73.99999866914143
 20
-243.1499992281132
 30
0.0
 11
-73.99999866914143
 21
-237.1499992281126
 31
0.0
  0
LINE
  5
102
330
1F
100
AcDbEntity
  8
0
100
AcDbLine
 10
105.2990394310172
 20
-239.3999992281023
 30
0.0
 11
105.4488900647741
 21
-239.7617706604487
 31
0.0
  0
LINE
  5
103
330
1F
100
AcDbEntity
  8
0
100
AcDbLine
 10
-1.448887415252827
 20
-239.7617706604483
 30
0.0
 11
-1.299036781495897
 21
-239.399999228103
 31
0.0
  0
LINE
  5
104
330
1F
100
AcDbEntity
  8
0
100
AcDbLine
 10
-137.9999986446942
 20
-68.05000077520057
 30
0.0
 11
-134.9999986446942
 21
-68.05000077520084
 31
0.0
  0
LINE
  5
105
330
1F
100
AcDbEntity
  8
0
100
AcDbLine
 10
104.7500013253407
 20
-241.4490373337792
 30
0.0
 11
104.3882298929943
 21
-241.5988879675361
 31
0.0
  0
LINE
  5
106
330
1F
100
AcDbEntity
  8
0
100
AcDbLine
 10
104.3882298929944
 20
241.5988879616221
 30
0.0
 11
104.7500013253406
 21
241.4490373278653
 31
0.0
  0
LINE
  5
107
330
1F
100
AcDbEntity
  8
0
100
AcDbLine
 10
104.0000013253401
 20
241.6499992221886
 30
0.0
 11
104.3882298929944
 21
241.5988879616221
 31
0.0
  0
LINE
  5
108
330
1F
100
AcDbEntity
  8
0
100
AcDbLine
 10
104.0000013253401
 20
241.6499992221886
 30
0.0
 11
103.6117727576868
 21
241.5988879616221
 31
0.0
  0
LINE
  5
109
330
1F
100
AcDbEntity
  8
0
100
AcDbLine
 10
103.2500013253405
 20
241.4490373278662
 30
0.0
 11
103.6117727576868
 21
241.5988879616221
 31
0.0
  0
LINE
  5
10A
330
1F
100
AcDbEntity
  8
0
100
AcDbLine
 10
-143.9999986447449
 20
34.04999922496648
 30
0.0
 11
-143.9999986446964
 21
-34.05000077512123
 31
0.0
  0
LINE
  5
10B
330
1F
100
AcDbEntity
  8
0
100
AcDbLine
 10
-137.9999986446937
 20
-60.05000077520022
 30
0.0
 11
-134.9999986446932
 21
-60.05000077520049
 31
0.0
  0
LINE
  5
10C
330
1F
100
AcDbEntity
  8
0
100
AcDbLine
 10
-137.9999986446942
 20
-62.55000077520038
 30
0.0
 11
-143.9999986446936
 21
-62.55000077519831
 31
0.0
  0
LINE
  5
10D
330
1F
100
AcDbEntity
  8
0
100
AcDbLine
 10
-137.9999986446942
 20
-62.55000077520038
 30
0.0
 11
-137.9999986446937
 21
-60.05000077520022
 31
0.0
  0
LINE
  5
10E
330
1F
100
AcDbEntity
  8
0
100
AcDbLine
 10
-134.9999986446937
 20
-62.55000077520065
 30
0.0
 11
-134.9999986446932
 21
-60.05000077520049
 31
0.0
  0
LINE
  5
10F
330
1F
100
AcDbEntity
  8
0
100
AcDbLine
 10
-134.9999986446937
 20
-62.55000077520065
 30
0.0
 11
-132.9999986446934
 21
-62.55000077520196
 31
0.0
  0
LINE
  5
110
330
1F
100
AcDbEntity
  8
0
100
AcDbLine
 10
-132.9999986446935
 20
-65.55000077520236
 30
0.0
 11
-132.9999986446934
 21
-62.55000077520196
 31
0.0
  0
LINE
  5
111
330
1F
100
AcDbEntity
  8
0
100
AcDbLine
 10
-105.3052545629255
 20
-218.0644503633951
 30
0.0
 11
-103.999992640725
 21
-218.1500017496579
 31
0.0
  0
LINE
  5
112
330
1F
100
AcDbEntity
  8
0
100
AcDbLine
 10
-143.9999986447449
 20
-44.05000077504026
 30
0.0
 11
-150.0000011762639
 21
-44.05000077503927
 31
0.0
  0
LINE
  5
113
330
1F
100
AcDbEntity
  8
0
100
AcDbLine
 10
-134.9999986446937
 20
193.6499992248048
 30
0.0
 11
-132.9999986446934
 21
193.649999224804
 31
0.0
  0
LINE
  5
114
330
1F
100
AcDbEntity
  8
0
100
AcDbLine
 10
-134.9999986446937
 20
193.6499992248048
 30
0.0
 11
-134.9999986446932
 21
196.149999224805
 31
0.0
  0
LINE
  5
115
330
1F
100
AcDbEntity
  8
0
100
AcDbLine
 10
-137.9999986446937
 20
196.1499992248067
 30
0.0
 11
-134.9999986446932
 21
196.149999224805
 31
0.0
  0
LINE
  5
116
330
1F
100
AcDbEntity
  8
0
100
AcDbLine
 10
-13.85022243392461
 20
213.1894633508128
 30
0.0
 11
-14.54952539145716
 21
214.8777300350947
 31
0.0
  0
LINE
  5
117
330
1F
100
AcDbEntity
  8
0
100
AcDbLine
 10
-3.5239674402926
 20
199.6895765961563
 30
0.0
 11
-3.124365750273865
 21
198.7248527765655
 31
0.0
  0
LINE
  5
118
330
1F
100
AcDbEntity
  8
0
100
AcDbLine
 10
-3.124365750273865
 20
198.7248527765655
 30
0.0
 11
-2.988069055430387
 21
197.6895765961555
 31
0.0
  0
LINE
  5
119
330
1F
100
AcDbEntity
  8
0
100
AcDbLine
 10
-2.988069055430387
 20
197.6895765961555
 30
0.0
 11
-3.124365750273865
 21
196.6543004157454
 31
0.0
  0
LINE
  5
11A
330
1F
100
AcDbEntity
  8
0
100
AcDbLine
 10
-3.124365750273865
 20
196.6543004157454
 30
0.0
 11
-3.523967440292374
 21
195.6895765961563
 31
0.0
  0
LINE
  5
11B
330
1F
100
AcDbEntity
  8
0
100
AcDbLine
 10
30.00000132409874
 20
237.1499992221926
 30
0.0
 11
30.00000132409896
 21
243.1499992221933
 31
0.0
  0
LINE
  5
11C
330
1F
100
AcDbEntity
  8
0
100
AcDbLine
 10
30.00000132409896
 20
243.1499992221933
 30
0.0
 11
20.00000132418101
 21
243.1499992221933
 31
0.0
  0
LINE
  5
11D
330
1F
100
AcDbEntity
  8
0
100
AcDbLine
 10
103.2500013253405
 20
238.8509611165128
 30
0.0
 11
103.6117727576867
 21
238.7011104827549
 31
0.0
  0
LINE
  5
11E
330
1F
100
AcDbEntity
  8
0
100
AcDbLine
 10
135.0000013252855
 20
-62.5499992279594
 30
0.0
 11
135.0000013252856
 21
-60.04999922795943
 31
0.0
  0
LINE
  5
11F
330
1F
100
AcDbEntity
  8
0
100
AcDbLine
 10
1.299039429857448
 20
240.899999222188
 30
0.0
 11
1.448890063614378
 21
240.5382277898428
 31
0.0
  0
LINE
  5
120
330
1F
100
AcDbEntity
  8
0
100
AcDbLine
 10
-132.9999986446935
 20
62.54999922488474
 30
0.0
 11
-132.9999986446934
 21
65.54999922488513
 31
0.0
  0
LINE
  5
121
330
1F
100
AcDbEntity
  8
0
100
AcDbLine
 10
135.0000013252855
 20
-62.5499992279594
 30
0.0
 11
133.0000013252857
 21
-62.54999922795832
 31
0.0
  0
LINE
  5
122
330
1F
100
AcDbEntity
  8
0
100
AcDbLine
 10
133.0000013252857
 20
-62.54999922795832
 30
0.0
 11
133.0000013252861
 21
-65.54999922795854
 31
0.0
  0
LINE
  5
123
330
1F
100
AcDbEntity
  8
0
100
AcDbLine
 10
104.7500013253406
 20
241.4490373278653
 30
0.0
 11
105.0606614971204
 21
241.2106593939685
 31
0.0
  0
LINE
  5
124
330
1F
100
AcDbEntity
  8
0
100
AcDbLine
 10
-102.7442354278327
 20
55.08412678451578
 30
0.0
 11
-100.1061399736231
 21
83.13440036265794
 31
0.0
  0
LINE
  5
125
330
1F
100
AcDbEntity
  8
0
100
AcDbLine
 10
-105.1053270366807
 20
27.00917991285462
 30
0.0
 11
-102.7442354278327
 21
55.08412678451578
 31
0.0
  0
LINE
  5
126
330
1F
100
AcDbEntity
  8
0
100
AcDbLine
 10
-107.1891847525553
 20
-1.087704833491896
 30
0.0
 11
-105.1053270366807
 21
27.00917991285462
 31
0.0
  0
LINE
  5
127
330
1F
100
AcDbEntity
  8
0
100
AcDbLine
 10
-108.9956055395017
 20
-29.20378989822229
 30
0.0
 11
-107.1891847525553
 21
-1.087704833491896
 31
0.0
  0
LINE
  5
128
330
1F
100
AcDbEntity
  8
0
100
AcDbLine
 10
-110.5244133930051
 20
-57.33633585429444
 30
0.0
 11
-108.9956055395017
 21
-29.20378989822229
 31
0.0
  0
LINE
  5
129
330
1F
100
AcDbEntity
  8
0
100
AcDbLine
 10
-111.7754593571341
 20
-85.48260167083815
 30
0.0
 11
-110.5244133930051
 21
-57.33633585429444
 31
0.0
  0
LINE
  5
12A
330
1F
100
AcDbEntity
  8
0
100
AcDbLine
 10
-112.7486215390614
 20
-113.6398449802208
 30
0.0
 11
-111.7754593571341
 21
-85.48260167083815
 31
0.0
  0
LINE
  5
12B
330
1F
100
AcDbEntity
  8
0
100
AcDbLine
 10
102.9393411535608
 20
241.2106593939685
 30
0.0
 11
103.2500013253405
 21
241.4490373278662
 31
0.0
  0
LINE
  5
12C
330
1F
100
AcDbEntity
  8
0
100
AcDbLine
 10
102.7009632196638
 20
240.8999992221895
 30
0.0
 11
102.9393411535608
 21
241.2106593939685
 31
0.0
  0
LINE
  5
12D
330
1F
100
AcDbEntity
  8
0
100
AcDbLine
 10
102.5511125859064
 20
240.5382277898424
 30
0.0
 11
102.7009632196638
 21
240.8999992221895
 31
0.0
  0
LINE
  5
12E
330
1F
100
AcDbEntity
  8
0
100
AcDbLine
 10
-9.988075111262374
 20
180.6895765961563
 30
0.0
 11
-9.885852590129538
 21
181.4660337314639
 31
0.0
  0
LINE
  5
12F
330
1F
100
AcDbEntity
  8
0
100
AcDbLine
 10
1.448890063614378
 20
240.5382277898428
 30
0.0
 11
1.500001324180479
 21
240.1499992221879
 31
0.0
  0
LINE
  5
130
330
1F
100
AcDbEntity
  8
0
100
AcDbLine
 10
1.500001324180479
 20
240.1499992221879
 30
0.0
 11
1.448890063614378
 21
239.7617706545352
 31
0.0
  0
LINE
  5
131
330
1F
100
AcDbEntity
  8
0
100
AcDbLine
 10
1.448890063614378
 20
239.7617706545352
 30
0.0
 11
1.299039429857448
 21
239.399999222188
 31
0.0
  0
LINE
  5
132
330
1F
100
AcDbEntity
  8
0
100
AcDbLine
 10
1.299039429857448
 20
239.399999222188
 30
0.0
 11
1.060661495960667
 21
239.0893390504091
 31
0.0
  0
LINE
  5
133
330
1F
100
AcDbEntity
  8
0
100
AcDbLine
 10
133.0000013252859
 20
193.6499992248455
 30
0.0
 11
133.0000013252863
 21
190.6499992248453
 31
0.0
  0
LINE
  5
134
330
1F
100
AcDbEntity
  8
0
100
AcDbLine
 10
135.0000013252857
 20
193.6499992248446
 30
0.0
 11
133.0000013252859
 21
193.6499992248455
 31
0.0
  0
LINE
  5
135
330
1F
100
AcDbEntity
  8
0
100
AcDbLine
 10
-130.0758182823149
 20
215.1499992226583
 30
0.0
 11
-130.0758182823149
 21
175.4500794683916
 31
0.0
  0
LINE
  5
136
330
1F
100
AcDbEntity
  8
0
100
AcDbLine
 10
-32.90047704572378
 20
215.1499992226574
 30
0.0
 11
-130.0758182823149
 21
215.1499992226583
 31
0.0
  0
LINE
  5
137
330
1F
100
AcDbEntity
  8
0
100
AcDbLine
 10
-32.9004770457235
 20
175.4500794683907
 30
0.0
 11
-32.90047704572378
 21
215.1499992226574
 31
0.0
  0
LINE
  5
138
330
1F
100
AcDbEntity
  8
0
100
AcDbLine
 10
-7.764532246569665
 20
183.5873540750235
 30
0.0
 11
-6.988075111262018
 21
183.6895765961566
 31
0.0
  0
LINE
  5
139
330
1F
100
AcDbEntity
  8
0
100
AcDbLine
 10
-9.58615132261541
 20
179.1895765961563
 30
0.0
 11
-9.885852590129538
 21
179.9131194608487
 31
0.0
  0
LINE
  5
13A
330
1F
100
AcDbEntity
  8
0
100
AcDbLine
 10
144.0000013252859
 20
193.6499992248448
 30
0.0
 11
138.0000013252857
 21
193.6499992248453
 31
0.0
  0
LINE
  5
13B
330
1F
100
AcDbEntity
  8
0
100
AcDbLine
 10
144.0000013252859
 20
193.6499992248448
 30
0.0
 11
144.0000013252842
 21
212.1499992248445
 31
0.0
  0
LINE
  5
13C
330
1F
100
AcDbEntity
  8
0
100
AcDbLine
 10
-6.211617975954415
 20
183.5873540750245
 30
0.0
 11
-5.488075111262269
 21
183.2876528075097
 31
0.0
  0
LINE
  5
13D
330
1F
100
AcDbEntity
  8
0
100
AcDbLine
 10
-5.488075111262269
 20
183.2876528075097
 30
0.0
 11
-4.866754767702415
 21
182.8108969397159
 31
0.0
  0
LINE
  5
13E
330
1F
100
AcDbEntity
  8
0
100
AcDbLine
 10
-4.866754767702415
 20
182.8108969397159
 30
0.0
 11
-4.389998899908672
 21
182.1895765961564
 31
0.0
  0
LINE
  5
13F
330
1F
100
AcDbEntity
  8
0
100
AcDbLine
 10
-4.389998899908672
 20
182.1895765961564
 30
0.0
 11
-4.090297632395083
 21
181.4660337314648
 31
0.0
  0
LINE
  5
140
330
1F
100
AcDbEntity
  8
0
100
AcDbLine
 10
-4.090297632395083
 20
181.4660337314648
 30
0.0
 11
-3.988075111262249
 21
180.6895765961573
 31
0.0
  0
LINE
  5
141
330
1F
100
AcDbEntity
  8
0
100
AcDbLine
 10
-3.988075111262249
 20
180.6895765961573
 30
0.0
 11
-4.090297632395083
 21
179.9131194608496
 31
0.0
  0
LINE
  5
142
330
1F
100
AcDbEntity
  8
0
100
AcDbLine
 10
-4.090297632395083
 20
179.9131194608496
 30
0.0
 11
-4.389998899908672
 21
179.1895765961563
 31
0.0
  0
LINE
  5
143
330
1F
100
AcDbEntity
  8
0
100
AcDbLine
 10
-4.389998899908672
 20
179.1895765961563
 30
0.0
 11
-4.866754767702234
 21
178.5682562525965
 31
0.0
  0
LINE
  5
144
330
1F
100
AcDbEntity
  8
0
100
AcDbLine
 10
134.0000013252587
 20
237.1499992221925
 30
0.0
 11
134.0000013252587
 21
243.1499992221931
 31
0.0
  0
LINE
  5
145
330
1F
100
AcDbEntity
  8
0
100
AcDbLine
 10
-83.99999866905956
 20
237.1499992221777
 30
0.0
 11
-73.99999866914143
 21
237.1499992221778
 31
0.0
  0
LINE
  5
146
330
1F
100
AcDbEntity
  8
0
100
AcDbLine
 10
-83.99999866905956
 20
243.1499992221785
 30
0.0
 11
-83.99999866905956
 21
237.1499992221777
 31
0.0
  0
LINE
  5
147
330
1F
100
AcDbEntity
  8
0
100
AcDbLine
 10
135.0000013252857
 20
193.6499992248446
 30
0.0
 11
135.0000013252858
 21
196.1499992248446
 31
0.0
  0
LINE
  5
148
330
1F
100
AcDbEntity
  8
0
100
AcDbLine
 10
138.0000013252857
 20
196.1499992248455
 30
0.0
 11
135.0000013252858
 21
196.1499992248446
 31
0.0
  0
LINE
  5
149
330
1F
100
AcDbEntity
  8
0
100
AcDbLine
 10
138.0000013252857
 20
193.6499992248453
 30
0.0
 11
138.0000013252857
 21
196.1499992248455
 31
0.0
  0
LINE
  5
14A
330
1F
100
AcDbEntity
  8
0
100
AcDbLine
 10
-104.7499986690602
 20
241.4490373278631
 30
0.0
 11
-104.388227236714
 21
241.59888796162
 31
0.0
  0
LINE
  5
14B
330
1F
100
AcDbEntity
  8
0
100
AcDbLine
 10
-91.46848781282908
 20
136.264904325443
 30
0.0
 11
-92.4261051321827
 21
135.294554889524
 31
0.0
  0
LINE
  5
14C
330
1F
100
AcDbEntity
  8
0
100
AcDbLine
 10
-92.4261051321827
 20
135.294554889524
 30
0.0
 11
-93.25963799588575
 21
134.2157444691282
 31
0.0
  0
LINE
  5
14D
330
1F
100
AcDbEntity
  8
0
100
AcDbLine
 10
-93.25963799588575
 20
134.2157444691282
 30
0.0
 11
-93.95690559147049
 21
133.0442382344019
 31
0.0
  0
LINE
  5
14E
330
1F
100
AcDbEntity
  8
0
100
AcDbLine
 10
-123.9999986691409
 20
243.1499992221779
 30
0.0
 11
-133.999998669059
 21
243.1499992221779
 31
0.0
  0
LINE
  5
14F
330
1F
100
AcDbEntity
  8
0
100
AcDbLine
 10
-123.9999986691409
 20
237.1499992221773
 30
0.0
 11
-123.9999986691409
 21
243.1499992221779
 31
0.0
  0
LINE
  5
150
330
1F
100
AcDbEntity
  8
0
100
AcDbLine
 10
-133.999998669059
 20
237.1499992221773
 30
0.0
 11
-123.9999986691409
 21
237.1499992221773
 31
0.0
  0
LINE
  5
151
330
1F
100
AcDbEntity
  8
0
100
AcDbLine
 10
-8.488075111262354
 20
183.2876528075106
 30
0.0
 11
-7.764532246569665
 21
183.5873540750235
 31
0.0
  0
LINE
  5
152
330
1F
100
AcDbEntity
  8
0
100
AcDbLine
 10
-9.109395454821666
 20
182.8108969397169
 30
0.0
 11
-8.488075111262354
 21
183.2876528075106
 31
0.0
  0
LINE
  5
153
330
1F
100
AcDbEntity
  8
0
100
AcDbLine
 10
-9.816496180176351
 20
200.5180037209017
 30
0.0
 11
-8.98806905543042
 21
201.1536782112933
 31
0.0
  0
LINE
  5
154
330
1F
100
AcDbEntity
  8
0
100
AcDbLine
 10
-10.45217067056816
 20
199.6895765961554
 30
0.0
 11
-9.816496180176351
 21
200.5180037209017
 31
0.0
  0
LINE
  5
155
330
1F
100
AcDbEntity
  8
0
100
AcDbLine
 10
-10.85177236058644
 20
198.7248527765664
 30
0.0
 11
-10.45217067056816
 21
199.6895765961554
 31
0.0
  0
LINE
  5
156
330
1F
100
AcDbEntity
  8
0
100
AcDbLine
 10
-10.98806905543042
 20
197.6895765961555
 30
0.0
 11
-10.85177236058644
 21
198.7248527765664
 31
0.0
  0
LINE
  5
157
330
1F
100
AcDbEntity
  8
0
100
AcDbLine
 10
124.0000013253407
 20
237.1499992221923
 30
0.0
 11
134.0000013252587
 21
237.1499992221925
 31
0.0
  0
LINE
  5
158
330
1F
100
AcDbEntity
  8
0
100
AcDbLine
 10
124.0000013253407
 20
243.1499992221931
 30
0.0
 11
124.0000013253407
 21
237.1499992221923
 31
0.0
  0
LINE
  5
159
330
1F
100
AcDbEntity
  8
0
100
AcDbLine
 10
-133.999998669059
 20
243.1499992221779
 30
0.0
 11
-133.999998669059
 21
237.1499992221773
 31
0.0
  0
LINE
  5
15A
330
1F
100
AcDbEntity
  8
0
100
AcDbLine
 10
-19.99999867581912
 20
243.1499992221851
 30
0.0
 11
-29.99999867581829
 21
243.1499992221851
 31
0.0
  0
LINE
  5
15B
330
1F
100
AcDbEntity
  8
0
100
AcDbLine
 10
-5.488075111261998
 20
178.091500384803
 30
0.0
 11
-6.211617975954415
 21
177.79179911729
 31
0.0
  0
LINE
  5
15C
330
1F
100
AcDbEntity
  8
0
100
AcDbLine
 10
-6.211617975954415
 20
177.79179911729
 30
0.0
 11
-6.988075111262289
 21
177.6895765961565
 31
0.0
  0
LINE
  5
15D
330
1F
100
AcDbEntity
  8
0
100
AcDbLine
 10
-6.988075111262289
 20
177.6895765961565
 30
0.0
 11
-7.764532246569665
 21
177.7917991172891
 31
0.0
  0
LINE
  5
15E
330
1F
100
AcDbEntity
  8
0
100
AcDbLine
 10
-7.764532246569665
 20
177.7917991172891
 30
0.0
 11
-8.488075111262082
 21
178.0915003848039
 31
0.0
  0
LINE
  5
15F
330
1F
100
AcDbEntity
  8
0
100
AcDbLine
 10
-8.488075111262082
 20
178.0915003848039
 30
0.0
 11
-9.109395454821666
 21
178.5682562525975
 31
0.0
  0
LINE
  5
160
330
1F
100
AcDbEntity
  8
0
100
AcDbLine
 10
-9.109395454821666
 20
178.5682562525975
 30
0.0
 11
-9.58615132261541
 21
179.1895765961563
 31
0.0
  0
LINE
  5
161
330
1F
100
AcDbEntity
  8
0
100
AcDbLine
 10
138.0000013252869
 20
188.1499992248451
 30
0.0
 11
135.0000013252858
 21
188.1499992248443
 31
0.0
  0
LINE
  5
162
330
1F
100
AcDbEntity
  8
0
100
AcDbLine
 10
135.0000013252858
 20
190.6499992248444
 30
0.0
 11
135.0000013252858
 21
188.1499992248443
 31
0.0
  0
LINE
  5
163
330
1F
100
AcDbEntity
  8
0
100
AcDbLine
 10
135.0000013252858
 20
190.6499992248444
 30
0.0
 11
133.0000013252863
 21
190.6499992248453
 31
0.0
  0
LINE
  5
164
330
1F
100
AcDbEntity
  8
0
100
AcDbLine
 10
-9.885852590129538
 20
181.4660337314639
 30
0.0
 11
-9.58615132261541
 21
182.1895765961564
 31
0.0
  0
LINE
  5
165
330
1F
100
AcDbEntity
  8
0
100
AcDbLine
 10
-9.58615132261541
 20
182.1895765961564
 30
0.0
 11
-9.109395454821666
 21
182.8108969397169
 31
0.0
  0
LINE
  5
166
330
1F
100
AcDbEntity
  8
0
100
AcDbLine
 10
143.9999989760783
 20
94.05000077203977
 30
0.0
 11
144.0000013252886
 21
162.1499992248453
 31
0.0
  0
LINE
  5
167
330
1F
100
AcDbEntity
  8
0
100
AcDbLine
 10
144.0000013252886
 20
162.1499992248453
 30
0.0
 11
150.0000009076997
 21
162.1499992248464
 31
0.0
  0
LINE
  5
168
330
1F
100
AcDbEntity
  8
0
100
AcDbLine
 10
-0.7499986758195504
 20
238.8509611165123
 30
0.0
 11
-1.060658847599116
 21
239.0893390504091
 31
0.0
  0
LINE
  5
169
330
1F
100
AcDbEntity
  8
0
100
AcDbLine
 10
-105.0606588408401
 20
241.2106593939662
 30
0.0
 11
-104.7499986690602
 21
241.4490373278631
 31
0.0
  0
LINE
  5
16A
330
1F
100
AcDbEntity
  8
0
100
AcDbLine
 10
-103.9999986690602
 20
241.6499992221863
 30
0.0
 11
-103.6117701014064
 21
241.59888796162
 31
0.0
  0
LINE
  5
16B
330
1F
100
AcDbEntity
  8
0
100
AcDbLine
 10
113.2388018968539
 20
-211.9768360734022
 30
0.0
 11
113.6592648346318
 21
-210.7381922007765
 31
0.0
  0
LINE
  5
16C
330
1F
100
AcDbEntity
  8
0
100
AcDbLine
 10
113.6592648346318
 20
-210.7381922007765
 30
0.0
 11
113.9144551854791
 21
-209.4552636719519
 31
0.0
  0
LINE
  5
16D
330
1F
100
AcDbEntity
  8
0
100
AcDbLine
 10
113.9144551854791
 20
-209.4552636719519
 30
0.0
 11
114.000006571741
 21
-208.1500017497513
 31
0.0
  0
LINE
  5
16E
330
1F
100
AcDbEntity
  8
0
100
AcDbLine
 10
114.000006571741
 20
-208.1500017497513
 30
0.0
 11
114.0000065716841
 21
-198.1500017496172
 31
0.0
  0
LINE
  5
16F
330
1F
100
AcDbEntity
  8
0
100
AcDbLine
 10
114.0000065716841
 20
-198.1500017496172
 30
0.0
 11
113.8609565595662
 21
-169.9762895189926
 31
0.0
  0
LINE
  5
170
330
1F
100
AcDbEntity
  8
0
100
AcDbLine
 10
113.8609565595662
 20
-169.9762895189926
 30
0.0
 11
113.4438195236678
 21
-141.8053223284176
 31
0.0
  0
LINE
  5
171
330
1F
100
AcDbEntity
  8
0
100
AcDbLine
 10
113.4438195236678
 20
-141.8053223284176
 30
0.0
 11
112.7486361068047
 21
-113.639844953189
 31
0.0
  0
LINE
  5
172
330
1F
100
AcDbEntity
  8
0
100
AcDbLine
 10
112.7486361068047
 20
-113.639844953189
 30
0.0
 11
111.7754740426213
 21
-85.48260163371472
 31
0.0
  0
LINE
  5
173
330
1F
100
AcDbEntity
  8
0
100
AcDbLine
 10
111.7754740426213
 20
-85.48260163371472
 30
0.0
 11
110.524428148991
 21
-57.33633580813488
 31
0.0
  0
LINE
  5
174
330
1F
100
AcDbEntity
  8
0
100
AcDbLine
 10
110.524428148991
 20
-57.33633580813488
 30
0.0
 11
108.9956203187769
 21
-29.20378984502261
 31
0.0
  0
LINE
  5
175
330
1F
100
AcDbEntity
  8
0
100
AcDbLine
 10
108.9956203187769
 20
-29.20378984502261
 30
0.0
 11
107.1891995079575
 21
-1.087704776188643
 31
0.0
  0
LINE
  5
176
330
1F
100
AcDbEntity
  8
0
100
AcDbLine
 10
107.1891995079575
 20
-1.087704776188643
 30
0.0
 11
105.1053417211111
 21
27.00917997038897
 31
0.0
  0
LINE
  5
177
330
1F
100
AcDbEntity
  8
0
100
AcDbLine
 10
105.1053417211111
 20
27.00917997038897
 30
0.0
 11
102.7442499942681
 21
55.08412683747159
 31
0.0
  0
LINE
  5
178
330
1F
100
AcDbEntity
  8
0
100
AcDbLine
 10
102.7442499942681
 20
55.08412683747159
 30
0.0
 11
100.1061543751321
 21
83.13440040529086
 31
0.0
  0
LINE
  5
179
330
1F
100
AcDbEntity
  8
0
100
AcDbLine
 10
100.1061543751321
 20
83.13440040529086
 30
0.0
 11
97.19131190065826
 21
111.1572676580617
 31
0.0
  0
LINE
  5
17A
330
1F
100
AcDbEntity
  8
0
100
AcDbLine
 10
97.19131190065826
 20
111.1572676580617
 30
0.0
 11
95.13271724756548
 21
129.2143570266108
 31
0.0
  0
LINE
  5
17B
330
1F
100
AcDbEntity
  8
0
100
AcDbLine
 10
94.89697599996076
 20
130.5536470602674
 30
0.0
 11
95.13271724756548
 21
129.2143570266108
 31
0.0
  0
LINE
  5
17C
330
1F
100
AcDbEntity
  8
0
100
AcDbLine
 10
94.50072684980591
 20
131.8545153630094
 30
0.0
 11
94.89697599996076
 21
130.5536470602674
 31
0.0
  0
LINE
  5
17D
330
1F
100
AcDbEntity
  8
0
100
AcDbLine
 10
93.94980638500724
 20
133.0978006768237
 30
0.0
 11
94.50072684980591
 21
131.8545153630094
 31
0.0
  0
LINE
  5
17E
330
1F
100
AcDbEntity
  8
0
100
AcDbLine
 10
93.2523294386713
 20
134.2651899175723
 30
0.0
 11
93.94980638500724
 21
133.0978006768237
 31
0.0
  0
LINE
  5
17F
330
1F
100
AcDbEntity
  8
0
100
AcDbLine
 10
92.41856956093261
 20
135.3394879192292
 30
0.0
 11
93.2523294386713
 21
134.2651899175723
 31
0.0
  0
LINE
  5
180
330
1F
100
AcDbEntity
  8
0
100
AcDbLine
 10
91.46080769376252
 20
136.3048707116441
 30
0.0
 11
92.41856956093261
 21
135.3394879192292
 31
0.0
  0
LINE
  5
181
330
1F
100
AcDbEntity
  8
0
100
AcDbLine
 10
90.39315127771609
 20
137.1471186011484
 30
0.0
 11
91.46080769376252
 21
136.3048707116441
 31
0.0
  0
LINE
  5
182
330
1F
100
AcDbEntity
  8
0
100
AcDbLine
 10
-102.5511099296264
 20
240.5382277898401
 30
0.0
 11
-102.4999986690601
 21
240.1499992221872
 31
0.0
  0
LINE
  5
183
330
1F
100
AcDbEntity
  8
0
100
AcDbLine
 10
-1.49999867581956
 20
-240.149999228103
 30
0.0
 11
-1.448887415252827
 21
-239.7617706604483
 31
0.0
  0
LINE
  5
184
330
1F
100
AcDbEntity
  8
0
100
AcDbLine
 10
1.299039429857448
 20
-240.8999992281032
 30
0.0
 11
1.060661495960441
 21
-241.210659399882
 31
0.0
  0
LINE
  5
185
330
1F
100
AcDbEntity
  8
0
100
AcDbLine
 10
-1.448887415252827
 20
-240.5382277957559
 30
0.0
 11
-1.49999867581956
 21
-240.149999228103
 31
0.0
  0
LINE
  5
186
330
1F
100
AcDbEntity
  8
0
100
AcDbLine
 10
-123.9999986691409
 20
-237.1499992281132
 30
0.0
 11
-133.999998669059
 21
-237.1499992281131
 31
0.0
  0
LINE
  5
187
330
1F
100
AcDbEntity
  8
0
100
AcDbLine
 10
104.0000013253406
 20
-238.6499992281024
 30
0.0
 11
103.6117727576867
 21
-238.7011104886688
 31
0.0
  0
LINE
  5
188
330
1F
100
AcDbEntity
  8
0
100
AcDbLine
 10
-102.9393384972803
 20
-239.0893390563249
 30
0.0
 11
-102.7009605633835
 21
-239.3999992281039
 31
0.0
  0
LINE
  5
189
330
1F
100
AcDbEntity
  8
0
100
AcDbLine
 10
-102.7009605633835
 20
-239.3999992281039
 30
0.0
 11
-102.5511099296264
 21
-239.761770660451
 31
0.0
  0
LINE
  5
18A
330
1F
100
AcDbEntity
  8
0
100
AcDbLine
 10
-102.5511099296264
 20
-240.5382277957586
 30
0.0
 11
-102.7009605633835
 21
-240.8999992281039
 31
0.0
  0
LINE
  5
18B
330
1F
100
AcDbEntity
  8
0
100
AcDbLine
 10
104.3882298929943
 20
-238.7011104886689
 30
0.0
 11
104.7500013253406
 21
-238.8509611224258
 31
0.0
  0
LINE
  5
18C
330
1F
100
AcDbEntity
  8
0
100
AcDbLine
 10
103.2500013253405
 20
-238.8509611224248
 30
0.0
 11
103.6117727576867
 21
-238.7011104886688
 31
0.0
  0
LINE
  5
18D
330
1F
100
AcDbEntity
  8
0
100
AcDbLine
 10
102.9393411535608
 20
-241.2106593998822
 30
0.0
 11
102.7009632196638
 21
-240.8999992281014
 31
0.0
  0
LINE
  5
18E
330
1F
100
AcDbEntity
  8
0
100
AcDbLine
 10
103.2500013253406
 20
-241.4490373337782
 30
0.0
 11
102.9393411535608
 21
-241.2106593998822
 31
0.0
  0
LINE
  5
18F
330
1F
100
AcDbEntity
  8
0
100
AcDbLine
 10
104.3882298929943
 20
-241.5988879675361
 30
0.0
 11
104.0000013253401
 21
-241.6499992281024
 31
0.0
  0
LINE
  5
190
330
1F
100
AcDbEntity
  8
0
100
AcDbLine
 10
0.3882298918345764
 20
-241.5988879675357
 30
0.0
 11
0.0000013241806851
 21
-241.6499992281022
 31
0.0
  0
LINE
  5
191
330
1F
100
AcDbEntity
  8
0
100
AcDbLine
 10
129.0000031484951
 20
209.689463352406
 30
0.0
 11
120.5000031484951
 21
209.689463352307
 31
0.0
  0
LINE
  5
192
330
1F
100
AcDbEntity
  8
0
100
AcDbLine
 10
129.000003148332
 20
223.6894633524059
 30
0.0
 11
129.0000031484951
 21
209.689463352406
 31
0.0
  0
LINE
  5
193
330
1F
100
AcDbEntity
  8
0
100
AcDbLine
 10
120.730003148332
 20
223.6894633523096
 30
0.0
 11
129.000003148332
 21
223.6894633524059
 31
0.0
  0
LINE
  5
194
330
1F
100
AcDbEntity
  8
0
100
AcDbLine
 10
138.0000013252584
 20
-196.1499992281169
 30
0.0
 11
135.0000013252573
 21
-196.1499992281169
 31
0.0
  0
LINE
  5
195
330
1F
100
AcDbEntity
  8
0
100
AcDbLine
 10
138.0000013252583
 20
-193.6499992281167
 30
0.0
 11
138.0000013252584
 21
-196.1499992281169
 31
0.0
  0
LINE
  5
196
330
1F
100
AcDbEntity
  8
0
100
AcDbLine
 10
144.0000013252578
 20
-193.6499992281172
 30
0.0
 11
138.0000013252583
 21
-193.6499992281167
 31
0.0
  0
LINE
  5
197
330
1F
100
AcDbEntity
  8
0
100
AcDbLine
 10
144.0000013252593
 20
-212.1499992281168
 30
0.0
 11
144.0000013252578
 21
-193.6499992281172
 31
0.0
  0
LINE
  5
198
330
1F
100
AcDbEntity
  8
0
100
AcDbLine
 10
144.0000013252593
 20
-212.1499992281168
 30
0.0
 11
150.0000009076702
 21
-212.1500007751928
 31
0.0
  0
LINE
  5
199
330
1F
100
AcDbEntity
  8
0
100
AcDbLine
 10
150.0000009076702
 20
-212.1500007751928
 30
0.0
 11
150.0000009076709
 21
-222.1500007751931
 31
0.0
  0
LINE
  5
19A
330
1F
100
AcDbEntity
  8
0
100
AcDbLine
 10
144.0000013252595
 20
-222.1499992281172
 30
0.0
 11
150.0000009076709
 21
-222.1500007751931
 31
0.0
  0
LINE
  5
19B
330
1F
100
AcDbEntity
  8
0
100
AcDbLine
 10
-143.9999823808784
 20
-248.1499992281161
 30
0.0
 11
144.0000010250681
 21
-248.1499992281162
 31
0.0
  0
LINE
  5
19C
330
1F
100
AcDbEntity
  8
0
100
AcDbLine
 10
-143.9999986447449
 20
-222.1500007752791
 30
0.0
 11
-150.0000011762639
 21
-222.1500007752781
 31
0.0
  0
LINE
  5
19D
330
1F
100
AcDbEntity
  8
0
100
AcDbLine
 10
-150.0000011762616
 20
-212.1500007753589
 30
0.0
 11
-150.0000011762639
 21
-222.1500007752781
 31
0.0
  0
LINE
  5
19E
330
1F
100
AcDbEntity
  8
0
100
AcDbLine
 10
-143.9999986446964
 20
-212.15000077536
 30
0.0
 11
-150.0000011762616
 21
-212.1500007753589
 31
0.0
  0
LINE
  5
19F
330
1F
100
AcDbEntity
  8
0
100
AcDbLine
 10
-143.9999986446938
 20
-193.6500007753572
 30
0.0
 11
-143.9999986446964
 21
-212.15000077536
 31
0.0
  0
LINE
  5
1A0
330
1F
100
AcDbEntity
  8
0
100
AcDbLine
 10
-143.9999986446938
 20
-193.6500007753572
 30
0.0
 11
-137.9999986446937
 21
-193.650000775358
 31
0.0
  0
LINE
  5
1A1
330
1F
100
AcDbEntity
  8
0
100
AcDbLine
 10
-137.9999986446937
 20
-193.650000775358
 30
0.0
 11
-137.9999986446942
 21
-196.150000775358
 31
0.0
  0
LINE
  5
1A2
330
1F
100
AcDbEntity
  8
0
100
AcDbLine
 10
-137.9999986446942
 20
-196.150000775358
 30
0.0
 11
-134.9999986446942
 21
-196.1500007753597
 31
0.0
  0
LINE
  5
1A3
330
1F
100
AcDbEntity
  8
0
100
AcDbLine
 10
-113.999992640725
 20
-208.1500017496579
 30
0.0
 11
-113.9999926407847
 21
-198.1500017494238
 31
0.0
  0
LINE
  5
1A4
330
1F
100
AcDbEntity
  8
0
100
AcDbLine
 10
-113.999992640725
 20
-208.1500017496579
 30
0.0
 11
-113.9144412544631
 21
-209.4552636718585
 31
0.0
  0
LINE
  5
1A5
330
1F
100
AcDbEntity
  8
0
100
AcDbLine
 10
-113.9144412544631
 20
-209.4552636718585
 30
0.0
 11
-113.6592509036157
 21
-210.7381922006831
 31
0.0
  0
LINE
  5
1A6
330
1F
100
AcDbEntity
  8
0
100
AcDbLine
 10
-113.6592509036157
 20
-210.7381922006831
 30
0.0
 11
-113.2387879658379
 21
-211.9768360733089
 31
0.0
  0
LINE
  5
1A7
330
1F
100
AcDbEntity
  8
0
100
AcDbLine
 10
-113.2387879658379
 20
-211.9768360733089
 30
0.0
 11
-112.6602466785694
 21
-213.150001749658
 31
0.0
  0
LINE
  5
1A8
330
1F
100
AcDbEntity
  8
0
100
AcDbLine
 10
-112.6602466785694
 20
-213.150001749658
 30
0.0
 11
-111.9335260436373
 21
-214.2376160397442
 31
0.0
  0
LINE
  5
1A9
330
1F
100
AcDbEntity
  8
0
100
AcDbLine
 10
-111.9335260436373
 20
-214.2376160397442
 30
0.0
 11
-111.0710604525905
 21
-215.2210695615233
 31
0.0
  0
LINE
  5
1AA
330
1F
100
AcDbEntity
  8
0
100
AcDbLine
 10
-111.0710604525905
 20
-215.2210695615233
 30
0.0
 11
-110.0876069308122
 21
-216.0835351525703
 31
0.0
  0
LINE
  5
1AB
330
1F
100
AcDbEntity
  8
0
100
AcDbLine
 10
-110.0876069308122
 20
-216.0835351525703
 30
0.0
 11
-108.999992640725
 21
-216.8102557875014
 31
0.0
  0
LINE
  5
1AC
330
1F
100
AcDbEntity
  8
0
100
AcDbLine
 10
-108.999992640725
 20
-216.8102557875014
 30
0.0
 11
-107.8268269643759
 21
-217.3887970747708
 31
0.0
  0
LINE
  5
1AD
330
1F
100
AcDbEntity
  8
0
100
AcDbLine
 10
-107.8268269643759
 20
-217.3887970747708
 30
0.0
 11
-106.5881830917501
 21
-217.8092600125486
 31
0.0
  0
LINE
  5
1AE
330
1F
100
AcDbEntity
  8
0
100
AcDbLine
 10
-106.5881830917501
 20
-217.8092600125486
 30
0.0
 11
-105.3052545629255
 21
-218.0644503633951
 31
0.0
  0
LINE
  5
1AF
330
1F
100
AcDbEntity
  8
0
100
AcDbLine
 10
104.0000065717411
 20
-218.1500017497513
 30
0.0
 11
-103.999992640725
 21
-218.1500017496579
 31
0.0
  0
LINE
  5
1B0
330
1F
100
AcDbEntity
  8
0
100
AcDbLine
 10
104.0000065717411
 20
-218.1500017497513
 30
0.0
 11
105.3052684939416
 21
-218.0644503634885
 31
0.0
  0
LINE
  5
1B1
330
1F
100
AcDbEntity
  8
0
100
AcDbLine
 10
105.3052684939416
 20
-218.0644503634885
 30
0.0
 11
106.5881970227664
 21
-217.809260012642
 31
0.0
  0
LINE
  5
1B2
330
1F
100
AcDbEntity
  8
0
100
AcDbLine
 10
106.5881970227664
 20
-217.809260012642
 30
0.0
 11
107.826840895392
 21
-217.3887970748642
 31
0.0
  0
LINE
  5
1B3
330
1F
100
AcDbEntity
  8
0
100
AcDbLine
 10
107.826840895392
 20
-217.3887970748642
 30
0.0
 11
109.0000065717412
 21
-216.8102557875948
 31
0.0
  0
LINE
  5
1B4
330
1F
100
AcDbEntity
  8
0
100
AcDbLine
 10
109.0000065717412
 20
-216.8102557875948
 30
0.0
 11
110.0876208618283
 21
-216.0835351526637
 31
0.0
  0
LINE
  5
1B5
330
1F
100
AcDbEntity
  8
0
100
AcDbLine
 10
110.0876208618283
 20
-216.0835351526637
 30
0.0
 11
111.0710743836062
 21
-215.2210695616167
 31
0.0
  0
LINE
  5
1B6
330
1F
100
AcDbEntity
  8
0
100
AcDbLine
 10
111.0710743836062
 20
-215.2210695616167
 30
0.0
 11
111.9335399746531
 21
-214.2376160398375
 31
0.0
  0
LINE
  5
1B7
330
1F
100
AcDbEntity
  8
0
100
AcDbLine
 10
111.9335399746531
 20
-214.2376160398375
 30
0.0
 11
112.6602606095855
 21
-213.1500017497514
 31
0.0
  0
LINE
  5
1B8
330
1F
100
AcDbEntity
  8
0
100
AcDbLine
 10
112.6602606095855
 20
-213.1500017497514
 30
0.0
 11
113.2388018968539
 21
-211.9768360734022
 31
0.0
  0
LINE
  5
1B9
330
1F
100
AcDbEntity
  8
0
100
AcDbLine
 10
104.0000013253406
 20
-238.6499992281024
 30
0.0
 11
104.3882298929943
 21
-238.7011104886689
 31
0.0
  0
LINE
  5
1BA
330
1F
100
AcDbEntity
  8
0
100
AcDbLine
 10
102.9393411535603
 20
-239.0893390563226
 30
0.0
 11
103.2500013253405
 21
-238.8509611224248
 31
0.0
  0
LINE
  5
1BB
330
1F
100
AcDbEntity
  8
0
100
AcDbLine
 10
102.7009632196639
 20
-239.3999992281014
 30
0.0
 11
102.9393411535603
 21
-239.0893390563226
 31
0.0
  0
LINE
  5
1BC
330
1F
100
AcDbEntity
  8
0
100
AcDbLine
 10
102.5511125859069
 20
-239.7617706604487
 30
0.0
 11
102.7009632196639
 21
-239.3999992281014
 31
0.0
  0
LINE
  5
1BD
330
1F
100
AcDbEntity
  8
0
100
AcDbLine
 10
102.5511125859069
 20
-239.7617706604487
 30
0.0
 11
102.5000013253405
 21
-240.1499992281014
 31
0.0
  0
LINE
  5
1BE
330
1F
100
AcDbEntity
  8
0
100
AcDbLine
 10
102.5511125859064
 20
-240.5382277957563
 30
0.0
 11
102.5000013253405
 21
-240.1499992281014
 31
0.0
  0
LINE
  5
1BF
330
1F
100
AcDbEntity
  8
0
100
AcDbLine
 10
102.7009632196638
 20
-240.8999992281014
 30
0.0
 11
102.5511125859064
 21
-240.5382277957563
 31
0.0
  0
LINE
  5
1C0
330
1F
100
AcDbEntity
  8
0
100
AcDbLine
 10
104.0000013253401
 20
-241.6499992281024
 30
0.0
 11
103.6117727576867
 21
-241.598887967536
 31
0.0
  0
LINE
  5
1C1
330
1F
100
AcDbEntity
  8
0
100
AcDbLine
 10
104.7500013253407
 20
-241.4490373337792
 30
0.0
 11
105.0606614971204
 21
-241.2106593998822
 31
0.0
  0
LINE
  5
1C2
330
1F
100
AcDbEntity
  8
0
100
AcDbLine
 10
105.2990394310171
 20
-240.8999992281023
 30
0.0
 11
105.0606614971204
 21
-241.2106593998822
 31
0.0
  0
LINE
  5
1C3
330
1F
100
AcDbEntity
  8
0
100
AcDbLine
 10
105.2990394310171
 20
-240.8999992281023
 30
0.0
 11
105.4488900647736
 21
-240.5382277957563
 31
0.0
  0
LINE
  5
1C4
330
1F
100
AcDbEntity
  8
0
100
AcDbLine
 10
105.5000013253406
 20
-240.1499992281023
 30
0.0
 11
105.4488900647741
 21
-239.7617706604487
 31
0.0
  0
LINE
  5
1C5
330
1F
100
AcDbEntity
  8
0
100
AcDbLine
 10
105.0606614971199
 20
-239.0893390563226
 30
0.0
 11
105.2990394310172
 21
-239.3999992281023
 31
0.0
  0
LINE
  5
1C6
330
1F
100
AcDbEntity
  8
0
100
AcDbLine
 10
104.7500013253406
 20
-238.8509611224258
 30
0.0
 11
105.0606614971199
 21
-239.0893390563226
 31
0.0
  0
LINE
  5
1C7
330
1F
100
AcDbEntity
  8
0
100
AcDbLine
 10
-29.99999867581829
 20
-243.1499992281074
 30
0.0
 11
-19.99999867581912
 21
-243.1499992281074
 31
0.0
  0
LINE
  5
1C8
330
1F
100
AcDbEntity
  8
0
100
AcDbLine
 10
-19.99999867581912
 20
-243.1499992281074
 30
0.0
 11
-19.99999867581935
 21
-237.1499992281059
 31
0.0
  0
LINE
  5
1C9
330
1F
100
AcDbEntity
  8
0
100
AcDbLine
 10
-29.99999867581851
 20
-237.1499992281059
 30
0.0
 11
-29.99999867581829
 21
-243.1499992281074
 31
0.0
  0
LINE
  5
1CA
330
1F
100
AcDbEntity
  8
0
100
AcDbLine
 10
134.0000013252588
 20
-237.149999228098
 30
0.0
 11
124.0000013253408
 21
-237.149999228098
 31
0.0
  0
LINE
  5
1CB
330
1F
100
AcDbEntity
  8
0
100
AcDbLine
 10
124.0000013253408
 20
-237.149999228098
 30
0.0
 11
124.0000013253407
 21
-243.1499992280987
 31
0.0
  0
LINE
  5
1CC
330
1F
100
AcDbEntity
  8
0
100
AcDbLine
 10
124.0000013253407
 20
-243.1499992280987
 30
0.0
 11
134.0000013252587
 21
-243.1499992280987
 31
0.0
  0
LINE
  5
1CD
330
1F
100
AcDbEntity
  8
0
100
AcDbLine
 10
134.0000013252587
 20
-243.1499992280987
 30
0.0
 11
134.0000013252588
 21
-237.149999228098
 31
0.0
  0
LINE
  5
1CE
330
1F
100
AcDbEntity
  8
0
100
AcDbLine
 10
-123.9999986691409
 20
-243.1499992281138
 30
0.0
 11
-123.9999986691409
 21
-237.1499992281132
 31
0.0
  0
LINE
  5
1CF
330
1F
100
AcDbEntity
  8
0
100
AcDbLine
 10
-73.99999866914143
 20
-237.1499992281126
 30
0.0
 11
-83.99999866905956
 21
-237.1499992281127
 31
0.0
  0
LINE
  5
1D0
330
1F
100
AcDbEntity
  8
0
100
AcDbLine
 10
-83.99999866905956
 20
-237.1499992281127
 30
0.0
 11
-83.99999866905956
 21
-243.1499992281133
 31
0.0
  0
LINE
  5
1D1
330
1F
100
AcDbEntity
  8
0
100
AcDbLine
 10
-83.99999866905956
 20
-243.1499992281133
 30
0.0
 11
-73.99999866914143
 21
-243.1499992281132
 31
0.0
  0
LINE
  5
1D2
330
1F
100
AcDbEntity
  8
0
100
AcDbLine
 10
-0.3882272434730257
 20
-241.5988879675357
 30
0.0
 11
-0.7499986758195504
 21
-241.4490373337797
 31
0.0
  0
LINE
  5
1D3
330
1F
100
AcDbEntity
  8
0
100
AcDbLine
 10
0.0000013241806851
 20
-241.6499992281022
 30
0.0
 11
-0.3882272434730257
 21
-241.5988879675357
 31
0.0
  0
LINE
  5
1D4
330
1F
100
AcDbEntity
  8
0
100
AcDbLine
 10
0.7500013241804694
 20
-241.4490373337787
 30
0.0
 11
0.3882298918345764
 21
-241.5988879675357
 31
0.0
  0
LINE
  5
1D5
330
1F
100
AcDbEntity
  8
0
100
AcDbLine
 10
1.060661495960441
 20
-241.210659399882
 30
0.0
 11
0.7500013241804694
 21
-241.4490373337787
 31
0.0
  0
LINE
  5
1D6
330
1F
100
AcDbEntity
  8
0
100
AcDbLine
 10
1.448890063614378
 20
-240.5382277957559
 30
0.0
 11
1.299039429857448
 21
-240.8999992281032
 31
0.0
  0
LINE
  5
1D7
330
1F
100
AcDbEntity
  8
0
100
AcDbLine
 10
1.500001324180479
 20
-240.1499992281031
 30
0.0
 11
1.448890063614378
 21
-240.5382277957559
 31
0.0
  0
LINE
  5
1D8
330
1F
100
AcDbEntity
  8
0
100
AcDbLine
 10
1.448890063614378
 20
-239.7617706604483
 30
0.0
 11
1.500001324180479
 21
-240.1499992281031
 31
0.0
  0
LINE
  5
1D9
330
1F
100
AcDbEntity
  8
0
100
AcDbLine
 10
1.299039429857448
 20
-239.3999992281031
 30
0.0
 11
1.448890063614378
 21
-239.7617706604483
 31
0.0
  0
LINE
  5
1DA
330
1F
100
AcDbEntity
  8
0
100
AcDbLine
 10
1.060661495960667
 20
-239.0893390563224
 30
0.0
 11
1.299039429857448
 21
-239.3999992281031
 31
0.0
  0
LINE
  5
1DB
330
1F
100
AcDbEntity
  8
0
100
AcDbLine
 10
0.750001324180695
 20
-238.8509611224254
 30
0.0
 11
1.060661495960667
 21
-239.0893390563224
 31
0.0
  0
LINE
  5
1DC
330
1F
100
AcDbEntity
  8
0
100
AcDbLine
 10
0.3882298918343508
 20
-238.7011104886685
 30
0.0
 11
0.750001324180695
 21
-238.8509611224254
 31
0.0
  0
LINE
  5
1DD
330
1F
100
AcDbEntity
  8
0
100
AcDbLine
 10
0.0000013241806851
 20
-238.6499992281021
 30
0.0
 11
0.3882298918343508
 21
-238.7011104886685
 31
0.0
  0
LINE
  5
1DE
330
1F
100
AcDbEntity
  8
0
100
AcDbLine
 10
-0.3882272434732513
 20
-238.7011104886685
 30
0.0
 11
0.0000013241806851
 21
-238.6499992281021
 31
0.0
  0
LINE
  5
1DF
330
1F
100
AcDbEntity
  8
0
100
AcDbLine
 10
-0.7499986758193248
 20
-238.8509611224264
 30
0.0
 11
-0.3882272434732513
 21
-238.7011104886685
 31
0.0
  0
LINE
  5
1E0
330
1F
100
AcDbEntity
  8
0
100
AcDbLine
 10
20.00000132418078
 20
-237.1499992280978
 30
0.0
 11
20.00000132418101
 21
-243.1499992280984
 31
0.0
  0
LINE
  5
1E1
330
1F
100
AcDbEntity
  8
0
100
AcDbLine
 10
84.00000132534065
 20
-237.1499992281062
 30
0.0
 11
74.00000132534147
 21
-237.1499992281062
 31
0.0
  0
LINE
  5
1E2
330
1F
100
AcDbEntity
  8
0
100
AcDbLine
 10
-105.448887408494
 20
-240.5382277957586
 30
0.0
 11
-105.4999986690603
 21
-240.1499992281048
 31
0.0
  0
LINE
  5
1E3
330
1F
100
AcDbEntity
  8
0
100
AcDbLine
 10
-103.6117701014063
 20
-238.7011104886711
 30
0.0
 11
-103.2499986690601
 21
-238.8509611224279
 31
0.0
  0
LINE
  5
1E4
330
1F
100
AcDbEntity
  8
0
100
AcDbLine
 10
-103.9999986690603
 20
-238.6499992281047
 30
0.0
 11
-103.6117701014063
 21
-238.7011104886711
 31
0.0
  0
LINE
  5
1E5
330
1F
100
AcDbEntity
  8
0
100
AcDbLine
 10
-104.7499986690603
 20
-238.850961122428
 30
0.0
 11
-104.3882272367139
 21
-238.7011104886711
 31
0.0
  0
LINE
  5
1E6
330
1F
100
AcDbEntity
  8
0
100
AcDbLine
 10
-105.0606588408401
 20
-239.0893390563249
 30
0.0
 11
-104.7499986690603
 21
-238.850961122428
 31
0.0
  0
LINE
  5
1E7
330
1F
100
AcDbEntity
  8
0
100
AcDbLine
 10
-103.9999986690602
 20
238.6499992221861
 30
0.0
 11
-104.388227236714
 21
238.7011104827526
 31
0.0
  0
LINE
  5
1E8
330
1F
100
AcDbEntity
  8
0
100
AcDbLine
 10
-104.388227236714
 20
238.7011104827526
 30
0.0
 11
-104.7499986690603
 21
238.8509611165096
 31
0.0
  0
LINE
  5
1E9
330
1F
100
AcDbEntity
  8
0
100
AcDbLine
 10
-104.7499986690603
 20
238.8509611165096
 30
0.0
 11
-105.0606588408401
 21
239.0893390504064
 31
0.0
  0
LINE
  5
1EA
330
1F
100
AcDbEntity
  8
0
100
AcDbLine
 10
-6.988075111262018
 20
183.6895765961566
 30
0.0
 11
-6.211617975954415
 21
183.5873540750245
 31
0.0
  0
LINE
  5
1EB
330
1F
100
AcDbEntity
  8
0
100
AcDbLine
 10
-105.0606588408401
 20
239.0893390504064
 30
0.0
 11
-105.2990367747371
 21
239.3999992221861
 31
0.0
  0
LINE
  5
1EC
330
1F
100
AcDbEntity
  8
0
100
AcDbLine
 10
-105.2990367747371
 20
239.3999992221861
 30
0.0
 11
-105.448887408494
 21
239.7617706545325
 31
0.0
  0
LINE
  5
1ED
330
1F
100
AcDbEntity
  8
0
100
AcDbLine
 10
-105.448887408494
 20
239.7617706545325
 30
0.0
 11
-105.4999986690603
 21
240.1499992221863
 31
0.0
  0
LINE
  5
1EE
330
1F
100
AcDbEntity
  8
0
100
AcDbLine
 10
-105.4999986690603
 20
240.1499992221863
 30
0.0
 11
-105.448887408494
 21
240.5382277898401
 31
0.0
  0
LINE
  5
1EF
330
1F
100
AcDbEntity
  8
0
100
AcDbLine
 10
-105.448887408494
 20
240.5382277898401
 30
0.0
 11
-105.2990367747371
 21
240.8999992221863
 31
0.0
  0
LINE
  5
1F0
330
1F
100
AcDbEntity
  8
0
100
AcDbLine
 10
-105.2990367747371
 20
240.8999992221863
 30
0.0
 11
-105.0606588408401
 21
241.2106593939662
 31
0.0
  0
LINE
  5
1F1
330
1F
100
AcDbEntity
  8
0
100
AcDbLine
 10
-4.866754767702234
 20
178.5682562525965
 30
0.0
 11
-5.488075111261998
 21
178.091500384803
 31
0.0
  0
LINE
  5
1F2
330
1F
100
AcDbEntity
  8
0
100
AcDbLine
 10
-93.95690559147049
 20
133.0442382344019
 30
0.0
 11
-94.5077184156893
 21
131.7971559635467
 31
0.0
  0
LINE
  5
1F3
330
1F
100
AcDbEntity
  8
0
100
AcDbLine
 10
-94.5077184156893
 20
131.7971559635467
 30
0.0
 11
-94.90402717857555
 21
130.4927218633505
 31
0.0
  0
LINE
  5
1F4
330
1F
100
AcDbEntity
  8
0
100
AcDbLine
 10
105.0606614971204
 20
241.2106593939685
 30
0.0
 11
105.2990394310171
 21
240.8999992221887
 31
0.0
  0
LINE
  5
1F5
330
1F
100
AcDbEntity
  8
0
100
AcDbLine
 10
87.99244643035262
 20
138.4145822653512
 30
0.0
 11
89.23132645510567
 21
137.8538256208308
 31
0.0
  0
LINE
  5
1F6
330
1F
100
AcDbEntity
  8
0
100
AcDbLine
 10
86.69475939949004
 20
138.821128818699
 30
0.0
 11
87.99244643035262
 21
138.4145822653512
 31
0.0
  0
LINE
  5
1F7
330
1F
100
AcDbEntity
  8
0
100
AcDbLine
 10
85.35737976169716
 20
139.0674770164308
 30
0.0
 11
86.69475939949004
 21
138.821128818699
 31
0.0
  0
LINE
  5
1F8
330
1F
100
AcDbEntity
  8
0
100
AcDbLine
 10
84.00000657201805
 20
139.1499982503555
 30
0.0
 11
85.35737976169716
 21
139.0674770164308
 31
0.0
  0
LINE
  5
1F9
330
1F
100
AcDbEntity
  8
0
100
AcDbLine
 10
-83.99999264072905
 20
139.1499982502752
 30
0.0
 11
84.00000657201805
 21
139.1499982503555
 31
0.0
  0
LINE
  5
1FA
330
1F
100
AcDbEntity
  8
0
100
AcDbLine
 10
-83.99999264072905
 20
139.1499982502752
 30
0.0
 11
-85.36031069689605
 21
139.0597555610273
 31
0.0
  0
LINE
  5
1FB
330
1F
100
AcDbEntity
  8
0
100
AcDbLine
 10
-85.36031069689605
 20
139.0597555610273
 30
0.0
 11
-86.69980011454935
 21
138.8060292177952
 31
0.0
  0
LINE
  5
1FC
330
1F
100
AcDbEntity
  8
0
100
AcDbLine
 10
-86.69980011454935
 20
138.8060292177952
 30
0.0
 11
-87.9988862972819
 21
138.3925270443959
 31
0.0
  0
LINE
  5
1FD
330
1F
100
AcDbEntity
  8
0
100
AcDbLine
 10
-87.9988862972819
 20
138.3925270443959
 30
0.0
 11
-89.23858508038893
 21
137.8252917449019
 31
0.0
  0
LINE
  5
1FE
330
1F
100
AcDbEntity
  8
0
100
AcDbLine
 10
-89.23858508038893
 20
137.8252917449019
 30
0.0
 11
-90.40078015550269
 21
137.1126125987269
 31
0.0
  0
LINE
  5
1FF
330
1F
100
AcDbEntity
  8
0
100
AcDbLine
 10
-90.40078015550269
 20
137.1126125987269
 30
0.0
 11
-91.46848781282908
 21
136.264904325443
 31
0.0
  0
LINE
  5
200
330
1F
100
AcDbEntity
  8
0
100
AcDbLine
 10
-132.9999986446935
 20
-193.6500007753608
 30
0.0
 11
-132.9999986446934
 21
-190.6500007753604
 31
0.0
  0
LINE
  5
201
330
1F
100
AcDbEntity
  8
0
100
AcDbLine
 10
-134.9999986446937
 20
-190.6500007753595
 30
0.0
 11
-132.9999986446934
 21
-190.6500007753604
 31
0.0
  0
LINE
  5
202
330
1F
100
AcDbEntity
  8
0
100
AcDbLine
 10
-134.9999986446937
 20
-190.6500007753595
 30
0.0
 11
-134.9999986446932
 21
-188.1500007753594
 31
0.0
  0
LINE
  5
203
330
1F
100
AcDbEntity
  8
0
100
AcDbLine
 10
-137.9999986446937
 20
-188.1500007753577
 30
0.0
 11
-134.9999986446932
 21
-188.1500007753594
 31
0.0
  0
LINE
  5
204
330
1F
100
AcDbEntity
  8
0
100
AcDbLine
 10
-137.9999986446942
 20
-190.6500007753578
 30
0.0
 11
-137.9999986446937
 21
-188.1500007753577
 31
0.0
  0
LINE
  5
205
330
1F
100
AcDbEntity
  8
0
100
AcDbLine
 10
-137.9999986446942
 20
-190.6500007753578
 30
0.0
 11
-143.9999986446936
 21
-190.6500007753572
 31
0.0
  0
LINE
  5
206
330
1F
100
AcDbEntity
  8
0
100
AcDbLine
 10
-143.9999986447449
 20
-172.1500007751991
 30
0.0
 11
-143.9999986446936
 21
-190.6500007753572
 31
0.0
  0
LINE
  5
207
330
1F
100
AcDbEntity
  8
0
100
AcDbLine
 10
-143.9999986447449
 20
-172.1500007751991
 30
0.0
 11
-150.0000011762639
 21
-172.1500007751982
 31
0.0
  0
LINE
  5
208
330
1F
100
AcDbEntity
  8
0
100
AcDbLine
 10
-150.0000011762616
 20
-162.1500007752789
 30
0.0
 11
-150.0000011762639
 21
-172.1500007751982
 31
0.0
  0
LINE
  5
209
330
1F
100
AcDbEntity
  8
0
100
AcDbLine
 10
-143.9999986446964
 20
-162.1500007752801
 30
0.0
 11
-150.0000011762616
 21
-162.1500007752789
 31
0.0
  0
LINE
  5
20A
330
1F
100
AcDbEntity
  8
0
100
AcDbLine
 10
-143.9999986447449
 20
-94.05000077512021
 30
0.0
 11
-143.9999986446964
 21
-162.1500007752801
 31
0.0
  0
LINE
  5
20B
330
1F
100
AcDbEntity
  8
0
100
AcDbLine
 10
-150.0000011762616
 20
-84.05000077519992
 30
0.0
 11
-150.0000011762639
 21
-94.05000077511922
 31
0.0
  0
LINE
  5
20C
330
1F
100
AcDbEntity
  8
0
100
AcDbLine
 10
-143.9999986446964
 20
-84.05000077520117
 30
0.0
 11
-150.0000011762616
 21
-84.05000077519992
 31
0.0
  0
LINE
  5
20D
330
1F
100
AcDbEntity
  8
0
100
AcDbLine
 10
-143.9999986446938
 20
-65.55000077519834
 30
0.0
 11
-143.9999986446964
 21
-84.05000077520117
 31
0.0
  0
LINE
  5
20E
330
1F
100
AcDbEntity
  8
0
100
AcDbLine
 10
-143.9999986447449
 20
-44.05000077504026
 30
0.0
 11
-143.9999986446936
 21
-62.55000077519831
 31
0.0
  0
LINE
  5
20F
330
1F
100
AcDbEntity
  8
0
100
AcDbLine
 10
-143.9999986446964
 20
-34.05000077512123
 30
0.0
 11
-150.0000011762616
 21
-34.05000077511996
 31
0.0
  0
LINE
  5
210
330
1F
100
AcDbEntity
  8
0
100
AcDbLine
 10
-143.9999986447449
 20
34.04999922496648
 30
0.0
 11
-150.0000011762639
 21
34.04999922496746
 31
0.0
  0
LINE
  5
211
330
1F
100
AcDbEntity
  8
0
100
AcDbLine
 10
-150.0000011762616
 20
44.04999922488678
 30
0.0
 11
-150.0000011762639
 21
34.04999922496746
 31
0.0
  0
LINE
  5
212
330
1F
100
AcDbEntity
  8
0
100
AcDbLine
 10
-143.9999986446964
 20
44.04999922488551
 30
0.0
 11
-150.0000011762616
 21
44.04999922488678
 31
0.0
  0
LINE
  5
213
330
1F
100
AcDbEntity
  8
0
100
AcDbLine
 10
-143.9999986446938
 20
62.54999922488835
 30
0.0
 11
-143.9999986446964
 21
44.04999922488551
 31
0.0
  0
LINE
  5
214
330
1F
100
AcDbEntity
  8
0
100
AcDbLine
 10
-143.9999986446938
 20
62.54999922488835
 30
0.0
 11
-137.9999986446937
 21
62.54999922488654
 31
0.0
  0
LINE
  5
215
330
1F
100
AcDbEntity
  8
0
100
AcDbLine
 10
-137.9999986446937
 20
62.54999922488654
 30
0.0
 11
-137.9999986446942
 21
60.04999922488656
 31
0.0
  0
LINE
  5
216
330
1F
100
AcDbEntity
  8
0
100
AcDbLine
 10
-137.9999986446942
 20
60.04999922488656
 30
0.0
 11
-134.9999986446942
 21
60.04999922488584
 31
0.0
  0
LINE
  5
217
330
1F
100
AcDbEntity
  8
0
100
AcDbLine
 10
-134.9999986446936
 20
62.54999922488582
 30
0.0
 11
-132.9999986446935
 21
62.54999922488474
 31
0.0
  0
LINE
  5
218
330
1F
100
AcDbEntity
  8
0
100
AcDbLine
 10
-134.9999986446937
 20
65.54999922488604
 30
0.0
 11
-132.9999986446934
 21
65.54999922488513
 31
0.0
  0
LINE
  5
219
330
1F
100
AcDbEntity
  8
0
100
AcDbLine
 10
-134.9999986446937
 20
65.54999922488604
 30
0.0
 11
-134.9999986446932
 21
68.0499992248862
 31
0.0
  0
LINE
  5
21A
330
1F
100
AcDbEntity
  8
0
100
AcDbLine
 10
-137.9999986446937
 20
68.04999922488692
 30
0.0
 11
-134.9999986446932
 21
68.0499992248862
 31
0.0
  0
LINE
  5
21B
330
1F
100
AcDbEntity
  8
0
100
AcDbLine
 10
-137.9999986446942
 20
65.54999922488676
 30
0.0
 11
-143.9999986446936
 21
65.54999922488838
 31
0.0
  0
LINE
  5
21C
330
1F
100
AcDbEntity
  8
0
100
AcDbLine
 10
-143.9999986447449
 20
84.04999922504642
 30
0.0
 11
-143.9999986446936
 21
65.54999922488838
 31
0.0
  0
LINE
  5
21D
330
1F
100
AcDbEntity
  8
0
100
AcDbLine
 10
-143.9999986447449
 20
84.04999922504642
 30
0.0
 11
-150.0000011762639
 21
84.04999922504742
 31
0.0
  0
LINE
  5
21E
330
1F
100
AcDbEntity
  8
0
100
AcDbLine
 10
-143.9999986446964
 20
94.04999922496546
 30
0.0
 11
-150.0000011762616
 21
94.04999922496673
 31
0.0
  0
LINE
  5
21F
330
1F
100
AcDbEntity
  8
0
100
AcDbLine
 10
-143.9999986446964
 20
94.04999922496546
 30
0.0
 11
-143.9999986447449
 21
162.1499992248857
 31
0.0
  0
LINE
  5
220
330
1F
100
AcDbEntity
  8
0
100
AcDbLine
 10
-143.9999986447449
 20
162.1499992248857
 30
0.0
 11
-150.0000011762639
 21
162.1499992248867
 31
0.0
  0
LINE
  5
221
330
1F
100
AcDbEntity
  8
0
100
AcDbLine
 10
-150.0000011762616
 20
172.1499992248057
 30
0.0
 11
-150.0000011762639
 21
162.1499992248867
 31
0.0
  0
LINE
  5
222
330
1F
100
AcDbEntity
  8
0
100
AcDbLine
 10
-143.9999986446964
 20
172.1499992248044
 30
0.0
 11
-150.0000011762616
 21
172.1499992248057
 31
0.0
  0
LINE
  5
223
330
1F
100
AcDbEntity
  8
0
100
AcDbLine
 10
-143.9999986446964
 20
172.1499992248044
 30
0.0
 11
-143.9999986446938
 21
190.6499992248072
 31
0.0
  0
LINE
  5
224
330
1F
100
AcDbEntity
  8
0
100
AcDbLine
 10
-143.9999986446938
 20
190.6499992248072
 30
0.0
 11
-137.9999986446937
 21
190.6499992248063
 31
0.0
  0
LINE
  5
225
330
1F
100
AcDbEntity
  8
0
100
AcDbLine
 10
-137.9999986446937
 20
190.6499992248063
 30
0.0
 11
-137.9999986446942
 21
188.1499992248064
 31
0.0
  0
LINE
  5
226
330
1F
100
AcDbEntity
  8
0
100
AcDbLine
 10
-137.9999986446942
 20
188.1499992248064
 30
0.0
 11
-134.9999986446942
 21
188.1499992248046
 31
0.0
  0
LINE
  5
227
330
1F
100
AcDbEntity
  8
0
100
AcDbLine
 10
138.0000013252868
 20
190.6499992248453
 30
0.0
 11
138.0000013252869
 21
188.1499992248451
 31
0.0
  0
LINE
  5
228
330
1F
100
AcDbEntity
  8
0
100
AcDbLine
 10
144.0000013252863
 20
190.6499992248448
 30
0.0
 11
138.0000013252868
 21
190.6499992248453
 31
0.0
  0
LINE
  5
229
330
1F
100
AcDbEntity
  8
0
100
AcDbLine
 10
144.0000013252883
 20
172.1499992248452
 30
0.0
 11
144.0000013252863
 21
190.6499992248448
 31
0.0
  0
LINE
  5
22A
330
1F
100
AcDbEntity
  8
0
100
AcDbLine
 10
144.0000013252883
 20
172.1499992248452
 30
0.0
 11
150.0000009076991
 21
172.1499992248463
 31
0.0
  0
LINE
  5
22B
330
1F
100
AcDbEntity
  8
0
100
AcDbLine
 10
150.0000009076991
 20
172.1499992248463
 30
0.0
 11
150.0000009076997
 21
162.1499992248464
 31
0.0
  0
LINE
  5
22C
330
1F
100
AcDbEntity
  8
0
100
AcDbLine
 10
144.0000013253308
 20
-34.04999922804024
 30
0.0
 11
143.9999989760357
 21
34.05000077212101
 31
0.0
  0
LINE
  5
22D
330
1F
100
AcDbEntity
  8
0
100
AcDbLine
 10
20.00000132418101
 20
243.1499992221933
 30
0.0
 11
20.00000132418078
 21
237.1499992221925
 31
0.0
  0
LINE
  5
22E
330
1F
100
AcDbEntity
  8
0
100
AcDbLine
 10
20.00000132418078
 20
237.1499992221925
 30
0.0
 11
30.00000132409874
 21
237.1499992221926
 31
0.0
  0
LINE
  5
22F
330
1F
100
AcDbEntity
  8
0
100
AcDbLine
 10
134.0000013252587
 20
243.1499992221931
 30
0.0
 11
124.0000013253407
 21
243.1499992221931
 31
0.0
  0
LINE
  5
230
330
1F
100
AcDbEntity
  8
0
100
AcDbLine
 10
84.00000132534055
 20
237.1499992221834
 30
0.0
 11
84.00000132534055
 21
243.149999222185
 31
0.0
  0
LINE
  5
231
330
1F
100
AcDbEntity
  8
0
100
AcDbLine
 10
74.00000132534139
 20
243.149999222185
 30
0.0
 11
74.00000132534139
 21
237.1499992221834
 31
0.0
  0
LINE
  5
232
330
1F
100
AcDbEntity
  8
0
100
AcDbLine
 10
74.00000132534139
 20
237.1499992221834
 30
0.0
 11
84.00000132534055
 21
237.1499992221834
 31
0.0
  0
LINE
  5
233
330
1F
100
AcDbEntity
  8
0
100
AcDbLine
 10
-0.3882272434730257
 20
241.5988879616225
 30
0.0
 11
0.0000013241806851
 21
241.6499992221888
 31
0.0
  0
LINE
  5
234
330
1F
100
AcDbEntity
  8
0
100
AcDbLine
 10
-0.7499986758195504
 20
241.4490373278657
 30
0.0
 11
-0.3882272434730257
 21
241.5988879616225
 31
0.0
  0
LINE
  5
235
330
1F
100
AcDbEntity
  8
0
100
AcDbLine
 10
-1.060658847599116
 20
241.2106593939687
 30
0.0
 11
-0.7499986758195504
 21
241.4490373278657
 31
0.0
  0
LINE
  5
236
330
1F
100
AcDbEntity
  8
0
100
AcDbLine
 10
-1.299036781495897
 20
240.8999992221879
 30
0.0
 11
-1.060658847599116
 21
241.2106593939687
 31
0.0
  0
LINE
  5
237
330
1F
100
AcDbEntity
  8
0
100
AcDbLine
 10
-1.448887415252827
 20
240.5382277898428
 30
0.0
 11
-1.299036781495897
 21
240.8999992221879
 31
0.0
  0
LINE
  5
238
330
1F
100
AcDbEntity
  8
0
100
AcDbLine
 10
-1.49999867581956
 20
240.1499992221879
 30
0.0
 11
-1.448887415252827
 21
240.5382277898428
 31
0.0
  0
LINE
  5
239
330
1F
100
AcDbEntity
  8
0
100
AcDbLine
 10
-1.448887415252827
 20
239.7617706545352
 30
0.0
 11
-1.49999867581956
 21
240.1499992221879
 31
0.0
  0
LINE
  5
23A
330
1F
100
AcDbEntity
  8
0
100
AcDbLine
 10
-1.299036781495897
 20
239.3999992221879
 30
0.0
 11
-1.448887415252827
 21
239.7617706545352
 31
0.0
  0
LINE
  5
23B
330
1F
100
AcDbEntity
  8
0
100
AcDbLine
 10
-1.060658847599116
 20
239.0893390504091
 30
0.0
 11
-1.299036781495897
 21
239.3999992221879
 31
0.0
  0
LINE
  5
23C
330
1F
100
AcDbEntity
  8
0
100
AcDbLine
 10
-0.3882272434732513
 20
238.7011104827553
 30
0.0
 11
-0.7499986758195504
 21
238.8509611165123
 31
0.0
  0
LINE
  5
23D
330
1F
100
AcDbEntity
  8
0
100
AcDbLine
 10
0.0000013241806851
 20
238.6499992221888
 30
0.0
 11
-0.3882272434732513
 21
238.7011104827553
 31
0.0
  0
LINE
  5
23E
330
1F
100
AcDbEntity
  8
0
100
AcDbLine
 10
0.3882298918343508
 20
238.7011104827553
 30
0.0
 11
0.0000013241806851
 21
238.6499992221888
 31
0.0
  0
LINE
  5
23F
330
1F
100
AcDbEntity
  8
0
100
AcDbLine
 10
-73.99999866914143
 20
243.1499992221785
 30
0.0
 11
-83.99999866905956
 21
243.1499992221785
 31
0.0
  0
LINE
  5
240
330
1F
100
AcDbEntity
  8
0
100
AcDbLine
 10
-73.99999866914143
 20
237.1499992221778
 30
0.0
 11
-73.99999866914143
 21
243.1499992221785
 31
0.0
  0
LINE
  5
241
330
1F
100
AcDbEntity
  8
0
100
AcDbLine
 10
-6.988069055430109
 20
201.6895765961565
 30
0.0
 11
-5.952792875020018
 21
201.5532799013117
 31
0.0
  0
LINE
  5
242
330
1F
100
AcDbEntity
  8
0
100
AcDbLine
 10
-8.023345235840244
 20
201.5532799013126
 30
0.0
 11
-6.988069055430109
 21
201.6895765961565
 31
0.0
  0
LINE
  5
243
330
1F
100
AcDbEntity
  8
0
100
AcDbLine
 10
-8.98806905543042
 20
201.1536782112933
 30
0.0
 11
-8.023345235840244
 21
201.5532799013126
 31
0.0
  0
LINE
  5
244
330
1F
100
AcDbEntity
  8
0
100
AcDbLine
 10
-10.85177236058644
 20
196.6543004157463
 30
0.0
 11
-10.98806905543042
 21
197.6895765961555
 31
0.0
  0
LINE
  5
245
330
1F
100
AcDbEntity
  8
0
100
AcDbLine
 10
-10.45217067056793
 20
195.6895765961555
 30
0.0
 11
-10.85177236058644
 21
196.6543004157463
 31
0.0
  0
LINE
  5
246
330
1F
100
AcDbEntity
  8
0
100
AcDbLine
 10
-9.816496180176351
 20
194.8611494714093
 30
0.0
 11
-10.45217067056793
 21
195.6895765961555
 31
0.0
  0
LINE
  5
247
330
1F
100
AcDbEntity
  8
0
100
AcDbLine
 10
-8.98806905543042
 20
194.2254749810179
 30
0.0
 11
-9.816496180176351
 21
194.8611494714093
 31
0.0
  0
LINE
  5
248
330
1F
100
AcDbEntity
  8
0
100
AcDbLine
 10
-8.02334523584047
 20
193.8258732910001
 30
0.0
 11
-8.98806905543042
 21
194.2254749810179
 31
0.0
  0
LINE
  5
249
330
1F
100
AcDbEntity
  8
0
100
AcDbLine
 10
-6.988069055430109
 20
193.6895765961557
 30
0.0
 11
-8.02334523584047
 21
193.8258732910001
 31
0.0
  0
LINE
  5
24A
330
1F
100
AcDbEntity
  8
0
100
AcDbLine
 10
-5.952792875020288
 20
193.8258732909992
 30
0.0
 11
-6.988069055430109
 21
193.6895765961557
 31
0.0
  0
LINE
  5
24B
330
1F
100
AcDbEntity
  8
0
100
AcDbLine
 10
-4.988069055430383
 20
194.2254749810187
 30
0.0
 11
-5.952792875020288
 21
193.8258732909992
 31
0.0
  0
LINE
  5
24C
330
1F
100
AcDbEntity
  8
0
100
AcDbLine
 10
-4.159641930683956
 20
194.8611494714102
 30
0.0
 11
-4.988069055430383
 21
194.2254749810187
 31
0.0
  0
LINE
  5
24D
330
1F
100
AcDbEntity
  8
0
100
AcDbLine
 10
-3.523967440292374
 20
195.6895765961563
 30
0.0
 11
-4.159641930683956
 21
194.8611494714102
 31
0.0
  0
LINE
  5
24E
330
1F
100
AcDbEntity
  8
0
100
AcDbLine
 10
120.5000031484951
 20
209.689463352307
 30
0.0
 11
120.730003148332
 21
223.6894633523096
 31
0.0
  0
LINE
  5
24F
330
1F
100
AcDbEntity
  8
0
100
AcDbLine
 10
-14.78804460743365
 20
216.6894633508128
 30
0.0
 11
-14.54952539145702
 21
218.5011966665299
 31
0.0
  0
LINE
  5
250
330
1F
100
AcDbEntity
  8
0
100
AcDbLine
 10
-14.54952539145716
 20
214.8777300350947
 30
0.0
 11
-14.78804460743365
 21
216.6894633508128
 31
0.0
  0
LINE
  5
251
330
1F
100
AcDbEntity
  8
0
100
AcDbLine
 10
-12.73779207573933
 20
211.7397158825064
 30
0.0
 11
-13.85022243392461
 21
213.1894633508128
 31
0.0
  0
LINE
  5
252
330
1F
100
AcDbEntity
  8
0
100
AcDbLine
 10
-11.2880446074335
 20
210.6272855243212
 30
0.0
 11
-12.73779207573933
 21
211.7397158825064
 31
0.0
  0
LINE
  5
253
330
1F
100
AcDbEntity
  8
0
100
AcDbLine
 10
-9.599777923151269
 20
209.9279825667888
 30
0.0
 11
-11.2880446074335
 21
210.6272855243212
 31
0.0
  0
LINE
  5
254
330
1F
100
AcDbEntity
  8
0
100
AcDbLine
 10
-7.78804460743362
 20
209.6894633508123
 30
0.0
 11
-9.599777923151269
 21
209.9279825667888
 31
0.0
  0
LINE
  5
255
330
1F
100
AcDbEntity
  8
0
100
AcDbLine
 10
-5.976311291715927
 20
209.9279825667888
 30
0.0
 11
-7.78804460743362
 21
209.6894633508123
 31
0.0
  0
LINE
  5
256
330
1F
100
AcDbEntity
  8
0
100
AcDbLine
 10
-4.288044607433424
 20
210.6272855243212
 30
0.0
 11
-5.976311291715927
 21
209.9279825667888
 31
0.0
  0
LINE
  5
257
330
1F
100
AcDbEntity
  8
0
100
AcDbLine
 10
-2.838297139127595
 20
211.7397158825064
 30
0.0
 11
-4.288044607433424
 21
210.6272855243212
 31
0.0
  0
LINE
  5
258
330
1F
100
AcDbEntity
  8
0
100
AcDbLine
 10
-1.72586678094236
 20
213.1894633508123
 30
0.0
 11
-2.838297139127595
 21
211.7397158825064
 31
0.0
  0
LINE
  5
259
330
1F
100
AcDbEntity
  8
0
100
AcDbLine
 10
-1.026563823410082
 20
214.8777300350947
 30
0.0
 11
-1.72586678094236
 21
213.1894633508123
 31
0.0
  0
LINE
  5
25A
330
1F
100
AcDbEntity
  8
0
100
AcDbLine
 10
-0.7880446074335428
 20
216.6894633508123
 30
0.0
 11
-1.026563823410082
 21
214.8777300350947
 31
0.0
  0
LINE
  5
25B
330
1F
100
AcDbEntity
  8
0
100
AcDbLine
 10
-1.026563823409947
 20
218.5011966665299
 30
0.0
 11
-0.7880446074335428
 21
216.6894633508123
 31
0.0
  0
LINE
  5
25C
330
1F
100
AcDbEntity
  8
0
100
AcDbLine
 10
-1.72586678094236
 20
220.1894633508123
 30
0.0
 11
-1.026563823409947
 21
218.5011966665299
 31
0.0
  0
LINE
  5
25D
330
1F
100
AcDbEntity
  8
0
100
AcDbLine
 10
-2.83829713912773
 20
221.6392108191182
 30
0.0
 11
-1.72586678094236
 21
220.1894633508123
 31
0.0
  0
LINE
  5
25E
330
1F
100
AcDbEntity
  8
0
100
AcDbLine
 10
-4.288044607433424
 20
222.7516411773034
 30
0.0
 11
-2.83829713912773
 21
221.6392108191182
 31
0.0
  0
LINE
  5
25F
330
1F
100
AcDbEntity
  8
0
100
AcDbLine
 10
-5.976311291715792
 20
223.4509441348358
 30
0.0
 11
-4.288044607433424
 21
222.7516411773034
 31
0.0
  0
LINE
  5
260
330
1F
100
AcDbEntity
  8
0
100
AcDbLine
 10
-7.788044607433485
 20
223.6894633508123
 30
0.0
 11
-5.976311291715792
 21
223.4509441348358
 31
0.0
  0
LINE
  5
261
330
1F
100
AcDbEntity
  8
0
100
AcDbLine
 10
-9.599777923151132
 20
223.4509441348358
 30
0.0
 11
-7.788044607433485
 21
223.6894633508123
 31
0.0
  0
LINE
  5
262
330
1F
100
AcDbEntity
  8
0
100
AcDbLine
 10
-11.2880446074335
 20
222.7516411773034
 30
0.0
 11
-9.599777923151132
 21
223.4509441348358
 31
0.0
  0
LINE
  5
263
330
1F
100
AcDbEntity
  8
0
100
AcDbLine
 10
-12.73779207573947
 20
221.6392108191182
 30
0.0
 11
-11.2880446074335
 21
222.7516411773034
 31
0.0
  0
LINE
  5
264
330
1F
100
AcDbEntity
  8
0
100
AcDbLine
 10
-13.85022243392461
 20
220.1894633508128
 30
0.0
 11
-12.73779207573947
 21
221.6392108191182
 31
0.0
  0
LINE
  5
265
330
1F
100
AcDbEntity
  8
0
100
AcDbLine
 10
-14.54952539145702
 20
218.5011966665299
 30
0.0
 11
-13.85022243392461
 21
220.1894633508128
 31
0.0
  0
LINE
  5
266
330
1F
100
AcDbEntity
  8
0
100
AcDbLine
 10
135.0000013252573
 20
-193.6499992281168
 30
0.0
 11
135.0000013252573
 21
-196.1499992281169
 31
0.0
  0
LINE
  5
267
330
1F
100
AcDbEntity
  8
0
100
AcDbLine
 10
135.0000013252573
 20
-193.6499992281168
 30
0.0
 11
133.0000013252578
 21
-193.6499992281167
 31
0.0
  0
LINE
  5
268
330
1F
100
AcDbEntity
  8
0
100
AcDbLine
 10
-134.9999986446936
 20
-193.6500007753598
 30
0.0
 11
-132.9999986446935
 21
-193.6500007753608
 31
0.0
  0
LINE
  5
269
330
1F
100
AcDbEntity
  8
0
100
AcDbLine
 10
-134.9999986446936
 20
-193.6500007753598
 30
0.0
 11
-134.9999986446942
 21
-196.1500007753597
 31
0.0
  0
ENDSEC
  0
SECTION
  2
OBJECTS
  0
DICTIONARY
  5
C
330
0
100
AcDbDictionary
  3
ACAD_GROUP
350
D
  3
ACAD_LAYOUT
350
1A
  3
ACAD_MATERIAL
350
43
  3
ACAD_MLEADERSTYLE
350
28C
  3
ACAD_MLINESTYLE
350
17
  3
ACAD_PLOTSETTINGS
350
19
  3
ACAD_SCALELIST
350
47
  3
ACAD_VISUALSTYLE
350
2A
  3
ACDBHEADERROUNDTRIPXREC
350
26A
  3
ACDBVARIABLEDICTIONARY
350
28A
  0
DICTIONARY
  5
291
330
8
100
AcDbDictionary
280
     1
  3
ACAD_XREC_ROUNDTRIP
360
292
  0
DICTIONARY
  5
D
102
{ACAD_REACTORS
330
C
102
}
330
C
100
AcDbDictionary
  0
DICTIONARY
  5
1A
102
{ACAD_REACTORS
330
C
102
}
330
C
100
AcDbDictionary
  0
DICTIONARY
  5
43
102
{ACAD_REACTORS
330
C
102
}
330
C
100
AcDbDictionary
  3
BYBLOCK
350
45
  3
BYLAYER
350
44
  3
GLOBAL
350
46
  0
DICTIONARY
  5
28C
102
{ACAD_REACTORS
330
C
102
}
330
C
100
AcDbDictionary
  0
DICTIONARY
  5
17
102
{ACAD_REACTORS
330
C
102
}
330
C
100
AcDbDictionary
  3
STANDARD
350
18
  0
DICTIONARY
  5
19
102
{ACAD_REACTORS
330
C
102
}
330
C
100
AcDbDictionary
  0
DICTIONARY
  5
47
102
{ACAD_REACTORS
330
C
102
}
330
C
100
AcDbDictionary
  3
A0
350
48
  3
A1
350
49
  3
A2
350
4A
  3
A3
350
4B
  3
A4
350
4C
  3
A5
350
4D
  3
A6
350
4E
  3
A7
350
4F
  3
A8
350
50
  3
A9
350
51
  3
B0
350
52
  3
B1
350
53
  3
B2
350
54
  3
B3
350
55
  3
B4
350
56
  3
B5
350
57
  3
B6
350
58
  3
B7
350
59
  3
B8
350
5A
  3
B9
350
5B
  3
C0
350
5C
  3
C1
350
5D
  3
C2
350
5E
  3
C3
350
5F
  3
C4
350
60
  3
C5
350
61
  3
C6
350
62
  3
C7
350
63
  3
C8
350
64
  3
C9
350
65
  3
D0
350
66
  3
D1
350
67
  3
D2
350
68
  0
DICTIONARY
  5
2A
102
{ACAD_REACTORS
330
C
102
}
330
C
100
AcDbDictionary
  3
2DWIREFRAME
350
2F
  3
BASIC
350
32
  3
BRIGHTEN
350
36
  3
COLORCHANGE
350
3A
  3
CONCEPTUAL
350
34
  3
DIM
350
35
  3
EDGECOLOROFF
350
3D
  3
FACEPATTERN
350
39
  3
FLAT
350
2B
  3
FLATWITHEDGES
350
2C
  3
GOURAUD
350
2D
  3
GOURAUDWITHEDGES
350
2E
  3
HIDDEN
350
31
  3
JITTEROFF
350
3B
  3
LINEPATTERN
350
38
  3
OVERHANGOFF
350
3C
  3
REALISTIC
350
33
  3
SHADED
350
42
  3
SHADED_WITH_EDGES
350
41
  3
SHADES_OF_GRAY
350
3E
  3
SKETCHY
350
3F
  3
THICKEN
350
37
  3
WIREFRAME
350
30
  3
X-RAY
350
40
  0
DICTIONARY
  5
26A
102
{ACAD_REACTORS
330
C
102
}
330
C
100
AcDbDictionary
  3
CEPSNTYPE
350
273
  3
DIMSTYLEDATA
350
289
  3
FINGERPRINTGUID
350
274
  3
HYPERLINKBASE
350
26D
  3
INSUNITS
350
272
  3
LAYOUTDICT
350
26F
  3
LWETCUNION
350
271
  3
PLOTSETDICT
350
270
  3
PSVPSCALE
350
276
  3
PUCSBASE
350
279
  3
PUCSORGBACK
350
27F
  3
PUCSORGBOTTOM
350
27B
  3
PUCSORGFRONT
350
27E
  3
PUCSORGLEFT
350
27C
  3
PUCSORGRIGHT
350
27D
  3
PUCSORGTOP
350
27A
  3
PUCSORTHOREF
350
277
  3
PUCSORTHOVIEW
350
278
  3
STYLESHEET
350
26E
  3
TSTACKALIGN
350
26B
  3
TSTACKSIZE
350
26C
  3
UCSBASE
350
282
  3
UCSORGBACK
350
288
  3
UCSORGBOTTOM
350
284
  3
UCSORGFRONT
350
287
  3
UCSORGLEFT
350
285
  3
UCSORGRIGHT
350
286
  3
UCSORGTOP
350
283
  3
UCSORTHOREF
350
280
  3
UCSORTHOVIEW
350
281
  3
VERSIONGUID
350
275
  0
DICTIONARY
  5
28A
102
{ACAD_REACTORS
330
C
102
}
330
C
100
AcDbDictionary
  3
CANNOSCALE
350
293
  3
DIMASSOC
350
28F
  3
HIDETEXT
350
290
  3
MSLTSCALE
350
294
  0
XRECORD
  5
292
102
{ACAD_REACTORS
330
291
102
}
330
291
100
AcDbXrecord
102
VTR_0.000_0.000_1.000_1.000_GRIDDISPLAY
 70
     3
102
VTR_0.000_0.000_1.000_1.000_GRIDMAJOR
 70
     5
102
VTR_0.000_0.000_1.000_1.000_DEFAULTLIGHTING
280
     1
102
VTR_0.000_0.000_1.000_1.000_DEFAULTLIGHTINGTYPE
 70
     1
102
VTR_0.000_0.000_1.000_1.000_BRIGHTNESS
141
0.0
102
VTR_0.000_0.000_1.000_1.000_CONTRAST
142
0.0
  0
MATERIAL
  5
45
102
{ACAD_REACTORS
330
43
102
}
102
{ACAD_XDICTIONARY
360
297
102
}
330
43
100
AcDbMaterial
  1
BYBLOCK
  0
MATERIAL
  5
44
102
{ACAD_REACTORS
330
43
102
}
102
{ACAD_XDICTIONARY
360
295
102
}
330
43
100
AcDbMaterial
  1
BYLAYER
  0
MATERIAL
  5
46
102
{ACAD_REACTORS
330
43
102
}
102
{ACAD_XDICTIONARY
360
299
102
}
330
43
100
AcDbMaterial
  1
GLOBAL
  0
MLINESTYLE
  5
18
102
{ACAD_REACTORS
330
17
102
}
330
17
100
AcDbMlineStyle
  2
Standard
 70
     0
  3

 62
   256
 51
90.0
 52
90.0
 71
     2
 49
0.5
 62
   256
  6
BYLAYER
 49
-0.5
 62
   256
  6
BYLAYER
  0
ACAD_PROXY_OBJECT
  5
48
102
{ACAD_REACTORS
330
47
102
}
330
47
100
AcDbProxyObject
 90
      499
 91
      503
 93
       41
310
903313A31580
  0
ACAD_PROXY_OBJECT
  5
49
102
{ACAD_REACTORS
330
47
102
}
330
47
100
AcDbProxyObject
 90
      499
 91
      503
 93
      105
310
903313A324000000000000004000
  0
ACAD_PROXY_OBJECT
  5
4A
102
{ACAD_REACTORS
330
47
102
}
330
47
100
AcDbProxyObject
 90
      499
 91
      503
 93
      105
310
903313A344000000000000104000
  0
ACAD_PROXY_OBJECT
  5
4B
102
{ACAD_REACTORS
330
47
102
}
330
47
100
AcDbProxyObject
 90
      499
 91
      503
 93
      105
310
903313A354000000000000144000
  0
ACAD_PROXY_OBJECT
  5
4C
102
{ACAD_REACTORS
330
47
102
}
330
47
100
AcDbProxyObject
 90
      499
 91
      503
 93
      105
310
903313A384000000000000204000
  0
ACAD_PROXY_OBJECT
  5
4D
102
{ACAD_REACTORS
330
47
102
}
330
47
100
AcDbProxyObject
 90
      499
 91
      503
 93
      113
310
904313A31304000000000000244000
  0
ACAD_PROXY_OBJECT
  5
4E
102
{ACAD_REACTORS
330
47
102
}
330
47
100
AcDbProxyObject
 90
      499
 91
      503
 93
      113
310
904313A31364000000000000304000
  0
ACAD_PROXY_OBJECT
  5
4F
102
{ACAD_REACTORS
330
47
102
}
330
47
100
AcDbProxyObject
 90
      499
 91
      503
 93
      113
310
904313A32304000000000000344000
  0
ACAD_PROXY_OBJECT
  5
50
102
{ACAD_REACTORS
330
47
102
}
330
47
100
AcDbProxyObject
 90
      499
 91
      503
 93
      113
310
904313A333040000000000003E4000
  0
ACAD_PROXY_OBJECT
  5
51
102
{ACAD_REACTORS
330
47
102
}
330
47
100
AcDbProxyObject
 90
      499
 91
      503
 93
      113
310
904313A34304000000000000444000
  0
ACAD_PROXY_OBJECT
  5
52
102
{ACAD_REACTORS
330
47
102
}
330
47
100
AcDbProxyObject
 90
      499
 91
      503
 93
      113
310
904313A35304000000000000494000
  0
ACAD_PROXY_OBJECT
  5
53
102
{ACAD_REACTORS
330
47
102
}
330
47
100
AcDbProxyObject
 90
      499
 91
      503
 93
      121
310
905313A3130304000000000000594000
  0
ACAD_PROXY_OBJECT
  5
54
102
{ACAD_REACTORS
330
47
102
}
330
47
100
AcDbProxyObject
 90
      499
 91
      503
 93
      105
310
903323A310000000000000010100
  0
ACAD_PROXY_OBJECT
  5
55
102
{ACAD_REACTORS
330
47
102
}
330
47
100
AcDbProxyObject
 90
      499
 91
      503
 93
      105
310
903343A310000000000000410100
  0
ACAD_PROXY_OBJECT
  5
56
102
{ACAD_REACTORS
330
47
102
}
330
47
100
AcDbProxyObject
 90
      499
 91
      503
 93
      105
310
903383A310000000000000810100
  0
ACAD_PROXY_OBJECT
  5
57
102
{ACAD_REACTORS
330
47
102
}
330
47
100
AcDbProxyObject
 90
      499
 91
      503
 93
      113
310
90431303A310000000000000910100
  0
ACAD_PROXY_OBJECT
  5
58
102
{ACAD_REACTORS
330
47
102
}
330
47
100
AcDbProxyObject
 90
      499
 91
      503
 93
      121
310
9053130303A310000000000001650100
  0
ACAD_PROXY_OBJECT
  5
59
102
{ACAD_REACTORS
330
47
102
}
330
47
100
AcDbProxyObject
 90
      499
 91
      503
 93
      257
310
90E312F31323822203D2031272D3022000000000000200FC000000000000284000
  0
ACAD_PROXY_OBJECT
  5
5A
102
{ACAD_REACTORS
330
47
102
}
330
47
100
AcDbProxyObject
 90
      499
 91
      503
 93
      249
310
90D312F363422203D2031272D3022000000000000240FC000000000000284000
  0
ACAD_PROXY_OBJECT
  5
5B
102
{ACAD_REACTORS
330
47
102
}
330
47
100
AcDbProxyObject
 90
      499
 91
      503
 93
      249
310
90D312F333222203D2031272D3022000000000000280FC000000000000284000
  0
ACAD_PROXY_OBJECT
  5
5C
102
{ACAD_REACTORS
330
47
102
}
330
47
100
AcDbProxyObject
 90
      499
 91
      503
 93
      249
310
90D312F313622203D2031272D30220000000000002C0FC000000000000284000
  0
ACAD_PROXY_OBJECT
  5
5D
102
{ACAD_REACTORS
330
47
102
}
330
47
100
AcDbProxyObject
 90
      499
 91
      503
 93
      249
310
90D332F333222203D2031272D30220000000000002E0FC000000000000284000
  0
ACAD_PROXY_OBJECT
  5
5E
102
{ACAD_REACTORS
330
47
102
}
330
47
100
AcDbProxyObject
 90
      499
 91
      503
 93
      241
310
90C312F3822203D2031272D3022000000000000300FC000000000000284000
  0
ACAD_PROXY_OBJECT
  5
5F
102
{ACAD_REACTORS
330
47
102
}
330
47
100
AcDbProxyObject
 90
      499
 91
      503
 93
      249
310
90D332F313622203D2031272D3022000000000000320FC000000000000284000
  0
ACAD_PROXY_OBJECT
  5
60
102
{ACAD_REACTORS
330
47
102
}
330
47
100
AcDbProxyObject
 90
      499
 91
      503
 93
      241
310
90C312F3422203D2031272D3022000000000000340FC000000000000284000
  0
ACAD_PROXY_OBJECT
  5
61
102
{ACAD_REACTORS
330
47
102
}
330
47
100
AcDbProxyObject
 90
      499
 91
      503
 93
      241
310
90C332F3822203D2031272D3022000000000000360FC000000000000284000
  0
ACAD_PROXY_OBJECT
  5
62
102
{ACAD_REACTORS
330
47
102
}
330
47
100
AcDbProxyObject
 90
      499
 91
      503
 93
      241
310
90C312F3222203D2031272D3022000000000000380FC000000000000284000
  0
ACAD_PROXY_OBJECT
  5
63
102
{ACAD_REACTORS
330
47
102
}
330
47
100
AcDbProxyObject
 90
      499
 91
      503
 93
      241
310
90C332F3422203D2031272D30220000000000003A0FC000000000000284000
  0
ACAD_PROXY_OBJECT
  5
64
102
{ACAD_REACTORS
330
47
102
}
330
47
100
AcDbProxyObject
 90
      499
 91
      503
 93
      161
310
90A3122203D2031272D30224000000000000284000
  0
ACAD_PROXY_OBJECT
  5
65
102
{ACAD_REACTORS
330
47
102
}
330
47
100
AcDbProxyObject
 90
      499
 91
      503
 93
      257
310
90E312D312F3222203D2031272D30220000000000003E0FC000000000000284000
  0
ACAD_PROXY_OBJECT
  5
66
102
{ACAD_REACTORS
330
47
102
}
330
47
100
AcDbProxyObject
 90
      499
 91
      503
 93
      225
310
90A3322203D2031272D302200000000000002100000000000000284000
  0
ACAD_PROXY_OBJECT
  5
67
102
{ACAD_REACTORS
330
47
102
}
330
47
100
AcDbProxyObject
 90
      499
 91
      503
 93
      225
310
90A3622203D2031272D302200000000000006100000000000000284000
  0
ACAD_PROXY_OBJECT
  5
68
102
{ACAD_REACTORS
330
47
102
}
330
47
100
AcDbProxyObject
 90
      499
 91
      503
 93
      249
310
90D31272D3022203D2031272D30220000000000000A100000000000000284000
  0
ACAD_PROXY_OBJECT
  5
2F
102
{ACAD_REACTORS
330
2A
102
}
330
2A
100
AcDbProxyObject
 90
      499
 91
      501
 93
      436
310
42CC9915DA5C99599C985B595049028333333333333E33F0000000000000F90107901411070040501600405405064090741402480A0340
1001
ACAD
1000
AcDbSavedByObjectVersion
1070
     0
  0
ACAD_PROXY_OBJECT
  5
32
102
{ACAD_REACTORS
330
2A
102
}
330
2A
100
AcDbProxyObject
 90
      499
 91
      501
 93
      388
310
4150985CDA58D07406404333333333333E33F0000000000000F90107A41107004050150841D405064090741402480A0350
1001
ACAD
1000
AcDbSavedByObjectVersion
1070
     0
  0
ACAD_PROXY_OBJECT
  5
36
102
{ACAD_REACTORS
330
2A
102
}
330
2A
100
AcDbProxyObject
 90
      499
 91
      501
 93
      428
310
42109C9A59DA1D195B90C409028333333333333E33F0000000000000F9010790141107004050150841D405064090741402480A029950
1001
ACAD
1000
AcDbSavedByObjectVersion
1070
     0
  0
ACAD_PROXY_OBJECT
  5
3A
102
{ACAD_REACTORS
330
2A
102
}
330
2A
100
AcDbProxyObject
 90
      499
 91
      501
 93
      452
310
42D0DBDB1BDC90DA185B99D95104090240C333333333333E33F0000000000000F90108901411070040501508421405064090741402480A0350
1001
ACAD
1000
AcDbSavedByObjectVersion
1070
     0
  0
ACAD_PROXY_OBJECT
  5
34
102
{ACAD_REACTORS
330
2A
102
}
330
2A
100
AcDbProxyObject
 90
      499
 91
      501
 93
      500
310
4290DBDB98D95C1D1D585B10940D028333333333333E33F0000000000000F90107902409070040501000000000018199010841D405064090740C02480A0340
1001
ACAD
1000
AcDbSavedByObjectVersion
1070
     0
  0
ACAD_PROXY_OBJECT
  5
35
102
{ACAD_REACTORS
330
2A
102
}
330
2A
100
AcDbProxyObject
 90
      499
 91
      501
 93
      412
310
40D11A5B50B409028333333333333E33F0000000000000F9010790141107004050150841D405064090741402480A02677FFFFFD0
1001
ACAD
1000
AcDbSavedByObjectVersion
1070
     0
  0
ACAD_PROXY_OBJECT
  5
3D
102
{ACAD_REACTORS
330
2A
102
}
330
2A
100
AcDbProxyObject
 90
      499
 91
      501
 93
      452
310
43115919D950DBDB1BDC93D999916409028333333333333E33F0000000000000F9010790141107004050150841D405064090741402480A0350
1001
ACAD
1000
AcDbSavedByObjectVersion
1070
     0
  0
ACAD_PROXY_OBJECT
  5
39
102
{ACAD_REACTORS
330
2A
102
}
330
2A
100
AcDbProxyObject
 90
      499
 91
      501
 93
      444
310
42D19858D95C185D1D195C9B90F409028333333333333E33F0000000000000F9010790141107004050150841D405064090741402480A0350
1001
ACAD
1000
AcDbSavedByObjectVersion
1070
     0
  0
ACAD_PROXY_OBJECT
  5
2B
102
{ACAD_REACTORS
330
2A
102
}
330
2A
100
AcDbProxyObject
 90
      499
 91
      501
 93
      380
310
41119B185D240901404333333333333E33F0000000000000F9010740A907004050150841D405064090741402480A1B50
1001
ACAD
1000
AcDbSavedByObjectVersion
1070
     0
  0
ACAD_PROXY_OBJECT
  5
2C
102
{ACAD_REACTORS
330
2A
102
}
330
2A
100
AcDbProxyObject
 90
      499
 91
      501
 93
      468
310
43519B185D15DA5D1A115919D95CD0140901404333333333333E33F0000000000000F90107409019070040501600405405064090741402480A1B50
1001
ACAD
1000
AcDbSavedByObjectVersion
1070
     0
  0
ACAD_PROXY_OBJECT
  5
2D
102
{ACAD_REACTORS
330
2A
102
}
330
2A
100
AcDbProxyObject
 90
      499
 91
      501
 93
      404
310
41D1DBDD5C985D5910240902404333333333333E33F0000000000000F9010740A9070040501641D405064090741402480A1B50
1001
ACAD
1000
AcDbSavedByObjectVersion
1070
     0
  0
ACAD_PROXY_OBJECT
  5
2E
102
{ACAD_REACTORS
330
2A
102
}
330
2A
100
AcDbProxyObject
 90
      499
 91
      501
 93
      492
310
4411DBDD5C985D5915DA5D1A115919D95CD0340902404333333333333E33F0000000000000F90107409019070040501600405405064090741402480A1B50
1001
ACAD
1000
AcDbSavedByObjectVersion
1070
     0
  0
ACAD_PROXY_OBJECT
  5
31
102
{ACAD_REACTORS
330
2A
102
}
330
2A
100
AcDbProxyObject
 90
      499
 91
      501
 93
      476
310
41921A5919195B90640502408333333333333E33F0000000000000F901079024090700405020000000000001110200405405064090740C02480A0340
1001
ACAD
1000
AcDbSavedByObjectVersion
1070
     0
  0
ACAD_PROXY_OBJECT
  5
3B
102
{ACAD_REACTORS
330
2A
102
}
330
2A
100
AcDbProxyObject
 90
      499
 91
      501
 93
      428
310
42529A5D1D195C93D999914409028333333333333E33F0000000000000F9010790141107004050150A41D405064090741402480A0350
1001
ACAD
1000
AcDbSavedByObjectVersion
1070
     0
  0
ACAD_PROXY_OBJECT
  5
38
102
{ACAD_REACTORS
330
2A
102
}
330
2A
100
AcDbProxyObject
 90
      499
 91
      501
 93
      444
310
42D31A5B995C185D1D195C9B90E409028333333333333E33F0000000000000F9010790141107004050750841D405064090741402483A0350
1001
ACAD
1000
AcDbSavedByObjectVersion
1070
     0
  0
ACAD_PROXY_OBJECT
  5
3C
102
{ACAD_REACTORS
330
2A
102
}
330
2A
100
AcDbProxyObject
 90
      499
 91
      501
 93
      444
310
42D3DD995C9A185B99D3D999915409028333333333333E33F0000000000000F9010790141107004050150941D405064090741402480A0350
1001
ACAD
1000
AcDbSavedByObjectVersion
1070
     0
  0
ACAD_PROXY_OBJECT
  5
33
102
{ACAD_REACTORS
330
2A
102
}
330
2A
100
AcDbProxyObject
 90
      499
 91
      501
 93
      428
310
425499585B1A5CDD1A58D08409038333333333333E33F0000000000000F9010740A907004050150800405405064090740C02480A1B40
1001
ACAD
1000
AcDbSavedByObjectVersion
1070
     0
  0
ACAD_PROXY_OBJECT
  5
42
102
{ACAD_REACTORS
330
2A
102
}
330
2A
100
AcDbProxyObject
 90
      499
 91
      501
 93
      420
310
4194DA1859195911B40902404333333333333E33F0000000000000F9010740A41107004050150800405405064090840C02480A0B40
1001
ACAD
1000
AcDbSavedByObjectVersion
1070
     0
  0
ACAD_PROXY_OBJECT
  5
41
102
{ACAD_REACTORS
330
2A
102
}
330
2A
100
AcDbProxyObject
 90
      499
 91
      501
 93
      516
310
4454DA18591959081DDA5D1A08195919D95CD1A40902404333333333333E33F0000000000000F901074090142907004050250800405405064090740C02480A0B40
1001
ACAD
1000
AcDbSavedByObjectVersion
1070
     0
  0
ACAD_PROXY_OBJECT
  5
3E
102
{ACAD_REACTORS
330
2A
102
}
330
2A
100
AcDbProxyObject
 90
      499
 91
      501
 93
      532
310
4394DA1859195CC81BD98811DC985E5174090240C333333333333E33F0000000000000F901079024090741D01000000000000111010841D405064090740C02480A0340
1001
ACAD
1000
AcDbSavedByObjectVersion
1070
     0
  0
ACAD_PROXY_OBJECT
  5
3F
102
{ACAD_REACTORS
330
2A
102
}
330
2A
100
AcDbProxyObject
 90
      499
 91
      501
 93
      476
310
41D4DAD95D18DA1E51840502408333333333333E33F0000000000000F901079024090741D01000000000000111010B41D405064090741802480A0340
1001
ACAD
1000
AcDbSavedByObjectVersion
1070
     0
  0
ACAD_PROXY_OBJECT
  5
37
102
{ACAD_REACTORS
330
2A
102
}
330
2A
100
AcDbProxyObject
 90
      499
 91
      501
 93
      412
310
41D51A1A58DAD95B90D409028333333333333E33F0000000000000F9010790141107004050150C41D405064090741402480A0350
1001
ACAD
1000
AcDbSavedByObjectVersion
1070
     0
  0
ACAD_PROXY_OBJECT
  5
30
102
{ACAD_REACTORS
330
2A
102
}
330
2A
100
AcDbProxyObject
 90
      499
 91
      501
 93
      420
310
4255DA5C99599C985B595059028333333333333E33F0000000000000F90107901411070040501600405405064090740C02480A0340
1001
ACAD
1000
AcDbSavedByObjectVersion
1070
     0
  0
ACAD_PROXY_OBJECT
  5
40
102
{ACAD_REACTORS
330
2A
102
}
330
2A
100
AcDbProxyObject
 90
      499
 91
      501
 93
      404
310
41560B54985E51940902404000000000000E03F0000000000000F9010740501907004050150841D405064090740C02480A1B40
1001
ACAD
1000
AcDbSavedByObjectVersion
1070
     0
  0
XRECORD
  5
273
102
{ACAD_REACTORS
330
26A
102
}
330
26A
100
AcDbXrecord
 90
        0
  0
XRECORD
  5
289
102
{ACAD_REACTORS
330
26A
102
}
330
26A
100
AcDbXrecord
1000
DSTYLE
1002
{
1070
   171
 70
     2
1070
   143
 40
25.4
1070
   274
 70
     2
1070
    41
 40
0.18
1070
   141
 40
0.09
1070
   271
 70
     4
1070
    43
 40
0.38
1070
   278
 70
    46
1070
    44
 40
0.18
1070
    42
 40
0.0625
1070
   147
 40
0.09
1070
    77
 70
     0
1070
   272
 70
     4
1070
    73
 70
     1
1070
   172
 70
     0
1070
    74
 70
     1
1070
   283
 70
     1
1070
   340
340
11
1070
   140
 40
0.18
1070
   284
 70
     0
1070
    78
 70
     0
1002
}
  0
XRECORD
  5
274
102
{ACAD_REACTORS
330
26A
102
}
330
26A
100
AcDbXrecord
  1
{E99B4BE1-EB7F-4036-B793-A98CA5486761}
  0
XRECORD
  5
26D
102
{ACAD_REACTORS
330
26A
102
}
330
26A
100
AcDbXrecord
  1

  0
XRECORD
  5
272
102
{ACAD_REACTORS
330
26A
102
}
330
26A
100
AcDbXrecord
 90
        4
  0
XRECORD
  5
26F
102
{ACAD_REACTORS
330
26A
102
}
330
26A
100
AcDbXrecord
340
1A
  0
XRECORD
  5
271
102
{ACAD_REACTORS
330
26A
102
}
330
26A
100
AcDbXrecord
 90
    10781
  0
XRECORD
  5
270
102
{ACAD_REACTORS
330
26A
102
}
330
26A
100
AcDbXrecord
340
19
  0
XRECORD
  5
276
102
{ACAD_REACTORS
330
26A
102
}
330
26A
100
AcDbXrecord
 40
0.0
  0
XRECORD
  5
279
102
{ACAD_REACTORS
330
26A
102
}
330
26A
100
AcDbXrecord
340
0
  0
XRECORD
  5
27F
102
{ACAD_REACTORS
330
26A
102
}
330
26A
100
AcDbXrecord
 10
0.0
 20
0.0
 30
0.0
  0
XRECORD
  5
27B
102
{ACAD_REACTORS
330
26A
102
}
330
26A
100
AcDbXrecord
 10
0.0
 20
0.0
 30
0.0
  0
XRECORD
  5
27E
102
{ACAD_REACTORS
330
26A
102
}
330
26A
100
AcDbXrecord
 10
0.0
 20
0.0
 30
0.0
  0
XRECORD
  5
27C
102
{ACAD_REACTORS
330
26A
102
}
330
26A
100
AcDbXrecord
 10
0.0
 20
0.0
 30
0.0
  0
XRECORD
  5
27D
102
{ACAD_REACTORS
330
26A
102
}
330
26A
100
AcDbXrecord
 10
0.0
 20
0.0
 30
0.0
  0
XRECORD
  5
27A
102
{ACAD_REACTORS
330
26A
102
}
330
26A
100
AcDbXrecord
 10
0.0
 20
0.0
 30
0.0
  0
XRECORD
  5
277
102
{ACAD_REACTORS
330
26A
102
}
330
26A
100
AcDbXrecord
340
0
  0
XRECORD
  5
278
102
{ACAD_REACTORS
330
26A
102
}
330
26A
100
AcDbXrecord
 70
     0
  0
XRECORD
  5
26E
102
{ACAD_REACTORS
330
26A
102
}
330
26A
100
AcDbXrecord
  1

  0
XRECORD
  5
26B
102
{ACAD_REACTORS
330
26A
102
}
330
26A
100
AcDbXrecord
 90
        1
  0
XRECORD
  5
26C
102
{ACAD_REACTORS
330
26A
102
}
330
26A
100
AcDbXrecord
 90
       70
  0
XRECORD
  5
282
102
{ACAD_REACTORS
330
26A
102
}
330
26A
100
AcDbXrecord
340
0
  0
XRECORD
  5
288
102
{ACAD_REACTORS
330
26A
102
}
330
26A
100
AcDbXrecord
 10
0.0
 20
0.0
 30
0.0
  0
XRECORD
  5
284
102
{ACAD_REACTORS
330
26A
102
}
330
26A
100
AcDbXrecord
 10
0.0
 20
0.0
 30
0.0
  0
XRECORD
  5
287
102
{ACAD_REACTORS
330
26A
102
}
330
26A
100
AcDbXrecord
 10
0.0
 20
0.0
 30
0.0
  0
XRECORD
  5
285
102
{ACAD_REACTORS
330
26A
102
}
330
26A
100
AcDbXrecord
 10
0.0
 20
0.0
 30
0.0
  0
XRECORD
  5
286
102
{ACAD_REACTORS
330
26A
102
}
330
26A
100
AcDbXrecord
 10
0.0
 20
0.0
 30
0.0
  0
XRECORD
  5
283
102
{ACAD_REACTORS
330
26A
102
}
330
26A
100
AcDbXrecord
 10
0.0
 20
0.0
 30
0.0
  0
XRECORD
  5
280
102
{ACAD_REACTORS
330
26A
102
}
330
26A
100
AcDbXrecord
340
0
  0
XRECORD
  5
281
102
{ACAD_REACTORS
330
26A
102
}
330
26A
100
AcDbXrecord
 70
     0
  0
XRECORD
  5
275
102
{ACAD_REACTORS
330
26A
102
}
330
26A
100
AcDbXrecord
  1
{FAEB1C32-E019-11D5-929B-00C0DF256EC4}
  0
DICTIONARYVAR
  5
293
102
{ACAD_REACTORS
330
28A
102
}
330
28A
100
DictionaryVariables
280
     0
  1
1:1
  0
DICTIONARYVAR
  5
28F
102
{ACAD_REACTORS
330
28A
102
}
330
28A
100
DictionaryVariables
280
     0
  1
2
  0
DICTIONARYVAR
  5
290
102
{ACAD_REACTORS
330
28A
102
}
330
28A
100
DictionaryVariables
280
     0
  1
1
  0
DICTIONARYVAR
  5
294
102
{ACAD_REACTORS
330
28A
102
}
330
28A
100
DictionaryVariables
280
     0
  1
1
  0
DICTIONARY
  5
297
330
45
100
AcDbDictionary
280
     1
  3
ACAD_XREC_ROUNDTRIP
360
298
  0
DICTIONARY
  5
295
330
44
100
AcDbDictionary
280
     1
  3
ACAD_XREC_ROUNDTRIP
360
296
  0
DICTIONARY
  5
299
330
46
100
AcDbDictionary
280
     1
  3
ACAD_XREC_ROUNDTRIP
360
29A
  0
XRECORD
  5
298
102
{ACAD_REACTORS
330
297
102
}
330
297
100
AcDbXrecord
102
MATERIAL
148
0.0
149
0.0
149
0.0
 93
        0
 94
      127
282
     0
 72
     1
 77
     1
171
     1
175
     1
179
     1
273
     0
  0
XRECORD
  5
296
102
{ACAD_REACTORS
330
295
102
}
330
295
100
AcDbXrecord
102
MATERIAL
148
0.0
149
0.0
149
0.0
 93
        0
 94
      127
282
     0
 72
     1
 77
     1
171
     1
175
     1
179
     1
273
     0
  0
XRECORD
  5
29A
102
{ACAD_REACTORS
330
299
102
}
330
299
100
AcDbXrecord
102
MATERIAL
148
0.0
149
0.0
149
0.0
 93
        0
 94
      127
282
     0
 72
     1
 77
     1
171
     1
175
     1
179
     1
273
     0
  0
ENDSEC
  0
EOF
