  0
SECTION
  2
HEADER
  9
$ACADVER
  1
AC1014
  9
$ACADMAINTVER
 70
     9
  9
$DWGCODEPAGE
  3
ANSI_1252
  9
$INSBASE
 10
0.0
 20
0.0
 30
0.0
  9
$EXTMIN
 10
1.000000000000000E+20
 20
1.000000000000000E+20
 30
1.000000000000000E+20
  9
$EXTMAX
 10
-1.000000000000000E+20
 20
-1.000000000000000E+20
 30
-1.000000000000000E+20
  9
$LIMMIN
 10
0.0
 20
0.0
  9
$LIMMAX
 10
12.0
 20
9.0
  9
$ORTHOMODE
 70
     0
  9
$REGENMODE
 70
     1
  9
$FILLMODE
 70
     1
  9
$QTEXTMODE
 70
     0
  9
$MIRRTEXT
 70
     1
  9
$DRAGMODE
 70
     2
  9
$LTSCALE
 40
1.0
  9
$OSMODE
 70
    37
  9
$ATTMODE
 70
     1
  9
$TEXTSIZE
 40
0.2
  9
$TRACEWID
 40
0.05
  9
$TEXTSTYLE
  7
STANDARD
  9
$CLAYER
  8
0
  9
$CELTYPE
  6
BYLAYER
  9
$CECOLOR
 62
   256
  9
$CELTSCALE
 40
1.0
  9
$DELOBJ
 70
     1
  9
$DISPSILH
 70
     0
  9
$DIMSCALE
 40
1.0
  9
$DIMASZ
 40
0.18
  9
$DIMEXO
 40
0.0625
  9
$DIMDLI
 40
0.38
  9
$DIMRND
 40
0.0
  9
$DIMDLE
 40
0.0
  9
$DIMEXE
 40
0.18
  9
$DIMTP
 40
0.0
  9
$DIMTM
 40
0.0
  9
$DIMTXT
 40
0.18
  9
$DIMCEN
 40
0.09
  9
$DIMTSZ
 40
0.0
  9
$DIMTOL
 70
     0
  9
$DIMLIM
 70
     0
  9
$DIMTIH
 70
     1
  9
$DIMTOH
 70
     1
  9
$DIMSE1
 70
     0
  9
$DIMSE2
 70
     0
  9
$DIMTAD
 70
     0
  9
$DIMZIN
 70
     0
  9
$DIMBLK
  1

  9
$DIMASO
 70
     1
  9
$DIMSHO
 70
     1
  9
$DIMPOST
  1

  9
$DIMAPOST
  1

  9
$DIMALT
 70
     0
  9
$DIMALTD
 70
     2
  9
$DIMALTF
 40
25.4
  9
$DIMLFAC
 40
1.0
  9
$DIMTOFL
 70
     0
  9
$DIMTVP
 40
0.0
  9
$DIMTIX
 70
     0
  9
$DIMSOXD
 70
     0
  9
$DIMSAH
 70
     0
  9
$DIMBLK1
  1

  9
$DIMBLK2
  1

  9
$DIMSTYLE
  2
STANDARD
  9
$DIMCLRD
 70
     0
  9
$DIMCLRE
 70
     0
  9
$DIMCLRT
 70
     0
  9
$DIMTFAC
 40
1.0
  9
$DIMGAP
 40
0.09
  9
$DIMJUST
 70
     0
  9
$DIMSD1
 70
     0
  9
$DIMSD2
 70
     0
  9
$DIMTOLJ
 70
     1
  9
$DIMTZIN
 70
     0
  9
$DIMALTZ
 70
     0
  9
$DIMALTTZ
 70
     0
  9
$DIMFIT
 70
     3
  9
$DIMUPT
 70
     0
  9
$DIMUNIT
 70
     2
  9
$DIMDEC
 70
     4
  9
$DIMTDEC
 70
     4
  9
$DIMALTU
 70
     2
  9
$DIMALTTD
 70
     2
  9
$DIMTXSTY
  7
STANDARD
  9
$DIMAUNIT
 70
     0
  9
$LUNITS
 70
     2
  9
$LUPREC
 70
     4
  9
$SKETCHINC
 40
0.1
  9
$FILLETRAD
 40
0.5
  9
$AUNITS
 70
     0
  9
$AUPREC
 70
     0
  9
$MENU
  1
.
  9
$ELEVATION
 40
0.0
  9
$PELEVATION
 40
0.0
  9
$THICKNESS
 40
0.0
  9
$LIMCHECK
 70
     0
  9
$CHAMFERA
 40
0.0
  9
$CHAMFERB
 40
0.0
  9
$CHAMFERC
 40
0.0
  9
$CHAMFERD
 40
0.0
  9
$SKPOLY
 70
     0
  9
$TDCREATE
 40
2457882.043351389
  9
$TDUPDATE
 40
2457882.043352037
  9
$TDINDWG
 40
0.0000000116
  9
$TDUSRTIMER
 40
0.0000000116
  9
$USRTIMER
 70
     1
  9
$ANGBASE
 50
0.0
  9
$ANGDIR
 70
     0
  9
$PDMODE
 70
     0
  9
$PDSIZE
 40
0.0
  9
$PLINEWID
 40
0.0
  9
$COORDS
 70
     1
  9
$SPLFRAME
 70
     0
  9
$SPLINETYPE
 70
     6
  9
$SPLINESEGS
 70
     8
  9
$ATTDIA
 70
     0
  9
$ATTREQ
 70
     1
  9
$HANDLING
 70
     1
  9
$HANDSEED
  5
2CF
  9
$SURFTAB1
 70
     6
  9
$SURFTAB2
 70
     6
  9
$SURFTYPE
 70
     6
  9
$SURFU
 70
     6
  9
$SURFV
 70
     6
  9
$UCSNAME
  2

  9
$UCSORG
 10
0.0
 20
0.0
 30
0.0
  9
$UCSXDIR
 10
1.0
 20
0.0
 30
0.0
  9
$UCSYDIR
 10
0.0
 20
1.0
 30
0.0
  9
$PUCSNAME
  2

  9
$PUCSORG
 10
0.0
 20
0.0
 30
0.0
  9
$PUCSXDIR
 10
1.0
 20
0.0
 30
0.0
  9
$PUCSYDIR
 10
0.0
 20
1.0
 30
0.0
  9
$USERI1
 70
     0
  9
$USERI2
 70
     0
  9
$USERI3
 70
     0
  9
$USERI4
 70
     0
  9
$USERI5
 70
     0
  9
$USERR1
 40
0.0
  9
$USERR2
 40
0.0
  9
$USERR3
 40
0.0
  9
$USERR4
 40
0.0
  9
$USERR5
 40
0.0
  9
$WORLDVIEW
 70
     1
  9
$SHADEDGE
 70
     3
  9
$SHADEDIF
 70
    70
  9
$TILEMODE
 70
     1
  9
$MAXACTVP
 70
    64
  9
$PINSBASE
 10
0.0
 20
0.0
 30
0.0
  9
$PLIMCHECK
 70
     0
  9
$PEXTMIN
 10
1.000000000000000E+20
 20
1.000000000000000E+20
 30
1.000000000000000E+20
  9
$PEXTMAX
 10
-1.000000000000000E+20
 20
-1.000000000000000E+20
 30
-1.000000000000000E+20
  9
$PLIMMIN
 10
0.0
 20
0.0
  9
$PLIMMAX
 10
12.0
 20
9.0
  9
$UNITMODE
 70
     0
  9
$VISRETAIN
 70
     1
  9
$PLINEGEN
 70
     0
  9
$PSLTSCALE
 70
     1
  9
$TREEDEPTH
 70
  3020
  9
$PICKSTYLE
 70
     1
  9
$CMLSTYLE
  2
STANDARD
  9
$CMLJUST
 70
     0
  9
$CMLSCALE
 40
1.0
  9
$PROXYGRAPHICS
 70
     1
  9
$MEASUREMENT
 70
     1
  0
ENDSEC
  0
SECTION
  2
CLASSES
  0
CLASS
  1
ACDBDICTIONARYWDFLT
  2
AcDbDictionaryWithDefault
  3
ObjectDBX Classes
 90
        0
280
     0
281
     0
  0
CLASS
  1
VISUALSTYLE
  2
AcDbVisualStyle
  3
ObjectDBX Classes
 90
     4095
280
     0
281
     0
  0
CLASS
  1
MATERIAL
  2
AcDbMaterial
  3
ObjectDBX Classes
 90
     1153
280
     0
281
     0
  0
CLASS
  1
SCALE
  2
AcDbScale
  3
ObjectDBX Classes
 90
     1153
280
     0
281
     0
  0
CLASS
  1
SUN
  2
AcDbSun
  3
SCENEOE
 90
     1153
280
     0
281
     0
  0
CLASS
  1
DICTIONARYVAR
  2
AcDbDictionaryVar
  3
ObjectDBX Classes
 90
        0
280
     0
281
     0
  0
CLASS
  1
XRECORD
  2
AcDbXrecord
  3
ObjectDBX Classes
 90
        0
280
     0
281
     0
  0
CLASS
  1
LWPOLYLINE
  2
AcDbPolyline
  3
ObjectDBX Classes
 90
        0
280
     0
281
     1
  0
CLASS
  1
HATCH
  2
AcDbHatch
  3
ObjectDBX Classes
 90
        0
280
     0
281
     1
  0
CLASS
  1
ACDBPLACEHOLDER
  2
AcDbPlaceHolder
  3
ObjectDBX Classes
 90
        0
280
     0
281
     0
  0
CLASS
  1
LAYOUT
  2
AcDbLayout
  3
ObjectDBX Classes
 90
        0
280
     0
281
     0
  0
ENDSEC
  0
SECTION
  2
TABLES
  0
TABLE
  2
VPORT
  5
8
102
{ACAD_XDICTIONARY
360
2C5
102
}
330
0
100
AcDbSymbolTable
 70
     1
  0
VPORT
  5
29
330
8
100
AcDbSymbolTableRecord
100
AcDbViewportTableRecord
  2
*ACTIVE
 70
     0
 10
0.0
 20
0.0
 11
1.0
 21
1.0
 12
0.0
 22
0.0
 13
0.0
 23
0.0
 14
0.5
 24
0.5
 15
0.5
 25
0.5
 16
0.0
 26
0.0
 36
828.4553848020778
 17
150.0000011762639
 27
248.1500000205139
 37
-0.0014371962237192
 40
522.4210526352355
 41
1.3333
 42
50.0
 43
-803.0553848020778
 44
24571.54461519792
 50
0.0
 51
0.0
 71
     0
 72
   100
 73
     1
 74
     3
 75
     0
 76
     0
 77
     0
 78
     0
  0
ENDTAB
  0
TABLE
  2
LTYPE
  5
5
330
0
100
AcDbSymbolTable
 70
     1
  0
LTYPE
  5
14
330
5
100
AcDbSymbolTableRecord
100
AcDbLinetypeTableRecord
  2
BYBLOCK
 70
     0
  3

 72
    65
 73
     0
 40
0.0
  0
LTYPE
  5
15
330
5
100
AcDbSymbolTableRecord
100
AcDbLinetypeTableRecord
  2
BYLAYER
 70
     0
  3

 72
    65
 73
     0
 40
0.0
  0
LTYPE
  5
16
330
5
100
AcDbSymbolTableRecord
100
AcDbLinetypeTableRecord
  2
CONTINUOUS
 70
     0
  3
Solid line
 72
    65
 73
     0
 40
0.0
  0
ENDTAB
  0
TABLE
  2
LAYER
  5
2
330
0
100
AcDbSymbolTable
 70
     1
  0
LAYER
  5
10
330
2
100
AcDbSymbolTableRecord
100
AcDbLayerTableRecord
  2
0
 70
     0
 62
    13
  6
CONTINUOUS
  0
ENDTAB
  0
TABLE
  2
STYLE
  5
3
330
0
100
AcDbSymbolTable
 70
     2
  0
STYLE
  5
11
330
3
100
AcDbSymbolTableRecord
100
AcDbTextStyleTableRecord
  2
STANDARD
 70
     0
 40
0.0
 41
1.0
 50
0.0
 71
     0
 42
0.2
  3
txt
  4

  0
STYLE
  5
6A
330
3
100
AcDbSymbolTableRecord
100
AcDbTextStyleTableRecord
  2
TAHOMA
 70
     0
 40
0.0
 41
1.0
 50
0.0
 71
     0
 42
0.2
  3
Tahoma
  4

1001
ACAD
1000
Tahoma
1071
       34
  0
ENDTAB
  0
TABLE
  2
VIEW
  5
6
330
0
100
AcDbSymbolTable
 70
     0
  0
ENDTAB
  0
TABLE
  2
UCS
  5
7
330
0
100
AcDbSymbolTable
 70
     0
  0
ENDTAB
  0
TABLE
  2
APPID
  5
9
330
0
100
AcDbSymbolTable
 70
     1
  0
APPID
  5
12
330
9
100
AcDbSymbolTableRecord
100
AcDbRegAppTableRecord
  2
ACAD
 70
     0
  0
ENDTAB
  0
TABLE
  2
DIMSTYLE
  5
A
330
0
100
AcDbSymbolTable
 70
     1
  0
DIMSTYLE
105
27
330
A
100
AcDbSymbolTableRecord
100
AcDbDimStyleTableRecord
  2
STANDARD
 70
     0
  3

  4

  5

  6

  7

 40
1.0
 41
0.18
 42
0.0625
 43
0.38
 44
0.18
 45
0.0
 46
0.0
 47
0.0
 48
0.0
140
0.18
141
0.09
142
0.0
143
25.4
144
1.0
145
0.0
146
1.0
147
0.09
 71
     0
 72
     0
 73
     1
 74
     1
 75
     0
 76
     0
 77
     0
 78
     0
170
     0
171
     2
172
     0
173
     0
174
     0
175
     0
176
     0
177
     0
178
     0
270
     2
271
     4
272
     4
273
     2
274
     2
340
11
275
     0
280
     0
281
     0
282
     0
283
     1
284
     0
285
     0
286
     0
287
     3
288
     0
  0
ENDTAB
  0
TABLE
  2
BLOCK_RECORD
  5
1
330
0
100
AcDbSymbolTable
 70
     1
  0
BLOCK_RECORD
  5
1F
330
1
100
AcDbSymbolTableRecord
100
AcDbBlockTableRecord
  2
*MODEL_SPACE
  0
BLOCK_RECORD
  5
1B
330
1
100
AcDbSymbolTableRecord
100
AcDbBlockTableRecord
  2
*PAPER_SPACE
  0
ENDTAB
  0
ENDSEC
  0
SECTION
  2
BLOCKS
  0
BLOCK
  5
20
330
1F
100
AcDbEntity
  8
0
100
AcDbBlockBegin
  2
*MODEL_SPACE
 70
     0
 10
0.0
 20
0.0
 30
0.0
  3
*MODEL_SPACE
  1

  0
ENDBLK
  5
21
330
1F
100
AcDbEntity
  8
0
100
AcDbBlockEnd
  0
BLOCK
  5
1C
330
1B
100
AcDbEntity
 67
     1
  8
0
100
AcDbBlockBegin
  2
*PAPER_SPACE
 70
     0
 10
0.0
 20
0.0
 30
0.0
  3
*PAPER_SPACE
  1

  0
ENDBLK
  5
1D
330
1B
100
AcDbEntity
 67
     1
  8
0
100
AcDbBlockEnd
  0
ENDSEC
  0
SECTION
  2
ENTITIES
  0
LINE
  5
6B
330
1F
100
AcDbEntity
  8
0
100
AcDbLine
 10
224.0000025016053
 20
5.000001566027065
 30
-0.0000001939907823
 11
234.0000025016045
 21
5.000001566027065
 31
-0.0000001939907823
  0
LINE
  5
6C
330
1F
100
AcDbEntity
  8
0
100
AcDbLine
 10
224.0000025016053
 20
11.0000015660286
 30
-0.0000001950158399
 11
224.0000025016053
 21
5.000001566027065
 31
-0.0000001939907823
  0
POLYLINE
  5
6D
330
1F
100
AcDbEntity
  8
0
100
AcDb3dPolyline
 66
     1
 10
0.0
 20
0.0
 30
0.0
 70
     9
  0
VERTEX
  5
6E
330
6D
100
AcDbEntity
  8
0
100
AcDbVertex
100
AcDb3dPolylineVertex
 10
255.5000025016045
 20
8.000001566032434
 30
-0.0000001949893551
 70
    32
  0
VERTEX
  5
6F
330
6D
100
AcDbEntity
  8
0
100
AcDbVertex
100
AcDb3dPolylineVertex
 10
255.4488912410375
 20
7.611772998378457
 30
-0.0000001948897129
 70
    32
  0
VERTEX
  5
70
330
6D
100
AcDbEntity
  8
0
100
AcDbVertex
100
AcDb3dPolylineVertex
 10
255.299040607281
 20
7.250001566032426
 30
-0.0000001947968778
 70
    32
  0
VERTEX
  5
71
330
6D
100
AcDbEntity
  8
0
100
AcDbVertex
100
AcDb3dPolylineVertex
 10
255.0606626733842
 20
6.939341394252543
 30
-0.0000001947172062
 70
    32
  0
VERTEX
  5
72
330
6D
100
AcDbEntity
  8
0
100
AcDbVertex
100
AcDb3dPolylineVertex
 10
254.7500025016045
 20
6.700963460355593
 30
-0.0000001946561437
 70
    32
  0
VERTEX
  5
73
330
6D
100
AcDbEntity
  8
0
100
AcDbVertex
100
AcDb3dPolylineVertex
 10
254.3882310692582
 20
6.551112826598652
 30
-0.000000194617802
 70
    32
  0
VERTEX
  5
74
330
6D
100
AcDbEntity
  8
0
100
AcDbVertex
100
AcDb3dPolylineVertex
 10
254.000002501604
 20
6.500001566032327
 30
-0.0000001946048443
 70
    32
  0
VERTEX
  5
75
330
6D
100
AcDbEntity
  8
0
100
AcDbVertex
100
AcDb3dPolylineVertex
 10
253.6117739339505
 20
6.551112826598742
 30
-0.0000001946181177
 70
    32
  0
VERTEX
  5
76
330
6D
100
AcDbEntity
  8
0
100
AcDbVertex
100
AcDb3dPolylineVertex
 10
253.2500025016045
 20
6.700963460356588
 30
-0.0000001946567739
 70
    32
  0
VERTEX
  5
77
330
6D
100
AcDbEntity
  8
0
100
AcDbVertex
100
AcDb3dPolylineVertex
 10
252.9393423298246
 20
6.939341394252545
 30
-0.0000001947181087
 70
    32
  0
VERTEX
  5
78
330
6D
100
AcDbEntity
  8
0
100
AcDbVertex
100
AcDb3dPolylineVertex
 10
252.7009643959277
 20
7.250001566033326
 30
-0.0000001947979621
 70
    32
  0
VERTEX
  5
79
330
6D
100
AcDbEntity
  8
0
100
AcDbVertex
100
AcDb3dPolylineVertex
 10
252.5511137621703
 20
7.611772998378454
 30
-0.0000001948909304
 70
    32
  0
VERTEX
  5
7A
330
6D
100
AcDbEntity
  8
0
100
AcDbVertex
100
AcDb3dPolylineVertex
 10
252.5000025016044
 20
8.000001566033337
 30
-0.0000001949906187
 70
    32
  0
VERTEX
  5
7B
330
6D
100
AcDbEntity
  8
0
100
AcDbVertex
100
AcDb3dPolylineVertex
 10
252.5511137621707
 20
8.388230133686063
 30
-0.0000001950902957
 70
    32
  0
VERTEX
  5
7C
330
6D
100
AcDbEntity
  8
0
100
AcDbVertex
100
AcDb3dPolylineVertex
 10
252.7009643959277
 20
8.750001566033347
 30
-0.0000001951831334
 70
    32
  0
VERTEX
  5
7D
330
6D
100
AcDbEntity
  8
0
100
AcDbVertex
100
AcDb3dPolylineVertex
 10
252.9393423298242
 20
9.060661737812152
 30
-0.0000001952627983
 70
    32
  0
VERTEX
  5
7E
330
6D
100
AcDbEntity
  8
0
100
AcDbVertex
100
AcDb3dPolylineVertex
 10
253.2500025016044
 20
9.299039671709913
 30
-0.000000195323886
 70
    32
  0
VERTEX
  5
7F
330
6D
100
AcDbEntity
  8
0
100
AcDbVertex
100
AcDb3dPolylineVertex
 10
253.6117739339505
 20
9.448890305465946
 30
-0.0000001953622199
 70
    32
  0
VERTEX
  5
80
330
6D
100
AcDbEntity
  8
0
100
AcDbVertex
100
AcDb3dPolylineVertex
 10
254.0000025016044
 20
9.500001566032372
 30
-0.0000001953751863
 70
    32
  0
VERTEX
  5
81
330
6D
100
AcDbEntity
  8
0
100
AcDbVertex
100
AcDb3dPolylineVertex
 10
254.3882310692582
 20
9.448890305465861
 30
-0.0000001953618833
 70
    32
  0
VERTEX
  5
82
330
6D
100
AcDbEntity
  8
0
100
AcDbVertex
100
AcDb3dPolylineVertex
 10
254.7500025016045
 20
9.29903967170892
 30
-0.0000001953232552
 70
    32
  0
VERTEX
  5
83
330
6D
100
AcDbEntity
  8
0
100
AcDbVertex
100
AcDb3dPolylineVertex
 10
255.0606626733838
 20
9.060661737812149
 30
-0.0000001952619195
 70
    32
  0
VERTEX
  5
84
330
6D
100
AcDbEntity
  8
0
100
AcDbVertex
100
AcDb3dPolylineVertex
 10
255.2990406072811
 20
8.750001566032449
 30
-0.0000001951820498
 70
    32
  0
VERTEX
  5
85
330
6D
100
AcDbEntity
  8
0
100
AcDbVertex
100
AcDb3dPolylineVertex
 10
255.448891241038
 20
8.388230133686065
 30
-0.000000195089078
 70
    32
  0
VERTEX
  5
86
330
6D
100
AcDbEntity
  8
0
100
AcDbVertex
100
AcDb3dPolylineVertex
 10
255.5000025016045
 20
8.000001566032434
 30
-0.0000001949893551
 70
    32
  0
SEQEND
  5
87
330
6D
100
AcDbEntity
  8
0
  0
LINE
  5
88
330
1F
100
AcDbEntity
  8
0
100
AcDbLine
 10
180.0000025003629
 20
5.00000156603627
 30
-0.0000001939872395
 11
180.0000025003627
 21
11.0000015660369
 31
-0.0000001950095912
  0
POLYLINE
  5
89
330
1F
100
AcDbEntity
  8
0
100
AcDb3dPolyline
 66
     1
 10
0.0
 20
0.0
 30
0.0
 70
     8
  0
VERTEX
  5
8A
330
89
100
AcDbEntity
  8
0
100
AcDbVertex
100
AcDb3dPolylineVertex
 10
36.00000291209639
 20
50.00000001873489
 30
-0.001438266022211
 70
    32
  0
VERTEX
  5
8B
330
89
100
AcDbEntity
  8
0
100
AcDbVertex
100
AcDb3dPolylineVertex
 10
36.13905318376469
 20
78.17371224173377
 30
-0.0016315725989468
 70
    32
  0
VERTEX
  5
8C
330
89
100
AcDbEntity
  8
0
100
AcDbVertex
100
AcDb3dPolylineVertex
 10
36.55619043194621
 20
106.3446794229205
 30
-0.0018117968292381
 70
    32
  0
VERTEX
  5
8D
330
89
100
AcDbEntity
  8
0
100
AcDbVertex
100
AcDb3dPolylineVertex
 10
37.25137401381963
 20
134.5101567879378
 30
-0.0019789211532436
 70
    32
  0
VERTEX
  5
8E
330
89
100
AcDbEntity
  8
0
100
AcDbVertex
100
AcDb3dPolylineVertex
 10
38.22453619574694
 20
162.6674000973205
 30
-0.0021329292874661
 70
    32
  0
VERTEX
  5
8F
330
89
100
AcDbEntity
  8
0
100
AcDbVertex
100
AcDb3dPolylineVertex
 10
39.47558215987593
 20
190.8136659138642
 30
-0.0022738062268497
 70
    32
  0
VERTEX
  5
90
330
89
100
AcDbEntity
  8
0
100
AcDbVertex
100
AcDb3dPolylineVertex
 10
41.00439001337936
 20
218.9462118699364
 30
-0.0024015382450469
 70
    32
  0
VERTEX
  5
91
330
89
100
AcDbEntity
  8
0
100
AcDbVertex
100
AcDb3dPolylineVertex
 10
42.81081080032575
 20
247.0622969346665
 30
-0.0025161128966798
 70
    32
  0
VERTEX
  5
92
330
89
100
AcDbEntity
  8
0
100
AcDbVertex
100
AcDb3dPolylineVertex
 10
44.89466851620035
 20
275.1591816810129
 30
-0.0026175190187475
 70
    32
  0
VERTEX
  5
93
330
89
100
AcDbEntity
  8
0
100
AcDbVertex
100
AcDb3dPolylineVertex
 10
47.25576012504832
 20
303.2341285526742
 30
-0.0027057467306741
 70
    32
  0
VERTEX
  5
94
330
89
100
AcDbEntity
  8
0
100
AcDbVertex
100
AcDb3dPolylineVertex
 10
49.89385557925791
 20
331.2844021308165
 30
-0.002780787436728
 70
    32
  0
VERTEX
  5
95
330
89
100
AcDbEntity
  8
0
100
AcDbVertex
100
AcDb3dPolylineVertex
 10
52.80869784197677
 20
359.3072694005914
 30
-0.002842633824736
 70
    32
  0
VERTEX
  5
96
330
89
100
AcDbEntity
  8
0
100
AcDbVertex
100
AcDb3dPolylineVertex
 10
54.85995512133194
 20
377.3000000183396
 30
-0.0028362767636349
 70
    32
  0
SEQEND
  5
97
330
89
100
AcDbEntity
  8
0
  0
POLYLINE
  5
98
330
1F
100
AcDbEntity
  8
0
100
AcDb3dPolyline
 66
     1
 10
0.0
 20
0.0
 30
0.0
 70
     9
  0
VERTEX
  5
99
330
98
100
AcDbEntity
  8
0
100
AcDbVertex
100
AcDb3dPolylineVertex
 10
151.4488912398783
 20
488.6882285839777
 30
-0.0000002764642131
 70
    32
  0
VERTEX
  5
9A
330
98
100
AcDbEntity
  8
0
100
AcDbVertex
100
AcDb3dPolylineVertex
 10
151.5000025004444
 20
488.3000000163222
 30
-0.0000002763641494
 70
    32
  0
VERTEX
  5
9B
330
98
100
AcDbEntity
  8
0
100
AcDbVertex
100
AcDb3dPolylineVertex
 10
151.4488912398783
 20
487.9117714486698
 30
-0.0000002762648866
 70
    32
  0
VERTEX
  5
9C
330
98
100
AcDbEntity
  8
0
100
AcDbVertex
100
AcDb3dPolylineVertex
 10
151.2990406061214
 20
487.5500000163233
 30
-0.0000002761720195
 70
    32
  0
VERTEX
  5
9D
330
98
100
AcDbEntity
  8
0
100
AcDbVertex
100
AcDb3dPolylineVertex
 10
151.0606626722246
 20
487.2393398445445
 30
-0.0000002760922934
 70
    32
  0
VERTEX
  5
9E
330
98
100
AcDbEntity
  8
0
100
AcDbVertex
100
AcDb3dPolylineVertex
 10
150.7500025004444
 20
487.000961910647
 30
-0.0000002760313595
 70
    32
  0
VERTEX
  5
9F
330
98
100
AcDbEntity
  8
0
100
AcDbVertex
100
AcDb3dPolylineVertex
 10
150.3882310680983
 20
486.8511112768899
 30
-0.0000002759931095
 70
    32
  0
VERTEX
  5
A0
330
98
100
AcDbEntity
  8
0
100
AcDbVertex
100
AcDb3dPolylineVertex
 10
150.0000025004446
 20
486.8000000163234
 30
-0.0000002759800361
 70
    32
  0
VERTEX
  5
A1
330
98
100
AcDbEntity
  8
0
100
AcDbVertex
100
AcDb3dPolylineVertex
 10
149.6117739327907
 20
486.8511112768901
 30
-0.0000002759933915
 70
    32
  0
VERTEX
  5
A2
330
98
100
AcDbEntity
  8
0
100
AcDbVertex
100
AcDb3dPolylineVertex
 10
149.2500025004444
 20
487.000961910647
 30
-0.0000002760320363
 70
    32
  0
VERTEX
  5
A3
330
98
100
AcDbEntity
  8
0
100
AcDbVertex
100
AcDb3dPolylineVertex
 10
148.9393423286648
 20
487.2393398445445
 30
-0.0000002760932296
 70
    32
  0
VERTEX
  5
A4
330
98
100
AcDbEntity
  8
0
100
AcDbVertex
100
AcDb3dPolylineVertex
 10
148.7009643947681
 20
487.5500000163231
 30
-0.0000002761730798
 70
    32
  0
VERTEX
  5
A5
330
98
100
AcDbEntity
  8
0
100
AcDbVertex
100
AcDb3dPolylineVertex
 10
148.5511137610111
 20
487.9117714486698
 30
-0.0000002762661387
 70
    32
  0
VERTEX
  5
A6
330
98
100
AcDbEntity
  8
0
100
AcDbVertex
100
AcDb3dPolylineVertex
 10
148.5000025004444
 20
488.3000000163222
 30
-0.0000002763653902
 70
    32
  0
VERTEX
  5
A7
330
98
100
AcDbEntity
  8
0
100
AcDbVertex
100
AcDb3dPolylineVertex
 10
148.5511137610111
 20
488.6882285839776
 30
-0.0000002764654426
 70
    32
  0
VERTEX
  5
A8
330
98
100
AcDbEntity
  8
0
100
AcDbVertex
100
AcDb3dPolylineVertex
 10
148.700964394768
 20
489.0500000163228
 30
-0.0000002765581518
 70
    32
  0
VERTEX
  5
A9
330
98
100
AcDbEntity
  8
0
100
AcDbVertex
100
AcDb3dPolylineVertex
 10
148.9393423286648
 20
489.3606601881033
 30
-0.0000002766378441
 70
    32
  0
VERTEX
  5
AA
330
98
100
AcDbEntity
  8
0
100
AcDbVertex
100
AcDb3dPolylineVertex
 10
149.2500025004444
 20
489.5990381220008
 30
-0.0000002766989133
 70
    32
  0
VERTEX
  5
AB
330
98
100
AcDbEntity
  8
0
100
AcDbVertex
100
AcDb3dPolylineVertex
 10
149.6117739327909
 20
489.7488887557579
 30
-0.0000002767374227
 70
    32
  0
VERTEX
  5
AC
330
98
100
AcDbEntity
  8
0
100
AcDbVertex
100
AcDb3dPolylineVertex
 10
150.0000025004446
 20
489.8000000163249
 30
-0.0000002767503043
 70
    32
  0
VERTEX
  5
AD
330
98
100
AcDbEntity
  8
0
100
AcDbVertex
100
AcDb3dPolylineVertex
 10
150.3882310680985
 20
489.7488887557581
 30
-0.0000002767371295
 70
    32
  0
VERTEX
  5
AE
330
98
100
AcDbEntity
  8
0
100
AcDbVertex
100
AcDb3dPolylineVertex
 10
150.7500025004444
 20
489.599038122001
 30
-0.000000276698417
 70
    32
  0
VERTEX
  5
AF
330
98
100
AcDbEntity
  8
0
100
AcDbVertex
100
AcDb3dPolylineVertex
 10
151.0606626722246
 20
489.3606601881034
 30
-0.0000002766369191
 70
    32
  0
VERTEX
  5
B0
330
98
100
AcDbEntity
  8
0
100
AcDbVertex
100
AcDb3dPolylineVertex
 10
151.2990406061214
 20
489.0500000163231
 30
-0.0000002765571366
 70
    32
  0
VERTEX
  5
B1
330
98
100
AcDbEntity
  8
0
100
AcDbVertex
100
AcDb3dPolylineVertex
 10
151.4488912398783
 20
488.6882285839777
 30
-0.0000002764642131
 70
    32
  0
SEQEND
  5
B2
330
98
100
AcDbEntity
  8
0
  0
LINE
  5
B3
330
1F
100
AcDbEntity
  8
0
100
AcDbLine
 10
285.0000025015495
 20
441.8000000189796
 30
-0.0000007350911765
 11
283.0000025015497
 21
441.8000000189807
 31
-0.0000007350876121
  0
LINE
  5
B4
330
1F
100
AcDbEntity
  8
0
100
AcDbLine
 10
118.1753437680923
 20
463.3000000167918
 30
-0.0000011733305832
 11
21.00000253150125
 21
463.3000000167927
 31
-0.0000003739664492
  0
LINE
  5
B5
330
1F
100
AcDbEntity
  8
0
100
AcDbLine
 10
118.1753437680926
 20
423.6000802625259
 30
-0.0000005000149354
 11
118.1753437680923
 21
463.3000000167918
 31
-0.0000011733305832
  0
POLYLINE
  5
B6
330
1F
100
AcDbEntity
  8
0
100
AcDb3dPolyline
 66
     1
 10
0.0
 20
0.0
 30
0.0
 70
     9
  0
VERTEX
  5
B7
330
B6
100
AcDbEntity
  8
0
100
AcDbVertex
100
AcDb3dPolylineVertex
 10
142.3112885672465
 20
431.7373548691579
 30
-0.0000004386680084
 70
    32
  0
VERTEX
  5
B8
330
B6
100
AcDbEntity
  8
0
100
AcDbVertex
100
AcDb3dPolylineVertex
 10
143.0877457025541
 20
431.8395773902917
 30
-0.000000438693625
 70
    32
  0
VERTEX
  5
B9
330
B6
100
AcDbEntity
  8
0
100
AcDbVertex
100
AcDb3dPolylineVertex
 10
143.2368512368278
 20
431.8199472743001
 30
-0.0000050901503376
 70
    32
  0
VERTEX
  5
BA
330
B6
100
AcDbEntity
  8
0
100
AcDbVertex
100
AcDb3dPolylineVertex
 10
143.8642028378617
 20
431.7373548691587
 30
-0.0000004386673654
 70
    32
  0
VERTEX
  5
BB
330
B6
100
AcDbEntity
  8
0
100
AcDbVertex
100
AcDb3dPolylineVertex
 10
144.5877457025539
 20
431.4376536016447
 30
-0.0000004385903691
 70
    32
  0
VERTEX
  5
BC
330
B6
100
AcDbEntity
  8
0
100
AcDbVertex
100
AcDb3dPolylineVertex
 10
145.2090660461137
 20
430.9608977338506
 30
-0.0000004384671591
 70
    32
  0
VERTEX
  5
BD
330
B6
100
AcDbEntity
  8
0
100
AcDbVertex
100
AcDb3dPolylineVertex
 10
145.6858219139074
 20
430.3395773902914
 30
-0.000000438307549
 70
    32
  0
VERTEX
  5
BE
330
B6
100
AcDbEntity
  8
0
100
AcDbVertex
100
AcDb3dPolylineVertex
 10
145.985523181421
 20
429.6160345255993
 30
-0.000000438121747
 70
    32
  0
VERTEX
  5
BF
330
B6
100
AcDbEntity
  8
0
100
AcDbVertex
100
AcDb3dPolylineVertex
 10
146.0877457025539
 20
428.8395773902922
 30
-0.0000004379222739
 70
    32
  0
VERTEX
  5
C0
330
B6
100
AcDbEntity
  8
0
100
AcDbVertex
100
AcDb3dPolylineVertex
 10
145.985523181421
 20
428.063120254985
 30
-0.0000004377231279
 70
    32
  0
VERTEX
  5
C1
330
B6
100
AcDbEntity
  8
0
100
AcDbVertex
100
AcDb3dPolylineVertex
 10
145.6858219139074
 20
427.3395773902917
 30
-0.0000004375373485
 70
    32
  0
VERTEX
  5
C2
330
B6
100
AcDbEntity
  8
0
100
AcDbVertex
100
AcDb3dPolylineVertex
 10
145.2090660461139
 20
426.7182570467321
 30
-0.0000004373781106
 70
    32
  0
VERTEX
  5
C3
330
B6
100
AcDbEntity
  8
0
100
AcDbVertex
100
AcDb3dPolylineVertex
 10
144.5877457025541
 20
426.2415011789379
 30
-0.0000004372559722
 70
    32
  0
VERTEX
  5
C4
330
B6
100
AcDbEntity
  8
0
100
AcDbVertex
100
AcDb3dPolylineVertex
 10
143.8642028378617
 20
425.9417999114253
 30
-0.0000004371791563
 70
    32
  0
VERTEX
  5
C5
330
B6
100
AcDbEntity
  8
0
100
AcDbVertex
100
AcDb3dPolylineVertex
 10
143.2368512368972
 20
425.8592075062926
 30
-0.0000050888766941
 70
    32
  0
VERTEX
  5
C6
330
B6
100
AcDbEntity
  8
0
100
AcDbVertex
100
AcDb3dPolylineVertex
 10
143.0877457025538
 20
425.8395773902913
 30
-0.0000004371534495
 70
    32
  0
VERTEX
  5
C7
330
B6
100
AcDbEntity
  8
0
100
AcDbVertex
100
AcDb3dPolylineVertex
 10
142.3112885672465
 20
425.9417999114244
 30
-0.0000004371797993
 70
    32
  0
VERTEX
  5
C8
330
B6
100
AcDbEntity
  8
0
100
AcDbVertex
100
AcDb3dPolylineVertex
 10
141.5877457025541
 20
426.2415011789386
 30
-0.0000004372572355
 70
    32
  0
VERTEX
  5
C9
330
B6
100
AcDbEntity
  8
0
100
AcDbVertex
100
AcDb3dPolylineVertex
 10
140.9664253589945
 20
426.7182570467332
 30
-0.0000004373798477
 70
    32
  0
VERTEX
  5
CA
330
B6
100
AcDbEntity
  8
0
100
AcDbVertex
100
AcDb3dPolylineVertex
 10
140.4896694912007
 20
427.3395773902917
 30
-0.0000004375396044
 70
    32
  0
VERTEX
  5
CB
330
B6
100
AcDbEntity
  8
0
100
AcDbVertex
100
AcDb3dPolylineVertex
 10
140.1899682236866
 20
428.0631202549839
 30
-0.0000004377254515
 70
    32
  0
VERTEX
  5
CC
330
B6
100
AcDbEntity
  8
0
100
AcDbVertex
100
AcDb3dPolylineVertex
 10
140.0877457025538
 20
428.8395773902913
 30
-0.0000004379247329
 70
    32
  0
VERTEX
  5
CD
330
B6
100
AcDbEntity
  8
0
100
AcDbVertex
100
AcDb3dPolylineVertex
 10
140.1899682236866
 20
429.6160345255984
 30
-0.0000004381241384
 70
    32
  0
VERTEX
  5
CE
330
B6
100
AcDbEntity
  8
0
100
AcDbVertex
100
AcDb3dPolylineVertex
 10
140.4896694912007
 20
430.3395773902913
 30
-0.0000004383097824
 70
    32
  0
VERTEX
  5
CF
330
B6
100
AcDbEntity
  8
0
100
AcDbVertex
100
AcDb3dPolylineVertex
 10
140.9664253589945
 20
430.9608977338515
 30
-0.0000004384687495
 70
    32
  0
VERTEX
  5
D0
330
B6
100
AcDbEntity
  8
0
100
AcDbVertex
100
AcDb3dPolylineVertex
 10
141.5877457025538
 20
431.4376536016456
 30
-0.0000004385915873
 70
    32
  0
VERTEX
  5
D1
330
B6
100
AcDbEntity
  8
0
100
AcDbVertex
100
AcDb3dPolylineVertex
 10
142.3112885672465
 20
431.7373548691579
 30
-0.0000004386680084
 70
    32
  0
SEQEND
  5
D2
330
B6
100
AcDbEntity
  8
0
  0
LINE
  5
D3
330
1F
100
AcDbEntity
  8
0
100
AcDbLine
 10
284.0000025015225
 20
485.3000000163272
 30
-0.0000002753829703
 11
284.0000025015225
 21
491.3000000163278
 31
-0.0000002764053096
  0
LINE
  5
D4
330
1F
100
AcDbEntity
  8
0
100
AcDbLine
 10
66.00000250720437
 20
485.3000000163126
 30
-0.0000000757405668
 11
76.00000250712252
 21
485.3000000163126
 31
-0.0000000757405668
  0
LINE
  5
D5
330
1F
100
AcDbEntity
  8
0
100
AcDbLine
 10
66.00000250720437
 20
491.3000000163136
 30
-0.0000000767647673
 11
66.00000250720437
 21
485.3000000163126
 31
-0.0000000757405668
  0
LINE
  5
D6
330
1F
100
AcDbEntity
  8
0
100
AcDbLine
 10
130.0000025004446
 20
485.3000000163183
 30
-0.0000002753659602
 11
130.0000025004448
 21
491.30000001632
 31
-0.0000002763887846
  0
LINE
  5
D7
330
1F
100
AcDbEntity
  8
0
100
AcDbLine
 10
120.0000025004456
 20
491.3000000163202
 30
-0.0000002763910519
 11
120.0000025004454
 21
485.3000000163183
 31
-0.0000002753659602
  0
LINE
  5
D8
330
1F
100
AcDbEntity
  8
0
100
AcDbLine
 10
170.0000025004449
 20
491.3000000163283
 30
-0.0000002769370764
 11
170.0000025004447
 21
485.3000000163273
 31
-0.0000002753727507
  0
LINE
  5
D9
330
1F
100
AcDbEntity
  8
0
100
AcDbLine
 10
285.0000025015495
 20
441.8000000189796
 30
-0.0000007350911765
 11
285.0000025015497
 21
444.3000000189792
 31
-0.0000007355180743
  0
LINE
  5
DA
330
1F
100
AcDbEntity
  8
0
100
AcDbLine
 10
288.0000025015496
 20
444.30000001898
 30
-0.0000007355169576
 11
285.0000025015497
 21
444.3000000189792
 31
-0.0000007355180743
  0
LINE
  5
DB
330
1F
100
AcDbEntity
  8
0
100
AcDbLine
 10
288.0000025015496
 20
441.8000000189803
 30
-0.0000007350900824
 11
288.0000025015496
 21
444.30000001898
 31
-0.0000007355169576
  0
LINE
  5
DC
330
1F
100
AcDbEntity
  8
0
100
AcDbLine
 10
294.0000025015497
 20
441.8000000189799
 30
-0.0000007350915375
 11
288.0000025015496
 21
441.8000000189803
 31
-0.0000007350900824
  0
LINE
  5
DD
330
1F
100
AcDbEntity
  8
0
100
AcDbLine
 10
294.0000025015497
 20
441.8000000189799
 30
-0.0000007350915375
 11
294.000002501548
 21
460.30000001898
 31
-0.0000007382510279
  0
LINE
  5
DE
330
1F
100
AcDbEntity
  8
0
100
AcDbLine
 10
294.000002501548
 20
460.30000001898
 30
-0.0000007382510279
 11
300.0000023525271
 21
460.30000001898
 31
-0.0000006882688253
  0
LINE
  5
DF
330
1F
100
AcDbEntity
  8
0
100
AcDbLine
 10
300.0000023525271
 20
460.30000001898
 30
-0.0000006882688253
 11
300.0000023525274
 21
470.3000000188986
 31
-0.0000006899769241
  0
LINE
  5
E0
330
1F
100
AcDbEntity
  8
0
100
AcDbLine
 10
294.0000025015945
 20
470.3000000188985
 30
-0.0000007399579198
 11
300.0000023525274
 21
470.3000000188986
 31
-0.0000006899769241
  0
LINE
  5
E1
330
1F
100
AcDbEntity
  8
0
100
AcDbLine
 10
294.0000025015945
 20
470.3000000188985
 30
-0.0000007399579198
 11
294.0000025759988
 21
496.3000000222507
 31
-0.0000478705674121
  0
LINE
  5
E2
330
1F
100
AcDbEntity
  8
0
100
AcDbLine
 10
6.000002573857024
 20
496.3000000188962
 30
-0.0000478732696619
 11
294.0000025759988
 21
496.3000000222507
 31
-0.0000478705674121
  0
LINE
  5
E3
330
1F
100
AcDbEntity
  8
0
100
AcDbLine
 10
16.00000250720493
 20
491.3000000163128
 30
-0.0000000767524948
 11
16.00000250720493
 21
485.3000000163121
 31
-0.0000000757282943
  0
LINE
  5
E4
330
1F
100
AcDbEntity
  8
0
100
AcDbLine
 10
130.0000025004448
 20
491.30000001632
 30
-0.0000002763887846
 11
120.0000025004456
 21
491.3000000163202
 31
-0.0000002763910519
  0
LINE
  5
E5
330
1F
100
AcDbEntity
  8
0
100
AcDbLine
 10
288.0000025015508
 20
436.3000000189807
 30
-0.0000007341508305
 11
285.0000025015497
 21
436.3000000189795
 31
-0.0000007341522969
  0
LINE
  5
E6
330
1F
100
AcDbEntity
  8
0
100
AcDbLine
 10
285.0000025015497
 20
438.8000000189789
 30
-0.0000007345790593
 11
285.0000025015497
 21
436.3000000189795
 31
-0.0000007341522969
  0
LINE
  5
E7
330
1F
100
AcDbEntity
  8
0
100
AcDbLine
 10
285.0000025015497
 20
438.8000000189789
 30
-0.0000007345790593
 11
283.0000025015502
 21
438.80000001898
 31
-0.0000007345750663
  0
LINE
  5
E8
330
1F
100
AcDbEntity
  8
0
100
AcDbLine
 10
283.0000025015497
 20
441.8000000189807
 30
-0.0000007350876121
 11
283.0000025015502
 21
438.80000001898
 31
-0.0000007345750663
  0
LINE
  5
E9
330
1F
100
AcDbEntity
  8
0
100
AcDbLine
 10
294.0000025015524
 20
410.3000000189803
 30
-0.0000007297147638
 11
300.0000020839636
 21
410.3000000189813
 31
-0.0000006797302262
  0
POLYLINE
  5
EA
330
1F
100
AcDbEntity
  8
0
100
AcDb3dPolyline
 66
     1
 10
0.0
 20
0.0
 30
0.0
 70
     9
  0
VERTEX
  5
EB
330
EA
100
AcDbEntity
  8
0
100
AcDbVertex
100
AcDb3dPolylineVertex
 10
44.93934233542385
 20
489.3606601881011
 30
-0.0000000760985784
 70
    32
  0
VERTEX
  5
EC
330
EA
100
AcDbEntity
  8
0
100
AcDbVertex
100
AcDb3dPolylineVertex
 10
45.25000250720369
 20
489.5990381219986
 30
-0.0000000761584068
 70
    32
  0
VERTEX
  5
ED
330
EA
100
AcDbEntity
  8
0
100
AcDbVertex
100
AcDb3dPolylineVertex
 10
45.61177393954993
 20
489.7488887557556
 30
-0.0000000761944799
 70
    32
  0
VERTEX
  5
EE
330
EA
100
AcDbEntity
  8
0
100
AcDbVertex
100
AcDb3dPolylineVertex
 10
46.0000025072037
 20
489.8000000163221
 30
-0.0000000762044964
 70
    32
  0
VERTEX
  5
EF
330
EA
100
AcDbEntity
  8
0
100
AcDbVertex
100
AcDb3dPolylineVertex
 10
46.38823107485754
 20
489.7488887557557
 30
-0.0000000761881067
 70
    32
  0
VERTEX
  5
F0
330
EA
100
AcDbEntity
  8
0
100
AcDbVertex
100
AcDb3dPolylineVertex
 10
46.7500025072039
 20
489.5990381219986
 30
-0.0000000761459088
 70
    32
  0
VERTEX
  5
F1
330
EA
100
AcDbEntity
  8
0
100
AcDbVertex
100
AcDb3dPolylineVertex
 10
47.06066267898363
 20
489.3606601881008
 30
-0.000000076081151
 70
    32
  0
VERTEX
  5
F2
330
EA
100
AcDbEntity
  8
0
100
AcDbVertex
100
AcDb3dPolylineVertex
 10
47.29904061288041
 20
489.0500000163224
 30
-0.0000000759983004
 70
    32
  0
VERTEX
  5
F3
330
EA
100
AcDbEntity
  8
0
100
AcDbVertex
100
AcDb3dPolylineVertex
 10
47.44889124663752
 20
488.6882285839751
 30
-0.00000007590276
 70
    32
  0
VERTEX
  5
F4
330
EA
100
AcDbEntity
  8
0
100
AcDbVertex
100
AcDb3dPolylineVertex
 10
47.50000250720385
 20
488.3000000163215
 30
-0.0000000758009028
 70
    32
  0
VERTEX
  5
F5
330
EA
100
AcDbEntity
  8
0
100
AcDbVertex
100
AcDb3dPolylineVertex
 10
47.44889124663752
 20
487.9117714486673
 30
-0.0000000757002413
 70
    32
  0
VERTEX
  5
F6
330
EA
100
AcDbEntity
  8
0
100
AcDbVertex
100
AcDb3dPolylineVertex
 10
47.29904061288041
 20
487.5500000163224
 30
-0.0000000756071936
 70
    32
  0
VERTEX
  5
F7
330
EA
100
AcDbEntity
  8
0
100
AcDbVertex
100
AcDb3dPolylineVertex
 10
47.06066267898363
 20
487.2393398445416
 30
-0.0000000755281669
 70
    32
  0
VERTEX
  5
F8
330
EA
100
AcDbEntity
  8
0
100
AcDbVertex
100
AcDb3dPolylineVertex
 10
46.75000250720382
 20
487.0009619106443
 30
-0.0000000754687671
 70
    32
  0
VERTEX
  5
F9
330
EA
100
AcDbEntity
  8
0
100
AcDbVertex
100
AcDb3dPolylineVertex
 10
46.38823107485754
 20
486.8511112768874
 30
-0.0000000754325813
 70
    32
  0
VERTEX
  5
FA
330
EA
100
AcDbEntity
  8
0
100
AcDbVertex
100
AcDb3dPolylineVertex
 10
46.0000025072037
 20
486.8000000163212
 30
-0.000000075422373
 70
    32
  0
VERTEX
  5
FB
330
EA
100
AcDbEntity
  8
0
100
AcDbVertex
100
AcDb3dPolylineVertex
 10
45.61177393954993
 20
486.8511112768872
 30
-0.0000000754390108
 70
    32
  0
VERTEX
  5
FC
330
EA
100
AcDbEntity
  8
0
100
AcDbVertex
100
AcDb3dPolylineVertex
 10
45.25000250720363
 20
487.0009619106442
 30
-0.0000000754811524
 70
    32
  0
VERTEX
  5
FD
330
EA
100
AcDbEntity
  8
0
100
AcDbVertex
100
AcDb3dPolylineVertex
 10
44.93934233542385
 20
487.2393398445416
 30
-0.0000000755457409
 70
    32
  0
VERTEX
  5
FE
330
EA
100
AcDbEntity
  8
0
100
AcDbVertex
100
AcDb3dPolylineVertex
 10
44.70096440152688
 20
487.5500000163212
 30
-0.0000000756286479
 70
    32
  0
VERTEX
  5
FF
330
EA
100
AcDbEntity
  8
0
100
AcDbVertex
100
AcDb3dPolylineVertex
 10
44.55111376776996
 20
487.9117714486671
 30
-0.0000000757242448
 70
    32
  0
VERTEX
  5
100
330
EA
100
AcDbEntity
  8
0
100
AcDbVertex
100
AcDb3dPolylineVertex
 10
44.50000250720363
 20
488.3000000163207
 30
-0.0000000758256846
 70
    32
  0
VERTEX
  5
101
330
EA
100
AcDbEntity
  8
0
100
AcDbVertex
100
AcDb3dPolylineVertex
 10
44.55111376776996
 20
488.6882285839748
 30
-0.0000000759266733
 70
    32
  0
VERTEX
  5
102
330
EA
100
AcDbEntity
  8
0
100
AcDbVertex
100
AcDb3dPolylineVertex
 10
44.70096440152688
 20
489.0500000163215
 30
-0.0000000760197999
 70
    32
  0
VERTEX
  5
103
330
EA
100
AcDbEntity
  8
0
100
AcDbVertex
100
AcDb3dPolylineVertex
 10
44.93934233542385
 20
489.3606601881011
 30
-0.0000000760985784
 70
    32
  0
SEQEND
  5
104
330
EA
100
AcDbEntity
  8
0
  0
LINE
  5
105
330
1F
100
AcDbEntity
  8
0
100
AcDbLine
 10
21.00000253150125
 20
463.3000000167927
 30
-0.0000003739664492
 11
21.00000253150125
 21
423.6000802625267
 31
-0.0000004421592735
  0
LINE
  5
106
330
1F
100
AcDbEntity
  8
0
100
AcDbLine
 10
21.00000253150125
 20
423.6000802625267
 30
-0.0000004421592735
 11
118.1753437680926
 21
423.6000802625259
 31
-0.0000005000149354
  0
LINE
  5
107
330
1F
100
AcDbEntity
  8
0
100
AcDbLine
 10
284.0000025015225
 20
5.000001566036089
 30
-0.0000001939975277
 11
284.0000025015226
 21
11.00000156603672
 31
-0.0000001950198795
  0
POLYLINE
  5
108
330
1F
100
AcDbEntity
  8
0
100
AcDb3dPolyline
 66
     1
 10
0.0
 20
0.0
 30
0.0
 70
     9
  0
VERTEX
  5
109
330
108
100
AcDbEntity
  8
0
100
AcDbVertex
100
AcDb3dPolylineVertex
 10
150.0000025004446
 20
9.500001566032648
 30
-0.0000001953648994
 70
    32
  0
VERTEX
  5
10A
330
108
100
AcDbEntity
  8
0
100
AcDbVertex
100
AcDb3dPolylineVertex
 10
150.3882310680983
 20
9.44889030546631
 30
-0.0000001953515955
 70
    32
  0
VERTEX
  5
10B
330
108
100
AcDbEntity
  8
0
100
AcDbVertex
100
AcDb3dPolylineVertex
 10
150.7500025004446
 20
9.299039671709375
 30
-0.0000001953129659
 70
    32
  0
VERTEX
  5
10C
330
108
100
AcDbEntity
  8
0
100
AcDbVertex
100
AcDb3dPolylineVertex
 10
151.0606626722246
 20
9.060661737812415
 30
-0.0000001952516302
 70
    32
  0
VERTEX
  5
10D
330
108
100
AcDbEntity
  8
0
100
AcDbVertex
100
AcDb3dPolylineVertex
 10
151.2990406061214
 20
8.750001566031637
 30
-0.0000001951717617
 70
    32
  0
VERTEX
  5
10E
330
108
100
AcDbEntity
  8
0
100
AcDbVertex
100
AcDb3dPolylineVertex
 10
151.4488912398783
 20
8.388230133686427
 30
-0.0000001950787893
 70
    32
  0
VERTEX
  5
10F
330
108
100
AcDbEntity
  8
0
100
AcDbVertex
100
AcDb3dPolylineVertex
 10
151.5000025004444
 20
8.000001566031619
 30
-0.0000001949790695
 70
    32
  0
VERTEX
  5
110
330
108
100
AcDbEntity
  8
0
100
AcDbVertex
100
AcDb3dPolylineVertex
 10
151.4488912398783
 20
7.61177299837882
 30
-0.0000001948794262
 70
    32
  0
VERTEX
  5
111
330
108
100
AcDbEntity
  8
0
100
AcDbVertex
100
AcDb3dPolylineVertex
 10
151.2990406061214
 20
7.250001566031613
 30
-0.0000001947865906
 70
    32
  0
VERTEX
  5
112
330
108
100
AcDbEntity
  8
0
100
AcDbVertex
100
AcDb3dPolylineVertex
 10
151.0606626722244
 20
6.939341394252814
 30
-0.0000001947069182
 70
    32
  0
VERTEX
  5
113
330
108
100
AcDbEntity
  8
0
100
AcDbVertex
100
AcDb3dPolylineVertex
 10
150.7500025004444
 20
6.700963460356045
 30
-0.0000001946458554
 70
    32
  0
VERTEX
  5
114
330
108
100
AcDbEntity
  8
0
100
AcDbVertex
100
AcDb3dPolylineVertex
 10
150.3882310680985
 20
6.551112826599106
 30
-0.0000001946075142
 70
    32
  0
VERTEX
  5
115
330
108
100
AcDbEntity
  8
0
100
AcDbVertex
100
AcDb3dPolylineVertex
 10
150.0000025004446
 20
6.500001566032599
 30
-0.0000001945945565
 70
    32
  0
VERTEX
  5
116
330
108
100
AcDbEntity
  8
0
100
AcDbVertex
100
AcDb3dPolylineVertex
 10
149.6117739327909
 20
6.551112826599104
 30
-0.0000001946078318
 70
    32
  0
VERTEX
  5
117
330
108
100
AcDbEntity
  8
0
100
AcDbVertex
100
AcDb3dPolylineVertex
 10
149.2500025004444
 20
6.700963460355049
 30
-0.0000001946464874
 70
    32
  0
VERTEX
  5
118
330
108
100
AcDbEntity
  8
0
100
AcDbVertex
100
AcDb3dPolylineVertex
 10
148.9393423286646
 20
6.939341394252723
 30
-0.0000001947078197
 70
    32
  0
VERTEX
  5
119
330
108
100
AcDbEntity
  8
0
100
AcDbVertex
100
AcDb3dPolylineVertex
 10
148.7009643947681
 20
7.250001566031699
 30
-0.0000001947876719
 70
    32
  0
VERTEX
  5
11A
330
108
100
AcDbEntity
  8
0
100
AcDbVertex
100
AcDb3dPolylineVertex
 10
148.5511137610111
 20
7.611772998378909
 30
-0.0000001948806435
 70
    32
  0
VERTEX
  5
11B
330
108
100
AcDbEntity
  8
0
100
AcDbVertex
100
AcDb3dPolylineVertex
 10
148.5000025004444
 20
8.00000156603171
 30
-0.000000194980332
 70
    32
  0
VERTEX
  5
11C
330
108
100
AcDbEntity
  8
0
100
AcDbVertex
100
AcDb3dPolylineVertex
 10
148.5511137610111
 20
8.388230133686516
 30
-0.0000001950800083
 70
    32
  0
VERTEX
  5
11D
330
108
100
AcDbEntity
  8
0
100
AcDbVertex
100
AcDb3dPolylineVertex
 10
148.700964394768
 20
8.750001566031724
 30
-0.0000001951728446
 70
    32
  0
VERTEX
  5
11E
330
108
100
AcDbEntity
  8
0
100
AcDbVertex
100
AcDb3dPolylineVertex
 10
148.9393423286648
 20
9.060661737812326
 30
-0.0000001952525134
 70
    32
  0
VERTEX
  5
11F
330
108
100
AcDbEntity
  8
0
100
AcDbVertex
100
AcDb3dPolylineVertex
 10
149.2500025004446
 20
9.299039671708378
 30
-0.0000001953135997
 70
    32
  0
VERTEX
  5
120
330
108
100
AcDbEntity
  8
0
100
AcDbVertex
100
AcDb3dPolylineVertex
 10
149.6117739327907
 20
9.44889030546631
 30
-0.0000001953519352
 70
    32
  0
VERTEX
  5
121
330
108
100
AcDbEntity
  8
0
100
AcDbVertex
100
AcDb3dPolylineVertex
 10
150.0000025004446
 20
9.500001566032648
 30
-0.0000001953648994
 70
    32
  0
SEQEND
  5
122
330
108
100
AcDbEntity
  8
0
  0
LINE
  5
123
330
1F
100
AcDbEntity
  8
0
100
AcDbLine
 10
66.00000250720437
 20
5.000001566021475
 30
0.0000000056448192
 11
76.00000250712252
 21
5.000001566021566
 31
0.000000005644819
  0
LINE
  5
124
330
1F
100
AcDbEntity
  8
0
100
AcDbLine
 10
66.00000250720437
 20
11.0000015660221
 30
0.0000000046206681
 11
66.00000250720437
 21
5.000001566021475
 31
0.0000000056448192
  0
POLYLINE
  5
125
330
1F
100
AcDbEntity
  8
0
100
AcDb3dPolyline
 66
     1
 10
0.0
 20
0.0
 30
0.0
 70
     9
  0
VERTEX
  5
126
330
125
100
AcDbEntity
  8
0
100
AcDbVertex
100
AcDb3dPolylineVertex
 10
44.55111376776994
 20
7.611772998376196
 30
0.0000000056612063
 70
    32
  0
VERTEX
  5
127
330
125
100
AcDbEntity
  8
0
100
AcDbVertex
100
AcDb3dPolylineVertex
 10
44.50000250720361
 20
8.00000156603
 30
0.0000000055595735
 70
    32
  0
VERTEX
  5
128
330
125
100
AcDbEntity
  8
0
100
AcDbVertex
100
AcDb3dPolylineVertex
 10
44.55111376776994
 20
8.388230133683804
 30
0.000000005458776
 70
    32
  0
VERTEX
  5
129
330
125
100
AcDbEntity
  8
0
100
AcDbVertex
100
AcDb3dPolylineVertex
 10
44.70096440152688
 20
8.75000156603001
 30
0.0000000053656692
 70
    32
  0
VERTEX
  5
12A
330
125
100
AcDbEntity
  8
0
100
AcDbVertex
100
AcDb3dPolylineVertex
 10
44.93934233542383
 20
9.060661737809893
 30
0.0000000052866552
 70
    32
  0
VERTEX
  5
12B
330
125
100
AcDbEntity
  8
0
100
AcDbVertex
100
AcDb3dPolylineVertex
 10
45.25000250720363
 20
9.299039671706756
 30
0.0000000052270474
 70
    32
  0
VERTEX
  5
12C
330
125
100
AcDbEntity
  8
0
100
AcDbVertex
100
AcDb3dPolylineVertex
 10
45.61177393954999
 20
9.448890305463696
 30
0.000000005190951
 70
    32
  0
VERTEX
  5
12D
330
125
100
AcDbEntity
  8
0
100
AcDbVertex
100
AcDb3dPolylineVertex
 10
46.00000250720365
 20
9.50000156603003
 30
0.0000000051808324
 70
    32
  0
VERTEX
  5
12E
330
125
100
AcDbEntity
  8
0
100
AcDbVertex
100
AcDb3dPolylineVertex
 10
46.38823107485759
 20
9.448890305463696
 30
0.0000000051973586
 70
    32
  0
VERTEX
  5
12F
330
125
100
AcDbEntity
  8
0
100
AcDbVertex
100
AcDb3dPolylineVertex
 10
46.75000250720384
 20
9.299039671706847
 30
0.0000000052394123
 70
    32
  0
VERTEX
  5
130
330
125
100
AcDbEntity
  8
0
100
AcDbVertex
100
AcDb3dPolylineVertex
 10
47.06066267898362
 20
9.060661737809895
 30
0.0000000053041171
 70
    32
  0
VERTEX
  5
131
330
125
100
AcDbEntity
  8
0
100
AcDbVertex
100
AcDb3dPolylineVertex
 10
47.29904061288041
 20
8.75000156603091
 30
0.0000000053870773
 70
    32
  0
VERTEX
  5
132
330
125
100
AcDbEntity
  8
0
100
AcDbVertex
100
AcDb3dPolylineVertex
 10
47.44889124663751
 20
8.388230133683804
 30
0.0000000054826444
 70
    32
  0
VERTEX
  5
133
330
125
100
AcDbEntity
  8
0
100
AcDbVertex
100
AcDb3dPolylineVertex
 10
47.50000250720383
 20
8.000001566030898
 30
0.0000000055842996
 70
    32
  0
VERTEX
  5
134
330
125
100
AcDbEntity
  8
0
100
AcDbVertex
100
AcDb3dPolylineVertex
 10
47.44889124663751
 20
7.611772998376201
 30
0.0000000056850969
 70
    32
  0
VERTEX
  5
135
330
125
100
AcDbEntity
  8
0
100
AcDbVertex
100
AcDb3dPolylineVertex
 10
47.29904061288047
 20
7.250001566030888
 30
0.0000000057781815
 70
    32
  0
VERTEX
  5
136
330
125
100
AcDbEntity
  8
0
100
AcDbVertex
100
AcDb3dPolylineVertex
 10
47.06066267898362
 20
6.939341394250106
 30
0.0000000058572197
 70
    32
  0
VERTEX
  5
137
330
125
100
AcDbEntity
  8
0
100
AcDbVertex
100
AcDb3dPolylineVertex
 10
46.7500025072039
 20
6.700963460353321
 30
0.0000000059167962
 70
    32
  0
VERTEX
  5
138
330
125
100
AcDbEntity
  8
0
100
AcDbVertex
100
AcDb3dPolylineVertex
 10
46.38823107485754
 20
6.551112826596309
 30
0.0000000059528966
 70
    32
  0
VERTEX
  5
139
330
125
100
AcDbEntity
  8
0
100
AcDbVertex
100
AcDb3dPolylineVertex
 10
46.00000250720365
 20
6.5000015660298
 30
0.0000000059630183
 70
    32
  0
VERTEX
  5
13A
330
125
100
AcDbEntity
  8
0
100
AcDbVertex
100
AcDb3dPolylineVertex
 10
45.61177393954993
 20
6.55111282659631
 30
0.0000000059464898
 70
    32
  0
VERTEX
  5
13B
330
125
100
AcDbEntity
  8
0
100
AcDbVertex
100
AcDb3dPolylineVertex
 10
45.25000250720369
 20
6.700963460353227
 30
0.0000000059044328
 70
    32
  0
VERTEX
  5
13C
330
125
100
AcDbEntity
  8
0
100
AcDbVertex
100
AcDb3dPolylineVertex
 10
44.93934233542383
 20
6.939341394250107
 30
0.0000000058397139
 70
    32
  0
VERTEX
  5
13D
330
125
100
AcDbEntity
  8
0
100
AcDbVertex
100
AcDb3dPolylineVertex
 10
44.70096440152694
 20
7.250001566029805
 30
0.0000000057567492
 70
    32
  0
VERTEX
  5
13E
330
125
100
AcDbEntity
  8
0
100
AcDbVertex
100
AcDb3dPolylineVertex
 10
44.55111376776994
 20
7.611772998376196
 30
0.0000000056612063
 70
    32
  0
SEQEND
  5
13F
330
125
100
AcDbEntity
  8
0
  0
LINE
  5
140
330
1F
100
AcDbEntity
  8
0
100
AcDbLine
 10
66.00000291215194
 20
387.3000000184335
 30
-0.002840722789241
 11
234.000002124899
 21
387.3000000185142
 31
-0.0027801727429834
  0
POLYLINE
  5
141
330
1F
100
AcDbEntity
  8
0
100
AcDb3dPolyline
 66
     1
 10
0.0
 20
0.0
 30
0.0
 70
     8
  0
VERTEX
  5
142
330
141
100
AcDbEntity
  8
0
100
AcDbVertex
100
AcDb3dPolylineVertex
 10
66.00000291215194
 20
387.3000000184335
 30
-0.002840722789241
 70
    32
  0
VERTEX
  5
143
330
141
100
AcDbEntity
  8
0
100
AcDbVertex
100
AcDb3dPolylineVertex
 10
64.63968485598495
 20
387.2097573291859
 30
-0.0028057088073059
 70
    32
  0
VERTEX
  5
144
330
141
100
AcDbEntity
  8
0
100
AcDbVertex
100
AcDb3dPolylineVertex
 10
63.30019543833166
 20
386.9560309859538
 30
-0.0027762563870682
 70
    32
  0
VERTEX
  5
145
330
141
100
AcDbEntity
  8
0
100
AcDbVertex
100
AcDb3dPolylineVertex
 10
62.0011092555991
 20
386.542528812554
 30
-0.0027527959301536
 70
    32
  0
VERTEX
  5
146
330
141
100
AcDbEntity
  8
0
100
AcDbVertex
100
AcDb3dPolylineVertex
 10
60.76141047249207
 20
385.9752935130603
 30
-0.0027356702755775
 70
    32
  0
VERTEX
  5
147
330
141
100
AcDbEntity
  8
0
100
AcDbVertex
100
AcDb3dPolylineVertex
 10
59.59921539737831
 20
385.2626143668854
 30
-0.0027251296891953
 70
    32
  0
VERTEX
  5
148
330
141
100
AcDbEntity
  8
0
100
AcDbVertex
100
AcDb3dPolylineVertex
 10
58.53150774005191
 20
384.4149060936014
 30
-0.0027213282050548
 70
    32
  0
VERTEX
  5
149
330
141
100
AcDbEntity
  8
0
100
AcDbVertex
100
AcDb3dPolylineVertex
 10
57.5738904206983
 20
383.4445566576824
 30
-0.0027243213761234
 70
    32
  0
VERTEX
  5
14A
330
141
100
AcDbEntity
  8
0
100
AcDbVertex
100
AcDb3dPolylineVertex
 10
56.74035755699524
 20
382.3657462372866
 30
-0.0027340654617656
 70
    32
  0
VERTEX
  5
14B
330
141
100
AcDbEntity
  8
0
100
AcDbVertex
100
AcDb3dPolylineVertex
 10
56.04308996141051
 20
381.1942400025604
 30
-0.0027504180674469
 70
    32
  0
VERTEX
  5
14C
330
141
100
AcDbEntity
  8
0
100
AcDbVertex
100
AcDb3dPolylineVertex
 10
55.49227713719171
 20
379.9471577317051
 30
-0.0027731402240075
 70
    32
  0
VERTEX
  5
14D
330
141
100
AcDbEntity
  8
0
100
AcDbVertex
100
AcDb3dPolylineVertex
 10
55.09596837430545
 20
378.6427236315089
 30
-0.002801899882086
 70
    32
  0
VERTEX
  5
14E
330
141
100
AcDbEntity
  8
0
100
AcDbVertex
100
AcDb3dPolylineVertex
 10
54.85995512133194
 20
377.3000000183396
 30
-0.0028362767636349
 70
    32
  0
SEQEND
  5
14F
330
141
100
AcDbEntity
  8
0
  0
LINE
  5
150
330
1F
100
AcDbEntity
  8
0
100
AcDbLine
 10
180.0000025003627
 20
485.3000000163275
 30
-0.0000002753727394
 11
180.0000025003629
 21
491.300000016328
 31
-0.0000002763951239
  0
LINE
  5
151
330
1F
100
AcDbEntity
  8
0
100
AcDbLine
 10
26.00000250712306
 20
491.3000000163127
 30
-0.0000000767507126
 11
16.00000250720493
 21
491.3000000163128
 31
-0.0000000767524948
  0
LINE
  5
152
330
1F
100
AcDbEntity
  8
0
100
AcDbLine
 10
26.00000250712306
 20
485.3000000163121
 30
-0.0000000757282943
 11
26.00000250712306
 21
491.3000000163127
 31
-0.0000000767507126
  0
LINE
  5
153
330
1F
100
AcDbEntity
  8
0
100
AcDbLine
 10
16.00000250720493
 20
485.3000000163121
 30
-0.0000000757282943
 11
26.00000250712306
 21
485.3000000163121
 31
-0.0000000757282943
  0
LINE
  5
154
330
1F
100
AcDbEntity
  8
0
100
AcDbLine
 10
274.0000025016046
 20
485.300000016327
 30
-0.0000002753830154
 11
284.0000025015225
 21
485.3000000163272
 31
-0.0000002753829703
  0
LINE
  5
155
330
1F
100
AcDbEntity
  8
0
100
AcDbLine
 10
274.0000025016046
 20
491.3000000163279
 30
-0.0000002769474538
 11
274.0000025016046
 21
485.300000016327
 31
-0.0000002753830154
  0
LINE
  5
156
330
1F
100
AcDbEntity
  8
0
100
AcDbLine
 10
284.0000025015225
 20
491.3000000163278
 30
-0.0000002764053096
 11
274.0000025016046
 21
491.3000000163279
 31
-0.0000002769474538
  0
LINE
  5
157
330
1F
100
AcDbEntity
  8
0
100
AcDbLine
 10
234.0000025016045
 20
485.3000000163181
 30
-0.0000002753763039
 11
234.0000025016045
 21
491.3000000163199
 31
-0.000000276399196
  0
LINE
  5
158
330
1F
100
AcDbEntity
  8
0
100
AcDbLine
 10
224.0000025016053
 20
485.3000000163181
 30
-0.0000002753763039
 11
234.0000025016045
 21
485.3000000163181
 31
-0.0000002753763039
  0
LINE
  5
159
330
1F
100
AcDbEntity
  8
0
100
AcDbLine
 10
224.0000025016053
 20
491.3000000163199
 30
-0.000000276401373
 11
224.0000025016053
 21
485.3000000163181
 31
-0.0000002753763039
  0
LINE
  5
15A
330
1F
100
AcDbEntity
  8
0
100
AcDbLine
 10
170.0000025004447
 20
485.3000000163273
 30
-0.0000002753727507
 11
180.0000025003627
 21
485.3000000163275
 31
-0.0000002753727394
  0
LINE
  5
15B
330
1F
100
AcDbEntity
  8
0
100
AcDbLine
 10
76.00000250712252
 20
491.3000000163134
 30
-0.0000000767631317
 11
66.00000250720437
 21
491.3000000163136
 31
-0.0000000767647673
  0
LINE
  5
15C
330
1F
100
AcDbEntity
  8
0
100
AcDbLine
 10
76.00000250712252
 20
485.3000000163126
 30
-0.0000000757405668
 11
76.00000250712252
 21
491.3000000163134
 31
-0.0000000767631317
  0
LINE
  5
15D
330
1F
100
AcDbEntity
  8
0
100
AcDbLine
 10
300.000002083963
 20
420.300000018981
 30
-0.0000006814381107
 11
300.0000020839636
 21
410.3000000189813
 31
-0.0000006797302262
  0
LINE
  5
15E
330
1F
100
AcDbEntity
  8
0
100
AcDbLine
 10
294.0000025015522
 20
420.3000000189799
 30
-0.000000731419693
 11
300.000002083963
 21
420.300000018981
 31
-0.0000006814381107
  0
LINE
  5
15F
330
1F
100
AcDbEntity
  8
0
100
AcDbLine
 10
294.0000025015522
 20
420.3000000189799
 30
-0.000000731419693
 11
294.0000025015502
 21
438.8000000189795
 31
-0.0000007345791947
  0
LINE
  5
160
330
1F
100
AcDbEntity
  8
0
100
AcDbLine
 10
294.0000025015502
 20
438.8000000189795
 30
-0.0000007345791947
 11
288.0000025015507
 21
438.8000000189801
 31
-0.0000007345778073
  0
LINE
  5
161
330
1F
100
AcDbEntity
  8
0
100
AcDbLine
 10
288.0000025015507
 20
438.8000000189801
 30
-0.0000007345778073
 11
288.0000025015508
 21
436.3000000189807
 31
-0.0000007341508305
  0
POLYLINE
  5
162
330
1F
100
AcDbEntity
  8
0
100
AcDb3dPolyline
 66
     1
 10
0.0
 20
0.0
 30
0.0
 70
     8
  0
VERTEX
  5
163
330
162
100
AcDbEntity
  8
0
100
AcDbVertex
100
AcDb3dPolylineVertex
 10
234.000002124899
 20
387.3000000185142
 30
-0.0027801727429834
 70
    32
  0
VERTEX
  5
164
330
162
100
AcDbEntity
  8
0
100
AcDbVertex
100
AcDb3dPolylineVertex
 10
235.3573753145781
 20
387.2174787845892
 30
-0.0027807892765756
 70
    32
  0
VERTEX
  5
165
330
162
100
AcDbEntity
  8
0
100
AcDbVertex
100
AcDb3dPolylineVertex
 10
236.6947549523709
 20
386.9711305868568
 30
-0.0027806515371514
 70
    32
  0
VERTEX
  5
166
330
162
100
AcDbEntity
  8
0
100
AcDbVertex
100
AcDb3dPolylineVertex
 10
237.9924419832335
 20
386.5645840335097
 30
-0.0027797615539924
 70
    32
  0
VERTEX
  5
167
330
162
100
AcDbEntity
  8
0
100
AcDbVertex
100
AcDb3dPolylineVertex
 10
239.2313220079866
 20
386.0038273889891
 30
-0.0027781324354421
 70
    32
  0
VERTEX
  5
168
330
162
100
AcDbEntity
  8
0
100
AcDbVertex
100
AcDb3dPolylineVertex
 10
240.3931468305969
 20
385.2971203693069
 30
-0.0027757881783889
 70
    32
  0
VERTEX
  5
169
330
162
100
AcDbEntity
  8
0
100
AcDbVertex
100
AcDb3dPolylineVertex
 10
241.4608032466434
 20
384.4548724798025
 30
-0.0027727633123408
 70
    32
  0
VERTEX
  5
16A
330
162
100
AcDbEntity
  8
0
100
AcDbVertex
100
AcDb3dPolylineVertex
 10
242.4185651138135
 20
383.4894896873873
 30
-0.0027691023927797
 70
    32
  0
VERTEX
  5
16B
330
162
100
AcDbEntity
  8
0
100
AcDbVertex
100
AcDb3dPolylineVertex
 10
243.2523249915522
 20
382.4151916857309
 30
-0.0027648593428565
 70
    32
  0
VERTEX
  5
16C
330
162
100
AcDbEntity
  8
0
100
AcDbVertex
100
AcDb3dPolylineVertex
 10
243.9498019378881
 20
381.2478024449821
 30
-0.0027600966614319
 70
    32
  0
VERTEX
  5
16D
330
162
100
AcDbEntity
  8
0
100
AcDbVertex
100
AcDb3dPolylineVertex
 10
244.5007224026868
 20
380.0045171311679
 30
-0.0027548845009587
 70
    32
  0
VERTEX
  5
16E
330
162
100
AcDbEntity
  8
0
100
AcDbVertex
100
AcDb3dPolylineVertex
 10
244.8969715528417
 20
378.7036488284256
 30
-0.0027492996345056
 70
    32
  0
VERTEX
  5
16F
330
162
100
AcDbEntity
  8
0
100
AcDbVertex
100
AcDb3dPolylineVertex
 10
245.1327128004463
 20
377.3643587947696
 30
-0.0027434243242735
 70
    32
  0
SEQEND
  5
170
330
162
100
AcDbEntity
  8
0
  0
LINE
  5
171
330
1F
100
AcDbEntity
  8
0
100
AcDbLine
 10
294.0000025015947
 20
214.1000015660946
 30
-0.0000000177610802
 11
294.0000001522996
 21
282.2000015662559
 31
-0.0000000293736288
  0
LINE
  5
172
330
1F
100
AcDbEntity
  8
0
100
AcDbLine
 10
36.00000291215603
 20
40.0000000185005
 30
-0.0028744067859784
 11
36.00000291209639
 21
50.00000001873489
 31
-0.001438266022211
  0
POLYLINE
  5
173
330
1F
100
AcDbEntity
  8
0
100
AcDb3dPolyline
 66
     1
 10
0.0
 20
0.0
 30
0.0
 70
     8
  0
VERTEX
  5
174
330
173
100
AcDbEntity
  8
0
100
AcDbVertex
100
AcDb3dPolylineVertex
 10
36.00000291215603
 20
40.0000000185005
 30
-0.0028744067859784
 70
    32
  0
VERTEX
  5
175
330
173
100
AcDbEntity
  8
0
100
AcDbVertex
100
AcDb3dPolylineVertex
 10
36.08555429841792
 20
38.69473809630004
 30
-0.0028744050401985
 70
    32
  0
VERTEX
  5
176
330
173
100
AcDbEntity
  8
0
100
AcDbVertex
100
AcDb3dPolylineVertex
 10
36.34074464926533
 20
37.41180956747537
 30
-0.0028744002780788
 70
    32
  0
VERTEX
  5
177
330
173
100
AcDbEntity
  8
0
100
AcDbVertex
100
AcDb3dPolylineVertex
 10
36.76120758704315
 20
36.17316569484967
 30
-0.0028743925811199
 70
    32
  0
VERTEX
  5
178
330
173
100
AcDbEntity
  8
0
100
AcDbVertex
100
AcDb3dPolylineVertex
 10
37.33974887431164
 20
35.00000001850057
 30
-0.0028743820810692
 70
    32
  0
VERTEX
  5
179
330
173
100
AcDbEntity
  8
0
100
AcDbVertex
100
AcDb3dPolylineVertex
 10
38.06646950924367
 20
33.9123857284143
 30
-0.0028743689574718
 70
    32
  0
VERTEX
  5
17A
330
173
100
AcDbEntity
  8
0
100
AcDbVertex
100
AcDb3dPolylineVertex
 10
38.92893510029055
 20
32.92893220663515
 30
-0.0028743534349797
 70
    32
  0
VERTEX
  5
17B
330
173
100
AcDbEntity
  8
0
100
AcDbVertex
100
AcDb3dPolylineVertex
 10
39.91238862206882
 20
32.06646661558821
 30
-0.0028743357791456
 70
    32
  0
VERTEX
  5
17C
330
173
100
AcDbEntity
  8
0
100
AcDbVertex
100
AcDb3dPolylineVertex
 10
41.00000291215602
 20
31.33974598065714
 30
-0.0028743162920562
 70
    32
  0
VERTEX
  5
17D
330
173
100
AcDbEntity
  8
0
100
AcDbVertex
100
AcDb3dPolylineVertex
 10
42.17316858850512
 20
30.76120469338768
 30
-0.0028742953071586
 70
    32
  0
VERTEX
  5
17E
330
173
100
AcDbEntity
  8
0
100
AcDbVertex
100
AcDb3dPolylineVertex
 10
43.41181246113087
 20
30.34074175560986
 30
-0.0028742731835162
 70
    32
  0
VERTEX
  5
17F
330
173
100
AcDbEntity
  8
0
100
AcDbVertex
100
AcDb3dPolylineVertex
 10
44.69474098995557
 20
30.08555140476346
 30
-0.0028742502996469
 70
    32
  0
VERTEX
  5
180
330
173
100
AcDbEntity
  8
0
100
AcDbVertex
100
AcDb3dPolylineVertex
 10
46.00000291215602
 20
30.00000001850051
 30
-0.0028742270471268
 70
    32
  0
SEQEND
  5
181
330
173
100
AcDbEntity
  8
0
  0
LINE
  5
182
330
1F
100
AcDbEntity
  8
0
100
AcDbLine
 10
264.0000021246219
 20
40.00000001840713
 30
-0.0027420315071242
 11
264.0000021245649
 21
50.0000000185415
 31
-0.0013680456116077
  0
POLYLINE
  5
183
330
1F
100
AcDbEntity
  8
0
100
AcDb3dPolyline
 66
     1
 10
0.0
 20
0.0
 30
0.0
 70
     8
  0
VERTEX
  5
184
330
183
100
AcDbEntity
  8
0
100
AcDbVertex
100
AcDb3dPolylineVertex
 10
264.0000021245649
 20
50.0000000185415
 30
-0.0013680456116077
 70
    32
  0
VERTEX
  5
185
330
183
100
AcDbEntity
  8
0
100
AcDbVertex
100
AcDb3dPolylineVertex
 10
263.8609521124471
 20
78.17371224916607
 30
-0.0013778907434128
 70
    32
  0
VERTEX
  5
186
330
183
100
AcDbEntity
  8
0
100
AcDbVertex
100
AcDb3dPolylineVertex
 10
263.4438150765487
 20
106.3446794397412
 30
-0.0014074156045244
 70
    32
  0
VERTEX
  5
187
330
183
100
AcDbEntity
  8
0
100
AcDbVertex
100
AcDb3dPolylineVertex
 10
262.7486316596856
 20
134.5101568149697
 30
-0.0014566173181242
 70
    32
  0
VERTEX
  5
188
330
183
100
AcDbEntity
  8
0
100
AcDbVertex
100
AcDb3dPolylineVertex
 10
261.7754695955022
 20
162.6674001344441
 30
-0.0015254910904568
 70
    32
  0
VERTEX
  5
189
330
183
100
AcDbEntity
  8
0
100
AcDbVertex
100
AcDb3dPolylineVertex
 10
260.5244237018719
 20
190.813665960024
 30
-0.0016140302110282
 70
    32
  0
VERTEX
  5
18A
330
183
100
AcDbEntity
  8
0
100
AcDbVertex
100
AcDb3dPolylineVertex
 10
258.9956158716578
 20
218.9462119231361
 30
-0.0017222260530367
 70
    32
  0
VERTEX
  5
18B
330
183
100
AcDbEntity
  8
0
100
AcDbVertex
100
AcDb3dPolylineVertex
 10
257.1891950608384
 20
247.0622969919696
 30
-0.0018500680748326
 70
    32
  0
VERTEX
  5
18C
330
183
100
AcDbEntity
  8
0
100
AcDbVertex
100
AcDb3dPolylineVertex
 10
255.105337273992
 20
275.1591817385476
 30
-0.0019975438205564
 70
    32
  0
VERTEX
  5
18D
330
183
100
AcDbEntity
  8
0
100
AcDbVertex
100
AcDb3dPolylineVertex
 10
252.744245547149
 20
303.23412860563
 30
-0.0021646389207078
 70
    32
  0
VERTEX
  5
18E
330
183
100
AcDbEntity
  8
0
100
AcDbVertex
100
AcDb3dPolylineVertex
 10
250.106149928013
 20
331.2844021734492
 30
-0.0023513370951242
 70
    32
  0
VERTEX
  5
18F
330
183
100
AcDbEntity
  8
0
100
AcDbVertex
100
AcDb3dPolylineVertex
 10
247.1913074535391
 20
359.3072694262201
 30
-0.002557620153324
 70
    32
  0
VERTEX
  5
190
330
183
100
AcDbEntity
  8
0
100
AcDbVertex
100
AcDb3dPolylineVertex
 10
245.1327128004463
 20
377.3643587947696
 30
-0.0027434243242735
 70
    32
  0
SEQEND
  5
191
330
183
100
AcDbEntity
  8
0
  0
LINE
  5
192
330
1F
100
AcDbEntity
  8
0
100
AcDbLine
 10
120.0000025004454
 20
485.3000000163183
 30
-0.0000002753659602
 11
130.0000025004446
 21
485.3000000163183
 31
-0.0000002753659602
  0
LINE
  5
193
330
1F
100
AcDbEntity
  8
0
100
AcDbLine
 10
234.0000025016045
 20
491.3000000163199
 30
-0.000000276399196
 11
224.0000025016053
 21
491.3000000163199
 31
-0.000000276401373
  0
POLYLINE
  5
194
330
1F
100
AcDbEntity
  8
0
100
AcDb3dPolyline
 66
     1
 10
0.0
 20
0.0
 30
0.0
 70
     9
  0
VERTEX
  5
195
330
194
100
AcDbEntity
  8
0
100
AcDbVertex
100
AcDb3dPolylineVertex
 10
141.0877517583858
 20
449.3036790054288
 30
-0.0000004432564661
 70
    32
  0
VERTEX
  5
196
330
194
100
AcDbEntity
  8
0
100
AcDbVertex
100
AcDb3dPolylineVertex
 10
142.0524755779759
 20
449.7032806954478
 30
-0.0000004433249687
 70
    32
  0
VERTEX
  5
197
330
194
100
AcDbEntity
  8
0
100
AcDbVertex
100
AcDb3dPolylineVertex
 10
143.087751758386
 20
449.8395773902907
 30
-0.0000004433482391
 70
    32
  0
VERTEX
  5
198
330
194
100
AcDbEntity
  8
0
100
AcDbVertex
100
AcDb3dPolylineVertex
 10
143.2368512366181
 20
449.8199480715928
 30
-0.0000050940138045
 70
    32
  0
VERTEX
  5
199
330
194
100
AcDbEntity
  8
0
100
AcDbVertex
100
AcDb3dPolylineVertex
 10
144.1230279387961
 20
449.7032806954467
 30
-0.0000004433249349
 70
    32
  0
VERTEX
  5
19A
330
194
100
AcDbEntity
  8
0
100
AcDbVertex
100
AcDb3dPolylineVertex
 10
145.0877517583857
 20
449.3036790054296
 30
-0.0000004432564322
 70
    32
  0
VERTEX
  5
19B
330
194
100
AcDbEntity
  8
0
100
AcDbVertex
100
AcDb3dPolylineVertex
 10
145.9161788831322
 20
448.6680045150375
 30
-0.0000004431482809
 70
    32
  0
VERTEX
  5
19C
330
194
100
AcDbEntity
  8
0
100
AcDbVertex
100
AcDb3dPolylineVertex
 10
146.5518533735235
 20
447.839577390292
 30
-0.0000004430069442
 70
    32
  0
VERTEX
  5
19D
330
194
100
AcDbEntity
  8
0
100
AcDbVertex
100
AcDb3dPolylineVertex
 10
146.9514550635423
 20
446.8748535707003
 30
-0.0000004428422243
 70
    32
  0
VERTEX
  5
19E
330
194
100
AcDbEntity
  8
0
100
AcDbVertex
100
AcDb3dPolylineVertex
 10
147.0877517583857
 20
445.8395773902903
 30
-0.0000004426654462
 70
    32
  0
VERTEX
  5
19F
330
194
100
AcDbEntity
  8
0
100
AcDbVertex
100
AcDb3dPolylineVertex
 10
146.9514550635423
 20
444.8043012098807
 30
-0.0000004424890291
 70
    32
  0
VERTEX
  5
1A0
330
194
100
AcDbEntity
  8
0
100
AcDbVertex
100
AcDb3dPolylineVertex
 10
146.5518533735237
 20
443.8395773902919
 30
-0.0000004423244446
 70
    32
  0
VERTEX
  5
1A1
330
194
100
AcDbEntity
  8
0
100
AcDbVertex
100
AcDb3dPolylineVertex
 10
145.9161788831322
 20
443.0111502655453
 30
-0.0000004421833448
 70
    32
  0
VERTEX
  5
1A2
330
194
100
AcDbEntity
  8
0
100
AcDbVertex
100
AcDb3dPolylineVertex
 10
145.0877517583857
 20
442.375475775153
 30
-0.0000004420749565
 70
    32
  0
VERTEX
  5
1A3
330
194
100
AcDbEntity
  8
0
100
AcDbVertex
100
AcDb3dPolylineVertex
 10
144.1230279387958
 20
441.9758740851343
 30
-0.0000004420064877
 70
    32
  0
VERTEX
  5
1A4
330
194
100
AcDbEntity
  8
0
100
AcDbVertex
100
AcDb3dPolylineVertex
 10
143.2368512367109
 20
441.8592067090013
 30
-0.0000050926558327
 70
    32
  0
VERTEX
  5
1A5
330
194
100
AcDbEntity
  8
0
100
AcDbVertex
100
AcDb3dPolylineVertex
 10
143.087751758386
 20
441.839577390291
 30
-0.0000004419828451
 70
    32
  0
VERTEX
  5
1A6
330
194
100
AcDbEntity
  8
0
100
AcDbVertex
100
AcDb3dPolylineVertex
 10
142.0524755779757
 20
441.9758740851349
 30
-0.0000004420064539
 70
    32
  0
VERTEX
  5
1A7
330
194
100
AcDbEntity
  8
0
100
AcDbVertex
100
AcDb3dPolylineVertex
 10
141.0877517583858
 20
442.3754757751521
 30
-0.0000004420749114
 70
    32
  0
VERTEX
  5
1A8
330
194
100
AcDbEntity
  8
0
100
AcDbVertex
100
AcDb3dPolylineVertex
 10
140.2593246336398
 20
443.0111502655444
 30
-0.0000004421835365
 70
    32
  0
VERTEX
  5
1A9
330
194
100
AcDbEntity
  8
0
100
AcDbVertex
100
AcDb3dPolylineVertex
 10
139.6236501432482
 20
443.8395773902909
 30
-0.0000004423245348
 70
    32
  0
VERTEX
  5
1AA
330
194
100
AcDbEntity
  8
0
100
AcDbVertex
100
AcDb3dPolylineVertex
 10
139.2240484532297
 20
444.8043012098816
 30
-0.0000004424891081
 70
    32
  0
VERTEX
  5
1AB
330
194
100
AcDbEntity
  8
0
100
AcDbVertex
100
AcDb3dPolylineVertex
 10
139.0877517583858
 20
445.8395773902903
 30
-0.0000004426654462
 70
    32
  0
VERTEX
  5
1AC
330
194
100
AcDbEntity
  8
0
100
AcDbVertex
100
AcDb3dPolylineVertex
 10
139.2240484532297
 20
446.8748535707011
 30
-0.0000004428421566
 70
    32
  0
VERTEX
  5
1AD
330
194
100
AcDbEntity
  8
0
100
AcDbVertex
100
AcDb3dPolylineVertex
 10
139.623650143248
 20
447.839577390291
 30
-0.0000004430070231
 70
    32
  0
VERTEX
  5
1AE
330
194
100
AcDbEntity
  8
0
100
AcDbVertex
100
AcDb3dPolylineVertex
 10
140.2593246336398
 20
448.6680045150367
 30
-0.000000443148326
 70
    32
  0
VERTEX
  5
1AF
330
194
100
AcDbEntity
  8
0
100
AcDbVertex
100
AcDb3dPolylineVertex
 10
141.0877517583858
 20
449.3036790054288
 30
-0.0000004432564661
 70
    32
  0
SEQEND
  5
1B0
330
194
100
AcDbEntity
  8
0
  0
POLYLINE
  5
1B1
330
1F
100
AcDbEntity
  8
0
100
AcDb3dPolyline
 66
     1
 10
0.0
 20
0.0
 30
0.0
 70
     9
  0
VERTEX
  5
1B2
330
1B1
100
AcDbEntity
  8
0
100
AcDbVertex
100
AcDb3dPolylineVertex
 10
252.7009643959277
 20
489.0500000163245
 30
-0.0000002765685744
 70
    32
  0
VERTEX
  5
1B3
330
1B1
100
AcDbEntity
  8
0
100
AcDbVertex
100
AcDb3dPolylineVertex
 10
252.9393423298246
 20
489.3606601881032
 30
-0.0000002766479621
 70
    32
  0
VERTEX
  5
1B4
330
1B1
100
AcDbEntity
  8
0
100
AcDbVertex
100
AcDb3dPolylineVertex
 10
253.2500025016044
 20
489.5990381220014
 30
-0.0000002767092682
 70
    32
  0
VERTEX
  5
1B5
330
1B1
100
AcDbEntity
  8
0
100
AcDbVertex
100
AcDb3dPolylineVertex
 10
253.6117739339506
 20
489.7488887557577
 30
-0.0000002767476761
 70
    32
  0
VERTEX
  5
1B6
330
1B1
100
AcDbEntity
  8
0
100
AcDbVertex
100
AcDb3dPolylineVertex
 10
254.000002501604
 20
489.8000000163244
 30
-0.0000002767604788
 70
    32
  0
VERTEX
  5
1B7
330
1B1
100
AcDbEntity
  8
0
100
AcDbVertex
100
AcDb3dPolylineVertex
 10
254.3882310692582
 20
489.7488887557578
 30
-0.0000002767473941
 70
    32
  0
VERTEX
  5
1B8
330
1B1
100
AcDbEntity
  8
0
100
AcDbVertex
100
AcDb3dPolylineVertex
 10
254.7500025016045
 20
489.5990381220005
 30
-0.0000002767085914
 70
    32
  0
VERTEX
  5
1B9
330
1B1
100
AcDbEntity
  8
0
100
AcDbVertex
100
AcDb3dPolylineVertex
 10
255.0606626733842
 20
489.3606601881031
 30
-0.0000002766471612
 70
    32
  0
VERTEX
  5
1BA
330
1B1
100
AcDbEntity
  8
0
100
AcDbVertex
100
AcDb3dPolylineVertex
 10
255.299040607281
 20
489.0500000163236
 30
-0.0000002765675254
 70
    32
  0
VERTEX
  5
1BB
330
1B1
100
AcDbEntity
  8
0
100
AcDbVertex
100
AcDb3dPolylineVertex
 10
255.4488912410375
 20
488.6882285839774
 30
-0.0000002764745342
 70
    32
  0
VERTEX
  5
1BC
330
1B1
100
AcDbEntity
  8
0
100
AcDbVertex
100
AcDb3dPolylineVertex
 10
255.5000025016045
 20
488.3000000163228
 30
-0.000000276374493
 70
    32
  0
VERTEX
  5
1BD
330
1B1
100
AcDbEntity
  8
0
100
AcDbVertex
100
AcDb3dPolylineVertex
 10
255.448891241038
 20
487.9117714486694
 30
-0.0000002762751625
 70
    32
  0
VERTEX
  5
1BE
330
1B1
100
AcDbEntity
  8
0
100
AcDbVertex
100
AcDb3dPolylineVertex
 10
255.299040607281
 20
487.5500000163239
 30
-0.0000002761823518
 70
    32
  0
VERTEX
  5
1BF
330
1B1
100
AcDbEntity
  8
0
100
AcDbVertex
100
AcDb3dPolylineVertex
 10
255.0606626733843
 20
487.2393398445442
 30
-0.000000276102558
 70
    32
  0
VERTEX
  5
1C0
330
1B1
100
AcDbEntity
  8
0
100
AcDbVertex
100
AcDb3dPolylineVertex
 10
254.7500025016045
 20
487.0009619106464
 30
-0.0000002760417483
 70
    32
  0
VERTEX
  5
1C1
330
1B1
100
AcDbEntity
  8
0
100
AcDbVertex
100
AcDb3dPolylineVertex
 10
254.3882310692582
 20
486.8511112768896
 30
-0.0000002760033403
 70
    32
  0
VERTEX
  5
1C2
330
1B1
100
AcDbEntity
  8
0
100
AcDbVertex
100
AcDb3dPolylineVertex
 10
254.0000025016044
 20
486.8000000163235
 30
-0.0000002759901316
 70
    32
  0
VERTEX
  5
1C3
330
1B1
100
AcDbEntity
  8
0
100
AcDbVertex
100
AcDb3dPolylineVertex
 10
253.6117739339505
 20
486.8511112768895
 30
-0.0000002760036675
 70
    32
  0
VERTEX
  5
1C4
330
1B1
100
AcDbEntity
  8
0
100
AcDbVertex
100
AcDb3dPolylineVertex
 10
253.2500025016044
 20
487.0009619106475
 30
-0.0000002760423912
 70
    32
  0
VERTEX
  5
1C5
330
1B1
100
AcDbEntity
  8
0
100
AcDbVertex
100
AcDb3dPolylineVertex
 10
252.9393423298247
 20
487.2393398445441
 30
-0.0000002761035507
 70
    32
  0
VERTEX
  5
1C6
330
1B1
100
AcDbEntity
  8
0
100
AcDbVertex
100
AcDb3dPolylineVertex
 10
252.7009643959277
 20
487.5500000163247
 30
-0.0000002761833444
 70
    32
  0
VERTEX
  5
1C7
330
1B1
100
AcDbEntity
  8
0
100
AcDbVertex
100
AcDb3dPolylineVertex
 10
252.5511137621707
 20
487.9117714486694
 30
-0.0000002762763808
 70
    32
  0
VERTEX
  5
1C8
330
1B1
100
AcDbEntity
  8
0
100
AcDbVertex
100
AcDb3dPolylineVertex
 10
252.5000025016045
 20
488.3000000163239
 30
-0.0000002763757338
 70
    32
  0
VERTEX
  5
1C9
330
1B1
100
AcDbEntity
  8
0
100
AcDbVertex
100
AcDb3dPolylineVertex
 10
252.5511137621703
 20
488.6882285839773
 30
-0.0000002764756283
 70
    32
  0
VERTEX
  5
1CA
330
1B1
100
AcDbEntity
  8
0
100
AcDbVertex
100
AcDb3dPolylineVertex
 10
252.7009643959277
 20
489.0500000163245
 30
-0.0000002765685744
 70
    32
  0
SEQEND
  5
1CB
330
1B1
100
AcDbEntity
  8
0
  0
LINE
  5
1CC
330
1F
100
AcDbEntity
  8
0
100
AcDbLine
 10
254.000002124622
 20
30.00000001840716
 30
-0.0027448230692695
 11
46.00000291215602
 21
30.00000001850051
 31
-0.0028742270471268
  0
POLYLINE
  5
1CD
330
1F
100
AcDbEntity
  8
0
100
AcDb3dPolyline
 66
     1
 10
0.0
 20
0.0
 30
0.0
 70
     8
  0
VERTEX
  5
1CE
330
1CD
100
AcDbEntity
  8
0
100
AcDbVertex
100
AcDb3dPolylineVertex
 10
254.000002124622
 20
30.00000001840716
 30
-0.0027448230692695
 70
    32
  0
VERTEX
  5
1CF
330
1CD
100
AcDbEntity
  8
0
100
AcDbVertex
100
AcDb3dPolylineVertex
 10
255.3052640468225
 20
30.08555140466997
 30
-0.0027447991870854
 70
    32
  0
VERTEX
  5
1D0
330
1CD
100
AcDbEntity
  8
0
100
AcDbVertex
100
AcDb3dPolylineVertex
 10
256.5881925756472
 20
30.34074175551649
 30
-0.0027447279491352
 70
    32
  0
VERTEX
  5
1D1
330
1CD
100
AcDbEntity
  8
0
100
AcDbVertex
100
AcDb3dPolylineVertex
 10
257.8268364482729
 20
30.76120469329429
 30
-0.0027446105742787
 70
    32
  0
VERTEX
  5
1D2
330
1CD
100
AcDbEntity
  8
0
100
AcDbVertex
100
AcDb3dPolylineVertex
 10
259.000002124622
 20
31.33974598056371
 30
-0.0027444490708784
 70
    32
  0
VERTEX
  5
1D3
330
1CD
100
AcDbEntity
  8
0
100
AcDbVertex
100
AcDb3dPolylineVertex
 10
260.0876164147092
 20
32.06646661549482
 30
-0.0027442462023142
 70
    32
  0
VERTEX
  5
1D4
330
1CD
100
AcDbEntity
  8
0
100
AcDbVertex
100
AcDb3dPolylineVertex
 10
261.071069936487
 20
32.92893220654175
 30
-0.0027440054396705
 70
    32
  0
VERTEX
  5
1D5
330
1CD
100
AcDbEntity
  8
0
100
AcDbVertex
100
AcDb3dPolylineVertex
 10
261.9335355275339
 20
33.91238572832101
 30
-0.0027437309025104
 70
    32
  0
VERTEX
  5
1D6
330
1CD
100
AcDbEntity
  8
0
100
AcDbVertex
100
AcDb3dPolylineVertex
 10
262.6602561624665
 20
35.0000000184072
 30
-0.0027434272882092
 70
    32
  0
VERTEX
  5
1D7
330
1CD
100
AcDbEntity
  8
0
100
AcDbVertex
100
AcDb3dPolylineVertex
 10
263.2387974497349
 20
36.17316569475634
 30
-0.0027430997917119
 70
    32
  0
VERTEX
  5
1D8
330
1CD
100
AcDbEntity
  8
0
100
AcDbVertex
100
AcDb3dPolylineVertex
 10
263.6592603875126
 20
37.41180956738196
 30
-0.002742754016586
 70
    32
  0
VERTEX
  5
1D9
330
1CD
100
AcDbEntity
  8
0
100
AcDbVertex
100
AcDb3dPolylineVertex
 10
263.91445073836
 20
38.69473809620658
 30
-0.0027423958791056
 70
    32
  0
VERTEX
  5
1DA
330
1CD
100
AcDbEntity
  8
0
100
AcDbVertex
100
AcDb3dPolylineVertex
 10
264.0000021246219
 20
40.00000001840713
 30
-0.0027420315071242
 70
    32
  0
SEQEND
  5
1DB
330
1CD
100
AcDbEntity
  8
0
  0
LINE
  5
1DC
330
1F
100
AcDbEntity
  8
0
100
AcDbLine
 10
180.0000025003629
 20
491.300000016328
 30
-0.0000002763951239
 11
170.0000025004449
 21
491.3000000163283
 31
-0.0000002769370764
  0
LINE
  5
1DD
330
1F
100
AcDbEntity
  8
0
100
AcDbLine
 10
294.0000025012399
 20
0.0000000187770288
 30
0.0
 11
294.0000025015234
 21
26.00000156601769
 31
0.0000000143384524
  0
LINE
  5
1DE
330
1F
100
AcDbEntity
  8
0
100
AcDbLine
 10
12.00000253156978
 20
180.1000000189343
 30
-0.0000155891825623
 11
15.00000253156979
 21
180.100000018934
 31
-0.0000155891837862
  0
LINE
  5
1DF
330
1F
100
AcDbEntity
  8
0
100
AcDbLine
 10
234.0000025016045
 20
5.000001566027065
 30
-0.0000001939907823
 11
234.0000025016045
 21
11.0000015660286
 31
-0.0000001950136534
  0
LINE
  5
1E0
330
1F
100
AcDbEntity
  8
0
100
AcDbLine
 10
76.00000250712252
 20
5.000001566021566
 30
0.000000005644819
 11
76.00000250712252
 21
11.00000156602219
 31
0.00000000462247
  0
LINE
  5
1E1
330
1F
100
AcDbEntity
  8
0
100
AcDbLine
 10
0.0000000000023462
 20
342.2000000191019
 30
-0.0000156668257485
 11
0.0
 21
332.2000000191822
 31
-0.0000156651189243
  0
LINE
  5
1E2
330
1F
100
AcDbEntity
  8
0
100
AcDbLine
 10
17.00000253157039
 20
310.7000000190195
 30
-0.0000156114651084
 11
17.00000253157055
 21
313.7000000190197
 31
-0.0000156119772764
  0
LINE
  5
1E3
330
1F
100
AcDbEntity
  8
0
100
AcDbLine
 10
15.00000253157033
 20
310.7000000190205
 30
-0.0000156114665522
 11
15.00000253156979
 21
308.2000000190206
 31
-0.0000156110399421
  0
LINE
  5
1E4
330
1F
100
AcDbEntity
  8
0
100
AcDbLine
 10
12.00000253156976
 20
313.7000000190213
 30
-0.0000156119776599
 11
12.00000253157021
 21
316.2000000190218
 31
-0.0000156124049525
  0
LINE
  5
1E5
330
1F
100
AcDbEntity
  8
0
100
AcDbLine
 10
6.000002531518998
 20
282.2000000191014
 30
-0.0000156065995777
 11
6.000002531567554
 21
214.1000000190139
 31
-0.0000155949826355
  0
LINE
  5
1E6
330
1F
100
AcDbEntity
  8
0
100
AcDbLine
 10
6.000002531519005
 20
26.00000001885572
 30
-0.0000155628876248
 11
6.000002531519005
 21
0.0000000187771164
 31
-0.0000155584515934
  0
LINE
  5
1E7
330
1F
100
AcDbEntity
  8
0
100
AcDbLine
 10
12.00000253157023
 20
182.6000000189344
 30
-0.0000155896095278
 11
12.00000253156978
 21
180.1000000189343
 31
-0.0000155891825623
  0
LINE
  5
1E8
330
1F
100
AcDbEntity
  8
0
100
AcDbLine
 10
12.00000253156976
 20
185.6000000189345
 30
-0.0000155901218762
 11
12.00000253157022
 21
188.1000000189346
 31
-0.0000155905489094
  0
LINE
  5
1E9
330
1F
100
AcDbEntity
  8
0
100
AcDbLine
 10
15.00000253157021
 20
185.6000000189342
 30
-0.0000155901232129
 11
15.00000253157076
 21
188.1000000189343
 31
-0.0000155905503645
  0
LINE
  5
1EA
330
1F
100
AcDbEntity
  8
0
100
AcDbLine
 10
6.000002531518998
 20
154.1000000190146
 30
-0.0000155847436756
 11
0.0
 21
154.1000000190156
 31
-0.0000156347322035
  0
LINE
  5
1EB
330
1F
100
AcDbEntity
  8
0
100
AcDbLine
 10
0.000000000002354
 20
164.100000018935
 30
-0.0000156364388613
 11
0.0
 21
154.1000000190156
 31
-0.0000156347322035
  0
LINE
  5
1EC
330
1F
100
AcDbEntity
  8
0
100
AcDbLine
 10
15.00000253157021
 20
185.6000000189342
 30
-0.0000155901232129
 11
17.00000253157055
 21
185.600000018933
 31
-0.0000155901214476
  0
LINE
  5
1ED
330
1F
100
AcDbEntity
  8
0
100
AcDbLine
 10
6.000002531567554
 20
214.1000000190139
 30
-0.0000155949826355
 11
0.000000000002354
 21
214.1000000190151
 31
-0.0000156449697731
  0
LINE
  5
1EE
330
1F
100
AcDbEntity
  8
0
100
AcDbLine
 10
6.000002531567554
 20
164.1000000189339
 30
-0.0000155864517209
 11
0.000000000002354
 21
164.100000018935
 31
-0.0000156364388613
  0
LINE
  5
1EF
330
1F
100
AcDbEntity
  8
0
100
AcDbLine
 10
6.000002531519005
 20
204.1000000190947
 30
-0.0000155932744521
 11
0.0000000000000078
 21
204.1000000190957
 31
-0.0000156432629546
  0
POLYLINE
  5
1F0
330
1F
100
AcDbEntity
  8
0
100
AcDb3dPolyline
 66
     1
 10
0.0
 20
0.0
 30
0.0
 70
     9
  0
VERTEX
  5
1F1
330
1F0
100
AcDbEntity
  8
0
100
AcDbVertex
100
AcDb3dPolylineVertex
 10
137.2255986797432
 20
461.3394625977064
 30
-0.0000004464592148
 70
    32
  0
VERTEX
  5
1F2
330
1F0
100
AcDbEntity
  8
0
100
AcDbVertex
100
AcDb3dPolylineVertex
 10
136.5262957222107
 20
463.0277292819879
 30
-0.0000004467470319
 70
    32
  0
VERTEX
  5
1F3
330
1F0
100
AcDbEntity
  8
0
100
AcDbVertex
100
AcDb3dPolylineVertex
 10
136.2877765062342
 20
464.839462597706
 30
-0.0000004470561228
 70
    32
  0
VERTEX
  5
1F4
330
1F0
100
AcDbEntity
  8
0
100
AcDbVertex
100
AcDb3dPolylineVertex
 10
136.5262957222108
 20
466.6511959134237
 30
-0.0000004473654844
 70
    32
  0
VERTEX
  5
1F5
330
1F0
100
AcDbEntity
  8
0
100
AcDbVertex
100
AcDb3dPolylineVertex
 10
137.2255986797432
 20
468.339462597706
 30
-0.0000004476531548
 70
    32
  0
VERTEX
  5
1F6
330
1F0
100
AcDbEntity
  8
0
100
AcDbVertex
100
AcDb3dPolylineVertex
 10
138.3380290379284
 20
469.789210066011
 30
-0.0000004479006012
 70
    32
  0
VERTEX
  5
1F7
330
1F0
100
AcDbEntity
  8
0
100
AcDbVertex
100
AcDb3dPolylineVertex
 10
139.7877765062343
 20
470.9016404241968
 30
-0.0000004480903173
 70
    32
  0
VERTEX
  5
1F8
330
1F0
100
AcDbEntity
  8
0
100
AcDbVertex
100
AcDb3dPolylineVertex
 10
141.4760431905167
 20
471.6009433817293
 30
-0.0000004482099515
 70
    32
  0
VERTEX
  5
1F9
330
1F0
100
AcDbEntity
  8
0
100
AcDbVertex
100
AcDb3dPolylineVertex
 10
143.2877765062343
 20
471.8394625977052
 30
-0.0000004482504914
 70
    32
  0
VERTEX
  5
1FA
330
1F0
100
AcDbEntity
  8
0
100
AcDbVertex
100
AcDb3dPolylineVertex
 10
144.236851236363
 20
471.7145145390875
 30
-0.0000050983237398
 70
    32
  0
VERTEX
  5
1FB
330
1F0
100
AcDbEntity
  8
0
100
AcDbVertex
100
AcDb3dPolylineVertex
 10
145.099509821952
 20
471.6009433817294
 30
-0.000000448210053
 70
    32
  0
VERTEX
  5
1FC
330
1F0
100
AcDbEntity
  8
0
100
AcDbVertex
100
AcDb3dPolylineVertex
 10
146.7877765062343
 20
470.9016404241968
 30
-0.0000004480904301
 70
    32
  0
VERTEX
  5
1FD
330
1F0
100
AcDbEntity
  8
0
100
AcDbVertex
100
AcDb3dPolylineVertex
 10
148.23752397454
 20
469.7892100660112
 30
-0.000000447900714
 70
    32
  0
VERTEX
  5
1FE
330
1F0
100
AcDbEntity
  8
0
100
AcDbVertex
100
AcDb3dPolylineVertex
 10
149.3499543327254
 20
468.3394625977055
 30
-0.0000004476531886
 70
    32
  0
VERTEX
  5
1FF
330
1F0
100
AcDbEntity
  8
0
100
AcDbVertex
100
AcDb3dPolylineVertex
 10
150.0492572902578
 20
466.6511959134236
 30
-0.0000004473655408
 70
    32
  0
VERTEX
  5
200
330
1F0
100
AcDbEntity
  8
0
100
AcDbVertex
100
AcDb3dPolylineVertex
 10
150.2877765062342
 20
464.8394625977053
 30
-0.0000004470561679
 70
    32
  0
VERTEX
  5
201
330
1F0
100
AcDbEntity
  8
0
100
AcDbVertex
100
AcDb3dPolylineVertex
 10
150.0492572902577
 20
463.0277292819879
 30
-0.0000004467471447
 70
    32
  0
VERTEX
  5
202
330
1F0
100
AcDbEntity
  8
0
100
AcDbVertex
100
AcDb3dPolylineVertex
 10
149.3499543327254
 20
461.339462597706
 30
-0.000000446459384
 70
    32
  0
VERTEX
  5
203
330
1F0
100
AcDbEntity
  8
0
100
AcDbVertex
100
AcDb3dPolylineVertex
 10
148.2375239745402
 20
459.8897151294001
 30
-0.0000004462118586
 70
    32
  0
VERTEX
  5
204
330
1F0
100
AcDbEntity
  8
0
100
AcDbVertex
100
AcDb3dPolylineVertex
 10
146.7877765062343
 20
458.7772847712147
 30
-0.0000004460220298
 70
    32
  0
VERTEX
  5
205
330
1F0
100
AcDbEntity
  8
0
100
AcDbVertex
100
AcDb3dPolylineVertex
 10
145.0995098219518
 20
458.0779818136812
 30
-0.0000004459024858
 70
    32
  0
VERTEX
  5
206
330
1F0
100
AcDbEntity
  8
0
100
AcDbVertex
100
AcDb3dPolylineVertex
 10
144.2368512365232
 20
457.9644106563455
 30
-0.0000050959777984
 70
    32
  0
VERTEX
  5
207
330
1F0
100
AcDbEntity
  8
0
100
AcDbVertex
100
AcDb3dPolylineVertex
 10
143.2877765062342
 20
457.8394625977061
 30
-0.0000004458623182
 70
    32
  0
VERTEX
  5
208
330
1F0
100
AcDbEntity
  8
0
100
AcDbVertex
100
AcDb3dPolylineVertex
 10
141.4760431905165
 20
458.0779818136812
 30
-0.0000004459024858
 70
    32
  0
VERTEX
  5
209
330
1F0
100
AcDbEntity
  8
0
100
AcDbVertex
100
AcDb3dPolylineVertex
 10
139.7877765062343
 20
458.7772847712147
 30
-0.0000004460219395
 70
    32
  0
VERTEX
  5
20A
330
1F0
100
AcDbEntity
  8
0
100
AcDbVertex
100
AcDb3dPolylineVertex
 10
138.3380290379285
 20
459.8897151294
 30
-0.0000004462117797
 70
    32
  0
VERTEX
  5
20B
330
1F0
100
AcDbEntity
  8
0
100
AcDbVertex
100
AcDb3dPolylineVertex
 10
137.2255986797432
 20
461.3394625977064
 30
-0.0000004464592148
 70
    32
  0
SEQEND
  5
20C
330
1F0
100
AcDbEntity
  8
0
  0
LINE
  5
20D
330
1F
100
AcDbEntity
  8
0
100
AcDbLine
 10
15.00000253157033
 20
182.6000000189342
 30
-0.000015589610684
 11
15.00000253156979
 21
180.100000018934
 31
-0.0000155891837862
  0
LINE
  5
20E
330
1F
100
AcDbEntity
  8
0
100
AcDbLine
 10
0.000000000002354
 20
214.1000000190151
 30
-0.0000156449697731
 11
0.0000000000000078
 21
204.1000000190957
 31
-0.0000156432629546
  0
LINE
  5
20F
330
1F
100
AcDbEntity
  8
0
100
AcDbLine
 10
26.00000250712306
 20
5.000001566020934
 30
0.0000000056571363
 11
26.00000250712306
 21
11.00000156602155
 31
0.0000000046347862
  0
LINE
  5
210
330
1F
100
AcDbEntity
  8
0
100
AcDbLine
 10
284.0000025015226
 20
11.00000156603672
 30
-0.0000001950198795
 11
274.0000025016046
 21
11.00000156603672
 31
-0.0000001955618979
  0
LINE
  5
211
330
1F
100
AcDbEntity
  8
0
100
AcDbLine
 10
120.0000025004454
 20
11.00000156602887
 30
-0.000000195005553
 11
120.0000025004457
 21
5.000001566027336
 31
-0.0000001939804947
  0
LINE
  5
212
330
1F
100
AcDbEntity
  8
0
100
AcDbLine
 10
234.0000025016045
 20
11.0000015660286
 30
-0.0000001950136534
 11
224.0000025016053
 21
11.0000015660286
 31
-0.0000001950158399
  0
LINE
  5
213
330
1F
100
AcDbEntity
  8
0
100
AcDbLine
 10
170.000002500445
 20
5.000001566036361
 30
-0.0000001939872391
 11
180.0000025003629
 21
5.00000156603627
 31
-0.0000001939872395
  0
LINE
  5
214
330
1F
100
AcDbEntity
  8
0
100
AcDbLine
 10
170.0000025004447
 20
11.00000156603699
 30
-0.0000001955516078
 11
170.000002500445
 21
5.000001566036361
 31
-0.0000001939872391
  0
LINE
  5
215
330
1F
100
AcDbEntity
  8
0
100
AcDbLine
 10
274.0000025016046
 20
5.000001566036089
 30
-0.0000001939975277
 11
284.0000025015225
 21
5.000001566036089
 31
-0.0000001939975277
  0
LINE
  5
216
330
1F
100
AcDbEntity
  8
0
100
AcDbLine
 10
274.0000025016046
 20
11.00000156603672
 30
-0.0000001955618979
 11
274.0000025016046
 21
5.000001566036089
 31
-0.0000001939975277
  0
LINE
  5
217
330
1F
100
AcDbEntity
  8
0
100
AcDbLine
 10
16.00000250720493
 20
5.000001566021022
 30
0.0000000056571356
 11
26.00000250712306
 21
5.000001566020934
 31
0.0000000056571363
  0
LINE
  5
218
330
1F
100
AcDbEntity
  8
0
100
AcDbLine
 10
16.00000250720493
 20
11.00000156602165
 30
0.000000004632985
 11
16.00000250720493
 21
5.000001566021022
 31
0.0000000056571356
  0
LINE
  5
219
330
1F
100
AcDbEntity
  8
0
100
AcDbLine
 10
180.0000025003627
 20
11.0000015660369
 30
-0.0000001950095912
 11
170.0000025004447
 21
11.00000156603699
 31
-0.0000001955516078
  0
LINE
  5
21A
330
1F
100
AcDbEntity
  8
0
100
AcDbLine
 10
130.0000025004446
 20
11.00000156602887
 30
-0.0000001950033633
 11
120.0000025004454
 21
11.00000156602887
 31
-0.000000195005553
  0
LINE
  5
21B
330
1F
100
AcDbEntity
  8
0
100
AcDbLine
 10
76.00000250712252
 20
11.00000156602219
 30
0.00000000462247
 11
66.00000250720437
 21
11.0000015660221
 31
0.0000000046206681
  0
LINE
  5
21C
330
1F
100
AcDbEntity
  8
0
100
AcDbLine
 10
130.0000025004449
 20
5.000001566027336
 30
-0.0000001939804947
 11
130.0000025004446
 21
11.00000156602887
 31
-0.0000001950033633
  0
LINE
  5
21D
330
1F
100
AcDbEntity
  8
0
100
AcDbLine
 10
120.0000025004457
 20
5.000001566027336
 30
-0.0000001939804947
 11
130.0000025004449
 21
5.000001566027336
 31
-0.0000001939804947
  0
LINE
  5
21E
330
1F
100
AcDbEntity
  8
0
100
AcDbLine
 10
279.0000046246105
 20
457.8394625992996
 30
-0.0000034242709525
 11
270.5000046246105
 21
457.8394625992007
 31
-0.0000034242708622
  0
LINE
  5
21F
330
1F
100
AcDbEntity
  8
0
100
AcDbLine
 10
279.0000046244475
 20
471.8394625992992
 30
-0.0000034266591708
 11
279.0000046246105
 21
457.8394625992996
 31
-0.0000034242709525
  0
LINE
  5
220
330
1F
100
AcDbEntity
  8
0
100
AcDbLine
 10
270.7300046244475
 20
471.8394625992027
 30
-0.0000034266591482
 11
279.0000046244475
 21
471.8394625992992
 31
-0.0000034266591708
  0
LINE
  5
221
330
1F
100
AcDbEntity
  8
0
100
AcDbLine
 10
294.0000025015524
 20
410.3000000189803
 30
-0.0000007297147638
 11
294.0000001523421
 21
342.2000015661745
 31
-0.000000039617033
  0
LINE
  5
222
330
1F
100
AcDbEntity
  8
0
100
AcDbLine
 10
288.0000025015505
 20
182.6000015661754
 30
-0.0000000123805108
 11
288.0000025015506
 21
180.1000015661753
 31
-0.0000000119537258
  0
LINE
  5
223
330
1F
100
AcDbEntity
  8
0
100
AcDbLine
 10
285.0000025015495
 20
182.6000015661752
 30
-0.0000000123817798
 11
283.00000250155
 21
182.6000015661762
 31
-0.0000000123776401
  0
LINE
  5
224
330
1F
100
AcDbEntity
  8
0
100
AcDbLine
 10
300.0000023525271
 20
204.1000000190981
 30
-0.000000644556852
 11
300.0000023525278
 21
214.1000000190176
 31
-0.0000006462655373
  0
LINE
  5
225
330
1F
100
AcDbEntity
  8
0
100
AcDbLine
 10
294.0000025015514
 20
164.1000015661759
 30
-0.0000000092221878
 11
300.0000020839624
 21
164.1000000190995
 31
-0.0000006377260725
  0
LINE
  5
226
330
1F
100
AcDbEntity
  8
0
100
AcDbLine
 10
294.00000250155
 20
182.6000015661758
 30
-0.0000000123819095
 11
288.0000025015505
 21
182.6000015661754
 31
-0.0000000123805108
  0
LINE
  5
227
330
1F
100
AcDbEntity
  8
0
100
AcDbLine
 10
294.0000025015947
 20
214.1000015660946
 30
-0.0000000177610802
 11
300.0000023525278
 21
214.1000000190176
 31
-0.0000006462655373
  0
LINE
  5
228
330
1F
100
AcDbEntity
  8
0
100
AcDbLine
 10
294.0000025015522
 20
154.1000015661757
 30
-0.0000000075175266
 11
300.0000020839636
 21
154.1000000190993
 31
-0.0000006360183544
  0
LINE
  5
229
330
1F
100
AcDbEntity
  8
0
100
AcDbLine
 10
285.0000025015493
 20
185.6000015661753
 30
-0.0000000128938688
 11
283.0000025015495
 21
185.6000015661764
 31
-0.0000000128901634
  0
LINE
  5
22A
330
1F
100
AcDbEntity
  8
0
100
AcDbLine
 10
294.0000025015478
 20
204.1000015661753
 30
-0.0000000160537258
 11
300.0000023525271
 21
204.1000000190981
 31
-0.000000644556852
  0
LINE
  5
22B
330
1F
100
AcDbEntity
  8
0
100
AcDbLine
 10
283.0000025015495
 20
185.6000015661764
 30
-0.0000000128901634
 11
283.00000250155
 21
182.6000015661762
 31
-0.0000000123776401
  0
LINE
  5
22C
330
1F
100
AcDbEntity
  8
0
100
AcDbLine
 10
294.0000025015514
 20
164.1000015661759
 30
-0.0000000092221878
 11
294.00000250155
 21
182.6000015661758
 31
-0.0000000123819095
  0
LINE
  5
22D
330
1F
100
AcDbEntity
  8
0
100
AcDbLine
 10
294.0000025015495
 20
185.6000015661757
 30
-0.0000000128941564
 11
288.0000025015494
 21
185.6000015661753
 31
-0.0000000128927408
  0
LINE
  5
22E
330
1F
100
AcDbEntity
  8
0
100
AcDbLine
 10
288.0000025015506
 20
180.1000015661753
 30
-0.0000000119537258
 11
285.0000025015494
 21
180.1000015661751
 31
-0.0000000119550625
  0
LINE
  5
22F
330
1F
100
AcDbEntity
  8
0
100
AcDbLine
 10
285.0000025015493
 20
185.6000015661753
 30
-0.0000000128938688
 11
285.0000025015494
 21
188.1000015661755
 31
-0.0000000133208568
  0
LINE
  5
230
330
1F
100
AcDbEntity
  8
0
100
AcDbLine
 10
294.0000025015495
 20
185.6000015661757
 30
-0.0000000128941564
 11
294.0000025015478
 21
204.1000015661753
 31
-0.0000000160537258
  0
LINE
  5
231
330
1F
100
AcDbEntity
  8
0
100
AcDbLine
 10
288.0000025015494
 20
188.1000015661756
 30
-0.0000000133197289
 11
285.0000025015494
 21
188.1000015661755
 31
-0.0000000133208568
  0
LINE
  5
232
330
1F
100
AcDbEntity
  8
0
100
AcDbLine
 10
300.0000020839624
 20
164.1000000190995
 30
-0.0000006377260725
 11
300.0000020839636
 21
154.1000000190993
 31
-0.0000006360183544
  0
LINE
  5
233
330
1F
100
AcDbEntity
  8
0
100
AcDbLine
 10
285.0000025015495
 20
182.6000015661752
 30
-0.0000000123817798
 11
285.0000025015494
 21
180.1000015661751
 31
-0.0000000119550625
  0
LINE
  5
234
330
1F
100
AcDbEntity
  8
0
100
AcDbLine
 10
288.0000025015494
 20
185.6000015661753
 30
-0.0000000128927408
 11
288.0000025015494
 21
188.1000015661756
 31
-0.0000000133197289
  0
LINE
  5
235
330
1F
100
AcDbEntity
  8
0
100
AcDbLine
 10
294.0000025015664
 20
86.00000156593643
 30
0.0000000040949601
 11
294.0000025015522
 21
154.1000015661757
 31
-0.0000000075175266
  0
LINE
  5
236
330
1F
100
AcDbEntity
  8
0
100
AcDbLine
 10
294.0000025015231
 20
36.00000156601794
 30
0.000000012633863
 11
300.0000020839341
 21
36.00000001894202
 31
-0.0000006158700901
  0
LINE
  5
237
330
1F
100
AcDbEntity
  8
0
100
AcDbLine
 10
300.0000020839341
 20
36.00000001894202
 30
-0.0000006158700901
 11
300.0000020839348
 21
26.00000001894173
 31
-0.0000006141623466
  0
LINE
  5
238
330
1F
100
AcDbEntity
  8
0
100
AcDbLine
 10
294.0000025015664
 20
86.00000156593643
 30
0.0000000040949601
 11
300.0000023524995
 21
86.00000001885951
 31
-0.0000006244095126
  0
LINE
  5
239
330
1F
100
AcDbEntity
  8
0
100
AcDbLine
 10
294.0000025015216
 20
54.50000156601758
 30
0.0000000094741251
 11
288.0000025015221
 21
54.50000156601813
 31
0.0000000094755041
  0
LINE
  5
23A
330
1F
100
AcDbEntity
  8
0
100
AcDbLine
 10
285.000002501521
 20
57.50000156601816
 30
0.0000000089621235
 11
285.0000025015211
 21
60.00000156601816
 31
0.0000000085351905
  0
LINE
  5
23B
330
1F
100
AcDbEntity
  8
0
100
AcDbLine
 10
285.0000025015211
 20
54.50000156601802
 30
0.0000000094742196
 11
285.0000025015211
 21
52.00000156601785
 31
0.0000000099009637
  0
LINE
  5
23C
330
1F
100
AcDbEntity
  8
0
100
AcDbLine
 10
288.000002501521
 20
57.50000156601808
 30
0.0000000089632092
 11
288.000002501521
 21
60.00000156601827
 31
0.0000000085362973
  0
LINE
  5
23D
330
1F
100
AcDbEntity
  8
0
100
AcDbLine
 10
283.0000025015212
 20
57.50000156601826
 30
0.000000008965812
 11
283.0000025015217
 21
54.50000156601813
 31
0.0000000094783677
  0
LINE
  5
23E
330
1F
100
AcDbEntity
  8
0
100
AcDbLine
 10
294.0000025015199
 20
76.00000156601719
 30
0.0000000058022735
 11
300.0000023524992
 21
76.00000001894044
 31
-0.0000006227008399
  0
LINE
  5
23F
330
1F
100
AcDbEntity
  8
0
100
AcDbLine
 10
288.0000025015222
 20
52.00000156601791
 30
0.0000000099023328
 11
285.0000025015211
 21
52.00000156601785
 31
0.0000000099009637
  0
LINE
  5
240
330
1F
100
AcDbEntity
  8
0
100
AcDbLine
 10
294.0000025015234
 20
26.00000156601769
 30
0.0000000143384524
 11
300.0000020839348
 21
26.00000001894173
 31
-0.0000006141623466
  0
LINE
  5
241
330
1F
100
AcDbEntity
  8
0
100
AcDbLine
 10
300.0000023524992
 20
76.00000001894044
 30
-0.0000006227008399
 11
300.0000023524995
 21
86.00000001885951
 31
-0.0000006244095126
  0
LINE
  5
242
330
1F
100
AcDbEntity
  8
0
100
AcDbLine
 10
285.000002501521
 20
57.50000156601816
 30
0.0000000089621235
 11
283.0000025015212
 21
57.50000156601826
 31
0.000000008965812
  0
LINE
  5
243
330
1F
100
AcDbEntity
  8
0
100
AcDbLine
 10
294.0000025015212
 20
57.50000156601752
 30
0.0000000089618443
 11
288.000002501521
 21
57.50000156601808
 31
0.0000000089632092
  0
LINE
  5
244
330
1F
100
AcDbEntity
  8
0
100
AcDbLine
 10
288.000002501521
 20
60.00000156601827
 30
0.0000000085362973
 11
285.0000025015211
 21
60.00000156601816
 31
0.0000000085351905
  0
LINE
  5
245
330
1F
100
AcDbEntity
  8
0
100
AcDbLine
 10
294.0000025015231
 20
36.00000156601794
 30
0.000000012633863
 11
294.0000025015216
 21
54.50000156601758
 31
0.0000000094741251
  0
LINE
  5
246
330
1F
100
AcDbEntity
  8
0
100
AcDbLine
 10
288.0000025015221
 20
54.50000156601813
 30
0.0000000094755041
 11
288.0000025015222
 21
52.00000156601791
 31
0.0000000099023328
  0
LINE
  5
247
330
1F
100
AcDbEntity
  8
0
100
AcDbLine
 10
294.0000025015212
 20
57.50000156601752
 30
0.0000000089618443
 11
294.0000025015199
 21
76.00000156601719
 31
0.0000000058022735
  0
LINE
  5
248
330
1F
100
AcDbEntity
  8
0
100
AcDbLine
 10
285.0000025015211
 20
54.50000156601802
 30
0.0000000094742196
 11
283.0000025015217
 21
54.50000156601813
 31
0.0000000094783677
  0
LINE
  5
249
330
1F
100
AcDbEntity
  8
0
100
AcDbLine
 10
6.000002531519005
 20
0.0000000187771164
 30
-0.0000155584515934
 11
294.0000025012399
 21
0.0000000187770288
 31
0.0
  0
LINE
  5
24A
330
1F
100
AcDbEntity
  8
0
100
AcDbLine
 10
15.00000253157022
 20
313.7000000190205
 30
-0.0000156119790134
 11
15.00000253157076
 21
316.200000019021
 31
-0.0000156124063624
  0
LINE
  5
24B
330
1F
100
AcDbEntity
  8
0
100
AcDbLine
 10
6.000002531570123
 20
310.7000000190232
 30
-0.0000156114666707
 11
12.00000253157023
 21
310.7000000190214
 31
-0.000015611465334
  0
LINE
  5
24C
330
1F
100
AcDbEntity
  8
0
100
AcDbLine
 10
6.000002531518998
 20
332.2000000191813
 30
-0.0000156151304557
 11
0.0
 21
332.2000000191822
 31
-0.0000156651189243
  0
LINE
  5
24D
330
1F
100
AcDbEntity
  8
0
100
AcDbLine
 10
6.000002531570123
 20
310.7000000190232
 30
-0.0000156114666707
 11
6.000002531567546
 21
292.2000000190206
 31
-0.0000156083078514
  0
LINE
  5
24E
330
1F
100
AcDbEntity
  8
0
100
AcDbLine
 10
0.0000000000023462
 20
292.2000000190219
 30
-0.0000156582949946
 11
0.0
 21
282.2000000191023
 31
-0.0000156565880914
  0
LINE
  5
24F
330
1F
100
AcDbEntity
  8
0
100
AcDbLine
 10
6.000002531567546
 20
292.2000000190206
 30
-0.0000156083078514
 11
0.0000000000023462
 21
292.2000000190219
 31
-0.0000156582949946
  0
LINE
  5
250
330
1F
100
AcDbEntity
  8
0
100
AcDbLine
 10
12.00000253156976
 20
313.7000000190213
 30
-0.0000156119776599
 11
6.000002531570288
 21
313.700000019023
 31
-0.0000156119791093
  0
LINE
  5
251
330
1F
100
AcDbEntity
  8
0
100
AcDbLine
 10
6.000002531518998
 20
282.2000000191014
 30
-0.0000156065995777
 11
0.0
 21
282.2000000191023
 31
-0.0000156565880914
  0
LINE
  5
252
330
1F
100
AcDbEntity
  8
0
100
AcDbLine
 10
12.00000253157023
 20
310.7000000190214
 30
-0.000015611465334
 11
12.00000253156978
 21
308.2000000190213
 31
-0.0000156110386843
  0
LINE
  5
253
330
1F
100
AcDbEntity
  8
0
100
AcDbLine
 10
6.000002531518998
 20
332.2000000191813
 30
-0.0000156151304557
 11
6.000002531570288
 21
313.700000019023
 31
-0.0000156119791093
  0
LINE
  5
254
330
1F
100
AcDbEntity
  8
0
100
AcDbLine
 10
12.00000253156978
 20
308.2000000190213
 30
-0.0000156110386843
 11
15.00000253156979
 21
308.2000000190206
 31
-0.0000156110399421
  0
LINE
  5
255
330
1F
100
AcDbEntity
  8
0
100
AcDbLine
 10
6.000002531567546
 20
342.2000000191006
 30
-0.0000156168386335
 11
0.0000000000023462
 21
342.2000000191019
 31
-0.0000156668257485
  0
LINE
  5
256
330
1F
100
AcDbEntity
  8
0
100
AcDbLine
 10
26.00000250712306
 20
11.00000156602155
 30
0.0000000046347862
 11
16.00000250720493
 21
11.00000156602165
 31
0.000000004632985
  0
LINE
  5
257
330
1F
100
AcDbEntity
  8
0
100
AcDbLine
 10
15.00000253157033
 20
182.6000000189342
 30
-0.000015589610684
 11
17.00000253157039
 21
182.6000000189326
 31
-0.0000155896093022
  0
LINE
  5
258
330
1F
100
AcDbEntity
  8
0
100
AcDbLine
 10
17.00000253157039
 20
182.6000000189326
 30
-0.0000155896093022
 11
17.00000253157055
 21
185.600000018933
 31
-0.0000155901214476
  0
LINE
  5
259
330
1F
100
AcDbEntity
  8
0
100
AcDbLine
 10
6.000002531570295
 20
185.6000000189366
 30
-0.000015590123258
 11
12.00000253156976
 21
185.6000000189345
 31
-0.0000155901218762
  0
LINE
  5
25A
330
1F
100
AcDbEntity
  8
0
100
AcDbLine
 10
6.000002531570131
 20
182.6000000189367
 30
-0.0000155896109096
 11
12.00000253157023
 21
182.6000000189344
 31
-0.0000155896095278
  0
LINE
  5
25B
330
1F
100
AcDbEntity
  8
0
100
AcDbLine
 10
6.000002531519005
 20
204.1000000190947
 30
-0.0000155932744521
 11
6.000002531570295
 21
185.6000000189366
 31
-0.000015590123258
  0
LINE
  5
25C
330
1F
100
AcDbEntity
  8
0
100
AcDbLine
 10
6.000002531570131
 20
182.6000000189367
 30
-0.0000155896109096
 11
6.000002531567554
 21
164.1000000189339
 31
-0.0000155864517209
  0
LINE
  5
25D
330
1F
100
AcDbEntity
  8
0
100
AcDbLine
 10
12.00000253157022
 20
188.1000000189346
 30
-0.0000155905489094
 11
15.00000253157076
 21
188.1000000189343
 31
-0.0000155905503645
  0
LINE
  5
25E
330
1F
100
AcDbEntity
  8
0
100
AcDbLine
 10
6.000002531518998
 20
154.1000000190146
 30
-0.0000155847436756
 11
6.000002531567546
 21
86.00000001885479
 31
-0.0000155731265727
  0
LINE
  5
25F
330
1F
100
AcDbEntity
  8
0
100
AcDbLine
 10
6.000002531519005
 20
26.00000001885572
 30
-0.0000155628876248
 11
0.000000000000007
 21
26.00000001885662
 31
-0.0000156128761033
  0
LINE
  5
260
330
1F
100
AcDbEntity
  8
0
100
AcDbLine
 10
6.000002531570295
 20
57.50000001877786
 30
-0.0000155682671839
 11
12.00000253156976
 21
57.50000001877719
 31
-0.0000155682658064
  0
LINE
  5
261
330
1F
100
AcDbEntity
  8
0
100
AcDbLine
 10
0.0000000000023462
 20
86.00000001885594
 30
-0.0000156231137103
 11
0.0
 21
76.00000001893662
 31
-0.0000156214069327
  0
LINE
  5
262
330
1F
100
AcDbEntity
  8
0
100
AcDbLine
 10
6.000002531567547
 20
36.00000001877487
 30
-0.0000155645958054
 11
0.0000000000023462
 21
36.00000001877603
 31
-0.0000156145829296
  0
LINE
  5
263
330
1F
100
AcDbEntity
  8
0
100
AcDbLine
 10
12.00000253157023
 20
54.50000001877692
 30
-0.000015567753458
 11
12.00000253156978
 21
52.00000001877704
 31
-0.0000155673265728
  0
LINE
  5
264
330
1F
100
AcDbEntity
  8
0
100
AcDbLine
 10
12.00000253156978
 20
52.00000001877704
 30
-0.0000155673265728
 11
15.00000253156979
 21
52.0000000187753
 31
-0.0000155673277699
  0
LINE
  5
265
330
1F
100
AcDbEntity
  8
0
100
AcDbLine
 10
15.00000253157033
 20
54.5000000187752
 30
-0.000015567754655
 11
15.00000253156979
 21
52.0000000187753
 31
-0.0000155673277699
  0
LINE
  5
266
330
1F
100
AcDbEntity
  8
0
100
AcDbLine
 10
15.00000253157033
 20
54.5000000187752
 30
-0.000015567754655
 11
17.0000025315704
 21
54.50000001877412
 31
-0.0000155677532845
  0
LINE
  5
267
330
1F
100
AcDbEntity
  8
0
100
AcDbLine
 10
15.00000253157022
 20
57.50000001877548
 30
-0.0000155682671868
 11
17.00000253157055
 21
57.50000001877458
 31
-0.0000155682653679
  0
LINE
  5
268
330
1F
100
AcDbEntity
  8
0
100
AcDbLine
 10
12.00000253157022
 20
60.00000001877728
 30
-0.0000155686929143
 11
15.00000253157076
 21
60.00000001877555
 31
-0.0000155686943778
  0
LINE
  5
269
330
1F
100
AcDbEntity
  8
0
100
AcDbLine
 10
12.00000253156976
 20
57.50000001877719
 30
-0.0000155682658064
 11
12.00000253157022
 21
60.00000001877728
 31
-0.0000155686929143
  0
LINE
  5
26A
330
1F
100
AcDbEntity
  8
0
100
AcDbLine
 10
6.000002531518998
 20
76.0000000189357
 30
-0.0000155714184626
 11
0.0
 21
76.00000001893662
 31
-0.0000156214069327
  0
LINE
  5
26B
330
1F
100
AcDbEntity
  8
0
100
AcDbLine
 10
6.000002531570123
 20
54.50000001877774
 30
-0.0000155677548383
 11
12.00000253157023
 21
54.50000001877692
 31
-0.000015567753458
  0
LINE
  5
26C
330
1F
100
AcDbEntity
  8
0
100
AcDbLine
 10
6.000002531518998
 20
76.0000000189357
 30
-0.0000155714184626
 11
6.000002531570295
 21
57.50000001877786
 31
-0.0000155682671839
  0
LINE
  5
26D
330
1F
100
AcDbEntity
  8
0
100
AcDbLine
 10
6.000002531567546
 20
86.00000001885479
 30
-0.0000155731265727
 11
0.0000000000023462
 21
86.00000001885594
 31
-0.0000156231137103
  0
LINE
  5
26E
330
1F
100
AcDbEntity
  8
0
100
AcDbLine
 10
6.000002531570123
 20
54.50000001877774
 30
-0.0000155677548383
 11
6.000002531567547
 21
36.00000001877487
 31
-0.0000155645958054
  0
LINE
  5
26F
330
1F
100
AcDbEntity
  8
0
100
AcDbLine
 10
15.00000253157022
 20
57.50000001877548
 30
-0.0000155682671868
 11
15.00000253157076
 21
60.00000001877555
 31
-0.0000155686943778
  0
LINE
  5
270
330
1F
100
AcDbEntity
  8
0
100
AcDbLine
 10
0.0000000000023462
 20
36.00000001877603
 30
-0.0000156145829296
 11
0.000000000000007
 21
26.00000001885662
 31
-0.0000156128761033
  0
LINE
  5
271
330
1F
100
AcDbEntity
  8
0
100
AcDbLine
 10
6.000002573857024
 20
496.3000000188962
 30
-0.0000478732696619
 11
6.000002531567554
 21
470.3000000190192
 31
-0.0000156386940562
  0
LINE
  5
272
330
1F
100
AcDbEntity
  8
0
100
AcDbLine
 10
12.00000253157021
 20
316.2000000190218
 30
-0.0000156124049525
 11
15.00000253157076
 21
316.200000019021
 31
-0.0000156124063624
  0
LINE
  5
273
330
1F
100
AcDbEntity
  8
0
100
AcDbLine
 10
15.00000253157022
 20
313.7000000190205
 30
-0.0000156119790134
 11
17.00000253157055
 21
313.7000000190197
 31
-0.0000156119772764
  0
LINE
  5
274
330
1F
100
AcDbEntity
  8
0
100
AcDbLine
 10
15.00000253157033
 20
310.7000000190205
 30
-0.0000156114665522
 11
17.00000253157039
 21
310.7000000190195
 31
-0.0000156114651084
  0
LINE
  5
275
330
1F
100
AcDbEntity
  8
0
100
AcDbLine
 10
17.0000025315704
 20
54.50000001877412
 30
-0.0000155677532845
 11
17.00000253157055
 21
57.50000001877458
 31
-0.0000155682653679
  0
LINE
  5
276
330
1F
100
AcDbEntity
  8
0
100
AcDbLine
 10
15.00000253157033
 20
438.8000000189397
 30
-0.0000156333228096
 11
15.00000253156979
 21
436.3000000189399
 31
-0.000015632895438
  0
LINE
  5
277
330
1F
100
AcDbEntity
  8
0
100
AcDbLine
 10
17.0000025315704
 20
438.8000000189386
 30
-0.0000156333215011
 11
17.00000253157055
 21
441.8000000189392
 31
-0.0000156338335619
  0
LINE
  5
278
330
1F
100
AcDbEntity
  8
0
100
AcDbLine
 10
12.00000253157021
 20
444.300000018941
 30
-0.0000156342609673
 11
15.00000253157076
 21
444.3000000189394
 31
-0.0000156342624788
  0
LINE
  5
279
330
1F
100
AcDbEntity
  8
0
100
AcDbLine
 10
6.000002531519005
 20
460.3000000191005
 30
-0.0000156369863747
 11
6.000002531570295
 21
441.8000000189426
 31
-0.0000156338353103
  0
LINE
  5
27A
330
1F
100
AcDbEntity
  8
0
100
AcDbLine
 10
12.00000253156976
 20
441.8000000189419
 30
-0.000015633833889
 11
12.00000253157021
 21
444.300000018941
 31
-0.0000156342609673
  0
LINE
  5
27B
330
1F
100
AcDbEntity
  8
0
100
AcDbLine
 10
6.000002531519005
 20
410.3000000190208
 30
-0.0000156284554234
 11
0.0000000000000078
 21
410.3000000190218
 31
-0.0000156784439991
  0
LINE
  5
27C
330
1F
100
AcDbEntity
  8
0
100
AcDbLine
 10
0.0000000000023533
 20
470.3000000190203
 30
-0.0000156886811204
 11
0.0000000000000078
 21
460.3000000191014
 31
-0.0000156869750069
  0
LINE
  5
27D
330
1F
100
AcDbEntity
  8
0
100
AcDbLine
 10
12.00000253156978
 20
436.3000000189414
 30
-0.0000156328943439
 11
15.00000253156979
 21
436.3000000189399
 31
-0.000015632895438
  0
LINE
  5
27E
330
1F
100
AcDbEntity
  8
0
100
AcDbLine
 10
6.000002531567554
 20
470.3000000190192
 30
-0.0000156386940562
 11
0.0000000000023533
 21
470.3000000190203
 31
-0.0000156886811204
  0
LINE
  5
27F
330
1F
100
AcDbEntity
  8
0
100
AcDbLine
 10
15.00000253157033
 20
438.8000000189397
 30
-0.0000156333228096
 11
17.0000025315704
 21
438.8000000189386
 31
-0.0000156333215011
  0
LINE
  5
280
330
1F
100
AcDbEntity
  8
0
100
AcDbLine
 10
6.000002531570131
 20
438.8000000189422
 30
-0.0000156333230916
 11
12.00000253157023
 21
438.8000000189414
 31
-0.0000156333216252
  0
LINE
  5
281
330
1F
100
AcDbEntity
  8
0
100
AcDbLine
 10
0.0000000000023533
 20
420.3000000189409
 30
-0.0000156801511279
 11
0.0000000000000078
 21
410.3000000190218
 31
-0.0000156784439991
  0
LINE
  5
282
330
1F
100
AcDbEntity
  8
0
100
AcDbLine
 10
6.000002531519005
 20
460.3000000191005
 30
-0.0000156369863747
 11
0.0000000000000078
 21
460.3000000191014
 31
-0.0000156869750069
  0
LINE
  5
283
330
1F
100
AcDbEntity
  8
0
100
AcDbLine
 10
15.00000253157021
 20
441.80000001894
 30
-0.000015633835299
 11
15.00000253157076
 21
444.3000000189394
 31
-0.0000156342624788
  0
LINE
  5
284
330
1F
100
AcDbEntity
  8
0
100
AcDbLine
 10
6.000002531570131
 20
438.8000000189422
 30
-0.0000156333230916
 11
6.000002531567554
 21
420.3000000189398
 31
-0.0000156301640749
  0
LINE
  5
285
330
1F
100
AcDbEntity
  8
0
100
AcDbLine
 10
12.00000253157023
 20
438.8000000189414
 30
-0.0000156333216252
 11
12.00000253156978
 21
436.3000000189414
 31
-0.0000156328943439
  0
LINE
  5
286
330
1F
100
AcDbEntity
  8
0
100
AcDbLine
 10
15.00000253157021
 20
441.80000001894
 30
-0.000015633835299
 11
17.00000253157055
 21
441.8000000189392
 31
-0.0000156338335619
  0
LINE
  5
287
330
1F
100
AcDbEntity
  8
0
100
AcDbLine
 10
12.00000253156976
 20
441.8000000189419
 30
-0.000015633833889
 11
6.000002531570295
 21
441.8000000189426
 31
-0.0000156338353103
  0
LINE
  5
288
330
1F
100
AcDbEntity
  8
0
100
AcDbLine
 10
6.000002531567554
 20
420.3000000189398
 30
-0.0000156301640749
 11
0.0000000000023533
 21
420.3000000189409
 31
-0.0000156801511279
  0
LINE
  5
289
330
1F
100
AcDbEntity
  8
0
100
AcDbLine
 10
6.000002531519005
 20
410.3000000190208
 30
-0.0000156284554234
 11
6.000002531567546
 21
342.2000000191006
 31
-0.0000156168386335
  0
LINE
  5
28A
330
1F
100
AcDbEntity
  8
0
100
AcDbLine
 10
294.0000001522952
 20
332.2000015662554
 30
-0.0000000379098253
 11
300.0000000032745
 21
332.2000000191784
 31
-0.0000006664129232
  0
LINE
  5
28B
330
1F
100
AcDbEntity
  8
0
100
AcDbLine
 10
299.9999997347103
 20
292.2000000191798
 30
-0.0000006595820169
 11
299.999999734711
 21
282.2000000191799
 31
-0.0000006578743636
  0
LINE
  5
28C
330
1F
100
AcDbEntity
  8
0
100
AcDbLine
 10
288.0000001522978
 20
310.700001566255
 30
-0.0000000342364806
 11
288.000000152298
 21
308.2000015662546
 31
-0.0000000338096448
  0
LINE
  5
28D
330
1F
100
AcDbEntity
  8
0
100
AcDbLine
 10
285.0000001522968
 20
310.7000015662552
 30
-0.000000034237789
 11
285.0000001522968
 21
308.2000015662547
 31
-0.0000000338111055
  0
LINE
  5
28E
330
1F
100
AcDbEntity
  8
0
100
AcDbLine
 10
294.0000001523421
 20
342.2000015661745
 30
-0.000000039617033
 11
300.0000000032752
 21
342.200000019098
 31
-0.0000006681216086
  0
LINE
  5
28F
330
1F
100
AcDbEntity
  8
0
100
AcDbLine
 10
294.0000001522996
 20
282.2000015662559
 30
-0.0000000293736288
 11
299.999999734711
 21
282.2000000191799
 31
-0.0000006578743636
  0
LINE
  5
290
330
1F
100
AcDbEntity
  8
0
100
AcDbLine
 10
294.0000001522993
 20
292.2000015662559
 30
-0.0000000310781125
 11
299.9999997347103
 21
292.2000000191798
 31
-0.0000006595820169
  0
LINE
  5
291
330
1F
100
AcDbEntity
  8
0
100
AcDbLine
 10
285.0000001522968
 20
313.7000015662553
 30
-0.0000000347498385
 11
285.0000001522968
 21
316.2000015662555
 31
-0.0000000351767758
  0
LINE
  5
292
330
1F
100
AcDbEntity
  8
0
100
AcDbLine
 10
294.0000001522993
 20
292.2000015662559
 30
-0.0000000310781125
 11
294.0000001522973
 21
310.7000015662558
 31
-0.0000000342378962
  0
LINE
  5
293
330
1F
100
AcDbEntity
  8
0
100
AcDbLine
 10
294.0000001522969
 20
313.7000015662556
 30
-0.0000000347500923
 11
288.0000001522968
 21
313.7000015662547
 31
-0.0000000347486824
  0
LINE
  5
294
330
1F
100
AcDbEntity
  8
0
100
AcDbLine
 10
300.0000000032745
 20
332.2000000191784
 30
-0.0000006664129232
 11
300.0000000032752
 21
342.200000019098
 31
-0.0000006681216086
  0
LINE
  5
295
330
1F
100
AcDbEntity
  8
0
100
AcDbLine
 10
285.0000001522968
 20
310.7000015662552
 30
-0.000000034237789
 11
283.0000001522973
 21
310.7000015662558
 31
-0.0000000342336662
  0
LINE
  5
296
330
1F
100
AcDbEntity
  8
0
100
AcDbLine
 10
294.0000001522969
 20
313.7000015662556
 30
-0.0000000347500923
 11
294.0000001522952
 21
332.2000015662554
 31
-0.0000000379098253
  0
LINE
  5
297
330
1F
100
AcDbEntity
  8
0
100
AcDbLine
 10
294.0000001522973
 20
310.7000015662558
 30
-0.0000000342378962
 11
288.0000001522978
 21
310.700001566255
 31
-0.0000000342364806
  0
LINE
  5
298
330
1F
100
AcDbEntity
  8
0
100
AcDbLine
 10
288.000000152298
 20
308.2000015662546
 30
-0.0000000338096448
 11
285.0000001522968
 21
308.2000015662547
 31
-0.0000000338111055
  0
LINE
  5
299
330
1F
100
AcDbEntity
  8
0
100
AcDbLine
 10
283.000000152297
 20
313.7000015662559
 30
-0.000000034746088
 11
283.0000001522973
 21
310.7000015662558
 31
-0.0000000342336662
  0
LINE
  5
29A
330
1F
100
AcDbEntity
  8
0
100
AcDbLine
 10
285.0000001522968
 20
313.7000015662553
 30
-0.0000000347498385
 11
283.000000152297
 21
313.7000015662559
 31
-0.000000034746088
  0
LINE
  5
29B
330
1F
100
AcDbEntity
  8
0
100
AcDbLine
 10
288.0000001522968
 20
316.2000015662553
 30
-0.0000000351756309
 11
285.0000001522968
 21
316.2000015662555
 31
-0.0000000351767758
  0
LINE
  5
29C
330
1F
100
AcDbEntity
  8
0
100
AcDbLine
 10
288.0000001522968
 20
313.7000015662547
 30
-0.0000000347486824
 11
288.0000001522968
 21
316.2000015662553
 31
-0.0000000351756309
  0
LINE
  5
29D
330
1F
100
AcDbEntity
  8
0
100
AcDbLine
 10
270.5000046246105
 20
457.8394625992007
 30
-0.0000034242708622
 11
270.7300046244475
 21
471.8394625992027
 31
-0.0000034266591482
  0
ENDSEC
  0
SECTION
  2
OBJECTS
  0
DICTIONARY
  5
C
330
0
100
AcDbDictionary
  3
ACAD_GROUP
350
D
  3
ACAD_LAYOUT
350
1A
  3
ACAD_MATERIAL
350
43
  3
ACAD_MLEADERSTYLE
350
2C0
  3
ACAD_MLINESTYLE
350
17
  3
ACAD_PLOTSETTINGS
350
19
  3
ACAD_SCALELIST
350
47
  3
ACAD_VISUALSTYLE
350
2A
  3
ACDBHEADERROUNDTRIPXREC
350
29E
  3
ACDBVARIABLEDICTIONARY
350
2BE
  0
DICTIONARY
  5
2C5
330
8
100
AcDbDictionary
280
     1
  3
ACAD_XREC_ROUNDTRIP
360
2C6
  0
DICTIONARY
  5
D
102
{ACAD_REACTORS
330
C
102
}
330
C
100
AcDbDictionary
  0
DICTIONARY
  5
1A
102
{ACAD_REACTORS
330
C
102
}
330
C
100
AcDbDictionary
  0
DICTIONARY
  5
43
102
{ACAD_REACTORS
330
C
102
}
330
C
100
AcDbDictionary
  3
BYBLOCK
350
45
  3
BYLAYER
350
44
  3
GLOBAL
350
46
  0
DICTIONARY
  5
2C0
102
{ACAD_REACTORS
330
C
102
}
330
C
100
AcDbDictionary
  0
DICTIONARY
  5
17
102
{ACAD_REACTORS
330
C
102
}
330
C
100
AcDbDictionary
  3
STANDARD
350
18
  0
DICTIONARY
  5
19
102
{ACAD_REACTORS
330
C
102
}
330
C
100
AcDbDictionary
  0
DICTIONARY
  5
47
102
{ACAD_REACTORS
330
C
102
}
330
C
100
AcDbDictionary
  3
A0
350
48
  3
A1
350
49
  3
A2
350
4A
  3
A3
350
4B
  3
A4
350
4C
  3
A5
350
4D
  3
A6
350
4E
  3
A7
350
4F
  3
A8
350
50
  3
A9
350
51
  3
B0
350
52
  3
B1
350
53
  3
B2
350
54
  3
B3
350
55
  3
B4
350
56
  3
B5
350
57
  3
B6
350
58
  3
B7
350
59
  3
B8
350
5A
  3
B9
350
5B
  3
C0
350
5C
  3
C1
350
5D
  3
C2
350
5E
  3
C3
350
5F
  3
C4
350
60
  3
C5
350
61
  3
C6
350
62
  3
C7
350
63
  3
C8
350
64
  3
C9
350
65
  3
D0
350
66
  3
D1
350
67
  3
D2
350
68
  0
DICTIONARY
  5
2A
102
{ACAD_REACTORS
330
C
102
}
330
C
100
AcDbDictionary
  3
2DWIREFRAME
350
2F
  3
BASIC
350
32
  3
BRIGHTEN
350
36
  3
COLORCHANGE
350
3A
  3
CONCEPTUAL
350
34
  3
DIM
350
35
  3
EDGECOLOROFF
350
3D
  3
FACEPATTERN
350
39
  3
FLAT
350
2B
  3
FLATWITHEDGES
350
2C
  3
GOURAUD
350
2D
  3
GOURAUDWITHEDGES
350
2E
  3
HIDDEN
350
31
  3
JITTEROFF
350
3B
  3
LINEPATTERN
350
38
  3
OVERHANGOFF
350
3C
  3
REALISTIC
350
33
  3
SHADED
350
42
  3
SHADED_WITH_EDGES
350
41
  3
SHADES_OF_GRAY
350
3E
  3
SKETCHY
350
3F
  3
THICKEN
350
37
  3
WIREFRAME
350
30
  3
X-RAY
350
40
  0
DICTIONARY
  5
29E
102
{ACAD_REACTORS
330
C
102
}
330
C
100
AcDbDictionary
  3
CEPSNTYPE
350
2A7
  3
DIMSTYLEDATA
350
2BD
  3
FINGERPRINTGUID
350
2A8
  3
HYPERLINKBASE
350
2A1
  3
INSUNITS
350
2A6
  3
LAYOUTDICT
350
2A3
  3
LWETCUNION
350
2A5
  3
PLOTSETDICT
350
2A4
  3
PSVPSCALE
350
2AA
  3
PUCSBASE
350
2AD
  3
PUCSORGBACK
350
2B3
  3
PUCSORGBOTTOM
350
2AF
  3
PUCSORGFRONT
350
2B2
  3
PUCSORGLEFT
350
2B0
  3
PUCSORGRIGHT
350
2B1
  3
PUCSORGTOP
350
2AE
  3
PUCSORTHOREF
350
2AB
  3
PUCSORTHOVIEW
350
2AC
  3
STYLESHEET
350
2A2
  3
TSTACKALIGN
350
29F
  3
TSTACKSIZE
350
2A0
  3
UCSBASE
350
2B6
  3
UCSORGBACK
350
2BC
  3
UCSORGBOTTOM
350
2B8
  3
UCSORGFRONT
350
2BB
  3
UCSORGLEFT
350
2B9
  3
UCSORGRIGHT
350
2BA
  3
UCSORGTOP
350
2B7
  3
UCSORTHOREF
350
2B4
  3
UCSORTHOVIEW
350
2B5
  3
VERSIONGUID
350
2A9
  0
DICTIONARY
  5
2BE
102
{ACAD_REACTORS
330
C
102
}
330
C
100
AcDbDictionary
  3
CANNOSCALE
350
2C7
  3
DIMASSOC
350
2C3
  3
HIDETEXT
350
2C4
  3
MSLTSCALE
350
2C8
  0
XRECORD
  5
2C6
102
{ACAD_REACTORS
330
2C5
102
}
330
2C5
100
AcDbXrecord
102
VTR_0.000_0.000_1.000_1.000_GRIDDISPLAY
 70
     3
102
VTR_0.000_0.000_1.000_1.000_GRIDMAJOR
 70
     5
102
VTR_0.000_0.000_1.000_1.000_DEFAULTLIGHTING
280
     1
102
VTR_0.000_0.000_1.000_1.000_DEFAULTLIGHTINGTYPE
 70
     1
102
VTR_0.000_0.000_1.000_1.000_BRIGHTNESS
141
0.0
102
VTR_0.000_0.000_1.000_1.000_CONTRAST
142
0.0
  0
MATERIAL
  5
45
102
{ACAD_REACTORS
330
43
102
}
102
{ACAD_XDICTIONARY
360
2CB
102
}
330
43
100
AcDbMaterial
  1
BYBLOCK
  0
MATERIAL
  5
44
102
{ACAD_REACTORS
330
43
102
}
102
{ACAD_XDICTIONARY
360
2C9
102
}
330
43
100
AcDbMaterial
  1
BYLAYER
  0
MATERIAL
  5
46
102
{ACAD_REACTORS
330
43
102
}
102
{ACAD_XDICTIONARY
360
2CD
102
}
330
43
100
AcDbMaterial
  1
GLOBAL
  0
MLINESTYLE
  5
18
102
{ACAD_REACTORS
330
17
102
}
330
17
100
AcDbMlineStyle
  2
Standard
 70
     0
  3

 62
   256
 51
90.0
 52
90.0
 71
     2
 49
0.5
 62
   256
  6
BYLAYER
 49
-0.5
 62
   256
  6
BYLAYER
  0
ACAD_PROXY_OBJECT
  5
48
102
{ACAD_REACTORS
330
47
102
}
330
47
100
AcDbProxyObject
 90
      499
 91
      503
 93
       41
310
903313A31580
  0
ACAD_PROXY_OBJECT
  5
49
102
{ACAD_REACTORS
330
47
102
}
330
47
100
AcDbProxyObject
 90
      499
 91
      503
 93
      105
310
903313A324000000000000004000
  0
ACAD_PROXY_OBJECT
  5
4A
102
{ACAD_REACTORS
330
47
102
}
330
47
100
AcDbProxyObject
 90
      499
 91
      503
 93
      105
310
903313A344000000000000104000
  0
ACAD_PROXY_OBJECT
  5
4B
102
{ACAD_REACTORS
330
47
102
}
330
47
100
AcDbProxyObject
 90
      499
 91
      503
 93
      105
310
903313A354000000000000144000
  0
ACAD_PROXY_OBJECT
  5
4C
102
{ACAD_REACTORS
330
47
102
}
330
47
100
AcDbProxyObject
 90
      499
 91
      503
 93
      105
310
903313A384000000000000204000
  0
ACAD_PROXY_OBJECT
  5
4D
102
{ACAD_REACTORS
330
47
102
}
330
47
100
AcDbProxyObject
 90
      499
 91
      503
 93
      113
310
904313A31304000000000000244000
  0
ACAD_PROXY_OBJECT
  5
4E
102
{ACAD_REACTORS
330
47
102
}
330
47
100
AcDbProxyObject
 90
      499
 91
      503
 93
      113
310
904313A31364000000000000304000
  0
ACAD_PROXY_OBJECT
  5
4F
102
{ACAD_REACTORS
330
47
102
}
330
47
100
AcDbProxyObject
 90
      499
 91
      503
 93
      113
310
904313A32304000000000000344000
  0
ACAD_PROXY_OBJECT
  5
50
102
{ACAD_REACTORS
330
47
102
}
330
47
100
AcDbProxyObject
 90
      499
 91
      503
 93
      113
310
904313A333040000000000003E4000
  0
ACAD_PROXY_OBJECT
  5
51
102
{ACAD_REACTORS
330
47
102
}
330
47
100
AcDbProxyObject
 90
      499
 91
      503
 93
      113
310
904313A34304000000000000444000
  0
ACAD_PROXY_OBJECT
  5
52
102
{ACAD_REACTORS
330
47
102
}
330
47
100
AcDbProxyObject
 90
      499
 91
      503
 93
      113
310
904313A35304000000000000494000
  0
ACAD_PROXY_OBJECT
  5
53
102
{ACAD_REACTORS
330
47
102
}
330
47
100
AcDbProxyObject
 90
      499
 91
      503
 93
      121
310
905313A3130304000000000000594000
  0
ACAD_PROXY_OBJECT
  5
54
102
{ACAD_REACTORS
330
47
102
}
330
47
100
AcDbProxyObject
 90
      499
 91
      503
 93
      105
310
903323A310000000000000010100
  0
ACAD_PROXY_OBJECT
  5
55
102
{ACAD_REACTORS
330
47
102
}
330
47
100
AcDbProxyObject
 90
      499
 91
      503
 93
      105
310
903343A310000000000000410100
  0
ACAD_PROXY_OBJECT
  5
56
102
{ACAD_REACTORS
330
47
102
}
330
47
100
AcDbProxyObject
 90
      499
 91
      503
 93
      105
310
903383A310000000000000810100
  0
ACAD_PROXY_OBJECT
  5
57
102
{ACAD_REACTORS
330
47
102
}
330
47
100
AcDbProxyObject
 90
      499
 91
      503
 93
      113
310
90431303A310000000000000910100
  0
ACAD_PROXY_OBJECT
  5
58
102
{ACAD_REACTORS
330
47
102
}
330
47
100
AcDbProxyObject
 90
      499
 91
      503
 93
      121
310
9053130303A310000000000001650100
  0
ACAD_PROXY_OBJECT
  5
59
102
{ACAD_REACTORS
330
47
102
}
330
47
100
AcDbProxyObject
 90
      499
 91
      503
 93
      257
310
90E312F31323822203D2031272D3022000000000000200FC000000000000284000
  0
ACAD_PROXY_OBJECT
  5
5A
102
{ACAD_REACTORS
330
47
102
}
330
47
100
AcDbProxyObject
 90
      499
 91
      503
 93
      249
310
90D312F363422203D2031272D3022000000000000240FC000000000000284000
  0
ACAD_PROXY_OBJECT
  5
5B
102
{ACAD_REACTORS
330
47
102
}
330
47
100
AcDbProxyObject
 90
      499
 91
      503
 93
      249
310
90D312F333222203D2031272D3022000000000000280FC000000000000284000
  0
ACAD_PROXY_OBJECT
  5
5C
102
{ACAD_REACTORS
330
47
102
}
330
47
100
AcDbProxyObject
 90
      499
 91
      503
 93
      249
310
90D312F313622203D2031272D30220000000000002C0FC000000000000284000
  0
ACAD_PROXY_OBJECT
  5
5D
102
{ACAD_REACTORS
330
47
102
}
330
47
100
AcDbProxyObject
 90
      499
 91
      503
 93
      249
310
90D332F333222203D2031272D30220000000000002E0FC000000000000284000
  0
ACAD_PROXY_OBJECT
  5
5E
102
{ACAD_REACTORS
330
47
102
}
330
47
100
AcDbProxyObject
 90
      499
 91
      503
 93
      241
310
90C312F3822203D2031272D3022000000000000300FC000000000000284000
  0
ACAD_PROXY_OBJECT
  5
5F
102
{ACAD_REACTORS
330
47
102
}
330
47
100
AcDbProxyObject
 90
      499
 91
      503
 93
      249
310
90D332F313622203D2031272D3022000000000000320FC000000000000284000
  0
ACAD_PROXY_OBJECT
  5
60
102
{ACAD_REACTORS
330
47
102
}
330
47
100
AcDbProxyObject
 90
      499
 91
      503
 93
      241
310
90C312F3422203D2031272D3022000000000000340FC000000000000284000
  0
ACAD_PROXY_OBJECT
  5
61
102
{ACAD_REACTORS
330
47
102
}
330
47
100
AcDbProxyObject
 90
      499
 91
      503
 93
      241
310
90C332F3822203D2031272D3022000000000000360FC000000000000284000
  0
ACAD_PROXY_OBJECT
  5
62
102
{ACAD_REACTORS
330
47
102
}
330
47
100
AcDbProxyObject
 90
      499
 91
      503
 93
      241
310
90C312F3222203D2031272D3022000000000000380FC000000000000284000
  0
ACAD_PROXY_OBJECT
  5
63
102
{ACAD_REACTORS
330
47
102
}
330
47
100
AcDbProxyObject
 90
      499
 91
      503
 93
      241
310
90C332F3422203D2031272D30220000000000003A0FC000000000000284000
  0
ACAD_PROXY_OBJECT
  5
64
102
{ACAD_REACTORS
330
47
102
}
330
47
100
AcDbProxyObject
 90
      499
 91
      503
 93
      161
310
90A3122203D2031272D30224000000000000284000
  0
ACAD_PROXY_OBJECT
  5
65
102
{ACAD_REACTORS
330
47
102
}
330
47
100
AcDbProxyObject
 90
      499
 91
      503
 93
      257
310
90E312D312F3222203D2031272D30220000000000003E0FC000000000000284000
  0
ACAD_PROXY_OBJECT
  5
66
102
{ACAD_REACTORS
330
47
102
}
330
47
100
AcDbProxyObject
 90
      499
 91
      503
 93
      225
310
90A3322203D2031272D302200000000000002100000000000000284000
  0
ACAD_PROXY_OBJECT
  5
67
102
{ACAD_REACTORS
330
47
102
}
330
47
100
AcDbProxyObject
 90
      499
 91
      503
 93
      225
310
90A3622203D2031272D302200000000000006100000000000000284000
  0
ACAD_PROXY_OBJECT
  5
68
102
{ACAD_REACTORS
330
47
102
}
330
47
100
AcDbProxyObject
 90
      499
 91
      503
 93
      249
310
90D31272D3022203D2031272D30220000000000000A100000000000000284000
  0
ACAD_PROXY_OBJECT
  5
2F
102
{ACAD_REACTORS
330
2A
102
}
330
2A
100
AcDbProxyObject
 90
      499
 91
      501
 93
      436
310
42CC9915DA5C99599C985B595049028333333333333E33F0000000000000F90107901411070040501600405405064090741402480A0340
1001
ACAD
1000
AcDbSavedByObjectVersion
1070
     0
  0
ACAD_PROXY_OBJECT
  5
32
102
{ACAD_REACTORS
330
2A
102
}
330
2A
100
AcDbProxyObject
 90
      499
 91
      501
 93
      388
310
4150985CDA58D07406404333333333333E33F0000000000000F90107A41107004050150841D405064090741402480A0350
1001
ACAD
1000
AcDbSavedByObjectVersion
1070
     0
  0
ACAD_PROXY_OBJECT
  5
36
102
{ACAD_REACTORS
330
2A
102
}
330
2A
100
AcDbProxyObject
 90
      499
 91
      501
 93
      428
310
42109C9A59DA1D195B90C409028333333333333E33F0000000000000F9010790141107004050150841D405064090741402480A029950
1001
ACAD
1000
AcDbSavedByObjectVersion
1070
     0
  0
ACAD_PROXY_OBJECT
  5
3A
102
{ACAD_REACTORS
330
2A
102
}
330
2A
100
AcDbProxyObject
 90
      499
 91
      501
 93
      452
310
42D0DBDB1BDC90DA185B99D95104090240C333333333333E33F0000000000000F90108901411070040501508421405064090741402480A0350
1001
ACAD
1000
AcDbSavedByObjectVersion
1070
     0
  0
ACAD_PROXY_OBJECT
  5
34
102
{ACAD_REACTORS
330
2A
102
}
330
2A
100
AcDbProxyObject
 90
      499
 91
      501
 93
      500
310
4290DBDB98D95C1D1D585B10940D028333333333333E33F0000000000000F90107902409070040501000000000018199010841D405064090740C02480A0340
1001
ACAD
1000
AcDbSavedByObjectVersion
1070
     0
  0
ACAD_PROXY_OBJECT
  5
35
102
{ACAD_REACTORS
330
2A
102
}
330
2A
100
AcDbProxyObject
 90
      499
 91
      501
 93
      412
310
40D11A5B50B409028333333333333E33F0000000000000F9010790141107004050150841D405064090741402480A02677FFFFFD0
1001
ACAD
1000
AcDbSavedByObjectVersion
1070
     0
  0
ACAD_PROXY_OBJECT
  5
3D
102
{ACAD_REACTORS
330
2A
102
}
330
2A
100
AcDbProxyObject
 90
      499
 91
      501
 93
      452
310
43115919D950DBDB1BDC93D999916409028333333333333E33F0000000000000F9010790141107004050150841D405064090741402480A0350
1001
ACAD
1000
AcDbSavedByObjectVersion
1070
     0
  0
ACAD_PROXY_OBJECT
  5
39
102
{ACAD_REACTORS
330
2A
102
}
330
2A
100
AcDbProxyObject
 90
      499
 91
      501
 93
      444
310
42D19858D95C185D1D195C9B90F409028333333333333E33F0000000000000F9010790141107004050150841D405064090741402480A0350
1001
ACAD
1000
AcDbSavedByObjectVersion
1070
     0
  0
ACAD_PROXY_OBJECT
  5
2B
102
{ACAD_REACTORS
330
2A
102
}
330
2A
100
AcDbProxyObject
 90
      499
 91
      501
 93
      380
310
41119B185D240901404333333333333E33F0000000000000F9010740A907004050150841D405064090741402480A1B50
1001
ACAD
1000
AcDbSavedByObjectVersion
1070
     0
  0
ACAD_PROXY_OBJECT
  5
2C
102
{ACAD_REACTORS
330
2A
102
}
330
2A
100
AcDbProxyObject
 90
      499
 91
      501
 93
      468
310
43519B185D15DA5D1A115919D95CD0140901404333333333333E33F0000000000000F90107409019070040501600405405064090741402480A1B50
1001
ACAD
1000
AcDbSavedByObjectVersion
1070
     0
  0
ACAD_PROXY_OBJECT
  5
2D
102
{ACAD_REACTORS
330
2A
102
}
330
2A
100
AcDbProxyObject
 90
      499
 91
      501
 93
      404
310
41D1DBDD5C985D5910240902404333333333333E33F0000000000000F9010740A9070040501641D405064090741402480A1B50
1001
ACAD
1000
AcDbSavedByObjectVersion
1070
     0
  0
ACAD_PROXY_OBJECT
  5
2E
102
{ACAD_REACTORS
330
2A
102
}
330
2A
100
AcDbProxyObject
 90
      499
 91
      501
 93
      492
310
4411DBDD5C985D5915DA5D1A115919D95CD0340902404333333333333E33F0000000000000F90107409019070040501600405405064090741402480A1B50
1001
ACAD
1000
AcDbSavedByObjectVersion
1070
     0
  0
ACAD_PROXY_OBJECT
  5
31
102
{ACAD_REACTORS
330
2A
102
}
330
2A
100
AcDbProxyObject
 90
      499
 91
      501
 93
      476
310
41921A5919195B90640502408333333333333E33F0000000000000F901079024090700405020000000000001110200405405064090740C02480A0340
1001
ACAD
1000
AcDbSavedByObjectVersion
1070
     0
  0
ACAD_PROXY_OBJECT
  5
3B
102
{ACAD_REACTORS
330
2A
102
}
330
2A
100
AcDbProxyObject
 90
      499
 91
      501
 93
      428
310
42529A5D1D195C93D999914409028333333333333E33F0000000000000F9010790141107004050150A41D405064090741402480A0350
1001
ACAD
1000
AcDbSavedByObjectVersion
1070
     0
  0
ACAD_PROXY_OBJECT
  5
38
102
{ACAD_REACTORS
330
2A
102
}
330
2A
100
AcDbProxyObject
 90
      499
 91
      501
 93
      444
310
42D31A5B995C185D1D195C9B90E409028333333333333E33F0000000000000F9010790141107004050750841D405064090741402483A0350
1001
ACAD
1000
AcDbSavedByObjectVersion
1070
     0
  0
ACAD_PROXY_OBJECT
  5
3C
102
{ACAD_REACTORS
330
2A
102
}
330
2A
100
AcDbProxyObject
 90
      499
 91
      501
 93
      444
310
42D3DD995C9A185B99D3D999915409028333333333333E33F0000000000000F9010790141107004050150941D405064090741402480A0350
1001
ACAD
1000
AcDbSavedByObjectVersion
1070
     0
  0
ACAD_PROXY_OBJECT
  5
33
102
{ACAD_REACTORS
330
2A
102
}
330
2A
100
AcDbProxyObject
 90
      499
 91
      501
 93
      428
310
425499585B1A5CDD1A58D08409038333333333333E33F0000000000000F9010740A907004050150800405405064090740C02480A1B40
1001
ACAD
1000
AcDbSavedByObjectVersion
1070
     0
  0
ACAD_PROXY_OBJECT
  5
42
102
{ACAD_REACTORS
330
2A
102
}
330
2A
100
AcDbProxyObject
 90
      499
 91
      501
 93
      420
310
4194DA1859195911B40902404333333333333E33F0000000000000F9010740A41107004050150800405405064090840C02480A0B40
1001
ACAD
1000
AcDbSavedByObjectVersion
1070
     0
  0
ACAD_PROXY_OBJECT
  5
41
102
{ACAD_REACTORS
330
2A
102
}
330
2A
100
AcDbProxyObject
 90
      499
 91
      501
 93
      516
310
4454DA18591959081DDA5D1A08195919D95CD1A40902404333333333333E33F0000000000000F901074090142907004050250800405405064090740C02480A0B40
1001
ACAD
1000
AcDbSavedByObjectVersion
1070
     0
  0
ACAD_PROXY_OBJECT
  5
3E
102
{ACAD_REACTORS
330
2A
102
}
330
2A
100
AcDbProxyObject
 90
      499
 91
      501
 93
      532
310
4394DA1859195CC81BD98811DC985E5174090240C333333333333E33F0000000000000F901079024090741D01000000000000111010841D405064090740C02480A0340
1001
ACAD
1000
AcDbSavedByObjectVersion
1070
     0
  0
ACAD_PROXY_OBJECT
  5
3F
102
{ACAD_REACTORS
330
2A
102
}
330
2A
100
AcDbProxyObject
 90
      499
 91
      501
 93
      476
310
41D4DAD95D18DA1E51840502408333333333333E33F0000000000000F901079024090741D01000000000000111010B41D405064090741802480A0340
1001
ACAD
1000
AcDbSavedByObjectVersion
1070
     0
  0
ACAD_PROXY_OBJECT
  5
37
102
{ACAD_REACTORS
330
2A
102
}
330
2A
100
AcDbProxyObject
 90
      499
 91
      501
 93
      412
310
41D51A1A58DAD95B90D409028333333333333E33F0000000000000F9010790141107004050150C41D405064090741402480A0350
1001
ACAD
1000
AcDbSavedByObjectVersion
1070
     0
  0
ACAD_PROXY_OBJECT
  5
30
102
{ACAD_REACTORS
330
2A
102
}
330
2A
100
AcDbProxyObject
 90
      499
 91
      501
 93
      420
310
4255DA5C99599C985B595059028333333333333E33F0000000000000F90107901411070040501600405405064090740C02480A0340
1001
ACAD
1000
AcDbSavedByObjectVersion
1070
     0
  0
ACAD_PROXY_OBJECT
  5
40
102
{ACAD_REACTORS
330
2A
102
}
330
2A
100
AcDbProxyObject
 90
      499
 91
      501
 93
      404
310
41560B54985E51940902404000000000000E03F0000000000000F9010740501907004050150841D405064090740C02480A1B40
1001
ACAD
1000
AcDbSavedByObjectVersion
1070
     0
  0
XRECORD
  5
2A7
102
{ACAD_REACTORS
330
29E
102
}
330
29E
100
AcDbXrecord
 90
        0
  0
XRECORD
  5
2BD
102
{ACAD_REACTORS
330
29E
102
}
330
29E
100
AcDbXrecord
1000
DSTYLE
1002
{
1070
   171
 70
     2
1070
   143
 40
25.4
1070
   274
 70
     2
1070
    41
 40
0.18
1070
   141
 40
0.09
1070
   271
 70
     4
1070
    43
 40
0.38
1070
   278
 70
    46
1070
    44
 40
0.18
1070
    42
 40
0.0625
1070
   147
 40
0.09
1070
    77
 70
     0
1070
   272
 70
     4
1070
    73
 70
     1
1070
   172
 70
     0
1070
    74
 70
     1
1070
   283
 70
     1
1070
   340
340
11
1070
   140
 40
0.18
1070
   284
 70
     0
1070
    78
 70
     0
1002
}
  0
XRECORD
  5
2A8
102
{ACAD_REACTORS
330
29E
102
}
330
29E
100
AcDbXrecord
  1
{B7C0084F-FEEA-4D19-BAC4-BE8625070B38}
  0
XRECORD
  5
2A1
102
{ACAD_REACTORS
330
29E
102
}
330
29E
100
AcDbXrecord
  1

  0
XRECORD
  5
2A6
102
{ACAD_REACTORS
330
29E
102
}
330
29E
100
AcDbXrecord
 90
        4
  0
XRECORD
  5
2A3
102
{ACAD_REACTORS
330
29E
102
}
330
29E
100
AcDbXrecord
340
1A
  0
XRECORD
  5
2A5
102
{ACAD_REACTORS
330
29E
102
}
330
29E
100
AcDbXrecord
 90
    10781
  0
XRECORD
  5
2A4
102
{ACAD_REACTORS
330
29E
102
}
330
29E
100
AcDbXrecord
340
19
  0
XRECORD
  5
2AA
102
{ACAD_REACTORS
330
29E
102
}
330
29E
100
AcDbXrecord
 40
0.0
  0
XRECORD
  5
2AD
102
{ACAD_REACTORS
330
29E
102
}
330
29E
100
AcDbXrecord
340
0
  0
XRECORD
  5
2B3
102
{ACAD_REACTORS
330
29E
102
}
330
29E
100
AcDbXrecord
 10
0.0
 20
0.0
 30
0.0
  0
XRECORD
  5
2AF
102
{ACAD_REACTORS
330
29E
102
}
330
29E
100
AcDbXrecord
 10
0.0
 20
0.0
 30
0.0
  0
XRECORD
  5
2B2
102
{ACAD_REACTORS
330
29E
102
}
330
29E
100
AcDbXrecord
 10
0.0
 20
0.0
 30
0.0
  0
XRECORD
  5
2B0
102
{ACAD_REACTORS
330
29E
102
}
330
29E
100
AcDbXrecord
 10
0.0
 20
0.0
 30
0.0
  0
XRECORD
  5
2B1
102
{ACAD_REACTORS
330
29E
102
}
330
29E
100
AcDbXrecord
 10
0.0
 20
0.0
 30
0.0
  0
XRECORD
  5
2AE
102
{ACAD_REACTORS
330
29E
102
}
330
29E
100
AcDbXrecord
 10
0.0
 20
0.0
 30
0.0
  0
XRECORD
  5
2AB
102
{ACAD_REACTORS
330
29E
102
}
330
29E
100
AcDbXrecord
340
0
  0
XRECORD
  5
2AC
102
{ACAD_REACTORS
330
29E
102
}
330
29E
100
AcDbXrecord
 70
     0
  0
XRECORD
  5
2A2
102
{ACAD_REACTORS
330
29E
102
}
330
29E
100
AcDbXrecord
  1

  0
XRECORD
  5
29F
102
{ACAD_REACTORS
330
29E
102
}
330
29E
100
AcDbXrecord
 90
        1
  0
XRECORD
  5
2A0
102
{ACAD_REACTORS
330
29E
102
}
330
29E
100
AcDbXrecord
 90
       70
  0
XRECORD
  5
2B6
102
{ACAD_REACTORS
330
29E
102
}
330
29E
100
AcDbXrecord
340
0
  0
XRECORD
  5
2BC
102
{ACAD_REACTORS
330
29E
102
}
330
29E
100
AcDbXrecord
 10
0.0
 20
0.0
 30
0.0
  0
XRECORD
  5
2B8
102
{ACAD_REACTORS
330
29E
102
}
330
29E
100
AcDbXrecord
 10
0.0
 20
0.0
 30
0.0
  0
XRECORD
  5
2BB
102
{ACAD_REACTORS
330
29E
102
}
330
29E
100
AcDbXrecord
 10
0.0
 20
0.0
 30
0.0
  0
XRECORD
  5
2B9
102
{ACAD_REACTORS
330
29E
102
}
330
29E
100
AcDbXrecord
 10
0.0
 20
0.0
 30
0.0
  0
XRECORD
  5
2BA
102
{ACAD_REACTORS
330
29E
102
}
330
29E
100
AcDbXrecord
 10
0.0
 20
0.0
 30
0.0
  0
XRECORD
  5
2B7
102
{ACAD_REACTORS
330
29E
102
}
330
29E
100
AcDbXrecord
 10
0.0
 20
0.0
 30
0.0
  0
XRECORD
  5
2B4
102
{ACAD_REACTORS
330
29E
102
}
330
29E
100
AcDbXrecord
340
0
  0
XRECORD
  5
2B5
102
{ACAD_REACTORS
330
29E
102
}
330
29E
100
AcDbXrecord
 70
     0
  0
XRECORD
  5
2A9
102
{ACAD_REACTORS
330
29E
102
}
330
29E
100
AcDbXrecord
  1
{FAEB1C32-E019-11D5-929B-00C0DF256EC4}
  0
DICTIONARYVAR
  5
2C7
102
{ACAD_REACTORS
330
2BE
102
}
330
2BE
100
DictionaryVariables
280
     0
  1
1:1
  0
DICTIONARYVAR
  5
2C3
102
{ACAD_REACTORS
330
2BE
102
}
330
2BE
100
DictionaryVariables
280
     0
  1
2
  0
DICTIONARYVAR
  5
2C4
102
{ACAD_REACTORS
330
2BE
102
}
330
2BE
100
DictionaryVariables
280
     0
  1
1
  0
DICTIONARYVAR
  5
2C8
102
{ACAD_REACTORS
330
2BE
102
}
330
2BE
100
DictionaryVariables
280
     0
  1
1
  0
DICTIONARY
  5
2CB
330
45
100
AcDbDictionary
280
     1
  3
ACAD_XREC_ROUNDTRIP
360
2CC
  0
DICTIONARY
  5
2C9
330
44
100
AcDbDictionary
280
     1
  3
ACAD_XREC_ROUNDTRIP
360
2CA
  0
DICTIONARY
  5
2CD
330
46
100
AcDbDictionary
280
     1
  3
ACAD_XREC_ROUNDTRIP
360
2CE
  0
XRECORD
  5
2CC
102
{ACAD_REACTORS
330
2CB
102
}
330
2CB
100
AcDbXrecord
102
MATERIAL
148
0.0
149
0.0
149
0.0
 93
        0
 94
      127
282
     0
 72
     1
 77
     1
171
     1
175
     1
179
     1
273
     0
  0
XRECORD
  5
2CA
102
{ACAD_REACTORS
330
2C9
102
}
330
2C9
100
AcDbXrecord
102
MATERIAL
148
0.0
149
0.0
149
0.0
 93
        0
 94
      127
282
     0
 72
     1
 77
     1
171
     1
175
     1
179
     1
273
     0
  0
XRECORD
  5
2CE
102
{ACAD_REACTORS
330
2CD
102
}
330
2CD
100
AcDbXrecord
102
MATERIAL
148
0.0
149
0.0
149
0.0
 93
        0
 94
      127
282
     0
 72
     1
 77
     1
171
     1
175
     1
179
     1
273
     0
  0
ENDSEC
  0
EOF
