  0
SECTION
  2
HEADER
  9
$ACADVER
  1
AC1014
  9
$ACADMAINTVER
 70
     9
  9
$DWGCODEPAGE
  3
ANSI_1252
  9
$INSBASE
 10
0.0
 20
0.0
 30
0.0
  9
$EXTMIN
 10
1.000000000000000E+20
 20
1.000000000000000E+20
 30
1.000000000000000E+20
  9
$EXTMAX
 10
-1.000000000000000E+20
 20
-1.000000000000000E+20
 30
-1.000000000000000E+20
  9
$LIMMIN
 10
0.0
 20
0.0
  9
$LIMMAX
 10
12.0
 20
9.0
  9
$ORTHOMODE
 70
     0
  9
$REGENMODE
 70
     1
  9
$FILLMODE
 70
     1
  9
$QTEXTMODE
 70
     0
  9
$MIRRTEXT
 70
     1
  9
$DRAGMODE
 70
     2
  9
$LTSCALE
 40
1.0
  9
$OSMODE
 70
    37
  9
$ATTMODE
 70
     1
  9
$TEXTSIZE
 40
0.2
  9
$TRACEWID
 40
0.05
  9
$TEXTSTYLE
  7
STANDARD
  9
$CLAYER
  8
0
  9
$CELTYPE
  6
BYLAYER
  9
$CECOLOR
 62
   256
  9
$CELTSCALE
 40
1.0
  9
$DELOBJ
 70
     1
  9
$DISPSILH
 70
     0
  9
$DIMSCALE
 40
1.0
  9
$DIMASZ
 40
0.18
  9
$DIMEXO
 40
0.0625
  9
$DIMDLI
 40
0.38
  9
$DIMRND
 40
0.0
  9
$DIMDLE
 40
0.0
  9
$DIMEXE
 40
0.18
  9
$DIMTP
 40
0.0
  9
$DIMTM
 40
0.0
  9
$DIMTXT
 40
0.18
  9
$DIMCEN
 40
0.09
  9
$DIMTSZ
 40
0.0
  9
$DIMTOL
 70
     0
  9
$DIMLIM
 70
     0
  9
$DIMTIH
 70
     1
  9
$DIMTOH
 70
     1
  9
$DIMSE1
 70
     0
  9
$DIMSE2
 70
     0
  9
$DIMTAD
 70
     0
  9
$DIMZIN
 70
     0
  9
$DIMBLK
  1

  9
$DIMASO
 70
     1
  9
$DIMSHO
 70
     1
  9
$DIMPOST
  1

  9
$DIMAPOST
  1

  9
$DIMALT
 70
     0
  9
$DIMALTD
 70
     2
  9
$DIMALTF
 40
25.4
  9
$DIMLFAC
 40
1.0
  9
$DIMTOFL
 70
     0
  9
$DIMTVP
 40
0.0
  9
$DIMTIX
 70
     0
  9
$DIMSOXD
 70
     0
  9
$DIMSAH
 70
     0
  9
$DIMBLK1
  1

  9
$DIMBLK2
  1

  9
$DIMSTYLE
  2
STANDARD
  9
$DIMCLRD
 70
     0
  9
$DIMCLRE
 70
     0
  9
$DIMCLRT
 70
     0
  9
$DIMTFAC
 40
1.0
  9
$DIMGAP
 40
0.09
  9
$DIMJUST
 70
     0
  9
$DIMSD1
 70
     0
  9
$DIMSD2
 70
     0
  9
$DIMTOLJ
 70
     1
  9
$DIMTZIN
 70
     0
  9
$DIMALTZ
 70
     0
  9
$DIMALTTZ
 70
     0
  9
$DIMFIT
 70
     3
  9
$DIMUPT
 70
     0
  9
$DIMUNIT
 70
     2
  9
$DIMDEC
 70
     4
  9
$DIMTDEC
 70
     4
  9
$DIMALTU
 70
     2
  9
$DIMALTTD
 70
     2
  9
$DIMTXSTY
  7
STANDARD
  9
$DIMAUNIT
 70
     0
  9
$LUNITS
 70
     2
  9
$LUPREC
 70
     4
  9
$SKETCHINC
 40
0.1
  9
$FILLETRAD
 40
0.5
  9
$AUNITS
 70
     0
  9
$AUPREC
 70
     0
  9
$MENU
  1
.
  9
$ELEVATION
 40
0.0
  9
$PELEVATION
 40
0.0
  9
$THICKNESS
 40
0.0
  9
$LIMCHECK
 70
     0
  9
$CHAMFERA
 40
0.0
  9
$CHAMFERB
 40
0.0
  9
$CHAMFERC
 40
0.0
  9
$CHAMFERD
 40
0.0
  9
$SKPOLY
 70
     0
  9
$TDCREATE
 40
2457857.308395845
  9
$TDUPDATE
 40
2457857.308396343
  9
$TDINDWG
 40
0.0000000116
  9
$TDUSRTIMER
 40
0.0000000116
  9
$USRTIMER
 70
     1
  9
$ANGBASE
 50
0.0
  9
$ANGDIR
 70
     0
  9
$PDMODE
 70
     0
  9
$PDSIZE
 40
0.0
  9
$PLINEWID
 40
0.0
  9
$COORDS
 70
     1
  9
$SPLFRAME
 70
     0
  9
$SPLINETYPE
 70
     6
  9
$SPLINESEGS
 70
     8
  9
$ATTDIA
 70
     0
  9
$ATTREQ
 70
     1
  9
$HANDLING
 70
     1
  9
$HANDSEED
  5
374
  9
$SURFTAB1
 70
     6
  9
$SURFTAB2
 70
     6
  9
$SURFTYPE
 70
     6
  9
$SURFU
 70
     6
  9
$SURFV
 70
     6
  9
$UCSNAME
  2

  9
$UCSORG
 10
0.0
 20
0.0
 30
0.0
  9
$UCSXDIR
 10
1.0
 20
0.0
 30
0.0
  9
$UCSYDIR
 10
0.0
 20
1.0
 30
0.0
  9
$PUCSNAME
  2

  9
$PUCSORG
 10
0.0
 20
0.0
 30
0.0
  9
$PUCSXDIR
 10
1.0
 20
0.0
 30
0.0
  9
$PUCSYDIR
 10
0.0
 20
1.0
 30
0.0
  9
$USERI1
 70
     0
  9
$USERI2
 70
     0
  9
$USERI3
 70
     0
  9
$USERI4
 70
     0
  9
$USERI5
 70
     0
  9
$USERR1
 40
0.0
  9
$USERR2
 40
0.0
  9
$USERR3
 40
0.0
  9
$USERR4
 40
0.0
  9
$USERR5
 40
0.0
  9
$WORLDVIEW
 70
     1
  9
$SHADEDGE
 70
     3
  9
$SHADEDIF
 70
    70
  9
$TILEMODE
 70
     1
  9
$MAXACTVP
 70
    64
  9
$PINSBASE
 10
0.0
 20
0.0
 30
0.0
  9
$PLIMCHECK
 70
     0
  9
$PEXTMIN
 10
1.000000000000000E+20
 20
1.000000000000000E+20
 30
1.000000000000000E+20
  9
$PEXTMAX
 10
-1.000000000000000E+20
 20
-1.000000000000000E+20
 30
-1.000000000000000E+20
  9
$PLIMMIN
 10
0.0
 20
0.0
  9
$PLIMMAX
 10
12.0
 20
9.0
  9
$UNITMODE
 70
     0
  9
$VISRETAIN
 70
     1
  9
$PLINEGEN
 70
     0
  9
$PSLTSCALE
 70
     1
  9
$TREEDEPTH
 70
  3020
  9
$PICKSTYLE
 70
     1
  9
$CMLSTYLE
  2
STANDARD
  9
$CMLJUST
 70
     0
  9
$CMLSCALE
 40
1.0
  9
$PROXYGRAPHICS
 70
     1
  9
$MEASUREMENT
 70
     1
  0
ENDSEC
  0
SECTION
  2
CLASSES
  0
CLASS
  1
ACDBDICTIONARYWDFLT
  2
AcDbDictionaryWithDefault
  3
ObjectDBX Classes
 90
        0
280
     0
281
     0
  0
CLASS
  1
VISUALSTYLE
  2
AcDbVisualStyle
  3
ObjectDBX Classes
 90
     4095
280
     0
281
     0
  0
CLASS
  1
MATERIAL
  2
AcDbMaterial
  3
ObjectDBX Classes
 90
     1153
280
     0
281
     0
  0
CLASS
  1
SCALE
  2
AcDbScale
  3
ObjectDBX Classes
 90
     1153
280
     0
281
     0
  0
CLASS
  1
SUN
  2
AcDbSun
  3
SCENEOE
 90
     1153
280
     0
281
     0
  0
CLASS
  1
DICTIONARYVAR
  2
AcDbDictionaryVar
  3
ObjectDBX Classes
 90
        0
280
     0
281
     0
  0
CLASS
  1
XRECORD
  2
AcDbXrecord
  3
ObjectDBX Classes
 90
        0
280
     0
281
     0
  0
CLASS
  1
LWPOLYLINE
  2
AcDbPolyline
  3
ObjectDBX Classes
 90
        0
280
     0
281
     1
  0
CLASS
  1
HATCH
  2
AcDbHatch
  3
ObjectDBX Classes
 90
        0
280
     0
281
     1
  0
CLASS
  1
ACDBPLACEHOLDER
  2
AcDbPlaceHolder
  3
ObjectDBX Classes
 90
        0
280
     0
281
     0
  0
CLASS
  1
LAYOUT
  2
AcDbLayout
  3
ObjectDBX Classes
 90
        0
280
     0
281
     0
  0
ENDSEC
  0
SECTION
  2
TABLES
  0
TABLE
  2
VPORT
  5
8
102
{ACAD_XDICTIONARY
360
36A
102
}
330
0
100
AcDbSymbolTable
 70
     1
  0
VPORT
  5
29
330
8
100
AcDbSymbolTableRecord
100
AcDbViewportTableRecord
  2
*ACTIVE
 70
     0
 10
0.0
 20
0.0
 11
1.0
 21
1.0
 12
0.0
 22
0.0
 13
0.0
 23
0.0
 14
0.5
 24
0.5
 15
0.5
 25
0.5
 16
0.0
 26
0.0
 36
1.0
 17
0.0
 27
0.0
 37
-1000.0
 40
511.8947365713012
 41
1.462365591397849
 42
50.0
 43
719.155208253489
 44
906.907477699022
 50
0.0
 51
0.0
 71
     0
 72
   100
 73
     1
 74
     3
 75
     0
 76
     0
 77
     0
 78
     0
  0
ENDTAB
  0
TABLE
  2
LTYPE
  5
5
330
0
100
AcDbSymbolTable
 70
     1
  0
LTYPE
  5
14
330
5
100
AcDbSymbolTableRecord
100
AcDbLinetypeTableRecord
  2
BYBLOCK
 70
     0
  3

 72
    65
 73
     0
 40
0.0
  0
LTYPE
  5
15
330
5
100
AcDbSymbolTableRecord
100
AcDbLinetypeTableRecord
  2
BYLAYER
 70
     0
  3

 72
    65
 73
     0
 40
0.0
  0
LTYPE
  5
16
330
5
100
AcDbSymbolTableRecord
100
AcDbLinetypeTableRecord
  2
CONTINUOUS
 70
     0
  3
Solid line
 72
    65
 73
     0
 40
0.0
  0
ENDTAB
  0
TABLE
  2
LAYER
  5
2
330
0
100
AcDbSymbolTable
 70
     3
  0
LAYER
  5
10
330
2
100
AcDbSymbolTableRecord
100
AcDbLayerTableRecord
  2
0
 70
     0
 62
     7
  6
CONTINUOUS
  0
LAYER
  5
6A
330
2
100
AcDbSymbolTableRecord
100
AcDbLayerTableRecord
  2
PROFILEEDGES
 70
     0
 62
     7
  6
CONTINUOUS
  0
LAYER
  5
6B
330
2
100
AcDbSymbolTableRecord
100
AcDbLayerTableRecord
  2
SECTIONCUTEDGES
 70
     0
 62
     7
  6
CONTINUOUS
  0
ENDTAB
  0
TABLE
  2
STYLE
  5
3
330
0
100
AcDbSymbolTable
 70
     1
  0
STYLE
  5
11
330
3
100
AcDbSymbolTableRecord
100
AcDbTextStyleTableRecord
  2
STANDARD
 70
     0
 40
0.0
 41
1.0
 50
0.0
 71
     0
 42
0.2
  3
txt
  4

  0
ENDTAB
  0
TABLE
  2
VIEW
  5
6
330
0
100
AcDbSymbolTable
 70
     0
  0
ENDTAB
  0
TABLE
  2
UCS
  5
7
330
0
100
AcDbSymbolTable
 70
     0
  0
ENDTAB
  0
TABLE
  2
APPID
  5
9
330
0
100
AcDbSymbolTable
 70
     1
  0
APPID
  5
12
330
9
100
AcDbSymbolTableRecord
100
AcDbRegAppTableRecord
  2
ACAD
 70
     0
  0
ENDTAB
  0
TABLE
  2
DIMSTYLE
  5
A
330
0
100
AcDbSymbolTable
 70
     1
  0
DIMSTYLE
105
27
330
A
100
AcDbSymbolTableRecord
100
AcDbDimStyleTableRecord
  2
STANDARD
 70
     0
  3

  4

  5

  6

  7

 40
1.0
 41
0.18
 42
0.0625
 43
0.38
 44
0.18
 45
0.0
 46
0.0
 47
0.0
 48
0.0
140
0.18
141
0.09
142
0.0
143
25.4
144
1.0
145
0.0
146
1.0
147
0.09
 71
     0
 72
     0
 73
     1
 74
     1
 75
     0
 76
     0
 77
     0
 78
     0
170
     0
171
     2
172
     0
173
     0
174
     0
175
     0
176
     0
177
     0
178
     0
270
     2
271
     4
272
     4
273
     2
274
     2
340
11
275
     0
280
     0
281
     0
282
     0
283
     1
284
     0
285
     0
286
     0
287
     3
288
     0
  0
ENDTAB
  0
TABLE
  2
BLOCK_RECORD
  5
1
330
0
100
AcDbSymbolTable
 70
     1
  0
BLOCK_RECORD
  5
1F
330
1
100
AcDbSymbolTableRecord
100
AcDbBlockTableRecord
  2
*MODEL_SPACE
  0
BLOCK_RECORD
  5
1B
330
1
100
AcDbSymbolTableRecord
100
AcDbBlockTableRecord
  2
*PAPER_SPACE
  0
ENDTAB
  0
ENDSEC
  0
SECTION
  2
BLOCKS
  0
BLOCK
  5
20
330
1F
100
AcDbEntity
  8
0
100
AcDbBlockBegin
  2
*MODEL_SPACE
 70
     0
 10
0.0
 20
0.0
 30
0.0
  3
*MODEL_SPACE
  1

  0
ENDBLK
  5
21
330
1F
100
AcDbEntity
  8
0
100
AcDbBlockEnd
  0
BLOCK
  5
1C
330
1B
100
AcDbEntity
 67
     1
  8
0
100
AcDbBlockBegin
  2
*PAPER_SPACE
 70
     0
 10
0.0
 20
0.0
 30
0.0
  3
*PAPER_SPACE
  1

  0
ENDBLK
  5
1D
330
1B
100
AcDbEntity
 67
     1
  8
0
100
AcDbBlockEnd
  0
ENDSEC
  0
SECTION
  2
ENTITIES
  0
LINE
  5
6C
330
1F
100
AcDbEntity
  8
0
100
AcDbLine
 10
-149.9999999912944
 20
34.0500000003394
 30
0.0
 11
-149.999999991065
 21
44.0500000003393
 31
0.0
  0
LINE
  5
6D
330
1F
100
AcDbEntity
  8
0
100
AcDbLine
 10
-122.4216450473042
 20
-49.28411378449107
 30
0.0
 11
-124.169749895881
 21
-47.00593919143908
 31
0.0
  0
LINE
  5
6E
330
1F
100
AcDbEntity
  8
0
100
AcDbLine
 10
-120.1434704542522
 20
-51.03221863306788
 30
0.0
 11
-122.4216450473042
 21
-49.28411378449107
 31
0.0
  0
LINE
  5
6F
330
1F
100
AcDbEntity
  8
0
100
AcDbLine
 10
99.38822856889689
 20
-58.47280196300435
 30
0.0
 11
99.00000000124308
 21
-58.52391322357077
 31
0.0
  0
LINE
  5
70
330
1F
100
AcDbEntity
  8
0
100
AcDbLine
 10
104.8302500999628
 20
-47.00593919143901
 30
0.0
 11
103.7313454524119
 21
-44.35294868756677
 31
0.0
  0
LINE
  5
71
330
1F
100
AcDbEntity
  8
0
100
AcDbLine
 10
100.2990381069198
 20
-57.77391322357076
 30
0.0
 11
100.0606601730229
 21
-58.0845733953506
 31
0.0
  0
LINE
  5
72
330
1F
100
AcDbEntity
  8
0
100
AcDbLine
 10
-117.4904799503799
 20
-52.1311232806188
 30
0.0
 11
-120.1434704542522
 21
-51.03221863306788
 31
0.0
  0
LINE
  5
73
330
1F
100
AcDbEntity
  8
0
100
AcDbLine
 10
144.0000000012568
 20
-94.04999999982755
 30
0.0
 11
144.0000000012033
 21
-162.149999999917
 31
0.0
  0
LINE
  5
74
330
1F
100
AcDbEntity
  8
0
100
AcDbLine
 10
-143.9999999910546
 20
44.05000000020213
 30
0.0
 11
-143.9999999906317
 21
62.55000000020136
 31
0.0
  0
LINE
  5
75
330
1F
100
AcDbEntity
  8
0
100
AcDbLine
 10
105.5000028547591
 20
237.149999999989
 30
0.0
 11
124.0000028547591
 21
237.1499999999893
 31
0.0
  0
LINE
  5
76
330
1F
100
AcDbEntity
  8
0
100
AcDbLine
 10
-107.9999999988
 20
231.1499999999284
 30
0.0
 11
-107.9999999988002
 21
228.1499999999317
 31
0.0
  0
LINE
  5
77
330
1F
100
AcDbEntity
  8
0
100
AcDbLine
 10
102.5000028547053
 20
228.1499999999765
 30
0.0
 11
102.5000028547052
 21
226.1500000000165
 31
0.0
  0
LINE
  5
78
330
1F
100
AcDbEntity
  8
0
100
AcDbLine
 10
105.5000028547591
 20
237.149999999989
 30
0.0
 11
105.5000028547587
 21
231.1499999999736
 31
0.0
  0
LINE
  5
79
330
1F
100
AcDbEntity
  8
0
100
AcDbLine
 10
102.5000028547591
 20
237.1499999999893
 30
0.0
 11
102.5000028547587
 21
231.1499999999733
 31
0.0
  0
LINE
  5
7A
330
1F
100
AcDbEntity
  8
0
100
AcDbLine
 10
105.5000028547054
 20
228.1499999999765
 30
0.0
 11
105.5000028547053
 21
226.1500000000161
 31
0.0
  0
LINE
  5
7B
330
1F
100
AcDbEntity
  8
0
100
AcDbLine
 10
-73.99999999880005
 20
237.1499999999448
 30
0.0
 11
-73.99999999880023
 21
243.1499999999551
 31
0.0
  0
LINE
  5
7C
330
1F
100
AcDbEntity
  8
0
100
AcDbLine
 10
-83.99999999879994
 20
237.1499999999448
 30
0.0
 11
-83.99999999880012
 21
243.1499999999551
 31
0.0
  0
LINE
  5
7D
330
1F
100
AcDbEntity
  8
0
100
AcDbLine
 10
-105.4999999987995
 20
-237.1499999999547
 30
0.0
 11
-123.9999999987991
 21
-237.1499999999541
 31
0.0
  0
LINE
  5
7E
330
1F
100
AcDbEntity
  8
0
100
AcDbLine
 10
-134.9999999906974
 20
62.54999999988227
 30
0.0
 11
-132.9999999906121
 21
62.54999999976875
 31
0.0
  0
LINE
  5
7F
330
1F
100
AcDbEntity
  8
0
100
AcDbLine
 10
-132.9999999905439
 20
65.54999999976897
 30
0.0
 11
-132.9999999906121
 21
62.54999999976875
 31
0.0
  0
LINE
  5
80
330
1F
100
AcDbEntity
  8
0
100
AcDbLine
 10
-134.9999999906289
 20
65.54999999988303
 30
0.0
 11
-132.9999999905439
 21
65.54999999976897
 31
0.0
  0
LINE
  5
81
330
1F
100
AcDbEntity
  8
0
100
AcDbLine
 10
-137.9999999905415
 20
65.54999999997399
 30
0.0
 11
-137.9999999904845
 21
68.04999999997396
 31
0.0
  0
LINE
  5
82
330
1F
100
AcDbEntity
  8
0
100
AcDbLine
 10
138.0000000011933
 20
-62.54999999990871
 30
0.0
 11
138.0000000011933
 21
-60.0499999999091
 31
0.0
  0
LINE
  5
83
330
1F
100
AcDbEntity
  8
0
100
AcDbLine
 10
138.0000000011933
 20
-60.0499999999091
 30
0.0
 11
135.0000000011265
 21
-60.0499999999091
 31
0.0
  0
LINE
  5
84
330
1F
100
AcDbEntity
  8
0
100
AcDbLine
 10
124.0000028547587
 20
243.1499999999907
 30
0.0
 11
134.0000028547586
 21
243.1499999999907
 31
0.0
  0
LINE
  5
85
330
1F
100
AcDbEntity
  8
0
100
AcDbLine
 10
135.0000000011265
 20
-62.54999999990871
 30
0.0
 11
135.0000000011265
 21
-60.0499999999091
 31
0.0
  0
LINE
  5
86
330
1F
100
AcDbEntity
  8
0
100
AcDbLine
 10
128.5511112618094
 20
-25.63568465594518
 30
0.0
 11
128.7009618955663
 21
-25.27391322359897
 31
0.0
  0
LINE
  5
87
330
1F
100
AcDbEntity
  8
0
100
AcDbLine
 10
135.0000000011265
 20
-62.54999999990871
 30
0.0
 11
133.0000000013229
 21
-62.54999999990907
 31
0.0
  0
LINE
  5
88
330
1F
100
AcDbEntity
  8
0
100
AcDbLine
 10
133.000000001323
 20
-65.54999999990929
 30
0.0
 11
133.0000000013229
 21
-62.54999999990907
 31
0.0
  0
LINE
  5
89
330
1F
100
AcDbEntity
  8
0
100
AcDbLine
 10
113.3032081090583
 20
-199.3239351161371
 30
0.0
 11
114.104516230634
 21
-198.6676320893763
 31
0.0
  0
LINE
  5
8A
330
1F
100
AcDbEntity
  8
0
100
AcDbLine
 10
135.0000000011263
 20
-65.54999999990929
 30
0.0
 11
133.000000001323
 21
-65.54999999990929
 31
0.0
  0
LINE
  5
8B
330
1F
100
AcDbEntity
  8
0
100
AcDbLine
 10
131.0606601730228
 20
-24.96325305181909
 30
0.0
 11
131.2990381069197
 21
-25.27391322359897
 31
0.0
  0
LINE
  5
8C
330
1F
100
AcDbEntity
  8
0
100
AcDbLine
 10
135.0000000011263
 20
-65.54999999990929
 30
0.0
 11
135.0000000011263
 21
-68.0499999999089
 31
0.0
  0
LINE
  5
8D
330
1F
100
AcDbEntity
  8
0
100
AcDbLine
 10
123.8828089832204
 20
-47.00593919143901
 30
0.0
 11
122.1347041346436
 21
-49.284113784491
 31
0.0
  0
LINE
  5
8E
330
1F
100
AcDbEntity
  8
0
100
AcDbLine
 10
131.4488887406766
 20
-26.41214179125279
 30
0.0
 11
131.2990381069197
 21
-26.773913223599
 31
0.0
  0
LINE
  5
8F
330
1F
100
AcDbEntity
  8
0
100
AcDbLine
 10
128.500000001243
 20
-26.02391322359898
 30
0.0
 11
128.5511112618094
 21
-25.63568465594518
 31
0.0
  0
LINE
  5
90
330
1F
100
AcDbEntity
  8
0
100
AcDbLine
 10
138.0000000011928
 20
-68.04999999990909
 30
0.0
 11
135.0000000011263
 21
-68.0499999999089
 31
0.0
  0
LINE
  5
91
330
1F
100
AcDbEntity
  8
0
100
AcDbLine
 10
138.0000000011928
 20
-65.54999999990929
 30
0.0
 11
138.0000000011928
 21
-68.04999999990909
 31
0.0
  0
LINE
  5
92
330
1F
100
AcDbEntity
  8
0
100
AcDbLine
 10
98.83770097033117
 20
-199.4371907119067
 30
0.0
 11
99.87297715074162
 21
-199.4371907119065
 31
0.0
  0
LINE
  5
93
330
1F
100
AcDbEntity
  8
0
100
AcDbLine
 10
138.0000000012195
 20
196.1499999999711
 30
0.0
 11
135.0000000011526
 21
196.1499999999711
 31
0.0
  0
LINE
  5
94
330
1F
100
AcDbEntity
  8
0
100
AcDbLine
 10
150.0000000011967
 20
222.1499999999706
 30
0.0
 11
150.0000000011952
 21
212.1499999999706
 31
0.0
  0
LINE
  5
95
330
1F
100
AcDbEntity
  8
0
100
AcDbLine
 10
106.5783549485396
 20
-33.72776459838698
 30
0.0
 11
108.8565295415916
 21
-31.97965974981016
 31
0.0
  0
LINE
  5
96
330
1F
100
AcDbEntity
  8
0
100
AcDbLine
 10
138.000000001219
 20
190.649999999971
 30
0.0
 11
138.000000001219
 21
188.1499999999712
 31
0.0
  0
LINE
  5
97
330
1F
100
AcDbEntity
  8
0
100
AcDbLine
 10
124.0000028547591
 20
237.1499999999893
 30
0.0
 11
124.0000028547587
 21
243.1499999999907
 31
0.0
  0
LINE
  5
98
330
1F
100
AcDbEntity
  8
0
100
AcDbLine
 10
102.5000028547587
 20
231.1499999999733
 30
0.0
 11
100.0000028547586
 21
231.1499999999733
 31
0.0
  0
LINE
  5
99
330
1F
100
AcDbEntity
  8
0
100
AcDbLine
 10
135.0000000011526
 20
193.6499999999716
 30
0.0
 11
133.0000000013491
 21
193.6499999999712
 31
0.0
  0
LINE
  5
9A
330
1F
100
AcDbEntity
  8
0
100
AcDbLine
 10
144.0000000012367
 20
193.6499999999718
 30
0.0
 11
138.0000000012195
 21
193.6499999999716
 31
0.0
  0
LINE
  5
9B
330
1F
100
AcDbEntity
  8
0
100
AcDbLine
 10
134.0000028547591
 20
237.1499999999893
 30
0.0
 11
134.0000028547586
 21
243.1499999999907
 31
0.0
  0
LINE
  5
9C
330
1F
100
AcDbEntity
  8
0
100
AcDbLine
 10
144.0000000011848
 20
212.149999999971
 30
0.0
 11
150.0000000011952
 21
212.1499999999706
 31
0.0
  0
LINE
  5
9D
330
1F
100
AcDbEntity
  8
0
100
AcDbLine
 10
150.0000000010692
 20
172.1499999999706
 30
0.0
 11
150.0000000010693
 21
162.1500000000515
 31
0.0
  0
LINE
  5
9E
330
1F
100
AcDbEntity
  8
0
100
AcDbLine
 10
108.8565295415916
 20
-31.97965974981016
 30
0.0
 11
111.5095200454639
 21
-30.88075510225929
 31
0.0
  0
LINE
  5
9F
330
1F
100
AcDbEntity
  8
0
100
AcDbLine
 10
121.8625879312653
 20
-184.419281938049
 30
0.0
 11
120.6146568315103
 21
-187.4241099148321
 31
0.0
  0
LINE
  5
A0
330
1F
100
AcDbEntity
  8
0
100
AcDbLine
 10
113.0000000012094
 20
-160.4179491924319
 30
0.0
 11
112.2679491936406
 21
-161.1500000000008
 31
0.0
  0
LINE
  5
A1
330
1F
100
AcDbEntity
  8
0
100
AcDbLine
 10
120.6146568315103
 20
-187.4241099148321
 30
0.0
 11
119.2108097444893
 21
-190.3593333400684
 31
0.0
  0
LINE
  5
A2
330
1F
100
AcDbEntity
  8
0
100
AcDbLine
 10
-137.9999999903172
 20
196.1499999999729
 30
0.0
 11
-134.9999999904046
 21
196.1499999998814
 31
0.0
  0
LINE
  5
A3
330
1F
100
AcDbEntity
  8
0
100
AcDbLine
 10
-143.9999999903962
 20
193.6500000002009
 30
0.0
 11
-143.9999999899743
 21
212.1500000002009
 31
0.0
  0
LINE
  5
A4
330
1F
100
AcDbEntity
  8
0
100
AcDbLine
 10
-143.9999999908873
 20
172.1500000002011
 30
0.0
 11
-143.9999999904644
 21
190.6500000002003
 31
0.0
  0
LINE
  5
A5
330
1F
100
AcDbEntity
  8
0
100
AcDbLine
 10
138.0000000011831
 20
-193.6499999999172
 30
0.0
 11
138.0000000011831
 21
-196.149999999917
 31
0.0
  0
LINE
  5
A6
330
1F
100
AcDbEntity
  8
0
100
AcDbLine
 10
135.0000000011166
 20
-193.6499999999172
 30
0.0
 11
133.0000000013133
 21
-193.6499999999172
 31
0.0
  0
LINE
  5
A7
330
1F
100
AcDbEntity
  8
0
100
AcDbLine
 10
150.0000000012139
 20
-162.1499999999177
 30
0.0
 11
150.0000000012125
 21
-172.1499999999176
 31
0.0
  0
LINE
  5
A8
330
1F
100
AcDbEntity
  8
0
100
AcDbLine
 10
144.0000000012021
 20
-172.1499999999172
 30
0.0
 11
150.0000000012125
 21
-172.1499999999176
 31
0.0
  0
LINE
  5
A9
330
1F
100
AcDbEntity
  8
0
100
AcDbLine
 10
144.0000000012008
 20
-212.149999999917
 30
0.0
 11
150.0000000012019
 21
-212.149999999917
 31
0.0
  0
LINE
  5
AA
330
1F
100
AcDbEntity
  8
0
100
AcDbLine
 10
-102.4999999988
 20
-231.1499999999677
 30
0.0
 11
-99.99999999879998
 21
-231.1499999999677
 31
0.0
  0
LINE
  5
AB
330
1F
100
AcDbEntity
  8
0
100
AcDbLine
 10
123.0000000012082
 20
-160.4179491924318
 30
0.0
 11
122.2679491936393
 21
-161.1500000000007
 31
0.0
  0
LINE
  5
AC
330
1F
100
AcDbEntity
  8
0
100
AcDbLine
 10
-99.99999999879998
 20
-231.1499999999677
 30
0.0
 11
-99.99999999880016
 21
-228.1499999999622
 31
0.0
  0
LINE
  5
AD
330
1F
100
AcDbEntity
  8
0
100
AcDbLine
 10
-102.4999999988001
 20
-228.1499999999624
 30
0.0
 11
-99.99999999880016
 21
-228.1499999999622
 31
0.0
  0
LINE
  5
AE
330
1F
100
AcDbEntity
  8
0
100
AcDbLine
 10
122.2679491936393
 20
-161.1500000000007
 30
0.0
 11
122.0000000012081
 21
-162.1500000000007
 31
0.0
  0
LINE
  5
AF
330
1F
100
AcDbEntity
  8
0
100
AcDbLine
 10
-105.4999999988002
 20
-228.1499999999624
 30
0.0
 11
-105.4999999988004
 21
-226.1500000000635
 31
0.0
  0
LINE
  5
B0
330
1F
100
AcDbEntity
  8
0
100
AcDbLine
 10
128.9393398294631
 20
-55.96325305181915
 30
0.0
 11
129.250000001243
 21
-55.72487511792232
 31
0.0
  0
LINE
  5
B1
330
1F
100
AcDbEntity
  8
0
100
AcDbLine
 10
-105.4999999988002
 20
-228.1499999999624
 30
0.0
 11
-107.9999999988002
 21
-228.1499999999624
 31
0.0
  0
LINE
  5
B2
330
1F
100
AcDbEntity
  8
0
100
AcDbLine
 10
-107.9999999988
 20
-231.1499999999675
 30
0.0
 11
-107.9999999988002
 21
-228.1499999999624
 31
0.0
  0
LINE
  5
B3
330
1F
100
AcDbEntity
  8
0
100
AcDbLine
 10
-128.9393398228211
 20
-27.08457339535045
 30
0.0
 11
-129.2499999946009
 21
-27.32295132924728
 31
0.0
  0
LINE
  5
B4
330
1F
100
AcDbEntity
  8
0
100
AcDbLine
 10
-105.4999999988
 20
-231.1499999999674
 30
0.0
 11
-107.9999999988
 21
-231.1499999999675
 31
0.0
  0
LINE
  5
B5
330
1F
100
AcDbEntity
  8
0
100
AcDbLine
 10
115.8886640096168
 20
-165.5509627199684
 30
0.0
 11
115.5551327926474
 21
-168.9373619954435
 31
0.0
  0
LINE
  5
B6
330
1F
100
AcDbEntity
  8
0
100
AcDbLine
 10
-1.499999998798759
 20
-237.1499999999998
 30
0.0
 11
-19.99999999879942
 21
-237.1499999999738
 31
0.0
  0
LINE
  5
B7
330
1F
100
AcDbEntity
  8
0
100
AcDbLine
 10
97.70096189556641
 20
-56.27391322357074
 30
0.0
 11
97.93933982946324
 21
-55.96325305179091
 31
0.0
  0
LINE
  5
B8
330
1F
100
AcDbEntity
  8
0
100
AcDbLine
 10
99.00000000124308
 20
-58.52391322357077
 30
0.0
 11
98.61177143358928
 21
-58.47280196300435
 31
0.0
  0
LINE
  5
B9
330
1F
100
AcDbEntity
  8
0
100
AcDbLine
 10
-14.99999902206438
 20
154.8276685531134
 30
0.0
 11
-14.99999902206145
 21
143.6850217635626
 31
0.0
  0
LINE
  5
BA
330
1F
100
AcDbEntity
  8
0
100
AcDbLine
 10
-14.99999902206145
 20
143.6850217635626
 30
0.0
 11
15.00000097798461
 21
143.6850217635716
 31
0.0
  0
LINE
  5
BB
330
1F
100
AcDbEntity
  8
0
100
AcDbLine
 10
97.5511112618093
 20
-25.63568465591676
 30
0.0
 11
97.70096189556624
 21
-25.27391322357055
 31
0.0
  0
LINE
  5
BC
330
1F
100
AcDbEntity
  8
0
100
AcDbLine
 10
15.00000097798461
 20
143.6850217635716
 30
0.0
 11
15.00000097798172
 21
154.8276685531134
 31
0.0
  0
LINE
  5
BD
330
1F
100
AcDbEntity
  8
0
100
AcDbLine
 10
-14.99999902206145
 20
-84.47233047025492
 30
0.0
 11
15.00000097798465
 21
-84.47233047025492
 31
0.0
  0
LINE
  5
BE
330
1F
100
AcDbEntity
  8
0
100
AcDbLine
 10
112.2815487474408
 20
-199.4914587973867
 30
0.0
 11
113.3032081090583
 21
-199.3239351161371
 31
0.0
  0
LINE
  5
BF
330
1F
100
AcDbEntity
  8
0
100
AcDbLine
 10
144.0000000011999
 20
84.05000000033354
 30
0.0
 11
150.0000000012104
 21
84.05000000033317
 31
0.0
  0
LINE
  5
C0
330
1F
100
AcDbEntity
  8
0
100
AcDbLine
 10
125.0529142717473
 20
182.1693077191908
 30
0.0
 11
126.5000000011305
 21
182.7687102542227
 31
0.0
  0
LINE
  5
C1
330
1F
100
AcDbEntity
  8
0
100
AcDbLine
 10
118.3038475784178
 20
184.9648626769064
 30
0.0
 11
119.2573593140086
 21
183.7222219897898
 31
0.0
  0
LINE
  5
C2
330
1F
100
AcDbEntity
  8
0
100
AcDbLine
 10
114.0000000012094
 20
-160.1500000000007
 30
0.0
 11
113.0000000012094
 21
-160.4179491924319
 31
0.0
  0
LINE
  5
C3
330
1F
100
AcDbEntity
  8
0
100
AcDbLine
 10
119.2573593140086
 20
183.7222219897898
 30
0.0
 11
120.5000000011305
 21
182.7687102542059
 31
0.0
  0
LINE
  5
C4
330
1F
100
AcDbEntity
  8
0
100
AcDbLine
 10
120.5000000011305
 20
182.7687102542059
 30
0.0
 11
121.9470857305171
 21
182.1693077191822
 31
0.0
  0
LINE
  5
C5
330
1F
100
AcDbEntity
  8
0
100
AcDbLine
 10
99.38822856889671
 20
-24.57502448413696
 30
0.0
 11
99.75000000124291
 21
-24.72487511789389
 31
0.0
  0
LINE
  5
C6
330
1F
100
AcDbEntity
  8
0
100
AcDbLine
 10
-131.0606601663805
 20
-58.08457339535062
 30
0.0
 11
-131.2990381002774
 21
-57.77391322357079
 31
0.0
  0
LINE
  5
C7
330
1F
100
AcDbEntity
  8
0
100
AcDbLine
 10
-143.9999999905634
 20
65.55000000020193
 30
0.0
 11
-143.9999999901415
 21
84.05000000020188
 31
0.0
  0
LINE
  5
C8
330
1F
100
AcDbEntity
  8
0
100
AcDbLine
 10
130.3882285688968
 20
-58.4728019630326
 30
0.0
 11
130.000000001243
 21
-58.52391322359902
 31
0.0
  0
LINE
  5
C9
330
1F
100
AcDbEntity
  8
0
100
AcDbLine
 10
117.704445043386
 20
186.4119484062896
 30
0.0
 11
118.3038475784178
 21
184.9648626769064
 31
0.0
  0
LINE
  5
CA
330
1F
100
AcDbEntity
  8
0
100
AcDbLine
 10
126.5000000011305
 20
182.7687102542227
 30
0.0
 11
127.7426406882472
 21
183.7222219898134
 31
0.0
  0
LINE
  5
CB
330
1F
100
AcDbEntity
  8
0
100
AcDbLine
 10
117.5000000011161
 20
187.9648626769042
 30
0.0
 11
117.704445043386
 21
186.4119484062896
 31
0.0
  0
LINE
  5
CC
330
1F
100
AcDbEntity
  8
0
100
AcDbLine
 10
97.55111126180948
 20
-56.63568465591695
 30
0.0
 11
97.70096189556641
 21
-56.27391322357074
 31
0.0
  0
LINE
  5
CD
330
1F
100
AcDbEntity
  8
0
100
AcDbLine
 10
133.0000000013112
 20
62.55000000033355
 30
0.0
 11
133.0000000013111
 21
65.55000000033378
 31
0.0
  0
LINE
  5
CE
330
1F
100
AcDbEntity
  8
0
100
AcDbLine
 10
144.0000000012012
 20
94.0500000003338
 30
0.0
 11
150.0000000012117
 21
94.05000000033307
 31
0.0
  0
LINE
  5
CF
330
1F
100
AcDbEntity
  8
0
100
AcDbLine
 10
135.0000000011145
 20
62.55000000033355
 30
0.0
 11
133.0000000013112
 21
62.55000000033355
 31
0.0
  0
LINE
  5
D0
330
1F
100
AcDbEntity
  8
0
100
AcDbLine
 10
138.000000001181
 20
62.55000000033355
 30
0.0
 11
138.000000001181
 21
60.05000000033376
 31
0.0
  0
LINE
  5
D1
330
1F
100
AcDbEntity
  8
0
100
AcDbLine
 10
99.75000000124291
 20
-27.32295132924723
 30
0.0
 11
99.38822856889671
 21
-27.47280196300416
 31
0.0
  0
LINE
  5
D2
330
1F
100
AcDbEntity
  8
0
100
AcDbLine
 10
-98.24999999460077
 20
-27.3229513292757
 30
0.0
 11
-98.61177142694702
 21
-27.47280196303263
 31
0.0
  0
LINE
  5
D3
330
1F
100
AcDbEntity
  8
0
100
AcDbLine
 10
-111.7964609581245
 20
-30.88075510225933
 30
0.0
 11
-109.1434704542522
 21
-31.97965974981026
 31
0.0
  0
LINE
  5
D4
330
1F
100
AcDbEntity
  8
0
100
AcDbLine
 10
-114.6434704542522
 20
-30.50593919143909
 30
0.0
 11
-111.7964609581245
 21
-30.88075510225933
 31
0.0
  0
LINE
  5
D5
330
1F
100
AcDbEntity
  8
0
100
AcDbLine
 10
-128.700961888924
 20
-57.77391322357079
 30
0.0
 11
-128.9393398228209
 21
-58.08457339535062
 31
0.0
  0
LINE
  5
D6
330
1F
100
AcDbEntity
  8
0
100
AcDbLine
 10
-131.4488887340343
 20
-56.63568465591698
 30
0.0
 11
-131.2990381002774
 21
-56.27391322357077
 31
0.0
  0
LINE
  5
D7
330
1F
100
AcDbEntity
  8
0
100
AcDbLine
 10
-130.7499999946007
 20
-55.7248751178941
 30
0.0
 11
-130.3882285622545
 21
-55.57502448413717
 31
0.0
  0
LINE
  5
D8
330
1F
100
AcDbEntity
  8
0
100
AcDbLine
 10
-131.0606601663805
 20
-55.96325305179093
 30
0.0
 11
-130.7499999946007
 21
-55.7248751178941
 31
0.0
  0
LINE
  5
D9
330
1F
100
AcDbEntity
  8
0
100
AcDbLine
 10
-131.2990381002774
 20
-56.27391322357077
 30
0.0
 11
-131.0606601663805
 21
-55.96325305179093
 31
0.0
  0
LINE
  5
DA
330
1F
100
AcDbEntity
  8
0
100
AcDbLine
 10
-128.700961888924
 20
-56.27391322357077
 30
0.0
 11
-128.5511112551671
 21
-56.63568465591698
 31
0.0
  0
LINE
  5
DB
330
1F
100
AcDbEntity
  8
0
100
AcDbLine
 10
-128.9393398228209
 20
-55.96325305179093
 30
0.0
 11
-128.700961888924
 21
-56.27391322357077
 31
0.0
  0
LINE
  5
DC
330
1F
100
AcDbEntity
  8
0
100
AcDbLine
 10
-100.2990381002775
 20
-57.77391322359903
 30
0.0
 11
-100.4488887340344
 21
-57.41214179125282
 31
0.0
  0
LINE
  5
DD
330
1F
100
AcDbEntity
  8
0
100
AcDbLine
 10
-131.4999999946007
 20
-57.02391322357077
 30
0.0
 11
-131.4488887340343
 21
-56.63568465591698
 31
0.0
  0
LINE
  5
DE
330
1F
100
AcDbEntity
  8
0
100
AcDbLine
 10
-131.4488887340343
 20
-57.41214179122458
 30
0.0
 11
-131.4999999946007
 21
-57.02391322357077
 31
0.0
  0
LINE
  5
DF
330
1F
100
AcDbEntity
  8
0
100
AcDbLine
 10
-131.2990381002774
 20
-57.77391322357079
 30
0.0
 11
-131.4488887340343
 21
-57.41214179122458
 31
0.0
  0
LINE
  5
E0
330
1F
100
AcDbEntity
  8
0
100
AcDbLine
 10
-128.5511112551671
 20
-57.41214179122458
 30
0.0
 11
-128.700961888924
 21
-57.77391322357079
 31
0.0
  0
LINE
  5
E1
330
1F
100
AcDbEntity
  8
0
100
AcDbLine
 10
-128.4999999946007
 20
-57.02391322357077
 30
0.0
 11
-128.5511112551671
 21
-57.41214179122458
 31
0.0
  0
LINE
  5
E2
330
1F
100
AcDbEntity
  8
0
100
AcDbLine
 10
-128.5511112551671
 20
-56.63568465591698
 30
0.0
 11
-128.4999999946007
 21
-57.02391322357077
 31
0.0
  0
LINE
  5
E3
330
1F
100
AcDbEntity
  8
0
100
AcDbLine
 10
-129.2499999946007
 20
-55.7248751178941
 30
0.0
 11
-128.9393398228209
 21
-55.96325305179093
 31
0.0
  0
LINE
  5
E4
330
1F
100
AcDbEntity
  8
0
100
AcDbLine
 10
-100.0606601663806
 20
-55.96325305181917
 30
0.0
 11
-99.74999999460078
 21
-55.72487511792234
 31
0.0
  0
LINE
  5
E5
330
1F
100
AcDbEntity
  8
0
100
AcDbLine
 10
-100.2990381002775
 20
-56.27391322359901
 30
0.0
 11
-100.0606601663806
 21
-55.96325305181917
 31
0.0
  0
LINE
  5
E6
330
1F
100
AcDbEntity
  8
0
100
AcDbLine
 10
-100.4488887340344
 20
-56.63568465594522
 30
0.0
 11
-100.2990381002775
 21
-56.27391322359901
 31
0.0
  0
LINE
  5
E7
330
1F
100
AcDbEntity
  8
0
100
AcDbLine
 10
-100.4999999946008
 20
-57.02391322359902
 30
0.0
 11
-100.4488887340344
 21
-56.63568465594522
 31
0.0
  0
LINE
  5
E8
330
1F
100
AcDbEntity
  8
0
100
AcDbLine
 10
-98.24999999460077
 20
-58.32295132927569
 30
0.0
 11
-98.61177142694702
 21
-58.47280196303262
 31
0.0
  0
LINE
  5
E9
330
1F
100
AcDbEntity
  8
0
100
AcDbLine
 10
-100.4488887340344
 20
-57.41214179125282
 30
0.0
 11
-100.4999999946008
 21
-57.02391322359902
 31
0.0
  0
LINE
  5
EA
330
1F
100
AcDbEntity
  8
0
100
AcDbLine
 10
-100.0606601663806
 20
-58.08457339537887
 30
0.0
 11
-100.2990381002775
 21
-57.77391322359903
 31
0.0
  0
LINE
  5
EB
330
1F
100
AcDbEntity
  8
0
100
AcDbLine
 10
-99.74999999460078
 20
-58.32295132927569
 30
0.0
 11
-100.0606601663806
 21
-58.08457339537887
 31
0.0
  0
LINE
  5
EC
330
1F
100
AcDbEntity
  8
0
100
AcDbLine
 10
-99.38822856225458
 20
-58.47280196303262
 30
0.0
 11
-99.74999999460078
 21
-58.32295132927569
 31
0.0
  0
LINE
  5
ED
330
1F
100
AcDbEntity
  8
0
100
AcDbLine
 10
-143.9999999999282
 20
-222.1499999998844
 30
0.0
 11
-149.9999999999388
 21
-222.1499999997469
 31
0.0
  0
LINE
  5
EE
330
1F
100
AcDbEntity
  8
0
100
AcDbLine
 10
-149.999999998787
 20
-172.1499999997477
 30
0.0
 11
-149.999999998559
 21
-162.1499999998287
 31
0.0
  0
LINE
  5
EF
330
1F
100
AcDbEntity
  8
0
100
AcDbLine
 10
-99.74999999460078
 20
-27.3229513292757
 30
0.0
 11
-100.0606601663806
 21
-27.08457339537888
 31
0.0
  0
LINE
  5
F0
330
1F
100
AcDbEntity
  8
0
100
AcDbLine
 10
-99.38822856225458
 20
-27.47280196303263
 30
0.0
 11
-99.74999999460078
 21
-27.3229513292757
 31
0.0
  0
LINE
  5
F1
330
1F
100
AcDbEntity
  8
0
100
AcDbLine
 10
-98.99999999460078
 20
-27.52391322359905
 30
0.0
 11
-99.38822856225458
 21
-27.47280196303263
 31
0.0
  0
LINE
  5
F2
330
1F
100
AcDbEntity
  8
0
100
AcDbLine
 10
-137.9999999996049
 20
-196.1500000001124
 30
0.0
 11
-134.9999999996049
 21
-196.1500000002036
 31
0.0
  0
LINE
  5
F3
330
1F
100
AcDbEntity
  8
0
100
AcDbLine
 10
-134.9999999995478
 20
-193.650000000204
 30
0.0
 11
-134.9999999996049
 21
-196.1500000002036
 31
0.0
  0
LINE
  5
F4
330
1F
100
AcDbEntity
  8
0
100
AcDbLine
 10
144.0000000012107
 20
-65.5499999999091
 30
0.0
 11
144.0000000012105
 21
-84.04999999990905
 31
0.0
  0
LINE
  5
F5
330
1F
100
AcDbEntity
  8
0
100
AcDbLine
 10
-137.9999999906674
 20
60.0499999999738
 30
0.0
 11
-134.9999999907544
 21
60.04999999988266
 31
0.0
  0
LINE
  5
F6
330
1F
100
AcDbEntity
  8
0
100
AcDbLine
 10
-134.9999999906974
 20
62.54999999988227
 30
0.0
 11
-134.9999999907544
 21
60.04999999988266
 31
0.0
  0
LINE
  5
F7
330
1F
100
AcDbEntity
  8
0
100
AcDbLine
 10
-117.4904799503799
 20
-30.88075510225933
 30
0.0
 11
-114.6434704542522
 21
-30.50593919143909
 31
0.0
  0
LINE
  5
F8
330
1F
100
AcDbEntity
  8
0
100
AcDbLine
 10
-143.9999999986042
 20
-162.1499999999659
 30
0.0
 11
-149.999999998559
 21
-162.1499999998287
 31
0.0
  0
LINE
  5
F9
330
1F
100
AcDbEntity
  8
0
100
AcDbLine
 10
-143.9999999992078
 20
-190.6499999998843
 30
0.0
 11
-137.9999999994789
 21
-190.6500000001123
 31
0.0
  0
LINE
  5
FA
330
1F
100
AcDbEntity
  8
0
100
AcDbLine
 10
-143.999999999276
 20
-193.6499999998849
 30
0.0
 11
-137.9999999995478
 21
-193.6500000001128
 31
0.0
  0
LINE
  5
FB
330
1F
100
AcDbEntity
  8
0
100
AcDbLine
 10
-143.999999999699
 20
-212.1499999998841
 30
0.0
 11
-149.9999999997094
 21
-212.149999999747
 31
0.0
  0
LINE
  5
FC
330
1F
100
AcDbEntity
  8
0
100
AcDbLine
 10
-149.9999999999388
 20
-222.1499999997469
 30
0.0
 11
-149.9999999997094
 21
-212.149999999747
 31
0.0
  0
LINE
  5
FD
330
1F
100
AcDbEntity
  8
0
100
AcDbLine
 10
-143.9999999987859
 20
-172.1499999998844
 30
0.0
 11
-149.999999998787
 21
-172.1499999997477
 31
0.0
  0
LINE
  5
FE
330
1F
100
AcDbEntity
  8
0
100
AcDbLine
 10
-3.999999998799273
 20
231.1499999999733
 30
0.0
 11
-3.999999998799499
 21
228.1499999999766
 31
0.0
  0
LINE
  5
FF
330
1F
100
AcDbEntity
  8
0
100
AcDbLine
 10
-1.499999998799436
 20
228.1499999999764
 30
0.0
 11
-3.999999998799499
 21
228.1499999999766
 31
0.0
  0
LINE
  5
100
330
1F
100
AcDbEntity
  8
0
100
AcDbLine
 10
-1.499999998799436
 20
228.1499999999764
 30
0.0
 11
-1.499999998800248
 21
226.150000000027
 31
0.0
  0
LINE
  5
101
330
1F
100
AcDbEntity
  8
0
100
AcDbLine
 10
-1.499999998800248
 20
226.150000000027
 30
0.0
 11
1.500000001199791
 21
226.1500000000267
 31
0.0
  0
LINE
  5
102
330
1F
100
AcDbEntity
  8
0
100
AcDbLine
 10
1.500000001200604
 20
228.1499999999764
 30
0.0
 11
1.500000001199791
 21
226.1500000000267
 31
0.0
  0
LINE
  5
103
330
1F
100
AcDbEntity
  8
0
100
AcDbLine
 10
1.500000001200604
 20
228.1499999999764
 30
0.0
 11
4.000000001200577
 21
228.1499999999764
 31
0.0
  0
LINE
  5
104
330
1F
100
AcDbEntity
  8
0
100
AcDbLine
 10
4.000000001200802
 20
231.1499999999735
 30
0.0
 11
4.000000001200577
 21
228.1499999999764
 31
0.0
  0
LINE
  5
105
330
1F
100
AcDbEntity
  8
0
100
AcDbLine
 10
-19.99999999879942
 20
237.1499999999633
 30
0.0
 11
-1.499999998798759
 21
237.1499999999893
 31
0.0
  0
LINE
  5
106
330
1F
100
AcDbEntity
  8
0
100
AcDbLine
 10
-133.9999999987184
 20
-243.1499999999905
 30
0.0
 11
-123.9999999987989
 21
-243.1499999999891
 31
0.0
  0
LINE
  5
107
330
1F
100
AcDbEntity
  8
0
100
AcDbLine
 10
100.0000000011999
 20
-231.1500000000125
 30
0.0
 11
100.0000000011997
 21
-228.1500000000072
 31
0.0
  0
LINE
  5
108
330
1F
100
AcDbEntity
  8
0
100
AcDbLine
 10
102.5000000011999
 20
-231.1500000000125
 30
0.0
 11
100.0000000011999
 21
-231.1500000000125
 31
0.0
  0
LINE
  5
109
330
1F
100
AcDbEntity
  8
0
100
AcDbLine
 10
138.000000001181
 20
60.05000000033376
 30
0.0
 11
135.0000000011145
 21
60.05000000033395
 31
0.0
  0
LINE
  5
10A
330
1F
100
AcDbEntity
  8
0
100
AcDbLine
 10
-113.9999999986834
 20
-160.1500000000007
 30
0.0
 11
-112.9999999986834
 21
-160.4179491924318
 31
0.0
  0
LINE
  5
10B
330
1F
100
AcDbEntity
  8
0
100
AcDbLine
 10
-112.9999999986834
 20
-160.4179491924318
 30
0.0
 11
-112.2679491911145
 21
-161.1500000000008
 31
0.0
  0
LINE
  5
10C
330
1F
100
AcDbEntity
  8
0
100
AcDbLine
 10
-112.2679491911145
 20
-161.1500000000008
 30
0.0
 11
-111.9999999986835
 21
-162.1500000000008
 31
0.0
  0
LINE
  5
10D
330
1F
100
AcDbEntity
  8
0
100
AcDbLine
 10
-111.9999999986835
 20
-162.1500000000008
 30
0.0
 11
-111.8972283141363
 21
-165.2893502030476
 31
0.0
  0
LINE
  5
10E
330
1F
100
AcDbEntity
  8
0
100
AcDbLine
 10
-111.8972283141363
 20
-165.2893502030476
 30
0.0
 11
-111.589353344626
 21
-168.4152572265633
 31
0.0
  0
LINE
  5
10F
330
1F
100
AcDbEntity
  8
0
100
AcDbLine
 10
-111.589353344626
 20
-168.4152572265633
 30
0.0
 11
-111.0776934580381
 21
-171.5143354567749
 31
0.0
  0
LINE
  5
110
330
1F
100
AcDbEntity
  8
0
100
AcDbLine
 10
-111.0776934580381
 20
-171.5143354567749
 30
0.0
 11
-110.3644396605581
 21
-174.5733141649217
 31
0.0
  0
LINE
  5
111
330
1F
100
AcDbEntity
  8
0
100
AcDbLine
 10
-110.3644396605581
 20
-174.5733141649217
 30
0.0
 11
-109.4526462144478
 21
-177.5790943345524
 31
0.0
  0
LINE
  5
112
330
1F
100
AcDbEntity
  8
0
100
AcDbLine
 10
-109.4526462144478
 20
-177.5790943345524
 30
0.0
 11
-108.3462175592243
 21
-180.5188047535249
 31
0.0
  0
LINE
  5
113
330
1F
100
AcDbEntity
  8
0
100
AcDbLine
 10
-108.3462175592243
 20
-180.5188047535249
 30
0.0
 11
-107.0498915922515
 21
-183.3798571305126
 31
0.0
  0
LINE
  5
114
330
1F
100
AcDbEntity
  8
0
100
AcDbLine
 10
-107.0498915922515
 20
-183.3798571305126
 30
0.0
 11
-105.5692193803353
 21
-186.1500000000005
 31
0.0
  0
LINE
  5
115
330
1F
100
AcDbEntity
  8
0
100
AcDbLine
 10
-105.5692193803353
 20
-186.1500000000005
 30
0.0
 11
-103.9105413892044
 21
-188.8173711849413
 31
0.0
  0
LINE
  5
116
330
1F
100
AcDbEntity
  8
0
100
AcDbLine
 10
-103.9105413892044
 20
-188.8173711849413
 30
0.0
 11
-102.0809603326613
 21
-191.3705485924189
 31
0.0
  0
LINE
  5
117
330
1F
100
AcDbEntity
  8
0
100
AcDbLine
 10
-102.0809603326613
 20
-191.3705485924189
 30
0.0
 11
-100.0883107576728
 21
-193.7985991248035
 31
0.0
  0
LINE
  5
118
330
1F
100
AcDbEntity
  8
0
100
AcDbLine
 10
-100.0883107576728
 20
-193.7985991248035
 30
0.0
 11
-97.9411254956361
 21
-196.0911254969544
 31
0.0
  0
LINE
  5
119
330
1F
100
AcDbEntity
  8
0
100
AcDbLine
 10
-97.9411254956361
 20
-196.0911254969544
 30
0.0
 11
-97.42348740543103
 21
-196.9877009691228
 31
0.0
  0
LINE
  5
11A
330
1F
100
AcDbEntity
  8
0
100
AcDbLine
 10
-97.42348740543103
 20
-196.9877009691228
 30
0.0
 11
-97.42348740543122
 21
-198.0229771495333
 31
0.0
  0
LINE
  5
11B
330
1F
100
AcDbEntity
  8
0
100
AcDbLine
 10
-97.42348740543122
 20
-198.0229771495333
 30
0.0
 11
-97.9411254956366
 21
-198.9195526217016
 31
0.0
  0
LINE
  5
11C
330
1F
100
AcDbEntity
  8
0
100
AcDbLine
 10
-97.9411254956366
 20
-198.9195526217016
 30
0.0
 11
-98.83770096780508
 21
-199.4371907119067
 31
0.0
  0
LINE
  5
11D
330
1F
100
AcDbEntity
  8
0
100
AcDbLine
 10
-98.83770096780508
 20
-199.4371907119067
 30
0.0
 11
-99.87297714821554
 21
-199.4371907119065
 31
0.0
  0
LINE
  5
11E
330
1F
100
AcDbEntity
  8
0
100
AcDbLine
 10
144.0000000012106
 20
-62.54999999990853
 30
0.0
 11
138.0000000011933
 21
-62.54999999990871
 31
0.0
  0
LINE
  5
11F
330
1F
100
AcDbEntity
  8
0
100
AcDbLine
 10
144.0000000012117
 20
-44.04999999990931
 30
0.0
 11
144.0000000012106
 21
-62.54999999990853
 31
0.0
  0
LINE
  5
120
330
1F
100
AcDbEntity
  8
0
100
AcDbLine
 10
144.0000000012117
 20
-44.04999999990931
 30
0.0
 11
150.0000000012222
 21
-44.04999999990967
 31
0.0
  0
LINE
  5
121
330
1F
100
AcDbEntity
  8
0
100
AcDbLine
 10
150.0000000012236
 20
-34.04999999990982
 30
0.0
 11
150.0000000012222
 21
-44.04999999990967
 31
0.0
  0
LINE
  5
122
330
1F
100
AcDbEntity
  8
0
100
AcDbLine
 10
144.0000000012131
 20
-34.0499999999091
 30
0.0
 11
150.0000000012236
 21
-34.04999999990982
 31
0.0
  0
LINE
  5
123
330
1F
100
AcDbEntity
  8
0
100
AcDbLine
 10
144.0000000012448
 20
34.0500000004153
 30
0.0
 11
144.0000000012131
 21
-34.0499999999091
 31
0.0
  0
LINE
  5
124
330
1F
100
AcDbEntity
  8
0
100
AcDbLine
 10
144.0000000012448
 20
34.0500000004153
 30
0.0
 11
150.0000000011997
 21
34.05000000041476
 31
0.0
  0
LINE
  5
125
330
1F
100
AcDbEntity
  8
0
100
AcDbLine
 10
150.0000000011997
 20
44.05000000033379
 30
0.0
 11
150.0000000011997
 21
34.05000000041476
 31
0.0
  0
LINE
  5
126
330
1F
100
AcDbEntity
  8
0
100
AcDbLine
 10
144.0000000011987
 20
44.05000000033379
 30
0.0
 11
150.0000000011997
 21
44.05000000033379
 31
0.0
  0
LINE
  5
127
330
1F
100
AcDbEntity
  8
0
100
AcDbLine
 10
144.0000000011988
 20
62.55000000033374
 30
0.0
 11
144.0000000011987
 21
44.05000000033379
 31
0.0
  0
LINE
  5
128
330
1F
100
AcDbEntity
  8
0
100
AcDbLine
 10
144.0000000011988
 20
62.55000000033374
 30
0.0
 11
138.000000001181
 21
62.55000000033355
 31
0.0
  0
LINE
  5
129
330
1F
100
AcDbEntity
  8
0
100
AcDbLine
 10
135.0000000011145
 20
62.55000000033355
 30
0.0
 11
135.0000000011145
 21
60.05000000033395
 31
0.0
  0
LINE
  5
12A
330
1F
100
AcDbEntity
  8
0
100
AcDbLine
 10
135.0000000011146
 20
65.55000000033414
 30
0.0
 11
133.0000000013111
 21
65.55000000033378
 31
0.0
  0
LINE
  5
12B
330
1F
100
AcDbEntity
  8
0
100
AcDbLine
 10
135.0000000011146
 20
65.55000000033414
 30
0.0
 11
135.0000000011146
 21
68.05000000033375
 31
0.0
  0
LINE
  5
12C
330
1F
100
AcDbEntity
  8
0
100
AcDbLine
 10
138.0000000011815
 20
68.05000000033375
 30
0.0
 11
135.0000000011146
 21
68.05000000033375
 31
0.0
  0
LINE
  5
12D
330
1F
100
AcDbEntity
  8
0
100
AcDbLine
 10
138.0000000011815
 20
65.55000000033414
 30
0.0
 11
138.0000000011815
 21
68.05000000033375
 31
0.0
  0
LINE
  5
12E
330
1F
100
AcDbEntity
  8
0
100
AcDbLine
 10
144.0000000011987
 20
65.55000000033432
 30
0.0
 11
138.0000000011815
 21
65.55000000033414
 31
0.0
  0
LINE
  5
12F
330
1F
100
AcDbEntity
  8
0
100
AcDbLine
 10
144.0000000011999
 20
84.05000000033354
 30
0.0
 11
144.0000000011987
 21
65.55000000033432
 31
0.0
  0
LINE
  5
130
330
1F
100
AcDbEntity
  8
0
100
AcDbLine
 10
150.0000000012117
 20
94.05000000033307
 30
0.0
 11
150.0000000012104
 21
84.05000000033317
 31
0.0
  0
LINE
  5
131
330
1F
100
AcDbEntity
  8
0
100
AcDbLine
 10
144.0000000011144
 20
162.150000000052
 30
0.0
 11
144.0000000012012
 21
94.0500000003338
 31
0.0
  0
LINE
  5
132
330
1F
100
AcDbEntity
  8
0
100
AcDbLine
 10
144.0000000011144
 20
162.150000000052
 30
0.0
 11
150.0000000010693
 21
162.1500000000515
 31
0.0
  0
LINE
  5
133
330
1F
100
AcDbEntity
  8
0
100
AcDbLine
 10
144.0000000010682
 20
172.1499999999706
 30
0.0
 11
150.0000000010692
 21
172.1499999999706
 31
0.0
  0
LINE
  5
134
330
1F
100
AcDbEntity
  8
0
100
AcDbLine
 10
144.0000000012368
 20
190.6499999999712
 30
0.0
 11
144.0000000010682
 21
172.1499999999706
 31
0.0
  0
LINE
  5
135
330
1F
100
AcDbEntity
  8
0
100
AcDbLine
 10
144.0000000012368
 20
190.6499999999712
 30
0.0
 11
138.000000001219
 21
190.649999999971
 31
0.0
  0
LINE
  5
136
330
1F
100
AcDbEntity
  8
0
100
AcDbLine
 10
138.000000001219
 20
188.1499999999712
 30
0.0
 11
135.0000000011525
 21
188.1499999999714
 31
0.0
  0
LINE
  5
137
330
1F
100
AcDbEntity
  8
0
100
AcDbLine
 10
135.0000000011525
 20
190.649999999971
 30
0.0
 11
135.0000000011525
 21
188.1499999999714
 31
0.0
  0
LINE
  5
138
330
1F
100
AcDbEntity
  8
0
100
AcDbLine
 10
135.0000000011525
 20
190.649999999971
 30
0.0
 11
133.0000000013492
 21
190.649999999971
 31
0.0
  0
LINE
  5
139
330
1F
100
AcDbEntity
  8
0
100
AcDbLine
 10
133.0000000013492
 20
190.649999999971
 30
0.0
 11
133.0000000013491
 21
193.6499999999712
 31
0.0
  0
LINE
  5
13A
330
1F
100
AcDbEntity
  8
0
100
AcDbLine
 10
135.0000000011526
 20
193.6499999999716
 30
0.0
 11
135.0000000011526
 21
196.1499999999711
 31
0.0
  0
LINE
  5
13B
330
1F
100
AcDbEntity
  8
0
100
AcDbLine
 10
138.0000000012195
 20
193.6499999999716
 30
0.0
 11
138.0000000012195
 21
196.1499999999711
 31
0.0
  0
LINE
  5
13C
330
1F
100
AcDbEntity
  8
0
100
AcDbLine
 10
144.0000000011848
 20
212.149999999971
 30
0.0
 11
144.0000000012367
 21
193.6499999999718
 31
0.0
  0
LINE
  5
13D
330
1F
100
AcDbEntity
  8
0
100
AcDbLine
 10
144.0000000011861
 20
222.1499999999713
 30
0.0
 11
150.0000000011967
 21
222.1499999999706
 31
0.0
  0
LINE
  5
13E
330
1F
100
AcDbEntity
  8
0
100
AcDbLine
 10
144.0000000012008
 20
237.1499999999904
 30
0.0
 11
144.0000000011861
 21
222.1499999999713
 31
0.0
  0
LINE
  5
13F
330
1F
100
AcDbEntity
  8
0
100
AcDbLine
 10
134.0000028547591
 20
237.1499999999893
 30
0.0
 11
144.0000000012008
 21
237.1499999999904
 31
0.0
  0
LINE
  5
140
330
1F
100
AcDbEntity
  8
0
100
AcDbLine
 10
105.5000028547587
 20
231.1499999999736
 30
0.0
 11
108.0000028547587
 21
231.1499999999735
 31
0.0
  0
LINE
  5
141
330
1F
100
AcDbEntity
  8
0
100
AcDbLine
 10
108.0000028547587
 20
231.1499999999735
 30
0.0
 11
108.0000028547053
 21
228.1499999999765
 31
0.0
  0
LINE
  5
142
330
1F
100
AcDbEntity
  8
0
100
AcDbLine
 10
105.5000028547054
 20
228.1499999999765
 30
0.0
 11
108.0000028547053
 21
228.1499999999765
 31
0.0
  0
LINE
  5
143
330
1F
100
AcDbEntity
  8
0
100
AcDbLine
 10
102.5000028547052
 20
226.1500000000165
 30
0.0
 11
105.5000028547053
 21
226.1500000000161
 31
0.0
  0
LINE
  5
144
330
1F
100
AcDbEntity
  8
0
100
AcDbLine
 10
102.5000028547053
 20
228.1499999999765
 30
0.0
 11
100.0000028547053
 21
228.1499999999767
 31
0.0
  0
LINE
  5
145
330
1F
100
AcDbEntity
  8
0
100
AcDbLine
 10
100.0000028547586
 20
231.1499999999733
 30
0.0
 11
100.0000028547053
 21
228.1499999999767
 31
0.0
  0
LINE
  5
146
330
1F
100
AcDbEntity
  8
0
100
AcDbLine
 10
84.00000285475912
 20
237.1499999999882
 30
0.0
 11
102.5000028547591
 21
237.1499999999893
 31
0.0
  0
LINE
  5
147
330
1F
100
AcDbEntity
  8
0
100
AcDbLine
 10
84.00000285475912
 20
237.1499999999882
 30
0.0
 11
84.00000285475858
 21
243.1499999999907
 31
0.0
  0
LINE
  5
148
330
1F
100
AcDbEntity
  8
0
100
AcDbLine
 10
74.00000285475869
 20
243.1499999999907
 30
0.0
 11
84.00000285475858
 21
243.1499999999907
 31
0.0
  0
LINE
  5
149
330
1F
100
AcDbEntity
  8
0
100
AcDbLine
 10
74.00000285475915
 20
237.1499999999882
 30
0.0
 11
74.00000285475869
 21
243.1499999999907
 31
0.0
  0
LINE
  5
14A
330
1F
100
AcDbEntity
  8
0
100
AcDbLine
 10
30.0000028547594
 20
237.1499999999697
 30
0.0
 11
74.00000285475915
 21
237.1499999999882
 31
0.0
  0
LINE
  5
14B
330
1F
100
AcDbEntity
  8
0
100
AcDbLine
 10
30.0000028547594
 20
237.1499999999697
 30
0.0
 11
30.00000000120003
 21
243.1499999999719
 31
0.0
  0
LINE
  5
14C
330
1F
100
AcDbEntity
  8
0
100
AcDbLine
 10
20.00000000120005
 20
243.1499999999719
 30
0.0
 11
30.00000000120003
 21
243.1499999999719
 31
0.0
  0
LINE
  5
14D
330
1F
100
AcDbEntity
  8
0
100
AcDbLine
 10
20.00000000120059
 20
237.1499999999697
 30
0.0
 11
20.00000000120005
 21
243.1499999999719
 31
0.0
  0
LINE
  5
14E
330
1F
100
AcDbEntity
  8
0
100
AcDbLine
 10
20.00000000120059
 20
237.1499999999697
 30
0.0
 11
1.50000000120128
 21
237.149999999989
 31
0.0
  0
LINE
  5
14F
330
1F
100
AcDbEntity
  8
0
100
AcDbLine
 10
1.50000000120128
 20
237.149999999989
 30
0.0
 11
1.500000001200829
 21
231.1499999999736
 31
0.0
  0
LINE
  5
150
330
1F
100
AcDbEntity
  8
0
100
AcDbLine
 10
1.500000001200829
 20
231.1499999999736
 30
0.0
 11
4.000000001200802
 21
231.1499999999735
 31
0.0
  0
LINE
  5
151
330
1F
100
AcDbEntity
  8
0
100
AcDbLine
 10
-1.49999999879921
 20
231.1499999999733
 30
0.0
 11
-3.999999998799273
 21
231.1499999999733
 31
0.0
  0
LINE
  5
152
330
1F
100
AcDbEntity
  8
0
100
AcDbLine
 10
-1.499999998798759
 20
237.1499999999893
 30
0.0
 11
-1.49999999879921
 21
231.1499999999733
 31
0.0
  0
LINE
  5
153
330
1F
100
AcDbEntity
  8
0
100
AcDbLine
 10
-19.99999999879942
 20
237.1499999999633
 30
0.0
 11
-19.99999999879996
 21
243.1499999999634
 31
0.0
  0
LINE
  5
154
330
1F
100
AcDbEntity
  8
0
100
AcDbLine
 10
-29.99999999879995
 20
243.1499999999634
 30
0.0
 11
-19.99999999879996
 21
243.1499999999634
 31
0.0
  0
LINE
  5
155
330
1F
100
AcDbEntity
  8
0
100
AcDbLine
 10
-29.99999999879941
 20
237.1499999999633
 30
0.0
 11
-29.99999999879995
 21
243.1499999999634
 31
0.0
  0
LINE
  5
156
330
1F
100
AcDbEntity
  8
0
100
AcDbLine
 10
-73.99999999880005
 20
237.1499999999448
 30
0.0
 11
-29.99999999879941
 21
237.1499999999633
 31
0.0
  0
LINE
  5
157
330
1F
100
AcDbEntity
  8
0
100
AcDbLine
 10
-83.99999999880012
 20
243.1499999999551
 30
0.0
 11
-73.99999999880023
 21
243.1499999999551
 31
0.0
  0
LINE
  5
158
330
1F
100
AcDbEntity
  8
0
100
AcDbLine
 10
-102.4999999987995
 20
237.149999999944
 30
0.0
 11
-83.99999999879994
 21
237.1499999999448
 31
0.0
  0
LINE
  5
159
330
1F
100
AcDbEntity
  8
0
100
AcDbLine
 10
-102.4999999987995
 20
237.149999999944
 30
0.0
 11
-102.4999999988
 21
231.1499999999287
 31
0.0
  0
LINE
  5
15A
330
1F
100
AcDbEntity
  8
0
100
AcDbLine
 10
-102.4999999988
 20
231.1499999999287
 30
0.0
 11
-99.99999999879998
 21
231.1499999999285
 31
0.0
  0
LINE
  5
15B
330
1F
100
AcDbEntity
  8
0
100
AcDbLine
 10
-99.99999999879998
 20
231.1499999999285
 30
0.0
 11
-99.99999999880016
 21
228.1499999999315
 31
0.0
  0
LINE
  5
15C
330
1F
100
AcDbEntity
  8
0
100
AcDbLine
 10
-102.4999999988001
 20
228.1499999999315
 30
0.0
 11
-99.99999999880016
 21
228.1499999999315
 31
0.0
  0
LINE
  5
15D
330
1F
100
AcDbEntity
  8
0
100
AcDbLine
 10
-102.4999999988001
 20
228.1499999999315
 30
0.0
 11
-102.4999999988005
 21
226.1500000000178
 31
0.0
  0
LINE
  5
15E
330
1F
100
AcDbEntity
  8
0
100
AcDbLine
 10
-105.4999999988005
 20
226.1500000000182
 30
0.0
 11
-102.4999999988005
 21
226.1500000000178
 31
0.0
  0
LINE
  5
15F
330
1F
100
AcDbEntity
  8
0
100
AcDbLine
 10
-105.4999999988002
 20
228.1499999999315
 30
0.0
 11
-105.4999999988005
 21
226.1500000000182
 31
0.0
  0
LINE
  5
160
330
1F
100
AcDbEntity
  8
0
100
AcDbLine
 10
-105.4999999988002
 20
228.1499999999315
 30
0.0
 11
-107.9999999988002
 21
228.1499999999317
 31
0.0
  0
LINE
  5
161
330
1F
100
AcDbEntity
  8
0
100
AcDbLine
 10
-105.4999999988
 20
231.1499999999284
 30
0.0
 11
-107.9999999988
 21
231.1499999999284
 31
0.0
  0
LINE
  5
162
330
1F
100
AcDbEntity
  8
0
100
AcDbLine
 10
-105.4999999987995
 20
237.1499999999444
 30
0.0
 11
-105.4999999988
 21
231.1499999999284
 31
0.0
  0
LINE
  5
163
330
1F
100
AcDbEntity
  8
0
100
AcDbLine
 10
-123.9999999987991
 20
237.1499999999437
 30
0.0
 11
-105.4999999987995
 21
237.1499999999444
 31
0.0
  0
LINE
  5
164
330
1F
100
AcDbEntity
  8
0
100
AcDbLine
 10
-123.9999999987991
 20
237.1499999999437
 30
0.0
 11
-123.9999999987989
 21
243.1499999999448
 31
0.0
  0
LINE
  5
165
330
1F
100
AcDbEntity
  8
0
100
AcDbLine
 10
-133.9999999987184
 20
243.1499999999463
 30
0.0
 11
-123.9999999987989
 21
243.1499999999448
 31
0.0
  0
LINE
  5
166
330
1F
100
AcDbEntity
  8
0
100
AcDbLine
 10
-133.9999999987184
 20
243.1499999999463
 30
0.0
 11
-133.9999999987182
 21
237.1499999999913
 31
0.0
  0
LINE
  5
167
330
1F
100
AcDbEntity
  8
0
100
AcDbLine
 10
-143.9999999987184
 20
237.1499999999904
 30
0.0
 11
-133.9999999987182
 21
237.1499999999913
 31
0.0
  0
LINE
  5
168
330
1F
100
AcDbEntity
  8
0
100
AcDbLine
 10
-143.9999999897926
 20
222.1500000001193
 30
0.0
 11
-143.9999999987184
 21
237.1499999999904
 31
0.0
  0
LINE
  5
169
330
1F
100
AcDbEntity
  8
0
100
AcDbLine
 10
-143.9999999897926
 20
222.1500000001193
 30
0.0
 11
-149.9999999897475
 21
222.1500000002565
 31
0.0
  0
LINE
  5
16A
330
1F
100
AcDbEntity
  8
0
100
AcDbLine
 10
-149.9999999899754
 20
212.1500000003375
 30
0.0
 11
-149.9999999897475
 21
222.1500000002565
 31
0.0
  0
LINE
  5
16B
330
1F
100
AcDbEntity
  8
0
100
AcDbLine
 10
-143.9999999899743
 20
212.1500000002009
 30
0.0
 11
-149.9999999899754
 21
212.1500000003375
 31
0.0
  0
LINE
  5
16C
330
1F
100
AcDbEntity
  8
0
100
AcDbLine
 10
-143.9999999903962
 20
193.6500000002009
 30
0.0
 11
-137.9999999903742
 21
193.649999999973
 31
0.0
  0
LINE
  5
16D
330
1F
100
AcDbEntity
  8
0
100
AcDbLine
 10
-137.9999999903742
 20
193.649999999973
 30
0.0
 11
-137.9999999903172
 21
196.1499999999729
 31
0.0
  0
LINE
  5
16E
330
1F
100
AcDbEntity
  8
0
100
AcDbLine
 10
-134.9999999904616
 20
193.649999999882
 30
0.0
 11
-134.9999999904046
 21
196.1499999998814
 31
0.0
  0
LINE
  5
16F
330
1F
100
AcDbEntity
  8
0
100
AcDbLine
 10
-134.9999999904616
 20
193.649999999882
 30
0.0
 11
-132.9999999903766
 21
193.6499999997679
 31
0.0
  0
LINE
  5
170
330
1F
100
AcDbEntity
  8
0
100
AcDbLine
 10
-132.9999999903766
 20
193.6499999997679
 30
0.0
 11
-132.9999999904449
 21
190.6499999997677
 31
0.0
  0
LINE
  5
171
330
1F
100
AcDbEntity
  8
0
100
AcDbLine
 10
-134.9999999905301
 20
190.6499999998813
 30
0.0
 11
-132.9999999904449
 21
190.6499999997677
 31
0.0
  0
LINE
  5
172
330
1F
100
AcDbEntity
  8
0
100
AcDbLine
 10
-134.9999999905301
 20
190.6499999998813
 30
0.0
 11
-134.9999999905872
 21
188.1499999998816
 31
0.0
  0
LINE
  5
173
330
1F
100
AcDbEntity
  8
0
100
AcDbLine
 10
-137.9999999905001
 20
188.1499999999728
 30
0.0
 11
-134.9999999905872
 21
188.1499999998816
 31
0.0
  0
LINE
  5
174
330
1F
100
AcDbEntity
  8
0
100
AcDbLine
 10
-137.9999999904431
 20
190.6499999999724
 30
0.0
 11
-137.9999999905001
 21
188.1499999999728
 31
0.0
  0
LINE
  5
175
330
1F
100
AcDbEntity
  8
0
100
AcDbLine
 10
-143.9999999904644
 20
190.6500000002003
 30
0.0
 11
-137.9999999904431
 21
190.6499999999724
 31
0.0
  0
LINE
  5
176
330
1F
100
AcDbEntity
  8
0
100
AcDbLine
 10
-143.9999999908873
 20
172.1500000002011
 30
0.0
 11
-149.9999999908978
 21
172.1500000003383
 31
0.0
  0
LINE
  5
177
330
1F
100
AcDbEntity
  8
0
100
AcDbLine
 10
-149.9999999911271
 20
162.1500000003384
 30
0.0
 11
-149.9999999908978
 21
172.1500000003383
 31
0.0
  0
LINE
  5
178
330
1F
100
AcDbEntity
  8
0
100
AcDbLine
 10
-143.9999999911166
 20
162.1500000002009
 30
0.0
 11
-149.9999999911271
 21
162.1500000003384
 31
0.0
  0
LINE
  5
179
330
1F
100
AcDbEntity
  8
0
100
AcDbLine
 10
-143.9999999899598
 20
94.05000000012038
 30
0.0
 11
-143.9999999911166
 21
162.1500000002009
 31
0.0
  0
LINE
  5
17A
330
1F
100
AcDbEntity
  8
0
100
AcDbLine
 10
-143.9999999899598
 20
94.05000000012038
 30
0.0
 11
-149.9999999899147
 21
94.05000000025754
 31
0.0
  0
LINE
  5
17B
330
1F
100
AcDbEntity
  8
0
100
AcDbLine
 10
-149.9999999901426
 20
84.0500000003385
 30
0.0
 11
-149.9999999899147
 21
94.05000000025754
 31
0.0
  0
LINE
  5
17C
330
1F
100
AcDbEntity
  8
0
100
AcDbLine
 10
-143.9999999901415
 20
84.05000000020188
 30
0.0
 11
-149.9999999901426
 21
84.0500000003385
 31
0.0
  0
LINE
  5
17D
330
1F
100
AcDbEntity
  8
0
100
AcDbLine
 10
-143.9999999905634
 20
65.55000000020193
 30
0.0
 11
-137.9999999905415
 21
65.54999999997399
 31
0.0
  0
LINE
  5
17E
330
1F
100
AcDbEntity
  8
0
100
AcDbLine
 10
-137.9999999904845
 20
68.04999999997396
 30
0.0
 11
-134.9999999905718
 21
68.04999999988246
 31
0.0
  0
LINE
  5
17F
330
1F
100
AcDbEntity
  8
0
100
AcDbLine
 10
-134.9999999906289
 20
65.54999999988303
 30
0.0
 11
-134.9999999905718
 21
68.04999999988246
 31
0.0
  0
LINE
  5
180
330
1F
100
AcDbEntity
  8
0
100
AcDbLine
 10
-137.9999999906104
 20
62.54999999997341
 30
0.0
 11
-137.9999999906674
 21
60.0499999999738
 31
0.0
  0
LINE
  5
181
330
1F
100
AcDbEntity
  8
0
100
AcDbLine
 10
-143.9999999906317
 20
62.55000000020136
 30
0.0
 11
-137.9999999906104
 21
62.54999999997341
 31
0.0
  0
LINE
  5
182
330
1F
100
AcDbEntity
  8
0
100
AcDbLine
 10
-143.9999999910546
 20
44.05000000020213
 30
0.0
 11
-149.999999991065
 21
44.0500000003393
 31
0.0
  0
LINE
  5
183
330
1F
100
AcDbEntity
  8
0
100
AcDbLine
 10
-143.9999999912839
 20
34.05000000020188
 30
0.0
 11
-149.9999999912944
 21
34.0500000003394
 31
0.0
  0
LINE
  5
184
330
1F
100
AcDbEntity
  8
0
100
AcDbLine
 10
-143.9999999998977
 20
-34.05000000012739
 30
0.0
 11
-143.9999999912839
 21
34.05000000020188
 31
0.0
  0
LINE
  5
185
330
1F
100
AcDbEntity
  8
0
100
AcDbLine
 10
-143.9999999998977
 20
-34.05000000012739
 30
0.0
 11
-149.9999999998525
 21
-34.04999999999023
 31
0.0
  0
LINE
  5
186
330
1F
100
AcDbEntity
  8
0
100
AcDbLine
 10
-150.0000000000804
 20
-44.04999999990931
 30
0.0
 11
-149.9999999998525
 21
-34.04999999999023
 31
0.0
  0
LINE
  5
187
330
1F
100
AcDbEntity
  8
0
100
AcDbLine
 10
-144.0000000000794
 20
-44.05000000004593
 30
0.0
 11
-150.0000000000804
 21
-44.04999999990931
 31
0.0
  0
LINE
  5
188
330
1F
100
AcDbEntity
  8
0
100
AcDbLine
 10
-144.0000000005012
 20
-62.55000000004588
 30
0.0
 11
-144.0000000000794
 21
-44.05000000004593
 31
0.0
  0
LINE
  5
189
330
1F
100
AcDbEntity
  8
0
100
AcDbLine
 10
-144.0000000005012
 20
-62.55000000004588
 30
0.0
 11
-138.0000000007724
 21
-62.55000000027382
 31
0.0
  0
LINE
  5
18A
330
1F
100
AcDbEntity
  8
0
100
AcDbLine
 10
-138.0000000007724
 20
-62.55000000027382
 30
0.0
 11
-138.0000000007154
 21
-60.05000000027385
 31
0.0
  0
LINE
  5
18B
330
1F
100
AcDbEntity
  8
0
100
AcDbLine
 10
-138.0000000007154
 20
-60.05000000027385
 30
0.0
 11
-135.0000000007157
 21
-60.05000000036534
 31
0.0
  0
LINE
  5
18C
330
1F
100
AcDbEntity
  8
0
100
AcDbLine
 10
-135.0000000007728
 20
-62.55000000036478
 30
0.0
 11
-135.0000000007157
 21
-60.05000000036534
 31
0.0
  0
LINE
  5
18D
330
1F
100
AcDbEntity
  8
0
100
AcDbLine
 10
-135.0000000007728
 20
-62.55000000036478
 30
0.0
 11
-133.0000000007712
 21
-62.55000000047884
 31
0.0
  0
LINE
  5
18E
330
1F
100
AcDbEntity
  8
0
100
AcDbLine
 10
-133.0000000007712
 20
-62.55000000047884
 30
0.0
 11
-133.0000000008394
 21
-65.55000000047906
 31
0.0
  0
LINE
  5
18F
330
1F
100
AcDbEntity
  8
0
100
AcDbLine
 10
-135.0000000008413
 20
-65.55000000036554
 30
0.0
 11
-133.0000000008394
 21
-65.55000000047906
 31
0.0
  0
LINE
  5
190
330
1F
100
AcDbEntity
  8
0
100
AcDbLine
 10
-135.0000000008413
 20
-65.55000000036554
 30
0.0
 11
-135.0000000008983
 21
-68.05000000036515
 31
0.0
  0
LINE
  5
191
330
1F
100
AcDbEntity
  8
0
100
AcDbLine
 10
-138.0000000008983
 20
-68.05000000027401
 30
0.0
 11
-135.0000000008983
 21
-68.05000000036515
 31
0.0
  0
LINE
  5
192
330
1F
100
AcDbEntity
  8
0
100
AcDbLine
 10
-138.0000000008413
 20
-65.5500000002744
 30
0.0
 11
-138.0000000008983
 21
-68.05000000027401
 31
0.0
  0
LINE
  5
193
330
1F
100
AcDbEntity
  8
0
100
AcDbLine
 10
-144.0000000005695
 20
-65.55000000004645
 30
0.0
 11
-138.0000000008413
 21
-65.5500000002744
 31
0.0
  0
LINE
  5
194
330
1F
100
AcDbEntity
  8
0
100
AcDbLine
 10
-144.0000000009924
 20
-84.05000000004567
 30
0.0
 11
-144.0000000005695
 21
-65.55000000004645
 31
0.0
  0
LINE
  5
195
330
1F
100
AcDbEntity
  8
0
100
AcDbLine
 10
-144.0000000009924
 20
-84.05000000004567
 30
0.0
 11
-150.0000000010029
 21
-84.04999999990851
 31
0.0
  0
LINE
  5
196
330
1F
100
AcDbEntity
  8
0
100
AcDbLine
 10
-150.0000000012322
 20
-94.04999999990841
 30
0.0
 11
-150.0000000010029
 21
-84.04999999990851
 31
0.0
  0
LINE
  5
197
330
1F
100
AcDbEntity
  8
0
100
AcDbLine
 10
-144.0000000012217
 20
-94.05000000004593
 30
0.0
 11
-150.0000000012322
 21
-94.04999999990841
 31
0.0
  0
LINE
  5
198
330
1F
100
AcDbEntity
  8
0
100
AcDbLine
 10
-143.9999999986042
 20
-162.1499999999659
 30
0.0
 11
-144.0000000012217
 21
-94.05000000004593
 31
0.0
  0
LINE
  5
199
330
1F
100
AcDbEntity
  8
0
100
AcDbLine
 10
-143.9999999992078
 20
-190.6499999998843
 30
0.0
 11
-143.9999999987859
 21
-172.1499999998844
 31
0.0
  0
LINE
  5
19A
330
1F
100
AcDbEntity
  8
0
100
AcDbLine
 10
-137.9999999994789
 20
-190.6500000001123
 30
0.0
 11
-137.9999999994219
 21
-188.1500000001123
 31
0.0
  0
LINE
  5
19B
330
1F
100
AcDbEntity
  8
0
100
AcDbLine
 10
-137.9999999994219
 20
-188.1500000001123
 30
0.0
 11
-134.9999999994223
 21
-188.1500000002038
 31
0.0
  0
LINE
  5
19C
330
1F
100
AcDbEntity
  8
0
100
AcDbLine
 10
-134.9999999994793
 20
-190.6500000002032
 30
0.0
 11
-134.9999999994223
 21
-188.1500000002038
 31
0.0
  0
LINE
  5
19D
330
1F
100
AcDbEntity
  8
0
100
AcDbLine
 10
-134.9999999994793
 20
-190.6500000002032
 30
0.0
 11
-132.9999999994777
 21
-190.6500000003173
 31
0.0
  0
LINE
  5
19E
330
1F
100
AcDbEntity
  8
0
100
AcDbLine
 10
-132.9999999994777
 20
-190.6500000003173
 30
0.0
 11
-132.999999999546
 21
-193.6500000003175
 31
0.0
  0
LINE
  5
19F
330
1F
100
AcDbEntity
  8
0
100
AcDbLine
 10
-134.9999999995478
 20
-193.650000000204
 30
0.0
 11
-132.999999999546
 21
-193.6500000003175
 31
0.0
  0
LINE
  5
1A0
330
1F
100
AcDbEntity
  8
0
100
AcDbLine
 10
-137.9999999995478
 20
-193.6500000001128
 30
0.0
 11
-137.9999999996049
 21
-196.1500000001124
 31
0.0
  0
LINE
  5
1A1
330
1F
100
AcDbEntity
  8
0
100
AcDbLine
 10
-143.999999999699
 20
-212.1499999998841
 30
0.0
 11
-143.999999999276
 21
-193.6499999998849
 31
0.0
  0
LINE
  5
1A2
330
1F
100
AcDbEntity
  8
0
100
AcDbLine
 10
-143.9999999987184
 20
-237.1500000000011
 30
0.0
 11
-143.9999999999282
 21
-222.1499999998844
 31
0.0
  0
LINE
  5
1A3
330
1F
100
AcDbEntity
  8
0
100
AcDbLine
 10
-133.9999999987182
 20
-237.150000000002
 30
0.0
 11
-143.9999999987184
 21
-237.1500000000011
 31
0.0
  0
LINE
  5
1A4
330
1F
100
AcDbEntity
  8
0
100
AcDbLine
 10
-133.9999999987184
 20
-243.1499999999905
 30
0.0
 11
-133.9999999987182
 21
-237.150000000002
 31
0.0
  0
LINE
  5
1A5
330
1F
100
AcDbEntity
  8
0
100
AcDbLine
 10
-123.9999999987991
 20
-237.1499999999541
 30
0.0
 11
-123.9999999987989
 21
-243.1499999999891
 31
0.0
  0
LINE
  5
1A6
330
1F
100
AcDbEntity
  8
0
100
AcDbLine
 10
-105.4999999987995
 20
-237.1499999999547
 30
0.0
 11
-105.4999999988
 21
-231.1499999999674
 31
0.0
  0
LINE
  5
1A7
330
1F
100
AcDbEntity
  8
0
100
AcDbLine
 10
-102.4999999988001
 20
-226.1500000000635
 30
0.0
 11
-105.4999999988004
 21
-226.1500000000635
 31
0.0
  0
LINE
  5
1A8
330
1F
100
AcDbEntity
  8
0
100
AcDbLine
 10
-102.4999999988001
 20
-228.1499999999624
 30
0.0
 11
-102.4999999988001
 21
-226.1500000000635
 31
0.0
  0
LINE
  5
1A9
330
1F
100
AcDbEntity
  8
0
100
AcDbLine
 10
-102.4999999987995
 20
-237.1499999999547
 30
0.0
 11
-102.4999999988
 21
-231.1499999999677
 31
0.0
  0
LINE
  5
1AA
330
1F
100
AcDbEntity
  8
0
100
AcDbLine
 10
-83.99999999879998
 20
-237.1499999999552
 30
0.0
 11
-102.4999999987995
 21
-237.1499999999547
 31
0.0
  0
LINE
  5
1AB
330
1F
100
AcDbEntity
  8
0
100
AcDbLine
 10
-83.99999999879998
 20
-237.1499999999552
 30
0.0
 11
-83.99999999880035
 21
-243.1499999999878
 31
0.0
  0
LINE
  5
1AC
330
1F
100
AcDbEntity
  8
0
100
AcDbLine
 10
-73.99999999880036
 20
-243.1499999999878
 30
0.0
 11
-83.99999999880035
 21
-243.1499999999878
 31
0.0
  0
LINE
  5
1AD
330
1F
100
AcDbEntity
  8
0
100
AcDbLine
 10
-73.9999999988
 20
-237.1499999999552
 30
0.0
 11
-73.99999999880036
 21
-243.1499999999878
 31
0.0
  0
LINE
  5
1AE
330
1F
100
AcDbEntity
  8
0
100
AcDbLine
 10
-29.9999999987995
 20
-237.1499999999738
 30
0.0
 11
-73.9999999988
 21
-237.1499999999552
 31
0.0
  0
LINE
  5
1AF
330
1F
100
AcDbEntity
  8
0
100
AcDbLine
 10
-29.9999999987995
 20
-237.1499999999738
 30
0.0
 11
-29.99999999879995
 21
-243.1499999999497
 31
0.0
  0
LINE
  5
1B0
330
1F
100
AcDbEntity
  8
0
100
AcDbLine
 10
-19.99999999879996
 20
-243.1499999999497
 30
0.0
 11
-29.99999999879995
 21
-243.1499999999497
 31
0.0
  0
LINE
  5
1B1
330
1F
100
AcDbEntity
  8
0
100
AcDbLine
 10
-19.99999999879942
 20
-237.1499999999738
 30
0.0
 11
-19.99999999879996
 21
-243.1499999999497
 31
0.0
  0
LINE
  5
1B2
330
1F
100
AcDbEntity
  8
0
100
AcDbLine
 10
-1.499999998798759
 20
-237.1499999999998
 30
0.0
 11
-1.499999998799301
 21
-231.1500000000125
 31
0.0
  0
LINE
  5
1B3
330
1F
100
AcDbEntity
  8
0
100
AcDbLine
 10
-1.499999998799301
 20
-231.1500000000125
 30
0.0
 11
-3.999999998799273
 21
-231.1500000000125
 31
0.0
  0
LINE
  5
1B4
330
1F
100
AcDbEntity
  8
0
100
AcDbLine
 10
-3.999999998799273
 20
-231.1500000000125
 30
0.0
 11
-3.999999998799454
 21
-228.1500000000072
 31
0.0
  0
LINE
  5
1B5
330
1F
100
AcDbEntity
  8
0
100
AcDbLine
 10
-1.499999998799481
 20
-228.1500000000072
 30
0.0
 11
-3.999999998799454
 21
-228.1500000000072
 31
0.0
  0
LINE
  5
1B6
330
1F
100
AcDbEntity
  8
0
100
AcDbLine
 10
-1.499999998799481
 20
-228.1500000000072
 30
0.0
 11
-1.499999998799662
 21
-226.1500000000812
 31
0.0
  0
LINE
  5
1B7
330
1F
100
AcDbEntity
  8
0
100
AcDbLine
 10
-1.499999998799662
 20
-226.1500000000812
 30
0.0
 11
1.500000001200378
 21
-226.150000000081
 31
0.0
  0
LINE
  5
1B8
330
1F
100
AcDbEntity
  8
0
100
AcDbLine
 10
1.500000001200559
 20
-228.1500000000072
 30
0.0
 11
1.500000001200378
 21
-226.150000000081
 31
0.0
  0
LINE
  5
1B9
330
1F
100
AcDbEntity
  8
0
100
AcDbLine
 10
1.500000001200559
 20
-228.1500000000072
 30
0.0
 11
4.000000001200622
 21
-228.1500000000072
 31
0.0
  0
LINE
  5
1BA
330
1F
100
AcDbEntity
  8
0
100
AcDbLine
 10
4.000000001200802
 20
-231.1500000000125
 30
0.0
 11
4.000000001200622
 21
-228.1500000000072
 31
0.0
  0
LINE
  5
1BB
330
1F
100
AcDbEntity
  8
0
100
AcDbLine
 10
1.500000001200739
 20
-231.1500000000127
 30
0.0
 11
4.000000001200802
 21
-231.1500000000125
 31
0.0
  0
LINE
  5
1BC
330
1F
100
AcDbEntity
  8
0
100
AcDbLine
 10
1.50000000120128
 20
-237.1499999999996
 30
0.0
 11
1.500000001200739
 21
-231.1500000000127
 31
0.0
  0
LINE
  5
1BD
330
1F
100
AcDbEntity
  8
0
100
AcDbLine
 10
20.0000000012005
 20
-237.1499999999805
 30
0.0
 11
1.50000000120128
 21
-237.1499999999996
 31
0.0
  0
LINE
  5
1BE
330
1F
100
AcDbEntity
  8
0
100
AcDbLine
 10
20.0000000012005
 20
-237.1499999999805
 30
0.0
 11
20.00000000119996
 21
-243.1499999999878
 31
0.0
  0
LINE
  5
1BF
330
1F
100
AcDbEntity
  8
0
100
AcDbLine
 10
30.00000000119994
 20
-243.1499999999878
 30
0.0
 11
20.00000000119996
 21
-243.1499999999878
 31
0.0
  0
LINE
  5
1C0
330
1F
100
AcDbEntity
  8
0
100
AcDbLine
 10
30.00000000120058
 20
-237.1499999999805
 30
0.0
 11
30.00000000119994
 21
-243.1499999999878
 31
0.0
  0
LINE
  5
1C1
330
1F
100
AcDbEntity
  8
0
100
AcDbLine
 10
74.0000000012004
 20
-237.1499999999989
 30
0.0
 11
30.00000000120058
 21
-237.1499999999805
 31
0.0
  0
LINE
  5
1C2
330
1F
100
AcDbEntity
  8
0
100
AcDbLine
 10
74.0000000012004
 20
-237.1499999999989
 30
0.0
 11
74.00000000120004
 21
-243.1499999999894
 31
0.0
  0
LINE
  5
1C3
330
1F
100
AcDbEntity
  8
0
100
AcDbLine
 10
84.00000000119994
 20
-243.1499999999894
 30
0.0
 11
74.00000000120004
 21
-243.1499999999894
 31
0.0
  0
LINE
  5
1C4
330
1F
100
AcDbEntity
  8
0
100
AcDbLine
 10
84.00000000120039
 20
-237.1499999999989
 30
0.0
 11
84.00000000119994
 21
-243.1499999999894
 31
0.0
  0
LINE
  5
1C5
330
1F
100
AcDbEntity
  8
0
100
AcDbLine
 10
102.5000000012004
 20
-237.1499999999998
 30
0.0
 11
84.00000000120039
 21
-237.1499999999989
 31
0.0
  0
LINE
  5
1C6
330
1F
100
AcDbEntity
  8
0
100
AcDbLine
 10
102.5000000012004
 20
-237.1499999999998
 30
0.0
 11
102.5000000011999
 21
-231.1500000000125
 31
0.0
  0
LINE
  5
1C7
330
1F
100
AcDbEntity
  8
0
100
AcDbLine
 10
102.5000000011997
 20
-228.1500000000072
 30
0.0
 11
100.0000000011997
 21
-228.1500000000072
 31
0.0
  0
LINE
  5
1C8
330
1F
100
AcDbEntity
  8
0
100
AcDbLine
 10
102.5000000011997
 20
-228.1500000000072
 30
0.0
 11
102.5000000011995
 21
-226.1500000000779
 31
0.0
  0
LINE
  5
1C9
330
1F
100
AcDbEntity
  8
0
100
AcDbLine
 10
102.5000000011995
 20
-226.1500000000779
 30
0.0
 11
105.5000000011996
 21
-226.1500000000777
 31
0.0
  0
LINE
  5
1CA
330
1F
100
AcDbEntity
  8
0
100
AcDbLine
 10
105.5000000011997
 20
-228.1500000000072
 30
0.0
 11
105.5000000011996
 21
-226.1500000000777
 31
0.0
  0
LINE
  5
1CB
330
1F
100
AcDbEntity
  8
0
100
AcDbLine
 10
105.5000000011997
 20
-228.1500000000072
 30
0.0
 11
108.0000000011998
 21
-228.1500000000072
 31
0.0
  0
LINE
  5
1CC
330
1F
100
AcDbEntity
  8
0
100
AcDbLine
 10
108.0000000012
 20
-231.1500000000125
 30
0.0
 11
108.0000000011998
 21
-228.1500000000072
 31
0.0
  0
LINE
  5
1CD
330
1F
100
AcDbEntity
  8
0
100
AcDbLine
 10
105.5000000011999
 20
-231.1500000000127
 30
0.0
 11
108.0000000012
 21
-231.1500000000125
 31
0.0
  0
LINE
  5
1CE
330
1F
100
AcDbEntity
  8
0
100
AcDbLine
 10
105.5000000012005
 20
-237.1499999999996
 30
0.0
 11
105.5000000011999
 21
-231.1500000000127
 31
0.0
  0
LINE
  5
1CF
330
1F
100
AcDbEntity
  8
0
100
AcDbLine
 10
124.0000000012004
 20
-237.1499999999998
 30
0.0
 11
105.5000000012005
 21
-237.1499999999996
 31
0.0
  0
LINE
  5
1D0
330
1F
100
AcDbEntity
  8
0
100
AcDbLine
 10
124.0000000012004
 20
-237.1499999999998
 30
0.0
 11
124.0000000012
 21
-243.1499999999494
 31
0.0
  0
LINE
  5
1D1
330
1F
100
AcDbEntity
  8
0
100
AcDbLine
 10
134.0000000011999
 20
-243.1499999999494
 30
0.0
 11
124.0000000012
 21
-243.1499999999494
 31
0.0
  0
LINE
  5
1D2
330
1F
100
AcDbEntity
  8
0
100
AcDbLine
 10
134.0000000012004
 20
-237.1499999999998
 30
0.0
 11
134.0000000011999
 21
-243.1499999999494
 31
0.0
  0
LINE
  5
1D3
330
1F
100
AcDbEntity
  8
0
100
AcDbLine
 10
144.0000000012038
 20
-237.1500000000011
 30
0.0
 11
134.0000000012004
 21
-237.1499999999998
 31
0.0
  0
LINE
  5
1D4
330
1F
100
AcDbEntity
  8
0
100
AcDbLine
 10
144.000000001247
 20
-222.1499999998355
 30
0.0
 11
144.0000000012038
 21
-237.1500000000011
 31
0.0
  0
LINE
  5
1D5
330
1F
100
AcDbEntity
  8
0
100
AcDbLine
 10
144.000000001247
 20
-222.1499999998355
 30
0.0
 11
150.0000000012019
 21
-222.149999999836
 31
0.0
  0
LINE
  5
1D6
330
1F
100
AcDbEntity
  8
0
100
AcDbLine
 10
150.0000000012019
 20
-212.149999999917
 30
0.0
 11
150.0000000012019
 21
-222.149999999836
 31
0.0
  0
LINE
  5
1D7
330
1F
100
AcDbEntity
  8
0
100
AcDbLine
 10
144.000000001201
 20
-193.649999999917
 30
0.0
 11
144.0000000012008
 21
-212.149999999917
 31
0.0
  0
LINE
  5
1D8
330
1F
100
AcDbEntity
  8
0
100
AcDbLine
 10
144.000000001201
 20
-193.649999999917
 30
0.0
 11
138.0000000011831
 21
-193.6499999999172
 31
0.0
  0
LINE
  5
1D9
330
1F
100
AcDbEntity
  8
0
100
AcDbLine
 10
138.0000000011831
 20
-196.149999999917
 30
0.0
 11
135.0000000011166
 21
-196.1499999999168
 31
0.0
  0
LINE
  5
1DA
330
1F
100
AcDbEntity
  8
0
100
AcDbLine
 10
135.0000000011166
 20
-193.6499999999172
 30
0.0
 11
135.0000000011166
 21
-196.1499999999168
 31
0.0
  0
LINE
  5
1DB
330
1F
100
AcDbEntity
  8
0
100
AcDbLine
 10
133.0000000013133
 20
-193.6499999999172
 30
0.0
 11
133.0000000013132
 21
-190.649999999917
 31
0.0
  0
LINE
  5
1DC
330
1F
100
AcDbEntity
  8
0
100
AcDbLine
 10
135.0000000011168
 20
-190.6499999999166
 30
0.0
 11
133.0000000013132
 21
-190.649999999917
 31
0.0
  0
LINE
  5
1DD
330
1F
100
AcDbEntity
  8
0
100
AcDbLine
 10
135.0000000011168
 20
-190.6499999999166
 30
0.0
 11
135.0000000011168
 21
-188.149999999917
 31
0.0
  0
LINE
  5
1DE
330
1F
100
AcDbEntity
  8
0
100
AcDbLine
 10
138.0000000011836
 20
-188.149999999917
 30
0.0
 11
135.0000000011168
 21
-188.149999999917
 31
0.0
  0
LINE
  5
1DF
330
1F
100
AcDbEntity
  8
0
100
AcDbLine
 10
138.0000000011836
 20
-190.6499999999166
 30
0.0
 11
138.0000000011836
 21
-188.149999999917
 31
0.0
  0
LINE
  5
1E0
330
1F
100
AcDbEntity
  8
0
100
AcDbLine
 10
144.0000000012009
 20
-190.6499999999164
 30
0.0
 11
138.0000000011836
 21
-190.6499999999166
 31
0.0
  0
LINE
  5
1E1
330
1F
100
AcDbEntity
  8
0
100
AcDbLine
 10
144.0000000012021
 20
-172.1499999999172
 30
0.0
 11
144.0000000012009
 21
-190.6499999999164
 31
0.0
  0
LINE
  5
1E2
330
1F
100
AcDbEntity
  8
0
100
AcDbLine
 10
144.0000000012033
 20
-162.149999999917
 30
0.0
 11
150.0000000012139
 21
-162.1499999999177
 31
0.0
  0
LINE
  5
1E3
330
1F
100
AcDbEntity
  8
0
100
AcDbLine
 10
144.0000000012568
 20
-94.04999999982755
 30
0.0
 11
150.0000000012116
 21
-94.04999999982809
 31
0.0
  0
LINE
  5
1E4
330
1F
100
AcDbEntity
  8
0
100
AcDbLine
 10
150.0000000012115
 20
-84.04999999990905
 30
0.0
 11
150.0000000012116
 21
-94.04999999982809
 31
0.0
  0
LINE
  5
1E5
330
1F
100
AcDbEntity
  8
0
100
AcDbLine
 10
144.0000000012105
 20
-84.04999999990905
 30
0.0
 11
150.0000000012115
 21
-84.04999999990905
 31
0.0
  0
LINE
  5
1E6
330
1F
100
AcDbEntity
  8
0
100
AcDbLine
 10
144.0000000012107
 20
-65.5499999999091
 30
0.0
 11
138.0000000011928
 21
-65.54999999990929
 31
0.0
  0
LINE
  5
1E7
330
1F
100
AcDbEntity
  8
0
100
AcDbLine
 10
117.6549128457969
 20
-193.2168686487624
 30
0.0
 11
115.9512510541207
 21
-195.9888462279243
 31
0.0
  0
LINE
  5
1E8
330
1F
100
AcDbEntity
  8
0
100
AcDbLine
 10
115.9512510541207
 20
-195.9888462279243
 30
0.0
 11
114.104516230634
 21
-198.6676320893763
 31
0.0
  0
LINE
  5
1E9
330
1F
100
AcDbEntity
  8
0
100
AcDbLine
 10
111.3130039456411
 20
-199.1257088802756
 30
0.0
 11
112.2815487474408
 21
-199.4914587973867
 31
0.0
  0
LINE
  5
1EA
330
1F
100
AcDbEntity
  8
0
100
AcDbLine
 10
110.6570945011348
 20
-198.3246877597254
 30
0.0
 11
111.3130039456411
 21
-199.1257088802756
 31
0.0
  0
LINE
  5
1EB
330
1F
100
AcDbEntity
  8
0
100
AcDbLine
 10
110.4895708198852
 20
-197.3030283981079
 30
0.0
 11
110.6570945011348
 21
-198.3246877597254
 31
0.0
  0
LINE
  5
1EC
330
1F
100
AcDbEntity
  8
0
100
AcDbLine
 10
110.8553207369963
 20
-196.3344835963082
 30
0.0
 11
110.4895708198852
 21
-197.3030283981079
 31
0.0
  0
LINE
  5
1ED
330
1F
100
AcDbEntity
  8
0
100
AcDbLine
 10
112.5854177588202
 20
-193.8273922745888
 30
0.0
 11
110.8553207369963
 21
-196.3344835963082
 31
0.0
  0
LINE
  5
1EE
330
1F
100
AcDbEntity
  8
0
100
AcDbLine
 10
114.1815042023134
 20
-191.232926883557
 30
0.0
 11
112.5854177588202
 21
-193.8273922745888
 31
0.0
  0
LINE
  5
1EF
330
1F
100
AcDbEntity
  8
0
100
AcDbLine
 10
115.6391776669775
 20
-188.5582435993571
 30
0.0
 11
114.1815042023134
 21
-191.232926883557
 31
0.0
  0
LINE
  5
1F0
330
1F
100
AcDbEntity
  8
0
100
AcDbLine
 10
116.954417529485
 20
-185.810719858889
 30
0.0
 11
115.6391776669775
 21
-188.5582435993571
 31
0.0
  0
LINE
  5
1F1
330
1F
100
AcDbEntity
  8
0
100
AcDbLine
 10
118.1235960335509
 20
-182.997934011016
 30
0.0
 11
116.954417529485
 21
-185.810719858889
 31
0.0
  0
LINE
  5
1F2
330
1F
100
AcDbEntity
  8
0
100
AcDbLine
 10
119.143488296181
 20
-180.1276444136074
 30
0.0
 11
118.1235960335509
 21
-182.997934011016
 31
0.0
  0
LINE
  5
1F3
330
1F
100
AcDbEntity
  8
0
100
AcDbLine
 10
120.0112812026948
 20
-177.207768034072
 30
0.0
 11
119.143488296181
 21
-180.1276444136074
 31
0.0
  0
LINE
  5
1F4
330
1F
100
AcDbEntity
  8
0
100
AcDbLine
 10
120.7245811659906
 20
-174.246358612407
 30
0.0
 11
120.0112812026948
 21
-177.207768034072
 31
0.0
  0
LINE
  5
1F5
330
1F
100
AcDbEntity
  8
0
100
AcDbLine
 10
121.2814207286498
 20
-171.2515844469945
 30
0.0
 11
120.7245811659906
 21
-174.246358612407
 31
0.0
  0
LINE
  5
1F6
330
1F
100
AcDbEntity
  8
0
100
AcDbLine
 10
121.6802639896702
 20
-168.2317058644182
 30
0.0
 11
121.2814207286498
 21
-171.2515844469945
 31
0.0
  0
LINE
  5
1F7
330
1F
100
AcDbEntity
  8
0
100
AcDbLine
 10
121.92001084086
 20
-165.1950524354426
 30
0.0
 11
121.6802639896702
 21
-168.2317058644182
 31
0.0
  0
LINE
  5
1F8
330
1F
100
AcDbEntity
  8
0
100
AcDbLine
 10
122.0000000012081
 20
-162.1500000000007
 30
0.0
 11
121.92001084086
 21
-165.1950524354426
 31
0.0
  0
LINE
  5
1F9
330
1F
100
AcDbEntity
  8
0
100
AcDbLine
 10
124.0000000012082
 20
-160.1500000000007
 30
0.0
 11
123.0000000012082
 21
-160.4179491924318
 31
0.0
  0
LINE
  5
1FA
330
1F
100
AcDbEntity
  8
0
100
AcDbLine
 10
125.0000000012082
 20
-160.4179491924319
 30
0.0
 11
124.0000000012082
 21
-160.1500000000007
 31
0.0
  0
LINE
  5
1FB
330
1F
100
AcDbEntity
  8
0
100
AcDbLine
 10
125.732050808777
 20
-161.1500000000008
 30
0.0
 11
125.0000000012082
 21
-160.4179491924319
 31
0.0
  0
LINE
  5
1FC
330
1F
100
AcDbEntity
  8
0
100
AcDbLine
 10
126.0000000012082
 20
-162.1500000000008
 30
0.0
 11
125.732050808777
 21
-161.1500000000008
 31
0.0
  0
LINE
  5
1FD
330
1F
100
AcDbEntity
  8
0
100
AcDbLine
 10
126.0000000012082
 20
-162.1500000000008
 30
0.0
 11
125.9146264270161
 21
-165.4025427825977
 31
0.0
  0
LINE
  5
1FE
330
1F
100
AcDbEntity
  8
0
100
AcDbLine
 10
125.9146264270161
 20
-165.4025427825977
 30
0.0
 11
125.658740822091
 21
-168.6461281070475
 31
0.0
  0
LINE
  5
1FF
330
1F
100
AcDbEntity
  8
0
100
AcDbLine
 10
125.658740822091
 20
-168.6461281070475
 30
0.0
 11
125.2330478918739
 21
-171.8718231839195
 31
0.0
  0
LINE
  5
200
330
1F
100
AcDbEntity
  8
0
100
AcDbLine
 10
125.2330478918739
 20
-171.8718231839195
 30
0.0
 11
124.6387199888475
 21
-175.0707444932796
 31
0.0
  0
LINE
  5
201
330
1F
100
AcDbEntity
  8
0
100
AcDbLine
 10
124.6387199888475
 20
-175.0707444932796
 30
0.0
 11
123.8773938838932
 21
-178.2340822497812
 31
0.0
  0
LINE
  5
202
330
1F
100
AcDbEntity
  8
0
100
AcDbLine
 10
123.8773938838932
 20
-178.2340822497812
 30
0.0
 11
122.9511662586466
 21
-181.3531246646938
 31
0.0
  0
LINE
  5
203
330
1F
100
AcDbEntity
  8
0
100
AcDbLine
 10
122.9511662586466
 20
-181.3531246646938
 30
0.0
 11
121.8625879312653
 21
-184.419281938049
 31
0.0
  0
LINE
  5
204
330
1F
100
AcDbEntity
  8
0
100
AcDbLine
 10
119.2108097444893
 20
-190.3593333400684
 30
0.0
 11
117.6549128457969
 21
-193.2168686487624
 31
0.0
  0
LINE
  5
205
330
1F
100
AcDbEntity
  8
0
100
AcDbLine
 10
100.840527109955
 20
-202.478753393466
 30
0.0
 11
100.8916383691576
 21
-202.8669819596784
 31
0.0
  0
LINE
  5
206
330
1F
100
AcDbEntity
  8
0
100
AcDbLine
 10
100.8916383714656
 20
-202.0905248275574
 30
0.0
 11
100.840527109955
 21
-202.478753393466
 31
0.0
  0
LINE
  5
207
330
1F
100
AcDbEntity
  8
0
100
AcDbLine
 10
101.0414890056829
 20
-201.7287533971413
 30
0.0
 11
100.8916383714656
 21
-202.0905248275574
 31
0.0
  0
LINE
  5
208
330
1F
100
AcDbEntity
  8
0
100
AcDbLine
 10
101.2798669395249
 20
-201.4180932273449
 30
0.0
 11
101.0414890056829
 21
-201.7287533971413
 31
0.0
  0
LINE
  5
209
330
1F
100
AcDbEntity
  8
0
100
AcDbLine
 10
101.5905271107383
 20
-201.1797152953498
 30
0.0
 11
101.2798669395249
 21
-201.4180932273449
 31
0.0
  0
LINE
  5
20A
330
1F
100
AcDbEntity
  8
0
100
AcDbLine
 10
101.9522985420453
 20
-201.0298646632831
 30
0.0
 11
101.5905271107383
 21
-201.1797152953498
 31
0.0
  0
LINE
  5
20B
330
1F
100
AcDbEntity
  8
0
100
AcDbLine
 10
102.3405271082577
 20
-200.9787534040805
 30
0.0
 11
101.9522985420453
 21
-201.0298646632831
 31
0.0
  0
LINE
  5
20C
330
1F
100
AcDbEntity
  8
0
100
AcDbLine
 10
102.7287556741663
 20
-201.0298646655911
 30
0.0
 11
102.3405271082577
 21
-200.9787534040805
 31
0.0
  0
LINE
  5
20D
330
1F
100
AcDbEntity
  8
0
100
AcDbLine
 10
103.0905271045824
 20
-201.1797152998084
 30
0.0
 11
102.7287556741663
 21
-201.0298646655911
 31
0.0
  0
LINE
  5
20E
330
1F
100
AcDbEntity
  8
0
100
AcDbLine
 10
103.4011872743788
 20
-201.4180932336504
 30
0.0
 11
103.0905271045824
 21
-201.1797152998084
 31
0.0
  0
LINE
  5
20F
330
1F
100
AcDbEntity
  8
0
100
AcDbLine
 10
103.6395652063739
 20
-201.7287534048638
 30
0.0
 11
103.4011872743788
 21
-201.4180932336504
 31
0.0
  0
LINE
  5
210
330
1F
100
AcDbEntity
  8
0
100
AcDbLine
 10
103.7894158384406
 20
-202.0905248361708
 30
0.0
 11
103.6395652063739
 21
-201.7287534048638
 31
0.0
  0
LINE
  5
211
330
1F
100
AcDbEntity
  8
0
100
AcDbLine
 10
103.8405270976432
 20
-202.4787534023832
 30
0.0
 11
103.7894158384406
 21
-202.0905248361708
 31
0.0
  0
LINE
  5
212
330
1F
100
AcDbEntity
  8
0
100
AcDbLine
 10
103.7894158361326
 20
-202.8669819682918
 30
0.0
 11
103.8405270976432
 21
-202.4787534023832
 31
0.0
  0
LINE
  5
213
330
1F
100
AcDbEntity
  8
0
100
AcDbLine
 10
103.6395652019153
 20
-203.228753398708
 30
0.0
 11
103.7894158361326
 21
-202.8669819682918
 31
0.0
  0
LINE
  5
214
330
1F
100
AcDbEntity
  8
0
100
AcDbLine
 10
103.4011872680733
 20
-203.5394135685043
 30
0.0
 11
103.6395652019153
 21
-203.228753398708
 31
0.0
  0
LINE
  5
215
330
1F
100
AcDbEntity
  8
0
100
AcDbLine
 10
103.0905270968599
 20
-203.7777915004995
 30
0.0
 11
103.4011872680733
 21
-203.5394135685043
 31
0.0
  0
LINE
  5
216
330
1F
100
AcDbEntity
  8
0
100
AcDbLine
 10
102.728755665553
 20
-203.9276421325661
 30
0.0
 11
103.0905270968599
 21
-203.7777915004995
 31
0.0
  0
LINE
  5
217
330
1F
100
AcDbEntity
  8
0
100
AcDbLine
 10
102.3405270993405
 20
-203.9787533917687
 30
0.0
 11
102.728755665553
 21
-203.9276421325661
 31
0.0
  0
LINE
  5
218
330
1F
100
AcDbEntity
  8
0
100
AcDbLine
 10
101.9522985334319
 20
-203.9276421302581
 30
0.0
 11
102.3405270993405
 21
-203.9787533917687
 31
0.0
  0
LINE
  5
219
330
1F
100
AcDbEntity
  8
0
100
AcDbLine
 10
101.5905271030158
 20
-203.7777914960408
 30
0.0
 11
101.9522985334319
 21
-203.9276421302581
 31
0.0
  0
LINE
  5
21A
330
1F
100
AcDbEntity
  8
0
100
AcDbLine
 10
101.2798669332194
 20
-203.5394135621989
 30
0.0
 11
101.5905271030158
 21
-203.7777914960408
 31
0.0
  0
LINE
  5
21B
330
1F
100
AcDbEntity
  8
0
100
AcDbLine
 10
101.0414890012243
 20
-203.2287533909854
 30
0.0
 11
101.2798669332194
 21
-203.5394135621989
 31
0.0
  0
LINE
  5
21C
330
1F
100
AcDbEntity
  8
0
100
AcDbLine
 10
100.8916383691576
 20
-202.8669819596784
 30
0.0
 11
101.0414890012243
 21
-203.2287533909854
 31
0.0
  0
LINE
  5
21D
330
1F
100
AcDbEntity
  8
0
100
AcDbLine
 10
123.0854689060691
 20
-226.2015844521125
 30
0.0
 11
123.4472403384153
 21
-226.0517338183555
 31
0.0
  0
LINE
  5
21E
330
1F
100
AcDbEntity
  8
0
100
AcDbLine
 10
123.4472403384153
 20
-226.0517338183555
 30
0.0
 11
123.8354689060691
 21
-226.0006225577891
 31
0.0
  0
LINE
  5
21F
330
1F
100
AcDbEntity
  8
0
100
AcDbLine
 10
123.8354689060691
 20
-226.0006225577891
 30
0.0
 11
124.2236974737229
 21
-226.0517338183555
 31
0.0
  0
LINE
  5
220
330
1F
100
AcDbEntity
  8
0
100
AcDbLine
 10
124.2236974737229
 20
-226.0517338183555
 30
0.0
 11
124.5854689060691
 21
-226.2015844521125
 31
0.0
  0
LINE
  5
221
330
1F
100
AcDbEntity
  8
0
100
AcDbLine
 10
124.5854689060691
 20
-226.2015844521125
 30
0.0
 11
124.8961290778489
 21
-226.4399623860093
 31
0.0
  0
LINE
  5
222
330
1F
100
AcDbEntity
  8
0
100
AcDbLine
 10
124.8961290778489
 20
-226.4399623860093
 30
0.0
 11
125.1345070117458
 21
-226.7506225577891
 31
0.0
  0
LINE
  5
223
330
1F
100
AcDbEntity
  8
0
100
AcDbLine
 10
125.1345070117458
 20
-226.7506225577891
 30
0.0
 11
125.2843576455027
 21
-227.1123939901354
 31
0.0
  0
LINE
  5
224
330
1F
100
AcDbEntity
  8
0
100
AcDbLine
 10
125.2843576455027
 20
-227.1123939901354
 30
0.0
 11
125.3354689060691
 21
-227.5006225577891
 31
0.0
  0
LINE
  5
225
330
1F
100
AcDbEntity
  8
0
100
AcDbLine
 10
125.3354689060691
 20
-227.5006225577891
 30
0.0
 11
125.2843576455027
 21
-227.8888511254429
 31
0.0
  0
LINE
  5
226
330
1F
100
AcDbEntity
  8
0
100
AcDbLine
 10
125.2843576455027
 20
-227.8888511254429
 30
0.0
 11
125.1345070117458
 21
-228.2506225577891
 31
0.0
  0
LINE
  5
227
330
1F
100
AcDbEntity
  8
0
100
AcDbLine
 10
125.1345070117458
 20
-228.2506225577891
 30
0.0
 11
124.8961290778489
 21
-228.561282729569
 31
0.0
  0
LINE
  5
228
330
1F
100
AcDbEntity
  8
0
100
AcDbLine
 10
124.8961290778489
 20
-228.561282729569
 30
0.0
 11
124.5854689060691
 21
-228.7996606634658
 31
0.0
  0
LINE
  5
229
330
1F
100
AcDbEntity
  8
0
100
AcDbLine
 10
124.5854689060691
 20
-228.7996606634658
 30
0.0
 11
124.2236974737229
 21
-228.9495112972227
 31
0.0
  0
LINE
  5
22A
330
1F
100
AcDbEntity
  8
0
100
AcDbLine
 10
124.2236974737229
 20
-228.9495112972227
 30
0.0
 11
123.8354689060691
 21
-229.0006225577891
 31
0.0
  0
LINE
  5
22B
330
1F
100
AcDbEntity
  8
0
100
AcDbLine
 10
123.8354689060691
 20
-229.0006225577891
 30
0.0
 11
123.4472403384153
 21
-228.9495112972227
 31
0.0
  0
LINE
  5
22C
330
1F
100
AcDbEntity
  8
0
100
AcDbLine
 10
123.4472403384153
 20
-228.9495112972227
 30
0.0
 11
123.0854689060691
 21
-228.7996606634658
 31
0.0
  0
LINE
  5
22D
330
1F
100
AcDbEntity
  8
0
100
AcDbLine
 10
123.0854689060691
 20
-228.7996606634658
 30
0.0
 11
122.7748087342893
 21
-228.561282729569
 31
0.0
  0
LINE
  5
22E
330
1F
100
AcDbEntity
  8
0
100
AcDbLine
 10
122.7748087342893
 20
-228.561282729569
 30
0.0
 11
122.5364308003924
 21
-228.2506225577891
 31
0.0
  0
LINE
  5
22F
330
1F
100
AcDbEntity
  8
0
100
AcDbLine
 10
122.5364308003924
 20
-228.2506225577891
 30
0.0
 11
122.3865801666355
 21
-227.8888511254429
 31
0.0
  0
LINE
  5
230
330
1F
100
AcDbEntity
  8
0
100
AcDbLine
 10
122.3865801666355
 20
-227.8888511254429
 30
0.0
 11
122.3354689060691
 21
-227.5006225577891
 31
0.0
  0
LINE
  5
231
330
1F
100
AcDbEntity
  8
0
100
AcDbLine
 10
122.3354689060691
 20
-227.5006225577891
 30
0.0
 11
122.3865801666355
 21
-227.1123939901354
 31
0.0
  0
LINE
  5
232
330
1F
100
AcDbEntity
  8
0
100
AcDbLine
 10
122.3865801666355
 20
-227.1123939901354
 30
0.0
 11
122.5364308003924
 21
-226.7506225577892
 31
0.0
  0
LINE
  5
233
330
1F
100
AcDbEntity
  8
0
100
AcDbLine
 10
122.5364308003924
 20
-226.7506225577892
 30
0.0
 11
122.7748087342893
 21
-226.4399623860093
 31
0.0
  0
LINE
  5
234
330
1F
100
AcDbEntity
  8
0
100
AcDbLine
 10
122.7748087342893
 20
-226.4399623860093
 30
0.0
 11
123.0854689060691
 21
-226.2015844521125
 31
0.0
  0
LINE
  5
235
330
1F
100
AcDbEntity
  8
0
100
AcDbLine
 10
95.61198349143486
 20
-206.9819720295017
 30
0.0
 11
95.2237549252224
 21
-207.0330832887043
 31
0.0
  0
LINE
  5
236
330
1F
100
AcDbEntity
  8
0
100
AcDbLine
 10
96.00021205734343
 20
-207.0330832910123
 30
0.0
 11
95.61198349143486
 21
-206.9819720295017
 31
0.0
  0
LINE
  5
237
330
1F
100
AcDbEntity
  8
0
100
AcDbLine
 10
96.36198348775957
 20
-207.1829339252296
 30
0.0
 11
96.00021205734343
 21
-207.0330832910123
 31
0.0
  0
LINE
  5
238
330
1F
100
AcDbEntity
  8
0
100
AcDbLine
 10
96.67264365755591
 20
-207.4213118590716
 30
0.0
 11
96.36198348775957
 21
-207.1829339252296
 31
0.0
  0
LINE
  5
239
330
1F
100
AcDbEntity
  8
0
100
AcDbLine
 10
96.91102158955104
 20
-207.731972030285
 30
0.0
 11
96.67264365755591
 21
-207.4213118590716
 31
0.0
  0
LINE
  5
23A
330
1F
100
AcDbEntity
  8
0
100
AcDbLine
 10
97.0608722216177
 20
-208.093743461592
 30
0.0
 11
96.91102158955104
 21
-207.731972030285
 31
0.0
  0
LINE
  5
23B
330
1F
100
AcDbEntity
  8
0
100
AcDbLine
 10
97.11198348082038
 20
-208.4819720278044
 30
0.0
 11
97.0608722216177
 21
-208.093743461592
 31
0.0
  0
LINE
  5
23C
330
1F
100
AcDbEntity
  8
0
100
AcDbLine
 10
97.06087221930976
 20
-208.870200593713
 30
0.0
 11
97.11198348082038
 21
-208.4819720278044
 31
0.0
  0
LINE
  5
23D
330
1F
100
AcDbEntity
  8
0
100
AcDbLine
 10
96.91102158509243
 20
-209.2319720241291
 30
0.0
 11
97.06087221930976
 21
-208.870200593713
 31
0.0
  0
LINE
  5
23E
330
1F
100
AcDbEntity
  8
0
100
AcDbLine
 10
96.67264365125047
 20
-209.5426321939255
 30
0.0
 11
96.91102158509243
 21
-209.2319720241291
 31
0.0
  0
LINE
  5
23F
330
1F
100
AcDbEntity
  8
0
100
AcDbLine
 10
96.36198348003701
 20
-209.7810101259206
 30
0.0
 11
96.67264365125047
 21
-209.5426321939255
 31
0.0
  0
LINE
  5
240
330
1F
100
AcDbEntity
  8
0
100
AcDbLine
 10
96.00021204873009
 20
-209.9308607579873
 30
0.0
 11
96.36198348003701
 21
-209.7810101259206
 31
0.0
  0
LINE
  5
241
330
1F
100
AcDbEntity
  8
0
100
AcDbLine
 10
95.61198348251763
 20
-209.9819720171899
 30
0.0
 11
96.00021204873009
 21
-209.9308607579873
 31
0.0
  0
LINE
  5
242
330
1F
100
AcDbEntity
  8
0
100
AcDbLine
 10
95.22375491660904
 20
-209.9308607556793
 30
0.0
 11
95.61198348251763
 21
-209.9819720171899
 31
0.0
  0
LINE
  5
243
330
1F
100
AcDbEntity
  8
0
100
AcDbLine
 10
94.86198348619291
 20
-209.781010121462
 30
0.0
 11
95.22375491660904
 21
-209.9308607556793
 31
0.0
  0
LINE
  5
244
330
1F
100
AcDbEntity
  8
0
100
AcDbLine
 10
94.55132331639658
 20
-209.54263218762
 30
0.0
 11
94.86198348619291
 21
-209.781010121462
 31
0.0
  0
LINE
  5
245
330
1F
100
AcDbEntity
  8
0
100
AcDbLine
 10
94.31294538440144
 20
-209.2319720164066
 30
0.0
 11
94.55132331639658
 21
-209.54263218762
 31
0.0
  0
LINE
  5
246
330
1F
100
AcDbEntity
  8
0
100
AcDbLine
 10
94.16309475233477
 20
-208.8702005850996
 30
0.0
 11
94.31294538440144
 21
-209.2319720164066
 31
0.0
  0
LINE
  5
247
330
1F
100
AcDbEntity
  8
0
100
AcDbLine
 10
94.1119834931321
 20
-208.4819720188872
 30
0.0
 11
94.16309475233477
 21
-208.8702005850996
 31
0.0
  0
LINE
  5
248
330
1F
100
AcDbEntity
  8
0
100
AcDbLine
 10
94.16309475464273
 20
-208.0937434529786
 30
0.0
 11
94.1119834931321
 21
-208.4819720188872
 31
0.0
  0
LINE
  5
249
330
1F
100
AcDbEntity
  8
0
100
AcDbLine
 10
94.31294538886006
 20
-207.7319720225625
 30
0.0
 11
94.16309475464273
 21
-208.0937434529786
 31
0.0
  0
LINE
  5
24A
330
1F
100
AcDbEntity
  8
0
100
AcDbLine
 10
94.55132332270202
 20
-207.4213118527661
 30
0.0
 11
94.31294538886006
 21
-207.7319720225625
 31
0.0
  0
LINE
  5
24B
330
1F
100
AcDbEntity
  8
0
100
AcDbLine
 10
94.86198349391547
 20
-207.182933920771
 30
0.0
 11
94.55132332270202
 21
-207.4213118527661
 31
0.0
  0
LINE
  5
24C
330
1F
100
AcDbEntity
  8
0
100
AcDbLine
 10
95.2237549252224
 20
-207.0330832887043
 30
0.0
 11
94.86198349391547
 21
-207.182933920771
 31
0.0
  0
LINE
  5
24D
330
1F
100
AcDbEntity
  8
0
100
AcDbLine
 10
-14.99999902206145
 20
-84.47233047025492
 30
0.0
 11
-14.99999902205852
 21
-95.61497725980566
 31
0.0
  0
LINE
  5
24E
330
1F
100
AcDbEntity
  8
0
100
AcDbLine
 10
15.00000097798754
 20
-95.61497725979663
 30
0.0
 11
15.00000097798465
 21
-84.47233047025492
 31
0.0
  0
LINE
  5
24F
330
1F
100
AcDbEntity
  8
0
100
AcDbLine
 10
-14.99999902205852
 20
-95.61497725980566
 30
0.0
 11
15.00000097798754
 21
-95.61497725979663
 31
0.0
  0
LINE
  5
250
330
1F
100
AcDbEntity
  8
0
100
AcDbLine
 10
-99.87297714821554
 20
-199.4371907119065
 30
0.0
 11
-100.7695526203828
 21
-198.9195526217
 31
0.0
  0
LINE
  5
251
330
1F
100
AcDbEntity
  8
0
100
AcDbLine
 10
-103.0956699875892
 20
-196.4359823852033
 30
0.0
 11
-100.7695526203828
 21
-198.9195526217
 31
0.0
  0
LINE
  5
252
330
1F
100
AcDbEntity
  8
0
100
AcDbLine
 10
-105.2543736938266
 20
-193.8055943084533
 30
0.0
 11
-103.0956699875892
 21
-196.4359823852033
 31
0.0
  0
LINE
  5
253
330
1F
100
AcDbEntity
  8
0
100
AcDbLine
 10
-107.2364198384148
 20
-191.0396521170193
 30
0.0
 11
-105.2543736938266
 21
-193.8055943084533
 31
0.0
  0
LINE
  5
254
330
1F
100
AcDbEntity
  8
0
100
AcDbLine
 10
-109.0333209954733
 20
-188.1500000000001
 30
0.0
 11
-107.2364198384148
 21
-191.0396521170193
 31
0.0
  0
LINE
  5
255
330
1F
100
AcDbEntity
  8
0
100
AcDbLine
 10
-110.6373825583824
 20
-185.1490118913883
 30
0.0
 11
-109.0333209954733
 21
-188.1500000000001
 31
0.0
  0
LINE
  5
256
330
1F
100
AcDbEntity
  8
0
100
AcDbLine
 10
-112.0417356892696
 20
-182.049538482985
 30
0.0
 11
-110.6373825583824
 21
-185.1490118913883
 31
0.0
  0
LINE
  5
257
330
1F
100
AcDbEntity
  8
0
100
AcDbLine
 10
-113.2403667324283
 20
-178.8648521957649
 30
0.0
 11
-112.0417356892696
 21
-182.049538482985
 31
0.0
  0
LINE
  5
258
330
1F
100
AcDbEntity
  8
0
100
AcDbLine
 10
-114.2281429657144
 20
-175.6085903453317
 30
0.0
 11
-113.2403667324283
 21
-178.8648521957649
 31
0.0
  0
LINE
  5
259
330
1F
100
AcDbEntity
  8
0
100
AcDbLine
 10
-115.000834579651
 20
-172.2946967448394
 30
0.0
 11
-114.2281429657144
 21
-175.6085903453317
 31
0.0
  0
LINE
  5
25A
330
1F
100
AcDbEntity
  8
0
100
AcDbLine
 10
-115.5551327901213
 20
-168.9373619954435
 30
0.0
 11
-115.000834579651
 21
-172.2946967448394
 31
0.0
  0
LINE
  5
25B
330
1F
100
AcDbEntity
  8
0
100
AcDbLine
 10
-115.8886640070907
 20
-165.5509627199684
 30
0.0
 11
-115.5551327901213
 21
-168.9373619954435
 31
0.0
  0
LINE
  5
25C
330
1F
100
AcDbEntity
  8
0
100
AcDbLine
 10
-115.9999999986834
 20
-162.150000000001
 30
0.0
 11
-115.8886640070907
 21
-165.5509627199684
 31
0.0
  0
LINE
  5
25D
330
1F
100
AcDbEntity
  8
0
100
AcDbLine
 10
-115.7320508062523
 20
-161.1500000000006
 30
0.0
 11
-115.9999999986834
 21
-162.150000000001
 31
0.0
  0
LINE
  5
25E
330
1F
100
AcDbEntity
  8
0
100
AcDbLine
 10
-115.7320508062523
 20
-161.1500000000006
 30
0.0
 11
-114.9999999986834
 21
-160.4179491924318
 31
0.0
  0
LINE
  5
25F
330
1F
100
AcDbEntity
  8
0
100
AcDbLine
 10
-113.9999999986834
 20
-160.1500000000007
 30
0.0
 11
-114.9999999986834
 21
-160.4179491924318
 31
0.0
  0
LINE
  5
260
330
1F
100
AcDbEntity
  8
0
100
AcDbLine
 10
110.6373825609084
 20
-185.1490118913883
 30
0.0
 11
109.0333209979994
 21
-188.1500000000001
 31
0.0
  0
LINE
  5
261
330
1F
100
AcDbEntity
  8
0
100
AcDbLine
 10
109.0333209979994
 20
-188.1500000000001
 30
0.0
 11
107.2364198409408
 21
-191.0396521170192
 31
0.0
  0
LINE
  5
262
330
1F
100
AcDbEntity
  8
0
100
AcDbLine
 10
107.2364198409408
 20
-191.0396521170192
 30
0.0
 11
105.2543736963527
 21
-193.8055943084533
 31
0.0
  0
LINE
  5
263
330
1F
100
AcDbEntity
  8
0
100
AcDbLine
 10
105.2543736963527
 20
-193.8055943084533
 30
0.0
 11
103.0956699901153
 21
-196.4359823852033
 31
0.0
  0
LINE
  5
264
330
1F
100
AcDbEntity
  8
0
100
AcDbLine
 10
103.0956699901153
 20
-196.4359823852033
 30
0.0
 11
100.7695526229089
 21
-198.9195526217
 31
0.0
  0
LINE
  5
265
330
1F
100
AcDbEntity
  8
0
100
AcDbLine
 10
99.87297715074162
 20
-199.4371907119065
 30
0.0
 11
100.7695526229089
 21
-198.9195526217
 31
0.0
  0
LINE
  5
266
330
1F
100
AcDbEntity
  8
0
100
AcDbLine
 10
97.94112549816268
 20
-198.9195526217016
 30
0.0
 11
98.83770097033117
 21
-199.4371907119067
 31
0.0
  0
LINE
  5
267
330
1F
100
AcDbEntity
  8
0
100
AcDbLine
 10
97.4234874079573
 20
-198.0229771495333
 30
0.0
 11
97.94112549816268
 21
-198.9195526217016
 31
0.0
  0
LINE
  5
268
330
1F
100
AcDbEntity
  8
0
100
AcDbLine
 10
97.42348740795713
 20
-196.9877009691228
 30
0.0
 11
97.4234874079573
 21
-198.0229771495333
 31
0.0
  0
LINE
  5
269
330
1F
100
AcDbEntity
  8
0
100
AcDbLine
 10
97.9411254981622
 20
-196.0911254969544
 30
0.0
 11
97.42348740795713
 21
-196.9877009691228
 31
0.0
  0
LINE
  5
26A
330
1F
100
AcDbEntity
  8
0
100
AcDbLine
 10
100.088310760199
 20
-193.7985991248035
 30
0.0
 11
97.9411254981622
 21
-196.0911254969544
 31
0.0
  0
LINE
  5
26B
330
1F
100
AcDbEntity
  8
0
100
AcDbLine
 10
102.0809603351874
 20
-191.3705485924189
 30
0.0
 11
100.088310760199
 21
-193.7985991248035
 31
0.0
  0
LINE
  5
26C
330
1F
100
AcDbEntity
  8
0
100
AcDbLine
 10
103.9105413917304
 20
-188.8173711849413
 30
0.0
 11
102.0809603351874
 21
-191.3705485924189
 31
0.0
  0
LINE
  5
26D
330
1F
100
AcDbEntity
  8
0
100
AcDbLine
 10
105.5692193828614
 20
-186.1500000000005
 30
0.0
 11
103.9105413917304
 21
-188.8173711849413
 31
0.0
  0
LINE
  5
26E
330
1F
100
AcDbEntity
  8
0
100
AcDbLine
 10
107.0498915947776
 20
-183.3798571305126
 30
0.0
 11
105.5692193828614
 21
-186.1500000000005
 31
0.0
  0
LINE
  5
26F
330
1F
100
AcDbEntity
  8
0
100
AcDbLine
 10
108.3462175617504
 20
-180.5188047535249
 30
0.0
 11
107.0498915947776
 21
-183.3798571305126
 31
0.0
  0
LINE
  5
270
330
1F
100
AcDbEntity
  8
0
100
AcDbLine
 10
109.4526462169739
 20
-177.5790943345524
 30
0.0
 11
108.3462175617504
 21
-180.5188047535249
 31
0.0
  0
LINE
  5
271
330
1F
100
AcDbEntity
  8
0
100
AcDbLine
 10
110.3644396630842
 20
-174.5733141649217
 30
0.0
 11
109.4526462169739
 21
-177.5790943345524
 31
0.0
  0
LINE
  5
272
330
1F
100
AcDbEntity
  8
0
100
AcDbLine
 10
111.0776934605641
 20
-171.5143354567749
 30
0.0
 11
110.3644396630842
 21
-174.5733141649217
 31
0.0
  0
LINE
  5
273
330
1F
100
AcDbEntity
  8
0
100
AcDbLine
 10
111.5893533471521
 20
-168.4152572265633
 30
0.0
 11
111.0776934605641
 21
-171.5143354567749
 31
0.0
  0
LINE
  5
274
330
1F
100
AcDbEntity
  8
0
100
AcDbLine
 10
111.8972283166624
 20
-165.2893502030476
 30
0.0
 11
111.5893533471521
 21
-168.4152572265633
 31
0.0
  0
LINE
  5
275
330
1F
100
AcDbEntity
  8
0
100
AcDbLine
 10
112.0000000012095
 20
-162.1500000000008
 30
0.0
 11
111.8972283166624
 21
-165.2893502030476
 31
0.0
  0
LINE
  5
276
330
1F
100
AcDbEntity
  8
0
100
AcDbLine
 10
112.2679491936406
 20
-161.1500000000008
 30
0.0
 11
112.0000000012095
 21
-162.1500000000008
 31
0.0
  0
LINE
  5
277
330
1F
100
AcDbEntity
  8
0
100
AcDbLine
 10
115.0000000012094
 20
-160.4179491924318
 30
0.0
 11
114.0000000012094
 21
-160.1500000000007
 31
0.0
  0
LINE
  5
278
330
1F
100
AcDbEntity
  8
0
100
AcDbLine
 10
115.7320508087784
 20
-161.1500000000006
 30
0.0
 11
115.0000000012094
 21
-160.4179491924318
 31
0.0
  0
LINE
  5
279
330
1F
100
AcDbEntity
  8
0
100
AcDbLine
 10
116.0000000012095
 20
-162.150000000001
 30
0.0
 11
115.7320508087784
 21
-161.1500000000006
 31
0.0
  0
LINE
  5
27A
330
1F
100
AcDbEntity
  8
0
100
AcDbLine
 10
116.0000000012095
 20
-162.150000000001
 30
0.0
 11
115.8886640096168
 21
-165.5509627199684
 31
0.0
  0
LINE
  5
27B
330
1F
100
AcDbEntity
  8
0
100
AcDbLine
 10
115.5551327926474
 20
-168.9373619954435
 30
0.0
 11
115.000834582177
 21
-172.2946967448394
 31
0.0
  0
LINE
  5
27C
330
1F
100
AcDbEntity
  8
0
100
AcDbLine
 10
115.000834582177
 20
-172.2946967448394
 30
0.0
 11
114.2281429682405
 21
-175.6085903453317
 31
0.0
  0
LINE
  5
27D
330
1F
100
AcDbEntity
  8
0
100
AcDbLine
 10
114.2281429682405
 20
-175.6085903453317
 30
0.0
 11
113.2403667349543
 21
-178.8648521957649
 31
0.0
  0
LINE
  5
27E
330
1F
100
AcDbEntity
  8
0
100
AcDbLine
 10
113.2403667349543
 20
-178.8648521957649
 30
0.0
 11
112.0417356917956
 21
-182.049538482985
 31
0.0
  0
LINE
  5
27F
330
1F
100
AcDbEntity
  8
0
100
AcDbLine
 10
112.0417356917956
 20
-182.049538482985
 30
0.0
 11
110.6373825609084
 21
-185.1490118913883
 31
0.0
  0
LINE
  5
280
330
1F
100
AcDbEntity
  8
0
100
AcDbLine
 10
-14.99999902206438
 20
154.8276685531134
 30
0.0
 11
15.00000097798172
 21
154.8276685531134
 31
0.0
  0
LINE
  5
281
330
1F
100
AcDbEntity
  8
0
100
AcDbLine
 10
117.5000000011161
 20
187.9648626769042
 30
0.0
 11
117.5000000010613
 21
211.9648626769193
 31
0.0
  0
LINE
  5
282
330
1F
100
AcDbEntity
  8
0
100
AcDbLine
 10
117.5000000010613
 20
211.9648626769193
 30
0.0
 11
129.5000000010613
 21
211.9648626769193
 31
0.0
  0
LINE
  5
283
330
1F
100
AcDbEntity
  8
0
100
AcDbLine
 10
129.5000000010613
 20
211.9648626769193
 30
0.0
 11
129.500000001116
 21
187.9648626769376
 31
0.0
  0
LINE
  5
284
330
1F
100
AcDbEntity
  8
0
100
AcDbLine
 10
129.2955549588548
 20
186.411948406322
 30
0.0
 11
129.500000001116
 21
187.9648626769376
 31
0.0
  0
LINE
  5
285
330
1F
100
AcDbEntity
  8
0
100
AcDbLine
 10
128.6961524238311
 20
184.9648626769354
 30
0.0
 11
129.2955549588548
 21
186.411948406322
 31
0.0
  0
LINE
  5
286
330
1F
100
AcDbEntity
  8
0
100
AcDbLine
 10
127.7426406882472
 20
183.7222219898134
 30
0.0
 11
128.6961524238311
 21
184.9648626769354
 31
0.0
  0
LINE
  5
287
330
1F
100
AcDbEntity
  8
0
100
AcDbLine
 10
123.5000000011328
 20
181.9648626769209
 30
0.0
 11
125.0529142717473
 21
182.1693077191908
 31
0.0
  0
LINE
  5
288
330
1F
100
AcDbEntity
  8
0
100
AcDbLine
 10
121.9470857305171
 20
182.1693077191822
 30
0.0
 11
123.5000000011328
 21
181.9648626769209
 31
0.0
  0
LINE
  5
289
330
1F
100
AcDbEntity
  8
0
100
AcDbLine
 10
97.70096189556624
 20
-25.27391322357055
 30
0.0
 11
97.93933982946305
 21
-24.96325305179067
 31
0.0
  0
LINE
  5
28A
330
1F
100
AcDbEntity
  8
0
100
AcDbLine
 10
97.93933982946305
 20
-24.96325305179067
 30
0.0
 11
98.2500000012429
 21
-24.72487511789389
 31
0.0
  0
LINE
  5
28B
330
1F
100
AcDbEntity
  8
0
100
AcDbLine
 10
98.2500000012429
 20
-24.72487511789389
 30
0.0
 11
98.6117714335891
 21
-24.57502448413696
 31
0.0
  0
LINE
  5
28C
330
1F
100
AcDbEntity
  8
0
100
AcDbLine
 10
98.6117714335891
 20
-24.57502448413696
 30
0.0
 11
99.00000000124291
 21
-24.52391322357054
 31
0.0
  0
LINE
  5
28D
330
1F
100
AcDbEntity
  8
0
100
AcDbLine
 10
99.00000000124291
 20
-24.52391322357054
 30
0.0
 11
99.38822856889671
 21
-24.57502448413696
 31
0.0
  0
LINE
  5
28E
330
1F
100
AcDbEntity
  8
0
100
AcDbLine
 10
99.75000000124291
 20
-24.72487511789389
 30
0.0
 11
100.0606601730228
 21
-24.96325305179067
 31
0.0
  0
LINE
  5
28F
330
1F
100
AcDbEntity
  8
0
100
AcDbLine
 10
100.0606601730228
 20
-24.96325305179067
 30
0.0
 11
100.2990381069196
 21
-25.27391322357055
 31
0.0
  0
LINE
  5
290
330
1F
100
AcDbEntity
  8
0
100
AcDbLine
 10
100.2990381069196
 20
-25.27391322357055
 30
0.0
 11
100.4488887406765
 21
-25.63568465591676
 31
0.0
  0
LINE
  5
291
330
1F
100
AcDbEntity
  8
0
100
AcDbLine
 10
100.4488887406765
 20
-25.63568465591676
 30
0.0
 11
100.5000000012429
 21
-26.02391322357056
 31
0.0
  0
LINE
  5
292
330
1F
100
AcDbEntity
  8
0
100
AcDbLine
 10
100.5000000012429
 20
-26.02391322357056
 30
0.0
 11
100.4488887406765
 21
-26.41214179122436
 31
0.0
  0
LINE
  5
293
330
1F
100
AcDbEntity
  8
0
100
AcDbLine
 10
100.4488887406765
 20
-26.41214179122436
 30
0.0
 11
100.2990381069196
 21
-26.77391322357057
 31
0.0
  0
LINE
  5
294
330
1F
100
AcDbEntity
  8
0
100
AcDbLine
 10
100.2990381069196
 20
-26.77391322357057
 30
0.0
 11
100.0606601730228
 21
-27.08457339535036
 31
0.0
  0
LINE
  5
295
330
1F
100
AcDbEntity
  8
0
100
AcDbLine
 10
100.0606601730228
 20
-27.08457339535036
 30
0.0
 11
99.75000000124291
 21
-27.32295132924723
 31
0.0
  0
LINE
  5
296
330
1F
100
AcDbEntity
  8
0
100
AcDbLine
 10
99.38822856889671
 20
-27.47280196300416
 30
0.0
 11
99.00000000124291
 21
-27.52391322357058
 31
0.0
  0
LINE
  5
297
330
1F
100
AcDbEntity
  8
0
100
AcDbLine
 10
99.00000000124291
 20
-27.52391322357058
 30
0.0
 11
98.6117714335891
 21
-27.47280196300416
 31
0.0
  0
LINE
  5
298
330
1F
100
AcDbEntity
  8
0
100
AcDbLine
 10
98.6117714335891
 20
-27.47280196300416
 30
0.0
 11
98.2500000012429
 21
-27.32295132924723
 31
0.0
  0
LINE
  5
299
330
1F
100
AcDbEntity
  8
0
100
AcDbLine
 10
98.2500000012429
 20
-27.32295132924723
 30
0.0
 11
97.93933982946305
 21
-27.08457339535036
 31
0.0
  0
LINE
  5
29A
330
1F
100
AcDbEntity
  8
0
100
AcDbLine
 10
97.93933982946305
 20
-27.08457339535036
 30
0.0
 11
97.70096189556624
 21
-26.77391322357057
 31
0.0
  0
LINE
  5
29B
330
1F
100
AcDbEntity
  8
0
100
AcDbLine
 10
97.70096189556624
 20
-26.77391322357057
 30
0.0
 11
97.5511112618093
 21
-26.41214179122436
 31
0.0
  0
LINE
  5
29C
330
1F
100
AcDbEntity
  8
0
100
AcDbLine
 10
97.5511112618093
 20
-26.41214179122436
 30
0.0
 11
97.50000000124288
 21
-26.02391322357056
 31
0.0
  0
LINE
  5
29D
330
1F
100
AcDbEntity
  8
0
100
AcDbLine
 10
97.50000000124288
 20
-26.02391322357056
 30
0.0
 11
97.5511112618093
 21
-25.63568465591676
 31
0.0
  0
LINE
  5
29E
330
1F
100
AcDbEntity
  8
0
100
AcDbLine
 10
-130.3882285622547
 20
-24.575024484137
 30
0.0
 11
-129.9999999946009
 21
-24.52391322357058
 31
0.0
  0
LINE
  5
29F
330
1F
100
AcDbEntity
  8
0
100
AcDbLine
 10
-129.9999999946009
 20
-24.52391322357058
 30
0.0
 11
-129.6117714269471
 21
-24.575024484137
 31
0.0
  0
LINE
  5
2A0
330
1F
100
AcDbEntity
  8
0
100
AcDbLine
 10
-129.6117714269471
 20
-24.575024484137
 30
0.0
 11
-129.2499999946009
 21
-24.72487511789393
 31
0.0
  0
LINE
  5
2A1
330
1F
100
AcDbEntity
  8
0
100
AcDbLine
 10
-129.2499999946009
 20
-24.72487511789393
 30
0.0
 11
-128.9393398228211
 21
-24.96325305179076
 31
0.0
  0
LINE
  5
2A2
330
1F
100
AcDbEntity
  8
0
100
AcDbLine
 10
-128.9393398228211
 20
-24.96325305179076
 30
0.0
 11
-128.7009618889242
 21
-25.2739132235706
 31
0.0
  0
LINE
  5
2A3
330
1F
100
AcDbEntity
  8
0
100
AcDbLine
 10
-128.7009618889242
 20
-25.2739132235706
 30
0.0
 11
-128.5511112551673
 21
-25.6356846559168
 31
0.0
  0
LINE
  5
2A4
330
1F
100
AcDbEntity
  8
0
100
AcDbLine
 10
-128.5511112551673
 20
-25.6356846559168
 30
0.0
 11
-128.4999999946009
 21
-26.02391322357061
 31
0.0
  0
LINE
  5
2A5
330
1F
100
AcDbEntity
  8
0
100
AcDbLine
 10
-128.4999999946009
 20
-26.02391322357061
 30
0.0
 11
-128.5511112551673
 21
-26.41214179122441
 31
0.0
  0
LINE
  5
2A6
330
1F
100
AcDbEntity
  8
0
100
AcDbLine
 10
-128.5511112551673
 20
-26.41214179122441
 30
0.0
 11
-128.7009618889242
 21
-26.77391322357062
 31
0.0
  0
LINE
  5
2A7
330
1F
100
AcDbEntity
  8
0
100
AcDbLine
 10
-128.7009618889242
 20
-26.77391322357062
 30
0.0
 11
-128.9393398228211
 21
-27.08457339535045
 31
0.0
  0
LINE
  5
2A8
330
1F
100
AcDbEntity
  8
0
100
AcDbLine
 10
-129.2499999946009
 20
-27.32295132924728
 30
0.0
 11
-129.6117714269471
 21
-27.47280196300421
 31
0.0
  0
LINE
  5
2A9
330
1F
100
AcDbEntity
  8
0
100
AcDbLine
 10
-129.6117714269471
 20
-27.47280196300421
 30
0.0
 11
-129.9999999946009
 21
-27.52391322357062
 31
0.0
  0
LINE
  5
2AA
330
1F
100
AcDbEntity
  8
0
100
AcDbLine
 10
-129.9999999946009
 20
-27.52391322357062
 30
0.0
 11
-130.3882285622547
 21
-27.47280196300421
 31
0.0
  0
LINE
  5
2AB
330
1F
100
AcDbEntity
  8
0
100
AcDbLine
 10
-130.3882285622547
 20
-27.47280196300421
 30
0.0
 11
-130.7499999946009
 21
-27.32295132924728
 31
0.0
  0
LINE
  5
2AC
330
1F
100
AcDbEntity
  8
0
100
AcDbLine
 10
-130.7499999946009
 20
-27.32295132924728
 30
0.0
 11
-131.0606601663807
 21
-27.08457339535045
 31
0.0
  0
LINE
  5
2AD
330
1F
100
AcDbEntity
  8
0
100
AcDbLine
 10
-131.0606601663807
 20
-27.08457339535045
 30
0.0
 11
-131.2990381002776
 21
-26.77391322357062
 31
0.0
  0
LINE
  5
2AE
330
1F
100
AcDbEntity
  8
0
100
AcDbLine
 10
-131.2990381002776
 20
-26.77391322357062
 30
0.0
 11
-131.4488887340345
 21
-26.41214179122441
 31
0.0
  0
LINE
  5
2AF
330
1F
100
AcDbEntity
  8
0
100
AcDbLine
 10
-131.4488887340345
 20
-26.41214179122441
 30
0.0
 11
-131.4999999946009
 21
-26.02391322357061
 31
0.0
  0
LINE
  5
2B0
330
1F
100
AcDbEntity
  8
0
100
AcDbLine
 10
-131.4999999946009
 20
-26.02391322357061
 30
0.0
 11
-131.4488887340345
 21
-25.6356846559168
 31
0.0
  0
LINE
  5
2B1
330
1F
100
AcDbEntity
  8
0
100
AcDbLine
 10
-131.4488887340345
 20
-25.6356846559168
 30
0.0
 11
-131.2990381002776
 21
-25.2739132235706
 31
0.0
  0
LINE
  5
2B2
330
1F
100
AcDbEntity
  8
0
100
AcDbLine
 10
-131.2990381002776
 20
-25.2739132235706
 30
0.0
 11
-131.0606601663807
 21
-24.96325305179076
 31
0.0
  0
LINE
  5
2B3
330
1F
100
AcDbEntity
  8
0
100
AcDbLine
 10
-131.0606601663807
 20
-24.96325305179076
 30
0.0
 11
-130.7499999946009
 21
-24.72487511789393
 31
0.0
  0
LINE
  5
2B4
330
1F
100
AcDbEntity
  8
0
100
AcDbLine
 10
-130.7499999946009
 20
-24.72487511789393
 30
0.0
 11
-130.3882285622547
 21
-24.575024484137
 31
0.0
  0
LINE
  5
2B5
330
1F
100
AcDbEntity
  8
0
100
AcDbLine
 10
130.3882285688968
 20
-27.47280196303259
 30
0.0
 11
130.000000001243
 21
-27.52391322359901
 31
0.0
  0
LINE
  5
2B6
330
1F
100
AcDbEntity
  8
0
100
AcDbLine
 10
130.000000001243
 20
-27.52391322359901
 30
0.0
 11
129.6117714335892
 21
-27.47280196303259
 31
0.0
  0
LINE
  5
2B7
330
1F
100
AcDbEntity
  8
0
100
AcDbLine
 10
129.6117714335892
 20
-27.47280196303259
 30
0.0
 11
129.250000001243
 21
-27.32295132927566
 31
0.0
  0
LINE
  5
2B8
330
1F
100
AcDbEntity
  8
0
100
AcDbLine
 10
129.250000001243
 20
-27.32295132927566
 30
0.0
 11
128.9393398294631
 21
-27.08457339537879
 31
0.0
  0
LINE
  5
2B9
330
1F
100
AcDbEntity
  8
0
100
AcDbLine
 10
128.9393398294631
 20
-27.08457339537879
 30
0.0
 11
128.7009618955663
 21
-26.773913223599
 31
0.0
  0
LINE
  5
2BA
330
1F
100
AcDbEntity
  8
0
100
AcDbLine
 10
128.7009618955663
 20
-26.773913223599
 30
0.0
 11
128.5511112618094
 21
-26.41214179125279
 31
0.0
  0
LINE
  5
2BB
330
1F
100
AcDbEntity
  8
0
100
AcDbLine
 10
128.5511112618094
 20
-26.41214179125279
 30
0.0
 11
128.500000001243
 21
-26.02391322359898
 31
0.0
  0
LINE
  5
2BC
330
1F
100
AcDbEntity
  8
0
100
AcDbLine
 10
128.7009618955663
 20
-25.27391322359897
 30
0.0
 11
128.9393398294631
 21
-24.96325305181909
 31
0.0
  0
LINE
  5
2BD
330
1F
100
AcDbEntity
  8
0
100
AcDbLine
 10
128.9393398294631
 20
-24.96325305181909
 30
0.0
 11
129.250000001243
 21
-24.72487511792231
 31
0.0
  0
LINE
  5
2BE
330
1F
100
AcDbEntity
  8
0
100
AcDbLine
 10
129.250000001243
 20
-24.72487511792231
 30
0.0
 11
129.6117714335892
 21
-24.57502448416538
 31
0.0
  0
LINE
  5
2BF
330
1F
100
AcDbEntity
  8
0
100
AcDbLine
 10
130.000000001243
 20
-24.52391322359897
 30
0.0
 11
129.6117714335892
 21
-24.57502448416538
 31
0.0
  0
LINE
  5
2C0
330
1F
100
AcDbEntity
  8
0
100
AcDbLine
 10
130.000000001243
 20
-24.52391322359897
 30
0.0
 11
130.3882285688968
 21
-24.57502448416538
 31
0.0
  0
LINE
  5
2C1
330
1F
100
AcDbEntity
  8
0
100
AcDbLine
 10
130.3882285688968
 20
-24.57502448416538
 30
0.0
 11
130.750000001243
 21
-24.72487511792231
 31
0.0
  0
LINE
  5
2C2
330
1F
100
AcDbEntity
  8
0
100
AcDbLine
 10
130.750000001243
 20
-24.72487511792231
 30
0.0
 11
131.0606601730228
 21
-24.96325305181909
 31
0.0
  0
LINE
  5
2C3
330
1F
100
AcDbEntity
  8
0
100
AcDbLine
 10
131.2990381069197
 20
-25.27391322359897
 30
0.0
 11
131.4488887406766
 21
-25.63568465594518
 31
0.0
  0
LINE
  5
2C4
330
1F
100
AcDbEntity
  8
0
100
AcDbLine
 10
131.4488887406766
 20
-25.63568465594518
 30
0.0
 11
131.500000001243
 21
-26.02391322359898
 31
0.0
  0
LINE
  5
2C5
330
1F
100
AcDbEntity
  8
0
100
AcDbLine
 10
131.500000001243
 20
-26.02391322359898
 30
0.0
 11
131.4488887406766
 21
-26.41214179125279
 31
0.0
  0
LINE
  5
2C6
330
1F
100
AcDbEntity
  8
0
100
AcDbLine
 10
131.2990381069197
 20
-26.773913223599
 30
0.0
 11
131.0606601730228
 21
-27.08457339537879
 31
0.0
  0
LINE
  5
2C7
330
1F
100
AcDbEntity
  8
0
100
AcDbLine
 10
131.0606601730228
 20
-27.08457339537879
 30
0.0
 11
130.750000001243
 21
-27.32295132927566
 31
0.0
  0
LINE
  5
2C8
330
1F
100
AcDbEntity
  8
0
100
AcDbLine
 10
130.750000001243
 20
-27.32295132927566
 30
0.0
 11
130.3882285688968
 21
-27.47280196303259
 31
0.0
  0
LINE
  5
2C9
330
1F
100
AcDbEntity
  8
0
100
AcDbLine
 10
111.5095200454639
 20
-52.1311232806188
 30
0.0
 11
108.8565295415916
 21
-51.03221863306781
 31
0.0
  0
LINE
  5
2CA
330
1F
100
AcDbEntity
  8
0
100
AcDbLine
 10
108.8565295415916
 20
-51.03221863306781
 30
0.0
 11
106.5783549485396
 21
-49.284113784491
 31
0.0
  0
LINE
  5
2CB
330
1F
100
AcDbEntity
  8
0
100
AcDbLine
 10
106.5783549485396
 20
-49.284113784491
 30
0.0
 11
104.8302500999628
 21
-47.00593919143901
 31
0.0
  0
LINE
  5
2CC
330
1F
100
AcDbEntity
  8
0
100
AcDbLine
 10
103.7313454524119
 20
-44.35294868756677
 30
0.0
 11
103.3565295415916
 21
-41.50593919143898
 31
0.0
  0
LINE
  5
2CD
330
1F
100
AcDbEntity
  8
0
100
AcDbLine
 10
103.3565295415916
 20
-41.50593919143898
 30
0.0
 11
103.7313454524119
 21
-38.65892969531129
 31
0.0
  0
LINE
  5
2CE
330
1F
100
AcDbEntity
  8
0
100
AcDbLine
 10
103.7313454524119
 20
-38.65892969531129
 30
0.0
 11
104.8302500999628
 21
-36.00593919143905
 31
0.0
  0
LINE
  5
2CF
330
1F
100
AcDbEntity
  8
0
100
AcDbLine
 10
104.8302500999628
 20
-36.00593919143905
 30
0.0
 11
106.5783549485396
 21
-33.72776459838698
 31
0.0
  0
LINE
  5
2D0
330
1F
100
AcDbEntity
  8
0
100
AcDbLine
 10
111.5095200454639
 20
-30.88075510225929
 30
0.0
 11
114.3565295415916
 21
-30.50593919143904
 31
0.0
  0
LINE
  5
2D1
330
1F
100
AcDbEntity
  8
0
100
AcDbLine
 10
114.3565295415916
 20
-30.50593919143904
 30
0.0
 11
117.2035390377193
 21
-30.88075510225929
 31
0.0
  0
LINE
  5
2D2
330
1F
100
AcDbEntity
  8
0
100
AcDbLine
 10
117.2035390377193
 20
-30.88075510225929
 30
0.0
 11
119.8565295415916
 21
-31.97965974981016
 31
0.0
  0
LINE
  5
2D3
330
1F
100
AcDbEntity
  8
0
100
AcDbLine
 10
119.8565295415916
 20
-31.97965974981016
 30
0.0
 11
122.1347041346436
 21
-33.72776459838698
 31
0.0
  0
LINE
  5
2D4
330
1F
100
AcDbEntity
  8
0
100
AcDbLine
 10
122.1347041346436
 20
-33.72776459838698
 30
0.0
 11
123.8828089832204
 21
-36.00593919143897
 31
0.0
  0
LINE
  5
2D5
330
1F
100
AcDbEntity
  8
0
100
AcDbLine
 10
123.8828089832204
 20
-36.00593919143897
 30
0.0
 11
124.9817136307713
 21
-38.65892969531129
 31
0.0
  0
LINE
  5
2D6
330
1F
100
AcDbEntity
  8
0
100
AcDbLine
 10
124.9817136307713
 20
-38.65892969531129
 30
0.0
 11
125.3565295415916
 21
-41.50593919143898
 31
0.0
  0
LINE
  5
2D7
330
1F
100
AcDbEntity
  8
0
100
AcDbLine
 10
125.3565295415916
 20
-41.50593919143898
 30
0.0
 11
124.9817136307713
 21
-44.35294868756677
 31
0.0
  0
LINE
  5
2D8
330
1F
100
AcDbEntity
  8
0
100
AcDbLine
 10
124.9817136307713
 20
-44.35294868756677
 30
0.0
 11
123.8828089832204
 21
-47.00593919143901
 31
0.0
  0
LINE
  5
2D9
330
1F
100
AcDbEntity
  8
0
100
AcDbLine
 10
122.1347041346436
 20
-49.284113784491
 30
0.0
 11
119.8565295415916
 21
-51.03221863306781
 31
0.0
  0
LINE
  5
2DA
330
1F
100
AcDbEntity
  8
0
100
AcDbLine
 10
119.8565295415916
 20
-51.03221863306781
 30
0.0
 11
117.2035390377193
 21
-52.1311232806188
 31
0.0
  0
LINE
  5
2DB
330
1F
100
AcDbEntity
  8
0
100
AcDbLine
 10
117.2035390377193
 20
-52.1311232806188
 30
0.0
 11
114.3565295415916
 21
-52.50593919143907
 31
0.0
  0
LINE
  5
2DC
330
1F
100
AcDbEntity
  8
0
100
AcDbLine
 10
114.3565295415916
 20
-52.50593919143907
 30
0.0
 11
111.5095200454639
 21
-52.1311232806188
 31
0.0
  0
LINE
  5
2DD
330
1F
100
AcDbEntity
  8
0
100
AcDbLine
 10
-99.74999999460078
 20
-55.72487511792234
 30
0.0
 11
-99.38822856225458
 21
-55.57502448416542
 31
0.0
  0
LINE
  5
2DE
330
1F
100
AcDbEntity
  8
0
100
AcDbLine
 10
-99.38822856225458
 20
-55.57502448416542
 30
0.0
 11
-98.99999999460078
 21
-55.523913223599
 31
0.0
  0
LINE
  5
2DF
330
1F
100
AcDbEntity
  8
0
100
AcDbLine
 10
-98.99999999460078
 20
-55.523913223599
 30
0.0
 11
-98.61177142694702
 21
-55.57502448416542
 31
0.0
  0
LINE
  5
2E0
330
1F
100
AcDbEntity
  8
0
100
AcDbLine
 10
-98.61177142694702
 20
-55.57502448416542
 30
0.0
 11
-98.24999999460077
 21
-55.72487511792234
 31
0.0
  0
LINE
  5
2E1
330
1F
100
AcDbEntity
  8
0
100
AcDbLine
 10
-98.24999999460077
 20
-55.72487511792234
 30
0.0
 11
-97.93933982282098
 21
-55.96325305181917
 31
0.0
  0
LINE
  5
2E2
330
1F
100
AcDbEntity
  8
0
100
AcDbLine
 10
-97.93933982282098
 20
-55.96325305181917
 30
0.0
 11
-97.70096188892411
 21
-56.27391322359901
 31
0.0
  0
LINE
  5
2E3
330
1F
100
AcDbEntity
  8
0
100
AcDbLine
 10
-97.70096188892411
 20
-56.27391322359901
 30
0.0
 11
-97.55111125516717
 21
-56.63568465594522
 31
0.0
  0
LINE
  5
2E4
330
1F
100
AcDbEntity
  8
0
100
AcDbLine
 10
-97.55111125516717
 20
-56.63568465594522
 30
0.0
 11
-97.49999999460076
 21
-57.02391322359902
 31
0.0
  0
LINE
  5
2E5
330
1F
100
AcDbEntity
  8
0
100
AcDbLine
 10
-97.49999999460076
 20
-57.02391322359902
 30
0.0
 11
-97.55111125516717
 21
-57.41214179125282
 31
0.0
  0
LINE
  5
2E6
330
1F
100
AcDbEntity
  8
0
100
AcDbLine
 10
-97.55111125516717
 20
-57.41214179125282
 30
0.0
 11
-97.70096188892411
 21
-57.77391322359903
 31
0.0
  0
LINE
  5
2E7
330
1F
100
AcDbEntity
  8
0
100
AcDbLine
 10
-97.70096188892411
 20
-57.77391322359903
 30
0.0
 11
-97.93933982282098
 21
-58.08457339537887
 31
0.0
  0
LINE
  5
2E8
330
1F
100
AcDbEntity
  8
0
100
AcDbLine
 10
-97.93933982282098
 20
-58.08457339537887
 30
0.0
 11
-98.24999999460077
 21
-58.32295132927569
 31
0.0
  0
LINE
  5
2E9
330
1F
100
AcDbEntity
  8
0
100
AcDbLine
 10
-98.61177142694702
 20
-58.47280196303262
 30
0.0
 11
-98.99999999460078
 21
-58.52391322359904
 31
0.0
  0
LINE
  5
2EA
330
1F
100
AcDbEntity
  8
0
100
AcDbLine
 10
-98.99999999460078
 20
-58.52391322359904
 30
0.0
 11
-99.38822856225458
 21
-58.47280196303262
 31
0.0
  0
LINE
  5
2EB
330
1F
100
AcDbEntity
  8
0
100
AcDbLine
 10
128.500000001243
 20
-57.023913223599
 30
0.0
 11
128.5511112618094
 21
-56.6356846559452
 31
0.0
  0
LINE
  5
2EC
330
1F
100
AcDbEntity
  8
0
100
AcDbLine
 10
128.5511112618094
 20
-56.6356846559452
 30
0.0
 11
128.7009618955663
 21
-56.27391322359899
 31
0.0
  0
LINE
  5
2ED
330
1F
100
AcDbEntity
  8
0
100
AcDbLine
 10
128.7009618955663
 20
-56.27391322359899
 30
0.0
 11
128.9393398294631
 21
-55.96325305181915
 31
0.0
  0
LINE
  5
2EE
330
1F
100
AcDbEntity
  8
0
100
AcDbLine
 10
129.250000001243
 20
-55.72487511792232
 30
0.0
 11
129.6117714335892
 21
-55.5750244841654
 31
0.0
  0
LINE
  5
2EF
330
1F
100
AcDbEntity
  8
0
100
AcDbLine
 10
129.6117714335892
 20
-55.5750244841654
 30
0.0
 11
130.000000001243
 21
-55.52391322359897
 31
0.0
  0
LINE
  5
2F0
330
1F
100
AcDbEntity
  8
0
100
AcDbLine
 10
130.000000001243
 20
-55.52391322359897
 30
0.0
 11
130.3882285688968
 21
-55.5750244841654
 31
0.0
  0
LINE
  5
2F1
330
1F
100
AcDbEntity
  8
0
100
AcDbLine
 10
130.3882285688968
 20
-55.5750244841654
 30
0.0
 11
130.750000001243
 21
-55.72487511792232
 31
0.0
  0
LINE
  5
2F2
330
1F
100
AcDbEntity
  8
0
100
AcDbLine
 10
130.750000001243
 20
-55.72487511792232
 30
0.0
 11
131.0606601730228
 21
-55.96325305181915
 31
0.0
  0
LINE
  5
2F3
330
1F
100
AcDbEntity
  8
0
100
AcDbLine
 10
131.0606601730228
 20
-55.96325305181915
 30
0.0
 11
131.2990381069197
 21
-56.27391322359899
 31
0.0
  0
LINE
  5
2F4
330
1F
100
AcDbEntity
  8
0
100
AcDbLine
 10
131.2990381069197
 20
-56.27391322359899
 30
0.0
 11
131.4488887406766
 21
-56.6356846559452
 31
0.0
  0
LINE
  5
2F5
330
1F
100
AcDbEntity
  8
0
100
AcDbLine
 10
131.4488887406766
 20
-56.6356846559452
 30
0.0
 11
131.500000001243
 21
-57.023913223599
 31
0.0
  0
LINE
  5
2F6
330
1F
100
AcDbEntity
  8
0
100
AcDbLine
 10
131.500000001243
 20
-57.023913223599
 30
0.0
 11
131.4488887406766
 21
-57.4121417912528
 31
0.0
  0
LINE
  5
2F7
330
1F
100
AcDbEntity
  8
0
100
AcDbLine
 10
131.4488887406766
 20
-57.4121417912528
 30
0.0
 11
131.2990381069197
 21
-57.773913223599
 31
0.0
  0
LINE
  5
2F8
330
1F
100
AcDbEntity
  8
0
100
AcDbLine
 10
131.2990381069197
 20
-57.773913223599
 30
0.0
 11
131.0606601730228
 21
-58.08457339537884
 31
0.0
  0
LINE
  5
2F9
330
1F
100
AcDbEntity
  8
0
100
AcDbLine
 10
131.0606601730228
 20
-58.08457339537884
 30
0.0
 11
130.750000001243
 21
-58.32295132927567
 31
0.0
  0
LINE
  5
2FA
330
1F
100
AcDbEntity
  8
0
100
AcDbLine
 10
130.750000001243
 20
-58.32295132927567
 30
0.0
 11
130.3882285688968
 21
-58.4728019630326
 31
0.0
  0
LINE
  5
2FB
330
1F
100
AcDbEntity
  8
0
100
AcDbLine
 10
130.000000001243
 20
-58.52391322359902
 30
0.0
 11
129.6117714335892
 21
-58.4728019630326
 31
0.0
  0
LINE
  5
2FC
330
1F
100
AcDbEntity
  8
0
100
AcDbLine
 10
129.6117714335892
 20
-58.4728019630326
 30
0.0
 11
129.250000001243
 21
-58.32295132927567
 31
0.0
  0
LINE
  5
2FD
330
1F
100
AcDbEntity
  8
0
100
AcDbLine
 10
129.250000001243
 20
-58.32295132927567
 30
0.0
 11
128.9393398294631
 21
-58.08457339537884
 31
0.0
  0
LINE
  5
2FE
330
1F
100
AcDbEntity
  8
0
100
AcDbLine
 10
128.9393398294631
 20
-58.08457339537884
 30
0.0
 11
128.7009618955663
 21
-57.773913223599
 31
0.0
  0
LINE
  5
2FF
330
1F
100
AcDbEntity
  8
0
100
AcDbLine
 10
128.7009618955663
 20
-57.773913223599
 30
0.0
 11
128.5511112618094
 21
-57.4121417912528
 31
0.0
  0
LINE
  5
300
330
1F
100
AcDbEntity
  8
0
100
AcDbLine
 10
128.5511112618094
 20
-57.4121417912528
 30
0.0
 11
128.500000001243
 21
-57.023913223599
 31
0.0
  0
LINE
  5
301
330
1F
100
AcDbEntity
  8
0
100
AcDbLine
 10
100.4488887406767
 20
-56.63568465591695
 30
0.0
 11
100.5000000012431
 21
-57.02391322357075
 31
0.0
  0
LINE
  5
302
330
1F
100
AcDbEntity
  8
0
100
AcDbLine
 10
100.5000000012431
 20
-57.02391322357075
 30
0.0
 11
100.4488887406767
 21
-57.41214179122455
 31
0.0
  0
LINE
  5
303
330
1F
100
AcDbEntity
  8
0
100
AcDbLine
 10
100.4488887406767
 20
-57.41214179122455
 30
0.0
 11
100.2990381069198
 21
-57.77391322357076
 31
0.0
  0
LINE
  5
304
330
1F
100
AcDbEntity
  8
0
100
AcDbLine
 10
100.0606601730229
 20
-58.0845733953506
 30
0.0
 11
99.7500000012431
 21
-58.32295132924742
 31
0.0
  0
LINE
  5
305
330
1F
100
AcDbEntity
  8
0
100
AcDbLine
 10
99.7500000012431
 20
-58.32295132924742
 30
0.0
 11
99.38822856889689
 21
-58.47280196300435
 31
0.0
  0
LINE
  5
306
330
1F
100
AcDbEntity
  8
0
100
AcDbLine
 10
98.61177143358928
 20
-58.47280196300435
 30
0.0
 11
98.25000000124308
 21
-58.32295132924742
 31
0.0
  0
LINE
  5
307
330
1F
100
AcDbEntity
  8
0
100
AcDbLine
 10
98.25000000124308
 20
-58.32295132924742
 30
0.0
 11
97.93933982946324
 21
-58.0845733953506
 31
0.0
  0
LINE
  5
308
330
1F
100
AcDbEntity
  8
0
100
AcDbLine
 10
97.93933982946324
 20
-58.0845733953506
 30
0.0
 11
97.70096189556641
 21
-57.77391322357076
 31
0.0
  0
LINE
  5
309
330
1F
100
AcDbEntity
  8
0
100
AcDbLine
 10
97.70096189556641
 20
-57.77391322357076
 30
0.0
 11
97.55111126180948
 21
-57.41214179122455
 31
0.0
  0
LINE
  5
30A
330
1F
100
AcDbEntity
  8
0
100
AcDbLine
 10
97.55111126180948
 20
-57.41214179122455
 30
0.0
 11
97.50000000124307
 21
-57.02391322357075
 31
0.0
  0
LINE
  5
30B
330
1F
100
AcDbEntity
  8
0
100
AcDbLine
 10
97.50000000124307
 20
-57.02391322357075
 30
0.0
 11
97.55111126180948
 21
-56.63568465591695
 31
0.0
  0
LINE
  5
30C
330
1F
100
AcDbEntity
  8
0
100
AcDbLine
 10
97.93933982946324
 20
-55.96325305179091
 30
0.0
 11
98.25000000124308
 21
-55.72487511789408
 31
0.0
  0
LINE
  5
30D
330
1F
100
AcDbEntity
  8
0
100
AcDbLine
 10
98.25000000124308
 20
-55.72487511789408
 30
0.0
 11
98.61177143358928
 21
-55.57502448413715
 31
0.0
  0
LINE
  5
30E
330
1F
100
AcDbEntity
  8
0
100
AcDbLine
 10
98.61177143358928
 20
-55.57502448413715
 30
0.0
 11
99.00000000124308
 21
-55.52391322357073
 31
0.0
  0
LINE
  5
30F
330
1F
100
AcDbEntity
  8
0
100
AcDbLine
 10
99.00000000124308
 20
-55.52391322357073
 30
0.0
 11
99.38822856889689
 21
-55.57502448413715
 31
0.0
  0
LINE
  5
310
330
1F
100
AcDbEntity
  8
0
100
AcDbLine
 10
99.38822856889689
 20
-55.57502448413715
 30
0.0
 11
99.7500000012431
 21
-55.72487511789408
 31
0.0
  0
LINE
  5
311
330
1F
100
AcDbEntity
  8
0
100
AcDbLine
 10
99.7500000012431
 20
-55.72487511789408
 30
0.0
 11
100.0606601730229
 21
-55.96325305179091
 31
0.0
  0
LINE
  5
312
330
1F
100
AcDbEntity
  8
0
100
AcDbLine
 10
100.0606601730229
 20
-55.96325305179091
 30
0.0
 11
100.2990381069198
 21
-56.27391322357074
 31
0.0
  0
LINE
  5
313
330
1F
100
AcDbEntity
  8
0
100
AcDbLine
 10
100.2990381069198
 20
-56.27391322357074
 30
0.0
 11
100.4488887406767
 21
-56.63568465591695
 31
0.0
  0
LINE
  5
314
330
1F
100
AcDbEntity
  8
0
100
AcDbLine
 10
-106.8652958612002
 20
-49.28411378449107
 30
0.0
 11
-109.1434704542522
 21
-51.03221863306788
 31
0.0
  0
LINE
  5
315
330
1F
100
AcDbEntity
  8
0
100
AcDbLine
 10
-109.1434704542522
 20
-51.03221863306788
 30
0.0
 11
-111.7964609581245
 21
-52.1311232806188
 31
0.0
  0
LINE
  5
316
330
1F
100
AcDbEntity
  8
0
100
AcDbLine
 10
-111.7964609581245
 20
-52.1311232806188
 30
0.0
 11
-114.6434704542522
 21
-52.50593919143905
 31
0.0
  0
LINE
  5
317
330
1F
100
AcDbEntity
  8
0
100
AcDbLine
 10
-114.6434704542522
 20
-52.50593919143905
 30
0.0
 11
-117.4904799503799
 21
-52.1311232806188
 31
0.0
  0
LINE
  5
318
330
1F
100
AcDbEntity
  8
0
100
AcDbLine
 10
-124.169749895881
 20
-47.00593919143908
 30
0.0
 11
-125.2686545434319
 21
-44.35294868756681
 31
0.0
  0
LINE
  5
319
330
1F
100
AcDbEntity
  8
0
100
AcDbLine
 10
-125.2686545434319
 20
-44.35294868756681
 30
0.0
 11
-125.6434704542522
 21
-41.50593919143907
 31
0.0
  0
LINE
  5
31A
330
1F
100
AcDbEntity
  8
0
100
AcDbLine
 10
-125.6434704542522
 20
-41.50593919143907
 30
0.0
 11
-125.2686545434319
 21
-38.65892969531133
 31
0.0
  0
LINE
  5
31B
330
1F
100
AcDbEntity
  8
0
100
AcDbLine
 10
-125.2686545434319
 20
-38.65892969531133
 30
0.0
 11
-124.169749895881
 21
-36.0059391914391
 31
0.0
  0
LINE
  5
31C
330
1F
100
AcDbEntity
  8
0
100
AcDbLine
 10
-124.169749895881
 20
-36.0059391914391
 30
0.0
 11
-122.4216450473042
 21
-33.72776459838707
 31
0.0
  0
LINE
  5
31D
330
1F
100
AcDbEntity
  8
0
100
AcDbLine
 10
-122.4216450473042
 20
-33.72776459838707
 30
0.0
 11
-120.1434704542522
 21
-31.97965974981026
 31
0.0
  0
LINE
  5
31E
330
1F
100
AcDbEntity
  8
0
100
AcDbLine
 10
-120.1434704542522
 20
-31.97965974981026
 30
0.0
 11
-117.4904799503799
 21
-30.88075510225933
 31
0.0
  0
LINE
  5
31F
330
1F
100
AcDbEntity
  8
0
100
AcDbLine
 10
-109.1434704542522
 20
-31.97965974981026
 30
0.0
 11
-106.8652958612002
 21
-33.72776459838707
 31
0.0
  0
LINE
  5
320
330
1F
100
AcDbEntity
  8
0
100
AcDbLine
 10
-106.8652958612002
 20
-33.72776459838707
 30
0.0
 11
-105.1171910126234
 21
-36.00593919143905
 31
0.0
  0
LINE
  5
321
330
1F
100
AcDbEntity
  8
0
100
AcDbLine
 10
-105.1171910126234
 20
-36.00593919143905
 30
0.0
 11
-104.0182863650725
 21
-38.65892969531133
 31
0.0
  0
LINE
  5
322
330
1F
100
AcDbEntity
  8
0
100
AcDbLine
 10
-104.0182863650725
 20
-38.65892969531133
 30
0.0
 11
-103.6434704542522
 21
-41.50593919143907
 31
0.0
  0
LINE
  5
323
330
1F
100
AcDbEntity
  8
0
100
AcDbLine
 10
-103.6434704542522
 20
-41.50593919143907
 30
0.0
 11
-104.0182863650725
 21
-44.35294868756681
 31
0.0
  0
LINE
  5
324
330
1F
100
AcDbEntity
  8
0
100
AcDbLine
 10
-104.0182863650725
 20
-44.35294868756681
 30
0.0
 11
-105.1171910126234
 21
-47.00593919143903
 31
0.0
  0
LINE
  5
325
330
1F
100
AcDbEntity
  8
0
100
AcDbLine
 10
-105.1171910126234
 20
-47.00593919143903
 30
0.0
 11
-106.8652958612002
 21
-49.28411378449107
 31
0.0
  0
LINE
  5
326
330
1F
100
AcDbEntity
  8
0
100
AcDbLine
 10
-98.24999999460077
 20
-24.72487511792236
 30
0.0
 11
-97.93933982282098
 21
-24.96325305181918
 31
0.0
  0
LINE
  5
327
330
1F
100
AcDbEntity
  8
0
100
AcDbLine
 10
-97.93933982282098
 20
-24.96325305181918
 30
0.0
 11
-97.70096188892411
 21
-25.27391322359902
 31
0.0
  0
LINE
  5
328
330
1F
100
AcDbEntity
  8
0
100
AcDbLine
 10
-97.70096188892411
 20
-25.27391322359902
 30
0.0
 11
-97.55111125516717
 21
-25.63568465594523
 31
0.0
  0
LINE
  5
329
330
1F
100
AcDbEntity
  8
0
100
AcDbLine
 10
-97.55111125516717
 20
-25.63568465594523
 30
0.0
 11
-97.49999999460076
 21
-26.02391322359903
 31
0.0
  0
LINE
  5
32A
330
1F
100
AcDbEntity
  8
0
100
AcDbLine
 10
-97.49999999460076
 20
-26.02391322359903
 30
0.0
 11
-97.55111125516717
 21
-26.41214179125283
 31
0.0
  0
LINE
  5
32B
330
1F
100
AcDbEntity
  8
0
100
AcDbLine
 10
-97.55111125516717
 20
-26.41214179125283
 30
0.0
 11
-97.70096188892411
 21
-26.77391322359904
 31
0.0
  0
LINE
  5
32C
330
1F
100
AcDbEntity
  8
0
100
AcDbLine
 10
-97.70096188892411
 20
-26.77391322359904
 30
0.0
 11
-97.93933982282098
 21
-27.08457339537888
 31
0.0
  0
LINE
  5
32D
330
1F
100
AcDbEntity
  8
0
100
AcDbLine
 10
-97.93933982282098
 20
-27.08457339537888
 30
0.0
 11
-98.24999999460077
 21
-27.3229513292757
 31
0.0
  0
LINE
  5
32E
330
1F
100
AcDbEntity
  8
0
100
AcDbLine
 10
-98.61177142694702
 20
-27.47280196303263
 30
0.0
 11
-98.99999999460078
 21
-27.52391322359905
 31
0.0
  0
LINE
  5
32F
330
1F
100
AcDbEntity
  8
0
100
AcDbLine
 10
-100.0606601663806
 20
-27.08457339537888
 30
0.0
 11
-100.2990381002775
 21
-26.77391322359904
 31
0.0
  0
LINE
  5
330
330
1F
100
AcDbEntity
  8
0
100
AcDbLine
 10
-100.2990381002775
 20
-26.77391322359904
 30
0.0
 11
-100.4488887340344
 21
-26.41214179125283
 31
0.0
  0
LINE
  5
331
330
1F
100
AcDbEntity
  8
0
100
AcDbLine
 10
-100.4488887340344
 20
-26.41214179125283
 30
0.0
 11
-100.4999999946008
 21
-26.02391322359903
 31
0.0
  0
LINE
  5
332
330
1F
100
AcDbEntity
  8
0
100
AcDbLine
 10
-100.4999999946008
 20
-26.02391322359903
 30
0.0
 11
-100.4488887340344
 21
-25.63568465594523
 31
0.0
  0
LINE
  5
333
330
1F
100
AcDbEntity
  8
0
100
AcDbLine
 10
-100.4488887340344
 20
-25.63568465594523
 30
0.0
 11
-100.2990381002775
 21
-25.27391322359902
 31
0.0
  0
LINE
  5
334
330
1F
100
AcDbEntity
  8
0
100
AcDbLine
 10
-100.2990381002775
 20
-25.27391322359902
 30
0.0
 11
-100.0606601663806
 21
-24.96325305181918
 31
0.0
  0
LINE
  5
335
330
1F
100
AcDbEntity
  8
0
100
AcDbLine
 10
-100.0606601663806
 20
-24.96325305181918
 30
0.0
 11
-99.74999999460078
 21
-24.72487511792236
 31
0.0
  0
LINE
  5
336
330
1F
100
AcDbEntity
  8
0
100
AcDbLine
 10
-99.74999999460078
 20
-24.72487511792236
 30
0.0
 11
-99.38822856225458
 21
-24.57502448416543
 31
0.0
  0
LINE
  5
337
330
1F
100
AcDbEntity
  8
0
100
AcDbLine
 10
-99.38822856225458
 20
-24.57502448416543
 30
0.0
 11
-98.99999999460078
 21
-24.52391322359901
 31
0.0
  0
LINE
  5
338
330
1F
100
AcDbEntity
  8
0
100
AcDbLine
 10
-98.99999999460078
 20
-24.52391322359901
 30
0.0
 11
-98.61177142694702
 21
-24.57502448416543
 31
0.0
  0
LINE
  5
339
330
1F
100
AcDbEntity
  8
0
100
AcDbLine
 10
-98.61177142694702
 20
-24.57502448416543
 30
0.0
 11
-98.24999999460077
 21
-24.72487511792236
 31
0.0
  0
LINE
  5
33A
330
1F
100
AcDbEntity
  8
0
100
AcDbLine
 10
-129.6117714269469
 20
-55.57502448413717
 30
0.0
 11
-129.2499999946007
 21
-55.7248751178941
 31
0.0
  0
LINE
  5
33B
330
1F
100
AcDbEntity
  8
0
100
AcDbLine
 10
-128.9393398228209
 20
-58.08457339535062
 30
0.0
 11
-129.2499999946007
 21
-58.32295132924745
 31
0.0
  0
LINE
  5
33C
330
1F
100
AcDbEntity
  8
0
100
AcDbLine
 10
-129.2499999946007
 20
-58.32295132924745
 30
0.0
 11
-129.6117714269469
 21
-58.47280196300438
 31
0.0
  0
LINE
  5
33D
330
1F
100
AcDbEntity
  8
0
100
AcDbLine
 10
-129.6117714269469
 20
-58.47280196300438
 30
0.0
 11
-129.9999999946007
 21
-58.52391322357079
 31
0.0
  0
LINE
  5
33E
330
1F
100
AcDbEntity
  8
0
100
AcDbLine
 10
-129.9999999946007
 20
-58.52391322357079
 30
0.0
 11
-130.3882285622545
 21
-58.47280196300438
 31
0.0
  0
LINE
  5
33F
330
1F
100
AcDbEntity
  8
0
100
AcDbLine
 10
-130.3882285622545
 20
-58.47280196300438
 30
0.0
 11
-130.7499999946007
 21
-58.32295132924745
 31
0.0
  0
LINE
  5
340
330
1F
100
AcDbEntity
  8
0
100
AcDbLine
 10
-130.7499999946007
 20
-58.32295132924745
 30
0.0
 11
-131.0606601663805
 21
-58.08457339535062
 31
0.0
  0
LINE
  5
341
330
1F
100
AcDbEntity
  8
0
100
AcDbLine
 10
-130.3882285622545
 20
-55.57502448413717
 30
0.0
 11
-129.9999999946007
 21
-55.52391322357075
 31
0.0
  0
LINE
  5
342
330
1F
100
AcDbEntity
  8
0
100
AcDbLine
 10
-129.9999999946007
 20
-55.52391322357075
 30
0.0
 11
-129.6117714269469
 21
-55.57502448413717
 31
0.0
  0
ENDSEC
  0
SECTION
  2
OBJECTS
  0
DICTIONARY
  5
C
330
0
100
AcDbDictionary
  3
ACAD_GROUP
350
D
  3
ACAD_LAYOUT
350
1A
  3
ACAD_MATERIAL
350
43
  3
ACAD_MLEADERSTYLE
350
365
  3
ACAD_MLINESTYLE
350
17
  3
ACAD_PLOTSETTINGS
350
19
  3
ACAD_SCALELIST
350
47
  3
ACAD_VISUALSTYLE
350
2A
  3
ACDBHEADERROUNDTRIPXREC
350
343
  3
ACDBVARIABLEDICTIONARY
350
363
  0
DICTIONARY
  5
36A
330
8
100
AcDbDictionary
280
     1
  3
ACAD_XREC_ROUNDTRIP
360
36B
  0
DICTIONARY
  5
D
102
{ACAD_REACTORS
330
C
102
}
330
C
100
AcDbDictionary
  0
DICTIONARY
  5
1A
102
{ACAD_REACTORS
330
C
102
}
330
C
100
AcDbDictionary
  0
DICTIONARY
  5
43
102
{ACAD_REACTORS
330
C
102
}
330
C
100
AcDbDictionary
  3
BYBLOCK
350
45
  3
BYLAYER
350
44
  3
GLOBAL
350
46
  0
DICTIONARY
  5
365
102
{ACAD_REACTORS
330
C
102
}
330
C
100
AcDbDictionary
  0
DICTIONARY
  5
17
102
{ACAD_REACTORS
330
C
102
}
330
C
100
AcDbDictionary
  3
STANDARD
350
18
  0
DICTIONARY
  5
19
102
{ACAD_REACTORS
330
C
102
}
330
C
100
AcDbDictionary
  0
DICTIONARY
  5
47
102
{ACAD_REACTORS
330
C
102
}
330
C
100
AcDbDictionary
  3
A0
350
48
  3
A1
350
49
  3
A2
350
4A
  3
A3
350
4B
  3
A4
350
4C
  3
A5
350
4D
  3
A6
350
4E
  3
A7
350
4F
  3
A8
350
50
  3
A9
350
51
  3
B0
350
52
  3
B1
350
53
  3
B2
350
54
  3
B3
350
55
  3
B4
350
56
  3
B5
350
57
  3
B6
350
58
  3
B7
350
59
  3
B8
350
5A
  3
B9
350
5B
  3
C0
350
5C
  3
C1
350
5D
  3
C2
350
5E
  3
C3
350
5F
  3
C4
350
60
  3
C5
350
61
  3
C6
350
62
  3
C7
350
63
  3
C8
350
64
  3
C9
350
65
  3
D0
350
66
  3
D1
350
67
  3
D2
350
68
  0
DICTIONARY
  5
2A
102
{ACAD_REACTORS
330
C
102
}
330
C
100
AcDbDictionary
  3
2DWIREFRAME
350
2F
  3
BASIC
350
32
  3
BRIGHTEN
350
36
  3
COLORCHANGE
350
3A
  3
CONCEPTUAL
350
34
  3
DIM
350
35
  3
EDGECOLOROFF
350
3D
  3
FACEPATTERN
350
39
  3
FLAT
350
2B
  3
FLATWITHEDGES
350
2C
  3
GOURAUD
350
2D
  3
GOURAUDWITHEDGES
350
2E
  3
HIDDEN
350
31
  3
JITTEROFF
350
3B
  3
LINEPATTERN
350
38
  3
OVERHANGOFF
350
3C
  3
REALISTIC
350
33
  3
SHADED
350
42
  3
SHADED_WITH_EDGES
350
41
  3
SHADES_OF_GRAY
350
3E
  3
SKETCHY
350
3F
  3
THICKEN
350
37
  3
WIREFRAME
350
30
  3
X-RAY
350
40
  0
DICTIONARY
  5
343
102
{ACAD_REACTORS
330
C
102
}
330
C
100
AcDbDictionary
  3
CEPSNTYPE
350
34C
  3
DIMSTYLEDATA
350
362
  3
FINGERPRINTGUID
350
34D
  3
HYPERLINKBASE
350
346
  3
INSUNITS
350
34B
  3
LAYOUTDICT
350
348
  3
LWETCUNION
350
34A
  3
PLOTSETDICT
350
349
  3
PSVPSCALE
350
34F
  3
PUCSBASE
350
352
  3
PUCSORGBACK
350
358
  3
PUCSORGBOTTOM
350
354
  3
PUCSORGFRONT
350
357
  3
PUCSORGLEFT
350
355
  3
PUCSORGRIGHT
350
356
  3
PUCSORGTOP
350
353
  3
PUCSORTHOREF
350
350
  3
PUCSORTHOVIEW
350
351
  3
STYLESHEET
350
347
  3
TSTACKALIGN
350
344
  3
TSTACKSIZE
350
345
  3
UCSBASE
350
35B
  3
UCSORGBACK
350
361
  3
UCSORGBOTTOM
350
35D
  3
UCSORGFRONT
350
360
  3
UCSORGLEFT
350
35E
  3
UCSORGRIGHT
350
35F
  3
UCSORGTOP
350
35C
  3
UCSORTHOREF
350
359
  3
UCSORTHOVIEW
350
35A
  3
VERSIONGUID
350
34E
  0
DICTIONARY
  5
363
102
{ACAD_REACTORS
330
C
102
}
330
C
100
AcDbDictionary
  3
CANNOSCALE
350
36C
  3
DIMASSOC
350
368
  3
HIDETEXT
350
369
  3
MSLTSCALE
350
36D
  0
XRECORD
  5
36B
102
{ACAD_REACTORS
330
36A
102
}
330
36A
100
AcDbXrecord
102
VTR_0.000_0.000_1.000_1.000_GRIDDISPLAY
 70
     3
102
VTR_0.000_0.000_1.000_1.000_GRIDMAJOR
 70
     5
102
VTR_0.000_0.000_1.000_1.000_DEFAULTLIGHTING
280
     1
102
VTR_0.000_0.000_1.000_1.000_DEFAULTLIGHTINGTYPE
 70
     1
102
VTR_0.000_0.000_1.000_1.000_BRIGHTNESS
141
0.0
102
VTR_0.000_0.000_1.000_1.000_CONTRAST
142
0.0
  0
MATERIAL
  5
45
102
{ACAD_REACTORS
330
43
102
}
102
{ACAD_XDICTIONARY
360
370
102
}
330
43
100
AcDbMaterial
  1
BYBLOCK
  0
MATERIAL
  5
44
102
{ACAD_REACTORS
330
43
102
}
102
{ACAD_XDICTIONARY
360
36E
102
}
330
43
100
AcDbMaterial
  1
BYLAYER
  0
MATERIAL
  5
46
102
{ACAD_REACTORS
330
43
102
}
102
{ACAD_XDICTIONARY
360
372
102
}
330
43
100
AcDbMaterial
  1
GLOBAL
  0
MLINESTYLE
  5
18
102
{ACAD_REACTORS
330
17
102
}
330
17
100
AcDbMlineStyle
  2
Standard
 70
     0
  3

 62
   256
 51
90.0
 52
90.0
 71
     2
 49
0.5
 62
   256
  6
BYLAYER
 49
-0.5
 62
   256
  6
BYLAYER
  0
ACAD_PROXY_OBJECT
  5
48
102
{ACAD_REACTORS
330
47
102
}
330
47
100
AcDbProxyObject
 90
      499
 91
      503
 93
       41
310
903313A31580
  0
ACAD_PROXY_OBJECT
  5
49
102
{ACAD_REACTORS
330
47
102
}
330
47
100
AcDbProxyObject
 90
      499
 91
      503
 93
      105
310
903313A324000000000000004000
  0
ACAD_PROXY_OBJECT
  5
4A
102
{ACAD_REACTORS
330
47
102
}
330
47
100
AcDbProxyObject
 90
      499
 91
      503
 93
      105
310
903313A344000000000000104000
  0
ACAD_PROXY_OBJECT
  5
4B
102
{ACAD_REACTORS
330
47
102
}
330
47
100
AcDbProxyObject
 90
      499
 91
      503
 93
      105
310
903313A354000000000000144000
  0
ACAD_PROXY_OBJECT
  5
4C
102
{ACAD_REACTORS
330
47
102
}
330
47
100
AcDbProxyObject
 90
      499
 91
      503
 93
      105
310
903313A384000000000000204000
  0
ACAD_PROXY_OBJECT
  5
4D
102
{ACAD_REACTORS
330
47
102
}
330
47
100
AcDbProxyObject
 90
      499
 91
      503
 93
      113
310
904313A31304000000000000244000
  0
ACAD_PROXY_OBJECT
  5
4E
102
{ACAD_REACTORS
330
47
102
}
330
47
100
AcDbProxyObject
 90
      499
 91
      503
 93
      113
310
904313A31364000000000000304000
  0
ACAD_PROXY_OBJECT
  5
4F
102
{ACAD_REACTORS
330
47
102
}
330
47
100
AcDbProxyObject
 90
      499
 91
      503
 93
      113
310
904313A32304000000000000344000
  0
ACAD_PROXY_OBJECT
  5
50
102
{ACAD_REACTORS
330
47
102
}
330
47
100
AcDbProxyObject
 90
      499
 91
      503
 93
      113
310
904313A333040000000000003E4000
  0
ACAD_PROXY_OBJECT
  5
51
102
{ACAD_REACTORS
330
47
102
}
330
47
100
AcDbProxyObject
 90
      499
 91
      503
 93
      113
310
904313A34304000000000000444000
  0
ACAD_PROXY_OBJECT
  5
52
102
{ACAD_REACTORS
330
47
102
}
330
47
100
AcDbProxyObject
 90
      499
 91
      503
 93
      113
310
904313A35304000000000000494000
  0
ACAD_PROXY_OBJECT
  5
53
102
{ACAD_REACTORS
330
47
102
}
330
47
100
AcDbProxyObject
 90
      499
 91
      503
 93
      121
310
905313A3130304000000000000594000
  0
ACAD_PROXY_OBJECT
  5
54
102
{ACAD_REACTORS
330
47
102
}
330
47
100
AcDbProxyObject
 90
      499
 91
      503
 93
      105
310
903323A310000000000000010100
  0
ACAD_PROXY_OBJECT
  5
55
102
{ACAD_REACTORS
330
47
102
}
330
47
100
AcDbProxyObject
 90
      499
 91
      503
 93
      105
310
903343A310000000000000410100
  0
ACAD_PROXY_OBJECT
  5
56
102
{ACAD_REACTORS
330
47
102
}
330
47
100
AcDbProxyObject
 90
      499
 91
      503
 93
      105
310
903383A310000000000000810100
  0
ACAD_PROXY_OBJECT
  5
57
102
{ACAD_REACTORS
330
47
102
}
330
47
100
AcDbProxyObject
 90
      499
 91
      503
 93
      113
310
90431303A310000000000000910100
  0
ACAD_PROXY_OBJECT
  5
58
102
{ACAD_REACTORS
330
47
102
}
330
47
100
AcDbProxyObject
 90
      499
 91
      503
 93
      121
310
9053130303A310000000000001650100
  0
ACAD_PROXY_OBJECT
  5
59
102
{ACAD_REACTORS
330
47
102
}
330
47
100
AcDbProxyObject
 90
      499
 91
      503
 93
      257
310
90E312F31323822203D2031272D3022000000000000200FC000000000000284000
  0
ACAD_PROXY_OBJECT
  5
5A
102
{ACAD_REACTORS
330
47
102
}
330
47
100
AcDbProxyObject
 90
      499
 91
      503
 93
      249
310
90D312F363422203D2031272D3022000000000000240FC000000000000284000
  0
ACAD_PROXY_OBJECT
  5
5B
102
{ACAD_REACTORS
330
47
102
}
330
47
100
AcDbProxyObject
 90
      499
 91
      503
 93
      249
310
90D312F333222203D2031272D3022000000000000280FC000000000000284000
  0
ACAD_PROXY_OBJECT
  5
5C
102
{ACAD_REACTORS
330
47
102
}
330
47
100
AcDbProxyObject
 90
      499
 91
      503
 93
      249
310
90D312F313622203D2031272D30220000000000002C0FC000000000000284000
  0
ACAD_PROXY_OBJECT
  5
5D
102
{ACAD_REACTORS
330
47
102
}
330
47
100
AcDbProxyObject
 90
      499
 91
      503
 93
      249
310
90D332F333222203D2031272D30220000000000002E0FC000000000000284000
  0
ACAD_PROXY_OBJECT
  5
5E
102
{ACAD_REACTORS
330
47
102
}
330
47
100
AcDbProxyObject
 90
      499
 91
      503
 93
      241
310
90C312F3822203D2031272D3022000000000000300FC000000000000284000
  0
ACAD_PROXY_OBJECT
  5
5F
102
{ACAD_REACTORS
330
47
102
}
330
47
100
AcDbProxyObject
 90
      499
 91
      503
 93
      249
310
90D332F313622203D2031272D3022000000000000320FC000000000000284000
  0
ACAD_PROXY_OBJECT
  5
60
102
{ACAD_REACTORS
330
47
102
}
330
47
100
AcDbProxyObject
 90
      499
 91
      503
 93
      241
310
90C312F3422203D2031272D3022000000000000340FC000000000000284000
  0
ACAD_PROXY_OBJECT
  5
61
102
{ACAD_REACTORS
330
47
102
}
330
47
100
AcDbProxyObject
 90
      499
 91
      503
 93
      241
310
90C332F3822203D2031272D3022000000000000360FC000000000000284000
  0
ACAD_PROXY_OBJECT
  5
62
102
{ACAD_REACTORS
330
47
102
}
330
47
100
AcDbProxyObject
 90
      499
 91
      503
 93
      241
310
90C312F3222203D2031272D3022000000000000380FC000000000000284000
  0
ACAD_PROXY_OBJECT
  5
63
102
{ACAD_REACTORS
330
47
102
}
330
47
100
AcDbProxyObject
 90
      499
 91
      503
 93
      241
310
90C332F3422203D2031272D30220000000000003A0FC000000000000284000
  0
ACAD_PROXY_OBJECT
  5
64
102
{ACAD_REACTORS
330
47
102
}
330
47
100
AcDbProxyObject
 90
      499
 91
      503
 93
      161
310
90A3122203D2031272D30224000000000000284000
  0
ACAD_PROXY_OBJECT
  5
65
102
{ACAD_REACTORS
330
47
102
}
330
47
100
AcDbProxyObject
 90
      499
 91
      503
 93
      257
310
90E312D312F3222203D2031272D30220000000000003E0FC000000000000284000
  0
ACAD_PROXY_OBJECT
  5
66
102
{ACAD_REACTORS
330
47
102
}
330
47
100
AcDbProxyObject
 90
      499
 91
      503
 93
      225
310
90A3322203D2031272D302200000000000002100000000000000284000
  0
ACAD_PROXY_OBJECT
  5
67
102
{ACAD_REACTORS
330
47
102
}
330
47
100
AcDbProxyObject
 90
      499
 91
      503
 93
      225
310
90A3622203D2031272D302200000000000006100000000000000284000
  0
ACAD_PROXY_OBJECT
  5
68
102
{ACAD_REACTORS
330
47
102
}
330
47
100
AcDbProxyObject
 90
      499
 91
      503
 93
      249
310
90D31272D3022203D2031272D30220000000000000A100000000000000284000
  0
ACAD_PROXY_OBJECT
  5
2F
102
{ACAD_REACTORS
330
2A
102
}
330
2A
100
AcDbProxyObject
 90
      499
 91
      501
 93
      436
310
42CC9915DA5C99599C985B595049028333333333333E33F0000000000000F90107901411070040501600405405064090741402480A0340
1001
ACAD
1000
AcDbSavedByObjectVersion
1070
     0
  0
ACAD_PROXY_OBJECT
  5
32
102
{ACAD_REACTORS
330
2A
102
}
330
2A
100
AcDbProxyObject
 90
      499
 91
      501
 93
      388
310
4150985CDA58D07406404333333333333E33F0000000000000F90107A41107004050150841D405064090741402480A0350
1001
ACAD
1000
AcDbSavedByObjectVersion
1070
     0
  0
ACAD_PROXY_OBJECT
  5
36
102
{ACAD_REACTORS
330
2A
102
}
330
2A
100
AcDbProxyObject
 90
      499
 91
      501
 93
      428
310
42109C9A59DA1D195B90C409028333333333333E33F0000000000000F9010790141107004050150841D405064090741402480A029950
1001
ACAD
1000
AcDbSavedByObjectVersion
1070
     0
  0
ACAD_PROXY_OBJECT
  5
3A
102
{ACAD_REACTORS
330
2A
102
}
330
2A
100
AcDbProxyObject
 90
      499
 91
      501
 93
      452
310
42D0DBDB1BDC90DA185B99D95104090240C333333333333E33F0000000000000F90108901411070040501508421405064090741402480A0350
1001
ACAD
1000
AcDbSavedByObjectVersion
1070
     0
  0
ACAD_PROXY_OBJECT
  5
34
102
{ACAD_REACTORS
330
2A
102
}
330
2A
100
AcDbProxyObject
 90
      499
 91
      501
 93
      500
310
4290DBDB98D95C1D1D585B10940D028333333333333E33F0000000000000F90107902409070040501000000000018199010841D405064090740C02480A0340
1001
ACAD
1000
AcDbSavedByObjectVersion
1070
     0
  0
ACAD_PROXY_OBJECT
  5
35
102
{ACAD_REACTORS
330
2A
102
}
330
2A
100
AcDbProxyObject
 90
      499
 91
      501
 93
      412
310
40D11A5B50B409028333333333333E33F0000000000000F9010790141107004050150841D405064090741402480A02677FFFFFD0
1001
ACAD
1000
AcDbSavedByObjectVersion
1070
     0
  0
ACAD_PROXY_OBJECT
  5
3D
102
{ACAD_REACTORS
330
2A
102
}
330
2A
100
AcDbProxyObject
 90
      499
 91
      501
 93
      452
310
43115919D950DBDB1BDC93D999916409028333333333333E33F0000000000000F9010790141107004050150841D405064090741402480A0350
1001
ACAD
1000
AcDbSavedByObjectVersion
1070
     0
  0
ACAD_PROXY_OBJECT
  5
39
102
{ACAD_REACTORS
330
2A
102
}
330
2A
100
AcDbProxyObject
 90
      499
 91
      501
 93
      444
310
42D19858D95C185D1D195C9B90F409028333333333333E33F0000000000000F9010790141107004050150841D405064090741402480A0350
1001
ACAD
1000
AcDbSavedByObjectVersion
1070
     0
  0
ACAD_PROXY_OBJECT
  5
2B
102
{ACAD_REACTORS
330
2A
102
}
330
2A
100
AcDbProxyObject
 90
      499
 91
      501
 93
      380
310
41119B185D240901404333333333333E33F0000000000000F9010740A907004050150841D405064090741402480A1B50
1001
ACAD
1000
AcDbSavedByObjectVersion
1070
     0
  0
ACAD_PROXY_OBJECT
  5
2C
102
{ACAD_REACTORS
330
2A
102
}
330
2A
100
AcDbProxyObject
 90
      499
 91
      501
 93
      468
310
43519B185D15DA5D1A115919D95CD0140901404333333333333E33F0000000000000F90107409019070040501600405405064090741402480A1B50
1001
ACAD
1000
AcDbSavedByObjectVersion
1070
     0
  0
ACAD_PROXY_OBJECT
  5
2D
102
{ACAD_REACTORS
330
2A
102
}
330
2A
100
AcDbProxyObject
 90
      499
 91
      501
 93
      404
310
41D1DBDD5C985D5910240902404333333333333E33F0000000000000F9010740A9070040501641D405064090741402480A1B50
1001
ACAD
1000
AcDbSavedByObjectVersion
1070
     0
  0
ACAD_PROXY_OBJECT
  5
2E
102
{ACAD_REACTORS
330
2A
102
}
330
2A
100
AcDbProxyObject
 90
      499
 91
      501
 93
      492
310
4411DBDD5C985D5915DA5D1A115919D95CD0340902404333333333333E33F0000000000000F90107409019070040501600405405064090741402480A1B50
1001
ACAD
1000
AcDbSavedByObjectVersion
1070
     0
  0
ACAD_PROXY_OBJECT
  5
31
102
{ACAD_REACTORS
330
2A
102
}
330
2A
100
AcDbProxyObject
 90
      499
 91
      501
 93
      476
310
41921A5919195B90640502408333333333333E33F0000000000000F901079024090700405020000000000001110200405405064090740C02480A0340
1001
ACAD
1000
AcDbSavedByObjectVersion
1070
     0
  0
ACAD_PROXY_OBJECT
  5
3B
102
{ACAD_REACTORS
330
2A
102
}
330
2A
100
AcDbProxyObject
 90
      499
 91
      501
 93
      428
310
42529A5D1D195C93D999914409028333333333333E33F0000000000000F9010790141107004050150A41D405064090741402480A0350
1001
ACAD
1000
AcDbSavedByObjectVersion
1070
     0
  0
ACAD_PROXY_OBJECT
  5
38
102
{ACAD_REACTORS
330
2A
102
}
330
2A
100
AcDbProxyObject
 90
      499
 91
      501
 93
      444
310
42D31A5B995C185D1D195C9B90E409028333333333333E33F0000000000000F9010790141107004050750841D405064090741402483A0350
1001
ACAD
1000
AcDbSavedByObjectVersion
1070
     0
  0
ACAD_PROXY_OBJECT
  5
3C
102
{ACAD_REACTORS
330
2A
102
}
330
2A
100
AcDbProxyObject
 90
      499
 91
      501
 93
      444
310
42D3DD995C9A185B99D3D999915409028333333333333E33F0000000000000F9010790141107004050150941D405064090741402480A0350
1001
ACAD
1000
AcDbSavedByObjectVersion
1070
     0
  0
ACAD_PROXY_OBJECT
  5
33
102
{ACAD_REACTORS
330
2A
102
}
330
2A
100
AcDbProxyObject
 90
      499
 91
      501
 93
      428
310
425499585B1A5CDD1A58D08409038333333333333E33F0000000000000F9010740A907004050150800405405064090740C02480A1B40
1001
ACAD
1000
AcDbSavedByObjectVersion
1070
     0
  0
ACAD_PROXY_OBJECT
  5
42
102
{ACAD_REACTORS
330
2A
102
}
330
2A
100
AcDbProxyObject
 90
      499
 91
      501
 93
      420
310
4194DA1859195911B40902404333333333333E33F0000000000000F9010740A41107004050150800405405064090840C02480A0B40
1001
ACAD
1000
AcDbSavedByObjectVersion
1070
     0
  0
ACAD_PROXY_OBJECT
  5
41
102
{ACAD_REACTORS
330
2A
102
}
330
2A
100
AcDbProxyObject
 90
      499
 91
      501
 93
      516
310
4454DA18591959081DDA5D1A08195919D95CD1A40902404333333333333E33F0000000000000F901074090142907004050250800405405064090740C02480A0B40
1001
ACAD
1000
AcDbSavedByObjectVersion
1070
     0
  0
ACAD_PROXY_OBJECT
  5
3E
102
{ACAD_REACTORS
330
2A
102
}
330
2A
100
AcDbProxyObject
 90
      499
 91
      501
 93
      532
310
4394DA1859195CC81BD98811DC985E5174090240C333333333333E33F0000000000000F901079024090741D01000000000000111010841D405064090740C02480A0340
1001
ACAD
1000
AcDbSavedByObjectVersion
1070
     0
  0
ACAD_PROXY_OBJECT
  5
3F
102
{ACAD_REACTORS
330
2A
102
}
330
2A
100
AcDbProxyObject
 90
      499
 91
      501
 93
      476
310
41D4DAD95D18DA1E51840502408333333333333E33F0000000000000F901079024090741D01000000000000111010B41D405064090741802480A0340
1001
ACAD
1000
AcDbSavedByObjectVersion
1070
     0
  0
ACAD_PROXY_OBJECT
  5
37
102
{ACAD_REACTORS
330
2A
102
}
330
2A
100
AcDbProxyObject
 90
      499
 91
      501
 93
      412
310
41D51A1A58DAD95B90D409028333333333333E33F0000000000000F9010790141107004050150C41D405064090741402480A0350
1001
ACAD
1000
AcDbSavedByObjectVersion
1070
     0
  0
ACAD_PROXY_OBJECT
  5
30
102
{ACAD_REACTORS
330
2A
102
}
330
2A
100
AcDbProxyObject
 90
      499
 91
      501
 93
      420
310
4255DA5C99599C985B595059028333333333333E33F0000000000000F90107901411070040501600405405064090740C02480A0340
1001
ACAD
1000
AcDbSavedByObjectVersion
1070
     0
  0
ACAD_PROXY_OBJECT
  5
40
102
{ACAD_REACTORS
330
2A
102
}
330
2A
100
AcDbProxyObject
 90
      499
 91
      501
 93
      404
310
41560B54985E51940902404000000000000E03F0000000000000F9010740501907004050150841D405064090740C02480A1B40
1001
ACAD
1000
AcDbSavedByObjectVersion
1070
     0
  0
XRECORD
  5
34C
102
{ACAD_REACTORS
330
343
102
}
330
343
100
AcDbXrecord
 90
        0
  0
XRECORD
  5
362
102
{ACAD_REACTORS
330
343
102
}
330
343
100
AcDbXrecord
1000
DSTYLE
1002
{
1070
   171
 70
     2
1070
   143
 40
25.4
1070
   274
 70
     2
1070
    41
 40
0.18
1070
   141
 40
0.09
1070
   271
 70
     4
1070
    43
 40
0.38
1070
   278
 70
    46
1070
    44
 40
0.18
1070
    42
 40
0.0625
1070
   147
 40
0.09
1070
    77
 70
     0
1070
   272
 70
     4
1070
    73
 70
     1
1070
   172
 70
     0
1070
    74
 70
     1
1070
   283
 70
     1
1070
   340
340
11
1070
   140
 40
0.18
1070
   284
 70
     0
1070
    78
 70
     0
1002
}
  0
XRECORD
  5
34D
102
{ACAD_REACTORS
330
343
102
}
330
343
100
AcDbXrecord
  1
{700F01FC-AD5E-4052-A642-77F7A34610A3}
  0
XRECORD
  5
346
102
{ACAD_REACTORS
330
343
102
}
330
343
100
AcDbXrecord
  1

  0
XRECORD
  5
34B
102
{ACAD_REACTORS
330
343
102
}
330
343
100
AcDbXrecord
 90
        4
  0
XRECORD
  5
348
102
{ACAD_REACTORS
330
343
102
}
330
343
100
AcDbXrecord
340
1A
  0
XRECORD
  5
34A
102
{ACAD_REACTORS
330
343
102
}
330
343
100
AcDbXrecord
 90
    10781
  0
XRECORD
  5
349
102
{ACAD_REACTORS
330
343
102
}
330
343
100
AcDbXrecord
340
19
  0
XRECORD
  5
34F
102
{ACAD_REACTORS
330
343
102
}
330
343
100
AcDbXrecord
 40
0.0
  0
XRECORD
  5
352
102
{ACAD_REACTORS
330
343
102
}
330
343
100
AcDbXrecord
340
0
  0
XRECORD
  5
358
102
{ACAD_REACTORS
330
343
102
}
330
343
100
AcDbXrecord
 10
0.0
 20
0.0
 30
0.0
  0
XRECORD
  5
354
102
{ACAD_REACTORS
330
343
102
}
330
343
100
AcDbXrecord
 10
0.0
 20
0.0
 30
0.0
  0
XRECORD
  5
357
102
{ACAD_REACTORS
330
343
102
}
330
343
100
AcDbXrecord
 10
0.0
 20
0.0
 30
0.0
  0
XRECORD
  5
355
102
{ACAD_REACTORS
330
343
102
}
330
343
100
AcDbXrecord
 10
0.0
 20
0.0
 30
0.0
  0
XRECORD
  5
356
102
{ACAD_REACTORS
330
343
102
}
330
343
100
AcDbXrecord
 10
0.0
 20
0.0
 30
0.0
  0
XRECORD
  5
353
102
{ACAD_REACTORS
330
343
102
}
330
343
100
AcDbXrecord
 10
0.0
 20
0.0
 30
0.0
  0
XRECORD
  5
350
102
{ACAD_REACTORS
330
343
102
}
330
343
100
AcDbXrecord
340
0
  0
XRECORD
  5
351
102
{ACAD_REACTORS
330
343
102
}
330
343
100
AcDbXrecord
 70
     0
  0
XRECORD
  5
347
102
{ACAD_REACTORS
330
343
102
}
330
343
100
AcDbXrecord
  1

  0
XRECORD
  5
344
102
{ACAD_REACTORS
330
343
102
}
330
343
100
AcDbXrecord
 90
        1
  0
XRECORD
  5
345
102
{ACAD_REACTORS
330
343
102
}
330
343
100
AcDbXrecord
 90
       70
  0
XRECORD
  5
35B
102
{ACAD_REACTORS
330
343
102
}
330
343
100
AcDbXrecord
340
0
  0
XRECORD
  5
361
102
{ACAD_REACTORS
330
343
102
}
330
343
100
AcDbXrecord
 10
0.0
 20
0.0
 30
0.0
  0
XRECORD
  5
35D
102
{ACAD_REACTORS
330
343
102
}
330
343
100
AcDbXrecord
 10
0.0
 20
0.0
 30
0.0
  0
XRECORD
  5
360
102
{ACAD_REACTORS
330
343
102
}
330
343
100
AcDbXrecord
 10
0.0
 20
0.0
 30
0.0
  0
XRECORD
  5
35E
102
{ACAD_REACTORS
330
343
102
}
330
343
100
AcDbXrecord
 10
0.0
 20
0.0
 30
0.0
  0
XRECORD
  5
35F
102
{ACAD_REACTORS
330
343
102
}
330
343
100
AcDbXrecord
 10
0.0
 20
0.0
 30
0.0
  0
XRECORD
  5
35C
102
{ACAD_REACTORS
330
343
102
}
330
343
100
AcDbXrecord
 10
0.0
 20
0.0
 30
0.0
  0
XRECORD
  5
359
102
{ACAD_REACTORS
330
343
102
}
330
343
100
AcDbXrecord
340
0
  0
XRECORD
  5
35A
102
{ACAD_REACTORS
330
343
102
}
330
343
100
AcDbXrecord
 70
     0
  0
XRECORD
  5
34E
102
{ACAD_REACTORS
330
343
102
}
330
343
100
AcDbXrecord
  1
{FAEB1C32-E019-11D5-929B-00C0DF256EC4}
  0
DICTIONARYVAR
  5
36C
102
{ACAD_REACTORS
330
363
102
}
330
363
100
DictionaryVariables
280
     0
  1
1:1
  0
DICTIONARYVAR
  5
368
102
{ACAD_REACTORS
330
363
102
}
330
363
100
DictionaryVariables
280
     0
  1
2
  0
DICTIONARYVAR
  5
369
102
{ACAD_REACTORS
330
363
102
}
330
363
100
DictionaryVariables
280
     0
  1
1
  0
DICTIONARYVAR
  5
36D
102
{ACAD_REACTORS
330
363
102
}
330
363
100
DictionaryVariables
280
     0
  1
1
  0
DICTIONARY
  5
370
330
45
100
AcDbDictionary
280
     1
  3
ACAD_XREC_ROUNDTRIP
360
371
  0
DICTIONARY
  5
36E
330
44
100
AcDbDictionary
280
     1
  3
ACAD_XREC_ROUNDTRIP
360
36F
  0
DICTIONARY
  5
372
330
46
100
AcDbDictionary
280
     1
  3
ACAD_XREC_ROUNDTRIP
360
373
  0
XRECORD
  5
371
102
{ACAD_REACTORS
330
370
102
}
330
370
100
AcDbXrecord
102
MATERIAL
148
0.0
149
0.0
149
0.0
 93
        0
 94
      127
282
     0
 72
     1
 77
     1
171
     1
175
     1
179
     1
273
     0
  0
XRECORD
  5
36F
102
{ACAD_REACTORS
330
36E
102
}
330
36E
100
AcDbXrecord
102
MATERIAL
148
0.0
149
0.0
149
0.0
 93
        0
 94
      127
282
     0
 72
     1
 77
     1
171
     1
175
     1
179
     1
273
     0
  0
XRECORD
  5
373
102
{ACAD_REACTORS
330
372
102
}
330
372
100
AcDbXrecord
102
MATERIAL
148
0.0
149
0.0
149
0.0
 93
        0
 94
      127
282
     0
 72
     1
 77
     1
171
     1
175
     1
179
     1
273
     0
  0
ENDSEC
  0
EOF
