999
dxflib 3.12.2.0
  0
SECTION
  2
HEADER
  9
$ACADVER
  1
AC1015
  9
$HANDSEED
  5
FFFF
  9
$ANGBASE
 50
0.0
  9
$ANGDIR
 70
0
  9
$ATTMODE
 70
1
  9
$AUNITS
 70
0
  9
$AUPREC
 70
0
  9
$CECOLOR
 62
256
  9
$CELTSCALE
 40
1.0
  9
$CHAMFERA
 40
0.0
  9
$CHAMFERB
 40
0.0
  9
$CHAMFERC
 40
0.0
  9
$CHAMFERD
 40
0.0
  9
$CMLJUST
 70
0
  9
$CMLSCALE
 40
1.0
  9
$DIMADEC
 70
0
  9
$DIMALT
 70
0
  9
$DIMALTD
 70
2
  9
$DIMALTF
 40
25.3999999999999986
  9
$DIMALTRND
 40
0.0
  9
$DIMALTTD
 70
2
  9
$DIMALTTZ
 70
0
  9
$DIMALTU
 70
2
  9
$DIMALTZ
 70
0
  9
$DIMAPOST
  1

  9
$DIMASZ
 40
0.18
  9
$DIMATFIT
 70
3
  9
$DIMAUNIT
 70
0
  9
$DIMAZIN
 70
0
  9
$DIMBLK
  1

  9
$DIMBLK1
  1

  9
$DIMBLK2
  1

  9
$DIMCEN
 40
0.09
  9
$DIMCLRD
 70
0
  9
$DIMCLRE
 70
0
  9
$DIMCLRT
 70
0
  9
$DIMDEC
 70
4
  9
$DIMDLE
 40
0.0
  9
$DIMDLI
 40
0.38
  9
$DIMDSEP
 70
46
  9
$DIMEXE
 40
0.18
  9
$DIMEXO
 40
0.0625
  9
$DIMFRAC
 70
0
  9
$DIMGAP
 40
0.09
  9
$DIMJUST
 70
0
  9
$DIMLDRBLK
  1

  9
$DIMLFAC
 40
1.0
  9
$DIMLIM
 70
0
  9
$DIMLUNIT
 70
2
  9
$DIMLWD
 70
-2
  9
$DIMLWE
 70
-2
  9
$DIMPOST
  1

  9
$DIMRND
 40
0.0
  9
$DIMSAH
 70
0
  9
$DIMSCALE
 40
1.0
  9
$DIMSD1
 70
0
  9
$DIMSD2
 70
0
  9
$DIMSE1
 70
0
  9
$DIMSE2
 70
0
  9
$DIMSOXD
 70
0
  9
$DIMTAD
 70
0
  9
$DIMTDEC
 70
4
  9
$DIMTFAC
 40
1.0
  9
$DIMTIH
 70
1
  9
$DIMTIX
 70
0
  9
$DIMTM
 40
0.0
  9
$DIMTOFL
 70
0
  9
$DIMTOH
 70
1
  9
$DIMTOL
 70
0
  9
$DIMTOLJ
 70
1
  9
$DIMTP
 40
0.0
  9
$DIMTSZ
 40
0.0
  9
$DIMTVP
 40
0.0
  9
$DIMTXSTY
  7
STANDARD
  9
$DIMTXT
 40
0.18
  9
$DIMTZIN
 70
0
  9
$DIMUPT
 70
0
  9
$DIMZIN
 70
0
  9
$DISPSILH
 70
0
  9
$DWGCODEPAGE
  3
ANSI_1252
  9
$ELEVATION
 40
0.0
  9
$EXTMAX
 10
300.0000000012769874
 20
0.000000000024
 30
486.2999999999919964
  9
$EXTMIN
 10
-0.000000001178
 20
-0.000000858847
 30
0.000000000011
  9
$FILLETRAD
 40
0.5
  9
$FILLMODE
 70
1
  9
$INSBASE
 10
0.0
 20
0.0
 30
0.0
  9
$INSUNITS
 70
4
  9
$LIMCHECK
 70
0
  9
$LIMMAX
 10
12.0
 20
9.0
  9
$LIMMIN
 10
0.0
 20
0.0
  9
$LTSCALE
 40
1.0
  9
$LUNITS
 70
2
  9
$LUPREC
 70
4
  9
$MAXACTVP
 70
64
  9
$MEASUREMENT
 70
1
  9
$MIRRTEXT
 70
1
  9
$ORTHOMODE
 70
0
  9
$PDMODE
 70
0
  9
$PDSIZE
 40
0
  9
$PELEVATION
 40
0.0
  9
$PEXTMAX
 10
-100000000000000000000.0
 20
-100000000000000000000.0
 30
-100000000000000000000.0
  9
$PEXTMIN
 10
100000000000000000000.0
 20
100000000000000000000.0
 30
100000000000000000000.0
  9
$PINSBASE
 10
0.0
 20
0.0
 30
0.0
  9
$PLIMCHECK
 70
0
  9
$PLIMMAX
 10
12.0
 20
9.0
  9
$PLIMMIN
 10
0.0
 20
0.0
  9
$PLINEGEN
 70
0
  9
$PLINEWID
 40
0.0
  9
$PROXYGRAPHICS
 70
1
  9
$PSLTSCALE
 70
1
  9
$PUCSNAME
  2

  9
$PUCSORG
 10
0.0
 20
0.0
 30
0.0
  9
$PUCSXDIR
 10
1.0
 20
0.0
 30
0.0
  9
$PUCSYDIR
 10
0.0
 20
1.0
 30
0.0
  9
$QTEXTMODE
 70
0
  9
$REGENMODE
 70
1
  9
$SHADEDGE
 70
3
  9
$SHADEDIF
 70
70
  9
$SKETCHINC
 40
0.1
  9
$SKPOLY
 70
0
  9
$SPLFRAME
 70
0
  9
$SPLINESEGS
 70
8
  9
$SPLINETYPE
 70
6
  9
$SURFTAB1
 70
6
  9
$SURFTAB2
 70
6
  9
$SURFTYPE
 70
6
  9
$SURFU
 70
6
  9
$SURFV
 70
6
  9
$TEXTSIZE
 40
0.2
  9
$TEXTSTYLE
  7
STANDARD
  9
$THICKNESS
 40
0.0
  9
$TILEMODE
 70
1
  9
$TRACEWID
 40
0.05
  9
$TREEDEPTH
 70
3020
  9
$UCSNAME
  2

  9
$UCSORG
 10
0.0
 20
0.0
 30
0.0
  9
$UCSXDIR
 10
1.0
 20
0.0
 30
0.0
  9
$UCSYDIR
 10
0.0
 20
1.0
 30
0.0
  9
$UNITMODE
 70
0
  9
$USERI1
 70
0
  9
$USERI2
 70
0
  9
$USERI3
 70
0
  9
$USERI4
 70
0
  9
$USERI5
 70
0
  9
$USERR1
 40
0.0
  9
$USERR2
 40
0.0
  9
$USERR3
 40
0.0
  9
$USERR4
 40
0.0
  9
$USERR5
 40
0.0
  9
$USRTIMER
 70
1
  9
$VISRETAIN
 70
1
  0
ENDSEC
  0
SECTION
  2
TABLES
  0
TABLE
  2
VPORT
  5
8
100
AcDbSymbolTable
 70
1
  0
VPORT
  5
30
100
AcDbSymbolTableRecord
100
AcDbViewportTableRecord
  2
*Active
 70
0
 10
0.0
 20
0.0
 11
1.0
 21
1.0
 12
286.3055555555554861
 22
148.5
 13
0.0
 23
0.0
 14
10.0
 24
10.0
 15
10.0
 25
10.0
 16
0.0
 26
0.0
 36
1.0
 17
0.0
 27
0.0
 37
0.0
 40
297.0
 41
1.92798353909465
 42
50.0
 43
0.0
 44
0.0
 50
0.0
 51
0.0
 71
0
 72
100
 73
1
 74
3
 75
1
 76
1
 77
0
 78
0
281
0
 65
1
110
0.0
120
0.0
130
0.0
111
1.0
121
0.0
131
0.0
112
0.0
122
1.0
132
0.0
 79
0
146
0.0
  0
ENDTAB
  0
TABLE
  2
LTYPE
  5
5
100
AcDbSymbolTable
 70
41
  0
LTYPE
  5
16
100
AcDbSymbolTableRecord
100
AcDbLinetypeTableRecord
  2
CONTINUOUS
 70
0
  3
Solid line
 72
65
 73
0
 40
0.0
  0
LTYPE
  5
31
100
AcDbSymbolTableRecord
100
AcDbLinetypeTableRecord
  2
ACAD_ISO13W100
 70
0
  3
ISO double-dash double-dot __ __ . . __ __ . . _
 72
65
 73
8
 40
36.0
 49
12.0
 74
0
 49
-3.0
 74
0
 49
12.0
 74
0
 49
-3.0
 74
0
 49
0.0
 74
0
 49
-3.0
 74
0
 49
0.0
 74
0
 49
-3.0
 74
0
  0
LTYPE
  5
32
100
AcDbSymbolTableRecord
100
AcDbLinetypeTableRecord
  2
HIDDEN
 70
0
  3
Hidden __ __ __ __ __ __ __ __ __ __ __ __ __ __
 72
65
 73
2
 40
9.5249999999999986
 49
6.3499999999999996
 74
0
 49
-3.1749999999999998
 74
0
  0
LTYPE
  5
33
100
AcDbSymbolTableRecord
100
AcDbLinetypeTableRecord
  2
DASHDOT2
 70
0
  3
Dash dot (.5x) _._._._._._._._._._._._._._._.
 72
65
 73
4
 40
12.6999999999999993
 49
6.3499999999999996
 74
0
 49
-3.1749999999999998
 74
0
 49
0.0
 74
0
 49
-3.1749999999999998
 74
0
  0
LTYPE
  5
34
100
AcDbSymbolTableRecord
100
AcDbLinetypeTableRecord
  2
ACAD_ISO05W100
 70
0
  3
ISO long-dash double-dot ____ .. ____ .. ____ . 
 72
65
 73
6
 40
33.0
 49
24.0
 74
0
 49
-3.0
 74
0
 49
0.0
 74
0
 49
-3.0
 74
0
 49
0.0
 74
0
 49
-3.0
 74
0
  0
LTYPE
  5
35
100
AcDbSymbolTableRecord
100
AcDbLinetypeTableRecord
  2
DASHED2
 70
0
  3
Dashed (.5x) _ _ _ _ _ _ _ _ _ _ _ _ _ _ _ _ _ 
 72
65
 73
2
 40
9.5249999999999986
 49
6.3499999999999996
 74
0
 49
-3.1749999999999998
 74
0
  0
LTYPE
  5
36
100
AcDbSymbolTableRecord
100
AcDbLinetypeTableRecord
  2
DOT2
 70
0
  3
Dot (.5x) ........................................
 72
65
 73
2
 40
3.1749999999999998
 49
0.0
 74
0
 49
-3.1749999999999998
 74
0
  0
LTYPE
  5
37
100
AcDbSymbolTableRecord
100
AcDbLinetypeTableRecord
  2
ACAD_ISO12W100
 70
0
  3
ISO dash double-dot __ . . __ . . __ . . __ . . 
 72
65
 73
6
 40
21.0
 49
12.0
 74
0
 49
-3.0
 74
0
 49
0.0
 74
0
 49
-3.0
 74
0
 49
0.0
 74
0
 49
-3.0
 74
0
  0
LTYPE
  5
38
100
AcDbSymbolTableRecord
100
AcDbLinetypeTableRecord
  2
ACAD_ISO04W100
 70
0
  3
ISO long-dash dot ____ . ____ . ____ . ____ . _
 72
65
 73
4
 40
30.0
 49
24.0
 74
0
 49
-3.0
 74
0
 49
0.0
 74
0
 49
-3.0
 74
0
  0
LTYPE
  5
15
100
AcDbSymbolTableRecord
100
AcDbLinetypeTableRecord
  2
BYLAYER
 70
0
  3

 72
65
 73
0
 40
0.0
  0
LTYPE
  5
39
100
AcDbSymbolTableRecord
100
AcDbLinetypeTableRecord
  2
DOTX2
 70
0
  3
Dot (2x) .  .  .  .  .  .  .  .  .  .  .  .  .  .
 72
65
 73
2
 40
12.6999999999999993
 49
0.0
 74
0
 49
-12.6999999999999993
 74
0
  0
LTYPE
  5
3A
100
AcDbSymbolTableRecord
100
AcDbLinetypeTableRecord
  2
CENTER2
 70
0
  3
Center (.5x) ___ _ ___ _ ___ _ ___ _ ___ _ ___
 72
65
 73
4
 40
28.5750000000000028
 49
19.0500000000000007
 74
0
 49
-3.1749999999999998
 74
0
 49
3.1749999999999998
 74
0
 49
-3.1749999999999998
 74
0
  0
LTYPE
  5
3B
100
AcDbSymbolTableRecord
100
AcDbLinetypeTableRecord
  2
ACAD_ISO11W100
 70
0
  3
ISO double-dash dot __ __ . __ __ . __ __ . __ _
 72
65
 73
6
 40
33.0
 49
12.0
 74
0
 49
-3.0
 74
0
 49
12.0
 74
0
 49
-3.0
 74
0
 49
0.0
 74
0
 49
-3.0
 74
0
  0
LTYPE
  5
3C
100
AcDbSymbolTableRecord
100
AcDbLinetypeTableRecord
  2
DASHDOTX2
 70
0
  3
Dash dot (2x) ____  .  ____  .  ____  .  ___
 72
65
 73
4
 40
50.7999999999999972
 49
25.3999999999999986
 74
0
 49
-12.6999999999999993
 74
0
 49
0.0
 74
0
 49
-12.6999999999999993
 74
0
  0
LTYPE
  5
3D
100
AcDbSymbolTableRecord
100
AcDbLinetypeTableRecord
  2
ACAD_ISO03W100
 70
0
  3
ISO dash space __    __    __    __    __    __
 72
65
 73
2
 40
30.0
 49
12.0
 74
0
 49
-18.0
 74
0
  0
LTYPE
  5
3E
100
AcDbSymbolTableRecord
100
AcDbLinetypeTableRecord
  2
DASHDOT
 70
0
  3
Dash dot __ . __ . __ . __ . __ . __ . __ . __
 72
65
 73
4
 40
25.3999999999999986
 49
12.6999999999999993
 74
0
 49
-6.3499999999999996
 74
0
 49
0.0
 74
0
 49
-6.3499999999999996
 74
0
  0
LTYPE
  5
3F
100
AcDbSymbolTableRecord
100
AcDbLinetypeTableRecord
  2
ACAD_ISO10W100
 70
0
  3
ISO dash dot __ . __ . __ . __ . __ . __ . __ . 
 72
65
 73
4
 40
18.0
 49
12.0
 74
0
 49
-3.0
 74
0
 49
0.0
 74
0
 49
-3.0
 74
0
  0
LTYPE
  5
40
100
AcDbSymbolTableRecord
100
AcDbLinetypeTableRecord
  2
CENTERX2
 70
0
  3
Center (2x) ________  __  ________  __  _____
 72
65
 73
4
 40
101.6000000000000085
 49
63.5
 74
0
 49
-12.6999999999999993
 74
0
 49
12.6999999999999993
 74
0
 49
-12.6999999999999993
 74
0
  0
LTYPE
  5
41
100
AcDbSymbolTableRecord
100
AcDbLinetypeTableRecord
  2
ACAD_ISO02W100
 70
0
  3
ISO dash __ __ __ __ __ __ __ __ __ __ __ __ __
 72
65
 73
2
 40
15.0
 49
12.0
 74
0
 49
-3.0
 74
0
  0
LTYPE
  5
42
100
AcDbSymbolTableRecord
100
AcDbLinetypeTableRecord
  2
PHANTOMX2
 70
0
  3
Phantom (2x) ____________    ____    ____   _
 72
65
 73
6
 40
127.0000000000000142
 49
63.5
 74
0
 49
-12.6999999999999993
 74
0
 49
12.6999999999999993
 74
0
 49
-12.6999999999999993
 74
0
 49
12.6999999999999993
 74
0
 49
-12.6999999999999993
 74
0
  0
LTYPE
  5
43
100
AcDbSymbolTableRecord
100
AcDbLinetypeTableRecord
  2
PHANTOM
 70
0
  3
Phantom ______  __  __  ______  __  __  ______ 
 72
65
 73
6
 40
63.5000000000000071
 49
31.75
 74
0
 49
-6.3499999999999996
 74
0
 49
6.3499999999999996
 74
0
 49
-6.3499999999999996
 74
0
 49
6.3499999999999996
 74
0
 49
-6.3499999999999996
 74
0
  0
LTYPE
  5
44
100
AcDbSymbolTableRecord
100
AcDbLinetypeTableRecord
  2
DOT
 70
0
  3
Dot . . . . . . . . . . . . . . . . . . . . . . . .
 72
65
 73
2
 40
6.3499999999999996
 49
0.0
 74
0
 49
-6.3499999999999996
 74
0
  0
LTYPE
  5
45
100
AcDbSymbolTableRecord
100
AcDbLinetypeTableRecord
  2
BORDERX2
 70
0
  3
Border (2x) ____  ____  .  ____  ____  .  ___
 72
65
 73
6
 40
88.8999999999999915
 49
25.3999999999999986
 74
0
 49
-12.6999999999999993
 74
0
 49
25.3999999999999986
 74
0
 49
-12.6999999999999993
 74
0
 49
0.0
 74
0
 49
-12.6999999999999993
 74
0
  0
LTYPE
  5
46
100
AcDbSymbolTableRecord
100
AcDbLinetypeTableRecord
  2
BORDER2
 70
0
  3
Border (.5x) __.__.__.__.__.__.__.__.__.__.__.
 72
65
 73
6
 40
22.2249999999999979
 49
6.3499999999999996
 74
0
 49
-3.1749999999999998
 74
0
 49
6.3499999999999996
 74
0
 49
-3.1749999999999998
 74
0
 49
0.0
 74
0
 49
-3.1749999999999998
 74
0
  0
LTYPE
  5
47
100
AcDbSymbolTableRecord
100
AcDbLinetypeTableRecord
  2
PHANTOM2
 70
0
  3
Phantom (.5x) ___ _ _ ___ _ _ ___ _ _ ___ _ _
 72
65
 73
6
 40
31.7500000000000036
 49
15.875
 74
0
 49
-3.1749999999999998
 74
0
 49
3.1749999999999998
 74
0
 49
-3.1749999999999998
 74
0
 49
3.1749999999999998
 74
0
 49
-3.1749999999999998
 74
0
  0
LTYPE
  5
48
100
AcDbSymbolTableRecord
100
AcDbLinetypeTableRecord
  2
DIVIDE2
 70
0
  3
Divide (.5x) __..__..__..__..__..__..__..__.._
 72
65
 73
6
 40
15.875
 49
6.3499999999999996
 74
0
 49
-3.1749999999999998
 74
0
 49
0.0
 74
0
 49
-3.1749999999999998
 74
0
 49
0.0
 74
0
 49
-3.1749999999999998
 74
0
  0
LTYPE
  5
49
100
AcDbSymbolTableRecord
100
AcDbLinetypeTableRecord
  2
CENTER
 70
0
  3
Center ____ _ ____ _ ____ _ ____ _ ____ _ ____
 72
65
 73
4
 40
50.8000000000000043
 49
31.75
 74
0
 49
-6.3499999999999996
 74
0
 49
6.3499999999999996
 74
0
 49
-6.3499999999999996
 74
0
  0
LTYPE
  5
4A
100
AcDbSymbolTableRecord
100
AcDbLinetypeTableRecord
  2
ACAD_ISO09W100
 70
0
  3
ISO long-dash double-short-dash ____ __ __ ____
 72
65
 73
6
 40
45.0
 49
24.0
 74
0
 49
-3.0
 74
0
 49
6.0
 74
0
 49
-3.0
 74
0
 49
6.0
 74
0
 49
-3.0
 74
0
  0
LTYPE
  5
4B
100
AcDbSymbolTableRecord
100
AcDbLinetypeTableRecord
  2
HIDDEN2
 70
0
  3
Hidden (.5x) _ _ _ _ _ _ _ _ _ _ _ _ _ _ _ _ _ 
 72
65
 73
2
 40
4.7624999999999993
 49
3.1749999999999998
 74
0
 49
-1.5874999999999999
 74
0
  0
LTYPE
  5
4C
100
AcDbSymbolTableRecord
100
AcDbLinetypeTableRecord
  2
DIVIDE
 70
0
  3
Divide ____ . . ____ . . ____ . . ____ . . ____
 72
65
 73
6
 40
31.75
 49
12.6999999999999993
 74
0
 49
-6.3499999999999996
 74
0
 49
0.0
 74
0
 49
-6.3499999999999996
 74
0
 49
0.0
 74
0
 49
-6.3499999999999996
 74
0
  0
LTYPE
  5
4D
100
AcDbSymbolTableRecord
100
AcDbLinetypeTableRecord
  2
DASHED
 70
0
  3
Dashed __ __ __ __ __ __ __ __ __ __ __ __ __ _
 72
65
 73
2
 40
19.0499999999999972
 49
12.6999999999999993
 74
0
 49
-6.3499999999999996
 74
0
  0
LTYPE
  5
4E
100
AcDbSymbolTableRecord
100
AcDbLinetypeTableRecord
  2
HIDDENX2
 70
0
  3
Hidden (2x) ____ ____ ____ ____ ____ ____ ____ 
 72
65
 73
2
 40
19.0499999999999972
 49
12.6999999999999993
 74
0
 49
-6.3499999999999996
 74
0
  0
LTYPE
  5
4F
100
AcDbSymbolTableRecord
100
AcDbLinetypeTableRecord
  2
ACAD_ISO08W100
 70
0
  3
ISO long-dash short-dash ____ __ ____ __ ____ _
 72
65
 73
4
 40
36.0
 49
24.0
 74
0
 49
-3.0
 74
0
 49
6.0
 74
0
 49
-3.0
 74
0
  0
LTYPE
  5
50
100
AcDbSymbolTableRecord
100
AcDbLinetypeTableRecord
  2
DASHEDX2
 70
0
  3
Dashed (2x) ____  ____  ____  ____  ____  ___
 72
65
 73
2
 40
38.0999999999999943
 49
25.3999999999999986
 74
0
 49
-12.6999999999999993
 74
0
  0
LTYPE
  5
51
100
AcDbSymbolTableRecord
100
AcDbLinetypeTableRecord
  2
ACAD_ISO15W100
 70
0
  3
ISO double-dash triple-dot __ __ . . . __ __ . .
 72
65
 73
10
 40
39.0
 49
12.0
 74
0
 49
-3.0
 74
0
 49
12.0
 74
0
 49
-3.0
 74
0
 49
0.0
 74
0
 49
-3.0
 74
0
 49
0.0
 74
0
 49
-3.0
 74
0
 49
0.0
 74
0
 49
-3.0
 74
0
  0
LTYPE
  5
14
100
AcDbSymbolTableRecord
100
AcDbLinetypeTableRecord
  2
BYBLOCK
 70
0
  3

 72
65
 73
0
 40
0.0
  0
LTYPE
  5
52
100
AcDbSymbolTableRecord
100
AcDbLinetypeTableRecord
  2
ACAD_ISO07W100
 70
0
  3
ISO dot . . . . . . . . . . . . . . . . . . . . 
 72
65
 73
2
 40
3.0
 49
0.0
 74
0
 49
-3.0
 74
0
  0
LTYPE
  5
53
100
AcDbSymbolTableRecord
100
AcDbLinetypeTableRecord
  2
BORDER
 70
0
  3
Border __ __ . __ __ . __ __ . __ __ . __ __ .
 72
65
 73
6
 40
44.4499999999999957
 49
12.6999999999999993
 74
0
 49
-6.3499999999999996
 74
0
 49
12.6999999999999993
 74
0
 49
-6.3499999999999996
 74
0
 49
0.0
 74
0
 49
-6.3499999999999996
 74
0
  0
LTYPE
  5
54
100
AcDbSymbolTableRecord
100
AcDbLinetypeTableRecord
  2
ACAD_ISO14W100
 70
0
  3
ISO dash triple-dot __ . . . __ . . . __ . . . _
 72
65
 73
8
 40
24.0
 49
12.0
 74
0
 49
-3.0
 74
0
 49
0.0
 74
0
 49
-3.0
 74
0
 49
0.0
 74
0
 49
-3.0
 74
0
 49
0.0
 74
0
 49
-3.0
 74
0
  0
LTYPE
  5
55
100
AcDbSymbolTableRecord
100
AcDbLinetypeTableRecord
  2
DIVIDEX2
 70
0
  3
Divide (2x) ________  .  .  ________  .  .  _
 72
65
 73
6
 40
63.5
 49
25.3999999999999986
 74
0
 49
-12.6999999999999993
 74
0
 49
0.0
 74
0
 49
-12.6999999999999993
 74
0
 49
0.0
 74
0
 49
-12.6999999999999993
 74
0
  0
LTYPE
  5
56
100
AcDbSymbolTableRecord
100
AcDbLinetypeTableRecord
  2
ACAD_ISO06W100
 70
0
  3
ISO long-dash triple-dot ____ ... ____ ... ____
 72
65
 73
8
 40
36.0
 49
24.0
 74
0
 49
-3.0
 74
0
 49
0.0
 74
0
 49
-3.0
 74
0
 49
0.0
 74
0
 49
-3.0
 74
0
 49
0.0
 74
0
 49
-3.0
 74
0
  0
ENDTAB
  0
TABLE
  2
LAYER
  5
2
100
AcDbSymbolTable
 70
1
  0
LAYER
  5
10
100
AcDbSymbolTableRecord
100
AcDbLayerTableRecord
  2
0
 70
0
 62
13
420
10834514
  6
CONTINUOUS
370
-3
390
F
  0
ENDTAB
  0
TABLE
  2
STYLE
  5
3
100
AcDbSymbolTable
 70
1
  0
STYLE
  5
57
100
AcDbSymbolTableRecord
100
AcDbTextStyleTableRecord
  2
Standard
 70
0
 40
0.0
 41
1.0
 50
0.0
 71
0
 42
2.5
  3

  4

1001
ACAD
1000
txt
1071
0
  0
ENDTAB
  0
TABLE
  2
VIEW
  5
6
100
AcDbSymbolTable
 70
0
  0
ENDTAB
  0
TABLE
  2
UCS
  5
7
100
AcDbSymbolTable
 70
0
  0
ENDTAB
  0
TABLE
  2
APPID
  5
9
100
AcDbSymbolTable
 70
1
  0
APPID
  5
12
100
AcDbSymbolTableRecord
100
AcDbRegAppTableRecord
  2
ACAD
 70
0
  0
APPID
  5
58
100
AcDbSymbolTableRecord
100
AcDbRegAppTableRecord
  2
QCAD
 70
0
  0
ENDTAB
  0
TABLE
  2
DIMSTYLE
  5
A
100
AcDbSymbolTable
 70
1
100
AcDbDimStyleTable
 71
0
  0
DIMSTYLE
105
27
100
AcDbSymbolTableRecord
100
AcDbDimStyleTableRecord
  2
Standard
 41
0.18
 42
0.0625
 43
3.75
 44
0.18
 70
0
 73
0
 74
0
 77
1
 78
8
140
0.18
141
2.5
143
0.03937007874016
147
0.09
171
3
172
1
271
2
272
2
274
3
278
44
283
0
284
8
340
57
  0
ENDTAB
  0
TABLE
  2
BLOCK_RECORD
  5
1
100
AcDbSymbolTable
 70
1
  0
BLOCK_RECORD
  5
1F
100
AcDbSymbolTableRecord
100
AcDbBlockTableRecord
  2
*Model_Space
340
22
  0
BLOCK_RECORD
  5
1B
100
AcDbSymbolTableRecord
100
AcDbBlockTableRecord
  2
*Paper_Space
340
1E
  0
BLOCK_RECORD
  5
23
100
AcDbSymbolTableRecord
100
AcDbBlockTableRecord
  2
*Paper_Space0
340
26
  0
ENDTAB
  0
ENDSEC
  0
SECTION
  2
BLOCKS
  0
BLOCK
  5
20
100
AcDbEntity
  8
0
100
AcDbBlockBegin
  2
*Model_Space
 70
0
 10
0.0
 20
0.0
 30
0.0
  3
*Model_Space
  1

  0
ENDBLK
  5
21
100
AcDbEntity
  8
0
100
AcDbBlockEnd
  0
BLOCK
  5
1C
100
AcDbEntity
 67
1
  8
0
100
AcDbBlockBegin
  2
*Paper_Space
 70
0
 10
0.0
 20
0.0
 30
0.0
  3
*Paper_Space
  1

  0
ENDBLK
  5
1D
100
AcDbEntity
 67
1
  8
0
100
AcDbBlockEnd
  0
BLOCK
  5
24
100
AcDbEntity
  8
0
100
AcDbBlockBegin
  2
*Paper_Space0
 70
0
 10
0.0
 20
0.0
 30
0.0
  3
*Paper_Space0
  1

  0
ENDBLK
  5
25
100
AcDbEntity
  8
0
100
AcDbBlockEnd
  0
ENDSEC
  0
SECTION
  2
ENTITIES
  0
CIRCLE
  5
59
100
AcDbEntity
  8
0
 62
256
370
-1
 48
1.0
  6
BYLAYER
100
AcDbCircle
 10
237.6119834870320062
 20
34.6680279766559991
 30
0.0
 40
1.4999999938441231
  0
CIRCLE
  5
5A
100
AcDbEntity
  8
0
 62
256
370
-1
 48
1.0
  6
BYLAYER
100
AcDbCircle
 10
144.5000009702926604
 20
146.9999999787618776
 30
0.0
 40
1.999999999999996
  0
LINE
  5
5B
100
AcDbEntity
  8
0
 62
256
370
-1
 48
1.0
  6
BYLAYER
100
AcDbLine
 10
6.0000000095889998
 20
433.800000000201976
 30
0.0
 11
12.000000009611
 21
433.7999999999739771
 31
0.0
  0
LINE
  5
5C
100
AcDbEntity
  8
0
 62
256
370
-1
 48
1.0
  6
BYLAYER
100
AcDbLine
 10
44.5000000012540013
 20
480.2999999999460101
 30
0.0
 11
44.5000000012540013
 21
474.2999999999299803
 31
0.0
  0
LINE
  5
5D
100
AcDbEntity
  8
0
 62
256
370
-1
 48
1.0
  6
BYLAYER
100
AcDbLine
 10
16.0000000013360015
 20
0.000000000011
 30
0.0
 11
16.0000000013360015
 21
6.0
 31
0.0
  0
LINE
  5
5E
100
AcDbEntity
  8
0
 62
256
370
-1
 48
1.0
  6
BYLAYER
100
AcDbLine
 10
26.0000000012549997
 20
6.0000000000469997
 30
0.0
 11
26.0000000012549997
 21
0.000000000012
 31
0.0
  0
LINE
  5
5F
100
AcDbEntity
  8
0
 62
256
370
-1
 48
1.0
  6
BYLAYER
100
AcDbLine
 10
16.0000000013360015
 20
6.0
 30
0.0
 11
6.0000000013349997
 21
6.0
 31
0.0
  0
LINE
  5
60
100
AcDbEntity
  8
0
 62
256
370
-1
 48
1.0
  6
BYLAYER
100
AcDbLine
 10
44.5000000012540013
 20
471.299999999932993
 30
0.0
 11
42.0000000012540013
 21
471.299999999932993
 31
0.0
  0
LINE
  5
61
100
AcDbEntity
  8
0
 62
256
370
-1
 48
1.0
  6
BYLAYER
100
AcDbLine
 10
44.5000000012540013
 20
471.299999999932993
 30
0.0
 11
44.5000000012529995
 21
469.3000000000200203
 31
0.0
  0
LINE
  5
62
100
AcDbEntity
  8
0
 62
256
370
-1
 48
1.0
  6
BYLAYER
100
AcDbLine
 10
6.0000000001259997
 20
21.0000000001170015
 30
0.0
 11
0.000000000115
 21
21.0000000002549996
 31
0.0
  0
LINE
  5
63
100
AcDbEntity
  8
0
 62
256
370
-1
 48
1.0
  6
BYLAYER
100
AcDbLine
 10
0.000000001267
 20
71.0000000002540048
 30
0.0
 11
0.000000001495
 21
81.0000000001730029
 31
0.0
  0
LINE
  5
64
100
AcDbEntity
  8
0
 62
256
370
-1
 48
1.0
  6
BYLAYER
100
AcDbLine
 10
12.0000000004490008
 20
46.999999999888999
 30
0.0
 11
15.0000000004490008
 21
46.9999999997979998
 31
0.0
  0
LINE
  5
65
100
AcDbEntity
  8
0
 62
256
370
-1
 48
1.0
  6
BYLAYER
100
AcDbLine
 10
15.0000000005060006
 20
49.4999999997979998
 30
0.0
 11
15.0000000004490008
 21
46.9999999997979998
 31
0.0
  0
LINE
  5
66
100
AcDbEntity
  8
0
 62
256
370
-1
 48
1.0
  6
BYLAYER
100
AcDbLine
 10
294.0000000012640271
 20
177.6000000000919954
 30
0.0
 11
294.0000000012640271
 21
159.1000000000929901
 31
0.0
  0
LINE
  5
67
100
AcDbEntity
  8
0
 62
256
370
-1
 48
1.0
  6
BYLAYER
100
AcDbLine
 10
12.0000000093859995
 20
303.1999999999749775
 30
0.0
 11
15.0000000092990007
 21
303.1999999998840281
 31
0.0
  0
LINE
  5
68
100
AcDbEntity
  8
0
 62
256
370
-1
 48
1.0
  6
BYLAYER
100
AcDbLine
 10
15.0000000093560004
 20
305.6999999998840281
 30
0.0
 11
15.0000000092990007
 21
303.1999999998840281
 31
0.0
  0
LINE
  5
69
100
AcDbEntity
  8
0
 62
256
370
-1
 48
1.0
  6
BYLAYER
100
AcDbLine
 10
6.0000000014500001
 20
81.0000000000359961
 30
0.0
 11
0.000000001495
 21
81.0000000001730029
 31
0.0
  0
LINE
  5
6A
100
AcDbEntity
  8
0
 62
256
370
-1
 48
1.0
  6
BYLAYER
100
AcDbLine
 10
6.0000000008459997
 20
52.500000000116998
 30
0.0
 11
12.0000000005749996
 21
52.499999999888999
 31
0.0
  0
LINE
  5
6B
100
AcDbEntity
  8
0
 62
256
370
-1
 48
1.0
  6
BYLAYER
100
AcDbLine
 10
6.0000000007779999
 20
49.500000000116998
 30
0.0
 11
12.0000000005060006
 21
49.499999999888999
 31
0.0
  0
LINE
  5
6C
100
AcDbEntity
  8
0
 62
256
370
-1
 48
1.0
  6
BYLAYER
100
AcDbLine
 10
6.0000000003549996
 20
31.0000000001170015
 30
0.0
 11
0.000000000344
 21
31.0000000002549996
 31
0.0
  0
LINE
  5
6D
100
AcDbEntity
  8
0
 62
256
370
-1
 48
1.0
  6
BYLAYER
100
AcDbLine
 10
0.000000000115
 20
21.0000000002549996
 30
0.0
 11
0.000000000344
 21
31.0000000002549996
 31
0.0
  0
LINE
  5
6E
100
AcDbEntity
  8
0
 62
256
370
-1
 48
1.0
  6
BYLAYER
100
AcDbLine
 10
6.0000000012679999
 20
71.000000000116998
 30
0.0
 11
0.000000001267
 21
71.0000000002540048
 31
0.0
  0
LINE
  5
6F
100
AcDbEntity
  8
0
 62
256
370
-1
 48
1.0
  6
BYLAYER
100
AcDbLine
 10
146.000000001254989
 20
474.2999999999750003
 30
0.0
 11
146.0000000012539942
 21
471.299999999978013
 31
0.0
  0
LINE
  5
70
100
AcDbEntity
  8
0
 62
256
370
-1
 48
1.0
  6
BYLAYER
100
AcDbLine
 10
148.5000000012539942
 20
471.299999999978013
 30
0.0
 11
146.0000000012539942
 21
471.299999999978013
 31
0.0
  0
LINE
  5
71
100
AcDbEntity
  8
0
 62
256
370
-1
 48
1.0
  6
BYLAYER
100
AcDbLine
 10
148.5000000012539942
 20
471.299999999978013
 30
0.0
 11
148.5000000012539942
 21
469.3000000000279783
 31
0.0
  0
LINE
  5
72
100
AcDbEntity
  8
0
 62
256
370
-1
 48
1.0
  6
BYLAYER
100
AcDbLine
 10
148.5000000012539942
 20
469.3000000000279783
 30
0.0
 11
151.5000000012539942
 21
469.3000000000279783
 31
0.0
  0
LINE
  5
73
100
AcDbEntity
  8
0
 62
256
370
-1
 48
1.0
  6
BYLAYER
100
AcDbLine
 10
151.500000001254989
 20
471.299999999978013
 30
0.0
 11
151.5000000012539942
 21
469.3000000000279783
 31
0.0
  0
LINE
  5
74
100
AcDbEntity
  8
0
 62
256
370
-1
 48
1.0
  6
BYLAYER
100
AcDbLine
 10
151.500000001254989
 20
471.299999999978013
 30
0.0
 11
154.0000000012539942
 21
471.299999999978013
 31
0.0
  0
LINE
  5
75
100
AcDbEntity
  8
0
 62
256
370
-1
 48
1.0
  6
BYLAYER
100
AcDbLine
 10
154.000000001254989
 20
474.2999999999750003
 30
0.0
 11
154.0000000012539942
 21
471.299999999978013
 31
0.0
  0
LINE
  5
76
100
AcDbEntity
  8
0
 62
256
370
-1
 48
1.0
  6
BYLAYER
100
AcDbLine
 10
130.0000000012539942
 20
480.2999999999649958
 30
0.0
 11
148.500000001254989
 21
480.2999999999909733
 31
0.0
  0
LINE
  5
77
100
AcDbEntity
  8
0
 62
256
370
-1
 48
1.0
  6
BYLAYER
100
AcDbLine
 10
16.0000000013360015
 20
0.000000000011
 30
0.0
 11
26.0000000012549997
 21
0.000000000012
 31
0.0
  0
LINE
  5
78
100
AcDbEntity
  8
0
 62
256
370
-1
 48
1.0
  6
BYLAYER
100
AcDbLine
 10
250.0000000012539942
 20
11.9999999999890008
 30
0.0
 11
250.0000000012539942
 21
14.9999999999939995
 31
0.0
  0
LINE
  5
79
100
AcDbEntity
  8
0
 62
256
370
-1
 48
1.0
  6
BYLAYER
100
AcDbLine
 10
252.5000000012539942
 20
11.9999999999890008
 30
0.0
 11
250.0000000012539942
 21
11.9999999999890008
 31
0.0
  0
LINE
  5
7A
100
AcDbEntity
  8
0
 62
256
370
-1
 48
1.0
  6
BYLAYER
100
AcDbLine
 10
294.0000000012580017
 20
6.0
 30
0.0
 11
284.0000000012540227
 21
6.0000000000020002
 31
0.0
  0
LINE
  5
7B
100
AcDbEntity
  8
0
 62
256
370
-1
 48
1.0
  6
BYLAYER
100
AcDbLine
 10
274.0000000012540227
 20
6.0000000000020002
 30
0.0
 11
255.5000000012539942
 21
6.0000000000020002
 31
0.0
  0
LINE
  5
7C
100
AcDbEntity
  8
0
 62
256
370
-1
 48
1.0
  6
BYLAYER
100
AcDbLine
 10
148.5000000012539942
 20
14.9999999999939995
 30
0.0
 11
146.0000000012539942
 21
14.9999999999939995
 31
0.0
  0
LINE
  5
7D
100
AcDbEntity
  8
0
 62
256
370
-1
 48
1.0
  6
BYLAYER
100
AcDbLine
 10
146.000000001254989
 20
11.9999999999890008
 30
0.0
 11
146.0000000012539942
 21
14.9999999999939995
 31
0.0
  0
LINE
  5
7E
100
AcDbEntity
  8
0
 62
256
370
-1
 48
1.0
  6
BYLAYER
100
AcDbLine
 10
148.500000001254989
 20
11.9999999999890008
 30
0.0
 11
146.000000001254989
 21
11.9999999999890008
 31
0.0
  0
LINE
  5
7F
100
AcDbEntity
  8
0
 62
256
370
-1
 48
1.0
  6
BYLAYER
100
AcDbLine
 10
252.5000000012539942
 20
6.0000000000020002
 30
0.0
 11
234.0000000012539942
 21
6.0000000000030003
 31
0.0
  0
LINE
  5
80
100
AcDbEntity
  8
0
 62
256
370
-1
 48
1.0
  6
BYLAYER
100
AcDbLine
 10
255.5000000012539942
 20
11.9999999999890008
 30
0.0
 11
258.0000000012540227
 21
11.9999999999890008
 31
0.0
  0
LINE
  5
81
100
AcDbEntity
  8
0
 62
256
370
-1
 48
1.0
  6
BYLAYER
100
AcDbLine
 10
258.0000000012540227
 20
11.9999999999890008
 30
0.0
 11
258.0000000012540227
 21
14.9999999999939995
 31
0.0
  0
LINE
  5
82
100
AcDbEntity
  8
0
 62
256
370
-1
 48
1.0
  6
BYLAYER
100
AcDbLine
 10
255.5000000012539942
 20
14.9999999999939995
 30
0.0
 11
258.0000000012540227
 21
14.9999999999939995
 31
0.0
  0
LINE
  5
83
100
AcDbEntity
  8
0
 62
256
370
-1
 48
1.0
  6
BYLAYER
100
AcDbLine
 10
255.5000000012539942
 20
14.9999999999939995
 30
0.0
 11
255.5000000012529995
 21
16.9999999999240003
 31
0.0
  0
LINE
  5
84
100
AcDbEntity
  8
0
 62
256
370
-1
 48
1.0
  6
BYLAYER
100
AcDbLine
 10
252.5000000012529995
 20
16.9999999999240003
 30
0.0
 11
255.5000000012529995
 21
16.9999999999240003
 31
0.0
  0
LINE
  5
85
100
AcDbEntity
  8
0
 62
256
370
-1
 48
1.0
  6
BYLAYER
100
AcDbLine
 10
252.5000000012539942
 20
14.9999999999939995
 30
0.0
 11
252.5000000012529995
 21
16.9999999999240003
 31
0.0
  0
LINE
  5
86
100
AcDbEntity
  8
0
 62
256
370
-1
 48
1.0
  6
BYLAYER
100
AcDbLine
 10
252.5000000012539942
 20
14.9999999999939995
 30
0.0
 11
250.0000000012539942
 21
14.9999999999939995
 31
0.0
  0
LINE
  5
87
100
AcDbEntity
  8
0
 62
256
370
-1
 48
1.0
  6
BYLAYER
100
AcDbLine
 10
288.0000000012370265
 20
47.0000000000840004
 30
0.0
 11
285.0000000011709744
 21
47.0000000000850022
 31
0.0
  0
LINE
  5
88
100
AcDbEntity
  8
0
 62
256
370
-1
 48
1.0
  6
BYLAYER
100
AcDbLine
 10
285.0000000011709744
 20
52.5000000000850022
 30
0.0
 11
285.0000000011709744
 21
55.0000000000840004
 31
0.0
  0
LINE
  5
89
100
AcDbEntity
  8
0
 62
256
370
-1
 48
1.0
  6
BYLAYER
100
AcDbLine
 10
294.000000001254989
 20
52.5000000000850022
 30
0.0
 11
288.0000000012370265
 21
52.5000000000850022
 31
0.0
  0
LINE
  5
8A
100
AcDbEntity
  8
0
 62
256
370
-1
 48
1.0
  6
BYLAYER
100
AcDbLine
 10
288.0000000012370265
 20
55.0000000000840004
 30
0.0
 11
285.0000000011709744
 21
55.0000000000840004
 31
0.0
  0
LINE
  5
8B
100
AcDbEntity
  8
0
 62
256
370
-1
 48
1.0
  6
BYLAYER
100
AcDbLine
 10
283.0000000013670274
 20
49.5000000000840004
 30
0.0
 11
283.0000000013670274
 21
52.5000000000850022
 31
0.0
  0
LINE
  5
8C
100
AcDbEntity
  8
0
 62
256
370
-1
 48
1.0
  6
BYLAYER
100
AcDbLine
 10
224.0000000012539942
 20
6.0000000000030003
 30
0.0
 11
180.0000000012539942
 21
6.0000000000210001
 31
0.0
  0
LINE
  5
8D
100
AcDbEntity
  8
0
 62
256
370
-1
 48
1.0
  6
BYLAYER
100
AcDbLine
 10
234.0000000012539942
 20
0.000000000012
 30
0.0
 11
224.0000000012539942
 21
0.000000000012
 31
0.0
  0
LINE
  5
8E
100
AcDbEntity
  8
0
 62
256
370
-1
 48
1.0
  6
BYLAYER
100
AcDbLine
 10
224.0000000012539942
 20
6.0000000000030003
 30
0.0
 11
224.0000000012539942
 21
0.000000000012
 31
0.0
  0
LINE
  5
8F
100
AcDbEntity
  8
0
 62
256
370
-1
 48
1.0
  6
BYLAYER
100
AcDbLine
 10
234.0000000012539942
 20
6.0000000000030003
 30
0.0
 11
234.0000000012539942
 21
0.000000000012
 31
0.0
  0
LINE
  5
90
100
AcDbEntity
  8
0
 62
256
370
-1
 48
1.0
  6
BYLAYER
100
AcDbLine
 10
284.0000000012540227
 20
0.000000000052
 30
0.0
 11
274.0000000012540227
 21
0.000000000052
 31
0.0
  0
LINE
  5
91
100
AcDbEntity
  8
0
 62
256
370
-1
 48
1.0
  6
BYLAYER
100
AcDbLine
 10
274.0000000012540227
 20
6.0000000000020002
 30
0.0
 11
274.0000000012540227
 21
0.000000000052
 31
0.0
  0
LINE
  5
92
100
AcDbEntity
  8
0
 62
256
370
-1
 48
1.0
  6
BYLAYER
100
AcDbLine
 10
284.0000000012540227
 20
6.0000000000020002
 30
0.0
 11
284.0000000012540227
 21
0.000000000052
 31
0.0
  0
LINE
  5
93
100
AcDbEntity
  8
0
 62
256
370
-1
 48
1.0
  6
BYLAYER
100
AcDbLine
 10
170.0000000012539942
 20
6.0000000000210001
 30
0.0
 11
151.500000001254989
 21
6.0000000000020002
 31
0.0
  0
LINE
  5
94
100
AcDbEntity
  8
0
 62
256
370
-1
 48
1.0
  6
BYLAYER
100
AcDbLine
 10
180.0000000012539942
 20
0.000000000014
 30
0.0
 11
170.0000000012539942
 21
0.000000000014
 31
0.0
  0
LINE
  5
95
100
AcDbEntity
  8
0
 62
256
370
-1
 48
1.0
  6
BYLAYER
100
AcDbLine
 10
170.0000000012539942
 20
6.0000000000210001
 30
0.0
 11
170.0000000012539942
 21
0.000000000014
 31
0.0
  0
LINE
  5
96
100
AcDbEntity
  8
0
 62
256
370
-1
 48
1.0
  6
BYLAYER
100
AcDbLine
 10
180.0000000012539942
 20
6.0000000000210001
 30
0.0
 11
180.0000000012539942
 21
0.000000000014
 31
0.0
  0
LINE
  5
97
100
AcDbEntity
  8
0
 62
256
370
-1
 48
1.0
  6
BYLAYER
100
AcDbLine
 10
120.0000000012539942
 20
6.0000000000279998
 30
0.0
 11
76.0000000012539942
 21
6.0000000000459996
 31
0.0
  0
LINE
  5
98
100
AcDbEntity
  8
0
 62
256
370
-1
 48
1.0
  6
BYLAYER
100
AcDbLine
 10
130.0000000012539942
 20
0.000000000052
 30
0.0
 11
120.0000000012539942
 21
0.000000000052
 31
0.0
  0
LINE
  5
99
100
AcDbEntity
  8
0
 62
256
370
-1
 48
1.0
  6
BYLAYER
100
AcDbLine
 10
120.0000000012539942
 20
6.0000000000279998
 30
0.0
 11
120.0000000012539942
 21
0.000000000052
 31
0.0
  0
LINE
  5
9A
100
AcDbEntity
  8
0
 62
256
370
-1
 48
1.0
  6
BYLAYER
100
AcDbLine
 10
130.0000000012539942
 20
6.0000000000279998
 30
0.0
 11
130.0000000012539942
 21
0.000000000052
 31
0.0
  0
LINE
  5
9B
100
AcDbEntity
  8
0
 62
256
370
-1
 48
1.0
  6
BYLAYER
100
AcDbLine
 10
66.0000000012539942
 20
6.0000000000459996
 30
0.0
 11
47.5000000012540013
 21
6.0000000000469997
 31
0.0
  0
LINE
  5
9C
100
AcDbEntity
  8
0
 62
256
370
-1
 48
1.0
  6
BYLAYER
100
AcDbLine
 10
76.0000000012539942
 20
0.000000000014
 30
0.0
 11
66.0000000012539942
 21
0.000000000014
 31
0.0
  0
LINE
  5
9D
100
AcDbEntity
  8
0
 62
256
370
-1
 48
1.0
  6
BYLAYER
100
AcDbLine
 10
294.0000000012910277
 20
433.7999999999730107
 30
0.0
 11
288.0000000012730084
 21
433.7999999999730107
 31
0.0
  0
LINE
  5
9E
100
AcDbEntity
  8
0
 62
256
370
-1
 48
1.0
  6
BYLAYER
100
AcDbLine
 10
294.0000000011680186
 20
405.3000000000540126
 30
0.0
 11
300.0000000011229986
 21
405.3000000000529894
 31
0.0
  0
LINE
  5
9F
100
AcDbEntity
  8
0
 62
256
370
-1
 48
1.0
  6
BYLAYER
100
AcDbLine
 10
294.0000000011219754
 20
415.2999999999719876
 30
0.0
 11
300.0000000011229986
 21
415.2999999999719876
 31
0.0
  0
LINE
  5
A0
100
AcDbEntity
  8
0
 62
256
370
-1
 48
1.0
  6
BYLAYER
100
AcDbLine
 10
285.0000000012070132
 20
436.7999999999730107
 30
0.0
 11
285.0000000012070132
 21
439.2999999999730107
 31
0.0
  0
LINE
  5
A1
100
AcDbEntity
  8
0
 62
256
370
-1
 48
1.0
  6
BYLAYER
100
AcDbLine
 10
285.00000000120599
 20
433.7999999999730107
 30
0.0
 11
283.0000000014030093
 21
433.7999999999730107
 31
0.0
  0
LINE
  5
A2
100
AcDbEntity
  8
0
 62
256
370
-1
 48
1.0
  6
BYLAYER
100
AcDbLine
 10
285.00000000120599
 20
433.7999999999730107
 30
0.0
 11
285.00000000120599
 21
431.2999999999730107
 31
0.0
  0
LINE
  5
A3
100
AcDbEntity
  8
0
 62
256
370
-1
 48
1.0
  6
BYLAYER
100
AcDbLine
 10
294.0000000012529995
 20
305.7000000003350237
 30
0.0
 11
288.0000000012349801
 21
305.7000000003350237
 31
0.0
  0
LINE
  5
A4
100
AcDbEntity
  8
0
 62
256
370
-1
 48
1.0
  6
BYLAYER
100
AcDbLine
 10
294.0000000012989858
 20
277.200000000416992
 30
0.0
 11
300.0000000012540227
 21
277.2000000004160256
 31
0.0
  0
LINE
  5
A5
100
AcDbEntity
  8
0
 62
256
370
-1
 48
1.0
  6
BYLAYER
100
AcDbLine
 10
285.0000000011680186
 20
305.7000000003350237
 30
0.0
 11
285.0000000011680186
 21
303.2000000003350237
 31
0.0
  0
LINE
  5
A6
100
AcDbEntity
  8
0
 62
256
370
-1
 48
1.0
  6
BYLAYER
100
AcDbLine
 10
288.0000000012349801
 20
311.2000000003350237
 30
0.0
 11
285.0000000011680186
 21
311.2000000003350237
 31
0.0
  0
LINE
  5
A7
100
AcDbEntity
  8
0
 62
256
370
-1
 48
1.0
  6
BYLAYER
100
AcDbLine
 10
288.0000000012349801
 20
308.7000000003359901
 30
0.0
 11
288.0000000012349801
 21
311.2000000003350237
 31
0.0
  0
LINE
  5
A8
100
AcDbEntity
  8
0
 62
256
370
-1
 48
1.0
  6
BYLAYER
100
AcDbLine
 10
285.0000000011680186
 20
308.7000000003359901
 30
0.0
 11
285.0000000011680186
 21
311.2000000003350237
 31
0.0
  0
LINE
  5
A9
100
AcDbEntity
  8
0
 62
256
370
-1
 48
1.0
  6
BYLAYER
100
AcDbLine
 10
294.0000000012519763
 20
287.2000000003350237
 30
0.0
 11
300.0000000012540227
 21
287.2000000003350237
 31
0.0
  0
LINE
  5
AA
100
AcDbEntity
  8
0
 62
256
370
-1
 48
1.0
  6
BYLAYER
100
AcDbLine
 10
47.5000000012540013
 20
12.0000000000339995
 30
0.0
 11
50.0000000012540013
 21
12.0000000000339995
 31
0.0
  0
LINE
  5
AB
100
AcDbEntity
  8
0
 62
256
370
-1
 48
1.0
  6
BYLAYER
100
AcDbLine
 10
50.0000000012540013
 20
12.0000000000339995
 30
0.0
 11
50.0000000012540013
 21
15.0000000000389999
 31
0.0
  0
LINE
  5
AC
100
AcDbEntity
  8
0
 62
256
370
-1
 48
1.0
  6
BYLAYER
100
AcDbLine
 10
47.5000000012540013
 20
15.0000000000389999
 30
0.0
 11
50.0000000012540013
 21
15.0000000000389999
 31
0.0
  0
LINE
  5
AD
100
AcDbEntity
  8
0
 62
256
370
-1
 48
1.0
  6
BYLAYER
100
AcDbLine
 10
44.5000000012540013
 20
15.0000000000389999
 30
0.0
 11
44.5000000012529995
 21
16.9999999999380016
 31
0.0
  0
LINE
  5
AE
100
AcDbEntity
  8
0
 62
256
370
-1
 48
1.0
  6
BYLAYER
100
AcDbLine
 10
44.5000000012540013
 20
15.0000000000389999
 30
0.0
 11
42.0000000012540013
 21
15.0000000000389999
 31
0.0
  0
LINE
  5
AF
100
AcDbEntity
  8
0
 62
256
370
-1
 48
1.0
  6
BYLAYER
100
AcDbLine
 10
42.0000000012540013
 20
12.0000000000339995
 30
0.0
 11
42.0000000012540013
 21
15.0000000000389999
 31
0.0
  0
LINE
  5
B0
100
AcDbEntity
  8
0
 62
256
370
-1
 48
1.0
  6
BYLAYER
100
AcDbLine
 10
44.5000000012540013
 20
12.0000000000339995
 30
0.0
 11
42.0000000012540013
 21
12.0000000000339995
 31
0.0
  0
LINE
  5
B1
100
AcDbEntity
  8
0
 62
256
370
-1
 48
1.0
  6
BYLAYER
100
AcDbLine
 10
148.500000001254989
 20
6.0000000000020002
 30
0.0
 11
130.0000000012539942
 21
6.0000000000279998
 31
0.0
  0
LINE
  5
B2
100
AcDbEntity
  8
0
 62
256
370
-1
 48
1.0
  6
BYLAYER
100
AcDbLine
 10
6.0000000001559997
 20
209.0999999998740009
 30
0.0
 11
6.0000000087699998
 21
277.2000000002029765
 31
0.0
  0
LINE
  5
B3
100
AcDbEntity
  8
0
 62
256
370
-1
 48
1.0
  6
BYLAYER
100
AcDbLine
 10
294.0000000012989858
 20
277.200000000416992
 30
0.0
 11
294.000000001266983
 21
209.1000000000919954
 31
0.0
  0
LINE
  5
B4
100
AcDbEntity
  8
0
 62
256
370
-1
 48
1.0
  6
BYLAYER
100
AcDbLine
 10
252.5000000012539942
 20
6.0000000000020002
 30
0.0
 11
252.5000000012539942
 21
11.9999999999890008
 31
0.0
  0
LINE
  5
B5
100
AcDbEntity
  8
0
 62
256
370
-1
 48
1.0
  6
BYLAYER
100
AcDbLine
 10
44.5000000012540013
 20
6.0000000000469997
 30
0.0
 11
44.5000000012540013
 21
12.0000000000339995
 31
0.0
  0
LINE
  5
B6
100
AcDbEntity
  8
0
 62
256
370
-1
 48
1.0
  6
BYLAYER
100
AcDbLine
 10
151.500000001254989
 20
6.0000000000020002
 30
0.0
 11
151.500000001254989
 21
11.9999999999890008
 31
0.0
  0
LINE
  5
B7
100
AcDbEntity
  8
0
 62
256
370
-1
 48
1.0
  6
BYLAYER
100
AcDbLine
 10
148.500000001254989
 20
6.0000000000020002
 30
0.0
 11
148.500000001254989
 21
11.9999999999890008
 31
0.0
  0
LINE
  5
B8
100
AcDbEntity
  8
0
 62
256
370
-1
 48
1.0
  6
BYLAYER
100
AcDbLine
 10
255.5000000012539942
 20
6.0000000000020002
 30
0.0
 11
255.5000000012539942
 21
11.9999999999890008
 31
0.0
  0
LINE
  5
B9
100
AcDbEntity
  8
0
 62
256
370
-1
 48
1.0
  6
BYLAYER
100
AcDbLine
 10
47.5000000012540013
 20
6.0000000000469997
 30
0.0
 11
47.5000000012540013
 21
12.0000000000339995
 31
0.0
  0
LINE
  5
BA
100
AcDbEntity
  8
0
 62
256
370
-1
 48
1.0
  6
BYLAYER
100
AcDbLine
 10
151.500000001254989
 20
474.2999999999750003
 30
0.0
 11
154.000000001254989
 21
474.2999999999750003
 31
0.0
  0
LINE
  5
BB
100
AcDbEntity
  8
0
 62
256
370
-1
 48
1.0
  6
BYLAYER
100
AcDbLine
 10
151.500000001254989
 20
480.2999999999909733
 30
0.0
 11
151.500000001254989
 21
474.2999999999750003
 31
0.0
  0
LINE
  5
BC
100
AcDbEntity
  8
0
 62
256
370
-1
 48
1.0
  6
BYLAYER
100
AcDbLine
 10
148.500000001254989
 20
480.2999999999909733
 30
0.0
 11
148.500000001254989
 21
474.2999999999750003
 31
0.0
  0
LINE
  5
BD
100
AcDbEntity
  8
0
 62
256
370
-1
 48
1.0
  6
BYLAYER
100
AcDbLine
 10
148.500000001254989
 20
474.2999999999750003
 30
0.0
 11
146.000000001254989
 21
474.2999999999750003
 31
0.0
  0
LINE
  5
BE
100
AcDbEntity
  8
0
 62
256
370
-1
 48
1.0
  6
BYLAYER
100
AcDbLine
 10
151.500000001254989
 20
11.9999999999890008
 30
0.0
 11
154.000000001254989
 21
11.9999999999890008
 31
0.0
  0
LINE
  5
BF
100
AcDbEntity
  8
0
 62
256
370
-1
 48
1.0
  6
BYLAYER
100
AcDbLine
 10
154.000000001254989
 20
11.9999999999890008
 30
0.0
 11
154.000000001254989
 21
14.9999999999939995
 31
0.0
  0
LINE
  5
C0
100
AcDbEntity
  8
0
 62
256
370
-1
 48
1.0
  6
BYLAYER
100
AcDbLine
 10
151.5000000012539942
 20
14.9999999999939995
 30
0.0
 11
154.000000001254989
 21
14.9999999999939995
 31
0.0
  0
LINE
  5
C1
100
AcDbEntity
  8
0
 62
256
370
-1
 48
1.0
  6
BYLAYER
100
AcDbLine
 10
151.5000000012539942
 20
14.9999999999939995
 30
0.0
 11
151.5000000012539942
 21
16.9999999999209983
 31
0.0
  0
LINE
  5
C2
100
AcDbEntity
  8
0
 62
256
370
-1
 48
1.0
  6
BYLAYER
100
AcDbLine
 10
148.5000000012539942
 20
16.99999999992
 30
0.0
 11
151.5000000012539942
 21
16.9999999999209983
 31
0.0
  0
LINE
  5
C3
100
AcDbEntity
  8
0
 62
256
370
-1
 48
1.0
  6
BYLAYER
100
AcDbLine
 10
148.5000000012539942
 20
14.9999999999939995
 30
0.0
 11
148.5000000012539942
 21
16.99999999992
 31
0.0
  0
LINE
  5
C4
100
AcDbEntity
  8
0
 62
256
370
-1
 48
1.0
  6
BYLAYER
100
AcDbLine
 10
285.0000000011680186
 20
308.7000000003359901
 30
0.0
 11
283.000000001364981
 21
308.7000000003350237
 31
0.0
  0
LINE
  5
C5
100
AcDbEntity
  8
0
 62
256
370
-1
 48
1.0
  6
BYLAYER
100
AcDbLine
 10
300.0000000012540227
 20
287.2000000003350237
 30
0.0
 11
300.0000000012540227
 21
277.2000000004160256
 31
0.0
  0
ARC
  5
C6
100
AcDbEntity
  8
0
 62
256
370
-1
 48
1.0
  6
BYLAYER
100
AcDbCircle
 10
266.0000000012640271
 20
81.0000000000009948
 30
0.0
 40
1.999999999999996
100
AcDbArc
 50
0.000000007554
 51
179.9999999924459928
  0
ARC
  5
C7
100
AcDbEntity
  8
0
 62
256
370
-1
 48
1.0
  6
BYLAYER
100
AcDbCircle
 10
206.0000000012639987
 20
81.000000000003979
 30
0.0
 40
62.0000000000000213
100
AcDbArc
 50
323.9143434784539863
 51
0.0
  0
LINE
  5
C8
100
AcDbEntity
  8
0
 62
256
370
-1
 48
1.0
  6
BYLAYER
100
AcDbLine
 10
294.0000000012640271
 20
180.6000000000929901
 30
0.0
 11
288.0000000012469741
 21
180.6000000000929901
 31
0.0
  0
LINE
  5
C9
100
AcDbEntity
  8
0
 62
256
370
-1
 48
1.0
  6
BYLAYER
100
AcDbLine
 10
294.0000000011680186
 20
405.3000000000540126
 30
0.0
 11
294.000000001254989
 21
337.2000000003350237
 31
0.0
  0
LINE
  5
CA
100
AcDbEntity
  8
0
 62
256
370
-1
 48
1.0
  6
BYLAYER
100
AcDbLine
 10
294.0000000012910277
 20
433.7999999999730107
 30
0.0
 11
294.0000000011219754
 21
415.2999999999719876
 31
0.0
  0
LINE
  5
CB
100
AcDbEntity
  8
0
 62
256
370
-1
 48
1.0
  6
BYLAYER
100
AcDbLine
 10
294.000000001239016
 20
455.2999999999719876
 30
0.0
 11
294.0000000012910277
 21
436.7999999999730107
 31
0.0
  0
LINE
  5
CC
100
AcDbEntity
  8
0
 62
256
370
-1
 48
1.0
  6
BYLAYER
100
AcDbLine
 10
294.000000001254989
 20
480.2999999999919964
 30
0.0
 11
294.0000000012399823
 21
465.2999999999730107
 31
0.0
  0
LINE
  5
CD
100
AcDbEntity
  8
0
 62
256
370
-1
 48
1.0
  6
BYLAYER
100
AcDbLine
 10
258.0000028548129762
 20
474.2999999999750003
 30
0.0
 11
258.000002854758975
 21
471.299999999978013
 31
0.0
  0
LINE
  5
CE
100
AcDbEntity
  8
0
 62
256
370
-1
 48
1.0
  6
BYLAYER
100
AcDbLine
 10
250.0000028548120099
 20
474.2999999999750003
 30
0.0
 11
250.0000028547590034
 21
471.299999999978013
 31
0.0
  0
LINE
  5
CF
100
AcDbEntity
  8
0
 62
256
370
-1
 48
1.0
  6
BYLAYER
100
AcDbLine
 10
6.000000010261
 20
465.3000000001209742
 30
0.0
 11
6.0000000013349997
 21
480.2999999999919964
 31
0.0
  0
LINE
  5
D0
100
AcDbEntity
  8
0
 62
256
370
-1
 48
1.0
  6
BYLAYER
100
AcDbLine
 10
6.0000000100940003
 20
337.2000000001219746
 30
0.0
 11
6.0000000089369996
 21
405.300000000201976
 31
0.0
  0
LINE
  5
D1
100
AcDbEntity
  8
0
 62
256
370
-1
 48
1.0
  6
BYLAYER
100
AcDbLine
 10
267.5000000011149837
 20
455.1148626769210068
 30
0.0
 11
279.5000000011149837
 21
455.1148626769210068
 31
0.0
  0
LINE
  5
D2
100
AcDbEntity
  8
0
 62
256
370
-1
 48
1.0
  6
BYLAYER
100
AcDbLine
 10
279.5000000011149837
 20
455.1148626769210068
 30
0.0
 11
279.5000000011700081
 21
425.1148626769219732
 31
0.0
  0
LINE
  5
D3
100
AcDbEntity
  8
0
 62
256
370
-1
 48
1.0
  6
BYLAYER
100
AcDbLine
 10
294.0000000013009753
 20
21.0000000001660005
 30
0.0
 11
300.0000000012560122
 21
21.0000000001649987
 31
0.0
  0
LINE
  5
D4
100
AcDbEntity
  8
0
 62
256
370
-1
 48
1.0
  6
BYLAYER
100
AcDbLine
 10
300.0000000012560122
 20
31.0000000000849987
 30
0.0
 11
300.0000000012560122
 21
21.0000000001649987
 31
0.0
  0
LINE
  5
D5
100
AcDbEntity
  8
0
 62
256
370
-1
 48
1.0
  6
BYLAYER
100
AcDbLine
 10
285.0000000011709744
 20
49.5000000000840004
 30
0.0
 11
285.0000000011709744
 21
47.0000000000850022
 31
0.0
  0
LINE
  5
D6
100
AcDbEntity
  8
0
 62
256
370
-1
 48
1.0
  6
BYLAYER
100
AcDbLine
 10
294.000000001254989
 20
49.5000000000840004
 30
0.0
 11
294.000000001254989
 21
31.0000000000849987
 31
0.0
  0
LINE
  5
D7
100
AcDbEntity
  8
0
 62
256
370
-1
 48
1.0
  6
BYLAYER
100
AcDbLine
 10
294.0000000012660166
 20
199.1000000000919954
 30
0.0
 11
294.0000000012640271
 21
180.6000000000929901
 31
0.0
  0
LINE
  5
D8
100
AcDbEntity
  8
0
 62
256
370
-1
 48
1.0
  6
BYLAYER
100
AcDbLine
 10
294.0000000013009753
 20
21.0000000001660005
 30
0.0
 11
294.0000000012580017
 21
6.0
 31
0.0
  0
LINE
  5
D9
100
AcDbEntity
  8
0
 62
256
370
-1
 48
1.0
  6
BYLAYER
100
AcDbLine
 10
300.0000000012649934
 20
159.1000000000929901
 30
0.0
 11
300.0000000012660166
 21
149.1000000001729973
 31
0.0
  0
LINE
  5
DA
100
AcDbEntity
  8
0
 62
256
370
-1
 48
1.0
  6
BYLAYER
100
AcDbLine
 10
294.0000000012660166
 20
199.1000000000919954
 30
0.0
 11
300.0000000012760211
 21
199.1000000000919954
 31
0.0
  0
LINE
  5
DB
100
AcDbEntity
  8
0
 62
256
370
-1
 48
1.0
  6
BYLAYER
100
AcDbLine
 10
294.0000000012640271
 20
177.6000000000919954
 30
0.0
 11
288.0000000012469741
 21
177.6000000000919954
 31
0.0
  0
LINE
  5
DC
100
AcDbEntity
  8
0
 62
256
370
-1
 48
1.0
  6
BYLAYER
100
AcDbLine
 10
294.0000000013109798
 20
149.100000000173992
 30
0.0
 11
300.0000000012660166
 21
149.1000000001729973
 31
0.0
  0
CIRCLE
  5
DD
100
AcDbEntity
  8
0
 62
256
370
-1
 48
1.0
  6
BYLAYER
100
AcDbCircle
 10
155.5000009702925468
 20
146.9999999771453076
 30
0.0
 40
1.999999999999996
  0
LINE
  5
DE
100
AcDbEntity
  8
0
 62
256
370
-1
 48
1.0
  6
BYLAYER
100
AcDbLine
 10
6.0000000094899999
 20
308.7000000002029765
 30
0.0
 11
6.0000000099120001
 21
327.2000000002029765
 31
0.0
  0
CIRCLE
  5
DF
100
AcDbEntity
  8
0
 62
256
370
-1
 48
1.0
  6
BYLAYER
100
AcDbCircle
 10
20.0000000034889709
 20
186.1260867734864917
 30
0.0
 40
1.500000000000022
  0
LINE
  5
E0
100
AcDbEntity
  8
0
 62
256
370
-1
 48
1.0
  6
BYLAYER
100
AcDbLine
 10
294.000000001254989
 20
337.2000000003350237
 30
0.0
 11
300.0000000012660166
 21
337.2000000003350237
 31
0.0
  0
LINE
  5
E1
100
AcDbEntity
  8
0
 62
256
370
-1
 48
1.0
  6
BYLAYER
100
AcDbLine
 10
283.000000001364981
 20
305.7000000003350237
 30
0.0
 11
283.000000001364981
 21
308.7000000003350237
 31
0.0
  0
LINE
  5
E2
100
AcDbEntity
  8
0
 62
256
370
-1
 48
1.0
  6
BYLAYER
100
AcDbLine
 10
285.0000000011680186
 20
305.7000000003350237
 30
0.0
 11
283.000000001364981
 21
305.7000000003350237
 31
0.0
  0
LINE
  5
E3
100
AcDbEntity
  8
0
 62
256
370
-1
 48
1.0
  6
BYLAYER
100
AcDbLine
 10
288.0000000012349801
 20
305.7000000003350237
 30
0.0
 11
288.0000000012349801
 21
303.2000000003350237
 31
0.0
  0
LINE
  5
E4
100
AcDbEntity
  8
0
 62
256
370
-1
 48
1.0
  6
BYLAYER
100
AcDbLine
 10
294.0000000012540227
 20
327.2000000003350237
 30
0.0
 11
300.0000000012640271
 21
327.2000000003350237
 31
0.0
  0
LINE
  5
E5
100
AcDbEntity
  8
0
 62
256
370
-1
 48
1.0
  6
BYLAYER
100
AcDbLine
 10
300.0000000012660166
 20
337.2000000003350237
 30
0.0
 11
300.0000000012640271
 21
327.2000000003350237
 31
0.0
  0
LINE
  5
E6
100
AcDbEntity
  8
0
 62
256
370
-1
 48
1.0
  6
BYLAYER
100
AcDbLine
 10
294.0000000012529995
 20
308.7000000003359901
 30
0.0
 11
288.0000000012349801
 21
308.7000000003359901
 31
0.0
  0
LINE
  5
E7
100
AcDbEntity
  8
0
 62
256
370
-1
 48
1.0
  6
BYLAYER
100
AcDbLine
 10
288.0000000012349801
 20
303.2000000003350237
 30
0.0
 11
285.0000000011680186
 21
303.2000000003350237
 31
0.0
  0
LINE
  5
E8
100
AcDbEntity
  8
0
 62
256
370
-1
 48
1.0
  6
BYLAYER
100
AcDbLine
 10
294.0000000012529995
 20
305.7000000003350237
 30
0.0
 11
294.0000000012519763
 21
287.2000000003350237
 31
0.0
  0
LINE
  5
E9
100
AcDbEntity
  8
0
 62
256
370
-1
 48
1.0
  6
BYLAYER
100
AcDbLine
 10
294.0000000012560122
 20
71.0000000000840004
 30
0.0
 11
294.000000001254989
 21
52.5000000000850022
 31
0.0
  0
CIRCLE
  5
EA
100
AcDbEntity
  8
0
 62
256
370
-1
 48
1.0
  6
BYLAYER
100
AcDbCircle
 10
35.5000000003535732
 20
201.6440608033354636
 30
0.0
 40
10.9999999999999805
  0
CIRCLE
  5
EB
100
AcDbEntity
  8
0
 62
256
370
-1
 48
1.0
  6
BYLAYER
100
AcDbCircle
 10
51.0000000080529574
 20
217.1260867688944813
 30
0.0
 40
1.50000000000002
  0
LINE
  5
EC
100
AcDbEntity
  8
0
 62
256
370
-1
 48
1.0
  6
BYLAYER
100
AcDbLine
 10
5.999999999061
 20
159.0999999999559975
 30
0.0
 11
5.9999999994840003
 21
177.5999999999550027
 31
0.0
  0
LINE
  5
ED
100
AcDbEntity
  8
0
 62
256
370
-1
 48
1.0
  6
BYLAYER
100
AcDbLine
 10
6.0000000008459997
 20
52.500000000116998
 30
0.0
 11
6.0000000012679999
 21
71.000000000116998
 31
0.0
  0
LINE
  5
EE
100
AcDbEntity
  8
0
 62
256
370
-1
 48
1.0
  6
BYLAYER
100
AcDbLine
 10
6.0000000003549996
 20
31.0000000001170015
 30
0.0
 11
6.0000000007779999
 21
49.500000000116998
 31
0.0
  0
LINE
  5
EF
100
AcDbEntity
  8
0
 62
256
370
-1
 48
1.0
  6
BYLAYER
100
AcDbLine
 10
5.9999999999750004
 20
199.0999999999559975
 30
0.0
 11
-0.000000000027
 21
199.1000000000919954
 31
0.0
  0
LINE
  5
F0
100
AcDbEntity
  8
0
 62
256
370
-1
 48
1.0
  6
BYLAYER
100
AcDbLine
 10
6.0000000001559997
 20
209.0999999998740009
 30
0.0
 11
0.000000000201
 21
209.1000000000109935
 31
0.0
  0
LINE
  5
F1
100
AcDbEntity
  8
0
 62
256
370
-1
 48
1.0
  6
BYLAYER
100
AcDbLine
 10
26.0000000012549997
 20
480.2999999999449869
 30
0.0
 11
44.5000000012540013
 21
480.2999999999460101
 31
0.0
  0
LINE
  5
F2
100
AcDbEntity
  8
0
 62
256
370
-1
 48
1.0
  6
BYLAYER
100
AcDbLine
 10
234.0000028548130047
 20
480.2999999999900069
 30
0.0
 11
234.0000028548120099
 21
486.2999999999919964
 31
0.0
  0
LINE
  5
F3
100
AcDbEntity
  8
0
 62
256
370
-1
 48
1.0
  6
BYLAYER
100
AcDbLine
 10
234.0000028548130047
 20
480.2999999999900069
 30
0.0
 11
252.5000028548130047
 21
480.2999999999909733
 31
0.0
  0
LINE
  5
F4
100
AcDbEntity
  8
0
 62
256
370
-1
 48
1.0
  6
BYLAYER
100
AcDbLine
 10
252.5000028547590034
 20
469.3000000000179739
 30
0.0
 11
255.5000028547590034
 21
469.3000000000179739
 31
0.0
  0
LINE
  5
F5
100
AcDbEntity
  8
0
 62
256
370
-1
 48
1.0
  6
BYLAYER
100
AcDbLine
 10
44.5000000012540013
 20
474.2999999999299803
 30
0.0
 11
42.0000000012540013
 21
474.2999999999299803
 31
0.0
  0
LINE
  5
F6
100
AcDbEntity
  8
0
 62
256
370
-1
 48
1.0
  6
BYLAYER
100
AcDbLine
 10
44.5000000012529995
 20
469.3000000000200203
 30
0.0
 11
47.5000000012529995
 21
469.3000000000189971
 31
0.0
  0
LINE
  5
F7
100
AcDbEntity
  8
0
 62
256
370
-1
 48
1.0
  6
BYLAYER
100
AcDbLine
 10
47.5000000012540013
 20
471.299999999932993
 30
0.0
 11
47.5000000012529995
 21
469.3000000000189971
 31
0.0
  0
LINE
  5
F8
100
AcDbEntity
  8
0
 62
256
370
-1
 48
1.0
  6
BYLAYER
100
AcDbLine
 10
47.5000000012540013
 20
471.299999999932993
 30
0.0
 11
50.0000000012540013
 21
471.299999999932993
 31
0.0
  0
LINE
  5
F9
100
AcDbEntity
  8
0
 62
256
370
-1
 48
1.0
  6
BYLAYER
100
AcDbLine
 10
50.0000000012540013
 20
474.2999999999299803
 30
0.0
 11
50.0000000012540013
 21
471.299999999932993
 31
0.0
  0
LINE
  5
FA
100
AcDbEntity
  8
0
 62
256
370
-1
 48
1.0
  6
BYLAYER
100
AcDbLine
 10
47.5000000012540013
 20
474.2999999999299803
 30
0.0
 11
50.0000000012540013
 21
474.2999999999299803
 31
0.0
  0
LINE
  5
FB
100
AcDbEntity
  8
0
 62
256
370
-1
 48
1.0
  6
BYLAYER
100
AcDbLine
 10
47.5000000012540013
 20
480.2999999999460101
 30
0.0
 11
47.5000000012540013
 21
474.2999999999299803
 31
0.0
  0
LINE
  5
FC
100
AcDbEntity
  8
0
 62
256
370
-1
 48
1.0
  6
BYLAYER
100
AcDbLine
 10
26.0000000012549997
 20
480.2999999999449869
 30
0.0
 11
26.0000000012549997
 21
486.2999999999460101
 31
0.0
  0
LINE
  5
FD
100
AcDbEntity
  8
0
 62
256
370
-1
 48
1.0
  6
BYLAYER
100
AcDbLine
 10
6.0000000013349997
 20
480.2999999999919964
 30
0.0
 11
16.0000000013360015
 21
480.2999999999930196
 31
0.0
  0
LINE
  5
FE
100
AcDbEntity
  8
0
 62
256
370
-1
 48
1.0
  6
BYLAYER
100
AcDbLine
 10
16.0000000013360015
 20
486.2999999999479996
 30
0.0
 11
16.0000000013360015
 21
480.2999999999930196
 31
0.0
  0
LINE
  5
FF
100
AcDbEntity
  8
0
 62
256
370
-1
 48
1.0
  6
BYLAYER
100
AcDbLine
 10
0.000000009911
 20
327.200000000340026
 30
0.0
 11
0.000000010139
 21
337.2000000002590241
 31
0.0
  0
LINE
  5
100
100
AcDbEntity
  8
0
 62
256
370
-1
 48
1.0
  6
BYLAYER
100
AcDbLine
 10
6.0000000089989998
 20
287.2000000002039997
 30
0.0
 11
0.000000008989
 21
287.2000000003409923
 31
0.0
  0
CIRCLE
  5
101
100
AcDbEntity
  8
0
 62
256
370
-1
 48
1.0
  6
BYLAYER
100
AcDbCircle
 10
248.9999999993328856
 20
186.1260867397715231
 30
0.0
 40
1.5000000000000191
  0
LINE
  5
102
100
AcDbEntity
  8
0
 62
256
370
-1
 48
1.0
  6
BYLAYER
100
AcDbLine
 10
-0.000000001178
 20
149.1000000000929901
 30
0.0
 11
-0.000000000949
 21
159.1000000000929901
 31
0.0
  0
LINE
  5
103
100
AcDbEntity
  8
0
 62
256
370
-1
 48
1.0
  6
BYLAYER
100
AcDbLine
 10
5.9999999994840003
 20
177.5999999999550027
 30
0.0
 11
11.9999999992129993
 21
177.5999999997270038
 31
0.0
  0
LINE
  5
104
100
AcDbEntity
  8
0
 62
256
370
-1
 48
1.0
  6
BYLAYER
100
AcDbLine
 10
-0.000000000027
 20
199.1000000000919954
 30
0.0
 11
0.000000000201
 21
209.1000000000109935
 31
0.0
  0
LINE
  5
105
100
AcDbEntity
  8
0
 62
256
370
-1
 48
1.0
  6
BYLAYER
100
AcDbLine
 10
5.999999999061
 20
159.0999999999559975
 30
0.0
 11
-0.000000000949
 21
159.1000000000929901
 31
0.0
  0
LINE
  5
106
100
AcDbEntity
  8
0
 62
256
370
-1
 48
1.0
  6
BYLAYER
100
AcDbLine
 10
5.9999999988320001
 20
149.0999999999559975
 30
0.0
 11
-0.000000001178
 21
149.1000000000929901
 31
0.0
  0
LINE
  5
107
100
AcDbEntity
  8
0
 62
256
370
-1
 48
1.0
  6
BYLAYER
100
AcDbLine
 10
6.0000000014500001
 20
81.0000000000359961
 30
0.0
 11
5.9999999988320001
 21
149.0999999999559975
 31
0.0
  0
LINE
  5
108
100
AcDbEntity
  8
0
 62
256
370
-1
 48
1.0
  6
BYLAYER
100
AcDbLine
 10
5.9999999995530002
 20
180.5999999999559975
 30
0.0
 11
5.9999999999750004
 21
199.0999999999559975
 31
0.0
  0
LINE
  5
109
100
AcDbEntity
  8
0
 62
256
370
-1
 48
1.0
  6
BYLAYER
100
AcDbLine
 10
12.0000000005060006
 20
49.499999999888999
 30
0.0
 11
12.0000000004490008
 21
46.999999999888999
 31
0.0
  0
LINE
  5
10A
100
AcDbEntity
  8
0
 62
256
370
-1
 48
1.0
  6
BYLAYER
100
AcDbLine
 10
66.0000000012539942
 20
6.0000000000459996
 30
0.0
 11
66.0000000012539942
 21
0.000000000014
 31
0.0
  0
LINE
  5
10B
100
AcDbEntity
  8
0
 62
256
370
-1
 48
1.0
  6
BYLAYER
100
AcDbLine
 10
76.0000000012539942
 20
6.0000000000459996
 30
0.0
 11
76.0000000012539942
 21
0.000000000014
 31
0.0
  0
LINE
  5
10C
100
AcDbEntity
  8
0
 62
256
370
-1
 48
1.0
  6
BYLAYER
100
AcDbLine
 10
284.0000028548129762
 20
480.2999999999909733
 30
0.0
 11
294.000000001254989
 21
480.2999999999919964
 31
0.0
  0
LINE
  5
10D
100
AcDbEntity
  8
0
 62
256
370
-1
 48
1.0
  6
BYLAYER
100
AcDbLine
 10
294.0000000012540227
 20
327.2000000003350237
 30
0.0
 11
294.0000000012529995
 21
308.7000000003359901
 31
0.0
  0
LINE
  5
10E
100
AcDbEntity
  8
0
 62
256
370
-1
 48
1.0
  6
BYLAYER
100
AcDbLine
 10
6.0000000100940003
 20
337.2000000001219746
 30
0.0
 11
0.000000010139
 21
337.2000000002590241
 31
0.0
  0
LINE
  5
10F
100
AcDbEntity
  8
0
 62
256
370
-1
 48
1.0
  6
BYLAYER
100
AcDbLine
 10
15.0000000094249994
 20
308.6999999998840281
 30
0.0
 11
15.0000000094819992
 21
311.1999999998840281
 31
0.0
  0
LINE
  5
110
100
AcDbEntity
  8
0
 62
256
370
-1
 48
1.0
  6
BYLAYER
100
AcDbLine
 10
6.0000000099120001
 20
327.2000000002029765
 30
0.0
 11
0.000000009911
 21
327.200000000340026
 31
0.0
  0
LINE
  5
111
100
AcDbEntity
  8
0
 62
256
370
-1
 48
1.0
  6
BYLAYER
100
AcDbLine
 10
6.0000000094899999
 20
308.7000000002029765
 30
0.0
 11
12.0000000095120001
 21
308.6999999999749775
 31
0.0
  0
LINE
  5
112
100
AcDbEntity
  8
0
 62
256
370
-1
 48
1.0
  6
BYLAYER
100
AcDbLine
 10
6.0000000094220001
 20
305.7000000002029765
 30
0.0
 11
12.0000000094439994
 21
305.6999999999749775
 31
0.0
  0
LINE
  5
113
100
AcDbEntity
  8
0
 62
256
370
-1
 48
1.0
  6
BYLAYER
100
AcDbLine
 10
16.0000000013360015
 20
486.2999999999479996
 30
0.0
 11
26.0000000012549997
 21
486.2999999999460101
 31
0.0
  0
LINE
  5
114
100
AcDbEntity
  8
0
 62
256
370
-1
 48
1.0
  6
BYLAYER
100
AcDbLine
 10
284.0000028548129762
 20
480.2999999999909733
 30
0.0
 11
284.0000028548129762
 21
486.2999999999919964
 31
0.0
  0
LINE
  5
115
100
AcDbEntity
  8
0
 62
256
370
-1
 48
1.0
  6
BYLAYER
100
AcDbLine
 10
274.0000028548129762
 20
480.2999999999909733
 30
0.0
 11
274.0000028548129762
 21
486.2999999999919964
 31
0.0
  0
LINE
  5
116
100
AcDbEntity
  8
0
 62
256
370
-1
 48
1.0
  6
BYLAYER
100
AcDbLine
 10
252.5000028548130047
 20
474.2999999999750003
 30
0.0
 11
250.0000028548120099
 21
474.2999999999750003
 31
0.0
  0
LINE
  5
117
100
AcDbEntity
  8
0
 62
256
370
-1
 48
1.0
  6
BYLAYER
100
AcDbLine
 10
252.5000028547590034
 20
471.299999999978013
 30
0.0
 11
250.0000028547590034
 21
471.299999999978013
 31
0.0
  0
CIRCLE
  5
118
100
AcDbEntity
  8
0
 62
256
370
-1
 48
1.0
  6
BYLAYER
100
AcDbCircle
 10
51.0000000034889567
 20
186.1260867688944813
 30
0.0
 40
1.50000000000002
  0
LINE
  5
119
100
AcDbEntity
  8
0
 62
256
370
-1
 48
1.0
  6
BYLAYER
100
AcDbLine
 10
6.0000000100799999
 20
455.300000000201976
 30
0.0
 11
0.000000010079
 21
455.3000000003390255
 31
0.0
  0
LINE
  5
11A
100
AcDbEntity
  8
0
 62
256
370
-1
 48
1.0
  6
BYLAYER
100
AcDbLine
 10
12.0000000095540003
 20
431.2999999999739771
 30
0.0
 11
15.0000000094669996
 21
431.2999999998830276
 31
0.0
  0
LINE
  5
11B
100
AcDbEntity
  8
0
 62
256
370
-1
 48
1.0
  6
BYLAYER
100
AcDbLine
 10
6.0000000096579997
 20
436.800000000201976
 30
0.0
 11
12.0000000096800008
 21
436.7999999999739771
 31
0.0
  0
LINE
  5
11C
100
AcDbEntity
  8
0
 62
256
370
-1
 48
1.0
  6
BYLAYER
100
AcDbLine
 10
6.000000010261
 20
465.3000000001209742
 30
0.0
 11
0.000000010306
 21
465.3000000002580236
 31
0.0
  0
LINE
  5
11D
100
AcDbEntity
  8
0
 62
256
370
-1
 48
1.0
  6
BYLAYER
100
AcDbLine
 10
288.0000000012730084
 20
431.2999999999730107
 30
0.0
 11
285.00000000120599
 21
431.2999999999730107
 31
0.0
  0
LINE
  5
11E
100
AcDbEntity
  8
0
 62
256
370
-1
 48
1.0
  6
BYLAYER
100
AcDbLine
 10
288.0000000012730084
 20
436.7999999999730107
 30
0.0
 11
288.0000000012730084
 21
439.2999999999730107
 31
0.0
  0
LINE
  5
11F
100
AcDbEntity
  8
0
 62
256
370
-1
 48
1.0
  6
BYLAYER
100
AcDbLine
 10
283.0000000014030093
 20
433.7999999999730107
 30
0.0
 11
283.0000000014030093
 21
436.7999999999730107
 31
0.0
  0
LINE
  5
120
100
AcDbEntity
  8
0
 62
256
370
-1
 48
1.0
  6
BYLAYER
100
AcDbLine
 10
294.0000000012399823
 20
465.2999999999730107
 30
0.0
 11
300.0000000012499868
 21
465.2999999999719876
 31
0.0
  0
LINE
  5
121
100
AcDbEntity
  8
0
 62
256
370
-1
 48
1.0
  6
BYLAYER
100
AcDbLine
 10
294.000000001266983
 20
209.1000000000919954
 30
0.0
 11
300.0000000012769874
 21
209.1000000000919954
 31
0.0
  0
LINE
  5
122
100
AcDbEntity
  8
0
 62
256
370
-1
 48
1.0
  6
BYLAYER
100
AcDbLine
 10
294.0000000012640271
 20
159.1000000000929901
 30
0.0
 11
300.0000000012649934
 21
159.1000000000929901
 31
0.0
  0
LINE
  5
123
100
AcDbEntity
  8
0
 62
256
370
-1
 48
1.0
  6
BYLAYER
100
AcDbLine
 10
300.0000000012769874
 20
209.1000000000919954
 30
0.0
 11
300.0000000012760211
 21
199.1000000000919954
 31
0.0
  0
LINE
  5
124
100
AcDbEntity
  8
0
 62
256
370
-1
 48
1.0
  6
BYLAYER
100
AcDbLine
 10
47.5000000012540013
 20
15.0000000000389999
 30
0.0
 11
47.5000000012540013
 21
16.9999999999380016
 31
0.0
  0
LINE
  5
125
100
AcDbEntity
  8
0
 62
256
370
-1
 48
1.0
  6
BYLAYER
100
AcDbLine
 10
47.5000000012540013
 20
16.9999999999380016
 30
0.0
 11
44.5000000012529995
 21
16.9999999999380016
 31
0.0
  0
CIRCLE
  5
126
100
AcDbEntity
  8
0
 62
256
370
-1
 48
1.0
  6
BYLAYER
100
AcDbCircle
 10
273.8354688790602722
 20
15.6493774018961744
 30
0.0
 40
1.5
  0
CIRCLE
  5
127
100
AcDbEntity
  8
0
 62
256
370
-1
 48
1.0
  6
BYLAYER
100
AcDbCircle
 10
244.3405271038550097
 20
40.671246602076998
 30
0.0
 40
1.499999993844118
  0
LINE
  5
128
100
AcDbEntity
  8
0
 62
256
370
-1
 48
1.0
  6
BYLAYER
100
AcDbLine
 10
15.0000000095920001
 20
436.7999999998830276
 30
0.0
 11
15.0000000096489998
 21
439.2999999998830276
 31
0.0
  0
LINE
  5
129
100
AcDbEntity
  8
0
 62
256
370
-1
 48
1.0
  6
BYLAYER
100
AcDbLine
 10
12.000000009611
 20
433.7999999999739771
 30
0.0
 11
12.0000000095540003
 21
431.2999999999739771
 31
0.0
  0
LINE
  5
12A
100
AcDbEntity
  8
0
 62
256
370
-1
 48
1.0
  6
BYLAYER
100
AcDbLine
 10
0.000000008927
 20
405.3000000003399919
 30
0.0
 11
0.000000009156
 21
415.3000000003399919
 31
0.0
  0
LINE
  5
12B
100
AcDbEntity
  8
0
 62
256
370
-1
 48
1.0
  6
BYLAYER
100
AcDbLine
 10
15.0000000095920001
 20
436.7999999998830276
 30
0.0
 11
17.0000000096769988
 21
436.7999999997700229
 31
0.0
  0
LINE
  5
12C
100
AcDbEntity
  8
0
 62
256
370
-1
 48
1.0
  6
BYLAYER
100
AcDbLine
 10
6.0000000091669996
 20
415.3000000002029992
 30
0.0
 11
0.000000009156
 21
415.3000000003399919
 31
0.0
  0
LINE
  5
12D
100
AcDbEntity
  8
0
 62
256
370
-1
 48
1.0
  6
BYLAYER
100
AcDbLine
 10
15.0000000005060006
 20
49.4999999997979998
 30
0.0
 11
17.000000000507999
 21
49.4999999996840003
 31
0.0
  0
LINE
  5
12E
100
AcDbEntity
  8
0
 62
256
370
-1
 48
1.0
  6
BYLAYER
100
AcDbLine
 10
17.0000000005760015
 20
52.4999999996840003
 30
0.0
 11
17.000000000507999
 21
49.4999999996840003
 31
0.0
  0
LINE
  5
12F
100
AcDbEntity
  8
0
 62
256
370
-1
 48
1.0
  6
BYLAYER
100
AcDbLine
 10
15.0000000005749996
 20
52.4999999997979998
 30
0.0
 11
17.0000000005760015
 21
52.4999999996840003
 31
0.0
  0
LINE
  5
130
100
AcDbEntity
  8
0
 62
256
370
-1
 48
1.0
  6
BYLAYER
100
AcDbLine
 10
15.0000000005749996
 20
52.4999999997979998
 30
0.0
 11
15.0000000006319993
 21
54.9999999997979998
 31
0.0
  0
LINE
  5
131
100
AcDbEntity
  8
0
 62
256
370
-1
 48
1.0
  6
BYLAYER
100
AcDbLine
 10
12.0000000006319993
 20
54.999999999888999
 30
0.0
 11
15.0000000006319993
 21
54.9999999997979998
 31
0.0
  0
LINE
  5
132
100
AcDbEntity
  8
0
 62
256
370
-1
 48
1.0
  6
BYLAYER
100
AcDbLine
 10
12.0000000005749996
 20
52.499999999888999
 30
0.0
 11
12.0000000006319993
 21
54.999999999888999
 31
0.0
  0
LINE
  5
133
100
AcDbEntity
  8
0
 62
256
370
-1
 48
1.0
  6
BYLAYER
100
AcDbLine
 10
5.9999999995530002
 20
180.5999999999559975
 30
0.0
 11
11.999999999281
 21
180.5999999997279986
 31
0.0
  0
LINE
  5
134
100
AcDbEntity
  8
0
 62
256
370
-1
 48
1.0
  6
BYLAYER
100
AcDbLine
 10
6.0000000087699998
 20
277.2000000002029765
 30
0.0
 11
0.000000008759
 21
277.2000000003409923
 31
0.0
  0
LINE
  5
135
100
AcDbEntity
  8
0
 62
256
370
-1
 48
1.0
  6
BYLAYER
100
AcDbLine
 10
12.0000000095689998
 20
311.1999999999749775
 30
0.0
 11
15.0000000094819992
 21
311.1999999998840281
 31
0.0
  0
LINE
  5
136
100
AcDbEntity
  8
0
 62
256
370
-1
 48
1.0
  6
BYLAYER
100
AcDbLine
 10
11.9999999992129993
 20
177.5999999997270038
 30
0.0
 11
11.9999999991559996
 21
175.0999999997270038
 31
0.0
  0
LINE
  5
137
100
AcDbEntity
  8
0
 62
256
370
-1
 48
1.0
  6
BYLAYER
100
AcDbLine
 10
11.9999999991559996
 20
175.0999999997270038
 30
0.0
 11
14.9999999991559996
 21
175.0999999996359975
 31
0.0
  0
LINE
  5
138
100
AcDbEntity
  8
0
 62
256
370
-1
 48
1.0
  6
BYLAYER
100
AcDbLine
 10
14.9999999992129993
 20
177.5999999996359975
 30
0.0
 11
14.9999999991559996
 21
175.0999999996359975
 31
0.0
  0
LINE
  5
139
100
AcDbEntity
  8
0
 62
256
370
-1
 48
1.0
  6
BYLAYER
100
AcDbLine
 10
14.9999999992129993
 20
177.5999999996359975
 30
0.0
 11
16.9999999992140012
 21
177.5999999995229928
 31
0.0
  0
LINE
  5
13A
100
AcDbEntity
  8
0
 62
256
370
-1
 48
1.0
  6
BYLAYER
100
AcDbLine
 10
16.9999999992829984
 20
180.5999999995229928
 30
0.0
 11
16.9999999992140012
 21
177.5999999995229928
 31
0.0
  0
LINE
  5
13B
100
AcDbEntity
  8
0
 62
256
370
-1
 48
1.0
  6
BYLAYER
100
AcDbLine
 10
14.999999999281
 20
180.5999999996369922
 30
0.0
 11
16.9999999992829984
 21
180.5999999995229928
 31
0.0
  0
LINE
  5
13C
100
AcDbEntity
  8
0
 62
256
370
-1
 48
1.0
  6
BYLAYER
100
AcDbLine
 10
14.999999999281
 20
180.5999999996369922
 30
0.0
 11
14.9999999993379998
 21
183.0999999996359975
 31
0.0
  0
LINE
  5
13D
100
AcDbEntity
  8
0
 62
256
370
-1
 48
1.0
  6
BYLAYER
100
AcDbLine
 10
11.9999999993379998
 20
183.0999999997279986
 30
0.0
 11
14.9999999993379998
 21
183.0999999996359975
 31
0.0
  0
LINE
  5
13E
100
AcDbEntity
  8
0
 62
256
370
-1
 48
1.0
  6
BYLAYER
100
AcDbLine
 10
6.0000000089369996
 20
405.300000000201976
 30
0.0
 11
0.000000008927
 21
405.3000000003399919
 31
0.0
  0
LINE
  5
13F
100
AcDbEntity
  8
0
 62
256
370
-1
 48
1.0
  6
BYLAYER
100
AcDbLine
 10
12.0000000096800008
 20
436.7999999999739771
 30
0.0
 11
12.0000000097370005
 21
439.2999999999739771
 31
0.0
  0
LINE
  5
140
100
AcDbEntity
  8
0
 62
256
370
-1
 48
1.0
  6
BYLAYER
100
AcDbLine
 10
17.0000000096769988
 20
436.7999999997700229
 30
0.0
 11
17.0000000096089998
 21
433.7999999997689997
 31
0.0
  0
LINE
  5
141
100
AcDbEntity
  8
0
 62
256
370
-1
 48
1.0
  6
BYLAYER
100
AcDbLine
 10
11.999999999281
 20
180.5999999997279986
 30
0.0
 11
11.9999999993379998
 21
183.0999999997279986
 31
0.0
  0
LINE
  5
142
100
AcDbEntity
  8
0
 62
256
370
-1
 48
1.0
  6
BYLAYER
100
AcDbLine
 10
12.0000000094439994
 20
305.6999999999749775
 30
0.0
 11
12.0000000093859995
 21
303.1999999999749775
 31
0.0
  0
LINE
  5
143
100
AcDbEntity
  8
0
 62
256
370
-1
 48
1.0
  6
BYLAYER
100
AcDbLine
 10
294.0000000013109798
 20
149.100000000173992
 30
0.0
 11
294.0000000012569785
 21
81.0000000000849951
 31
0.0
  0
LINE
  5
144
100
AcDbEntity
  8
0
 62
256
370
-1
 48
1.0
  6
BYLAYER
100
AcDbLine
 10
42.0000000012540013
 20
474.2999999999299803
 30
0.0
 11
42.0000000012540013
 21
471.299999999932993
 31
0.0
  0
LINE
  5
145
100
AcDbEntity
  8
0
 62
256
370
-1
 48
1.0
  6
BYLAYER
100
AcDbLine
 10
252.5000028547590034
 20
471.299999999978013
 30
0.0
 11
252.5000028547590034
 21
469.3000000000179739
 31
0.0
  0
LINE
  5
146
100
AcDbEntity
  8
0
 62
256
370
-1
 48
1.0
  6
BYLAYER
100
AcDbLine
 10
255.5000028548130047
 20
480.2999999999909733
 30
0.0
 11
255.5000028548130047
 21
474.2999999999750003
 31
0.0
  0
LINE
  5
147
100
AcDbEntity
  8
0
 62
256
370
-1
 48
1.0
  6
BYLAYER
100
AcDbLine
 10
252.5000028548130047
 20
480.2999999999909733
 30
0.0
 11
252.5000028548130047
 21
474.2999999999750003
 31
0.0
  0
LINE
  5
148
100
AcDbEntity
  8
0
 62
256
370
-1
 48
1.0
  6
BYLAYER
100
AcDbLine
 10
255.5000028547590034
 20
471.299999999978013
 30
0.0
 11
255.5000028547590034
 21
469.3000000000179739
 31
0.0
  0
LINE
  5
149
100
AcDbEntity
  8
0
 62
256
370
-1
 48
1.0
  6
BYLAYER
100
AcDbLine
 10
15.0000000093560004
 20
305.6999999998840281
 30
0.0
 11
17.000000009442001
 21
305.6999999997700002
 31
0.0
  0
LINE
  5
14A
100
AcDbEntity
  8
0
 62
256
370
-1
 48
1.0
  6
BYLAYER
100
AcDbLine
 10
17.0000000095099999
 20
308.6999999997710233
 30
0.0
 11
17.000000009442001
 21
305.6999999997700002
 31
0.0
  0
LINE
  5
14B
100
AcDbEntity
  8
0
 62
256
370
-1
 48
1.0
  6
BYLAYER
100
AcDbLine
 10
15.0000000094249994
 20
308.6999999998840281
 30
0.0
 11
17.0000000095099999
 21
308.6999999997710233
 31
0.0
  0
LINE
  5
14C
100
AcDbEntity
  8
0
 62
256
370
-1
 48
1.0
  6
BYLAYER
100
AcDbLine
 10
12.0000000095120001
 20
308.6999999999749775
 30
0.0
 11
12.0000000095689998
 21
311.1999999999749775
 31
0.0
  0
LINE
  5
14D
100
AcDbEntity
  8
0
 62
256
370
-1
 48
1.0
  6
BYLAYER
100
AcDbLine
 10
288.0000000012469741
 20
180.6000000000929901
 30
0.0
 11
288.0000000012469741
 21
183.1000000000919954
 31
0.0
  0
LINE
  5
14E
100
AcDbEntity
  8
0
 62
256
370
-1
 48
1.0
  6
BYLAYER
100
AcDbLine
 10
288.0000000012469741
 20
183.1000000000919954
 30
0.0
 11
285.0000000011800125
 21
183.1000000000919954
 31
0.0
  0
LINE
  5
14F
100
AcDbEntity
  8
0
 62
256
370
-1
 48
1.0
  6
BYLAYER
100
AcDbLine
 10
285.0000000011800125
 20
180.6000000000929901
 30
0.0
 11
285.0000000011800125
 21
183.1000000000919954
 31
0.0
  0
LINE
  5
150
100
AcDbEntity
  8
0
 62
256
370
-1
 48
1.0
  6
BYLAYER
100
AcDbLine
 10
285.0000000011800125
 20
180.6000000000929901
 30
0.0
 11
283.000000001376975
 21
180.6000000000919954
 31
0.0
  0
LINE
  5
151
100
AcDbEntity
  8
0
 62
256
370
-1
 48
1.0
  6
BYLAYER
100
AcDbLine
 10
283.000000001376975
 20
177.6000000000919954
 30
0.0
 11
283.000000001376975
 21
180.6000000000919954
 31
0.0
  0
LINE
  5
152
100
AcDbEntity
  8
0
 62
256
370
-1
 48
1.0
  6
BYLAYER
100
AcDbLine
 10
285.0000000011800125
 20
177.6000000000919954
 30
0.0
 11
283.000000001376975
 21
177.6000000000919954
 31
0.0
  0
LINE
  5
153
100
AcDbEntity
  8
0
 62
256
370
-1
 48
1.0
  6
BYLAYER
100
AcDbLine
 10
285.0000000011800125
 20
177.6000000000919954
 30
0.0
 11
285.0000000011800125
 21
175.1000000000929901
 31
0.0
  0
LINE
  5
154
100
AcDbEntity
  8
0
 62
256
370
-1
 48
1.0
  6
BYLAYER
100
AcDbLine
 10
288.0000000012469741
 20
175.1000000000919954
 30
0.0
 11
285.0000000011800125
 21
175.1000000000929901
 31
0.0
  0
LINE
  5
155
100
AcDbEntity
  8
0
 62
256
370
-1
 48
1.0
  6
BYLAYER
100
AcDbLine
 10
288.0000000012469741
 20
177.6000000000919954
 30
0.0
 11
288.0000000012469741
 21
175.1000000000919954
 31
0.0
  0
LINE
  5
156
100
AcDbEntity
  8
0
 62
256
370
-1
 48
1.0
  6
BYLAYER
100
AcDbLine
 10
288.0000000012730084
 20
439.2999999999730107
 30
0.0
 11
285.0000000012070132
 21
439.2999999999730107
 31
0.0
  0
LINE
  5
157
100
AcDbEntity
  8
0
 62
256
370
-1
 48
1.0
  6
BYLAYER
100
AcDbLine
 10
300.0000000012499868
 20
465.2999999999719876
 30
0.0
 11
300.0000000012490204
 21
455.2999999999719876
 31
0.0
  0
LINE
  5
158
100
AcDbEntity
  8
0
 62
256
370
-1
 48
1.0
  6
BYLAYER
100
AcDbLine
 10
288.0000000012730084
 20
433.7999999999730107
 30
0.0
 11
288.0000000012730084
 21
431.2999999999730107
 31
0.0
  0
LINE
  5
159
100
AcDbEntity
  8
0
 62
256
370
-1
 48
1.0
  6
BYLAYER
100
AcDbLine
 10
285.0000000012070132
 20
436.7999999999730107
 30
0.0
 11
283.0000000014030093
 21
436.7999999999730107
 31
0.0
  0
LINE
  5
15A
100
AcDbEntity
  8
0
 62
256
370
-1
 48
1.0
  6
BYLAYER
100
AcDbLine
 10
294.0000000012910277
 20
436.7999999999730107
 30
0.0
 11
288.0000000012730084
 21
436.7999999999730107
 31
0.0
  0
LINE
  5
15B
100
AcDbEntity
  8
0
 62
256
370
-1
 48
1.0
  6
BYLAYER
100
AcDbLine
 10
294.000000001239016
 20
455.2999999999719876
 30
0.0
 11
300.0000000012490204
 21
455.2999999999719876
 31
0.0
  0
LINE
  5
15C
100
AcDbEntity
  8
0
 62
256
370
-1
 48
1.0
  6
BYLAYER
100
AcDbLine
 10
300.0000000011229986
 20
415.2999999999719876
 30
0.0
 11
300.0000000011229986
 21
405.3000000000529894
 31
0.0
  0
LINE
  5
15D
100
AcDbEntity
  8
0
 62
256
370
-1
 48
1.0
  6
BYLAYER
100
AcDbLine
 10
12.0000000097370005
 20
439.2999999999739771
 30
0.0
 11
15.0000000096489998
 21
439.2999999998830276
 31
0.0
  0
LINE
  5
15E
100
AcDbEntity
  8
0
 62
256
370
-1
 48
1.0
  6
BYLAYER
100
AcDbLine
 10
6.0000000096579997
 20
436.800000000201976
 30
0.0
 11
6.0000000100799999
 21
455.300000000201976
 31
0.0
  0
LINE
  5
15F
100
AcDbEntity
  8
0
 62
256
370
-1
 48
1.0
  6
BYLAYER
100
AcDbLine
 10
6.0000000091669996
 20
415.3000000002029992
 30
0.0
 11
6.0000000095889998
 21
433.800000000201976
 31
0.0
  0
LINE
  5
160
100
AcDbEntity
  8
0
 62
256
370
-1
 48
1.0
  6
BYLAYER
100
AcDbLine
 10
288.0000000012370265
 20
49.5000000000840004
 30
0.0
 11
288.0000000012370265
 21
47.0000000000840004
 31
0.0
  0
LINE
  5
161
100
AcDbEntity
  8
0
 62
256
370
-1
 48
1.0
  6
BYLAYER
100
AcDbLine
 10
285.0000000011709744
 20
49.5000000000840004
 30
0.0
 11
283.0000000013670274
 21
49.5000000000840004
 31
0.0
  0
LINE
  5
162
100
AcDbEntity
  8
0
 62
256
370
-1
 48
1.0
  6
BYLAYER
100
AcDbLine
 10
300.0000000012680061
 20
81.0000000000840004
 30
0.0
 11
300.0000000012660166
 21
71.0000000000840004
 31
0.0
  0
LINE
  5
163
100
AcDbEntity
  8
0
 62
256
370
-1
 48
1.0
  6
BYLAYER
100
AcDbLine
 10
294.0000000012560122
 20
71.0000000000840004
 30
0.0
 11
300.0000000012660166
 21
71.0000000000840004
 31
0.0
  0
LINE
  5
164
100
AcDbEntity
  8
0
 62
256
370
-1
 48
1.0
  6
BYLAYER
100
AcDbLine
 10
294.000000001254989
 20
31.0000000000849987
 30
0.0
 11
300.0000000012560122
 21
31.0000000000849987
 31
0.0
  0
CIRCLE
  5
165
100
AcDbEntity
  8
0
 62
256
370
-1
 48
1.0
  6
BYLAYER
100
AcDbCircle
 10
249.0000000038969006
 20
217.1260867397716083
 30
0.0
 40
1.5000000000000191
  0
LINE
  5
166
100
AcDbEntity
  8
0
 62
256
370
-1
 48
1.0
  6
BYLAYER
100
AcDbLine
 10
6.0000000013349997
 20
6.0
 30
0.0
 11
6.0000000001259997
 21
21.0000000001170015
 31
0.0
  0
LINE
  5
167
100
AcDbEntity
  8
0
 62
256
370
-1
 48
1.0
  6
BYLAYER
100
AcDbLine
 10
224.0000028548120099
 20
486.2999999999919964
 30
0.0
 11
234.0000028548120099
 21
486.2999999999919964
 31
0.0
  0
LINE
  5
168
100
AcDbEntity
  8
0
 62
256
370
-1
 48
1.0
  6
BYLAYER
100
AcDbLine
 10
267.5000000011700081
 20
425.1148626769219732
 30
0.0
 11
267.5000000011149837
 21
455.1148626769210068
 31
0.0
  0
CIRCLE
  5
169
100
AcDbEntity
  8
0
 62
256
370
-1
 48
1.0
  6
BYLAYER
100
AcDbCircle
 10
279.9999999993328856
 20
186.126086735179598
 30
0.0
 40
1.500000000000018
  0
ARC
  5
16A
100
AcDbEntity
  8
0
 62
256
370
-1
 48
1.0
  6
BYLAYER
100
AcDbCircle
 10
206.0000000012639987
 20
81.000000000003979
 30
0.0
 40
57.9999999999999929
100
AcDbArc
 50
323.886434105869057
 51
0.0
  0
LINE
  5
16B
100
AcDbEntity
  8
0
 62
256
370
-1
 48
1.0
  6
BYLAYER
100
AcDbLine
 10
263.0000000013059775
 20
237.244060808563006
 30
0.0
 11
266.0000000013059775
 21
237.244060808563006
 31
0.0
  0
ARC
  5
16C
100
AcDbEntity
  8
0
 62
256
370
-1
 48
1.0
  6
BYLAYER
100
AcDbCircle
 10
206.0000000012659882
 20
81.0000000000029559
 30
0.0
 40
47.9999999999998366
100
AcDbArc
 50
314.9999999999969873
 51
0.0
  0
CIRCLE
  5
16D
100
AcDbEntity
  8
0
 62
256
370
-1
 48
1.0
  6
BYLAYER
100
AcDbCircle
 10
20.0000000080529183
 20
217.1260867734864632
 30
0.0
 40
1.50000000000002
  0
ARC
  5
16E
100
AcDbEntity
  8
0
 62
256
370
-1
 48
1.0
  6
BYLAYER
100
AcDbCircle
 10
256.0000000012660166
 20
81.0000000000009948
 30
0.0
 40
1.999999999999996
100
AcDbArc
 50
0.000000010779
 51
179.9999999892210099
  0
ARC
  5
16F
100
AcDbEntity
  8
0
 62
256
370
-1
 48
1.0
  6
BYLAYER
100
AcDbCircle
 10
206.0000000012659882
 20
81.0000000000029559
 30
0.0
 40
51.9999999999999929
100
AcDbArc
 50
314.9999999999980105
 51
0.0
  0
ARC
  5
170
100
AcDbEntity
  8
0
 62
256
370
-1
 48
1.0
  6
BYLAYER
100
AcDbCircle
 10
241.3553390605920015
 20
45.6446609406740009
 30
0.0
 40
2.000000000000739
100
AcDbArc
 50
135.0000000000100044
 51
315.0000000000110276
  0
CIRCLE
  5
171
100
AcDbEntity
  8
0
 62
256
370
-1
 48
1.0
  6
BYLAYER
100
AcDbCircle
 10
280.0000000038969006
 20
217.1260867351795696
 30
0.0
 40
1.5000000000000191
  0
LINE
  5
172
100
AcDbEntity
  8
0
 62
256
370
-1
 48
1.0
  6
BYLAYER
100
AcDbLine
 10
0.000000008759
 20
277.2000000003409923
 30
0.0
 11
0.000000008989
 21
287.2000000003409923
 31
0.0
  0
LINE
  5
173
100
AcDbEntity
  8
0
 62
256
370
-1
 48
1.0
  6
BYLAYER
100
AcDbLine
 10
6.0000000089989998
 20
287.2000000002039997
 30
0.0
 11
6.0000000094220001
 21
305.7000000002029765
 31
0.0
  0
LINE
  5
174
100
AcDbEntity
  8
0
 62
256
370
-1
 48
1.0
  6
BYLAYER
100
AcDbLine
 10
255.5000028548130047
 20
480.2999999999909733
 30
0.0
 11
274.0000028548129762
 21
480.2999999999909733
 31
0.0
  0
LINE
  5
175
100
AcDbEntity
  8
0
 62
256
370
-1
 48
1.0
  6
BYLAYER
100
AcDbLine
 10
224.0000028548130047
 20
480.2999999999900069
 30
0.0
 11
224.0000028548120099
 21
486.2999999999919964
 31
0.0
  0
LINE
  5
176
100
AcDbEntity
  8
0
 62
256
370
-1
 48
1.0
  6
BYLAYER
100
AcDbLine
 10
47.5000000012540013
 20
480.2999999999460101
 30
0.0
 11
66.0000000012539942
 21
480.2999999999460101
 31
0.0
  0
LINE
  5
177
100
AcDbEntity
  8
0
 62
256
370
-1
 48
1.0
  6
BYLAYER
100
AcDbLine
 10
170.0000000012539942
 20
480.2999999999710212
 30
0.0
 11
151.500000001254989
 21
480.2999999999909733
 31
0.0
  0
LINE
  5
178
100
AcDbEntity
  8
0
 62
256
370
-1
 48
1.0
  6
BYLAYER
100
AcDbLine
 10
76.0000000012539942
 20
480.2999999999460101
 30
0.0
 11
120.0000000012550032
 21
480.2999999999649958
 31
0.0
  0
LINE
  5
179
100
AcDbEntity
  8
0
 62
256
370
-1
 48
1.0
  6
BYLAYER
100
AcDbLine
 10
66.0000000012539942
 20
486.2999999999569809
 30
0.0
 11
76.0000000012539942
 21
486.2999999999569809
 31
0.0
  0
LINE
  5
17A
100
AcDbEntity
  8
0
 62
256
370
-1
 48
1.0
  6
BYLAYER
100
AcDbLine
 10
76.0000000012539942
 20
480.2999999999460101
 30
0.0
 11
76.0000000012539942
 21
486.2999999999569809
 31
0.0
  0
LINE
  5
17B
100
AcDbEntity
  8
0
 62
256
370
-1
 48
1.0
  6
BYLAYER
100
AcDbLine
 10
66.0000000012539942
 20
480.2999999999460101
 30
0.0
 11
66.0000000012539942
 21
486.2999999999569809
 31
0.0
  0
LINE
  5
17C
100
AcDbEntity
  8
0
 62
256
370
-1
 48
1.0
  6
BYLAYER
100
AcDbLine
 10
44.5000000012540013
 20
6.0000000000469997
 30
0.0
 11
26.0000000012549997
 21
6.0000000000469997
 31
0.0
  0
LINE
  5
17D
100
AcDbEntity
  8
0
 62
256
370
-1
 48
1.0
  6
BYLAYER
100
AcDbLine
 10
274.0000028548129762
 20
486.2999999999919964
 30
0.0
 11
284.0000028548129762
 21
486.2999999999919964
 31
0.0
  0
LINE
  5
17E
100
AcDbEntity
  8
0
 62
256
370
-1
 48
1.0
  6
BYLAYER
100
AcDbLine
 10
285.0000000011709744
 20
52.5000000000850022
 30
0.0
 11
283.0000000013670274
 21
52.5000000000850022
 31
0.0
  0
LINE
  5
17F
100
AcDbEntity
  8
0
 62
256
370
-1
 48
1.0
  6
BYLAYER
100
AcDbLine
 10
288.0000000012370265
 20
52.5000000000850022
 30
0.0
 11
288.0000000012370265
 21
55.0000000000840004
 31
0.0
  0
LINE
  5
180
100
AcDbEntity
  8
0
 62
256
370
-1
 48
1.0
  6
BYLAYER
100
AcDbLine
 10
294.000000001254989
 20
49.5000000000840004
 30
0.0
 11
288.0000000012370265
 21
49.5000000000840004
 31
0.0
  0
LINE
  5
181
100
AcDbEntity
  8
0
 62
256
370
-1
 48
1.0
  6
BYLAYER
100
AcDbLine
 10
15.0000000095239994
 20
433.7999999998830276
 30
0.0
 11
15.0000000094669996
 21
431.2999999998830276
 31
0.0
  0
LINE
  5
182
100
AcDbEntity
  8
0
 62
256
370
-1
 48
1.0
  6
BYLAYER
100
AcDbLine
 10
15.0000000095239994
 20
433.7999999998830276
 30
0.0
 11
17.0000000096089998
 21
433.7999999997689997
 31
0.0
  0
LINE
  5
183
100
AcDbEntity
  8
0
 62
256
370
-1
 48
1.0
  6
BYLAYER
100
AcDbLine
 10
0.000000010079
 20
455.3000000003390255
 30
0.0
 11
0.000000010306
 21
465.3000000002580236
 31
0.0
  0
LINE
  5
184
100
AcDbEntity
  8
0
 62
256
370
-1
 48
1.0
  6
BYLAYER
100
AcDbLine
 10
130.0000000012539942
 20
480.2999999999649958
 30
0.0
 11
130.0000000012539942
 21
486.2999999999649958
 31
0.0
  0
LINE
  5
185
100
AcDbEntity
  8
0
 62
256
370
-1
 48
1.0
  6
BYLAYER
100
AcDbLine
 10
120.0000000012539942
 20
486.2999999999649958
 30
0.0
 11
130.0000000012539942
 21
486.2999999999649958
 31
0.0
  0
LINE
  5
186
100
AcDbEntity
  8
0
 62
256
370
-1
 48
1.0
  6
BYLAYER
100
AcDbLine
 10
120.0000000012550032
 20
480.2999999999649958
 30
0.0
 11
120.0000000012539942
 21
486.2999999999649958
 31
0.0
  0
LINE
  5
187
100
AcDbEntity
  8
0
 62
256
370
-1
 48
1.0
  6
BYLAYER
100
AcDbLine
 10
255.5000028547590034
 20
471.299999999978013
 30
0.0
 11
258.000002854758975
 21
471.299999999978013
 31
0.0
  0
LINE
  5
188
100
AcDbEntity
  8
0
 62
256
370
-1
 48
1.0
  6
BYLAYER
100
AcDbLine
 10
255.5000028548130047
 20
474.2999999999750003
 30
0.0
 11
258.0000028548129762
 21
474.2999999999750003
 31
0.0
  0
LINE
  5
189
100
AcDbEntity
  8
0
 62
256
370
-1
 48
1.0
  6
BYLAYER
100
AcDbLine
 10
170.0000000012539942
 20
480.2999999999710212
 30
0.0
 11
170.0000000012539942
 21
486.2999999999730107
 31
0.0
  0
LINE
  5
18A
100
AcDbEntity
  8
0
 62
256
370
-1
 48
1.0
  6
BYLAYER
100
AcDbLine
 10
170.0000000012539942
 20
486.2999999999730107
 30
0.0
 11
180.0000000012539942
 21
486.2999999999730107
 31
0.0
  0
LINE
  5
18B
100
AcDbEntity
  8
0
 62
256
370
-1
 48
1.0
  6
BYLAYER
100
AcDbLine
 10
180.0000028548130047
 20
480.2999999999710212
 30
0.0
 11
180.0000000012539942
 21
486.2999999999730107
 31
0.0
  0
LINE
  5
18C
100
AcDbEntity
  8
0
 62
256
370
-1
 48
1.0
  6
BYLAYER
100
AcDbLine
 10
180.0000028548130047
 20
480.2999999999710212
 30
0.0
 11
224.0000028548130047
 21
480.2999999999900069
 31
0.0
  0
ARC
  5
18D
100
AcDbEntity
  8
0
 62
256
370
-1
 48
1.0
  6
BYLAYER
100
AcDbCircle
 10
254.4797749833589933
 20
45.6487453660320028
 30
0.0
 40
2.0000515625020698
100
AcDbArc
 50
144.3120449624560138
 51
324.3259989039920583
  0
CIRCLE
  5
18E
100
AcDbEntity
  8
0
 62
256
370
-1
 48
1.0
  6
BYLAYER
100
AcDbCircle
 10
260.9999999852958581
 20
90.9999999615749289
 30
0.0
 40
1.4999999999999969
  0
CIRCLE
  5
18F
100
AcDbEntity
  8
0
 62
256
370
-1
 48
1.0
  6
BYLAYER
100
AcDbCircle
 10
144.5000010055237851
 20
386.2999999786837861
 30
0.0
 40
1.999999999999996
  0
LINE
  5
190
100
AcDbEntity
  8
0
 62
256
370
-1
 48
1.0
  6
BYLAYER
100
AcDbLine
 10
300.0000000012680061
 20
81.0000000000840004
 30
0.0
 11
294.0000000012569785
 21
81.0000000000849951
 31
0.0
  0
LINE
  5
191
100
AcDbEntity
  8
0
 62
256
370
-1
 48
1.0
  6
BYLAYER
100
AcDbLine
 10
267.5000000011700081
 20
425.1148626769219732
 30
0.0
 11
279.5000000011700081
 21
425.1148626769219732
 31
0.0
  0
LINE
  5
192
100
AcDbEntity
  8
0
 62
256
370
-1
 48
1.0
  6
BYLAYER
100
AcDbLine
 10
266.0000000013059775
 20
237.244060808563006
 30
0.0
 11
266.0000000012950068
 21
212.4465820621809939
 31
0.0
  0
ARC
  5
193
100
AcDbEntity
  8
0
 62
256
370
-1
 48
1.0
  6
BYLAYER
100
AcDbCircle
 10
264.5000000012901182
 20
201.6440608085629265
 30
0.0
 40
10.9999999999999698
100
AcDbArc
 50
97.9053405465640196
 51
82.0946594533830023
  0
CIRCLE
  5
194
100
AcDbEntity
  8
0
 62
256
370
-1
 48
1.0
  6
BYLAYER
100
AcDbCircle
 10
155.5000010055237851
 20
386.2999999770673298
 30
0.0
 40
1.999999999999996
  0
ARC
  5
195
100
AcDbEntity
  8
0
 62
256
370
-1
 48
1.0
  6
BYLAYER
100
AcDbCircle
 10
94.0000000010659988
 20
81.0000000000039933
 30
0.0
 40
62.0000000000000213
100
AcDbArc
 50
179.9999999999969589
 51
216.0856565215459852
  0
CIRCLE
  5
196
100
AcDbEntity
  8
0
 62
256
370
-1
 48
1.0
  6
BYLAYER
100
AcDbCircle
 10
55.6594728750962133
 20
40.6712465938824721
 30
0.0
 40
1.499999993844118
  0
CIRCLE
  5
197
100
AcDbEntity
  8
0
 62
256
370
-1
 48
1.0
  6
BYLAYER
100
AcDbCircle
 10
39.000000001064997
 20
91.0000000000009948
 30
0.0
 40
1.4999999999999929
  0
ARC
  5
198
100
AcDbEntity
  8
0
 62
256
370
-1
 48
1.0
  6
BYLAYER
100
AcDbCircle
 10
94.0000000010659988
 20
81.0000000000039933
 30
0.0
 40
57.9999999999999929
100
AcDbArc
 50
179.9999999999969589
 51
216.1135658941309998
  0
CIRCLE
  5
199
100
AcDbEntity
  8
0
 62
256
370
-1
 48
1.0
  6
BYLAYER
100
AcDbCircle
 10
62.3880164910353727
 20
34.6680279674708345
 30
0.0
 40
1.4999999938441231
  0
ARC
  5
19A
100
AcDbEntity
  8
0
 62
256
370
-1
 48
1.0
  6
BYLAYER
100
AcDbCircle
 10
45.5202250189720061
 20
45.6487453660319957
 30
0.0
 40
2.0000515625020698
100
AcDbArc
 50
215.6740010960090217
 51
35.687955037543972
  0
LINE
  5
19B
100
AcDbEntity
  8
0
 62
256
370
-1
 48
1.0
  6
BYLAYER
100
AcDbLine
 10
263.0000000012950068
 20
212.4465820621819887
 30
0.0
 11
263.0000000013059775
 21
237.244060808563006
 31
0.0
  0
ARC
  5
19C
100
AcDbEntity
  8
0
 62
256
370
-1
 48
1.0
  6
BYLAYER
100
AcDbCircle
 10
34.000000001066006
 20
81.0000000000009805
 30
0.0
 40
1.999999999999996
100
AcDbArc
 50
0.0
 51
180.0
  0
ENDSEC
  0
SECTION
  2
OBJECTS
  0
DICTIONARY
  5
C
100
AcDbDictionary
280
0
281
1
  3
ACAD_GROUP
350
D
  3
ACAD_LAYOUT
350
1A
  3
ACAD_MLINESTYLE
350
17
  3
ACAD_PLOTSETTINGS
350
19
  3
ACAD_PLOTSTYLENAME
350
E
  3
AcDbVariableDictionary
350
19D
  3
QCAD_OBJECTS
350
19E
  0
DICTIONARY
  5
D
100
AcDbDictionary
280
0
281
1
  0
ACDBDICTIONARYWDFLT
  5
E
100
AcDbDictionary
281
1
  3
Normal
350
F
100
AcDbDictionaryWithDefault
340
F
  0
ACDBPLACEHOLDER
  5
F
  0
DICTIONARY
  5
17
100
AcDbDictionary
280
0
281
1
  3
Standard
350
18
  0
MLINESTYLE
  5
18
100
AcDbMlineStyle
  2
STANDARD
 70
0
  3

 62
256
 51
90.0
 52
90.0
 71
2
 49
0.5
 62
256
  6
BYLAYER
 49
-0.5
 62
256
  6
BYLAYER
  0
DICTIONARY
  5
19
100
AcDbDictionary
280
0
281
1
  0
DICTIONARY
  5
1A
100
AcDbDictionary
281
1
  3
Layout1
350
1E
  3
Layout2
350
26
  3
Model
350
22
  0
LAYOUT
  5
1E
100
AcDbPlotSettings
  1

  2
none_device
  4

  6

 40
0.0
 41
0.0
 42
0.0
 43
0.0
 44
0.0
 45
0.0
 46
0.0
 47
0.0
 48
0.0
 49
0.0
140
0.0
141
0.0
142
1.0
143
1.0
 70
688
 72
0
 73
0
 74
5
  7

 75
16
147
1.0
148
0.0
149
0.0
100
AcDbLayout
  1
Layout1
 70
1
 71
1
 10
0.0
 20
0.0
 11
420.0
 21
297.0
 12
0.0
 22
0.0
 32
0.0
 14
100000000000000000000.0
 24
100000000000000000000.0
 34
100000000000000000000.0
 15
-100000000000000000000.0
 25
-100000000000000000000.0
 35
-100000000000000000000.0
146
0.0
 13
0.0
 23
0.0
 33
0.0
 16
1.0
 26
0.0
 36
0.0
 17
0.0
 27
1.0
 37
0.0
 76
0
330
1B
  0
LAYOUT
  5
22
100
AcDbPlotSettings
  1

  2
none_device
  4

  6

 40
0.0
 41
0.0
 42
0.0
 43
0.0
 44
0.0
 45
0.0
 46
0.0
 47
0.0
 48
0.0
 49
0.0
140
0.0
141
0.0
142
1.0
143
1.0
 70
1712
 72
0
 73
0
 74
0
  7

 75
0
147
1.0
148
0.0
149
0.0
100
AcDbLayout
  1
Model
 70
1
 71
0
 10
0.0
 20
0.0
 11
12.0
 21
9.0
 12
0.0
 22
0.0
 32
0.0
 14
0.0
 24
0.0
 34
0.0
 15
0.0
 25
0.0
 35
0.0
146
0.0
 13
0.0
 23
0.0
 33
0.0
 16
1.0
 26
0.0
 36
0.0
 17
0.0
 27
1.0
 37
0.0
 76
0
330
1F
  0
LAYOUT
  5
26
100
AcDbPlotSettings
  1

  2
none_device
  4

  6

 40
0.0
 41
0.0
 42
0.0
 43
0.0
 44
0.0
 45
0.0
 46
0.0
 47
0.0
 48
0.0
 49
0.0
140
0.0
141
0.0
142
1.0
143
1.0
 70
688
 72
0
 73
0
 74
5
  7

 75
16
147
1.0
148
0.0
149
0.0
100
AcDbLayout
  1
Layout2
 70
1
 71
2
 10
0.0
 20
0.0
 11
12.0
 21
9.0
 12
0.0
 22
0.0
 32
0.0
 14
0.0
 24
0.0
 34
0.0
 15
0.0
 25
0.0
 35
0.0
146
0.0
 13
0.0
 23
0.0
 33
0.0
 16
1.0
 26
0.0
 36
0.0
 17
0.0
 27
1.0
 37
0.0
 76
0
330
23
  0
DICTIONARY
  5
19D
100
AcDbDictionary
281
1
  3
DIMASSOC
350
1A0
  3
HIDETEXT
350
19F
  0
DICTIONARYVAR
  5
19F
100
DictionaryVariables
280
0
  1
2
  0
DICTIONARYVAR
  5
1A0
100
DictionaryVariables
280
0
  1
1
  0
DICTIONARY
  5
19E
100
AcDbDictionary
281
1
  3
ColorSettings/BackgroundColor
350
1A1
  3
ColorSettings/ColorMode
350
1A2
  3
Grid/DisplayGrid00
350
1A3
  3
Grid/DisplayGrid01
350
1A4
  3
Grid/DisplayGrid02
350
1A5
  3
Grid/DisplayGrid03
350
1A6
  3
Grid/GridSpacingX00
350
1A7
  3
Grid/GridSpacingX01
350
1A8
  3
Grid/GridSpacingX02
350
1A9
  3
Grid/GridSpacingX03
350
1AA
  3
Grid/GridSpacingY00
350
1AB
  3
Grid/GridSpacingY01
350
1AC
  3
Grid/GridSpacingY02
350
1AD
  3
Grid/GridSpacingY03
350
1AE
  3
Grid/IsometricGrid00
350
1AF
  3
Grid/IsometricGrid01
350
1B0
  3
Grid/IsometricGrid02
350
1B1
  3
Grid/IsometricGrid03
350
1B2
  3
Grid/IsometricProjection00
350
1B3
  3
Grid/IsometricProjection01
350
1B4
  3
Grid/IsometricProjection02
350
1B5
  3
Grid/IsometricProjection03
350
1B6
  3
Grid/MetaGridSpacingX00
350
1B7
  3
Grid/MetaGridSpacingX01
350
1B8
  3
Grid/MetaGridSpacingX02
350
1B9
  3
Grid/MetaGridSpacingX03
350
1BA
  3
Grid/MetaGridSpacingY00
350
1BB
  3
Grid/MetaGridSpacingY01
350
1BC
  3
Grid/MetaGridSpacingY02
350
1BD
  3
Grid/MetaGridSpacingY03
350
1BE
  3
MultiPageSettings/Columns
350
1BF
  3
MultiPageSettings/GlueMarginsBottom
350
1C0
  3
MultiPageSettings/GlueMarginsLeft
350
1C1
  3
MultiPageSettings/GlueMarginsRight
350
1C2
  3
MultiPageSettings/GlueMarginsTop
350
1C3
  3
MultiPageSettings/PrintCropMarks
350
1C4
  3
MultiPageSettings/Rows
350
1C5
  3
PageSettings/OffsetX
350
1C6
  3
PageSettings/OffsetY
350
1C7
  3
PageSettings/PageOrientation
350
1C8
  3
PageSettings/PaperHeight
350
1C9
  3
PageSettings/PaperWidth
350
1CA
  3
PageSettings/Scale
350
1CB
  3
PageSettings/ShowPaperBorders
350
1CC
  3
UnitSettings/PaperUnit
350
1CD
  3
ViewportCenter
350
1CE
  3
ViewportHeight
350
1CF
  3
ViewportWidth
350
1D0
  0
XRECORD
  5
1A1
330
19E
100
AcDbXrecord
280
1
1000
Bianco
  0
XRECORD
  5
1A2
330
19E
100
AcDbXrecord
280
1
1000
FullColor
  0
XRECORD
  5
1A3
330
19E
100
AcDbXrecord
280
1
290
1
  0
XRECORD
  5
1A4
330
19E
100
AcDbXrecord
280
1
290
1
  0
XRECORD
  5
1A5
330
19E
100
AcDbXrecord
280
1
290
1
  0
XRECORD
  5
1A6
330
19E
100
AcDbXrecord
280
1
290
1
  0
XRECORD
  5
1A7
330
19E
100
AcDbXrecord
280
1
1000
auto
  0
XRECORD
  5
1A8
330
19E
100
AcDbXrecord
280
1
1000
auto
  0
XRECORD
  5
1A9
330
19E
100
AcDbXrecord
280
1
1000
auto
  0
XRECORD
  5
1AA
330
19E
100
AcDbXrecord
280
1
1000
auto
  0
XRECORD
  5
1AB
330
19E
100
AcDbXrecord
280
1
1000
auto
  0
XRECORD
  5
1AC
330
19E
100
AcDbXrecord
280
1
1000
auto
  0
XRECORD
  5
1AD
330
19E
100
AcDbXrecord
280
1
1000
auto
  0
XRECORD
  5
1AE
330
19E
100
AcDbXrecord
280
1
1000
auto
  0
XRECORD
  5
1AF
330
19E
100
AcDbXrecord
280
1
290
0
  0
XRECORD
  5
1B0
330
19E
100
AcDbXrecord
280
1
290
0
  0
XRECORD
  5
1B1
330
19E
100
AcDbXrecord
280
1
290
0
  0
XRECORD
  5
1B2
330
19E
100
AcDbXrecord
280
1
290
0
  0
XRECORD
  5
1B3
330
19E
100
AcDbXrecord
280
1
 90
4097
  0
XRECORD
  5
1B4
330
19E
100
AcDbXrecord
280
1
 90
4097
  0
XRECORD
  5
1B5
330
19E
100
AcDbXrecord
280
1
 90
4097
  0
XRECORD
  5
1B6
330
19E
100
AcDbXrecord
280
1
 90
4097
  0
XRECORD
  5
1B7
330
19E
100
AcDbXrecord
280
1
1000
auto
  0
XRECORD
  5
1B8
330
19E
100
AcDbXrecord
280
1
1000
auto
  0
XRECORD
  5
1B9
330
19E
100
AcDbXrecord
280
1
1000
auto
  0
XRECORD
  5
1BA
330
19E
100
AcDbXrecord
280
1
1000
auto
  0
XRECORD
  5
1BB
330
19E
100
AcDbXrecord
280
1
1000
auto
  0
XRECORD
  5
1BC
330
19E
100
AcDbXrecord
280
1
1000
auto
  0
XRECORD
  5
1BD
330
19E
100
AcDbXrecord
280
1
1000
auto
  0
XRECORD
  5
1BE
330
19E
100
AcDbXrecord
280
1
1000
auto
  0
XRECORD
  5
1BF
330
19E
100
AcDbXrecord
280
1
 90
1
  0
XRECORD
  5
1C0
330
19E
100
AcDbXrecord
280
1
 40
10.0
  0
XRECORD
  5
1C1
330
19E
100
AcDbXrecord
280
1
 40
10.0
  0
XRECORD
  5
1C2
330
19E
100
AcDbXrecord
280
1
 40
10.0
  0
XRECORD
  5
1C3
330
19E
100
AcDbXrecord
280
1
 40
10.0
  0
XRECORD
  5
1C4
330
19E
100
AcDbXrecord
280
1
290
0
  0
XRECORD
  5
1C5
330
19E
100
AcDbXrecord
280
1
 90
1
  0
XRECORD
  5
1C6
330
19E
100
AcDbXrecord
280
1
 40
0.0
  0
XRECORD
  5
1C7
330
19E
100
AcDbXrecord
280
1
 40
0.0
  0
XRECORD
  5
1C8
330
19E
100
AcDbXrecord
280
1
1000
Portrait
  0
XRECORD
  5
1C9
330
19E
100
AcDbXrecord
280
1
 40
297.0
  0
XRECORD
  5
1CA
330
19E
100
AcDbXrecord
280
1
 40
210.0
  0
XRECORD
  5
1CB
330
19E
100
AcDbXrecord
280
1
1000
1:1
  0
XRECORD
  5
1CC
330
19E
100
AcDbXrecord
280
1
290
1
  0
XRECORD
  5
1CD
330
19E
100
AcDbXrecord
280
1
 90
4
  0
XRECORD
  5
1CF
330
19E
100
AcDbXrecord
280
1
 40
775.247588865066291
  0
XRECORD
  5
1D0
330
19E
100
AcDbXrecord
280
1
 40
1316.5713404710411396
  0
ENDSEC
  0
EOF
