999
dxflib 3.17.0.0
  0
SECTION
  2
HEADER
  9
$ACADVER
  1
AC1015
  9
$HANDSEED
  5
FFFF
  9
$ANGBASE
 50
0.0
  9
$ANGDIR
 70
0
  9
$ATTMODE
 70
1
  9
$AUNITS
 70
0
  9
$AUPREC
 70
0
  9
$CECOLOR
 62
256
  9
$CELTSCALE
 40
1.0
  9
$CHAMFERA
 40
0.0
  9
$CHAMFERB
 40
0.0
  9
$CHAMFERC
 40
0.0
  9
$CHAMFERD
 40
0.0
  9
$CMLJUST
 70
0
  9
$CMLSCALE
 40
1.0
  9
$DIMADEC
 70
0
  9
$DIMALT
 70
0
  9
$DIMALTD
 70
2
  9
$DIMALTF
 40
25.3999999999999986
  9
$DIMALTTD
 70
2
  9
$DIMALTTZ
 70
0
  9
$DIMALTU
 70
2
  9
$DIMALTZ
 70
0
  9
$DIMAPOST
  1

  9
$DIMASZ
 40
0.18
  9
$DIMAUNIT
 70
0
  9
$DIMAZIN
 70
0
  9
$DIMBLK
  1

  9
$DIMBLK1
  1

  9
$DIMBLK2
  1

  9
$DIMCEN
 40
0.09
  9
$DIMCLRD
 70
0
  9
$DIMCLRE
 70
0
  9
$DIMCLRT
 70
0
  9
$DIMDEC
 70
4
  9
$DIMDLE
 40
0.0
  9
$DIMDLI
 40
0.38
  9
$DIMDSEP
 70
46
  9
$DIMEXE
 40
0.18
  9
$DIMEXO
 40
0.0625
  9
$DIMGAP
 40
0.09
  9
$DIMJUST
 70
0
  9
$DIMLFAC
 40
1.0
  9
$DIMLIM
 70
0
  9
$DIMLUNIT
 70
2
  9
$DIMPOST
  1

  9
$DIMRND
 40
0.0
  9
$DIMSAH
 70
0
  9
$DIMSCALE
 40
1.0
  9
$DIMSD1
 70
0
  9
$DIMSD2
 70
0
  9
$DIMSE1
 70
0
  9
$DIMSE2
 70
0
  9
$DIMSOXD
 70
0
  9
$DIMTAD
 70
0
  9
$DIMTDEC
 70
4
  9
$DIMTFAC
 40
1.0
  9
$DIMTIH
 70
1
  9
$DIMTIX
 70
0
  9
$DIMTM
 40
0.0
  9
$DIMTOFL
 70
0
  9
$DIMTOH
 70
1
  9
$DIMTOL
 70
0
  9
$DIMTOLJ
 70
1
  9
$DIMTP
 40
0.0
  9
$DIMTSZ
 40
0.0
  9
$DIMTVP
 40
0.0
  9
$DIMTXSTY
  7
STANDARD
  9
$DIMTXT
 40
0.18
  9
$DIMTZIN
 70
0
  9
$DIMUPT
 70
0
  9
$DIMZIN
 70
0
  9
$DISPSILH
 70
0
  9
$DWGCODEPAGE
  3
ANSI_1252
  9
$ELEVATION
 40
0.0
  9
$EXTMAX
 10
-100000000000000000000.0
 20
-100000000000000000000.0
 30
-100000000000000000000.0
  9
$EXTMIN
 10
100000000000000000000.0
 20
100000000000000000000.0
 30
100000000000000000000.0
  9
$FILLETRAD
 40
0.5
  9
$FILLMODE
 70
1
  9
$INSBASE
 10
0.0
 20
0.0
 30
0.0
  9
$INSUNITS
 70
0
  9
$LIMCHECK
 70
0
  9
$LIMMAX
 10
12.0
 20
9.0
  9
$LIMMIN
 10
0.0
 20
0.0
  9
$LTSCALE
 40
1.0
  9
$LUNITS
 70
2
  9
$LUPREC
 70
4
  9
$MAXACTVP
 70
64
  9
$MEASUREMENT
 70
1
  9
$MIRRTEXT
 70
1
  9
$ORTHOMODE
 70
0
  9
$PDMODE
 70
0
  9
$PDSIZE
 40
0
  9
$PELEVATION
 40
0.0
  9
$PEXTMAX
 10
-100000000000000000000.0
 20
-100000000000000000000.0
 30
-100000000000000000000.0
  9
$PEXTMIN
 10
100000000000000000000.0
 20
100000000000000000000.0
 30
100000000000000000000.0
  9
$PINSBASE
 10
0.0
 20
0.0
 30
0.0
  9
$PLIMCHECK
 70
0
  9
$PLIMMAX
 10
12.0
 20
9.0
  9
$PLIMMIN
 10
0.0
 20
0.0
  9
$PLINEGEN
 70
0
  9
$PLINEWID
 40
0.0
  9
$PROXYGRAPHICS
 70
1
  9
$PSLTSCALE
 70
1
  9
$PUCSNAME
  2

  9
$PUCSORG
 10
0.0
 20
0.0
 30
0.0
  9
$PUCSXDIR
 10
1.0
 20
0.0
 30
0.0
  9
$PUCSYDIR
 10
0.0
 20
1.0
 30
0.0
  9
$QTEXTMODE
 70
0
  9
$REGENMODE
 70
1
  9
$SHADEDGE
 70
3
  9
$SHADEDIF
 70
70
  9
$SKETCHINC
 40
0.1
  9
$SKPOLY
 70
0
  9
$SPLFRAME
 70
0
  9
$SPLINESEGS
 70
8
  9
$SPLINETYPE
 70
6
  9
$SURFTAB1
 70
6
  9
$SURFTAB2
 70
6
  9
$SURFTYPE
 70
6
  9
$SURFU
 70
6
  9
$SURFV
 70
6
  9
$TEXTSIZE
 40
0.2
  9
$TEXTSTYLE
  7
STANDARD
  9
$THICKNESS
 40
0.0
  9
$TILEMODE
 70
1
  9
$TRACEWID
 40
0.05
  9
$TREEDEPTH
 70
3020
  9
$UCSNAME
  2

  9
$UCSORG
 10
0.0
 20
0.0
 30
0.0
  9
$UCSXDIR
 10
1.0
 20
0.0
 30
0.0
  9
$UCSYDIR
 10
0.0
 20
1.0
 30
0.0
  9
$UNITMODE
 70
0
  9
$USERI1
 70
0
  9
$USERI2
 70
0
  9
$USERI3
 70
0
  9
$USERI4
 70
0
  9
$USERI5
 70
0
  9
$USERR1
 40
0.0
  9
$USERR2
 40
0.0
  9
$USERR3
 40
0.0
  9
$USERR4
 40
0.0
  9
$USERR5
 40
0.0
  9
$USRTIMER
 70
1
  9
$VISRETAIN
 70
1
  0
ENDSEC
  0
SECTION
  2
TABLES
  0
TABLE
  2
VPORT
  5
8
100
AcDbSymbolTable
 70
1
  0
VPORT
  5
30
100
AcDbSymbolTableRecord
100
AcDbViewportTableRecord
  2
*Active
 70
0
 10
0.0
 20
0.0
 11
1.0
 21
1.0
 12
286.3055555555554861
 22
148.5
 13
0.0
 23
0.0
 14
10.0
 24
10.0
 15
10.0
 25
10.0
 16
0.0
 26
0.0
 36
1.0
 17
0.0
 27
0.0
 37
0.0
 40
297.0
 41
1.92798353909465
 42
50.0
 43
0.0
 44
0.0
 50
0.0
 51
0.0
 71
0
 72
100
 73
1
 74
3
 75
1
 76
1
 77
0
 78
0
281
0
 65
1
110
0.0
120
0.0
130
0.0
111
1.0
121
0.0
131
0.0
112
0.0
122
1.0
132
0.0
 79
0
146
0.0
  0
ENDTAB
  0
TABLE
  2
LTYPE
  5
5
100
AcDbSymbolTable
 70
41
  0
LTYPE
  5
16
100
AcDbSymbolTableRecord
100
AcDbLinetypeTableRecord
  2
CONTINUOUS
 70
0
  3
Solid line
 72
65
 73
0
 40
0.0
  0
LTYPE
  5
31
100
AcDbSymbolTableRecord
100
AcDbLinetypeTableRecord
  2
DASHED2
 70
0
  3
Dashed (.5x) _ _ _ _ _ _ _ _ _ _ _ _ _ _ _ _ _ 
 72
65
 73
2
 40
9.5249999999999986
 49
6.3499999999999996
 74
0
 49
-3.1749999999999998
 74
0
  0
LTYPE
  5
32
100
AcDbSymbolTableRecord
100
AcDbLinetypeTableRecord
  2
DASHED
 70
0
  3
Dashed __ __ __ __ __ __ __ __ __ __ __ __ __ _
 72
65
 73
2
 40
19.0499999999999972
 49
12.6999999999999993
 74
0
 49
-6.3499999999999996
 74
0
  0
LTYPE
  5
33
100
AcDbSymbolTableRecord
100
AcDbLinetypeTableRecord
  2
DASHDOT2
 70
0
  3
Dash dot (.5x) _._._._._._._._._._._._._._._.
 72
65
 73
4
 40
12.6999999999999993
 49
6.3499999999999996
 74
0
 49
-3.1749999999999998
 74
0
 49
0.0
 74
0
 49
-3.1749999999999998
 74
0
  0
LTYPE
  5
34
100
AcDbSymbolTableRecord
100
AcDbLinetypeTableRecord
  2
DIVIDE2
 70
0
  3
Divide (.5x) __..__..__..__..__..__..__..__.._
 72
65
 73
6
 40
15.875
 49
6.3499999999999996
 74
0
 49
-3.1749999999999998
 74
0
 49
0.0
 74
0
 49
-3.1749999999999998
 74
0
 49
0.0
 74
0
 49
-3.1749999999999998
 74
0
  0
LTYPE
  5
35
100
AcDbSymbolTableRecord
100
AcDbLinetypeTableRecord
  2
PHANTOM2
 70
0
  3
Phantom (.5x) ___ _ _ ___ _ _ ___ _ _ ___ _ _
 72
65
 73
6
 40
31.7500000000000036
 49
15.875
 74
0
 49
-3.1749999999999998
 74
0
 49
3.1749999999999998
 74
0
 49
-3.1749999999999998
 74
0
 49
3.1749999999999998
 74
0
 49
-3.1749999999999998
 74
0
  0
LTYPE
  5
36
100
AcDbSymbolTableRecord
100
AcDbLinetypeTableRecord
  2
DIVIDEX2
 70
0
  3
Divide (2x) ________  .  .  ________  .  .  _
 72
65
 73
6
 40
63.5
 49
25.3999999999999986
 74
0
 49
-12.6999999999999993
 74
0
 49
0.0
 74
0
 49
-12.6999999999999993
 74
0
 49
0.0
 74
0
 49
-12.6999999999999993
 74
0
  0
LTYPE
  5
37
100
AcDbSymbolTableRecord
100
AcDbLinetypeTableRecord
  2
DOT2
 70
0
  3
Dot (.5x) ........................................
 72
65
 73
2
 40
3.1749999999999998
 49
0.0
 74
0
 49
-3.1749999999999998
 74
0
  0
LTYPE
  5
38
100
AcDbSymbolTableRecord
100
AcDbLinetypeTableRecord
  2
ACAD_ISO03W100
 70
0
  3
ISO dash space __    __    __    __    __    __
 72
65
 73
2
 40
30.0
 49
12.0
 74
0
 49
-18.0
 74
0
  0
LTYPE
  5
39
100
AcDbSymbolTableRecord
100
AcDbLinetypeTableRecord
  2
BORDERX2
 70
0
  3
Border (2x) ____  ____  .  ____  ____  .  ___
 72
65
 73
6
 40
88.8999999999999915
 49
25.3999999999999986
 74
0
 49
-12.6999999999999993
 74
0
 49
25.3999999999999986
 74
0
 49
-12.6999999999999993
 74
0
 49
0.0
 74
0
 49
-12.6999999999999993
 74
0
  0
LTYPE
  5
3A
100
AcDbSymbolTableRecord
100
AcDbLinetypeTableRecord
  2
DASHDOT
 70
0
  3
Dash dot __ . __ . __ . __ . __ . __ . __ . __
 72
65
 73
4
 40
25.3999999999999986
 49
12.6999999999999993
 74
0
 49
-6.3499999999999996
 74
0
 49
0.0
 74
0
 49
-6.3499999999999996
 74
0
  0
LTYPE
  5
3B
100
AcDbSymbolTableRecord
100
AcDbLinetypeTableRecord
  2
DASHDOTX2
 70
0
  3
Dash dot (2x) ____  .  ____  .  ____  .  ___
 72
65
 73
4
 40
50.7999999999999972
 49
25.3999999999999986
 74
0
 49
-12.6999999999999993
 74
0
 49
0.0
 74
0
 49
-12.6999999999999993
 74
0
  0
LTYPE
  5
3C
100
AcDbSymbolTableRecord
100
AcDbLinetypeTableRecord
  2
HIDDEN
 70
0
  3
Hidden __ __ __ __ __ __ __ __ __ __ __ __ __ __
 72
65
 73
2
 40
9.5249999999999986
 49
6.3499999999999996
 74
0
 49
-3.1749999999999998
 74
0
  0
LTYPE
  5
3D
100
AcDbSymbolTableRecord
100
AcDbLinetypeTableRecord
  2
ACAD_ISO02W100
 70
0
  3
ISO dash __ __ __ __ __ __ __ __ __ __ __ __ __
 72
65
 73
2
 40
15.0
 49
12.0
 74
0
 49
-3.0
 74
0
  0
LTYPE
  5
3E
100
AcDbSymbolTableRecord
100
AcDbLinetypeTableRecord
  2
DOTX2
 70
0
  3
Dot (2x) .  .  .  .  .  .  .  .  .  .  .  .  .  .
 72
65
 73
2
 40
12.6999999999999993
 49
0.0
 74
0
 49
-12.6999999999999993
 74
0
  0
LTYPE
  5
15
100
AcDbSymbolTableRecord
100
AcDbLinetypeTableRecord
  2
BYLAYER
 70
0
  3

 72
65
 73
0
 40
0.0
  0
LTYPE
  5
3F
100
AcDbSymbolTableRecord
100
AcDbLinetypeTableRecord
  2
HIDDENX2
 70
0
  3
Hidden (2x) ____ ____ ____ ____ ____ ____ ____ 
 72
65
 73
2
 40
19.0499999999999972
 49
12.6999999999999993
 74
0
 49
-6.3499999999999996
 74
0
  0
LTYPE
  5
40
100
AcDbSymbolTableRecord
100
AcDbLinetypeTableRecord
  2
BORDER2
 70
0
  3
Border (.5x) __.__.__.__.__.__.__.__.__.__.__.
 72
65
 73
6
 40
22.2249999999999979
 49
6.3499999999999996
 74
0
 49
-3.1749999999999998
 74
0
 49
6.3499999999999996
 74
0
 49
-3.1749999999999998
 74
0
 49
0.0
 74
0
 49
-3.1749999999999998
 74
0
  0
LTYPE
  5
41
100
AcDbSymbolTableRecord
100
AcDbLinetypeTableRecord
  2
ACAD_ISO12W100
 70
0
  3
ISO dash double-dot __ . . __ . . __ . . __ . . 
 72
65
 73
6
 40
21.0
 49
12.0
 74
0
 49
-3.0
 74
0
 49
0.0
 74
0
 49
-3.0
 74
0
 49
0.0
 74
0
 49
-3.0
 74
0
  0
LTYPE
  5
42
100
AcDbSymbolTableRecord
100
AcDbLinetypeTableRecord
  2
DASHEDX2
 70
0
  3
Dashed (2x) ____  ____  ____  ____  ____  ___
 72
65
 73
2
 40
38.0999999999999943
 49
25.3999999999999986
 74
0
 49
-12.6999999999999993
 74
0
  0
LTYPE
  5
43
100
AcDbSymbolTableRecord
100
AcDbLinetypeTableRecord
  2
PHANTOM
 70
0
  3
Phantom ______  __  __  ______  __  __  ______ 
 72
65
 73
6
 40
63.5000000000000071
 49
31.75
 74
0
 49
-6.3499999999999996
 74
0
 49
6.3499999999999996
 74
0
 49
-6.3499999999999996
 74
0
 49
6.3499999999999996
 74
0
 49
-6.3499999999999996
 74
0
  0
LTYPE
  5
44
100
AcDbSymbolTableRecord
100
AcDbLinetypeTableRecord
  2
ACAD_ISO06W100
 70
0
  3
ISO long-dash triple-dot ____ ... ____ ... ____
 72
65
 73
8
 40
36.0
 49
24.0
 74
0
 49
-3.0
 74
0
 49
0.0
 74
0
 49
-3.0
 74
0
 49
0.0
 74
0
 49
-3.0
 74
0
 49
0.0
 74
0
 49
-3.0
 74
0
  0
LTYPE
  5
45
100
AcDbSymbolTableRecord
100
AcDbLinetypeTableRecord
  2
ACAD_ISO05W100
 70
0
  3
ISO long-dash double-dot ____ .. ____ .. ____ . 
 72
65
 73
6
 40
33.0
 49
24.0
 74
0
 49
-3.0
 74
0
 49
0.0
 74
0
 49
-3.0
 74
0
 49
0.0
 74
0
 49
-3.0
 74
0
  0
LTYPE
  5
46
100
AcDbSymbolTableRecord
100
AcDbLinetypeTableRecord
  2
DOT
 70
0
  3
Dot . . . . . . . . . . . . . . . . . . . . . . . .
 72
65
 73
2
 40
6.3499999999999996
 49
0.0
 74
0
 49
-6.3499999999999996
 74
0
  0
LTYPE
  5
47
100
AcDbSymbolTableRecord
100
AcDbLinetypeTableRecord
  2
DIVIDE
 70
0
  3
Divide ____ . . ____ . . ____ . . ____ . . ____
 72
65
 73
6
 40
31.75
 49
12.6999999999999993
 74
0
 49
-6.3499999999999996
 74
0
 49
0.0
 74
0
 49
-6.3499999999999996
 74
0
 49
0.0
 74
0
 49
-6.3499999999999996
 74
0
  0
LTYPE
  5
48
100
AcDbSymbolTableRecord
100
AcDbLinetypeTableRecord
  2
ACAD_ISO07W100
 70
0
  3
ISO dot . . . . . . . . . . . . . . . . . . . . 
 72
65
 73
2
 40
3.0
 49
0.0
 74
0
 49
-3.0
 74
0
  0
LTYPE
  5
49
100
AcDbSymbolTableRecord
100
AcDbLinetypeTableRecord
  2
ACAD_ISO11W100
 70
0
  3
ISO double-dash dot __ __ . __ __ . __ __ . __ _
 72
65
 73
6
 40
33.0
 49
12.0
 74
0
 49
-3.0
 74
0
 49
12.0
 74
0
 49
-3.0
 74
0
 49
0.0
 74
0
 49
-3.0
 74
0
  0
LTYPE
  5
4A
100
AcDbSymbolTableRecord
100
AcDbLinetypeTableRecord
  2
ACAD_ISO08W100
 70
0
  3
ISO long-dash short-dash ____ __ ____ __ ____ _
 72
65
 73
4
 40
36.0
 49
24.0
 74
0
 49
-3.0
 74
0
 49
6.0
 74
0
 49
-3.0
 74
0
  0
LTYPE
  5
4B
100
AcDbSymbolTableRecord
100
AcDbLinetypeTableRecord
  2
ACAD_ISO15W100
 70
0
  3
ISO double-dash triple-dot __ __ . . . __ __ . .
 72
65
 73
10
 40
39.0
 49
12.0
 74
0
 49
-3.0
 74
0
 49
12.0
 74
0
 49
-3.0
 74
0
 49
0.0
 74
0
 49
-3.0
 74
0
 49
0.0
 74
0
 49
-3.0
 74
0
 49
0.0
 74
0
 49
-3.0
 74
0
  0
LTYPE
  5
4C
100
AcDbSymbolTableRecord
100
AcDbLinetypeTableRecord
  2
HIDDEN2
 70
0
  3
Hidden (.5x) _ _ _ _ _ _ _ _ _ _ _ _ _ _ _ _ _ 
 72
65
 73
2
 40
4.7624999999999993
 49
3.1749999999999998
 74
0
 49
-1.5874999999999999
 74
0
  0
LTYPE
  5
4D
100
AcDbSymbolTableRecord
100
AcDbLinetypeTableRecord
  2
CENTER
 70
0
  3
Center ____ _ ____ _ ____ _ ____ _ ____ _ ____
 72
65
 73
4
 40
50.8000000000000043
 49
31.75
 74
0
 49
-6.3499999999999996
 74
0
 49
6.3499999999999996
 74
0
 49
-6.3499999999999996
 74
0
  0
LTYPE
  5
4E
100
AcDbSymbolTableRecord
100
AcDbLinetypeTableRecord
  2
BORDER
 70
0
  3
Border __ __ . __ __ . __ __ . __ __ . __ __ .
 72
65
 73
6
 40
44.4499999999999957
 49
12.6999999999999993
 74
0
 49
-6.3499999999999996
 74
0
 49
12.6999999999999993
 74
0
 49
-6.3499999999999996
 74
0
 49
0.0
 74
0
 49
-6.3499999999999996
 74
0
  0
LTYPE
  5
4F
100
AcDbSymbolTableRecord
100
AcDbLinetypeTableRecord
  2
ACAD_ISO10W100
 70
0
  3
ISO dash dot __ . __ . __ . __ . __ . __ . __ . 
 72
65
 73
4
 40
18.0
 49
12.0
 74
0
 49
-3.0
 74
0
 49
0.0
 74
0
 49
-3.0
 74
0
  0
LTYPE
  5
50
100
AcDbSymbolTableRecord
100
AcDbLinetypeTableRecord
  2
PHANTOMX2
 70
0
  3
Phantom (2x) ____________    ____    ____   _
 72
65
 73
6
 40
127.0000000000000142
 49
63.5
 74
0
 49
-12.6999999999999993
 74
0
 49
12.6999999999999993
 74
0
 49
-12.6999999999999993
 74
0
 49
12.6999999999999993
 74
0
 49
-12.6999999999999993
 74
0
  0
LTYPE
  5
51
100
AcDbSymbolTableRecord
100
AcDbLinetypeTableRecord
  2
CENTER2
 70
0
  3
Center (.5x) ___ _ ___ _ ___ _ ___ _ ___ _ ___
 72
65
 73
4
 40
28.5750000000000028
 49
19.0500000000000007
 74
0
 49
-3.1749999999999998
 74
0
 49
3.1749999999999998
 74
0
 49
-3.1749999999999998
 74
0
  0
LTYPE
  5
52
100
AcDbSymbolTableRecord
100
AcDbLinetypeTableRecord
  2
ACAD_ISO13W100
 70
0
  3
ISO double-dash double-dot __ __ . . __ __ . . _
 72
65
 73
8
 40
36.0
 49
12.0
 74
0
 49
-3.0
 74
0
 49
12.0
 74
0
 49
-3.0
 74
0
 49
0.0
 74
0
 49
-3.0
 74
0
 49
0.0
 74
0
 49
-3.0
 74
0
  0
LTYPE
  5
53
100
AcDbSymbolTableRecord
100
AcDbLinetypeTableRecord
  2
ACAD_ISO09W100
 70
0
  3
ISO long-dash double-short-dash ____ __ __ ____
 72
65
 73
6
 40
45.0
 49
24.0
 74
0
 49
-3.0
 74
0
 49
6.0
 74
0
 49
-3.0
 74
0
 49
6.0
 74
0
 49
-3.0
 74
0
  0
LTYPE
  5
14
100
AcDbSymbolTableRecord
100
AcDbLinetypeTableRecord
  2
BYBLOCK
 70
0
  3

 72
65
 73
0
 40
0.0
  0
LTYPE
  5
54
100
AcDbSymbolTableRecord
100
AcDbLinetypeTableRecord
  2
ACAD_ISO14W100
 70
0
  3
ISO dash triple-dot __ . . . __ . . . __ . . . _
 72
65
 73
8
 40
24.0
 49
12.0
 74
0
 49
-3.0
 74
0
 49
0.0
 74
0
 49
-3.0
 74
0
 49
0.0
 74
0
 49
-3.0
 74
0
 49
0.0
 74
0
 49
-3.0
 74
0
  0
LTYPE
  5
55
100
AcDbSymbolTableRecord
100
AcDbLinetypeTableRecord
  2
CENTERX2
 70
0
  3
Center (2x) ________  __  ________  __  _____
 72
65
 73
4
 40
101.6000000000000085
 49
63.5
 74
0
 49
-12.6999999999999993
 74
0
 49
12.6999999999999993
 74
0
 49
-12.6999999999999993
 74
0
  0
LTYPE
  5
56
100
AcDbSymbolTableRecord
100
AcDbLinetypeTableRecord
  2
ACAD_ISO04W100
 70
0
  3
ISO long-dash dot ____ . ____ . ____ . ____ . _
 72
65
 73
4
 40
30.0
 49
24.0
 74
0
 49
-3.0
 74
0
 49
0.0
 74
0
 49
-3.0
 74
0
  0
ENDTAB
  0
TABLE
  2
LAYER
  5
2
100
AcDbSymbolTable
 70
1
  0
LAYER
  5
10
100
AcDbSymbolTableRecord
100
AcDbLayerTableRecord
  2
0
 70
0
 62
13
420
10834514
  6
CONTINUOUS
370
5
390
F
  0
ENDTAB
  0
TABLE
  2
STYLE
  5
3
100
AcDbSymbolTable
 70
1
  0
STYLE
  5
57
100
AcDbSymbolTableRecord
100
AcDbTextStyleTableRecord
  2
Standard
 70
0
 40
0.0
 41
1.0
 50
0.0
 71
0
 42
2.5
  3

  4

1001
ACAD
1000
txt
1071
0
  0
ENDTAB
  0
TABLE
  2
VIEW
  5
6
100
AcDbSymbolTable
 70
0
  0
ENDTAB
  0
TABLE
  2
UCS
  5
7
100
AcDbSymbolTable
 70
0
  0
ENDTAB
  0
TABLE
  2
APPID
  5
9
100
AcDbSymbolTable
 70
1
  0
APPID
  5
12
100
AcDbSymbolTableRecord
100
AcDbRegAppTableRecord
  2
ACAD
 70
0
  0
APPID
  5
58
100
AcDbSymbolTableRecord
100
AcDbRegAppTableRecord
  2
QCAD
 70
0
  0
ENDTAB
  0
TABLE
  2
DIMSTYLE
  5
A
100
AcDbSymbolTable
 70
1
100
AcDbDimStyleTable
 71
0
  0
DIMSTYLE
105
27
100
AcDbSymbolTableRecord
100
AcDbDimStyleTableRecord
  2
Standard
 41
0.18
 42
0.0625
 43
3.75
 44
0.18
 70
0
 73
0
 74
0
 77
1
 78
8
140
0.18
141
2.5
143
0.03937007874016
147
0.09
171
3
172
1
271
2
272
2
274
3
278
44
283
0
284
8
340
57
  0
ENDTAB
  0
TABLE
  2
BLOCK_RECORD
  5
1
100
AcDbSymbolTable
 70
1
  0
BLOCK_RECORD
  5
1F
100
AcDbSymbolTableRecord
100
AcDbBlockTableRecord
  2
*Model_Space
340
22
  0
BLOCK_RECORD
  5
1B
100
AcDbSymbolTableRecord
100
AcDbBlockTableRecord
  2
*Paper_Space
340
1E
  0
BLOCK_RECORD
  5
23
100
AcDbSymbolTableRecord
100
AcDbBlockTableRecord
  2
*Paper_Space0
340
26
  0
ENDTAB
  0
ENDSEC
  0
SECTION
  2
BLOCKS
  0
BLOCK
  5
20
100
AcDbEntity
  8
0
100
AcDbBlockBegin
  2
*Model_Space
 70
0
 10
0.0
 20
0.0
 30
0.0
  3
*Model_Space
  1

  0
ENDBLK
  5
21
100
AcDbEntity
  8
0
100
AcDbBlockEnd
  0
BLOCK
  5
1C
100
AcDbEntity
 67
1
  8
0
100
AcDbBlockBegin
  2
*Paper_Space
 70
0
 10
0.0
 20
0.0
 30
0.0
  3
*Paper_Space
  1

  0
ENDBLK
  5
1D
100
AcDbEntity
 67
1
  8
0
100
AcDbBlockEnd
  0
BLOCK
  5
24
100
AcDbEntity
  8
0
100
AcDbBlockBegin
  2
*Paper_Space0
 70
0
 10
0.0
 20
0.0
 30
0.0
  3
*Paper_Space0
  1

  0
ENDBLK
  5
25
100
AcDbEntity
  8
0
100
AcDbBlockEnd
  0
ENDSEC
  0
SECTION
  2
ENTITIES
  0
CIRCLE
  5
59
100
AcDbEntity
  8
0
 62
256
370
-1
 48
1.0
  6
BYLAYER
100
AcDbCircle
 10
51.0000000132594948
 20
186.1260867740624008
 30
0.0
 40
1.50000000000002
  0
LINE
  5
5A
100
AcDbEntity
  8
0
 62
256
370
-1
 48
1.0
  6
BYLAYER
100
AcDbLine
 10
6.0000000008460921
 20
52.5000000001171898
 30
0.0
 11
12.0000000005749108
 21
52.4999999998892477
 31
0.0
  0
LINE
  5
5B
100
AcDbEntity
  8
0
 62
256
370
-1
 48
1.0
  6
BYLAYER
100
AcDbLine
 10
148.5000000012551027
 20
6.0000000000017044
 30
0.0
 11
148.5000000012545911
 21
11.9999999999890399
 31
0.0
  0
LINE
  5
5C
100
AcDbEntity
  8
0
 62
256
370
-1
 48
1.0
  6
BYLAYER
100
AcDbLine
 10
6.0000000102613056
 20
465.3000000001209173
 30
0.0
 11
6.0000000013354571
 21
480.2999999999918828
 31
0.0
  0
LINE
  5
5D
100
AcDbEntity
  8
0
 62
256
370
-1
 48
1.0
  6
BYLAYER
100
AcDbLine
 10
170.000000001253909
 20
486.2999999999734086
 30
0.0
 11
180.000000001253909
 21
486.2999999999734086
 31
0.0
  0
LINE
  5
5E
100
AcDbEntity
  8
0
 62
256
370
-1
 48
1.0
  6
BYLAYER
100
AcDbLine
 10
274.0000000012543069
 20
6.0000000000017044
 30
0.0
 11
274.000000001253909
 21
0.0000000000521581
 31
0.0
  0
CIRCLE
  5
5F
100
AcDbEntity
  8
0
 62
256
370
-1
 48
1.0
  6
BYLAYER
100
AcDbCircle
 10
144.5000009950078379
 20
386.2999999933274466
 30
0.0
 40
1.999999999999996
  0
LINE
  5
60
100
AcDbEntity
  8
0
 62
256
370
-1
 48
1.0
  6
BYLAYER
100
AcDbLine
 10
44.5000000012543282
 20
480.2999999999458964
 30
0.0
 11
44.5000000012538806
 21
474.2999999999299234
 31
0.0
  0
ARC
  5
61
100
AcDbEntity
  8
0
 62
256
370
-1
 48
1.0
  6
BYLAYER
100
AcDbCircle
 10
256.0000000012657893
 20
81.0000000000007958
 30
0.0
 40
1.999999999999996
100
AcDbArc
 50
359.9999999999915872
 51
180.0000000000025864
  0
LINE
  5
62
100
AcDbEntity
  8
0
 62
256
370
-1
 48
1.0
  6
BYLAYER
100
AcDbLine
 10
300.0000000012677788
 20
81.0000000000838014
 30
0.0
 11
294.0000000012572059
 21
81.0000000000845262
 31
0.0
  0
LINE
  5
63
100
AcDbEntity
  8
0
 62
256
370
-1
 48
1.0
  6
BYLAYER
100
AcDbLine
 10
6.0000000091665493
 20
415.3000000002026013
 30
0.0
 11
0.0000000091560928
 21
415.3000000003398213
 31
0.0
  0
CIRCLE
  5
64
100
AcDbEntity
  8
0
 62
256
370
-1
 48
1.0
  6
BYLAYER
100
AcDbCircle
 10
155.5000009950078663
 20
386.2999999928259172
 30
0.0
 40
1.999999999999996
  0
CIRCLE
  5
65
100
AcDbEntity
  8
0
 62
256
370
-1
 48
1.0
  6
BYLAYER
100
AcDbCircle
 10
55.6594728996073016
 20
40.6712465995230446
 30
0.0
 40
1.4999999938441171
  0
CIRCLE
  5
66
100
AcDbEntity
  8
0
 62
256
370
-1
 48
1.0
  6
BYLAYER
100
AcDbCircle
 10
39.0000000010653167
 20
91.0000000000007816
 30
0.0
 40
1.4999999999999929
  0
ARC
  5
67
100
AcDbEntity
  8
0
 62
256
370
-1
 48
1.0
  6
BYLAYER
100
AcDbCircle
 10
264.5000000012896066
 20
201.644060808562557
 30
0.0
 40
10.9999999999999698
100
AcDbArc
 50
97.9053405465636217
 51
82.094659453382846
  0
LINE
  5
68
100
AcDbEntity
  8
0
 62
256
370
-1
 48
1.0
  6
BYLAYER
100
AcDbLine
 10
294.0000000012547048
 20
480.2999999999918828
 30
0.0
 11
294.0000000012399823
 21
465.2999999999727834
 31
0.0
  0
LINE
  5
69
100
AcDbEntity
  8
0
 62
256
370
-1
 48
1.0
  6
BYLAYER
100
AcDbLine
 10
266.0000000013063186
 20
237.2440608085626081
 30
0.0
 11
266.0000000012947226
 21
212.4465820621807097
 31
0.0
  0
LINE
  5
6A
100
AcDbEntity
  8
0
 62
256
370
-1
 48
1.0
  6
BYLAYER
100
AcDbLine
 10
15.0000000095922807
 20
436.7999999998834824
 30
0.0
 11
17.0000000096772617
 21
436.7999999997695113
 31
0.0
  0
LINE
  5
6B
100
AcDbEntity
  8
0
 62
256
370
-1
 48
1.0
  6
BYLAYER
100
AcDbLine
 10
263.0000000012946089
 20
212.4465820621819887
 30
0.0
 11
263.0000000013062049
 21
237.2440608085626081
 31
0.0
  0
LINE
  5
6C
100
AcDbEntity
  8
0
 62
256
370
-1
 48
1.0
  6
BYLAYER
100
AcDbLine
 10
44.5000000012543282
 20
6.000000000046823
 30
0.0
 11
44.5000000012538806
 21
12.0000000000341593
 31
0.0
  0
LINE
  5
6D
100
AcDbEntity
  8
0
 62
256
370
-1
 48
1.0
  6
BYLAYER
100
AcDbLine
 10
6.0000000089372971
 20
405.3000000002023739
 30
0.0
 11
0.0000000089267505
 21
405.3000000003398782
 31
0.0
  0
LINE
  5
6E
100
AcDbEntity
  8
0
 62
256
370
-1
 48
1.0
  6
BYLAYER
100
AcDbLine
 10
6.0000000100940252
 20
337.2000000001219178
 30
0.0
 11
6.0000000089372971
 21
405.3000000002023739
 31
0.0
  0
LINE
  5
6F
100
AcDbEntity
  8
0
 62
256
370
-1
 48
1.0
  6
BYLAYER
100
AcDbLine
 10
6.0000000100940252
 20
337.2000000001219178
 30
0.0
 11
0.0000000101391556
 21
337.2000000002590241
 31
0.0
  0
LINE
  5
70
100
AcDbEntity
  8
0
 62
256
370
-1
 48
1.0
  6
BYLAYER
100
AcDbLine
 10
0.0000000099112572
 20
327.200000000340026
 30
0.0
 11
0.0000000101391556
 21
337.2000000002590241
 31
0.0
  0
LINE
  5
71
100
AcDbEntity
  8
0
 62
256
370
-1
 48
1.0
  6
BYLAYER
100
AcDbLine
 10
6.0000000099123287
 20
327.2000000002033744
 30
0.0
 11
0.0000000099112572
 21
327.200000000340026
 31
0.0
  0
LINE
  5
72
100
AcDbEntity
  8
0
 62
256
370
-1
 48
1.0
  6
BYLAYER
100
AcDbLine
 10
6.0000000094904404
 20
308.7000000002033744
 30
0.0
 11
6.0000000099123287
 21
327.2000000002033744
 31
0.0
  0
LINE
  5
73
100
AcDbEntity
  8
0
 62
256
370
-1
 48
1.0
  6
BYLAYER
100
AcDbLine
 10
6.0000000094904404
 20
308.7000000002033744
 30
0.0
 11
12.0000000095123998
 21
308.6999999999754891
 31
0.0
  0
LINE
  5
74
100
AcDbEntity
  8
0
 62
256
370
-1
 48
1.0
  6
BYLAYER
100
AcDbLine
 10
12.0000000095123998
 20
308.6999999999754891
 30
0.0
 11
12.0000000095694102
 21
311.1999999999754891
 31
0.0
  0
LINE
  5
75
100
AcDbEntity
  8
0
 62
256
370
-1
 48
1.0
  6
BYLAYER
100
AcDbLine
 10
12.0000000095694102
 20
311.1999999999754891
 30
0.0
 11
15.0000000094820294
 21
311.1999999998840281
 31
0.0
  0
LINE
  5
76
100
AcDbEntity
  8
0
 62
256
370
-1
 48
1.0
  6
BYLAYER
100
AcDbLine
 10
15.0000000094250208
 20
308.6999999998844828
 30
0.0
 11
15.0000000094820294
 21
311.1999999998840281
 31
0.0
  0
LINE
  5
77
100
AcDbEntity
  8
0
 62
256
370
-1
 48
1.0
  6
BYLAYER
100
AcDbLine
 10
15.0000000094250208
 20
308.6999999998844828
 30
0.0
 11
17.0000000095099999
 21
308.6999999997705117
 31
0.0
  0
LINE
  5
78
100
AcDbEntity
  8
0
 62
256
370
-1
 48
1.0
  6
BYLAYER
100
AcDbLine
 10
17.0000000095099999
 20
308.6999999997705117
 30
0.0
 11
17.000000009441731
 21
305.6999999997702275
 31
0.0
  0
LINE
  5
79
100
AcDbEntity
  8
0
 62
256
370
-1
 48
1.0
  6
BYLAYER
100
AcDbLine
 10
15.0000000093564907
 20
305.6999999998838007
 30
0.0
 11
17.000000009441731
 21
305.6999999997702275
 31
0.0
  0
LINE
  5
7A
100
AcDbEntity
  8
0
 62
256
370
-1
 48
1.0
  6
BYLAYER
100
AcDbLine
 10
15.0000000093564907
 20
305.6999999998838007
 30
0.0
 11
15.0000000092994608
 21
303.1999999998840849
 31
0.0
  0
LINE
  5
7B
100
AcDbEntity
  8
0
 62
256
370
-1
 48
1.0
  6
BYLAYER
100
AcDbLine
 10
12.0000000093864703
 20
303.1999999999753186
 30
0.0
 11
15.0000000092994608
 21
303.1999999998840849
 31
0.0
  0
LINE
  5
7C
100
AcDbEntity
  8
0
 62
256
370
-1
 48
1.0
  6
BYLAYER
100
AcDbLine
 10
12.0000000094435002
 20
305.6999999999749207
 30
0.0
 11
12.0000000093864703
 21
303.1999999999753186
 31
0.0
  0
LINE
  5
7D
100
AcDbEntity
  8
0
 62
256
370
-1
 48
1.0
  6
BYLAYER
100
AcDbLine
 10
6.0000000094221742
 20
305.7000000002029196
 30
0.0
 11
12.0000000094435002
 21
305.6999999999749207
 31
0.0
  0
LINE
  5
7E
100
AcDbEntity
  8
0
 62
256
370
-1
 48
1.0
  6
BYLAYER
100
AcDbLine
 10
6.000000008999292
 20
287.2000000002037154
 30
0.0
 11
6.0000000094221742
 21
305.7000000002029196
 31
0.0
  0
LINE
  5
7F
100
AcDbEntity
  8
0
 62
256
370
-1
 48
1.0
  6
BYLAYER
100
AcDbLine
 10
6.000000008999292
 20
287.2000000002037154
 30
0.0
 11
0.0000000089888349
 21
287.2000000003408218
 31
0.0
  0
LINE
  5
80
100
AcDbEntity
  8
0
 62
256
370
-1
 48
1.0
  6
BYLAYER
100
AcDbLine
 10
0.0000000087594927
 20
277.2000000003408786
 30
0.0
 11
0.0000000089888349
 21
287.2000000003408218
 31
0.0
  0
LINE
  5
81
100
AcDbEntity
  8
0
 62
256
370
-1
 48
1.0
  6
BYLAYER
100
AcDbLine
 10
6.0000000087700167
 20
277.2000000002033744
 30
0.0
 11
0.0000000087594927
 21
277.2000000003408786
 31
0.0
  0
LINE
  5
82
100
AcDbEntity
  8
0
 62
256
370
-1
 48
1.0
  6
BYLAYER
100
AcDbLine
 10
6.0000000001562146
 20
209.0999999998740861
 30
0.0
 11
6.0000000087700167
 21
277.2000000002033744
 31
0.0
  0
LINE
  5
83
100
AcDbEntity
  8
0
 62
256
370
-1
 48
1.0
  6
BYLAYER
100
AcDbLine
 10
6.0000000001562146
 20
209.0999999998740861
 30
0.0
 11
0.0000000002013682
 21
209.1000000000113062
 31
0.0
  0
LINE
  5
84
100
AcDbEntity
  8
0
 62
256
370
-1
 48
1.0
  6
BYLAYER
100
AcDbLine
 10
-0.0000000000265528
 20
199.1000000000921943
 30
0.0
 11
0.0000000002013682
 21
209.1000000000113062
 31
0.0
  0
LINE
  5
85
100
AcDbEntity
  8
0
 62
256
370
-1
 48
1.0
  6
BYLAYER
100
AcDbLine
 10
5.999999999974519
 20
199.0999999999555996
 30
0.0
 11
-0.0000000000265528
 21
199.1000000000921943
 31
0.0
  0
LINE
  5
86
100
AcDbEntity
  8
0
 62
256
370
-1
 48
1.0
  6
BYLAYER
100
AcDbLine
 10
5.9999999995526299
 20
180.5999999999555996
 30
0.0
 11
5.999999999974519
 21
199.0999999999555996
 31
0.0
  0
LINE
  5
87
100
AcDbEntity
  8
0
 62
256
370
-1
 48
1.0
  6
BYLAYER
100
AcDbLine
 10
5.9999999995526299
 20
180.5999999999555996
 30
0.0
 11
11.9999999992814494
 21
180.5999999997276859
 31
0.0
  0
LINE
  5
88
100
AcDbEntity
  8
0
 62
256
370
-1
 48
1.0
  6
BYLAYER
100
AcDbLine
 10
11.9999999992814494
 20
180.5999999997276859
 30
0.0
 11
11.9999999993384794
 21
183.0999999997276859
 31
0.0
  0
LINE
  5
89
100
AcDbEntity
  8
0
 62
256
370
-1
 48
1.0
  6
BYLAYER
100
AcDbLine
 10
11.9999999993384794
 20
183.0999999997276859
 30
0.0
 11
14.9999999993381206
 21
183.0999999996361964
 31
0.0
  0
LINE
  5
8A
100
AcDbEntity
  8
0
 62
256
370
-1
 48
1.0
  6
BYLAYER
100
AcDbLine
 10
14.9999999992811102
 20
180.599999999636708
 30
0.0
 11
14.9999999993381206
 21
183.0999999996361964
 31
0.0
  0
LINE
  5
8B
100
AcDbEntity
  8
0
 62
256
370
-1
 48
1.0
  6
BYLAYER
100
AcDbLine
 10
14.9999999992811102
 20
180.599999999636708
 30
0.0
 11
16.9999999992827
 21
180.5999999995227085
 31
0.0
  0
LINE
  5
8C
100
AcDbEntity
  8
0
 62
256
370
-1
 48
1.0
  6
BYLAYER
100
AcDbLine
 10
16.9999999992827
 20
180.5999999995227085
 30
0.0
 11
16.9999999992144417
 21
177.5999999995225096
 31
0.0
  0
LINE
  5
8D
100
AcDbEntity
  8
0
 62
256
370
-1
 48
1.0
  6
BYLAYER
100
AcDbLine
 10
14.9999999992125694
 20
177.5999999996359975
 30
0.0
 11
16.9999999992144417
 21
177.5999999995225096
 31
0.0
  0
LINE
  5
8E
100
AcDbEntity
  8
0
 62
256
370
-1
 48
1.0
  6
BYLAYER
100
AcDbLine
 10
14.9999999992125694
 20
177.5999999996359975
 30
0.0
 11
14.9999999991555395
 21
175.0999999996363954
 31
0.0
  0
LINE
  5
8F
100
AcDbEntity
  8
0
 62
256
370
-1
 48
1.0
  6
BYLAYER
100
AcDbLine
 10
11.9999999991555395
 20
175.099999999727487
 30
0.0
 11
14.9999999991555395
 21
175.0999999996363954
 31
0.0
  0
LINE
  5
90
100
AcDbEntity
  8
0
 62
256
370
-1
 48
1.0
  6
BYLAYER
100
AcDbLine
 10
11.9999999992125801
 20
177.5999999997270891
 30
0.0
 11
11.9999999991555395
 21
175.099999999727487
 31
0.0
  0
LINE
  5
91
100
AcDbEntity
  8
0
 62
256
370
-1
 48
1.0
  6
BYLAYER
100
AcDbLine
 10
5.9999999994843636
 20
177.599999999955088
 30
0.0
 11
11.9999999992125801
 21
177.5999999997270891
 31
0.0
  0
LINE
  5
92
100
AcDbEntity
  8
0
 62
256
370
-1
 48
1.0
  6
BYLAYER
100
AcDbLine
 10
5.9999999990614592
 20
159.0999999999557986
 30
0.0
 11
5.9999999994843636
 21
177.599999999955088
 31
0.0
  0
LINE
  5
93
100
AcDbEntity
  8
0
 62
256
370
-1
 48
1.0
  6
BYLAYER
100
AcDbLine
 10
5.9999999990614592
 20
159.0999999999557986
 30
0.0
 11
-0.0000000009489977
 21
159.1000000000929901
 31
0.0
  0
LINE
  5
94
100
AcDbEntity
  8
0
 62
256
370
-1
 48
1.0
  6
BYLAYER
100
AcDbLine
 10
-0.0000000011783399
 20
149.1000000000931038
 30
0.0
 11
-0.0000000009489977
 21
159.1000000000929901
 31
0.0
  0
LINE
  5
95
100
AcDbEntity
  8
0
 62
256
370
-1
 48
1.0
  6
BYLAYER
100
AcDbLine
 10
5.999999998832207
 20
149.0999999999555996
 30
0.0
 11
-0.0000000011783399
 21
149.1000000000931038
 31
0.0
  0
LINE
  5
96
100
AcDbEntity
  8
0
 62
256
370
-1
 48
1.0
  6
BYLAYER
100
AcDbLine
 10
6.0000000014496777
 20
81.0000000000356266
 30
0.0
 11
5.999999998832207
 21
149.0999999999555996
 31
0.0
  0
LINE
  5
97
100
AcDbEntity
  8
0
 62
256
370
-1
 48
1.0
  6
BYLAYER
100
AcDbLine
 10
6.0000000014496777
 20
81.0000000000356266
 30
0.0
 11
0.0000000014948078
 21
81.0000000001727898
 31
0.0
  0
LINE
  5
98
100
AcDbEntity
  8
0
 62
256
370
-1
 48
1.0
  6
BYLAYER
100
AcDbLine
 10
0.0000000012669094
 20
71.0000000002537632
 30
0.0
 11
0.0000000014948078
 21
81.0000000001727898
 31
0.0
  0
LINE
  5
99
100
AcDbEntity
  8
0
 62
256
370
-1
 48
1.0
  6
BYLAYER
100
AcDbLine
 10
6.0000000012679813
 20
71.0000000001171401
 30
0.0
 11
0.0000000012669094
 21
71.0000000002537632
 31
0.0
  0
LINE
  5
9A
100
AcDbEntity
  8
0
 62
256
370
-1
 48
1.0
  6
BYLAYER
100
AcDbLine
 10
6.0000000008460921
 20
52.5000000001171898
 30
0.0
 11
6.0000000012679813
 21
71.0000000001171401
 31
0.0
  0
LINE
  5
9B
100
AcDbEntity
  8
0
 62
256
370
-1
 48
1.0
  6
BYLAYER
100
AcDbLine
 10
12.0000000005749108
 20
52.4999999998892477
 30
0.0
 11
12.0000000006319407
 21
54.9999999998892193
 31
0.0
  0
LINE
  5
9C
100
AcDbEntity
  8
0
 62
256
370
-1
 48
1.0
  6
BYLAYER
100
AcDbLine
 10
12.0000000006319407
 20
54.9999999998892193
 30
0.0
 11
15.0000000006315801
 21
54.9999999997977227
 31
0.0
  0
LINE
  5
9D
100
AcDbEntity
  8
0
 62
256
370
-1
 48
1.0
  6
BYLAYER
100
AcDbLine
 10
15.0000000005745697
 20
52.4999999997982769
 30
0.0
 11
15.0000000006315801
 21
54.9999999997977227
 31
0.0
  0
LINE
  5
9E
100
AcDbEntity
  8
0
 62
256
370
-1
 48
1.0
  6
BYLAYER
100
AcDbLine
 10
15.0000000005745697
 20
52.4999999997982769
 30
0.0
 11
17.0000000005761684
 21
52.4999999996842277
 31
0.0
  0
LINE
  5
9F
100
AcDbEntity
  8
0
 62
256
370
-1
 48
1.0
  6
BYLAYER
100
AcDbLine
 10
17.0000000005761684
 20
52.4999999996842277
 30
0.0
 11
17.0000000005078995
 21
49.4999999996840074
 31
0.0
  0
LINE
  5
A0
100
AcDbEntity
  8
0
 62
256
370
-1
 48
1.0
  6
BYLAYER
100
AcDbLine
 10
15.0000000005060308
 20
49.4999999997975166
 30
0.0
 11
17.0000000005078995
 21
49.4999999996840074
 31
0.0
  0
LINE
  5
A1
100
AcDbEntity
  8
0
 62
256
370
-1
 48
1.0
  6
BYLAYER
100
AcDbLine
 10
15.0000000005060308
 20
49.4999999997975166
 30
0.0
 11
15.0000000004490008
 21
46.9999999997979074
 31
0.0
  0
LINE
  5
A2
100
AcDbEntity
  8
0
 62
256
370
-1
 48
1.0
  6
BYLAYER
100
AcDbLine
 10
12.0000000004490097
 20
46.999999999889063
 30
0.0
 11
15.0000000004490008
 21
46.9999999997979074
 31
0.0
  0
LINE
  5
A3
100
AcDbEntity
  8
0
 62
256
370
-1
 48
1.0
  6
BYLAYER
100
AcDbLine
 10
12.0000000005060095
 20
49.4999999998886722
 30
0.0
 11
12.0000000004490097
 21
46.999999999889063
 31
0.0
  0
LINE
  5
A4
100
AcDbEntity
  8
0
 62
256
370
-1
 48
1.0
  6
BYLAYER
100
AcDbLine
 10
6.0000000007778258
 20
49.5000000001166072
 30
0.0
 11
12.0000000005060095
 21
49.4999999998886722
 31
0.0
  0
LINE
  5
A5
100
AcDbEntity
  8
0
 62
256
370
-1
 48
1.0
  6
BYLAYER
100
AcDbLine
 10
6.0000000003549214
 20
31.0000000001173888
 30
0.0
 11
6.0000000007778258
 21
49.5000000001166072
 31
0.0
  0
LINE
  5
A6
100
AcDbEntity
  8
0
 62
256
370
-1
 48
1.0
  6
BYLAYER
100
AcDbLine
 10
6.0000000003549214
 20
31.0000000001173888
 30
0.0
 11
0.0000000003444645
 21
31.0000000002545484
 31
0.0
  0
LINE
  5
A7
100
AcDbEntity
  8
0
 62
256
370
-1
 48
1.0
  6
BYLAYER
100
AcDbLine
 10
0.0000000001151223
 20
21.0000000002546585
 30
0.0
 11
0.0000000003444645
 21
31.0000000002545484
 31
0.0
  0
LINE
  5
A8
100
AcDbEntity
  8
0
 62
256
370
-1
 48
1.0
  6
BYLAYER
100
AcDbLine
 10
6.0000000001256693
 20
21.0000000001171401
 30
0.0
 11
0.0000000001151223
 21
21.0000000002546585
 31
0.0
  0
LINE
  5
A9
100
AcDbEntity
  8
0
 62
256
370
-1
 48
1.0
  6
BYLAYER
100
AcDbLine
 10
6.0000000013354571
 20
6.0000000000004414
 30
0.0
 11
6.0000000001256693
 21
21.0000000001171401
 31
0.0
  0
LINE
  5
AA
100
AcDbEntity
  8
0
 62
256
370
-1
 48
1.0
  6
BYLAYER
100
AcDbLine
 10
16.0000000013356214
 20
5.9999999999995381
 30
0.0
 11
6.0000000013354571
 21
6.0000000000004414
 31
0.0
  0
LINE
  5
AB
100
AcDbEntity
  8
0
 62
256
370
-1
 48
1.0
  6
BYLAYER
100
AcDbLine
 10
16.000000001335529
 20
0.0000000000110091
 30
0.0
 11
16.0000000013356214
 21
5.9999999999995381
 31
0.0
  0
LINE
  5
AC
100
AcDbEntity
  8
0
 62
256
370
-1
 48
1.0
  6
BYLAYER
100
AcDbLine
 10
16.000000001335529
 20
0.0000000000110091
 30
0.0
 11
26.000000001255021
 21
0.000000000012453
 31
0.0
  0
LINE
  5
AD
100
AcDbEntity
  8
0
 62
256
370
-1
 48
1.0
  6
BYLAYER
100
AcDbLine
 10
26.000000001254751
 20
6.0000000000473648
 30
0.0
 11
26.000000001255021
 21
0.000000000012453
 31
0.0
  0
LINE
  5
AE
100
AcDbEntity
  8
0
 62
256
370
-1
 48
1.0
  6
BYLAYER
100
AcDbLine
 10
44.5000000012543282
 20
6.000000000046823
 30
0.0
 11
26.000000001254751
 21
6.0000000000473648
 31
0.0
  0
LINE
  5
AF
100
AcDbEntity
  8
0
 62
256
370
-1
 48
1.0
  6
BYLAYER
100
AcDbLine
 10
44.5000000012538806
 20
12.0000000000341593
 30
0.0
 11
42.0000000012538166
 21
12.0000000000339799
 31
0.0
  0
LINE
  5
B0
100
AcDbEntity
  8
0
 62
256
370
-1
 48
1.0
  6
BYLAYER
100
AcDbLine
 10
42.0000000012538166
 20
12.0000000000339799
 30
0.0
 11
42.0000000012536319
 21
15.00000000003911
 31
0.0
  0
LINE
  5
B1
100
AcDbEntity
  8
0
 62
256
370
-1
 48
1.0
  6
BYLAYER
100
AcDbLine
 10
44.5000000012537029
 20
15.00000000003911
 30
0.0
 11
42.0000000012536319
 21
15.00000000003911
 31
0.0
  0
LINE
  5
B2
100
AcDbEntity
  8
0
 62
256
370
-1
 48
1.0
  6
BYLAYER
100
AcDbLine
 10
44.5000000012537029
 20
15.00000000003911
 30
0.0
 11
44.5000000012534329
 21
16.9999999999380194
 31
0.0
  0
LINE
  5
B3
100
AcDbEntity
  8
0
 62
256
370
-1
 48
1.0
  6
BYLAYER
100
AcDbLine
 10
47.5000000012537384
 20
16.9999999999380194
 30
0.0
 11
44.5000000012534329
 21
16.9999999999380194
 31
0.0
  0
LINE
  5
B4
100
AcDbEntity
  8
0
 62
256
370
-1
 48
1.0
  6
BYLAYER
100
AcDbLine
 10
47.5000000012537384
 20
15.00000000003911
 30
0.0
 11
47.5000000012537384
 21
16.9999999999380194
 31
0.0
  0
LINE
  5
B5
100
AcDbEntity
  8
0
 62
256
370
-1
 48
1.0
  6
BYLAYER
100
AcDbLine
 10
47.5000000012537384
 20
15.00000000003911
 30
0.0
 11
50.00000000125371
 21
15.0000000000392895
 31
0.0
  0
LINE
  5
B6
100
AcDbEntity
  8
0
 62
256
370
-1
 48
1.0
  6
BYLAYER
100
AcDbLine
 10
50.0000000012538877
 20
12.0000000000338005
 30
0.0
 11
50.00000000125371
 21
15.0000000000392895
 31
0.0
  0
LINE
  5
B7
100
AcDbEntity
  8
0
 62
256
370
-1
 48
1.0
  6
BYLAYER
100
AcDbLine
 10
47.5000000012539232
 20
12.0000000000338005
 30
0.0
 11
50.0000000012538877
 21
12.0000000000338005
 31
0.0
  0
LINE
  5
B8
100
AcDbEntity
  8
0
 62
256
370
-1
 48
1.0
  6
BYLAYER
100
AcDbLine
 10
47.5000000012543708
 20
6.000000000046823
 30
0.0
 11
47.5000000012539232
 21
12.0000000000338005
 31
0.0
  0
LINE
  5
B9
100
AcDbEntity
  8
0
 62
256
370
-1
 48
1.0
  6
BYLAYER
100
AcDbLine
 10
66.0000000012538806
 20
6.0000000000462812
 30
0.0
 11
47.5000000012543708
 21
6.000000000046823
 31
0.0
  0
LINE
  5
BA
100
AcDbEntity
  8
0
 62
256
370
-1
 48
1.0
  6
BYLAYER
100
AcDbLine
 10
66.0000000012538806
 20
6.0000000000462812
 30
0.0
 11
66.0000000012535253
 21
0.0000000000137163
 31
0.0
  0
LINE
  5
BB
100
AcDbEntity
  8
0
 62
256
370
-1
 48
1.0
  6
BYLAYER
100
AcDbLine
 10
76.0000000012535111
 20
0.0000000000137163
 30
0.0
 11
66.0000000012535253
 21
0.0000000000137163
 31
0.0
  0
LINE
  5
BC
100
AcDbEntity
  8
0
 62
256
370
-1
 48
1.0
  6
BYLAYER
100
AcDbLine
 10
76.0000000012538663
 20
6.0000000000462812
 30
0.0
 11
76.0000000012535111
 21
0.0000000000137163
 31
0.0
  0
LINE
  5
BD
100
AcDbEntity
  8
0
 62
256
370
-1
 48
1.0
  6
BYLAYER
100
AcDbLine
 10
120.0000000012544064
 20
6.0000000000276934
 30
0.0
 11
76.0000000012538663
 21
6.0000000000462812
 31
0.0
  0
LINE
  5
BE
100
AcDbEntity
  8
0
 62
256
370
-1
 48
1.0
  6
BYLAYER
100
AcDbLine
 10
120.0000000012544064
 20
6.0000000000276934
 30
0.0
 11
120.0000000012538948
 21
0.0000000000517971
 31
0.0
  0
LINE
  5
BF
100
AcDbEntity
  8
0
 62
256
370
-1
 48
1.0
  6
BYLAYER
100
AcDbLine
 10
130.000000001253909
 20
0.0000000000517971
 30
0.0
 11
120.0000000012538948
 21
0.0000000000517971
 31
0.0
  0
LINE
  5
C0
100
AcDbEntity
  8
0
 62
256
370
-1
 48
1.0
  6
BYLAYER
100
AcDbLine
 10
130.0000000012543921
 20
6.0000000000276934
 30
0.0
 11
130.000000001253909
 21
0.0000000000517971
 31
0.0
  0
LINE
  5
C1
100
AcDbEntity
  8
0
 62
256
370
-1
 48
1.0
  6
BYLAYER
100
AcDbLine
 10
148.5000000012551027
 20
6.0000000000017044
 30
0.0
 11
130.0000000012543921
 21
6.0000000000276934
 31
0.0
  0
LINE
  5
C2
100
AcDbEntity
  8
0
 62
256
370
-1
 48
1.0
  6
BYLAYER
100
AcDbLine
 10
148.5000000012545911
 20
11.9999999999890399
 30
0.0
 11
146.0000000012545911
 21
11.9999999999890399
 31
0.0
  0
LINE
  5
C3
100
AcDbEntity
  8
0
 62
256
370
-1
 48
1.0
  6
BYLAYER
100
AcDbLine
 10
146.0000000012545911
 20
11.9999999999890399
 30
0.0
 11
146.0000000012543921
 21
14.9999999999943494
 31
0.0
  0
LINE
  5
C4
100
AcDbEntity
  8
0
 62
256
370
-1
 48
1.0
  6
BYLAYER
100
AcDbLine
 10
148.5000000012543921
 20
14.9999999999943494
 30
0.0
 11
146.0000000012543921
 21
14.9999999999943494
 31
0.0
  0
LINE
  5
C5
100
AcDbEntity
  8
0
 62
256
370
-1
 48
1.0
  6
BYLAYER
100
AcDbLine
 10
148.5000000012543921
 20
14.9999999999943494
 30
0.0
 11
148.5000000012541932
 21
16.9999999999203411
 31
0.0
  0
LINE
  5
C6
100
AcDbEntity
  8
0
 62
256
370
-1
 48
1.0
  6
BYLAYER
100
AcDbLine
 10
148.5000000012541932
 20
16.9999999999203411
 30
0.0
 11
151.5000000012543069
 21
16.9999999999205187
 31
0.0
  0
LINE
  5
C7
100
AcDbEntity
  8
0
 62
256
370
-1
 48
1.0
  6
BYLAYER
100
AcDbLine
 10
151.5000000012543921
 20
14.9999999999943494
 30
0.0
 11
151.5000000012543069
 21
16.9999999999205187
 31
0.0
  0
LINE
  5
C8
100
AcDbEntity
  8
0
 62
256
370
-1
 48
1.0
  6
BYLAYER
100
AcDbLine
 10
151.5000000012543921
 20
14.9999999999943494
 30
0.0
 11
154.0000000012545058
 21
14.9999999999943494
 31
0.0
  0
LINE
  5
C9
100
AcDbEntity
  8
0
 62
256
370
-1
 48
1.0
  6
BYLAYER
100
AcDbLine
 10
154.0000000012547048
 20
11.9999999999890399
 30
0.0
 11
154.0000000012545058
 21
14.9999999999943494
 31
0.0
  0
LINE
  5
CA
100
AcDbEntity
  8
0
 62
256
370
-1
 48
1.0
  6
BYLAYER
100
AcDbLine
 10
151.5000000012545911
 20
11.9999999999888605
 30
0.0
 11
154.0000000012547048
 21
11.9999999999890399
 31
0.0
  0
LINE
  5
CB
100
AcDbEntity
  8
0
 62
256
370
-1
 48
1.0
  6
BYLAYER
100
AcDbLine
 10
151.500000001255188
 20
6.0000000000018838
 30
0.0
 11
151.5000000012545911
 21
11.9999999999888605
 31
0.0
  0
LINE
  5
CC
100
AcDbEntity
  8
0
 62
256
370
-1
 48
1.0
  6
BYLAYER
100
AcDbLine
 10
170.0000000012543921
 20
6.0000000000210143
 30
0.0
 11
151.500000001255188
 21
6.0000000000018838
 31
0.0
  0
LINE
  5
CD
100
AcDbEntity
  8
0
 62
256
370
-1
 48
1.0
  6
BYLAYER
100
AcDbLine
 10
170.0000000012543921
 20
6.0000000000210143
 30
0.0
 11
170.0000000012537953
 21
0.0000000000137163
 31
0.0
  0
LINE
  5
CE
100
AcDbEntity
  8
0
 62
256
370
-1
 48
1.0
  6
BYLAYER
100
AcDbLine
 10
180.0000000012537953
 20
0.0000000000137163
 30
0.0
 11
170.0000000012537953
 21
0.0000000000137163
 31
0.0
  0
LINE
  5
CF
100
AcDbEntity
  8
0
 62
256
370
-1
 48
1.0
  6
BYLAYER
100
AcDbLine
 10
180.0000000012543921
 20
6.0000000000210143
 30
0.0
 11
180.0000000012537953
 21
0.0000000000137163
 31
0.0
  0
LINE
  5
D0
100
AcDbEntity
  8
0
 62
256
370
-1
 48
1.0
  6
BYLAYER
100
AcDbLine
 10
224.0000000012543069
 20
6.0000000000026059
 30
0.0
 11
180.0000000012543921
 21
6.0000000000210143
 31
0.0
  0
LINE
  5
D1
100
AcDbEntity
  8
0
 62
256
370
-1
 48
1.0
  6
BYLAYER
100
AcDbLine
 10
224.0000000012543069
 20
6.0000000000026059
 30
0.0
 11
224.000000001253909
 21
0.000000000012092
 31
0.0
  0
LINE
  5
D2
100
AcDbEntity
  8
0
 62
256
370
-1
 48
1.0
  6
BYLAYER
100
AcDbLine
 10
234.0000000012537953
 20
0.000000000012092
 30
0.0
 11
224.000000001253909
 21
0.000000000012092
 31
0.0
  0
LINE
  5
D3
100
AcDbEntity
  8
0
 62
256
370
-1
 48
1.0
  6
BYLAYER
100
AcDbLine
 10
234.0000000012543069
 20
6.0000000000026059
 30
0.0
 11
234.0000000012537953
 21
0.000000000012092
 31
0.0
  0
LINE
  5
D4
100
AcDbEntity
  8
0
 62
256
370
-1
 48
1.0
  6
BYLAYER
100
AcDbLine
 10
252.5000000012543069
 20
6.0000000000017044
 30
0.0
 11
234.0000000012543069
 21
6.0000000000026059
 31
0.0
  0
LINE
  5
D5
100
AcDbEntity
  8
0
 62
256
370
-1
 48
1.0
  6
BYLAYER
100
AcDbLine
 10
252.5000000012543069
 20
6.0000000000017044
 30
0.0
 11
252.50000000125371
 21
11.9999999999890399
 31
0.0
  0
LINE
  5
D6
100
AcDbEntity
  8
0
 62
256
370
-1
 48
1.0
  6
BYLAYER
100
AcDbLine
 10
252.50000000125371
 20
11.9999999999890399
 30
0.0
 11
250.0000000012537953
 21
11.9999999999890399
 31
0.0
  0
LINE
  5
D7
100
AcDbEntity
  8
0
 62
256
370
-1
 48
1.0
  6
BYLAYER
100
AcDbLine
 10
250.0000000012537953
 20
11.9999999999890399
 30
0.0
 11
250.0000000012535963
 21
14.9999999999943494
 31
0.0
  0
LINE
  5
D8
100
AcDbEntity
  8
0
 62
256
370
-1
 48
1.0
  6
BYLAYER
100
AcDbLine
 10
252.5000000012535963
 20
14.9999999999943494
 30
0.0
 11
250.0000000012535963
 21
14.9999999999943494
 31
0.0
  0
LINE
  5
D9
100
AcDbEntity
  8
0
 62
256
370
-1
 48
1.0
  6
BYLAYER
100
AcDbLine
 10
252.5000000012535963
 20
14.9999999999943494
 30
0.0
 11
252.5000000012533974
 21
16.9999999999235811
 31
0.0
  0
LINE
  5
DA
100
AcDbEntity
  8
0
 62
256
370
-1
 48
1.0
  6
BYLAYER
100
AcDbLine
 10
252.5000000012533974
 20
16.9999999999235811
 30
0.0
 11
255.5000000012533974
 21
16.9999999999237694
 31
0.0
  0
LINE
  5
DB
100
AcDbEntity
  8
0
 62
256
370
-1
 48
1.0
  6
BYLAYER
100
AcDbLine
 10
255.5000000012535963
 20
14.9999999999943494
 30
0.0
 11
255.5000000012533974
 21
16.9999999999237694
 31
0.0
  0
LINE
  5
DC
100
AcDbEntity
  8
0
 62
256
370
-1
 48
1.0
  6
BYLAYER
100
AcDbLine
 10
255.5000000012535963
 20
14.9999999999943494
 30
0.0
 11
258.0000000012536816
 21
14.9999999999943494
 31
0.0
  0
LINE
  5
DD
100
AcDbEntity
  8
0
 62
256
370
-1
 48
1.0
  6
BYLAYER
100
AcDbLine
 10
258.000000001253909
 20
11.9999999999890399
 30
0.0
 11
258.0000000012536816
 21
14.9999999999943494
 31
0.0
  0
LINE
  5
DE
100
AcDbEntity
  8
0
 62
256
370
-1
 48
1.0
  6
BYLAYER
100
AcDbLine
 10
255.5000000012537953
 20
11.9999999999888605
 30
0.0
 11
258.000000001253909
 21
11.9999999999890399
 31
0.0
  0
LINE
  5
DF
100
AcDbEntity
  8
0
 62
256
370
-1
 48
1.0
  6
BYLAYER
100
AcDbLine
 10
255.5000000012543069
 20
6.0000000000018838
 30
0.0
 11
255.5000000012537953
 21
11.9999999999888605
 31
0.0
  0
LINE
  5
E0
100
AcDbEntity
  8
0
 62
256
370
-1
 48
1.0
  6
BYLAYER
100
AcDbLine
 10
274.0000000012543069
 20
6.0000000000017044
 30
0.0
 11
255.5000000012543069
 21
6.0000000000018838
 31
0.0
  0
LINE
  5
E1
100
AcDbEntity
  8
0
 62
256
370
-1
 48
1.0
  6
BYLAYER
100
AcDbLine
 10
284.0000000012537953
 20
0.0000000000521581
 30
0.0
 11
274.000000001253909
 21
0.0000000000521581
 31
0.0
  0
LINE
  5
E2
100
AcDbEntity
  8
0
 62
256
370
-1
 48
1.0
  6
BYLAYER
100
AcDbLine
 10
284.0000000012543069
 20
6.0000000000017044
 30
0.0
 11
284.0000000012537953
 21
0.0000000000521581
 31
0.0
  0
LINE
  5
E3
100
AcDbEntity
  8
0
 62
256
370
-1
 48
1.0
  6
BYLAYER
100
AcDbLine
 10
294.0000000012577175
 20
6.0000000000004414
 30
0.0
 11
284.0000000012543069
 21
6.0000000000017044
 31
0.0
  0
LINE
  5
E4
100
AcDbEntity
  8
0
 62
256
370
-1
 48
1.0
  6
BYLAYER
100
AcDbLine
 10
294.0000000013009185
 20
21.0000000001660396
 30
0.0
 11
294.0000000012577175
 21
6.0000000000004414
 31
0.0
  0
LINE
  5
E5
100
AcDbEntity
  8
0
 62
256
370
-1
 48
1.0
  6
BYLAYER
100
AcDbLine
 10
294.0000000013009185
 20
21.0000000001660396
 30
0.0
 11
300.0000000012557848
 21
21.0000000001654996
 31
0.0
  0
LINE
  5
E6
100
AcDbEntity
  8
0
 62
256
370
-1
 48
1.0
  6
BYLAYER
100
AcDbLine
 10
300.0000000012557848
 20
31.0000000000845404
 30
0.0
 11
300.0000000012557848
 21
21.0000000001654996
 31
0.0
  0
LINE
  5
E7
100
AcDbEntity
  8
0
 62
256
370
-1
 48
1.0
  6
BYLAYER
100
AcDbLine
 10
294.0000000012547048
 20
31.0000000000845404
 30
0.0
 11
300.0000000012557848
 21
31.0000000000845404
 31
0.0
  0
LINE
  5
E8
100
AcDbEntity
  8
0
 62
256
370
-1
 48
1.0
  6
BYLAYER
100
AcDbLine
 10
294.0000000012548753
 20
49.5000000000844835
 30
0.0
 11
294.0000000012547048
 21
31.0000000000845404
 31
0.0
  0
LINE
  5
E9
100
AcDbEntity
  8
0
 62
256
370
-1
 48
1.0
  6
BYLAYER
100
AcDbLine
 10
294.0000000012548753
 20
49.5000000000844835
 30
0.0
 11
288.0000000012369128
 21
49.5000000000842988
 31
0.0
  0
LINE
  5
EA
100
AcDbEntity
  8
0
 62
256
370
-1
 48
1.0
  6
BYLAYER
100
AcDbLine
 10
288.0000000012369128
 20
49.5000000000842988
 30
0.0
 11
288.0000000012369128
 21
47.0000000000844977
 31
0.0
  0
LINE
  5
EB
100
AcDbEntity
  8
0
 62
256
370
-1
 48
1.0
  6
BYLAYER
100
AcDbLine
 10
288.0000000012369128
 20
47.0000000000844977
 30
0.0
 11
285.0000000011705197
 21
47.0000000000846896
 31
0.0
  0
LINE
  5
EC
100
AcDbEntity
  8
0
 62
256
370
-1
 48
1.0
  6
BYLAYER
100
AcDbLine
 10
285.0000000011705197
 20
49.5000000000842988
 30
0.0
 11
285.0000000011705197
 21
47.0000000000846896
 31
0.0
  0
LINE
  5
ED
100
AcDbEntity
  8
0
 62
256
370
-1
 48
1.0
  6
BYLAYER
100
AcDbLine
 10
285.0000000011705197
 20
49.5000000000842988
 30
0.0
 11
283.0000000013670842
 21
49.5000000000842988
 31
0.0
  0
LINE
  5
EE
100
AcDbEntity
  8
0
 62
256
370
-1
 48
1.0
  6
BYLAYER
100
AcDbLine
 10
283.0000000013670842
 20
49.5000000000842988
 30
0.0
 11
283.0000000013670274
 21
52.500000000084512
 31
0.0
  0
LINE
  5
EF
100
AcDbEntity
  8
0
 62
256
370
-1
 48
1.0
  6
BYLAYER
100
AcDbLine
 10
285.0000000011705765
 20
52.5000000000848672
 30
0.0
 11
283.0000000013670274
 21
52.500000000084512
 31
0.0
  0
LINE
  5
F0
100
AcDbEntity
  8
0
 62
256
370
-1
 48
1.0
  6
BYLAYER
100
AcDbLine
 10
285.0000000011705765
 20
52.5000000000848672
 30
0.0
 11
285.0000000011705765
 21
55.0000000000844835
 31
0.0
  0
LINE
  5
F1
100
AcDbEntity
  8
0
 62
256
370
-1
 48
1.0
  6
BYLAYER
100
AcDbLine
 10
288.0000000012374812
 20
55.0000000000844835
 30
0.0
 11
285.0000000011705765
 21
55.0000000000844835
 31
0.0
  0
LINE
  5
F2
100
AcDbEntity
  8
0
 62
256
370
-1
 48
1.0
  6
BYLAYER
100
AcDbLine
 10
288.0000000012374812
 20
52.5000000000848672
 30
0.0
 11
288.0000000012374812
 21
55.0000000000844835
 31
0.0
  0
LINE
  5
F3
100
AcDbEntity
  8
0
 62
256
370
-1
 48
1.0
  6
BYLAYER
100
AcDbLine
 10
294.0000000012548185
 20
52.500000000085052
 30
0.0
 11
288.0000000012374812
 21
52.5000000000848672
 31
0.0
  0
LINE
  5
F4
100
AcDbEntity
  8
0
 62
256
370
-1
 48
1.0
  6
BYLAYER
100
AcDbLine
 10
294.0000000012560122
 20
71.0000000000842704
 30
0.0
 11
294.0000000012548185
 21
52.500000000085052
 31
0.0
  0
LINE
  5
F5
100
AcDbEntity
  8
0
 62
256
370
-1
 48
1.0
  6
BYLAYER
100
AcDbLine
 10
294.0000000012560122
 20
71.0000000000842704
 30
0.0
 11
300.0000000012664145
 21
71.0000000000839151
 31
0.0
  0
LINE
  5
F6
100
AcDbEntity
  8
0
 62
256
370
-1
 48
1.0
  6
BYLAYER
100
AcDbLine
 10
300.0000000012677788
 20
81.0000000000838014
 30
0.0
 11
300.0000000012664145
 21
71.0000000000839151
 31
0.0
  0
LINE
  5
F7
100
AcDbEntity
  8
0
 62
256
370
-1
 48
1.0
  6
BYLAYER
100
AcDbLine
 10
294.0000000013105819
 20
149.100000000173992
 30
0.0
 11
294.0000000012572059
 21
81.0000000000845262
 31
0.0
  0
LINE
  5
F8
100
AcDbEntity
  8
0
 62
256
370
-1
 48
1.0
  6
BYLAYER
100
AcDbLine
 10
294.0000000013105819
 20
149.100000000173992
 30
0.0
 11
300.000000001265505
 21
149.1000000001733952
 31
0.0
  0
LINE
  5
F9
100
AcDbEntity
  8
0
 62
256
370
-1
 48
1.0
  6
BYLAYER
100
AcDbLine
 10
300.0000000012653913
 20
159.100000000092507
 30
0.0
 11
300.000000001265505
 21
149.1000000001733952
 31
0.0
  0
LINE
  5
FA
100
AcDbEntity
  8
0
 62
256
370
-1
 48
1.0
  6
BYLAYER
100
AcDbLine
 10
294.000000001264425
 20
159.100000000092507
 30
0.0
 11
300.0000000012653913
 21
159.100000000092507
 31
0.0
  0
LINE
  5
FB
100
AcDbEntity
  8
0
 62
256
370
-1
 48
1.0
  6
BYLAYER
100
AcDbLine
 10
294.0000000012644819
 20
177.6000000000923933
 30
0.0
 11
294.000000001264425
 21
159.100000000092507
 31
0.0
  0
LINE
  5
FC
100
AcDbEntity
  8
0
 62
256
370
-1
 48
1.0
  6
BYLAYER
100
AcDbLine
 10
294.0000000012644819
 20
177.6000000000923933
 30
0.0
 11
288.0000000012466899
 21
177.6000000000921943
 31
0.0
  0
LINE
  5
FD
100
AcDbEntity
  8
0
 62
256
370
-1
 48
1.0
  6
BYLAYER
100
AcDbLine
 10
288.0000000012466899
 20
177.6000000000921943
 30
0.0
 11
288.0000000012466899
 21
175.1000000000923933
 31
0.0
  0
LINE
  5
FE
100
AcDbEntity
  8
0
 62
256
370
-1
 48
1.0
  6
BYLAYER
100
AcDbLine
 10
288.0000000012466899
 20
175.1000000000923933
 30
0.0
 11
285.0000000011801831
 21
175.1000000000925922
 31
0.0
  0
LINE
  5
FF
100
AcDbEntity
  8
0
 62
256
370
-1
 48
1.0
  6
BYLAYER
100
AcDbLine
 10
285.0000000011801831
 20
177.6000000000921943
 30
0.0
 11
285.0000000011801831
 21
175.1000000000925922
 31
0.0
  0
LINE
  5
100
100
AcDbEntity
  8
0
 62
256
370
-1
 48
1.0
  6
BYLAYER
100
AcDbLine
 10
285.0000000011801831
 20
177.6000000000921943
 30
0.0
 11
283.0000000013769181
 21
177.6000000000921943
 31
0.0
  0
LINE
  5
101
100
AcDbEntity
  8
0
 62
256
370
-1
 48
1.0
  6
BYLAYER
100
AcDbLine
 10
283.0000000013769181
 20
177.6000000000921943
 30
0.0
 11
283.0000000013766908
 21
180.6000000000923933
 31
0.0
  0
LINE
  5
102
100
AcDbEntity
  8
0
 62
256
370
-1
 48
1.0
  6
BYLAYER
100
AcDbLine
 10
285.0000000011804104
 20
180.6000000000927912
 30
0.0
 11
283.0000000013766908
 21
180.6000000000923933
 31
0.0
  0
LINE
  5
103
100
AcDbEntity
  8
0
 62
256
370
-1
 48
1.0
  6
BYLAYER
100
AcDbLine
 10
285.0000000011804104
 20
180.6000000000927912
 30
0.0
 11
285.0000000011804104
 21
183.1000000000923933
 31
0.0
  0
LINE
  5
104
100
AcDbEntity
  8
0
 62
256
370
-1
 48
1.0
  6
BYLAYER
100
AcDbLine
 10
288.0000000012472015
 20
183.1000000000923933
 30
0.0
 11
285.0000000011804104
 21
183.1000000000923933
 31
0.0
  0
LINE
  5
105
100
AcDbEntity
  8
0
 62
256
370
-1
 48
1.0
  6
BYLAYER
100
AcDbLine
 10
288.0000000012472015
 20
180.6000000000927912
 30
0.0
 11
288.0000000012472015
 21
183.1000000000923933
 31
0.0
  0
LINE
  5
106
100
AcDbEntity
  8
0
 62
256
370
-1
 48
1.0
  6
BYLAYER
100
AcDbLine
 10
294.000000001264425
 20
180.6000000000929901
 30
0.0
 11
288.0000000012472015
 21
180.6000000000927912
 31
0.0
  0
LINE
  5
107
100
AcDbEntity
  8
0
 62
256
370
-1
 48
1.0
  6
BYLAYER
100
AcDbLine
 10
294.0000000012656187
 20
199.1000000000921943
 30
0.0
 11
294.000000001264425
 21
180.6000000000929901
 31
0.0
  0
LINE
  5
108
100
AcDbEntity
  8
0
 62
256
370
-1
 48
1.0
  6
BYLAYER
100
AcDbLine
 10
294.0000000012656187
 20
199.1000000000921943
 30
0.0
 11
300.0000000012760779
 21
199.1000000000917964
 31
0.0
  0
LINE
  5
109
100
AcDbEntity
  8
0
 62
256
370
-1
 48
1.0
  6
BYLAYER
100
AcDbLine
 10
300.000000001277499
 20
209.1000000000917112
 30
0.0
 11
300.0000000012760779
 21
199.1000000000917964
 31
0.0
  0
LINE
  5
10A
100
AcDbEntity
  8
0
 62
256
370
-1
 48
1.0
  6
BYLAYER
100
AcDbLine
 10
294.000000001266983
 20
209.1000000000923933
 30
0.0
 11
300.000000001277499
 21
209.1000000000917112
 31
0.0
  0
LINE
  5
10B
100
AcDbEntity
  8
0
 62
256
370
-1
 48
1.0
  6
BYLAYER
100
AcDbLine
 10
294.0000000012987016
 20
277.2000000004168214
 30
0.0
 11
294.000000001266983
 21
209.1000000000923933
 31
0.0
  0
LINE
  5
10C
100
AcDbEntity
  8
0
 62
256
370
-1
 48
1.0
  6
BYLAYER
100
AcDbLine
 10
294.0000000012987016
 20
277.2000000004168214
 30
0.0
 11
300.0000000012536248
 21
277.2000000004163098
 31
0.0
  0
LINE
  5
10D
100
AcDbEntity
  8
0
 62
256
370
-1
 48
1.0
  6
BYLAYER
100
AcDbLine
 10
300.0000000012536248
 20
287.200000000335308
 30
0.0
 11
300.0000000012536248
 21
277.2000000004163098
 31
0.0
  0
LINE
  5
10E
100
AcDbEntity
  8
0
 62
256
370
-1
 48
1.0
  6
BYLAYER
100
AcDbLine
 10
294.0000000012524879
 20
287.200000000335308
 30
0.0
 11
300.0000000012536248
 21
287.200000000335308
 31
0.0
  0
LINE
  5
10F
100
AcDbEntity
  8
0
 62
256
370
-1
 48
1.0
  6
BYLAYER
100
AcDbLine
 10
294.0000000012527153
 20
305.700000000335308
 30
0.0
 11
294.0000000012524879
 21
287.200000000335308
 31
0.0
  0
LINE
  5
110
100
AcDbEntity
  8
0
 62
256
370
-1
 48
1.0
  6
BYLAYER
100
AcDbLine
 10
294.0000000012527153
 20
305.700000000335308
 30
0.0
 11
288.0000000012349233
 21
305.7000000003350806
 31
0.0
  0
LINE
  5
111
100
AcDbEntity
  8
0
 62
256
370
-1
 48
1.0
  6
BYLAYER
100
AcDbLine
 10
288.0000000012349233
 20
305.7000000003350806
 30
0.0
 11
288.0000000012349233
 21
303.200000000335308
 31
0.0
  0
LINE
  5
112
100
AcDbEntity
  8
0
 62
256
370
-1
 48
1.0
  6
BYLAYER
100
AcDbLine
 10
288.0000000012349233
 20
303.200000000335308
 30
0.0
 11
285.0000000011684165
 21
303.2000000003354216
 31
0.0
  0
LINE
  5
113
100
AcDbEntity
  8
0
 62
256
370
-1
 48
1.0
  6
BYLAYER
100
AcDbLine
 10
285.0000000011684165
 20
305.7000000003350806
 30
0.0
 11
285.0000000011684165
 21
303.2000000003354216
 31
0.0
  0
LINE
  5
114
100
AcDbEntity
  8
0
 62
256
370
-1
 48
1.0
  6
BYLAYER
100
AcDbLine
 10
285.0000000011684165
 20
305.7000000003350806
 30
0.0
 11
283.000000001364981
 21
305.7000000003350806
 31
0.0
  0
LINE
  5
115
100
AcDbEntity
  8
0
 62
256
370
-1
 48
1.0
  6
BYLAYER
100
AcDbLine
 10
283.000000001364981
 20
305.7000000003350806
 30
0.0
 11
283.0000000013649242
 21
308.700000000335308
 31
0.0
  0
LINE
  5
116
100
AcDbEntity
  8
0
 62
256
370
-1
 48
1.0
  6
BYLAYER
100
AcDbLine
 10
285.0000000011684733
 20
308.7000000003355922
 30
0.0
 11
283.0000000013649242
 21
308.700000000335308
 31
0.0
  0
LINE
  5
117
100
AcDbEntity
  8
0
 62
256
370
-1
 48
1.0
  6
BYLAYER
100
AcDbLine
 10
285.0000000011684733
 20
308.7000000003355922
 30
0.0
 11
285.0000000011684733
 21
311.200000000335308
 31
0.0
  0
LINE
  5
118
100
AcDbEntity
  8
0
 62
256
370
-1
 48
1.0
  6
BYLAYER
100
AcDbLine
 10
288.000000001235378
 20
311.200000000335308
 30
0.0
 11
285.0000000011684733
 21
311.200000000335308
 31
0.0
  0
LINE
  5
119
100
AcDbEntity
  8
0
 62
256
370
-1
 48
1.0
  6
BYLAYER
100
AcDbLine
 10
288.000000001235378
 20
308.7000000003355922
 30
0.0
 11
288.000000001235378
 21
311.200000000335308
 31
0.0
  0
LINE
  5
11A
100
AcDbEntity
  8
0
 62
256
370
-1
 48
1.0
  6
BYLAYER
100
AcDbLine
 10
294.0000000012526016
 20
308.7000000003358195
 30
0.0
 11
288.000000001235378
 21
308.7000000003355922
 31
0.0
  0
LINE
  5
11B
100
AcDbEntity
  8
0
 62
256
370
-1
 48
1.0
  6
BYLAYER
100
AcDbLine
 10
294.0000000012537953
 20
327.2000000003350237
 30
0.0
 11
294.0000000012526016
 21
308.7000000003358195
 31
0.0
  0
LINE
  5
11C
100
AcDbEntity
  8
0
 62
256
370
-1
 48
1.0
  6
BYLAYER
100
AcDbLine
 10
294.0000000012537953
 20
327.2000000003350237
 30
0.0
 11
300.0000000012643113
 21
327.2000000003346827
 31
0.0
  0
LINE
  5
11D
100
AcDbEntity
  8
0
 62
256
370
-1
 48
1.0
  6
BYLAYER
100
AcDbLine
 10
300.0000000012656187
 20
337.2000000003346258
 30
0.0
 11
300.0000000012643113
 21
327.2000000003346827
 31
0.0
  0
LINE
  5
11E
100
AcDbEntity
  8
0
 62
256
370
-1
 48
1.0
  6
BYLAYER
100
AcDbLine
 10
294.000000001254989
 20
337.200000000335308
 30
0.0
 11
300.0000000012656187
 21
337.2000000003346258
 31
0.0
  0
LINE
  5
11F
100
AcDbEntity
  8
0
 62
256
370
-1
 48
1.0
  6
BYLAYER
100
AcDbLine
 10
294.0000000011683028
 20
405.3000000000536147
 30
0.0
 11
294.000000001254989
 21
337.200000000335308
 31
0.0
  0
LINE
  5
120
100
AcDbEntity
  8
0
 62
256
370
-1
 48
1.0
  6
BYLAYER
100
AcDbLine
 10
294.0000000011683028
 20
405.3000000000536147
 30
0.0
 11
300.000000001123226
 21
405.3000000000529894
 31
0.0
  0
LINE
  5
121
100
AcDbEntity
  8
0
 62
256
370
-1
 48
1.0
  6
BYLAYER
100
AcDbLine
 10
300.0000000011231123
 20
415.2999999999719876
 30
0.0
 11
300.000000001123226
 21
405.3000000000529894
 31
0.0
  0
LINE
  5
122
100
AcDbEntity
  8
0
 62
256
370
-1
 48
1.0
  6
BYLAYER
100
AcDbLine
 10
294.0000000011219754
 20
415.2999999999719876
 30
0.0
 11
300.0000000011231123
 21
415.2999999999719876
 31
0.0
  0
LINE
  5
123
100
AcDbEntity
  8
0
 62
256
370
-1
 48
1.0
  6
BYLAYER
100
AcDbLine
 10
294.0000000012906867
 20
433.7999999999727265
 30
0.0
 11
294.0000000011219754
 21
415.2999999999719876
 31
0.0
  0
LINE
  5
124
100
AcDbEntity
  8
0
 62
256
370
-1
 48
1.0
  6
BYLAYER
100
AcDbLine
 10
294.0000000012906867
 20
433.7999999999727265
 30
0.0
 11
288.000000001272781
 21
433.7999999999726128
 31
0.0
  0
LINE
  5
125
100
AcDbEntity
  8
0
 62
256
370
-1
 48
1.0
  6
BYLAYER
100
AcDbLine
 10
288.000000001272781
 20
433.7999999999726128
 30
0.0
 11
288.000000001272781
 21
431.2999999999727265
 31
0.0
  0
LINE
  5
126
100
AcDbEntity
  8
0
 62
256
370
-1
 48
1.0
  6
BYLAYER
100
AcDbLine
 10
288.000000001272781
 20
431.2999999999727265
 30
0.0
 11
285.0000000012062742
 21
431.2999999999730107
 31
0.0
  0
LINE
  5
127
100
AcDbEntity
  8
0
 62
256
370
-1
 48
1.0
  6
BYLAYER
100
AcDbLine
 10
285.0000000012062742
 20
433.7999999999726128
 30
0.0
 11
285.0000000012062742
 21
431.2999999999730107
 31
0.0
  0
LINE
  5
128
100
AcDbEntity
  8
0
 62
256
370
-1
 48
1.0
  6
BYLAYER
100
AcDbLine
 10
285.0000000012062742
 20
433.7999999999726128
 30
0.0
 11
283.0000000014030093
 21
433.7999999999726128
 31
0.0
  0
LINE
  5
129
100
AcDbEntity
  8
0
 62
256
370
-1
 48
1.0
  6
BYLAYER
100
AcDbLine
 10
283.0000000014030093
 20
433.7999999999726128
 30
0.0
 11
283.0000000014028956
 21
436.7999999999727834
 31
0.0
  0
LINE
  5
12A
100
AcDbEntity
  8
0
 62
256
370
-1
 48
1.0
  6
BYLAYER
100
AcDbLine
 10
285.0000000012065016
 20
436.7999999999731244
 30
0.0
 11
283.0000000014028956
 21
436.7999999999727834
 31
0.0
  0
LINE
  5
12B
100
AcDbEntity
  8
0
 62
256
370
-1
 48
1.0
  6
BYLAYER
100
AcDbLine
 10
285.0000000012065016
 20
436.7999999999731244
 30
0.0
 11
285.0000000012065016
 21
439.2999999999727265
 31
0.0
  0
LINE
  5
12C
100
AcDbEntity
  8
0
 62
256
370
-1
 48
1.0
  6
BYLAYER
100
AcDbLine
 10
288.0000000012732926
 20
439.2999999999727265
 30
0.0
 11
285.0000000012065016
 21
439.2999999999727265
 31
0.0
  0
LINE
  5
12D
100
AcDbEntity
  8
0
 62
256
370
-1
 48
1.0
  6
BYLAYER
100
AcDbLine
 10
288.0000000012732926
 20
436.7999999999731244
 30
0.0
 11
288.0000000012732926
 21
439.2999999999727265
 31
0.0
  0
LINE
  5
12E
100
AcDbEntity
  8
0
 62
256
370
-1
 48
1.0
  6
BYLAYER
100
AcDbLine
 10
294.000000001290573
 20
436.799999999973295
 30
0.0
 11
288.0000000012732926
 21
436.7999999999731244
 31
0.0
  0
LINE
  5
12F
100
AcDbEntity
  8
0
 62
256
370
-1
 48
1.0
  6
BYLAYER
100
AcDbLine
 10
294.0000000012386181
 20
455.2999999999724992
 30
0.0
 11
294.000000001290573
 21
436.799999999973295
 31
0.0
  0
LINE
  5
130
100
AcDbEntity
  8
0
 62
256
370
-1
 48
1.0
  6
BYLAYER
100
AcDbLine
 10
294.0000000012386181
 20
455.2999999999724992
 30
0.0
 11
300.0000000012490773
 21
455.2999999999722149
 31
0.0
  0
LINE
  5
131
100
AcDbEntity
  8
0
 62
256
370
-1
 48
1.0
  6
BYLAYER
100
AcDbLine
 10
300.0000000012504984
 20
465.2999999999719876
 30
0.0
 11
300.0000000012490773
 21
455.2999999999722149
 31
0.0
  0
LINE
  5
132
100
AcDbEntity
  8
0
 62
256
370
-1
 48
1.0
  6
BYLAYER
100
AcDbLine
 10
294.0000000012399823
 20
465.2999999999727834
 30
0.0
 11
300.0000000012504984
 21
465.2999999999719876
 31
0.0
  0
LINE
  5
133
100
AcDbEntity
  8
0
 62
256
370
-1
 48
1.0
  6
BYLAYER
100
AcDbLine
 10
284.0000028548129762
 20
480.2999999999909164
 30
0.0
 11
294.0000000012547048
 21
480.2999999999918828
 31
0.0
  0
LINE
  5
134
100
AcDbEntity
  8
0
 62
256
370
-1
 48
1.0
  6
BYLAYER
100
AcDbLine
 10
284.0000028548129762
 20
480.2999999999909164
 30
0.0
 11
284.0000028548125215
 21
486.2999999999922238
 31
0.0
  0
LINE
  5
135
100
AcDbEntity
  8
0
 62
256
370
-1
 48
1.0
  6
BYLAYER
100
AcDbLine
 10
274.0000028548125783
 20
486.2999999999922238
 30
0.0
 11
284.0000028548125215
 21
486.2999999999922238
 31
0.0
  0
LINE
  5
136
100
AcDbEntity
  8
0
 62
256
370
-1
 48
1.0
  6
BYLAYER
100
AcDbLine
 10
274.0000028548129762
 20
480.2999999999909164
 30
0.0
 11
274.0000028548125783
 21
486.2999999999922238
 31
0.0
  0
LINE
  5
137
100
AcDbEntity
  8
0
 62
256
370
-1
 48
1.0
  6
BYLAYER
100
AcDbLine
 10
255.5000028548130047
 20
480.2999999999905185
 30
0.0
 11
274.0000028548129762
 21
480.2999999999909164
 31
0.0
  0
LINE
  5
138
100
AcDbEntity
  8
0
 62
256
370
-1
 48
1.0
  6
BYLAYER
100
AcDbLine
 10
255.5000028548130047
 20
480.2999999999905185
 30
0.0
 11
255.5000028548126068
 21
474.2999999999752276
 31
0.0
  0
LINE
  5
139
100
AcDbEntity
  8
0
 62
256
370
-1
 48
1.0
  6
BYLAYER
100
AcDbLine
 10
255.5000028548126068
 20
474.2999999999752276
 30
0.0
 11
258.0000028548125783
 21
474.2999999999748866
 31
0.0
  0
LINE
  5
13A
100
AcDbEntity
  8
0
 62
256
370
-1
 48
1.0
  6
BYLAYER
100
AcDbLine
 10
258.0000028548125783
 20
474.2999999999748866
 30
0.0
 11
258.0000028547592024
 21
471.299999999978013
 31
0.0
  0
LINE
  5
13B
100
AcDbEntity
  8
0
 62
256
370
-1
 48
1.0
  6
BYLAYER
100
AcDbLine
 10
255.5000028547592024
 20
471.299999999978013
 30
0.0
 11
258.0000028547592024
 21
471.299999999978013
 31
0.0
  0
LINE
  5
13C
100
AcDbEntity
  8
0
 62
256
370
-1
 48
1.0
  6
BYLAYER
100
AcDbLine
 10
255.5000028547592024
 20
471.299999999978013
 30
0.0
 11
255.5000028547590887
 21
469.300000000017576
 31
0.0
  0
LINE
  5
13D
100
AcDbEntity
  8
0
 62
256
370
-1
 48
1.0
  6
BYLAYER
100
AcDbLine
 10
252.5000028547590887
 20
469.3000000000179739
 30
0.0
 11
255.5000028547590887
 21
469.300000000017576
 31
0.0
  0
LINE
  5
13E
100
AcDbEntity
  8
0
 62
256
370
-1
 48
1.0
  6
BYLAYER
100
AcDbLine
 10
252.5000028547592024
 20
471.299999999978013
 30
0.0
 11
252.5000028547590887
 21
469.3000000000179739
 31
0.0
  0
LINE
  5
13F
100
AcDbEntity
  8
0
 62
256
370
-1
 48
1.0
  6
BYLAYER
100
AcDbLine
 10
252.5000028547592024
 20
471.299999999978013
 30
0.0
 11
250.0000028547590887
 21
471.2999999999781835
 31
0.0
  0
LINE
  5
140
100
AcDbEntity
  8
0
 62
256
370
-1
 48
1.0
  6
BYLAYER
100
AcDbLine
 10
250.0000028548124931
 20
474.2999999999747729
 30
0.0
 11
250.0000028547590887
 21
471.2999999999781835
 31
0.0
  0
LINE
  5
141
100
AcDbEntity
  8
0
 62
256
370
-1
 48
1.0
  6
BYLAYER
100
AcDbLine
 10
252.5000028548126068
 20
474.2999999999747729
 30
0.0
 11
250.0000028548124931
 21
474.2999999999747729
 31
0.0
  0
LINE
  5
142
100
AcDbEntity
  8
0
 62
256
370
-1
 48
1.0
  6
BYLAYER
100
AcDbLine
 10
252.500002854812891
 20
480.2999999999909164
 30
0.0
 11
252.5000028548126068
 21
474.2999999999747729
 31
0.0
  0
LINE
  5
143
100
AcDbEntity
  8
0
 62
256
370
-1
 48
1.0
  6
BYLAYER
100
AcDbLine
 10
234.0000028548130047
 20
480.2999999999897796
 30
0.0
 11
252.500002854812891
 21
480.2999999999909164
 31
0.0
  0
LINE
  5
144
100
AcDbEntity
  8
0
 62
256
370
-1
 48
1.0
  6
BYLAYER
100
AcDbLine
 10
234.0000028548130047
 20
480.2999999999897796
 30
0.0
 11
234.0000028548124078
 21
486.2999999999922238
 31
0.0
  0
LINE
  5
145
100
AcDbEntity
  8
0
 62
256
370
-1
 48
1.0
  6
BYLAYER
100
AcDbLine
 10
224.0000028548124931
 20
486.2999999999922238
 30
0.0
 11
234.0000028548124078
 21
486.2999999999922238
 31
0.0
  0
LINE
  5
146
100
AcDbEntity
  8
0
 62
256
370
-1
 48
1.0
  6
BYLAYER
100
AcDbLine
 10
224.0000028548130047
 20
480.2999999999897796
 30
0.0
 11
224.0000028548124931
 21
486.2999999999922238
 31
0.0
  0
LINE
  5
147
100
AcDbEntity
  8
0
 62
256
370
-1
 48
1.0
  6
BYLAYER
100
AcDbLine
 10
180.0000028548132889
 20
480.2999999999711918
 30
0.0
 11
224.0000028548130047
 21
480.2999999999897796
 31
0.0
  0
LINE
  5
148
100
AcDbEntity
  8
0
 62
256
370
-1
 48
1.0
  6
BYLAYER
100
AcDbLine
 10
180.0000028548132889
 20
480.2999999999711918
 30
0.0
 11
180.000000001253909
 21
486.2999999999734086
 31
0.0
  0
LINE
  5
149
100
AcDbEntity
  8
0
 62
256
370
-1
 48
1.0
  6
BYLAYER
100
AcDbLine
 10
170.0000000012543921
 20
480.2999999999711918
 30
0.0
 11
170.000000001253909
 21
486.2999999999734086
 31
0.0
  0
LINE
  5
14A
100
AcDbEntity
  8
0
 62
256
370
-1
 48
1.0
  6
BYLAYER
100
AcDbLine
 10
170.0000000012543921
 20
480.2999999999711918
 30
0.0
 11
151.500000001255188
 21
480.2999999999905185
 31
0.0
  0
LINE
  5
14B
100
AcDbEntity
  8
0
 62
256
370
-1
 48
1.0
  6
BYLAYER
100
AcDbLine
 10
151.500000001255188
 20
480.2999999999905185
 30
0.0
 11
151.5000000012547048
 21
474.2999999999752276
 31
0.0
  0
LINE
  5
14C
100
AcDbEntity
  8
0
 62
256
370
-1
 48
1.0
  6
BYLAYER
100
AcDbLine
 10
151.5000000012547048
 20
474.2999999999752276
 30
0.0
 11
154.0000000012547048
 21
474.2999999999748866
 31
0.0
  0
LINE
  5
14D
100
AcDbEntity
  8
0
 62
256
370
-1
 48
1.0
  6
BYLAYER
100
AcDbLine
 10
154.0000000012547048
 20
474.2999999999748866
 30
0.0
 11
154.0000000012543921
 21
471.2999999999778993
 31
0.0
  0
LINE
  5
14E
100
AcDbEntity
  8
0
 62
256
370
-1
 48
1.0
  6
BYLAYER
100
AcDbLine
 10
151.5000000012545058
 20
471.2999999999778993
 30
0.0
 11
154.0000000012543921
 21
471.2999999999778993
 31
0.0
  0
LINE
  5
14F
100
AcDbEntity
  8
0
 62
256
370
-1
 48
1.0
  6
BYLAYER
100
AcDbLine
 10
151.5000000012545058
 20
471.2999999999778993
 30
0.0
 11
151.50000000125371
 21
469.300000000028092
 31
0.0
  0
LINE
  5
150
100
AcDbEntity
  8
0
 62
256
370
-1
 48
1.0
  6
BYLAYER
100
AcDbLine
 10
148.5000000012535963
 20
469.3000000000284899
 30
0.0
 11
151.50000000125371
 21
469.300000000028092
 31
0.0
  0
LINE
  5
151
100
AcDbEntity
  8
0
 62
256
370
-1
 48
1.0
  6
BYLAYER
100
AcDbLine
 10
148.5000000012543921
 20
471.2999999999778993
 30
0.0
 11
148.5000000012535963
 21
469.3000000000284899
 31
0.0
  0
LINE
  5
152
100
AcDbEntity
  8
0
 62
256
370
-1
 48
1.0
  6
BYLAYER
100
AcDbLine
 10
148.5000000012543921
 20
471.2999999999778993
 30
0.0
 11
146.0000000012543921
 21
471.2999999999781267
 31
0.0
  0
LINE
  5
153
100
AcDbEntity
  8
0
 62
256
370
-1
 48
1.0
  6
BYLAYER
100
AcDbLine
 10
146.0000000012545911
 20
474.2999999999747729
 30
0.0
 11
146.0000000012543921
 21
471.2999999999781267
 31
0.0
  0
LINE
  5
154
100
AcDbEntity
  8
0
 62
256
370
-1
 48
1.0
  6
BYLAYER
100
AcDbLine
 10
148.5000000012545911
 20
474.2999999999747729
 30
0.0
 11
146.0000000012545911
 21
474.2999999999747729
 31
0.0
  0
LINE
  5
155
100
AcDbEntity
  8
0
 62
256
370
-1
 48
1.0
  6
BYLAYER
100
AcDbLine
 10
148.5000000012551027
 20
480.2999999999909164
 30
0.0
 11
148.5000000012545911
 21
474.2999999999747729
 31
0.0
  0
LINE
  5
156
100
AcDbEntity
  8
0
 62
256
370
-1
 48
1.0
  6
BYLAYER
100
AcDbLine
 10
130.0000000012543921
 20
480.2999999999648253
 30
0.0
 11
148.5000000012551027
 21
480.2999999999909164
 31
0.0
  0
LINE
  5
157
100
AcDbEntity
  8
0
 62
256
370
-1
 48
1.0
  6
BYLAYER
100
AcDbLine
 10
130.0000000012543921
 20
480.2999999999648253
 30
0.0
 11
130.000000001253909
 21
486.2999999999648821
 31
0.0
  0
LINE
  5
158
100
AcDbEntity
  8
0
 62
256
370
-1
 48
1.0
  6
BYLAYER
100
AcDbLine
 10
120.0000000012538948
 20
486.2999999999648821
 30
0.0
 11
130.000000001253909
 21
486.2999999999648821
 31
0.0
  0
LINE
  5
159
100
AcDbEntity
  8
0
 62
256
370
-1
 48
1.0
  6
BYLAYER
100
AcDbLine
 10
120.0000000012545058
 20
480.2999999999648253
 30
0.0
 11
120.0000000012538948
 21
486.2999999999648821
 31
0.0
  0
LINE
  5
15A
100
AcDbEntity
  8
0
 62
256
370
-1
 48
1.0
  6
BYLAYER
100
AcDbLine
 10
76.0000000012538237
 20
480.2999999999461807
 30
0.0
 11
120.0000000012545058
 21
480.2999999999648253
 31
0.0
  0
LINE
  5
15B
100
AcDbEntity
  8
0
 62
256
370
-1
 48
1.0
  6
BYLAYER
100
AcDbLine
 10
76.0000000012538237
 20
480.2999999999461807
 30
0.0
 11
76.000000001253639
 21
486.299999999956583
 31
0.0
  0
LINE
  5
15C
100
AcDbEntity
  8
0
 62
256
370
-1
 48
1.0
  6
BYLAYER
100
AcDbLine
 10
66.0000000012537527
 20
486.299999999956583
 30
0.0
 11
76.000000001253639
 21
486.299999999956583
 31
0.0
  0
LINE
  5
15D
100
AcDbEntity
  8
0
 62
256
370
-1
 48
1.0
  6
BYLAYER
100
AcDbLine
 10
66.0000000012539232
 20
480.2999999999461807
 30
0.0
 11
66.0000000012537527
 21
486.299999999956583
 31
0.0
  0
LINE
  5
15E
100
AcDbEntity
  8
0
 62
256
370
-1
 48
1.0
  6
BYLAYER
100
AcDbLine
 10
47.5000000012543708
 20
480.2999999999456122
 30
0.0
 11
66.0000000012539232
 21
480.2999999999461807
 31
0.0
  0
LINE
  5
15F
100
AcDbEntity
  8
0
 62
256
370
-1
 48
1.0
  6
BYLAYER
100
AcDbLine
 10
47.5000000012543708
 20
480.2999999999456122
 30
0.0
 11
47.5000000012539232
 21
474.2999999999302077
 31
0.0
  0
LINE
  5
160
100
AcDbEntity
  8
0
 62
256
370
-1
 48
1.0
  6
BYLAYER
100
AcDbLine
 10
47.5000000012539232
 20
474.2999999999302077
 30
0.0
 11
50.0000000012538877
 21
474.2999999999299803
 31
0.0
  0
LINE
  5
161
100
AcDbEntity
  8
0
 62
256
370
-1
 48
1.0
  6
BYLAYER
100
AcDbLine
 10
50.0000000012538877
 20
474.2999999999299803
 30
0.0
 11
50.00000000125371
 21
471.299999999932993
 31
0.0
  0
LINE
  5
162
100
AcDbEntity
  8
0
 62
256
370
-1
 48
1.0
  6
BYLAYER
100
AcDbLine
 10
47.5000000012537384
 20
471.299999999932993
 30
0.0
 11
50.00000000125371
 21
471.299999999932993
 31
0.0
  0
LINE
  5
163
100
AcDbEntity
  8
0
 62
256
370
-1
 48
1.0
  6
BYLAYER
100
AcDbLine
 10
47.5000000012537384
 20
471.299999999932993
 30
0.0
 11
47.5000000012533832
 21
469.3000000000192813
 31
0.0
  0
LINE
  5
164
100
AcDbEntity
  8
0
 62
256
370
-1
 48
1.0
  6
BYLAYER
100
AcDbLine
 10
44.5000000012533405
 20
469.3000000000196792
 30
0.0
 11
47.5000000012533832
 21
469.3000000000192813
 31
0.0
  0
LINE
  5
165
100
AcDbEntity
  8
0
 62
256
370
-1
 48
1.0
  6
BYLAYER
100
AcDbLine
 10
44.5000000012537029
 20
471.299999999932993
 30
0.0
 11
44.5000000012533405
 21
469.3000000000196792
 31
0.0
  0
LINE
  5
166
100
AcDbEntity
  8
0
 62
256
370
-1
 48
1.0
  6
BYLAYER
100
AcDbLine
 10
44.5000000012537029
 20
471.299999999932993
 30
0.0
 11
42.0000000012536319
 21
471.2999999999332204
 31
0.0
  0
LINE
  5
167
100
AcDbEntity
  8
0
 62
256
370
-1
 48
1.0
  6
BYLAYER
100
AcDbLine
 10
42.0000000012538166
 20
474.2999999999299234
 30
0.0
 11
42.0000000012536319
 21
471.2999999999332204
 31
0.0
  0
LINE
  5
168
100
AcDbEntity
  8
0
 62
256
370
-1
 48
1.0
  6
BYLAYER
100
AcDbLine
 10
44.5000000012538806
 20
474.2999999999299234
 30
0.0
 11
42.0000000012538166
 21
474.2999999999299234
 31
0.0
  0
LINE
  5
169
100
AcDbEntity
  8
0
 62
256
370
-1
 48
1.0
  6
BYLAYER
100
AcDbLine
 10
26.000000001254751
 20
480.2999999999452143
 30
0.0
 11
44.5000000012543282
 21
480.2999999999458964
 31
0.0
  0
LINE
  5
16A
100
AcDbEntity
  8
0
 62
256
370
-1
 48
1.0
  6
BYLAYER
100
AcDbLine
 10
26.000000001254751
 20
480.2999999999452143
 30
0.0
 11
26.0000000012549286
 21
486.299999999946408
 31
0.0
  0
LINE
  5
16B
100
AcDbEntity
  8
0
 62
256
370
-1
 48
1.0
  6
BYLAYER
100
AcDbLine
 10
16.000000001335529
 20
486.2999999999477723
 30
0.0
 11
26.0000000012549286
 21
486.299999999946408
 31
0.0
  0
LINE
  5
16C
100
AcDbEntity
  8
0
 62
256
370
-1
 48
1.0
  6
BYLAYER
100
AcDbLine
 10
16.000000001335529
 20
486.2999999999477723
 30
0.0
 11
16.0000000013356214
 21
480.2999999999927923
 31
0.0
  0
LINE
  5
16D
100
AcDbEntity
  8
0
 62
256
370
-1
 48
1.0
  6
BYLAYER
100
AcDbLine
 10
6.0000000013354571
 20
480.2999999999918828
 30
0.0
 11
16.0000000013356214
 21
480.2999999999927923
 31
0.0
  0
LINE
  5
16E
100
AcDbEntity
  8
0
 62
256
370
-1
 48
1.0
  6
BYLAYER
100
AcDbLine
 10
6.0000000102613056
 20
465.3000000001209173
 30
0.0
 11
0.0000000103064135
 21
465.3000000002580236
 31
0.0
  0
LINE
  5
16F
100
AcDbEntity
  8
0
 62
256
370
-1
 48
1.0
  6
BYLAYER
100
AcDbLine
 10
0.0000000100785151
 20
455.3000000003390255
 30
0.0
 11
0.0000000103064135
 21
465.3000000002580236
 31
0.0
  0
LINE
  5
170
100
AcDbEntity
  8
0
 62
256
370
-1
 48
1.0
  6
BYLAYER
100
AcDbLine
 10
6.0000000100795869
 20
455.3000000002023739
 30
0.0
 11
0.0000000100785151
 21
455.3000000003390255
 31
0.0
  0
LINE
  5
171
100
AcDbEntity
  8
0
 62
256
370
-1
 48
1.0
  6
BYLAYER
100
AcDbLine
 10
6.0000000096576978
 20
436.8000000002023739
 30
0.0
 11
6.0000000100795869
 21
455.3000000002023739
 31
0.0
  0
LINE
  5
172
100
AcDbEntity
  8
0
 62
256
370
-1
 48
1.0
  6
BYLAYER
100
AcDbLine
 10
6.0000000096576978
 20
436.8000000002023739
 30
0.0
 11
12.0000000096796597
 21
436.7999999999744887
 31
0.0
  0
LINE
  5
173
100
AcDbEntity
  8
0
 62
256
370
-1
 48
1.0
  6
BYLAYER
100
AcDbLine
 10
12.0000000096796597
 20
436.7999999999744887
 30
0.0
 11
12.0000000097366701
 21
439.299999999974375
 31
0.0
  0
LINE
  5
174
100
AcDbEntity
  8
0
 62
256
370
-1
 48
1.0
  6
BYLAYER
100
AcDbLine
 10
12.0000000097366701
 20
439.299999999974375
 30
0.0
 11
15.0000000096492894
 21
439.2999999998830276
 31
0.0
  0
LINE
  5
175
100
AcDbEntity
  8
0
 62
256
370
-1
 48
1.0
  6
BYLAYER
100
AcDbLine
 10
15.0000000095922807
 20
436.7999999998834824
 30
0.0
 11
15.0000000096492894
 21
439.2999999998830276
 31
0.0
  0
LINE
  5
176
100
AcDbEntity
  8
0
 62
256
370
-1
 48
1.0
  6
BYLAYER
100
AcDbLine
 10
17.0000000096772617
 20
436.7999999997695113
 30
0.0
 11
17.0000000096089892
 21
433.7999999997692271
 31
0.0
  0
LINE
  5
177
100
AcDbEntity
  8
0
 62
256
370
-1
 48
1.0
  6
BYLAYER
100
AcDbLine
 10
15.00000000952374
 20
433.7999999998826866
 30
0.0
 11
17.0000000096089892
 21
433.7999999997692271
 31
0.0
  0
LINE
  5
178
100
AcDbEntity
  8
0
 62
256
370
-1
 48
1.0
  6
BYLAYER
100
AcDbLine
 10
15.00000000952374
 20
433.7999999998826866
 30
0.0
 11
15.0000000094667101
 21
431.2999999998830845
 31
0.0
  0
LINE
  5
179
100
AcDbEntity
  8
0
 62
256
370
-1
 48
1.0
  6
BYLAYER
100
AcDbLine
 10
12.0000000095537303
 20
431.2999999999743181
 30
0.0
 11
15.0000000094667101
 21
431.2999999998830845
 31
0.0
  0
LINE
  5
17A
100
AcDbEntity
  8
0
 62
256
370
-1
 48
1.0
  6
BYLAYER
100
AcDbLine
 10
12.0000000096107602
 20
433.7999999999739202
 30
0.0
 11
12.0000000095537303
 21
431.2999999999743181
 31
0.0
  0
LINE
  5
17B
100
AcDbEntity
  8
0
 62
256
370
-1
 48
1.0
  6
BYLAYER
100
AcDbLine
 10
6.0000000095894306
 20
433.8000000002019192
 30
0.0
 11
12.0000000096107602
 21
433.7999999999739202
 31
0.0
  0
LINE
  5
17C
100
AcDbEntity
  8
0
 62
256
370
-1
 48
1.0
  6
BYLAYER
100
AcDbLine
 10
6.0000000091665493
 20
415.3000000002026013
 30
0.0
 11
6.0000000095894306
 21
433.8000000002019192
 31
0.0
  0
LINE
  5
17D
100
AcDbEntity
  8
0
 62
256
370
-1
 48
1.0
  6
BYLAYER
100
AcDbLine
 10
0.0000000089267505
 20
405.3000000003398782
 30
0.0
 11
0.0000000091560928
 21
415.3000000003398213
 31
0.0
  0
ARC
  5
17E
100
AcDbEntity
  8
0
 62
256
370
-1
 48
1.0
  6
BYLAYER
100
AcDbCircle
 10
206.0000000012657893
 20
81.0000000000030838
 30
0.0
 40
51.9999999999999929
100
AcDbArc
 50
314.999999999998181
 51
0.0
  0
ARC
  5
17F
100
AcDbEntity
  8
0
 62
256
370
-1
 48
1.0
  6
BYLAYER
100
AcDbCircle
 10
241.3553390605923141
 20
45.6446609406737736
 30
0.0
 40
2.000000000000739
100
AcDbArc
 50
135.0000000000098908
 51
315.0000000000111982
  0
ARC
  5
180
100
AcDbEntity
  8
0
 62
256
370
-1
 48
1.0
  6
BYLAYER
100
AcDbCircle
 10
206.0000000012657893
 20
81.0000000000030838
 30
0.0
 40
47.9999999999998295
100
AcDbArc
 50
314.9999999999972147
 51
0.0
  0
CIRCLE
  5
181
100
AcDbEntity
  8
0
 62
256
370
-1
 48
1.0
  6
BYLAYER
100
AcDbCircle
 10
261.0000000047068625
 20
90.9999999880252517
 30
0.0
 40
1.499999999999996
  0
ARC
  5
182
100
AcDbEntity
  8
0
 62
256
370
-1
 48
1.0
  6
BYLAYER
100
AcDbCircle
 10
254.4797749833585954
 20
45.648745366032017
 30
0.0
 40
2.0000515625020698
100
AcDbArc
 50
144.3120449624557864
 51
324.3259989039912625
  0
ARC
  5
183
100
AcDbEntity
  8
0
 62
256
370
-1
 48
1.0
  6
BYLAYER
100
AcDbCircle
 10
206.000000001264425
 20
81.0000000000035953
 30
0.0
 40
57.9999999999999929
100
AcDbArc
 50
323.8864341058692844
 51
0.0
  0
ARC
  5
184
100
AcDbEntity
  8
0
 62
256
370
-1
 48
1.0
  6
BYLAYER
100
AcDbCircle
 10
266.000000001264425
 20
81.0000000000007674
 30
0.0
 40
1.999999999999996
100
AcDbArc
 50
359.999999999997101
 51
179.9999999999974136
  0
ARC
  5
185
100
AcDbEntity
  8
0
 62
256
370
-1
 48
1.0
  6
BYLAYER
100
AcDbCircle
 10
206.000000001264425
 20
81.0000000000035953
 30
0.0
 40
62.0000000000000213
100
AcDbArc
 50
323.9143434784542137
 51
0.0
  0
CIRCLE
  5
186
100
AcDbEntity
  8
0
 62
256
370
-1
 48
1.0
  6
BYLAYER
100
AcDbCircle
 10
280.0000000091030756
 20
186.1260867635549516
 30
0.0
 40
1.500000000000018
  0
CIRCLE
  5
187
100
AcDbEntity
  8
0
 62
256
370
-1
 48
1.0
  6
BYLAYER
100
AcDbCircle
 10
249.0000000091033314
 20
186.1260867650057662
 30
0.0
 40
1.5000000000000191
  0
CIRCLE
  5
188
100
AcDbEntity
  8
0
 62
256
370
-1
 48
1.0
  6
BYLAYER
100
AcDbCircle
 10
249.0000000105255822
 20
217.1260867650061073
 30
0.0
 40
1.5000000000000191
  0
CIRCLE
  5
189
100
AcDbEntity
  8
0
 62
256
370
-1
 48
1.0
  6
BYLAYER
100
AcDbCircle
 10
20.000000013259676
 20
186.1260867755130448
 30
0.0
 40
1.500000000000022
  0
CIRCLE
  5
18A
100
AcDbEntity
  8
0
 62
256
370
-1
 48
1.0
  6
BYLAYER
100
AcDbCircle
 10
280.000000010525639
 20
217.1260867635551222
 30
0.0
 40
1.5000000000000191
  0
CIRCLE
  5
18B
100
AcDbEntity
  8
0
 62
256
370
-1
 48
1.0
  6
BYLAYER
100
AcDbCircle
 10
20.0000000146818024
 20
217.1260867755132438
 30
0.0
 40
1.50000000000002
  0
LINE
  5
18C
100
AcDbEntity
  8
0
 62
256
370
-1
 48
1.0
  6
BYLAYER
100
AcDbLine
 10
263.0000000013062049
 20
237.2440608085626081
 30
0.0
 11
266.0000000013063186
 21
237.2440608085626081
 31
0.0
  0
CIRCLE
  5
18D
100
AcDbEntity
  8
0
 62
256
370
-1
 48
1.0
  6
BYLAYER
100
AcDbCircle
 10
51.0000000146819588
 20
217.126086774062486
 30
0.0
 40
1.50000000000002
  0
CIRCLE
  5
18E
100
AcDbEntity
  8
0
 62
256
370
-1
 48
1.0
  6
BYLAYER
100
AcDbCircle
 10
155.5000009840281336
 20
146.9999999929043497
 30
0.0
 40
1.999999999999996
  0
CIRCLE
  5
18F
100
AcDbEntity
  8
0
 62
256
370
-1
 48
1.0
  6
BYLAYER
100
AcDbCircle
 10
144.5000009840277642
 20
146.999999993405595
 30
0.0
 40
1.999999999999996
  0
CIRCLE
  5
190
100
AcDbEntity
  8
0
 62
256
370
-1
 48
1.0
  6
BYLAYER
100
AcDbCircle
 10
35.5000000085509413
 20
201.6440608069334814
 30
0.0
 40
10.9999999999999805
  0
CIRCLE
  5
191
100
AcDbEntity
  8
0
 62
256
370
-1
 48
1.0
  6
BYLAYER
100
AcDbCircle
 10
237.6119834870324894
 20
34.6680279766557078
 30
0.0
 40
1.4999999938441231
  0
CIRCLE
  5
192
100
AcDbEntity
  8
0
 62
256
370
-1
 48
1.0
  6
BYLAYER
100
AcDbCircle
 10
244.3405271038552939
 20
40.6712466020768773
 30
0.0
 40
1.499999993844118
  0
CIRCLE
  5
193
100
AcDbEntity
  8
0
 62
256
370
-1
 48
1.0
  6
BYLAYER
100
AcDbCircle
 10
273.8354689061073941
 20
15.6493774296479273
 30
0.0
 40
1.5
  0
CIRCLE
  5
194
100
AcDbEntity
  8
0
 62
256
370
-1
 48
1.0
  6
BYLAYER
100
AcDbCircle
 10
62.3880165161549058
 20
34.6680279737931301
 30
0.0
 40
1.4999999938441231
  0
ARC
  5
195
100
AcDbEntity
  8
0
 62
256
370
-1
 48
1.0
  6
BYLAYER
100
AcDbCircle
 10
94.0000000010660273
 20
81.0000000000036806
 30
0.0
 40
57.9999999999999929
100
AcDbArc
 50
180.0000000000027853
 51
216.1135658941306872
  0
ARC
  5
196
100
AcDbEntity
  8
0
 62
256
370
-1
 48
1.0
  6
BYLAYER
100
AcDbCircle
 10
45.5202250189717788
 20
45.6487453660320099
 30
0.0
 40
2.0000515625020698
100
AcDbArc
 50
215.6740010960087375
 51
35.6879550375442136
  0
ARC
  5
197
100
AcDbEntity
  8
0
 62
256
370
-1
 48
1.0
  6
BYLAYER
100
AcDbCircle
 10
94.0000000010660273
 20
81.0000000000036806
 30
0.0
 40
61.9999999999999929
100
AcDbArc
 50
180.0000000000027853
 51
216.0856565215457863
  0
ARC
  5
198
100
AcDbEntity
  8
0
 62
256
370
-1
 48
1.0
  6
BYLAYER
100
AcDbCircle
 10
34.0000000010660841
 20
81.0000000000007532
 30
0.0
 40
1.999999999999996
100
AcDbArc
 50
0.0
 51
180.0
  0
LINE
  5
199
100
AcDbEntity
  8
0
 62
256
370
-1
 48
1.0
  6
BYLAYER
100
AcDbLine
 10
279.500000001115211
 20
455.2999999999909164
 30
0.0
 11
279.5000000011698944
 21
425.2999999999909164
 31
0.0
  0
LINE
  5
19A
100
AcDbEntity
  8
0
 62
256
370
-1
 48
1.0
  6
BYLAYER
100
AcDbLine
 10
267.5000000011700081
 20
425.2999999999909164
 30
0.0
 11
279.5000000011698944
 21
425.2999999999909164
 31
0.0
  0
LINE
  5
19B
100
AcDbEntity
  8
0
 62
256
370
-1
 48
1.0
  6
BYLAYER
100
AcDbLine
 10
267.5000000011700081
 20
425.2999999999909164
 30
0.0
 11
267.500000001115211
 21
455.2999999999909164
 31
0.0
  0
LINE
  5
19C
100
AcDbEntity
  8
0
 62
256
370
-1
 48
1.0
  6
BYLAYER
100
AcDbLine
 10
267.500000001115211
 20
455.2999999999909164
 30
0.0
 11
279.500000001115211
 21
455.2999999999909164
 31
0.0
  0
ENDSEC
  0
SECTION
  2
OBJECTS
  0
DICTIONARY
  5
C
100
AcDbDictionary
280
0
281
1
  3
ACAD_GROUP
350
D
  3
ACAD_LAYOUT
350
1A
  3
ACAD_MLINESTYLE
350
17
  3
ACAD_PLOTSETTINGS
350
19
  3
ACAD_PLOTSTYLENAME
350
E
  3
AcDbVariableDictionary
350
19D
  3
QCAD_OBJECTS
350
19E
  0
DICTIONARY
  5
D
100
AcDbDictionary
280
0
281
1
  0
ACDBDICTIONARYWDFLT
  5
E
100
AcDbDictionary
281
1
  3
Normal
350
F
100
AcDbDictionaryWithDefault
340
F
  0
ACDBPLACEHOLDER
  5
F
  0
DICTIONARY
  5
17
100
AcDbDictionary
280
0
281
1
  3
Standard
350
18
  0
MLINESTYLE
  5
18
100
AcDbMlineStyle
  2
STANDARD
 70
0
  3

 62
256
 51
90.0
 52
90.0
 71
2
 49
0.5
 62
256
  6
BYLAYER
 49
-0.5
 62
256
  6
BYLAYER
  0
DICTIONARY
  5
19
100
AcDbDictionary
280
0
281
1
  0
DICTIONARY
  5
1A
100
AcDbDictionary
281
1
  3
Layout1
350
1E
  3
Layout2
350
26
  3
Model
350
22
  0
LAYOUT
  5
1E
100
AcDbPlotSettings
  1

  2
none_device
  4

  6

 40
0.0
 41
0.0
 42
0.0
 43
0.0
 44
0.0
 45
0.0
 46
0.0
 47
0.0
 48
0.0
 49
0.0
140
0.0
141
0.0
142
1.0
143
1.0
 70
688
 72
0
 73
0
 74
5
  7

 75
16
147
1.0
148
0.0
149
0.0
100
AcDbLayout
  1
Layout1
 70
1
 71
1
 10
0.0
 20
0.0
 11
420.0
 21
297.0
 12
0.0
 22
0.0
 32
0.0
 14
100000000000000000000.0
 24
100000000000000000000.0
 34
100000000000000000000.0
 15
-100000000000000000000.0
 25
-100000000000000000000.0
 35
-100000000000000000000.0
146
0.0
 13
0.0
 23
0.0
 33
0.0
 16
1.0
 26
0.0
 36
0.0
 17
0.0
 27
1.0
 37
0.0
 76
0
330
1B
  0
LAYOUT
  5
22
100
AcDbPlotSettings
  1

  2
none_device
  4

  6

 40
0.0
 41
0.0
 42
0.0
 43
0.0
 44
0.0
 45
0.0
 46
0.0
 47
0.0
 48
0.0
 49
0.0
140
0.0
141
0.0
142
1.0
143
1.0
 70
1712
 72
0
 73
0
 74
0
  7

 75
0
147
1.0
148
0.0
149
0.0
100
AcDbLayout
  1
Model
 70
1
 71
0
 10
0.0
 20
0.0
 11
12.0
 21
9.0
 12
0.0
 22
0.0
 32
0.0
 14
0.0
 24
0.0
 34
0.0
 15
0.0
 25
0.0
 35
0.0
146
0.0
 13
0.0
 23
0.0
 33
0.0
 16
1.0
 26
0.0
 36
0.0
 17
0.0
 27
1.0
 37
0.0
 76
0
330
1F
  0
LAYOUT
  5
26
100
AcDbPlotSettings
  1

  2
none_device
  4

  6

 40
0.0
 41
0.0
 42
0.0
 43
0.0
 44
0.0
 45
0.0
 46
0.0
 47
0.0
 48
0.0
 49
0.0
140
0.0
141
0.0
142
1.0
143
1.0
 70
688
 72
0
 73
0
 74
5
  7

 75
16
147
1.0
148
0.0
149
0.0
100
AcDbLayout
  1
Layout2
 70
1
 71
2
 10
0.0
 20
0.0
 11
12.0
 21
9.0
 12
0.0
 22
0.0
 32
0.0
 14
0.0
 24
0.0
 34
0.0
 15
0.0
 25
0.0
 35
0.0
146
0.0
 13
0.0
 23
0.0
 33
0.0
 16
1.0
 26
0.0
 36
0.0
 17
0.0
 27
1.0
 37
0.0
 76
0
330
23
  0
DICTIONARY
  5
19D
100
AcDbDictionary
281
1
  3
DIMASSOC
350
1A0
  3
HIDETEXT
350
19F
  0
DICTIONARYVAR
  5
19F
100
DictionaryVariables
280
0
  1
2
  0
DICTIONARYVAR
  5
1A0
100
DictionaryVariables
280
0
  1
1
  0
DICTIONARY
  5
19E
100
AcDbDictionary
281
1
  3
ColorSettings/BackgroundColor
350
1A1
  3
ColorSettings/ColorMode
350
1A2
  3
Grid/DisplayGrid00
350
1A3
  3
Grid/DisplayGrid01
350
1A4
  3
Grid/DisplayGrid02
350
1A5
  3
Grid/DisplayGrid03
350
1A6
  3
Grid/GridSpacingX00
350
1A7
  3
Grid/GridSpacingX01
350
1A8
  3
Grid/GridSpacingX02
350
1A9
  3
Grid/GridSpacingX03
350
1AA
  3
Grid/GridSpacingY00
350
1AB
  3
Grid/GridSpacingY01
350
1AC
  3
Grid/GridSpacingY02
350
1AD
  3
Grid/GridSpacingY03
350
1AE
  3
Grid/IsometricGrid00
350
1AF
  3
Grid/IsometricGrid01
350
1B0
  3
Grid/IsometricGrid02
350
1B1
  3
Grid/IsometricGrid03
350
1B2
  3
Grid/IsometricProjection00
350
1B3
  3
Grid/IsometricProjection01
350
1B4
  3
Grid/IsometricProjection02
350
1B5
  3
Grid/IsometricProjection03
350
1B6
  3
Grid/MetaGridSpacingX00
350
1B7
  3
Grid/MetaGridSpacingX01
350
1B8
  3
Grid/MetaGridSpacingX02
350
1B9
  3
Grid/MetaGridSpacingX03
350
1BA
  3
Grid/MetaGridSpacingY00
350
1BB
  3
Grid/MetaGridSpacingY01
350
1BC
  3
Grid/MetaGridSpacingY02
350
1BD
  3
Grid/MetaGridSpacingY03
350
1BE
  3
MultiPageSettings/Columns
350
1BF
  3
MultiPageSettings/GlueMarginsBottom
350
1C0
  3
MultiPageSettings/GlueMarginsLeft
350
1C1
  3
MultiPageSettings/GlueMarginsRight
350
1C2
  3
MultiPageSettings/GlueMarginsTop
350
1C3
  3
MultiPageSettings/PrintCropMarks
350
1C4
  3
MultiPageSettings/Rows
350
1C5
  3
PageSettings/OffsetX
350
1C6
  3
PageSettings/OffsetY
350
1C7
  3
PageSettings/PageOrientation
350
1C8
  3
PageSettings/PaperHeight
350
1C9
  3
PageSettings/PaperWidth
350
1CA
  3
PageSettings/Scale
350
1CB
  3
PageSettings/ShowPaperBorders
350
1CC
  3
UnitSettings/PaperUnit
350
1CD
  3
ViewportCenter
350
1CE
  3
ViewportHeight
350
1CF
  3
ViewportWidth
350
1D0
  0
XRECORD
  5
1A1
330
19E
100
AcDbXrecord
280
1
1000
Bianco
  0
XRECORD
  5
1A2
330
19E
100
AcDbXrecord
280
1
1000
FullColor
  0
XRECORD
  5
1A3
330
19E
100
AcDbXrecord
280
1
290
1
  0
XRECORD
  5
1A4
330
19E
100
AcDbXrecord
280
1
290
1
  0
XRECORD
  5
1A5
330
19E
100
AcDbXrecord
280
1
290
1
  0
XRECORD
  5
1A6
330
19E
100
AcDbXrecord
280
1
290
1
  0
XRECORD
  5
1A7
330
19E
100
AcDbXrecord
280
1
1000
auto
  0
XRECORD
  5
1A8
330
19E
100
AcDbXrecord
280
1
1000
auto
  0
XRECORD
  5
1A9
330
19E
100
AcDbXrecord
280
1
1000
auto
  0
XRECORD
  5
1AA
330
19E
100
AcDbXrecord
280
1
1000
auto
  0
XRECORD
  5
1AB
330
19E
100
AcDbXrecord
280
1
1000
auto
  0
XRECORD
  5
1AC
330
19E
100
AcDbXrecord
280
1
1000
auto
  0
XRECORD
  5
1AD
330
19E
100
AcDbXrecord
280
1
1000
auto
  0
XRECORD
  5
1AE
330
19E
100
AcDbXrecord
280
1
1000
auto
  0
XRECORD
  5
1AF
330
19E
100
AcDbXrecord
280
1
290
0
  0
XRECORD
  5
1B0
330
19E
100
AcDbXrecord
280
1
290
0
  0
XRECORD
  5
1B1
330
19E
100
AcDbXrecord
280
1
290
0
  0
XRECORD
  5
1B2
330
19E
100
AcDbXrecord
280
1
290
0
  0
XRECORD
  5
1B3
330
19E
100
AcDbXrecord
280
1
 90
65537
  0
XRECORD
  5
1B4
330
19E
100
AcDbXrecord
280
1
 90
65537
  0
XRECORD
  5
1B5
330
19E
100
AcDbXrecord
280
1
 90
65537
  0
XRECORD
  5
1B6
330
19E
100
AcDbXrecord
280
1
 90
65537
  0
XRECORD
  5
1B7
330
19E
100
AcDbXrecord
280
1
1000
auto
  0
XRECORD
  5
1B8
330
19E
100
AcDbXrecord
280
1
1000
auto
  0
XRECORD
  5
1B9
330
19E
100
AcDbXrecord
280
1
1000
auto
  0
XRECORD
  5
1BA
330
19E
100
AcDbXrecord
280
1
1000
auto
  0
XRECORD
  5
1BB
330
19E
100
AcDbXrecord
280
1
1000
auto
  0
XRECORD
  5
1BC
330
19E
100
AcDbXrecord
280
1
1000
auto
  0
XRECORD
  5
1BD
330
19E
100
AcDbXrecord
280
1
1000
auto
  0
XRECORD
  5
1BE
330
19E
100
AcDbXrecord
280
1
1000
auto
  0
XRECORD
  5
1BF
330
19E
100
AcDbXrecord
280
1
 90
1
  0
XRECORD
  5
1C0
330
19E
100
AcDbXrecord
280
1
 40
10.0
  0
XRECORD
  5
1C1
330
19E
100
AcDbXrecord
280
1
 40
10.0
  0
XRECORD
  5
1C2
330
19E
100
AcDbXrecord
280
1
 40
10.0
  0
XRECORD
  5
1C3
330
19E
100
AcDbXrecord
280
1
 40
10.0
  0
XRECORD
  5
1C4
330
19E
100
AcDbXrecord
280
1
290
0
  0
XRECORD
  5
1C5
330
19E
100
AcDbXrecord
280
1
 90
1
  0
XRECORD
  5
1C6
330
19E
100
AcDbXrecord
280
1
 40
0.0
  0
XRECORD
  5
1C7
330
19E
100
AcDbXrecord
280
1
 40
0.0
  0
XRECORD
  5
1C8
330
19E
100
AcDbXrecord
280
1
1000
Portrait
  0
XRECORD
  5
1C9
330
19E
100
AcDbXrecord
280
1
 40
297.0
  0
XRECORD
  5
1CA
330
19E
100
AcDbXrecord
280
1
 40
210.0
  0
XRECORD
  5
1CB
330
19E
100
AcDbXrecord
280
1
1000
1:1
  0
XRECORD
  5
1CC
330
19E
100
AcDbXrecord
280
1
290
1
  0
XRECORD
  5
1CD
330
19E
100
AcDbXrecord
280
1
 90
4
  0
XRECORD
  5
1CF
330
19E
100
AcDbXrecord
280
1
 40
756.5513836275785025
  0
XRECORD
  5
1D0
330
19E
100
AcDbXrecord
280
1
 40
1619.8967961476087112
  0
ENDSEC
  0
EOF
